<svg width="187" height="171" viewBox="0 0 187 171" fill="none" xmlns="http://www.w3.org/2000/svg">
<g id="_&#229;&#156;&#150;&#229;&#177;&#164;_4" clip-path="url(#clip0_6241_11157)">
<path id="Vector" d="M166.341 102.91C166.806 103.211 166.48 103.432 166.059 103.539C165.776 103.601 165.439 103.617 165.121 103.648L164.451 103.899L164.117 103.291C163.498 102.976 163.161 102.803 162.981 102.751C162.802 102.698 162.763 102.775 162.777 102.949C162.803 103.253 163.03 103.755 162.487 103.556C162.211 103.453 161.944 103.369 161.675 103.303C161.417 103.229 161.168 103.173 160.922 103.125C160.417 103.029 159.94 102.966 159.468 102.893C158.988 102.823 158.527 102.755 158.071 102.639C157.602 102.522 157.161 102.375 156.714 102.14L157.662 101.76L157.857 101.756L157.636 101.709C157.039 101.565 156.228 101.184 156.624 102.127C156.524 102.411 156.338 102.561 156.082 102.585C155.832 102.619 155.517 102.529 155.139 102.336C154.784 102.375 154.603 102.237 154.479 101.949C153.697 101.524 152.899 101.395 152.218 101.177C151.555 101.012 151.035 100.754 150.658 100.143C150.592 100.045 150.327 100.02 150.16 100.095C149.882 100.199 149.633 100.22 149.386 100.249C149.134 100.301 148.89 100.312 148.649 100.279C148.397 100.305 148.14 100.291 147.876 100.253C147.609 100.245 147.324 100.248 147.04 100.213C146.136 100.216 145.161 100.409 144.195 100.902L143.834 101.066L143.471 101.274L142.746 101.697C142.268 102.04 141.781 102.326 141.311 102.718C140.461 103.348 139.811 103.739 139.429 102.706C139.306 102.367 138.987 102.082 138.508 102.681C138.308 102.921 137.632 103.311 138.303 103.601C138.894 103.87 138.644 104.69 138.138 105.064C136.963 105.94 136.101 107.138 135.125 108.244C134.135 109.402 133.653 109.389 132.821 108.43C132.642 108.223 132.405 108.07 132.055 107.769C131.556 109.229 131.095 110.501 130.684 111.8C130.936 111.457 131.211 111.121 131.442 110.768C131.704 110.354 131.807 109.672 132.313 109.653C132.642 109.64 132.963 109.984 133.05 110.318C133.185 110.812 132.844 111.431 132.327 111.864C131.717 112.39 131.163 112.353 130.661 112.2C130.362 113.723 129.677 115.004 128.533 116.438C125.726 120.013 122.963 123.702 121.011 127.861C120.251 129.478 119.987 129.53 118.576 128.733L118.526 128.553L118.532 128.756C118.029 129.325 117.038 130.031 118.209 130.286C119.101 130.483 119.255 131.18 118.463 132.078C117.779 132.876 117.302 133.761 116.897 134.669C116.503 135.582 116.154 136.507 115.708 137.394C115.16 138.519 115.001 139.843 113.712 140.198C113.306 140.313 113.271 140.823 113.245 141.203C113.076 143.571 111.839 145.467 110.515 147.344C110.077 147.951 109.716 148.495 109.622 149.298C109.562 149.847 109.439 150.39 109.279 150.934L99.5643 146.189C99.8237 145.503 100.173 144.856 100.524 144.23C100.86 143.596 101.234 143 101.56 142.438C102.782 140.33 103.578 138.01 104.207 135.688C104.833 133.36 105.277 131.034 105.811 128.736C105.931 128.108 106.005 127.469 105.992 126.824C105.964 126.185 105.938 125.54 105.879 124.911C105.806 124.281 105.783 123.657 105.803 123.036C105.803 122.417 105.89 121.804 106.097 121.169C105.791 120.569 105.601 119.956 105.462 119.331C105.279 118.716 105.161 118.089 105.05 117.446C104.891 116.824 104.752 116.186 104.577 115.569C104.355 114.979 104.108 114.402 103.791 113.86C103.492 113.437 103.072 112.933 102.861 112.375C102.616 111.831 102.533 111.248 102.974 110.596C103.172 110.297 103.063 110.03 102.846 109.848C102.627 109.672 102.327 109.564 102.197 109.53C101.731 109.408 101.329 109.223 100.974 108.984C100.598 108.76 100.254 108.501 99.9452 108.196C99.7898 108.046 99.6395 107.885 99.4919 107.72C99.339 107.565 99.1837 107.402 99.0283 107.239C98.7279 106.905 98.4173 106.567 98.1169 106.233C97.5893 105.739 97.677 105.352 97.9673 104.984C98.4684 105.265 99.0079 105.547 99.1819 104.953C99.2162 104.835 98.929 104.45 98.7323 104.33C97.7918 103.774 98.2233 104.747 97.9548 104.946C97.0797 104.564 96.2143 103.923 95.2962 103.791C94.4082 103.75 94.8748 102.493 94.1578 102.585C93.3121 102.728 92.6751 102.435 91.9665 102.107C91.7258 102.023 91.4852 101.926 91.1269 101.782C91.2312 100.894 92.1228 100.46 92.4493 99.7304L92.6218 99.6701L92.4342 99.6969C91.9925 99.3751 92.0547 98.6337 91.3438 98.6C90.304 98.6048 91.2413 99.2436 91.1413 99.5663C90.8934 100.419 89.5161 100.239 89.3381 101.031C88.6984 100.744 88.5825 100.466 88.5721 100.145C88.5642 99.8315 88.6669 99.5037 88.4018 99.2526L88.0319 99.2703L88.2365 99.046C88.0779 98.9652 87.7813 98.814 87.7813 98.814C87.3561 99.3576 86.8988 99.7366 86.4324 99.9564C85.9608 100.186 85.4704 100.188 84.9513 100.258C84.697 100.277 84.4326 100.277 84.1631 100.262C83.8962 100.242 83.6243 100.22 83.3545 100.243C82.81 100.275 82.2711 100.245 81.7516 100.367C81.5189 99.9136 81.7369 99.5995 82.016 99.368C82.2899 99.1339 82.6303 98.9337 82.6046 98.6049C82.5906 98.4174 82.4955 98.0983 82.357 98.0793C81.9417 98.0093 82.0574 98.3132 82.0228 98.4824C81.9397 98.9361 81.5549 98.8947 81.147 98.8607C80.7391 98.814 80.2976 98.808 80.1964 99.2848C80.0712 99.8717 80.0145 100.577 79.2049 101.028C78.4177 100.904 79.3395 99.5375 77.9247 99.8989C77.7549 99.6126 77.4896 99.3873 77.0769 99.3122C76.6011 99.0826 76.2301 99.2544 75.9597 99.6965C74.9776 100.22 74.9774 100.246 75.171 101.105C75.473 100.563 75.7355 100.149 76.0084 99.7148C76.3482 99.5916 76.6903 99.5018 77.0352 99.394C77.3265 99.5683 77.6024 99.7475 77.8833 99.9422C78.1009 100.362 78.0528 100.937 77.5635 101.139C76.3274 101.63 75.5925 102.718 74.3589 103.23C72.3937 104.052 70.5359 105.27 68.6898 106.642C68.2044 107 67.9418 107.098 67.5308 106.792C66.9359 106.354 66.6912 106.467 66.5198 107.057C66.2218 108.084 65.7999 108.874 64.3875 108.914C63.969 108.927 63.9391 109.137 63.8039 109.364C62.5634 111.432 60.0654 112.098 58.2446 113.522C58.0638 113.662 57.6868 113.605 57.399 113.639C57.0341 113.685 57.1807 112.98 56.6176 113.427C56.5091 113.514 56.9901 113.733 57.3652 113.692C57.2375 113.943 57.1708 114.276 56.9643 114.416C53.7358 116.617 50.5701 118.985 47.2152 120.916C45.7196 121.777 44.2699 122.662 42.884 123.612L36.623 114.809C37.1346 114.387 37.6334 113.952 38.1221 113.499C38.593 113.03 39.046 112.533 39.4864 112.023C40.1708 111.16 40.9059 110.046 42.0358 110.674L42.0448 110.846L42.1001 110.661C42.6363 110.039 42.645 109.238 43.6528 108.714C44.5006 108.302 44.9663 107.174 45.3817 106.232C45.6873 105.544 46.042 104.823 46.4553 104.163C47.4126 102.525 47.4228 102.53 48.7485 103.406C48.7384 104.058 48.0506 105.028 48.8427 105.522C48.973 104.609 49.099 103.906 48.8387 103.368C48.8297 102.526 49.0752 101.652 49.4486 100.831C49.8042 99.9941 50.275 99.1967 50.6835 98.4836C51.9274 96.2955 52.5205 93.6146 54.5755 91.7947C55.3783 90.2194 56.1582 88.6131 56.9407 87.0017C57.3262 85.2845 58.5939 84.0106 59.421 82.6152C60.1439 81.4115 60.8886 82.4031 61.3297 83.1304L61.3747 83.2822L61.3968 83.0873C61.4776 82.5873 61.6047 82.0851 61.3041 81.7773C60.6089 81.0428 59.8597 80.3131 61.6948 79.0384C61.8161 78.952 62.0032 78.6608 62.0017 78.5247C62.0063 75.5826 64.6286 73.4204 65.0273 70.6405C65.0544 70.461 65.1562 70.2359 65.2678 70.0801C65.8288 69.2449 66.908 68.1133 66.8527 67.6276C66.6901 66.3915 67.4931 65.4606 67.5856 64.4446C67.6779 62.7843 69.3854 61.7602 69.1346 59.9765C69.0861 59.6039 69.5902 59.4871 69.8724 59.5149C70.2392 59.5537 70.4913 59.8303 70.6834 60.2118C70.8706 60.5778 71.1081 61.0853 71.4759 60.3257C71.6636 59.9446 71.5644 59.4945 71.2048 59.176C70.5851 58.6347 70.2067 58.1003 70.0989 57.4269C69.9783 56.7533 70.1642 55.946 70.5039 54.8241L71.0171 53.185C71.1856 52.6395 71.3002 52.0858 71.4354 51.5297C71.5578 50.9735 71.693 50.4175 71.7768 49.861C71.8556 49.3019 71.9164 48.7402 71.9643 48.1783C71.9952 47.8268 72.072 47.5244 72.1794 47.2506C72.2739 46.9766 72.3938 46.7413 72.5316 46.5087C72.7996 46.0461 73.1083 45.63 73.3101 45.095L73.3961 44.9262L73.2721 45.0305C72.6858 45.1569 72.3057 44.8408 72.2503 44.0266C72.2036 43.4229 72.5568 43.2228 72.9543 43.2772L73.0793 43.3859L72.9855 43.2286C73.2033 42.2829 74.1991 43.3252 74.3112 42.0938C74.4372 42.0742 74.5629 42.0803 74.6885 42.112L74.7978 42.2515L74.7198 42.0507C74.6766 41.9964 74.6311 41.896 74.5874 41.9059C74.4871 41.9257 74.3839 41.9891 74.2835 42.0345C74.1448 42.0411 73.9799 42.1118 73.8701 42.0365C73.1575 41.5509 72.7848 41.2836 72.7926 40.9268C72.8031 40.5649 73.2173 40.1188 73.9738 39.2286C73.2489 39.3489 72.727 39.1087 72.4401 38.6854C72.1327 38.2646 72.0578 37.653 72.1938 36.9942C72.476 35.6819 72.1735 34.2779 71.9323 32.9179C71.6604 31.5551 71.4625 30.2366 71.8758 28.9073C71.4166 27.52 71.0832 26.126 70.6907 24.7469C70.3059 23.3653 69.8904 21.9809 69.2894 20.6695C67.8555 17.4905 66.1027 14.3937 63.6551 11.8256C61.9337 9.99474 60.036 8.37049 58.1073 6.78195C56.1527 5.21888 54.1412 3.717 52.0278 2.0988C52.532 1.64054 53.1932 1.45563 53.9378 1.4485C54.6692 1.47977 55.492 1.64782 56.2854 1.97481C57.8135 2.57957 59.3514 3.22805 60.8085 4.04792C62.2657 4.85495 63.6549 5.82063 64.8473 7.021C65.1786 7.33162 65.5327 7.69889 65.8981 7.91735C68.1448 9.22335 70.0507 11.1095 71.567 13.2417C73.0962 15.3741 74.2848 17.7323 75.2911 20.0942C77.6613 25.7091 79.2773 31.5904 79.8654 37.605C80.0681 39.6219 80.0858 41.6733 79.9729 43.6775C79.9549 44.6863 79.8445 45.6867 79.7445 46.6795L79.5944 48.1751L79.3725 49.6599C78.7902 53.6219 77.9005 57.4918 76.9955 61.341C75.6723 66.8454 73.115 71.9014 71.439 77.2004C71.1392 78.13 70.6367 79.0529 70.1703 79.9428C68.5354 83.2267 66.9058 86.5004 65.2761 89.7741C63.6696 93.0402 62.0937 96.3349 60.3563 99.6051C59.9266 100.398 59.4764 101.18 58.9803 101.939C57.0601 104.935 55.1218 107.942 52.9992 110.881C50.8741 113.812 48.5647 116.675 45.8954 119.27C45.3239 119.81 44.7523 120.35 44.1656 120.869L42.3338 122.378L37.6095 115.731C39.5838 114.385 41.5734 113.06 43.5274 111.679C48.0136 108.527 52.5178 105.365 57.0065 102.208C59.5644 100.426 62.1017 98.6455 64.8805 96.8466C67.6488 95.0681 70.6224 93.3169 73.9683 91.8842C75.8383 91.0847 77.8964 90.5229 80.0297 90.2055C80.5542 90.1119 81.1039 90.0699 81.6511 90.033L83.2899 89.9146C83.8369 89.8906 84.3809 89.923 84.9253 89.9169C85.4694 89.9365 86.0165 89.8996 86.5552 89.9551C88.5875 90.0887 90.5998 90.4892 92.5 91.1097L93.9316 91.5751C94.4053 91.7327 94.8556 91.9365 95.3189 92.1146L96.7089 92.649C97.1591 92.8527 97.6069 93.0486 98.065 93.237C98.6665 93.4855 99.2753 93.77 99.8296 94.1362C100.394 94.482 100.961 94.8484 101.498 95.2247C104.273 97.2511 106.781 99.5603 108.985 102.165C111.18 104.772 113.06 107.695 114.412 110.936C116.618 116.19 117.335 121.8 117.365 127.266C117.373 130.904 116.837 134.496 115.968 137.945C115.092 141.397 113.883 144.717 112.506 147.939C112.179 148.668 111.858 149.4 111.511 150.119L110.424 152.252L97.7962 146.081C100.806 138.658 104.523 131.565 108.553 124.669C111.183 120.179 113.668 115.492 116.913 111.476C119.267 108.539 121.539 105.547 123.918 102.636C124.221 102.269 124.498 101.914 124.82 101.537L125.783 100.404C126.454 99.6571 127.122 98.9152 127.844 98.1941C129.28 96.7546 130.805 95.3671 132.558 94.1405C134.075 93.0841 135.622 91.9843 137.383 91.0197C139.131 90.0549 140.996 89.1373 143.101 88.5604C143.608 88.3871 144.15 88.2834 144.695 88.1875C145.238 88.0966 145.768 87.98 146.327 87.9561C146.882 87.9167 147.437 87.8901 147.987 87.8738C148.543 87.8935 149.103 87.9337 149.655 87.9764C150.209 88.0012 150.75 88.1158 151.293 88.2124C151.837 88.3218 152.38 88.3927 152.903 88.5559C153.971 88.8362 154.97 89.1904 155.919 89.5648C157.88 90.3449 159.497 91.356 160.925 92.3348C162.353 93.3136 163.603 94.2731 164.799 95.0627C165.685 95.6754 166.959 95.9445 166.298 97.1409C166.458 97.2808 166.637 97.4233 166.728 97.5729C166.819 97.7097 166.836 97.8664 166.65 98.0422C166.485 98.2026 166.161 98.1539 165.924 97.975C165.531 97.6716 165.843 97.4506 165.917 97.2047C165.527 96.9091 165.208 96.6627 164.937 96.4989C164.658 96.3119 164.425 96.1998 164.208 96.1596C163.767 96.0766 163.373 96.2302 162.792 96.6365C161.951 97.2129 161.497 98.1156 160.383 98.4691L160.228 98.5064L160.413 98.5361C161.067 99.3267 162.08 100.03 162.914 100.771C163.345 101.126 163.715 101.514 164.002 101.911C164.281 102.311 164.455 102.754 164.436 103.26C164.579 103.346 164.748 103.406 164.922 103.443C165.031 103.267 165.092 103.072 165.247 102.92C165.48 102.69 165.909 102.606 166.335 102.92L166.341 102.91ZM72.0615 23.7638L71.9627 23.5911L71.9613 23.7708L72.0615 23.7638ZM74.0003 31.7425L74.012 31.5552L73.9221 31.5673L74.0029 31.7374L74.0003 31.7425ZM73.2412 34.3194L73.1785 34.1264L73.1361 34.2981L73.2412 34.3194ZM73.7554 37.2424C73.8916 37.2152 74.0252 37.206 74.1587 37.2095L74.2731 37.3516L74.1795 37.1686C74.126 37.122 74.0676 37.0343 74.0239 37.0442C73.921 37.0691 73.8254 37.1428 73.7224 37.1934L73.6413 37.3904L73.7554 37.2424ZM78.121 43.4554C78.1835 43.3326 78.1622 43.0963 78.1791 42.9116C78.0085 43.0566 77.8228 43.1681 77.6801 43.3596C77.6153 43.4489 77.6262 43.6929 77.6046 43.8365C77.8653 43.9951 77.996 43.688 78.121 43.4554ZM73.9719 46.8433L74.0039 46.692L73.8676 46.7192L73.9719 46.8433ZM73.4096 51.2085C73.471 51.2398 73.5875 51.1123 73.6803 51.0566C73.5965 50.943 73.5204 50.814 73.4236 50.726C73.291 50.6069 73.1954 50.6806 73.1629 50.9088C73.2442 51.0147 73.3098 51.1641 73.4121 51.2162L73.4096 51.2085ZM72.8685 55.823C72.9203 55.7592 72.99 55.711 73.024 55.6316C73.126 55.3808 73.1014 55.2394 72.9701 55.2949C72.9289 55.3125 72.8995 55.4587 72.868 55.5457L72.8685 55.823ZM76.1273 56.7106C76.1791 56.6468 76.2514 56.5934 76.2854 56.5141C76.3902 56.2453 76.3656 56.1039 76.2265 56.1619C76.1853 56.1796 76.1533 56.3308 76.1193 56.423L76.1273 56.7106ZM69.0597 65.7242L69.1301 65.5861L68.9915 65.5799L69.0597 65.7242ZM68.1529 68.8186L68.2914 68.8376L68.2257 68.701L68.1503 68.8237L68.1529 68.8186ZM66.7528 72.2865C66.8248 72.2717 67.0043 71.9701 66.9973 71.8699C66.9882 71.7235 66.8787 71.5969 66.7739 71.5371C66.6308 71.4512 66.5067 71.5684 66.4588 71.7888C66.4514 72.0814 66.4982 72.3436 66.7579 72.2892L66.7528 72.2865ZM63.6513 79.6875C64.3971 78.5148 64.2912 77.5846 64.6238 76.7297L64.784 76.6051L64.6166 76.668C63.8427 77.4913 63.3638 78.3426 63.6513 79.6875ZM60.1363 85.763C60.3429 85.9392 60.5848 85.8563 60.7005 85.5029C60.8739 84.9857 60.7872 84.5742 60.4703 84.387C60.294 84.2778 60.0218 84.2808 59.8984 84.6368C59.7172 85.1694 60.0208 85.4207 60.1363 85.763ZM56.4722 92.8644L56.5603 92.7547L56.4297 92.7203L56.4722 92.8644ZM54.8686 94.7468C55.0863 94.484 54.9676 94.2239 54.7216 94.1629L54.3039 94.0596C54.2512 93.9103 54.644 93.5693 54.308 93.5333L54.2627 94.0772C54.2922 94.2469 54.2959 94.4421 54.3591 94.5709C54.4603 94.7642 54.6458 95.007 54.8687 94.734L54.8686 94.7468ZM54.4708 97.4112C54.3364 96.8659 54.108 96.5176 53.4965 96.5796C53.4873 97.4447 53.8247 97.6296 54.4708 97.4112ZM50.1587 102.307L50.1986 102.128L50.1638 101.981L50.1265 102.156L50.1536 102.305L50.1587 102.307ZM50.7953 104.333L50.8071 104.133L50.8111 103.948L50.753 104.15L50.7979 104.328L50.7953 104.333ZM49.259 113.176C49.2204 113.188 49.1449 113.324 49.093 113.4C49.1079 113.472 49.0995 113.565 49.148 113.596C49.1736 113.609 49.3205 113.536 49.3491 113.479C49.487 113.247 49.452 113.126 49.2616 113.171L49.259 113.176ZM44.7556 110.204C44.8865 110.213 45.0605 110.289 45.1355 110.217C45.3397 110.032 45.5008 109.779 45.6486 109.59C45.5786 109.348 45.4452 109.331 45.2795 109.518C45.0879 109.729 44.9294 109.977 44.7607 110.207L44.7556 110.204ZM42.6381 111.818L42.7659 111.883L42.7414 111.729L42.6381 111.818ZM38.4377 115.876L38.5517 115.728L38.3792 115.801L38.4299 115.878L38.4377 115.876ZM40.5227 115.83L40.7106 115.765L40.665 115.677L40.5253 115.825L40.5227 115.83ZM44.9151 119.879C43.9419 119.576 43.3564 119.929 43.1072 120.949L43.016 121.128L43.1586 120.949C43.597 120.354 44.4558 120.515 44.9177 119.874L44.9151 119.879ZM51.0345 116.001L50.8794 116.141L51.0672 116.088L51.0345 116.001ZM57.9021 110.3C57.8534 110.294 57.7116 110.37 57.6804 110.419C57.5427 110.638 57.6062 110.729 57.825 110.653C57.8867 110.633 57.939 110.518 58.0011 110.447C57.9681 110.398 57.9585 110.316 57.8995 110.305L57.9021 110.3ZM59.8797 109.529L59.7585 109.603L59.8864 109.668L59.8797 109.529ZM64.5443 106.217C63.9562 106.575 63.5928 106.757 63.2777 106.996C62.8517 107.313 62.33 107.718 62.9033 107.945C63.2668 108.092 63.6234 107.784 63.8497 107.403C64.0396 107.081 64.2268 106.764 64.5494 106.22L64.5443 106.217ZM67.9483 104.241L67.8367 104.397C67.8123 104.558 67.3313 104.68 67.5763 104.87L67.906 104.4L67.9431 104.238L67.9483 104.241ZM69.8915 102.931C69.8014 102.956 69.6961 102.96 69.6187 103.011C69.3529 103.191 69.3419 103.289 69.5861 103.252C69.6632 103.24 69.7716 103.166 69.8414 103.105C69.8828 103.062 69.873 102.992 69.8915 102.931ZM71.2965 103.512C71.2217 103.557 71.1671 103.639 71.0999 103.708C71.1692 103.711 71.2385 103.714 71.3 103.72C71.3825 103.672 71.5138 103.629 71.5476 103.575C71.6568 103.399 71.5518 103.365 71.2965 103.512ZM77.5401 95.1413C77.4699 94.9251 77.2498 94.8387 76.8949 94.9156C76.8384 94.9254 76.7424 95.0505 76.7394 95.1069C76.7352 95.3174 76.8339 95.503 77.1989 95.4442C77.3043 95.427 77.4238 95.2431 77.5401 95.1413ZM77.6079 92.328C77.5795 92.0172 77.2978 91.9252 76.9192 92.0866C76.6436 92.1974 76.3591 92.4648 76.327 92.6417C76.279 92.875 76.6223 92.9726 76.9905 92.8316C77.2609 92.7182 77.4348 92.4782 77.6079 92.328ZM81.9734 92.5232L81.7633 92.4677L81.7343 92.5753L81.9734 92.5232ZM84.1889 98.2396L84.1132 98.0594C84.0309 98.0818 83.9231 98.0784 83.874 98.1243C83.7086 98.2591 83.7618 98.357 84.0185 98.359C84.0776 98.3569 84.1346 98.2829 84.194 98.2423L84.1889 98.2396ZM95.2113 99.7977C95.3532 99.6961 95.2799 99.5492 95.0747 99.522C94.9362 99.503 94.802 99.602 94.7218 99.6836C94.5976 99.8136 94.6583 99.9219 94.83 99.9643C94.9614 99.9088 95.108 99.874 95.2164 99.8003L95.2113 99.7977ZM97.1026 98.5645L97.1195 98.3669C97.0273 98.3329 96.9225 98.273 96.8506 98.275C96.6092 98.2809 96.6161 98.3939 96.869 98.555C96.9278 98.5914 97.0255 98.5639 97.1052 98.5594L97.1026 98.5645ZM98.7658 99.2833L98.5818 99.1766L98.6858 99.3391L98.7709 99.2859L98.7658 99.2833ZM102.445 101.648C102.528 101.51 102.347 101.27 102.135 101.232C101.67 101.157 101.412 101.334 101.396 101.771C101.865 101.926 102.265 101.949 102.447 101.643L102.445 101.648ZM100.454 106.767L100.28 106.704L100.106 106.693L100.285 106.758L100.449 106.764L100.454 106.767ZM102.53 107.599C102.571 107.582 102.582 107.459 102.554 107.425C102.504 107.36 102.409 107.331 102.335 107.287C102.283 107.313 102.183 107.332 102.19 107.368C102.23 107.582 102.36 107.667 102.522 107.602L102.53 107.599ZM105.714 105.84C105.67 105.611 105.537 105.492 105.377 105.552C105.339 105.564 105.325 105.706 105.348 105.737C105.409 105.806 105.496 105.851 105.572 105.903C105.626 105.885 105.727 105.878 105.719 105.842L105.714 105.84ZM104.385 112.076C104.577 111.851 104.633 111.577 104.62 111.274C104.589 110.981 104.491 110.667 104.393 110.353C104.413 110.112 104.474 109.879 104.445 109.619C104.421 109.401 104.224 109.332 104.202 109.54C104.174 109.771 104.259 110.059 104.296 110.316C104.396 110.625 104.2 110.847 104.097 111.098C103.995 111.349 103.981 111.618 104.385 112.076ZM107.036 111.262C107.082 111.221 107.149 111.203 107.163 111.139C107.216 110.896 107.127 110.767 106.947 110.83C106.905 110.847 106.879 110.963 106.894 111.035C106.909 111.107 106.985 111.184 107.036 111.262ZM111.567 109.286L111.375 109.156C111.163 108.7 110.964 108.231 110.734 107.785L110.699 107.588L110.66 107.741C110.699 108.322 110.821 108.841 111.375 109.182L111.564 109.291L111.567 109.286ZM106.451 114.179C106.473 113.984 106.552 113.766 106.491 113.671C106.258 113.281 105.961 113.194 105.675 113.3C105.492 113.368 105.47 113.524 105.621 113.633C105.884 113.825 106.168 113.989 106.446 114.176L106.451 114.179ZM108.22 120.164L108.121 120.017L107.991 119.918L108.09 120.078L108.22 120.164ZM108.543 123.26L108.431 123.113C108.289 122.886 108.14 122.636 107.972 122.447C107.822 122.286 107.611 122.005 107.507 122.448C107.494 122.512 107.687 122.753 107.81 122.841C108.004 122.978 108.219 123.049 108.408 123.159L108.543 123.26ZM108.51 125.627C108.64 125.712 108.739 125.557 108.682 125.328C108.647 125.168 108.53 125.057 108.441 124.928C108.284 124.906 108.217 125.026 108.266 125.245C108.304 125.399 108.408 125.562 108.51 125.627ZM109.365 138.981C109.369 139.073 109.348 139.217 109.381 139.253C109.506 139.375 109.637 139.293 109.719 139.045C109.748 138.963 109.746 138.814 109.708 138.775C109.583 138.654 109.454 138.743 109.365 138.981ZM107.359 139.466C107.028 138.711 106.885 137.955 106.221 137.817C105.735 139.592 105.733 139.61 107.359 139.466ZM103.948 143.062C104.19 142.864 104.257 142.582 104.164 142.348C104.05 142.077 103.81 142.219 103.611 142.382C103.384 142.563 103.274 142.803 103.377 143.081C103.533 143.257 103.736 143.238 103.948 143.062ZM109.025 146.462C108.887 146.404 108.761 146.501 108.72 146.745C108.674 147.024 108.647 147.306 108.66 147.571C108.669 147.781 108.802 147.746 108.93 147.496C109.126 147.112 109.167 146.766 109.028 146.47L109.025 146.462ZM112.248 139.735C111.928 139.617 111.798 139.718 111.763 139.964C111.72 140.252 111.617 140.644 111.713 140.783C111.883 141.031 112.119 140.745 112.196 140.417C112.262 140.135 112.244 139.855 112.25 139.729L112.248 139.735ZM116.23 132.325C115.94 132.312 115.571 132.163 115.206 132.551C114.839 132.943 115.052 133.22 115.269 133.375C115.563 133.583 115.907 133.616 116.265 133.065C116.457 132.776 116.457 132.512 116.225 132.322L116.23 132.325ZM122.538 123.537L122.455 123.739L122.612 123.632L122.538 123.537ZM121.75 122.516L121.633 123.088L121.678 123.253L121.692 123.06C121.67 122.888 122.078 122.593 121.758 122.514L121.75 122.516ZM123.277 120.949L123.209 121.134L123.353 121.001L123.279 120.944L123.277 120.949ZM118.394 115.877C118.372 115.705 118.809 115.393 118.476 115.313L118.356 115.89L118.359 116.085L118.394 115.877ZM123.656 118.385C123.555 118.43 123.347 118.814 123.37 118.845C123.754 119.369 124.297 119.542 125.313 118.952C124.75 118.614 124.475 118.029 123.653 118.39L123.656 118.385ZM128.481 111.901C127.391 112.711 126.874 113.929 125.748 115.456C127.517 114.373 127.825 113.023 128.481 111.901ZM127.708 107.5C127.523 107.508 127.386 107.651 127.359 107.856C127.351 107.923 127.407 108.016 127.461 108.011C127.646 108.002 127.772 107.867 127.813 107.649C127.777 107.593 127.76 107.487 127.706 107.492L127.708 107.5ZM134.389 105.112C134.221 105.226 134.061 105.338 133.901 105.462C132.661 106.087 133.239 106.697 133.38 107.168C133.555 107.76 133.978 108.079 135.043 107.217C134.366 106.801 133.6 106.559 133.898 105.48C134.063 105.371 134.355 105.533 134.389 105.112ZM135.934 103.837C135.878 103.822 135.798 103.775 135.77 103.805C135.71 103.859 135.64 103.958 135.642 104.018C135.636 104.233 135.743 104.249 135.896 104.063C135.943 104.01 135.926 103.917 135.936 103.845L135.934 103.837ZM142.414 95.1428C142.424 95.1865 142.539 95.2131 142.613 95.206C142.688 95.1988 142.771 95.125 142.851 95.082C142.815 95.0381 142.79 94.9737 142.733 94.9579C142.495 94.8944 142.366 94.9705 142.419 95.1454L142.414 95.1428ZM141.163 99.5952C140.39 99.5174 139.85 100.047 139.188 100.979C139.674 100.873 140.08 100.783 140.418 100.64C140.76 100.511 141.034 100.316 141.25 99.9553C141.307 99.8556 141.242 99.6035 141.158 99.5926L141.163 99.5952ZM145.701 99.3373L145.586 99.2466C145.377 99.0499 145.184 98.8481 144.925 98.7101C144.659 98.5746 144.267 98.5228 144.123 98.9068C144.013 99.2371 144.263 99.4418 144.619 99.4497C144.933 99.4547 145.249 99.339 145.56 99.2849L145.701 99.3373ZM144.428 90.9633C144.238 90.931 144.061 90.886 143.851 90.8818C143.555 90.8796 143.311 91.006 143.374 91.1477C143.412 91.225 143.699 91.2555 143.889 91.2236C144.059 91.1941 144.247 91.0517 144.435 90.9608L144.428 90.9633ZM148.495 97.1919C148.111 97.0606 147.728 97.1167 147.442 97.3507C147.312 97.4524 147.396 97.6431 147.562 97.6572C147.968 97.709 148.221 97.4517 148.495 97.1919ZM148.656 95.0443C147.825 95.2202 147.425 95.5252 147.355 95.9534C147.352 95.9714 147.659 96.0636 147.801 96.039C148.333 95.943 148.403 95.5661 148.656 95.0443ZM150.494 98.3651C150.479 98.3316 150.376 98.3052 150.34 98.3254C150.175 98.4089 150.164 98.5192 150.3 98.5818C150.336 98.6001 150.413 98.5493 150.475 98.5293C150.486 98.4703 150.519 98.4038 150.502 98.3626L150.494 98.3651ZM154.959 101.994L154.919 101.883L154.808 101.923L154.956 101.999L154.959 101.994ZM157.825 100.529C156.089 99.5864 155.276 99.8163 154.667 100.505L154.531 100.558C154.582 100.558 154.639 100.561 154.698 100.572C155.051 100.346 155.501 100.311 156.022 100.338C156.563 100.388 157.155 100.478 157.82 100.526L157.825 100.529Z" fill="#DDF0DB"/>
<path id="Vector_2" d="M160.028 104.892C159.736 104.834 159.397 104.854 159.242 104.956C159.051 105.077 159.2 105.366 159.574 105.569C160.157 105.892 160.381 105.717 160.532 105.458C160.493 105.258 160.526 104.991 160.028 104.892Z" fill="#DD5621"/>
<path id="Vector_3" d="M168.943 98.45C168.8 98.4155 168.563 98.424 168.481 98.4978C168.258 98.6938 168.488 98.8496 168.708 98.936C168.946 99.0379 169.208 99.0938 169.355 98.9178C169.456 98.5951 169.184 98.5083 168.943 98.45Z" fill="#DD5621"/>
<path id="Vector_4" d="M167.198 103.933C167.022 104.075 166.872 104.244 167.335 104.46C167.825 104.536 168.075 104.399 168.153 104.207C168.195 104.1 168.153 103.904 168.012 103.839C167.608 103.659 167.366 103.806 167.2 103.941L167.198 103.933Z" fill="#DD5621"/>
</g>
<defs>
<clipPath id="clip0_6241_11157">
<rect width="150" height="114.719" fill="white" transform="translate(52.9043) rotate(27.004)"/>
</clipPath>
</defs>
</svg>
