<svg width="131" height="25" viewBox="0 0 131 25" fill="none" xmlns="http://www.w3.org/2000/svg">
<g clip-path="url(#clip0_6620_1820)">
<path d="M129.731 17.9072C129.6 18.6819 129.579 19.9572 129.139 19.8239C128.706 19.6942 128.234 19.893 127.786 19.8765C127.373 19.8581 126.972 19.7437 126.537 19.6639C126.351 20.5533 126.581 21.4056 126.292 22.216C126.049 22.8989 125.736 23.1681 125.622 22.7612C125.122 20.9698 124.207 21.8062 123.602 20.7452C123.485 21.1976 123.362 21.6493 123.199 21.6698C123.171 21.6727 123.138 21.2982 123.162 21.1771C123.276 20.592 123.432 20.6207 123.576 20.5393C123.649 20.1233 123.911 19.407 123.639 19.4215C123.264 19.4426 123.014 20.9461 122.701 21.6215C122.325 22.4342 122.397 21.3322 122.493 20.4742L122.56 20.2283L122.483 20.4113C122.299 20.3912 122.143 20.2683 122.132 19.5518L122.207 19.3361L122.123 19.5007C121.177 19.8274 120.22 20.3118 119.243 21.8126C118.859 22.4008 118.53 22.518 118.218 22.2985C117.866 22.0512 117.776 21.3672 118.17 20.0236C118.268 19.684 118.546 19.2491 118.354 18.819C118.267 18.627 117.922 19.0163 117.917 19.0687C117.76 21.2212 117.188 20.4023 116.893 21.5595C116.738 22.1667 116.488 22.5751 116.361 22.0961C116 20.735 115.365 21.2281 114.861 20.8493C114.715 20.7392 114.633 20.4241 114.605 19.9235C114.667 19.6859 114.804 20.0336 114.818 19.4228C114.745 19.5708 114.672 19.7218 114.598 19.8698C114.421 19.4648 114.22 19.5607 113.964 20.0715C113.642 20.7135 113.331 21.0505 113.279 19.6671C113.384 19.3989 113.49 19.1278 113.595 18.8596L113.658 18.6457L113.583 18.773C113.478 19.0441 113.372 19.3152 113.268 19.5865C112.98 20.0791 112.714 20.4622 112.565 19.5245C112.44 18.7308 112.339 17.763 112.124 17.3275C111.705 16.4782 111.804 17.4104 111.915 18.1642C111.77 18.4664 111.589 19.0561 111.488 19.0185C111.062 18.8543 110.612 18.7347 110.261 18.1548C109.884 17.5278 110.549 16.3315 110.509 15.394C110.219 15.5743 110.077 16.4125 109.91 17.1451C109.755 17.8376 109.545 18.3475 109.377 18.0643C108.591 16.7481 107.571 18.3267 106.663 18.5397C106.244 18.6354 105.77 19.5346 105.4 18.9584C105.147 18.5629 104.918 18.9235 104.644 19.8417C104.342 20.8537 103.896 22.6951 103.965 19.7764C103.974 19.3652 103.796 19.5579 103.684 19.9283C103.206 21.5218 102.668 21.5162 102.161 22.1881C101.166 23.5044 101.166 23.4279 101.494 19.9163C100.924 20.3929 100.345 20.2238 99.8103 22.394C99.6632 22.9873 99.378 23.1034 99.3575 22.2828C99.3084 20.155 98.6887 21.3621 98.4618 21.8732C97.8579 23.2263 97.6698 21.463 97.2201 21.7496C96.9338 21.9333 97.2278 20.6318 97.1814 20.1851C97.0458 18.8898 96.8237 19.5898 96.6141 20.7179C96.6953 21.136 96.6549 21.4878 96.4707 21.7621C96.4425 21.8267 96.4161 21.8945 96.3892 21.9475C96.3865 21.9531 96.3661 21.8302 96.3691 21.8217C96.3923 21.7447 96.4208 21.6772 96.4472 21.6094C96.4556 21.416 96.4619 21.2224 96.4634 21.0342C96.1834 20.8888 95.8894 21.0658 95.5763 21.5733C95.5483 21.6557 95.5069 21.8219 95.4933 21.8116C95.4336 21.758 95.459 21.6224 95.5617 21.4746C95.5074 20.771 95.4813 20.0793 95.124 21.1472C94.7813 22.1785 94.383 23.1183 94.2556 21.2822L94.3164 21.0739L94.2415 21.1982C93.4147 22.6772 92.6165 22.3429 91.7815 23.6443C91.4049 24.2303 91.2924 23.8854 91.1367 22.1345C91.0772 21.4598 90.9087 21.6681 90.8353 21.7984C90.1355 23.0616 89.4839 23.8826 89.0155 22.2477C88.9769 22.1169 88.8605 22.0218 88.8428 22.0876C87.9857 25.3177 87.248 23.6329 86.4668 24.1307C86.1287 24.3441 85.623 24.7187 85.7526 22.5603C85.814 21.5514 85.6094 22.1679 85.4746 22.5123C84.9505 23.8506 84.4771 23.7548 83.9695 23.8555C82.3028 24.1802 80.6799 24.1417 79.0632 23.9301C78.3505 23.8377 77.5461 24.7627 77.028 23.1372C76.9644 23.0419 77.11 22.4043 76.9375 22.5915C76.9577 22.7939 76.98 22.9965 77.0002 23.1989C75.959 25.0548 75.1352 24.0436 74.3301 23.5202C73.4777 22.9651 72.5616 23.2273 71.6981 22.9684C70.7467 22.6821 69.7053 23.2604 68.8008 22.4082C68.3563 21.9888 67.7926 21.5182 67.1488 22.7139C66.6854 23.573 66.6571 22.3394 66.5522 21.5184C66.4242 21.9755 66.2911 22.4408 66.1217 22.4636C66.0915 22.4691 66.0572 22.0856 66.0814 21.941C66.1912 21.3024 66.3566 21.2969 66.5093 21.1752C66.0126 19.9553 65.3366 22.1631 64.7411 22.2571C64.2659 22.3319 63.6 23.2455 63.3188 22.3936C62.9595 21.3093 62.3462 23.7948 62.1274 22.2548L62.2034 22.0423L62.1206 22.2011C61.6722 21.9521 61.1946 22.321 60.6963 22.6081C59.7066 23.1774 58.7112 23.3721 57.77 23.031C56.7273 22.6524 55.7164 21.768 54.4834 23.4647C54.2894 23.732 54.0409 24.0346 53.8983 23.869C52.5056 22.2806 50.7859 23.7505 49.28 23.2007C48.5667 22.9405 47.7579 23.4587 47.077 22.8428L47.0281 22.6903L47.0509 22.9077C46.9146 23.4021 46.7204 23.8461 46.6083 23.6337C45.8089 22.1276 44.7009 23.0843 43.8058 22.5334C42.5245 21.7461 41.1236 22.0938 39.8002 21.9054C38.6352 21.7372 37.4225 21.2312 36.1089 22.3479C35.8808 22.5409 35.5961 22.6129 35.4538 22.2707C34.7775 20.6632 33.7677 21.9014 32.954 21.4565C32.1463 21.0152 31.2286 21.3891 30.4161 20.9915C29.8161 20.6994 28.7626 23.1339 28.675 19.4976C28.667 19.164 28.4917 19.6483 28.3826 19.8926C27.5752 21.6974 27.571 21.697 27.0001 20.1304C26.9514 19.9956 26.9502 19.7541 26.8506 19.9316C25.4657 22.4007 24.3048 21.497 23.1167 21.2497C22.1725 21.0526 21.1443 21.2379 20.3706 19.923C18.7763 17.2175 16.845 17.0041 14.9504 16.4914C14.546 16.3826 14.1676 16.2294 13.859 15.454C13.1098 13.5648 12.1229 13.0038 11.1178 12.5705C10.1308 12.145 9.20068 11.1015 8.16545 11.2743C7.47657 11.3905 6.7525 11.5971 6.03402 11.9074C5.17366 12.2788 4.46044 10.7379 4.33449 8.11302C4.25408 6.44688 4.6883 5.25485 5.06317 4.80115C6.20976 3.41299 7.41169 1.63345 8.43933 2.55797C9.15529 3.20122 9.90989 3.45127 10.6836 3.60332C12.1196 3.88348 13.579 3.94836 14.9901 4.43776C16.1283 4.83266 17.3524 4.10943 18.5293 3.95511C20.0472 3.75552 21.5663 3.64143 23.0996 3.16387C25.5537 2.40102 27.8138 3.45692 30.217 3.18015C33.0632 2.85158 35.9385 2.27595 38.7463 2.51429C40.5574 2.66754 42.3534 3.32843 44.2985 2.17452C44.416 2.10489 44.528 2.1436 44.6365 2.17602C47.6047 2.99707 50.7465 2.109 53.7337 2.79376C55.3375 3.16287 57.0256 2.9524 58.7349 2.31444C58.8121 2.28458 58.8964 2.229 58.9639 2.26874C60.6714 3.21732 62.5908 1.95166 64.3693 2.21029C66.6558 2.539 68.9561 2.79857 71.3573 1.9593C71.9021 1.76846 72.3818 2.19462 72.8883 2.31753C74.7295 2.75668 76.6653 2.23172 78.5515 2.14293C81.3403 2.01123 84.0506 2.60103 86.8199 2.62911C89.2725 2.65505 91.7273 2.7195 94.0396 4.05193C94.5206 4.33103 95.1061 3.84436 95.6088 4.00218C97.3786 4.55423 99.2215 4.45484 100.993 5.03062C102.248 5.43827 103.524 6.01897 104.826 5.88122C108.61 5.48698 112.118 7.62985 115.89 7.14605C118.601 6.79687 121.137 8.08001 123.895 7.24139C125.195 6.84734 126.411 7.59805 127.657 7.91637C127.866 7.96868 128.032 8.43119 128.212 8.73638C128.516 9.25825 128.426 10.1816 128.097 10.9141C127.664 11.8767 127.283 12.7948 127.205 14.5437L127.135 14.7923L127.215 14.5861C127.253 14.5843 127.289 14.603 127.328 14.5719C127.951 14.0981 127.382 16.0791 127.512 16.476C127.81 17.3886 128.049 15.1362 128.352 15.2046C128.385 15.2111 128.432 15.2663 128.432 15.3457C128.436 17.7896 128.981 17.4015 129.546 16.9833C129.725 16.8527 129.837 17.3064 129.733 17.9074L129.731 17.9072ZM14.4912 14.1716L14.4398 14.0424L14.4122 14.2366L14.4909 14.1746L14.4912 14.1716ZM20.5579 18.4951L20.4795 18.5748L20.5355 18.681L20.5558 18.4948L20.5579 18.4951ZM21.5442 18.5967C21.5132 18.5903 21.474 18.6597 21.4382 18.697C21.4512 18.772 21.4623 18.8439 21.4753 18.9189C21.5087 18.9225 21.5486 18.9828 21.5755 18.9298C21.6569 18.765 21.6471 18.6226 21.5436 18.6025L21.5442 18.5967ZM22.5852 18.9721L22.5335 18.8458L22.5079 19.0226L22.5855 18.9692L22.5852 18.9721ZM24.0844 19.8745L24.0712 19.6081C24.0006 19.5386 24.0358 18.8859 23.8667 19.3709C23.9279 19.4688 23.9873 19.5636 24.0484 19.6615L24.0844 19.8745ZM25.1594 19.4529C25.1188 19.3602 25.0782 19.2674 25.0397 19.1749C24.9689 19.2231 24.9003 19.2716 24.8295 19.3198C24.8683 19.4094 24.9026 19.5603 24.9497 19.5743C25.0135 19.5901 25.089 19.4982 25.1594 19.4529ZM84.6492 19.8877L84.5737 19.9413L84.6236 20.0645L84.6492 19.8877ZM89.6454 20.5206C89.6856 20.21 89.6529 20.0445 89.5624 20.0994C89.5354 20.1142 89.5028 20.2784 89.4735 20.3724C89.4396 20.6837 89.4681 20.8487 89.5603 20.7969C89.5852 20.782 89.634 20.6254 89.6475 20.5209L89.6454 20.5206ZM97.5141 17.5984L97.4649 17.546L97.4524 17.8154L97.5144 17.5955L97.5141 17.5984ZM99.3997 10.0116C99.423 10.0112 99.4604 9.86222 99.4926 9.78035C99.4963 9.66889 99.4979 9.5572 99.5019 9.44283C99.4673 9.4891 99.425 9.50805 99.3953 9.58723C99.2975 9.84446 99.3 10.0155 99.4001 10.0087L99.3997 10.0116ZM98.7981 17.3733C98.7976 17.2614 98.8062 17.124 98.7915 17.0459C98.7474 16.7908 98.6936 16.8586 98.6611 17.2142C98.6519 17.2985 98.6855 17.3787 98.6996 17.4627C98.7323 17.4339 98.765 17.4051 98.7998 17.3765L98.7981 17.3733ZM99.2638 19.2846L99.2188 19.1355L99.1844 19.3348L99.2638 19.2846ZM101.726 15.3816L101.651 15.4175L101.694 15.5577L101.726 15.3816ZM102.132 20.1153C102.075 20.1298 101.991 20.3561 101.933 20.5412C101.852 20.8031 101.848 21.0883 101.929 21.0676C101.985 21.0532 102.061 20.7995 102.128 20.6536C102.204 20.3617 102.212 20.0976 102.132 20.1153ZM109.011 14.0413C109.031 13.6785 108.985 13.597 108.886 13.8687C108.823 14.0356 108.749 14.2689 108.726 14.4784C108.689 14.8188 108.753 14.914 108.848 14.6624C108.91 14.5013 108.958 14.2505 109.011 14.0413ZM114.08 16.6958C114.095 16.6356 114.074 16.4802 114.069 16.3708C114.042 16.3472 114.003 16.2753 113.991 16.3122C113.965 16.3918 113.931 16.5677 113.936 16.6418C113.955 16.9324 114.014 16.9535 114.08 16.6958ZM114.787 17.344L114.742 17.3125L114.731 17.5704L114.787 17.3411L114.787 17.344ZM126.378 15.6518C126.311 15.7475 126.242 15.8136 126.177 15.9449C126.079 16.1461 126.056 16.4116 126.137 16.4645C126.187 16.4964 126.271 16.3231 126.334 16.1916C126.432 15.9903 126.446 15.7887 126.378 15.6518Z" fill="#ADD4AA"/>
<path d="M29.3736 17.727L29.3736 17.118C29.3736 17.0247 29.3946 16.964 29.4366 16.936C29.4786 16.908 29.5439 16.894 29.6326 16.894L30.7736 16.894C30.9603 16.894 31.0723 16.8777 31.1096 16.845C31.1516 16.8123 31.1889 16.7213 31.2216 16.572L32.8666 8.879C32.8946 8.74833 32.8923 8.67133 32.8596 8.648C32.8316 8.62 32.7429 8.606 32.5936 8.606L31.5646 8.606C31.4479 8.606 31.3756 8.58967 31.3476 8.557C31.3196 8.51967 31.3056 8.44267 31.3056 8.326L31.3056 7.752C31.3056 7.64933 31.3173 7.58167 31.3406 7.549C31.3686 7.51633 31.4339 7.5 31.5366 7.5L36.3316 7.5C36.4389 7.5 36.5089 7.51633 36.5416 7.549C36.5789 7.577 36.5976 7.64933 36.5976 7.766L36.5976 8.34C36.5976 8.44733 36.5836 8.51967 36.5556 8.557C36.5323 8.58967 36.4669 8.606 36.3596 8.606L35.1766 8.606C35.0319 8.606 34.9456 8.62233 34.9176 8.655C34.8943 8.68767 34.8709 8.76467 34.8476 8.886L33.2166 16.502C33.1839 16.6607 33.1863 16.7657 33.2236 16.817C33.2656 16.8683 33.3916 16.894 33.6016 16.894L35.4636 16.894C36.0749 16.894 36.5766 16.8193 36.9686 16.67C37.3653 16.516 37.6873 16.2547 37.9346 15.886C38.1866 15.5127 38.4036 14.9993 38.5856 14.346C38.6229 14.2293 38.6603 14.1523 38.6976 14.115C38.7396 14.073 38.8353 14.052 38.9846 14.052L39.4046 14.052C39.5026 14.052 39.5656 14.0683 39.5936 14.101C39.6216 14.129 39.6263 14.1827 39.6076 14.262L38.8166 17.727C38.7886 17.839 38.7513 17.9137 38.7046 17.951C38.6626 17.9837 38.5716 18 38.4316 18L29.6956 18C29.5696 18 29.4856 17.9883 29.4436 17.965C29.3969 17.937 29.3736 17.8577 29.3736 17.727ZM39.8933 15.396C39.8933 14.7287 40.0099 14.1033 40.2433 13.52C40.4766 12.932 40.8009 12.4163 41.2163 11.973C41.6316 11.525 42.1146 11.175 42.6653 10.923C43.2206 10.6663 43.8179 10.538 44.4573 10.538C45.0639 10.538 45.5913 10.6523 46.0393 10.881C46.4873 11.105 46.8349 11.427 47.0823 11.847C47.3296 12.2623 47.4533 12.7547 47.4533 13.324C47.4533 13.9867 47.3366 14.612 47.1033 15.2C46.8699 15.788 46.5456 16.306 46.1303 16.754C45.7149 17.1973 45.2296 17.5473 44.6743 17.804C44.1236 18.056 43.5286 18.182 42.8893 18.182C42.2826 18.182 41.7529 18.07 41.3003 17.846C40.8523 17.6173 40.5046 17.2953 40.2573 16.88C40.0146 16.46 39.8933 15.9653 39.8933 15.396ZM41.8673 15.522C41.8673 15.8533 41.9046 16.152 41.9793 16.418C42.0539 16.684 42.1706 16.894 42.3293 17.048C42.4926 17.202 42.7073 17.279 42.9733 17.279C43.3139 17.279 43.6336 17.167 43.9323 16.943C44.2356 16.7143 44.5039 16.4063 44.7373 16.019C44.9706 15.627 45.1526 15.1883 45.2833 14.703C45.4139 14.2177 45.4793 13.716 45.4793 13.198C45.4793 12.8667 45.4419 12.568 45.3673 12.302C45.2973 12.036 45.1806 11.826 45.0173 11.672C44.8539 11.518 44.6393 11.441 44.3733 11.441C44.0326 11.441 43.7106 11.5553 43.4073 11.784C43.1086 12.008 42.8426 12.316 42.6093 12.708C42.3759 13.0953 42.1939 13.5317 42.0633 14.017C41.9326 14.4977 41.8673 14.9993 41.8673 15.522ZM53.6061 13.52C53.6061 13.17 53.5757 12.8433 53.5151 12.54C53.4544 12.2367 53.3424 11.994 53.1791 11.812C53.0157 11.6253 52.7824 11.532 52.4791 11.532C52.2084 11.532 51.9307 11.6463 51.6461 11.875C51.3661 12.099 51.1071 12.4023 50.8691 12.785C50.6311 13.163 50.4397 13.5853 50.2951 14.052C50.1504 14.5187 50.0781 14.9947 50.0781 15.48C50.0781 16.026 50.1784 16.4483 50.3791 16.747C50.5797 17.0457 50.8667 17.195 51.2401 17.195C51.5061 17.195 51.7767 17.0853 52.0521 16.866C52.3321 16.642 52.5887 16.348 52.8221 15.984C53.0601 15.62 53.2491 15.2233 53.3891 14.794C53.5337 14.36 53.6061 13.9353 53.6061 13.52ZM56.9241 15.914C56.6254 16.5953 56.2334 17.1483 55.7481 17.573C55.2674 17.993 54.7424 18.203 54.1731 18.203C53.8371 18.203 53.5687 18.1237 53.3681 17.965C53.1721 17.8017 53.0461 17.6057 52.9901 17.377C52.9807 17.2883 52.9737 17.2207 52.9691 17.174C52.9644 17.1273 52.9597 17.0877 52.9551 17.055C52.9411 16.999 52.9154 16.9757 52.8781 16.985C52.8454 16.9897 52.7964 17.0247 52.7311 17.09C52.4464 17.412 52.1197 17.6757 51.7511 17.881C51.3824 18.0817 50.9857 18.182 50.5611 18.182C50.1317 18.182 49.7281 18.1003 49.3501 17.937C48.9721 17.769 48.6641 17.4913 48.4261 17.104C48.1881 16.7167 48.0691 16.1893 48.0691 15.522C48.0691 14.7987 48.1951 14.136 48.4471 13.534C48.7037 12.9273 49.0351 12.4023 49.4411 11.959C49.8517 11.511 50.2857 11.1657 50.7431 10.923C51.2051 10.6757 51.6437 10.552 52.0591 10.552C52.5351 10.552 52.9154 10.65 53.2001 10.846C53.4847 11.0373 53.7017 11.3103 53.8511 11.665C53.9211 11.8377 53.9701 11.9193 53.9981 11.91C54.0307 11.9007 54.0634 11.812 54.0961 11.644L54.2641 10.916C54.2781 10.846 54.3014 10.797 54.3341 10.769C54.3667 10.7363 54.4344 10.72 54.5371 10.72L55.7901 10.72C55.9487 10.72 56.0397 10.7387 56.0631 10.776C56.0864 10.8087 56.0841 10.8833 56.0561 11L54.6981 16.495C54.6887 16.5323 54.6794 16.5767 54.6701 16.628C54.6654 16.6747 54.6631 16.7167 54.6631 16.754C54.6631 16.9173 54.7424 16.999 54.9011 16.999C55.0317 16.999 55.1741 16.9383 55.3281 16.817C55.4821 16.6957 55.6337 16.53 55.7831 16.32C55.9324 16.1053 56.0631 15.865 56.1751 15.599C56.2171 15.501 56.2521 15.445 56.2801 15.431C56.3081 15.417 56.3641 15.4287 56.4481 15.466L56.8261 15.613C56.9194 15.6503 56.9707 15.6853 56.9801 15.718C56.9894 15.746 56.9707 15.8113 56.9241 15.914ZM63.2324 13.52C63.2324 13.17 63.209 12.8433 63.1624 12.54C63.1157 12.2367 63.0107 11.994 62.8474 11.812C62.6887 11.6253 62.4414 11.532 62.1054 11.532C61.8347 11.532 61.5524 11.6463 61.2584 11.875C60.969 12.099 60.6984 12.4023 60.4464 12.785C60.1944 13.163 59.9914 13.5853 59.8374 14.052C59.6834 14.5187 59.6064 14.9947 59.6064 15.48C59.6064 16.026 59.6904 16.4483 59.8584 16.747C60.0264 17.0457 60.297 17.195 60.6704 17.195C60.9364 17.195 61.2187 17.0853 61.5174 16.866C61.816 16.642 62.0937 16.348 62.3504 15.984C62.6117 15.62 62.824 15.2233 62.9874 14.794C63.1507 14.36 63.2324 13.9353 63.2324 13.52ZM66.5574 15.9C66.2587 16.586 65.8667 17.1413 65.3814 17.566C64.9007 17.9907 64.3734 18.203 63.7994 18.203C63.4447 18.203 63.1647 18.1237 62.9594 17.965C62.754 17.8017 62.6257 17.5847 62.5744 17.314C62.565 17.2253 62.565 17.1507 62.5744 17.09C62.5837 17.0293 62.5907 16.9827 62.5954 16.95C62.6094 16.838 62.5977 16.7843 62.5604 16.789C62.523 16.789 62.4577 16.8403 62.3644 16.943C62.047 17.307 61.6877 17.6057 61.2864 17.839C60.885 18.0677 60.4534 18.182 59.9914 18.182C59.562 18.182 59.17 18.1003 58.8154 17.937C58.4607 17.769 58.176 17.4913 57.9614 17.104C57.7467 16.7167 57.6394 16.1893 57.6394 15.522C57.6394 14.9433 57.7257 14.402 57.8984 13.898C58.0757 13.394 58.309 12.9367 58.5984 12.526C58.8877 12.1153 59.2097 11.763 59.5644 11.469C59.9237 11.175 60.2854 10.9487 60.6494 10.79C61.018 10.6313 61.3634 10.552 61.6854 10.552C62.1754 10.552 62.558 10.6453 62.8334 10.832C63.1087 11.0187 63.321 11.2777 63.4704 11.609C63.5357 11.7537 63.587 11.8283 63.6244 11.833C63.6617 11.8377 63.6967 11.7723 63.7294 11.637L64.4854 8.347C64.504 8.25834 64.5064 8.18834 64.4924 8.137C64.483 8.08567 64.413 8.06 64.2824 8.06L63.4634 8.06C63.3654 8.06 63.3 8.04367 63.2674 8.011C63.2394 7.97834 63.2254 7.91067 63.2254 7.808L63.2254 7.346C63.2254 7.24334 63.237 7.17334 63.2604 7.136C63.2837 7.09867 63.342 7.08 63.4354 7.08L66.1584 7.08C66.345 7.08 66.4594 7.09634 66.5014 7.129C66.548 7.16167 66.5527 7.25034 66.5154 7.395L64.3244 16.495C64.315 16.5323 64.3057 16.5767 64.2964 16.628C64.2917 16.6747 64.2894 16.7167 64.2894 16.754C64.2894 16.9173 64.3687 16.999 64.5274 16.999C64.7374 16.999 64.9637 16.8613 65.2064 16.586C65.449 16.306 65.6567 15.956 65.8294 15.536C65.8574 15.4707 65.883 15.4333 65.9064 15.424C65.9297 15.41 65.9717 15.417 66.0324 15.445L66.4664 15.627C66.541 15.6597 66.5854 15.6923 66.5994 15.725C66.6134 15.753 66.5994 15.8113 66.5574 15.9ZM82.115 10.237L77.894 17.916C77.8473 18.0047 77.7983 18.063 77.747 18.091C77.6956 18.1237 77.5976 18.14 77.453 18.14L76.802 18.14C76.662 18.14 76.5756 18.1167 76.543 18.07C76.5103 18.028 76.487 17.9487 76.473 17.832L75.416 9.915C75.388 9.72834 75.374 9.572 75.374 9.446C75.3786 9.32 75.3576 9.257 75.311 9.257C75.269 9.257 75.2363 9.31067 75.213 9.418C75.1943 9.52534 75.164 9.67234 75.122 9.859L73.456 16.621C73.4186 16.7517 73.4186 16.831 73.456 16.859C73.498 16.8823 73.603 16.894 73.771 16.894L74.723 16.894C74.821 16.894 74.884 16.9103 74.912 16.943C74.9446 16.971 74.961 17.034 74.961 17.132L74.961 17.762C74.961 17.874 74.9423 17.9417 74.905 17.965C74.8676 17.9883 74.7906 18 74.674 18L70.831 18C70.7003 18 70.614 17.9883 70.572 17.965C70.53 17.9417 70.509 17.8647 70.509 17.734L70.509 17.153C70.509 17.0457 70.523 16.9757 70.551 16.943C70.579 16.9103 70.642 16.894 70.74 16.894L71.727 16.894C71.937 16.894 72.063 16.8777 72.105 16.845C72.1516 16.8077 72.196 16.7073 72.238 16.544L74.163 8.956C74.2003 8.79734 74.2026 8.69934 74.17 8.662C74.1373 8.62467 74.0183 8.606 73.813 8.606L73.036 8.606C72.9053 8.606 72.819 8.592 72.777 8.564C72.7396 8.536 72.721 8.45667 72.721 8.326L72.721 7.78C72.721 7.64 72.749 7.55834 72.805 7.535C72.861 7.51167 72.952 7.5 73.078 7.5L76.473 7.5C76.711 7.5 76.8626 7.52334 76.928 7.57C76.9933 7.61667 77.0376 7.74734 77.061 7.962L77.88 14.465C77.922 14.7497 77.943 14.962 77.943 15.102C77.9476 15.2373 77.9803 15.305 78.041 15.305C78.1063 15.305 78.1786 15.221 78.258 15.053C78.342 14.885 78.4446 14.6913 78.566 14.472L82.227 7.773C82.2923 7.661 82.3553 7.58867 82.416 7.556C82.4766 7.51867 82.5956 7.5 82.773 7.5L86.035 7.5C86.1376 7.5 86.2076 7.514 86.245 7.542C86.2823 7.56534 86.301 7.62834 86.301 7.731L86.301 8.277C86.301 8.42634 86.28 8.51967 86.238 8.557C86.2006 8.58967 86.105 8.606 85.951 8.606L84.866 8.606C84.7446 8.606 84.663 8.61534 84.621 8.634C84.5836 8.65267 84.5556 8.71334 84.537 8.816L83.214 16.579C83.1953 16.719 83.2 16.8077 83.228 16.845C83.2606 16.8777 83.3586 16.894 83.522 16.894L84.621 16.894C84.761 16.894 84.845 16.9127 84.873 16.95C84.901 16.9873 84.915 17.0737 84.915 17.209L84.915 17.692C84.915 17.8413 84.8916 17.93 84.845 17.958C84.7983 17.986 84.7026 18 84.558 18L80.043 18C79.9123 18 79.8283 17.9837 79.791 17.951C79.7536 17.9137 79.735 17.8297 79.735 17.699L79.735 17.23C79.735 17.0853 79.7536 16.9943 79.791 16.957C79.8283 16.915 79.9193 16.894 80.064 16.894L80.995 16.894C81.121 16.894 81.2073 16.8847 81.254 16.866C81.3006 16.8473 81.3286 16.8123 81.338 16.761C81.352 16.7097 81.3683 16.635 81.387 16.537L82.486 10.356C82.528 10.1367 82.57 9.95467 82.612 9.81C82.654 9.66534 82.682 9.558 82.696 9.488C82.71 9.41334 82.6913 9.376 82.64 9.376C82.5746 9.376 82.5046 9.45767 82.43 9.621C82.36 9.77967 82.255 9.985 82.115 10.237ZM85.653 15.396C85.653 14.7287 85.7697 14.1033 86.003 13.52C86.2364 12.932 86.5607 12.4163 86.976 11.973C87.3914 11.525 87.8744 11.175 88.425 10.923C88.9804 10.6663 89.5777 10.538 90.217 10.538C90.8237 10.538 91.351 10.6523 91.799 10.881C92.247 11.105 92.5947 11.427 92.842 11.847C93.0894 12.2623 93.213 12.7547 93.213 13.324C93.213 13.9867 93.0964 14.612 92.863 15.2C92.6297 15.788 92.3054 16.306 91.89 16.754C91.4747 17.1973 90.9894 17.5473 90.434 17.804C89.8834 18.056 89.2884 18.182 88.649 18.182C88.0424 18.182 87.5127 18.07 87.06 17.846C86.612 17.6173 86.2644 17.2953 86.017 16.88C85.7744 16.46 85.653 15.9653 85.653 15.396ZM87.627 15.522C87.627 15.8533 87.6644 16.152 87.739 16.418C87.8137 16.684 87.9304 16.894 88.089 17.048C88.2524 17.202 88.467 17.279 88.733 17.279C89.0737 17.279 89.3934 17.167 89.692 16.943C89.9954 16.7143 90.2637 16.4063 90.497 16.019C90.7304 15.627 90.9124 15.1883 91.043 14.703C91.1737 14.2177 91.239 13.716 91.239 13.198C91.239 12.8667 91.2017 12.568 91.127 12.302C91.057 12.036 90.9404 11.826 90.777 11.672C90.6137 11.518 90.399 11.441 90.133 11.441C89.7924 11.441 89.4704 11.5553 89.167 11.784C88.8684 12.008 88.6024 12.316 88.369 12.708C88.1357 13.0953 87.9537 13.5317 87.823 14.017C87.6924 14.4977 87.627 14.9993 87.627 15.522ZM94.4658 10.72L96.7898 10.72C96.9625 10.72 97.0792 10.7387 97.1398 10.776C97.2005 10.8087 97.2145 10.8973 97.1818 11.042L96.9928 11.868C96.9462 12.0547 96.9322 12.162 96.9508 12.19C96.9695 12.218 97.0488 12.127 97.1888 11.917C97.4688 11.511 97.7885 11.1773 98.1478 10.916C98.5118 10.6547 98.9248 10.524 99.3868 10.524C99.8628 10.524 100.25 10.657 100.549 10.923C100.852 11.1843 101.004 11.539 101.004 11.987C101.004 12.3883 100.889 12.7173 100.661 12.974C100.432 13.2307 100.147 13.359 99.8068 13.359C99.6062 13.359 99.4242 13.3193 99.2608 13.24C99.1022 13.156 98.9738 13.0463 98.8758 12.911C98.7778 12.771 98.7288 12.6147 98.7288 12.442C98.7288 12.2367 98.7568 12.0827 98.8128 11.98C98.8688 11.8727 98.9225 11.7957 98.9738 11.749C99.0298 11.6977 99.0578 11.6487 99.0578 11.602C99.0578 11.5087 98.9902 11.462 98.8548 11.462C98.6355 11.462 98.3998 11.574 98.1478 11.798C97.8958 12.022 97.6485 12.3183 97.4058 12.687C97.1632 13.051 96.9438 13.45 96.7478 13.884C96.5565 14.3133 96.4142 14.7333 96.3208 15.144L95.7328 17.685C95.7048 17.8157 95.6745 17.902 95.6418 17.944C95.6092 17.9813 95.5088 18 95.3408 18L94.2488 18C94.0855 18 93.9922 17.979 93.9688 17.937C93.9455 17.8903 93.9478 17.8087 93.9758 17.692L95.2918 12.036C95.3245 11.8867 95.3268 11.7933 95.2988 11.756C95.2755 11.7187 95.1705 11.7 94.9838 11.7L94.4728 11.7C94.3468 11.7 94.2722 11.679 94.2488 11.637C94.2255 11.595 94.2138 11.511 94.2138 11.385L94.2138 10.965C94.2138 10.8577 94.2325 10.79 94.2698 10.762C94.3072 10.734 94.3725 10.72 94.4658 10.72ZM100.925 15.536C100.925 14.8593 101.058 14.22 101.324 13.618C101.594 13.016 101.956 12.484 102.409 12.022C102.866 11.56 103.382 11.1983 103.956 10.937C104.534 10.671 105.129 10.538 105.741 10.538C106.585 10.538 107.218 10.6827 107.638 10.972C108.062 11.2613 108.275 11.693 108.275 12.267C108.275 12.6963 108.163 13.065 107.939 13.373C107.719 13.681 107.425 13.94 107.057 14.15C106.688 14.3553 106.28 14.521 105.832 14.647C105.384 14.773 104.933 14.871 104.481 14.941C104.028 15.0063 103.606 15.053 103.214 15.081C103.078 15.0903 102.987 15.13 102.941 15.2C102.894 15.2653 102.871 15.389 102.871 15.571C102.871 16.089 102.966 16.495 103.158 16.789C103.354 17.0783 103.662 17.223 104.082 17.223C104.394 17.223 104.688 17.153 104.964 17.013C105.244 16.8683 105.498 16.684 105.727 16.46C105.955 16.236 106.156 15.9957 106.329 15.739C106.371 15.6737 106.413 15.6317 106.455 15.613C106.501 15.5897 106.585 15.578 106.707 15.578L107.169 15.578C107.327 15.578 107.421 15.5967 107.449 15.634C107.477 15.6667 107.456 15.7437 107.386 15.865C107.162 16.2477 106.877 16.6163 106.532 16.971C106.191 17.3257 105.79 17.6173 105.328 17.846C104.87 18.07 104.35 18.182 103.767 18.182C103.225 18.182 102.74 18.0933 102.311 17.916C101.881 17.7387 101.543 17.4563 101.296 17.069C101.048 16.6817 100.925 16.1707 100.925 15.536ZM103.347 14.269C103.697 14.227 104.054 14.1617 104.418 14.073C104.786 13.9843 105.127 13.8653 105.44 13.716C105.752 13.562 106.004 13.3683 106.196 13.135C106.392 12.897 106.49 12.6077 106.49 12.267C106.49 11.945 106.422 11.7233 106.287 11.602C106.156 11.476 105.953 11.413 105.678 11.413C105.342 11.413 105.006 11.5157 104.67 11.721C104.338 11.9217 104.037 12.2063 103.767 12.575C103.501 12.939 103.286 13.3683 103.123 13.863C103.071 14.0217 103.055 14.1337 103.074 14.199C103.097 14.2643 103.188 14.2877 103.347 14.269Z" fill="#091818"/>
</g>
<defs>
<clipPath id="clip0_6620_1820">
<rect width="130" height="25" fill="white" transform="translate(0.816406)"/>
</clipPath>
</defs>
</svg>
