<svg width="710" height="77" viewBox="0 0 710 77" fill="none" xmlns="http://www.w3.org/2000/svg">
<path d="M1.69234 2.5037C-0.404283 2.42697 0.666899 2.29324 2.10404 2.19679C3.11042 2.12883 4.34933 2.07183 5.4815 2.01045C6.18292 1.94029 6.88052 1.87233 7.58194 1.80218C8.27192 1.86576 8.96571 1.93152 9.6595 1.9951C15.1298 2.03456 15.8274 2.01921 15.1374 1.88549C14.5313 1.7693 12.8959 1.61146 15.1831 1.58296C24.515 1.47116 30.3436 0.901175 39.7594 0.826639L36.8355 1.19932L36.0617 1.24755L37.0528 1.21247C39.7632 1.12478 43.9831 1.07655 40.1558 0.811294C39.6526 0.546034 41.734 0.407923 45.931 0.377232C47.3148 0.278581 48.6338 0.289542 49.907 0.372847C59.1741 0.331195 68.6889 -0.0919062 77.7158 0.353117C78.4897 0.390385 80.6701 0.353117 81.9853 0.315849C90.9855 0.0725112 100.047 0.131702 108.795 0.252274C122.275 0.436422 135.979 0.377232 149.672 0.350925C155.756 0.339964 159.698 0.403538 157.654 0.868292C156.976 1.02394 157.292 1.21247 161.215 1.13794C162.854 1.10725 166.735 1.18397 165.233 0.883638C163.902 0.618377 167.867 0.412307 171.179 0.445191C178.826 0.517535 186.279 0.425461 193.808 0.416692C201.523 0.407923 202.876 0.581109 201.809 1.14451C201.577 1.26728 201.71 1.39004 201.653 1.59831C208.503 1.35497 214.583 1.13794 220.66 0.920906C218.632 0.929674 216.569 0.923098 214.587 0.947212C212.254 0.975711 209.426 1.13574 207.855 0.966942C206.826 0.855139 207.165 0.649069 208.164 0.519727C209.62 0.331195 212.963 0.269812 216.108 0.32681C219.89 0.392577 221.35 0.596455 222.23 0.817871C228.844 0.491228 235.759 0.381616 244.515 0.39477C266.263 0.427653 288.133 0.506573 309.945 0.243505C318.438 0.142663 319.327 0.234737 319.502 0.962558L318.884 1.02394L319.689 0.973519C323.238 1.0349 328.483 1.24755 326.711 0.73895C325.365 0.350925 327.888 0.125125 333.504 0.223775C343.403 0.39477 352.64 0.149239 362.151 0.116356C368.136 0.0966258 374.144 -0.126982 378.448 0.318041C379.805 0.458344 382.061 0.36627 383.746 0.300503C394.241 -0.120405 405.075 0.0155132 415.84 0.199661C419.347 0.261043 422.408 0.313657 426.098 0.201853C435.659 -0.0853295 446.763 0.00455202 455.813 0.0747035C480.744 0.272004 505.911 0.00235978 530.475 0.282966C543.802 0.436422 557.705 -0.0305237 570.418 0.47369C583.958 0.125125 598.112 0.528496 612.015 0.353117C617.626 0.282966 626.333 0.0922413 629.821 0.730181C631.441 1.02613 635.756 0.780603 636.862 0.701682C644.657 0.142663 654.874 0.236929 664.949 0.265428C668.978 0.276389 670.061 0.432038 670.206 0.642492C667.164 0.697298 664.095 0.763065 665.586 1.01517C665.879 1.06559 668.334 1.10944 669.493 1.0919C675.081 0.999826 670.072 0.800333 670.37 0.651261C675.253 0.499997 681.123 0.524111 685.717 0.313657C690.024 0.116356 691.652 0.706067 694.698 0.495612C695.598 0.43423 696.551 0.386001 697.557 0.359694C698.064 0.34654 698.579 0.339964 699.116 0.339964C699.387 0.339964 699.657 0.339964 699.936 0.34654L700.161 0.350925L700.473 0.361886C700.687 0.370655 700.896 0.379424 701.11 0.388193C702.806 0.475882 704.564 0.657838 706.012 1.14451C706.733 1.38347 707.411 1.71011 707.884 2.13102C708.12 2.33928 708.292 2.55193 708.429 2.77992C708.57 3.00572 708.684 3.25563 708.768 3.51432C708.879 3.8585 708.902 4.22679 708.959 4.59947C709.005 4.92392 709.05 5.25934 709.1 5.61448C709.172 6.09896 709.229 6.64044 709.31 7.29153C708.734 8.12458 707.907 6.07704 707.293 6.15157L707.148 5.76355L707.289 6.24146C707.381 7.86371 706.919 8.52576 707.274 10.4703C707.766 13.3355 707.758 10.0932 707.994 9.97483C708.684 9.65915 709.226 14.0546 709.824 13.8441C709.881 15.0279 709.851 15.7821 709.782 16.2753C709.714 16.7686 709.611 17.0031 709.496 17.15C709.268 17.446 709.005 17.4021 708.886 18.3996C708.925 18.781 708.959 19.1603 708.997 19.5417C708.925 19.3861 708.848 19.2304 708.776 19.0748C708.753 19.6119 708.707 20.6181 708.707 20.6181C709.752 22.521 710.053 25.7085 709.946 29.3322C709.839 32.956 709.313 37.0116 708.898 40.6771C707.998 41.7644 708.532 37.1563 707.994 37.1366C707.846 37.13 707.571 37.3361 707.503 37.757C707.289 39.0131 707.548 38.772 707.663 38.9364C707.975 39.3836 707.716 40.6266 707.552 41.7819C707.388 42.9723 707.381 44.246 707.77 44.8598C708.013 45.2391 708.276 45.5877 708.547 46.2168C708.81 46.8438 709.092 47.7448 709.344 49.2553C709.336 50.4259 709.02 50.0182 708.764 49.88C708.635 49.8121 708.521 49.8143 708.463 50.119C708.406 50.4237 708.41 51.0266 708.482 52.1819C708.235 52.4208 708.067 52.9886 707.914 54.0979C707.625 55.2269 707.617 56.4217 707.663 57.691C707.594 58.1141 707.537 58.4846 707.487 58.8112C707.415 59.1378 707.354 59.4185 707.301 59.6618C707.202 60.1485 707.091 60.4839 707.06 60.736C707 61.238 707.076 61.3915 707.297 61.7115C707.674 60.1353 707.735 58.8485 707.705 57.5836C707.876 56.4874 707.953 55.3935 707.968 54.3062C708.162 53.6617 708.353 53.0106 708.513 52.3638C708.848 52.1096 709.367 52.833 709.386 54.5955C709.401 55.6851 709.34 56.7505 709.249 57.7984C709.172 58.3245 709.134 58.8441 709.02 59.3637C708.966 59.6245 708.925 59.8832 708.864 60.1419C708.795 60.4006 708.723 60.6593 708.654 60.9179C708.589 61.1766 708.501 61.4353 708.402 61.694C708.307 61.9527 708.212 62.2114 708.116 62.47C707.994 62.7265 707.876 62.9852 707.754 63.2439L707.568 63.6319C707.499 63.7613 707.419 63.8884 707.346 64.0178C707.194 64.2742 707.038 64.5329 706.885 64.7916C706.717 65.0481 706.523 65.3024 706.34 65.5589C705.985 66.0785 705.517 66.5761 705.063 67.0869C703.561 68.6806 701.724 70.1516 699.688 71.4779C697.652 72.8064 695.422 73.999 693.097 75.0863L690.592 76.1847L689.868 76.5025C689.746 76.5551 689.628 76.6099 689.502 76.6604L689.049 76.6472L687.223 76.5968L682.503 76.474L678.36 76.3732L674.212 76.303C671.319 76.2548 670.023 76.1978 669.188 75.9632C667.979 75.6213 666.741 75.5906 664.514 75.7331C662.593 75.8558 660.718 75.9501 658.632 75.961C656.543 75.983 654.248 75.9194 651.485 75.7199C649.853 75.6037 649.182 75.6629 648.077 75.7089C637.994 76.0904 626.668 75.7089 615.991 75.8229C614.927 75.8361 613.616 75.7243 612.423 75.6695C610.898 75.6015 613.269 75.3648 609.934 75.4064C609.305 75.413 610.582 75.6125 612.137 75.6848C611.005 75.7506 609.888 75.8624 608.737 75.8712C590.618 75.9895 572.324 76.2943 554.354 76.3337C546.791 76.3513 539.357 76.3754 531.954 76.417C524.559 76.4499 517.21 76.4959 509.788 76.6034C504.15 76.6823 497.227 76.8358 495.519 76.2658L496.114 76.2088L495.26 76.2504C491.124 76.2745 488.044 76.5376 482.676 76.36C478.277 76.2132 472.494 76.3863 467.481 76.5179C463.81 76.6143 459.888 76.6867 455.981 76.7305C446.553 76.8379 446.531 76.8292 446.271 76.1167C448.902 75.9435 454.696 75.9282 454.319 75.5094C450.423 75.7111 447.293 75.8558 445.856 76.0948C439.181 76.5617 429.007 76.6253 421.009 76.6757C408.788 76.7524 396.101 77.1514 383.731 76.77L358.446 76.9191C350.456 77.1361 342.382 76.873 334.72 76.816C328.087 76.7634 330.652 76.2658 332.749 75.9435L333.298 75.8953L332.451 75.9238C330.202 75.9895 327.831 76.04 327.164 76.2219C325.597 76.6494 324.076 77.0944 314.748 76.5968C314.116 76.5639 312.492 76.5464 311.912 76.5705C299.268 77.1229 284.568 76.4521 271.524 76.7546C270.666 76.7744 269.492 76.77 268.581 76.7524C263.766 76.6582 256.714 76.3841 254.644 76.4894C249.357 76.7546 243.688 76.5486 238.877 76.6669C230.986 76.8599 223.583 76.2833 215.578 76.6034C213.886 76.6713 212.605 76.4675 212.346 76.3425C212.01 76.1781 212.959 76.0356 214.45 75.904C215.895 75.7769 217.869 75.6103 213.863 75.5467C211.831 75.5138 209.906 75.6103 208.919 75.8054C205.537 76.474 200.837 76.6801 189.062 76.5683C177.61 76.4609 166.197 76.3666 154.761 76.3973C147.56 76.417 144.099 76.0531 138.636 75.904L137.79 75.869L138.331 75.9238C139.181 76.1803 137.733 76.371 133.577 76.4039C130.509 76.428 129.399 76.2701 129.609 76.0904L130.15 76.0334L129.38 76.0772C124.577 75.9852 129.64 75.5314 123.517 75.4853C123.399 75.4283 123.418 75.3735 123.582 75.3165L124.249 75.2661L123.281 75.3012C123.03 75.3209 122.534 75.3428 122.568 75.3604C122.66 75.4064 122.991 75.4503 123.228 75.4963C123.262 75.5599 123.647 75.6322 123.277 75.6826C118.558 76.3359 117.742 76.3359 109.085 75.5928C109.962 76.2526 103.653 76.4916 96.9018 76.2921C83.5711 75.8975 67.3852 76.3688 55.6365 75.6366C40.781 75.6432 26.5583 75.3363 12.042 75.2179C8.98858 75.1981 5.93514 75.1762 2.88551 75.1565C2.83595 72.4644 2.78639 69.7746 2.73684 67.0825C2.68347 64.8771 2.63391 62.6695 2.58054 60.4576C2.45093 56.0336 2.2832 51.5944 2.06973 47.12C1.72283 39.8747 1.41025 32.5943 1.39119 25.4542C1.37213 18.3163 1.63516 11.3187 2.37851 4.65866C2.84357 5.63421 3.14473 7.14904 3.34295 8.96421C3.56024 10.7794 3.65554 12.8949 3.75084 15.0783C4.07867 23.5404 4.83727 31.93 5.11936 40.4907C5.15748 41.646 5.21085 42.9526 5.34046 43.9939C5.9542 48.8387 6.39639 53.7647 6.70898 58.7235C6.86909 61.2029 6.98726 63.6911 7.08637 66.1815L7.21217 69.9171C7.23123 70.8115 7.24648 71.7059 7.26554 72.5982C12.286 72.6332 17.295 72.6683 22.2697 72.7012C49.2437 72.8656 76.2291 72.8897 103.001 72.8831C139.006 72.8744 175.091 73.1638 210.825 73.0278C236.308 72.9292 261.944 73.212 287.199 72.9401C291.625 72.8919 296.393 72.9401 300.995 72.9577C317.844 73.0235 334.659 73.0322 351.454 73.0147C355.655 73.0169 359.852 72.9818 364.049 72.9621C368.247 72.938 372.444 72.9117 376.637 72.8875C385.027 72.8327 393.417 72.7801 401.808 72.7253C405.883 72.699 409.996 72.6902 414.086 72.6902C446.264 72.6902 478.258 72.4337 510.31 72.2474C514.766 72.2255 519.226 72.2057 523.686 72.1838L530.38 72.1597L537.07 72.1181C545.99 72.0589 554.918 71.9778 563.846 71.8703C589.288 71.57 614.84 71.2236 640.384 71.285C654.912 71.3245 669.466 71.5152 684.013 71.9164L686.468 71.9821L686.914 71.9931C686.952 71.9931 686.994 71.9997 687.024 71.9909L687.116 71.9515L687.291 71.8725L687.794 71.6489C688.138 71.5042 688.446 71.342 688.77 71.1864C689.411 70.8729 690.066 70.5682 690.657 70.2305C693.097 68.9218 695.239 67.4749 696.924 65.8943C698.579 64.3027 699.833 62.5928 700.553 60.7711C700.759 60.3195 700.889 59.8547 701.041 59.3922C701.11 59.1598 701.156 58.923 701.217 58.6884L701.301 58.3355L701.361 57.9782C701.544 57.0311 701.598 56.06 701.617 55.08C701.64 52.8856 701.346 50.6166 701.072 48.2688C700.805 45.9209 700.542 43.4875 700.79 40.9555C700.851 40.3 700.927 39.7475 700.999 39.1622C701.072 38.5813 701.148 38.0025 701.205 37.4216C701.339 36.2619 701.449 35.1 701.544 33.9425C701.731 31.6231 701.861 29.3059 701.903 26.9997C701.979 22.6657 701.945 18.3141 701.659 13.9757C701.518 11.8053 701.323 9.63942 701.045 7.48226C700.977 6.94297 700.912 6.40368 700.828 5.86439L700.805 5.7197L700.793 5.67148L700.774 5.57721L700.732 5.38868C700.721 5.32729 700.698 5.26153 700.611 5.21768C700.527 5.17384 700.42 5.14972 700.313 5.13438C700.096 5.10369 699.875 5.09711 699.665 5.09711H699.562H699.528H699.436L699.234 5.09053C698.956 5.08615 698.674 5.08176 698.392 5.07738C697.82 5.0708 697.225 5.0708 696.615 5.0708C695.358 5.07519 694.092 5.07957 692.823 5.08396C690.257 5.08396 687.68 5.08396 685.134 5.08176C658.552 5.02038 632.2 5.21549 605.737 5.28783C583.996 5.35141 562.165 5.33606 540.421 5.43691C511.514 5.56625 482.501 5.48514 453.651 5.59255C411.315 5.74382 369.074 5.70217 326.791 5.76136C303.507 5.79205 279.964 6.02881 256.992 5.9192C223.454 5.76574 189.71 6.02881 156.259 5.80959C141.777 5.71751 126.762 5.7482 112.036 5.77451C97.2296 5.80082 82.9307 5.62325 68.1895 5.63859C53.01 5.65174 37.9029 5.52679 22.8148 5.45006C17.3293 5.42156 9.51464 5.54433 10.6049 4.9305C8.38246 4.87569 5.74453 4.82966 7.04444 4.62359C7.62387 4.53151 9.29735 4.48986 10.8184 4.52055C13.3419 4.57317 12.2974 4.72005 12.4347 4.83404C22.7424 5.00723 24.9267 4.95681 27.9687 4.37806C30.1683 3.95934 29.9205 3.50774 33.58 3.10656L34.1023 3.05614L33.2827 3.08902C24.3702 2.80623 10.9861 2.92241 8.48158 2.07183C7.80685 2.06306 7.1283 2.06306 6.43833 2.07183C6.26678 2.16171 6.27441 2.25598 5.87796 2.34366C5.28709 2.4752 3.69366 2.57823 1.65803 2.5037H1.69234ZM31.7274 74.7159L30.7553 74.7246L31.5597 74.7575L31.7274 74.7159ZM71.933 75.0491L71.0447 75.025L71.0181 75.0666L71.933 75.0491ZM83.857 75.6278L82.8583 75.6388L83.6778 75.6739L83.8608 75.6278H83.857ZM98.8803 75.5971C98.8078 75.5358 98.8193 75.4766 98.9146 75.4152L99.6846 75.3691L98.7354 75.402C98.4838 75.424 97.9997 75.4459 98.0264 75.4656C98.095 75.5138 98.4076 75.5599 98.621 75.6081L99.5664 75.6541L98.8726 75.5971H98.8803ZM129.411 73.7491C128.843 73.7206 127.753 73.7315 126.899 73.7272C127.596 73.8017 128.145 73.885 129.053 73.9486C129.483 73.9793 130.596 73.9705 131.283 73.9793C131.973 73.8609 130.497 73.8039 129.407 73.7491H129.411ZM146.908 75.5445L146.15 75.5336L146.363 75.5949L146.912 75.5445H146.908ZM168.515 75.5664C168.602 75.5358 167.905 75.4941 167.558 75.459C167.085 75.5051 166.517 75.5489 166.159 75.5971C165.679 75.6651 166.121 75.7002 167.249 75.7002C167.699 75.6563 168.374 75.6147 168.515 75.5686V75.5664ZM191.032 75.4261C190.678 75.4086 190.358 75.3823 189.961 75.3757C188.654 75.3538 188.032 75.3779 188.436 75.4283C188.562 75.4437 189.275 75.4437 189.725 75.4503C190.16 75.4415 190.598 75.4327 191.032 75.424V75.4261ZM191.459 73.9091C191.109 73.8916 190.796 73.8653 190.403 73.8587C189.092 73.8368 188.475 73.8631 188.886 73.9157C189.008 73.931 189.725 73.931 190.171 73.9376C190.602 73.9288 191.032 73.9179 191.463 73.9091H191.459ZM242.114 75.8339L241.386 75.8229L241.584 75.8843L242.114 75.8339ZM257.511 75.7374L257.339 75.6782L256.844 75.7265L257.511 75.7374ZM275.328 75.7418C275.122 75.7155 273.483 75.6936 273.052 75.7133C272.427 75.7418 272.092 75.8098 272.019 75.8646C271.92 75.9391 272.66 75.9698 273.716 75.9523C275 75.904 276.068 75.8405 275.324 75.7418H275.328ZM313.25 75.6651C306.755 75.5862 303.026 75.7988 298.696 75.8251L297.831 75.7835L298.433 75.8405C303.518 76.0027 308.176 76.04 313.254 75.6651H313.25ZM346.171 75.8865C346.449 75.7681 345.576 75.6892 343.861 75.7111C341.341 75.7462 339.828 75.8624 339.721 76.029C339.66 76.1211 340.247 76.2329 342.012 76.2088C344.604 76.1737 345.001 76.0005 346.167 75.8865H346.171ZM383.647 75.7791L382.98 75.7703L383.152 75.8295L383.647 75.7791ZM395.14 75.9676C393.558 75.9457 392.746 76.0509 393.093 76.1583C393.288 76.2219 393.475 76.2811 393.661 76.3425C393.158 76.3973 390.814 76.3271 391.481 76.4631C392.27 76.428 393.059 76.3907 393.848 76.3556C394.47 76.3052 395.285 76.2592 395.667 76.2022C396.235 76.1189 396.776 75.9895 395.137 75.9676H395.14ZM407.004 75.4919C405.128 75.6739 404.236 75.8449 405.982 76.0619C409.546 75.8602 409.458 75.687 407.004 75.4919ZM437.816 75.8843L437 75.915L436.497 75.9654L437.298 75.9325L437.816 75.8821V75.8843ZM444.079 75.1214L443.271 75.1697L442.555 75.2179L443.508 75.185L444.079 75.1214ZM480.774 73.1396C480.923 73.1506 481.601 73.1309 482.036 73.1265C482.223 73.1002 482.562 73.0739 482.539 73.0498C482.524 73.0366 481.826 73.0125 481.559 73.0169C480.374 73.041 480.069 73.0892 480.774 73.1396ZM484.399 75.5336C484.007 75.4875 483.702 75.4086 483.214 75.4042C481.868 75.3954 480.45 75.4174 479.268 75.4261C478.605 75.5226 478.967 75.573 480.187 75.5708C481.59 75.5686 482.996 75.5467 484.399 75.5314V75.5336ZM497.345 75.7067L497.112 75.6454L496.666 75.7024L497.345 75.7067ZM526.499 75.5467L525.581 75.5686L526.473 75.5884L526.499 75.5467ZM541.66 72.8547L542.552 72.8722L542.59 72.8262L541.66 72.8547ZM548.278 75.4174C545.293 75.082 542.11 75.0951 538.53 75.4349L537.699 75.4831L538.713 75.4481C541.942 75.3143 544.847 75.5664 548.274 75.4174H548.278ZM581.907 75.1872L580.954 75.2113L581.824 75.231L581.911 75.1894L581.907 75.1872ZM623.066 74.5098C622.906 74.4966 622.151 74.4879 621.911 74.501C620.828 74.5514 620.825 74.6019 621.873 74.626C622.163 74.6326 622.673 74.6041 623.093 74.5909C623.1 74.5646 623.268 74.5295 623.066 74.512V74.5098ZM632.691 74.7159H632.024L632.333 74.7707L632.688 74.7159H632.691ZM659.2 74.832C656.025 74.7794 654.149 74.74 652.316 74.729C649.857 74.7093 646.796 74.7093 648.416 74.9504C649.449 75.1039 651.607 75.1017 653.452 75.0359C655.011 74.9811 656.551 74.9263 659.197 74.832H659.2ZM677.639 75.2836L676.797 75.299C676.286 75.3428 674.056 75.2223 674.548 75.3648C675.39 75.3516 676.233 75.3385 677.075 75.3231L677.643 75.2836H677.639ZM689.861 75.1784C689.609 75.2793 689.35 75.3823 689.098 75.4853L689.003 75.5226L688.957 75.5423C688.957 75.5423 688.919 75.5423 688.9 75.5423L688.667 75.5314C688.515 75.527 688.359 75.5204 688.21 75.516C686.045 75.459 685.603 75.4831 687.173 75.5708C687.428 75.5862 687.783 75.5971 688.153 75.6081C688.34 75.6125 688.526 75.6169 688.709 75.6213C688.801 75.6213 688.888 75.6256 688.976 75.6256C689.052 75.6125 689.113 75.5686 689.178 75.5445C689.495 75.3998 689.647 75.2968 689.868 75.1762L689.861 75.1784ZM694.53 73.7294C694.168 73.9047 693.829 74.0933 693.478 74.2774C693.73 74.1788 693.985 74.0779 694.214 73.988C694.412 73.8938 694.645 73.782 694.858 73.6811C695.064 73.5737 695.247 73.4751 695.354 73.4071C696.013 72.9884 695.689 73.1265 694.526 73.7294H694.53ZM704.598 49.3583C704.426 49.3934 704.369 49.8713 704.434 50.7854C704.445 50.9323 704.544 51.2568 704.59 51.3028C704.758 51.4716 704.918 51.3708 704.865 50.4128C704.853 50.1431 704.693 49.7091 704.598 49.3583ZM702.269 47.4774C702.017 47.3765 701.952 47.9662 702.109 48.8957C702.219 49.5687 702.44 50.3645 702.578 50.5618C702.764 50.8271 702.86 50.1124 702.715 49.1829C702.608 48.4946 702.395 47.9575 702.269 47.4774ZM703.226 37.2681L703.119 37.746L703.191 37.8447L703.226 37.2681ZM708.246 32.0046C708.193 32.0835 708.143 32.1646 708.09 32.2457C708.09 32.5 708.067 32.8332 708.09 32.9933C708.162 33.526 708.25 33.3484 708.303 32.5526C708.315 32.3663 708.265 32.1865 708.246 32.0046ZM697.351 1.82849C696.993 1.89645 697.671 1.94029 698.632 1.92714C699.265 1.91837 699.65 1.86576 699.81 1.82191C700.058 1.75395 699.52 1.69915 698.624 1.70134C698.186 1.7408 697.618 1.78026 697.347 1.83068L697.351 1.82849ZM692.723 2.73827L693.128 2.81719C693.554 2.80623 694.115 2.80403 694.389 2.7865C695.304 2.72511 695.011 2.68346 693.65 2.68565C693.33 2.68565 693.028 2.72073 692.72 2.74046L692.723 2.73827ZM684.642 2.87638L685.606 2.86542L684.806 2.83473L684.642 2.87638ZM665.231 3.10656C665.395 3.17671 666.699 3.20521 667.48 3.1526C669.195 3.0386 669.542 2.90268 668.273 2.75142C666.218 2.83911 664.861 2.95091 665.231 3.10656ZM654.073 0.850754L654.919 0.813486L655.579 0.760872L654.687 0.79814L654.073 0.848562V0.850754ZM643.952 1.33085C643.899 1.34839 644.352 1.39004 644.566 1.39004C644.981 1.39004 645.389 1.36812 645.797 1.35497C645.851 1.33085 646.091 1.2892 645.927 1.28262C644.947 1.23659 644.181 1.25412 643.952 1.33085ZM641.554 2.95311C642.511 2.99695 643.262 2.97722 643.499 2.90268C643.556 2.88515 643.083 2.84349 642.927 2.84349C642.507 2.84788 642.126 2.86761 641.726 2.88076C641.657 2.90488 641.406 2.94434 641.551 2.95091L641.554 2.95311ZM619.33 0.951597C620.504 1.19493 623.874 1.2607 627.099 1.33524C628.094 1.39881 628.948 1.47773 630.126 1.52377C631.117 1.56323 631.925 1.50404 631.113 1.44704C630.21 1.38347 628.734 1.35058 627.507 1.30455C624.278 1.23659 625.544 0.798141 619.33 0.951597ZM617.024 2.18144C617.104 2.20775 617.051 2.23844 617.283 2.25598C618.21 2.32613 618.911 2.31517 619.037 2.23186C619.067 2.21213 618.633 2.17706 618.29 2.16829C617.946 2.15952 617.451 2.17486 617.02 2.17925L617.024 2.18144ZM616.155 4.40436L616.963 4.35394L623.077 4.37806L623.859 4.41094L623.379 4.36052C621.248 4.24433 619.094 4.19829 616.883 4.34956L616.151 4.40436H616.155ZM605.058 1.40977C605.946 1.45143 606.808 1.52158 607.372 1.51281C609.606 1.47993 610.604 1.37031 610.7 1.23439C610.761 1.14451 610.052 1.11163 609.213 1.15547C607.757 1.23439 606.449 1.32428 605.054 1.40977H605.058ZM573.94 1.48869L574.752 1.45581L575.336 1.40539L574.474 1.43608L573.944 1.4865L573.94 1.48869ZM558.585 1.47335L559.34 1.42731C560.514 1.36812 561.822 1.3177 562.821 1.24755C563.682 1.18836 565.207 1.10725 563.034 1.03929C562.71 1.02832 561.403 1.10505 560.922 1.15547C560.156 1.23439 559.702 1.32647 559.119 1.41416L558.585 1.47335ZM546.943 1.4295C546.524 1.48869 547.306 1.53254 548.415 1.50404C549.189 1.48431 549.753 1.43389 550.386 1.39662C550.523 1.32866 549.928 1.2892 548.838 1.31551C548.068 1.33305 547.271 1.38127 546.94 1.42731L546.943 1.4295ZM484.998 2.79307C484.598 2.80842 483.946 2.81719 483.847 2.83911C483.488 2.91145 484.033 2.9553 485.223 2.95311C485.623 2.95311 486.271 2.93118 486.37 2.91145C486.728 2.83911 486.183 2.79965 485.002 2.79307H484.998ZM479.966 2.00387C482.852 1.75615 486.126 1.58734 485.84 1.28262C479.827 1.31332 477.869 1.55373 479.966 2.00387ZM457.848 1.17082C459.217 1.23659 460.62 1.21247 461.489 1.12917C462.492 1.0349 461.386 0.960366 460.265 0.907752C459.004 0.848562 457.669 0.844177 456.632 0.938443C456.145 1.0349 456.652 1.11382 457.852 1.17082H457.848ZM414.921 0.971327C414.948 1.03929 415.603 1.07217 416.72 1.04148C418.009 1.0064 419.282 0.96475 420.395 0.912137C421.291 0.868292 420.895 0.820063 419.545 0.815678C417.517 0.806909 415.92 0.857331 414.921 0.971327ZM379.599 0.995441C379.77 1.1489 380.472 1.17959 381.604 1.14232C382.908 1.10067 384.791 1.06121 385.187 0.993249C385.889 0.874869 384.166 0.839793 382.618 0.874869C381.276 0.90556 380.136 0.971327 379.599 0.993249V0.995441ZM339.797 1.03271C340.426 1.1489 340.67 1.32647 343.099 1.37908C345.565 1.4317 346.221 1.28701 346.354 1.16644C346.533 1.0064 345.893 0.863907 342.774 0.848562C341.135 0.839793 340.053 0.898983 339.797 1.03271ZM288.602 0.727989L289.631 0.708259L288.785 0.675375L288.602 0.725797V0.727989ZM286.589 1.28043C287.447 1.24755 288.304 1.21466 289.162 1.17959L289.703 1.12259L288.91 1.16644C288.293 1.21686 286.063 1.14232 286.585 1.28043H286.589ZM276.414 1.11163L277.333 1.08971L276.441 1.06779L276.418 1.10944L276.414 1.11163ZM269.545 4.22241C268.947 4.27502 266.656 4.19829 267.224 4.34079C268.051 4.30571 268.878 4.26845 269.705 4.23337L270.418 4.18076L269.541 4.22241H269.545ZM265.398 1.63996C265.832 1.66407 267.872 1.63996 267.933 1.62461C268.954 1.3462 268.203 1.10286 263.149 0.88583C263.339 1.17959 261.811 1.43608 265.398 1.63996ZM227.346 1.66407C233.464 1.81972 239.514 1.67065 248.465 1.65969C239.438 1.3177 233.411 1.57858 227.346 1.66407ZM213.264 3.17671C213.828 3.2381 214.736 3.24467 215.563 3.19425C215.837 3.17671 216.009 3.13287 215.845 3.11314C215.285 3.05176 214.431 3.04737 213.535 3.09341C213.432 3.12191 213.1 3.15698 213.264 3.17452V3.17671ZM184.457 1.61584C185.41 1.63338 186.363 1.65092 187.312 1.66626C193.548 1.88768 193.96 1.50842 195.283 1.32208C196.934 1.08971 196.895 0.839793 190.106 0.752104C190.781 1.10286 192.29 1.4317 187.381 1.66188C186.439 1.63996 186.088 1.49308 184.457 1.61584ZM174.671 1.52815C174.816 1.55008 174.93 1.58954 175.117 1.59173C175.506 1.59173 176.101 1.58296 176.314 1.56323C177.099 1.49527 176.795 1.458 175.59 1.46896C175.251 1.47335 174.976 1.50623 174.671 1.52815ZM123.937 3.0671C123.967 3.04737 123.544 3.01668 123.209 3.00791C122.877 3.00133 122.393 3.01668 121.974 3.02106C122.057 3.04518 122.023 3.07587 122.248 3.09341C123.14 3.15918 123.811 3.15041 123.937 3.0671ZM140.287 1.55446C143.412 1.77368 147.194 1.69915 152.824 1.54569C148.208 1.36812 145.04 1.23001 140.95 1.39443C140.382 1.41635 139.944 1.52815 140.287 1.55227V1.55446ZM116.145 0.782795L116.663 0.837601C117.521 0.947212 118.158 1.06779 119.298 1.16424C120.475 1.26509 122.431 1.34839 124.173 1.2059C125.568 1.0919 124.821 0.953789 122.782 0.898983C121.002 0.850754 118.89 0.844177 116.923 0.820063L116.145 0.782795ZM109.809 4.56878C110.492 4.60386 111.113 4.6477 111.875 4.67401C112.954 4.71347 114.003 4.68716 113.942 4.6192C113.907 4.58193 112.867 4.53151 112.131 4.52055C111.46 4.51178 110.591 4.54905 109.809 4.56659V4.56878ZM95.4647 1.53912C97.8129 1.60927 100.1 1.59831 102.12 1.49966C103.005 1.45581 102.711 1.37031 101.648 1.35716C99.0709 1.32647 97.264 1.4317 95.4647 1.53912ZM94.0618 2.51247C98.4076 2.43135 100.668 2.32832 101.419 2.13321C101.434 2.12883 101.034 2.11348 100.531 2.10252C100.028 2.09156 99.4139 2.0784 99.0137 2.08279C96.0022 2.1091 95.4647 2.27132 94.0618 2.51466V2.51247ZM81.6956 1.10725C81.8595 1.1204 82.5762 1.12478 82.8163 1.11382C83.8761 1.0634 83.8837 1.01736 82.8544 0.995441C82.5647 0.988865 82.0768 1.01736 81.6689 1.03052C81.6613 1.05682 81.4974 1.08971 81.6956 1.10505V1.10725ZM47.6007 0.462729L48.0772 0.495612L48.4965 0.45396L47.6045 0.462729H47.6007ZM39.0503 1.70573C48.2945 1.64873 51.6072 1.37908 52.6402 0.971327L53.1587 0.920906L52.3429 0.953789C50.231 1.29139 44.5511 1.42293 39.0503 1.70573Z" fill="#F0E3DE"/>
</svg>
