<svg width="49" height="49" viewBox="0 0 49 49" fill="none" xmlns="http://www.w3.org/2000/svg">
<g id="icon-accordion">
<path id="Vector" d="M36.4461 23.9453C36.2535 22.9662 36.0095 22.4825 35.7419 22.2076C35.2406 21.6901 34.7393 21.5166 34.2409 21.5019C33.3397 21.474 32.4473 21.7636 31.5447 21.7371C30.0275 21.6945 28.528 22.2032 27.0108 22.184C25.8641 22.1693 24.7276 22.5148 23.5839 22.6516C22.9311 22.7295 22.2828 22.8691 21.6242 22.8C20.8597 22.7192 20.104 22.972 19.344 23.0867C18.3502 23.2367 17.3563 23.3734 16.364 23.5527C15.9303 23.6307 15.4996 23.7439 15.0629 23.7453C14.6145 23.7453 14.1691 23.8188 13.7177 23.7497C13.2105 23.6733 12.7107 23.9967 12.1947 23.6307C12.0991 23.5616 12.0109 23.7527 12.0006 24.1923C11.9918 24.5701 12.0785 24.7715 12.1491 24.8773C12.3417 25.1655 12.5284 25.5389 12.7136 25.927C12.8077 26.124 12.9003 26.249 13.0018 26.3181C13.5031 26.6592 14.003 26.6915 14.4969 26.6915C15.2011 26.69 15.9009 26.5474 16.6007 26.3813C16.9035 26.3093 17.2108 26.6062 17.5107 26.4607C17.6063 26.4136 17.7033 26.371 17.8003 26.3739C18.2076 26.3857 18.6192 26.5033 19.0235 26.421C19.7409 26.2769 20.4686 26.5401 21.1831 26.3592C21.2081 26.3534 21.2331 26.349 21.2566 26.3651C21.7874 26.7136 22.3078 26.4695 22.8253 26.3857C23.5662 26.2666 24.3101 26.1814 25.0481 25.9755C25.2128 25.93 25.3848 26.2431 25.5392 26.0887C25.9096 25.7153 26.3007 25.8785 26.6785 25.7506C27.4886 25.4786 28.3133 25.6756 29.1292 25.583C29.2763 25.5668 29.4233 25.4683 29.5703 25.5419C29.7776 25.6462 29.9746 25.5918 30.1716 25.4404C30.2495 25.3801 30.3348 25.4022 30.4156 25.4051C30.7655 25.4169 31.1169 25.5036 31.4638 25.4331C31.8696 25.3493 32.2812 25.536 32.687 25.4698C33.0045 25.4184 33.325 25.5036 33.644 25.5316C34.0351 25.5668 34.4232 25.4331 34.8128 25.3728C35.1877 25.3154 35.5626 25.2596 35.9874 25.1949C36.1109 25.3801 36.2491 24.9464 36.4109 24.8876C36.5579 24.8347 36.5579 24.498 36.4491 23.9438L36.4461 23.9453Z" fill="#DD5621"/>
</g>
</svg>
