<svg width="10" height="12" viewBox="0 0 10 12" fill="none" xmlns="http://www.w3.org/2000/svg">
<g id=".indicator">
<path id="Vector" d="M4.57715 11.1582C4.54793 11.2218 4.57843 11.1559 4.58398 11.1445C4.58949 11.1332 4.60325 11.1048 4.62305 11.0693C4.62464 11.0665 4.62821 11.0595 4.63379 11.0498C4.60252 11.1074 4.58074 11.1504 4.57715 11.1582ZM6.7793 2.30078L7.05078 2.79492C8.43857 5.29854 8.92622 7.37466 7.77344 9.17871L7.76953 9.18555L7.76563 9.19141C7.55755 9.52431 7.34909 9.9282 7.21973 10.1621C7.21767 10.1658 7.21494 10.1692 7.21289 10.1729C6.99886 10.1297 6.78561 10.1122 6.57129 10.1201C6.52168 10.122 6.47362 10.1259 6.42773 10.1299C6.40595 10.1193 6.38492 10.1066 6.3623 10.0967C6.05879 9.96326 5.73296 9.91783 5.41504 9.95801C5.25781 9.97791 5.11988 10.0167 5.00488 10.0596C4.92491 10.0387 4.84818 10.0174 4.77441 10L4.65625 9.97266L4.53516 9.96289L4.34375 9.94141C4.16011 9.91429 3.9987 9.8704 3.86133 9.81445L3.74023 9.76562L3.6123 9.73633L3.3418 9.66895C3.26084 9.64611 3.18792 9.62292 3.12012 9.59668L3.10645 9.59082C3.09929 9.58595 3.08768 9.57851 3.07227 9.56641C3.04109 9.54191 3.00707 9.5118 2.96484 9.47266L2.80859 9.32227L2.79492 9.30859L2.56348 9.08301C2.56936 8.89073 2.54355 8.69895 2.48242 8.51758C2.41705 8.32368 2.29809 8.09472 2.09082 7.88965C2.02573 7.82527 1.94006 7.75609 1.83789 7.68945L2.30859 6.29297L2.5918 6.24707L2.7207 5.28516C2.75467 5.24653 2.80515 5.19436 2.87598 5.12793C3.12877 4.89086 3.50046 4.61005 3.95898 4.29492C4.42267 3.97625 4.87345 3.68981 5.33984 3.37988C5.64605 3.1764 5.99578 2.93964 6.29102 2.70117L6.56445 2.46289L6.56836 2.45996C6.63812 2.39312 6.70406 2.33122 6.76562 2.27246C6.77044 2.28184 6.77451 2.29154 6.7793 2.30078ZM0.71875 9.27246C0.688181 9.21431 0.660805 9.1543 0.634766 9.09277C0.717039 9.09277 0.804496 9.09277 0.897461 9.09277L0.71875 9.27246Z" fill="#DD5621" stroke="#DD5621" stroke-width="3.16"/>
</g>
</svg>
