<svg width="33" height="32" viewBox="0 0 33 32" fill="none" xmlns="http://www.w3.org/2000/svg">
<g clip-path="url(#clip0_6188_5748)">
<path d="M29.1035 17.6355C29.0346 16.5604 28.8322 16.0076 28.5709 15.6723C28.082 15.0441 27.5383 14.7812 26.9741 14.6885C25.9541 14.5198 24.8964 14.6906 23.8742 14.5241C22.1579 14.2452 20.3751 14.5556 18.6531 14.3024C17.3521 14.1109 16.0076 14.3026 14.6871 14.2735C13.9333 14.2564 13.1738 14.3054 12.4373 14.1304C11.5821 13.9265 10.6823 14.08 9.80191 14.0846C8.64601 14.0875 7.43412 14.0884 6.224 14.2686C5.694 14.3517 5.17281 14.4953 4.64061 14.5605C4.08824 14.6347 3.56245 14.8232 2.99318 14.9322C2.83403 14.9706 2.68266 15.0349 2.53687 15.1069C2.39219 15.1824 2.25528 15.2813 2.11395 15.3623C1.96926 15.44 1.83796 15.54 1.68099 15.6009C1.52291 15.6606 1.36036 15.7159 1.16317 15.7411C1.01527 15.7594 1.04042 15.9957 1.32506 16.3701C1.57064 16.6921 1.7854 16.8035 1.91184 16.8514C2.08752 16.9147 2.26874 17.0039 2.44543 17.1109C2.62324 17.2191 2.80881 17.3553 2.97869 17.496C3.1564 17.6422 3.27157 17.717 3.37676 17.7548C3.50545 17.7982 3.61515 17.8247 3.71592 17.8379C3.82451 17.8589 3.92193 17.8665 4.01267 17.8607C4.20532 17.8602 4.37681 17.8161 4.57178 17.7819C4.83627 17.723 5.12766 17.6551 5.42917 17.568C5.58607 17.5318 5.74188 17.4855 5.9044 17.4436C6.07138 17.4062 6.23392 17.3554 6.40986 17.3202C6.71245 17.25 7.00167 17.5886 7.31787 17.4556C7.4199 17.4139 7.52416 17.3767 7.62494 17.3876C8.05153 17.4436 8.46997 17.6195 8.9259 17.5926C9.74814 17.5456 10.5446 17.9423 11.3815 17.8584C11.4106 17.8561 11.4386 17.8549 11.4643 17.8761C12.0142 18.3294 12.643 18.1497 13.2423 18.1403C14.1025 18.1269 14.9615 18.1504 15.831 18.0451C16.0259 18.0222 16.1728 18.3825 16.3703 18.2408C16.8483 17.8991 17.2666 18.1332 17.7171 18.0559C18.6796 17.891 19.586 18.2269 20.5279 18.2547C20.697 18.2599 20.8798 18.1776 21.0352 18.2791C21.2544 18.4219 21.4863 18.3956 21.7342 18.2639C21.8329 18.2121 21.9246 18.2477 22.0175 18.2643C22.4127 18.3316 22.7999 18.4784 23.2043 18.4561C23.6781 18.4291 24.1176 18.6912 24.5881 18.6832C24.9566 18.6767 25.3079 18.8169 25.6661 18.8966C26.1049 18.994 26.5655 18.9111 27.018 18.9077C27.4526 18.9043 27.8861 18.902 28.38 18.8996C28.4915 19.1166 28.7155 18.6759 28.9082 18.6373C29.0842 18.6021 29.1355 18.2447 29.0979 17.6366L29.1035 17.6355Z" fill="#091818"/>
<path d="M15.9058 27.544C16.7486 28.2273 17.3529 28.4251 17.8569 28.417C18.3274 28.4069 18.7465 28.3184 19.1254 28.1763C19.5021 28.0297 19.8398 27.8306 20.1484 27.5935C21.2673 26.7382 22.1383 25.6036 23.2148 24.7014C24.1184 23.9408 24.907 23.0561 25.6754 22.1581C26.4427 21.259 27.1866 20.3431 28.0209 19.5132C28.1781 19.356 28.3309 19.1943 28.4803 19.0293C28.5555 18.9473 28.6274 18.862 28.7004 18.7778L28.8117 18.6465L29.0027 18.4242C29.1307 18.276 29.2554 18.129 29.3768 17.9808C29.4959 17.8327 29.6295 17.6878 29.7095 17.5364L30.2483 16.6446C30.3349 16.4976 30.4282 16.3529 30.5059 16.2082C30.5511 16.067 30.585 15.9258 30.6067 15.779C30.6284 15.6322 30.6388 15.4765 30.6247 15.3119C30.6137 15.2313 30.6083 15.1473 30.5873 15.0678C30.5662 14.9883 30.5451 14.9111 30.5173 14.8384C30.4049 14.5463 30.242 14.3205 30.0421 14.0735C29.8434 13.8298 29.5887 13.5885 29.3047 13.3697L28.3288 12.6386L28.0885 12.4589L27.9308 12.3485L27.629 12.132C27.2288 11.8395 26.8409 11.5325 26.489 11.1806C25.669 10.3629 24.6287 9.82794 23.6605 9.16738C22.3915 8.30488 21.0754 7.44249 19.639 6.7697C19.0069 6.48125 18.3568 6.2466 17.7225 5.96488C17.4014 5.80778 17.0556 5.70451 16.7176 5.58218C16.5464 5.52551 16.3718 5.47892 16.2006 5.42C16.1144 5.39222 16.0294 5.36108 15.9444 5.32994C15.8571 5.30328 15.7698 5.27663 15.6825 5.24549C15.4855 5.18104 15.2852 5.12892 15.0769 5.11378L14.4531 5.07171C14.0342 5.06832 13.6289 5.01785 13.1959 4.84536C13.0325 4.77634 12.8853 4.98617 12.8908 5.45882C12.8964 5.86426 13.0348 6.07895 13.1364 6.18957C13.4201 6.49573 13.6588 6.88265 13.8536 7.3268C13.9528 7.5472 14.0442 7.68808 14.1516 7.76845C14.6724 8.2084 15.1748 8.37398 15.7265 8.56856C16.4986 8.85329 17.3502 9.13446 18.2408 9.49729C18.4333 9.57519 18.5718 9.73612 18.7113 9.9004C18.8521 10.0613 18.9962 10.2077 19.211 10.2721C19.3487 10.3109 19.4841 10.3543 19.5925 10.438C20.0408 10.7964 20.4159 11.2568 20.9225 11.5658C21.8193 12.11 22.471 13.0559 23.4205 13.6101C23.4529 13.6291 23.4853 13.6503 23.5021 13.6872C23.8606 14.4905 24.6326 14.8043 25.2856 15.2462L25.4611 15.3656L25.5484 15.4258L25.592 15.456C25.6054 15.4649 25.5987 15.4582 25.6043 15.4593C25.62 15.457 25.6379 15.4547 25.6558 15.4547C25.6939 15.4546 25.7387 15.4589 25.7924 15.4678C25.845 15.4777 25.9133 15.4876 25.9872 15.5121C26.0644 15.5376 26.1158 15.5935 26.1392 15.6416C26.1514 15.6651 26.0405 15.6754 25.9576 15.6779C25.8736 15.6815 25.8165 15.676 25.8926 15.7139C26.0715 15.8075 26.0612 15.896 26.0264 15.9577C26.0174 15.9734 26.0072 15.988 25.9971 16.0026L25.9814 16.0251C25.9713 16.0352 25.9791 16.0295 25.9488 16.0666C25.8555 16.1755 25.7701 16.2899 25.6948 16.4145C25.0592 17.488 24.0358 18.2008 23.2226 19.1079C23.0754 19.2706 22.9886 19.5027 22.7744 19.5918C22.4728 19.7191 22.2974 19.9615 22.1891 20.2821C22.1451 20.4088 22.0362 20.4752 21.9442 20.556C21.5502 20.8987 21.0969 21.1754 20.7599 21.575C20.3599 22.042 19.7702 22.2899 19.3535 22.7334C19.0289 23.0848 18.6004 23.3144 18.2155 23.5921C17.7397 23.9293 17.3801 24.4051 16.9601 24.8139C16.5592 25.2103 16.1506 25.5967 15.6846 26.0359C15.4215 25.9839 15.5266 26.4865 15.3704 26.6829C15.2277 26.8614 15.4353 27.1588 15.9114 27.5451L15.9058 27.544Z" fill="#091818"/>
</g>
<defs>
<clipPath id="clip0_6188_5748">
<rect width="32" height="32" fill="white" transform="translate(0.445312)"/>
</clipPath>
</defs>
</svg>
