<svg width="65" height="17" viewBox="0 0 65 17" fill="none" xmlns="http://www.w3.org/2000/svg">
<path fill-rule="evenodd" clip-rule="evenodd" d="M63.6067 11.6387C63.6594 11.4016 63.712 11.0724 63.633 10.8617L63.6725 10.7168C63.5935 10.5061 63.5277 10.7563 63.5013 11.0856C63.5013 11.1975 63.4947 11.3127 63.4882 11.428C63.4816 11.5432 63.475 11.6585 63.475 11.7704C63.4486 11.7836 63.4223 11.7836 63.396 11.7572C63.3493 10.1988 63.0778 9.83058 62.8064 9.46251C62.6948 9.31114 62.5832 9.1598 62.4872 8.92569L62.4609 9.00471L62.4872 8.88618C62.5889 8.25099 62.6306 7.54501 62.6719 6.84527C62.6949 6.45688 62.7177 6.07042 62.7506 5.69906C62.8823 4.25037 62.9614 4.14501 63.3565 4.68497C63.3565 4.75121 63.3544 4.82157 63.3523 4.89261C63.3453 5.1323 63.338 5.3796 63.4091 5.50151C63.4618 5.5937 63.5277 5.50151 63.554 5.27762C63.6021 4.80853 63.5184 4.64702 63.4433 4.50215L63.4339 4.48398L63.4223 4.46108C63.4771 3.16728 63.2764 3.11492 63.086 3.06528C63.0477 3.05529 63.0098 3.04541 62.9745 3.02556C62.8421 2.94729 62.7096 2.86352 62.5772 2.77975C62.1301 2.49702 61.6831 2.21429 61.2361 2.14318C60.9644 2.09895 60.6957 1.94862 60.4272 1.79836C60.136 1.63543 59.845 1.47258 59.5504 1.44517C59.4885 1.43942 59.4265 1.43414 59.3644 1.42885C58.8578 1.38569 58.3442 1.34193 57.8514 1.0369C57.1504 0.603305 56.4415 0.550387 55.7312 0.497364C55.147 0.453757 54.5619 0.410079 53.9795 0.154518C53.4111 -0.0999667 52.8318 0.0116249 52.2522 0.123288C51.9319 0.184987 51.6115 0.246707 51.2928 0.246707C50.8344 0.24301 50.376 0.22271 49.9176 0.20241C48.7429 0.150391 47.5683 0.0983723 46.3936 0.325727C45.9067 0.418471 45.4172 0.427024 44.9263 0.435603C44.3019 0.446516 43.6752 0.457469 43.0484 0.641805C42.5592 0.789341 42.0655 0.845311 41.5698 0.901494C41.2248 0.9406 40.8789 0.979809 40.533 1.05007C40.1872 1.12192 39.8414 1.23205 39.4951 1.34235C38.8258 1.55553 38.1545 1.76932 37.4775 1.70857C37.28 1.68223 37.0824 1.6954 36.8849 1.85344C36.528 2.13103 36.1759 2.14115 35.8228 2.1513C35.5895 2.158 35.3559 2.16472 35.1201 2.24854C34.8188 2.35753 34.5112 2.35104 34.2035 2.34454C33.8791 2.3377 33.5545 2.33084 33.2368 2.45926C32.4769 2.7578 31.7108 2.83884 30.9427 2.92008C30.5926 2.95711 30.2421 2.99418 29.8917 3.0519L26.9548 3.55236C26.6532 3.60358 26.354 3.62283 26.0562 3.64199C25.6649 3.66717 25.276 3.69219 24.8871 3.78942C24.6242 3.85653 24.362 3.93136 24.1001 4.00609C23.1284 4.28333 22.1615 4.55923 21.1863 4.43474C21.0283 4.4084 20.8703 4.4084 20.7122 4.46108L20.5185 4.51856C19.2936 4.88246 18.0788 5.24337 16.8403 5.09324C16.804 5.08767 16.7672 5.07915 16.7301 5.07055L16.7301 5.07055C16.5916 5.0385 16.4485 5.00536 16.3135 5.11958C15.7373 5.6023 15.1566 5.59252 14.5767 5.58276C14.1756 5.576 13.775 5.56926 13.3766 5.7254C12.5722 6.04251 11.7587 5.97807 10.9442 5.91354C10.3717 5.8682 9.79877 5.82281 9.22805 5.90978C8.20079 6.06782 7.16037 6.13367 6.11994 5.8571C6.02901 5.83092 5.93765 5.80229 5.84598 5.77357L5.84592 5.77355C5.06129 5.52769 4.25382 5.27468 3.49914 6.48925C3.43329 6.60778 3.34109 6.58144 3.26207 6.54193C2.85745 6.35802 2.46568 6.54651 2.0733 6.73531C1.90373 6.81689 1.73404 6.89854 1.56316 6.9502C1.27342 7.02922 0.996839 7.38481 0.891479 8.72814C1.81337 10.9802 2.78796 11.4148 3.76253 11.5465C4.25265 11.6125 4.74277 11.8404 5.22806 12.066L5.22809 12.066L5.22811 12.066C5.4209 12.1556 5.61292 12.2449 5.80388 12.3235C6.0187 12.4085 6.23163 12.5635 6.4441 12.7182C6.79174 12.9714 7.13814 13.2236 7.48963 13.1664C7.76562 14.2167 8.08179 14.2227 8.40174 14.2288C8.63141 14.2331 8.86304 14.2375 9.08318 14.6283C9.34657 15.1024 9.58363 14.4571 9.53095 12.7845C9.87337 14.6414 9.91288 14.6283 10.0709 12.9425C10.0885 12.8547 10.0826 12.7435 10.0768 12.6323C10.0738 12.5767 10.0709 12.5211 10.0709 12.4684L10.0673 12.436L10.0673 12.436L10.0673 12.4359C10.0554 12.3303 10.0446 12.2336 10.0446 12.126C10.0446 12.0733 10.0709 11.9679 10.0709 11.9679L10.1104 11.8758L10.0841 12.0075V12.4421C10.2105 12.4842 10.2171 12.8409 10.2236 13.1967C10.2294 13.5081 10.2351 13.8187 10.3212 13.9171V13.9434C10.3212 14.4044 10.3607 14.7995 10.4792 14.7205C10.6504 14.6151 10.6899 14.1146 10.6504 13.4693L10.6241 13.3376L10.6636 13.4298C10.7386 13.5517 10.8053 13.7454 10.8725 13.9407L10.8725 13.9407C10.9941 14.2941 11.1176 14.6528 11.2957 14.6019C11.7303 14.4702 12.1781 14.6414 12.6127 14.8653C13.0605 15.0892 13.2317 14.5492 13.3502 12.824C13.3898 12.3235 13.4556 12.0601 13.5346 12.1392C13.6795 12.284 13.6136 12.7186 13.561 13.0479C13.5083 13.3903 13.4819 13.7591 13.4951 14.1805C13.5083 14.4966 13.5609 15.0102 13.6268 14.8258C13.79 14.3647 13.9493 14.5647 14.1089 14.765C14.2457 14.9365 14.3826 15.1084 14.5224 14.8653C14.5912 14.7383 14.6685 14.7432 14.7492 14.7482C14.8693 14.7558 14.9969 14.7639 15.115 14.3385C15.1678 14.1537 15.3088 14.3923 15.4515 14.6338C15.5224 14.7537 15.5938 14.8744 15.655 14.9443C15.6945 14.997 15.7472 14.997 15.7735 14.9443C15.9887 14.5779 16.2219 14.6918 16.4561 14.8062C16.7521 14.9509 17.0497 15.0963 17.3144 14.2727C17.3276 14.2068 17.3934 14.2463 17.4197 14.3254C17.7863 15.543 17.8406 14.4177 17.8929 13.3305L17.8939 13.3113C17.9164 12.9052 17.9873 12.7503 18.0568 12.5983C18.0685 12.5729 18.0801 12.5475 18.0914 12.5211L18.1178 12.4421L18.0914 12.5738C18.0124 13.4035 17.9334 14.6809 18.1836 14.7863C18.2665 14.8202 18.3515 14.8918 18.4378 14.9645C18.6531 15.1458 18.8761 15.3336 19.0923 14.9575L20.0537 14.7073C20.3909 15.4472 20.7347 15.1747 21.071 14.9082C21.2076 14.7999 21.3429 14.6926 21.4761 14.6546L21.4813 14.6531C21.7964 14.5612 22.1755 14.4507 22.4243 13.2981C22.4705 12.7671 22.5673 12.4384 22.688 12.0283C22.705 11.9706 22.7225 11.9112 22.7404 11.8494C22.7495 12.5927 22.6462 12.8244 22.5509 13.0383C22.5078 13.1352 22.4662 13.2285 22.4375 13.364L22.4375 13.3667C22.4638 15.1946 22.464 15.2076 22.8194 14.9839C22.9643 14.8917 23.1092 14.7205 23.254 14.4966L23.2724 14.465C23.4531 14.1544 23.6679 13.7853 23.8335 14.1673C23.9715 14.4866 24.07 14.314 24.166 14.146C24.2165 14.0575 24.2663 13.9702 24.3208 13.9566L24.3471 13.8512L24.3208 13.9961C24.3937 15.345 24.6236 15.1465 24.8242 14.9733C24.841 14.9587 24.8576 14.9444 24.8739 14.9312C25.4402 14.4702 25.9934 14.5229 26.5728 14.76C27.0704 14.9609 27.5749 14.8838 28.0813 14.8064C28.2719 14.7772 28.4628 14.748 28.6537 14.7336C28.6927 14.7336 28.7246 14.5817 28.7545 14.4387L28.7545 14.4387C28.765 14.3887 28.7752 14.3399 28.7854 14.299C28.7195 14.0883 28.6669 13.5615 28.6932 13.5615C28.7643 13.522 28.7643 13.7148 28.7643 13.9152C28.7643 14.0488 28.7643 14.1858 28.7854 14.2595C28.7961 14.2987 28.8077 14.3494 28.8198 14.402C28.8524 14.5441 28.8883 14.7002 28.9171 14.6809C29.066 14.6065 29.2166 14.6768 29.366 14.7465C29.6392 14.874 29.9081 14.9995 30.1551 14.2332C30.1609 14.2136 30.1665 14.1929 30.172 14.1727L30.172 14.1725C30.2033 14.0562 30.2307 13.9543 30.2868 14.1673C30.4975 15.0234 30.6423 14.5361 30.7872 13.7459C30.8794 13.2849 30.9189 13.3376 30.9716 14.1278C31.0111 14.6809 31.0638 14.7468 31.1692 14.7073C31.5906 14.5361 32.012 14.4439 32.4466 14.6151C32.5883 14.6789 32.7224 14.472 32.8591 14.2611C32.9765 14.08 33.0959 13.8958 33.2237 13.8776C33.3422 13.8644 33.3817 13.2454 33.3685 12.7055L33.2368 11.7967L33.0261 11.7309C32.9339 12.0733 32.8549 12.4157 32.7627 12.824C32.789 12.1567 32.8725 11.7792 33.0129 11.6914C33.1051 11.349 33.171 11.2963 33.25 11.7309C33.3159 11.9811 33.3554 12.3104 33.3685 12.6791C33.5327 12.7314 33.5193 13.1346 33.5056 13.5462V13.5462C33.4951 13.8609 33.4844 14.1805 33.5529 14.3517C33.7411 14.1283 33.7927 13.4744 33.8391 12.8869L33.8391 12.8863C33.8447 12.816 33.8502 12.7467 33.8558 12.6791C33.9022 12.1623 33.9919 12.2855 34.0763 12.4014C34.1597 12.5158 34.2379 12.6232 34.2641 12.0996C34.2671 12.0552 34.2687 12.0034 34.2703 11.951V11.951V11.9509V11.9508C34.276 11.7705 34.2819 11.5834 34.3431 11.665C34.3694 11.7045 34.3826 12.0733 34.3826 12.284C34.3826 12.6019 34.3259 12.797 34.2666 13.0013C34.1858 13.2794 34.1 13.5746 34.1455 14.22C34.2642 14.1719 34.3891 14.2019 34.5137 14.2318C34.9011 14.3248 35.2864 14.4172 35.4757 12.1655L35.5811 12.3104L35.5547 12.6133L35.6338 12.4947C35.6836 12.6541 35.6938 12.9151 35.7044 13.1846C35.7218 13.6277 35.7401 14.0936 35.9367 14.1673C35.9302 13.7101 35.9962 13.4072 36.0638 13.0969C36.1344 12.7726 36.2068 12.4403 36.2001 11.9153C36.2001 11.7818 36.1727 11.6515 36.1456 11.5222C36.095 11.2816 36.0452 11.0443 36.1737 10.7958C36.2537 10.6438 36.2997 10.871 36.3471 11.1052C36.3777 11.2565 36.4089 11.4106 36.4503 11.4675L36.4766 11.349L36.4503 11.4938C36.4503 11.8751 36.4278 12.2451 36.4051 12.6178V12.6179V12.6179C36.3729 13.1464 36.3404 13.6803 36.3713 14.2595C36.4503 14.2463 36.5162 14.2332 36.5688 14.22L36.5835 14.2155C36.7484 14.1653 36.8891 14.1224 37.0298 13.4957C37.0862 13.2384 37.1278 13.4444 37.1743 13.6752C37.2254 13.9288 37.2825 14.2124 37.3722 13.9434C37.4772 13.6283 37.5951 13.5098 37.7112 13.3931C37.7989 13.305 37.8855 13.2179 37.9648 13.0479C37.9692 12.9254 37.9518 12.7883 37.9343 12.6507L37.9343 12.6506C37.8991 12.3741 37.8637 12.0955 38.0043 11.9284C38.0439 11.8758 38.1492 11.9811 38.1492 12.1128C38.2019 12.7581 38.0834 12.9293 37.9648 13.0742C37.9648 13.6142 38.0043 14.0093 38.1624 14.0225C38.198 14.0274 38.2337 14.0338 38.2694 14.0402C38.6172 14.1025 38.9676 14.1652 39.2423 12.8635L39.2482 12.8416C39.3058 12.6239 39.4553 12.0597 39.5189 12.7845C39.6387 14.2583 39.933 13.9769 40.1438 13.7753C40.1647 13.7554 40.1847 13.7362 40.2037 13.7195C40.4332 13.5187 40.6652 13.5979 40.8975 13.6771C41.1985 13.7797 41.5 13.8826 41.7973 13.3771C42.0937 14.1542 42.4048 14.02 42.7186 13.8846C42.9206 13.7974 43.1238 13.7097 43.325 13.8644C43.823 14.2502 44.3323 14.24 44.8428 14.2297C45.2908 14.2207 45.7397 14.2117 46.1829 14.4702C46.5385 14.6809 46.9599 14.918 47.3287 14.2068C47.4727 13.9319 47.5907 14.0735 47.7214 14.2304L47.7237 14.2332C48.132 14.7336 48.5403 15.1024 48.9486 14.062L48.9609 14.0322C49.024 13.8785 49.0967 13.7019 49.1461 14.0356C49.2663 14.9071 49.4322 14.7957 49.6033 14.6809C49.6571 14.6447 49.7115 14.6082 49.7651 14.6019C49.8833 14.5844 50.0016 14.5072 50.1208 14.4294C50.3601 14.2731 50.6033 14.1143 50.8582 14.4307C51.0821 14.6941 51.1743 14.1278 51.1348 13.1401C51.0907 12.0504 51.2215 12.267 51.3425 12.4675C51.3663 12.5069 51.3897 12.5456 51.4113 12.5738L51.4377 12.4552L51.4113 12.6133C51.4113 14.4702 51.4377 14.7073 51.7669 14.4834C52.5091 13.9768 53.2619 14.1658 54.0064 14.3527L54.0066 14.3528L54.0066 14.3528C54.0943 14.3748 54.1818 14.3967 54.2692 14.4176C54.6116 14.4966 54.875 14.2595 55.1384 13.4561C55.1648 14.0225 55.2174 14.5624 55.3623 14.7468C55.4808 14.9048 55.5994 14.7731 55.6652 14.299C55.7047 13.9698 55.7311 13.443 55.6916 13.1532C55.644 12.8299 55.5759 12.9392 55.5069 13.0497C55.4804 13.0922 55.4538 13.1349 55.4282 13.1532C55.3623 13.1971 55.2965 13.1953 55.2306 13.1935C55.2174 13.1931 55.2043 13.1927 55.1911 13.1927C55.4413 12.666 55.6784 12.1523 55.9418 11.5728C55.9286 12.0993 55.9286 12.4154 55.9286 12.7312V12.7318C55.8759 14.1673 55.9286 14.6151 56.2184 14.6414C56.3169 14.6504 56.4154 14.6335 56.5139 14.6165C56.7051 14.5837 56.8963 14.5508 57.0876 14.7073C57.2061 14.8126 57.3641 14.3122 57.3246 13.6274C57.2838 13.0249 57.3617 13.0241 57.4295 13.0235C57.4491 13.0233 57.4679 13.0232 57.4827 13.0084C57.6407 12.8503 57.6407 13.3244 57.6144 13.7195C57.5222 14.8917 57.6671 15.076 57.9041 15.0892C57.9614 15.0922 58.0188 15.0941 58.0764 15.0961L58.0765 15.0961L58.0765 15.0961C58.5352 15.1117 59.0018 15.1275 59.4582 15.6424C59.7874 16.0243 60.1298 16.2482 60.4854 15.695C60.5249 15.616 60.6171 15.537 60.6435 15.6424C60.8727 16.495 61.1274 16.269 61.381 16.0441C61.4917 15.9459 61.6022 15.8479 61.7102 15.8399C61.7629 16.0638 61.8156 16.1033 61.8683 15.8662C62.0263 15.8267 62.1053 15.4975 62.1053 14.8126C61.9933 14.2075 62.091 14.0505 62.1875 13.8955L62.1875 13.8954C62.2044 13.8683 62.2213 13.8412 62.237 13.8117L62.2765 13.7327L62.2502 13.8512L62.1316 14.7731C62.3149 14.7189 62.4701 14.322 62.6262 13.9229C62.7731 13.5474 62.9207 13.17 63.0931 13.0742C63.1504 13.0456 63.1315 12.8159 63.1117 12.5763L63.1117 12.5762C63.1043 12.4856 63.0967 12.3935 63.0931 12.3104C63.0667 11.9679 63.0931 11.9284 63.3038 12.0865L63.3828 12.6001L63.475 12.0865C63.4909 12.0282 63.5089 11.972 63.5274 11.9146C63.5548 11.8292 63.5831 11.741 63.6067 11.6387ZM6.4887 11.0812L6.46237 11.0987L6.4887 11.1777V11.0812ZM8.00325 11.665L8.04276 11.7177L8.00325 11.7704V11.665ZM8.5037 13.1533L8.47737 13.1796L8.5037 13.2586V13.1533ZM9.09636 12.5211V12.982V12.9952L9.12268 13.1401L9.08318 13.0215L9.05683 12.6659C9.05683 12.6133 9.08318 12.4947 9.08318 12.4947L9.12268 12.4026L9.09636 12.5211ZM10.1417 8.08043C10.166 8.07582 10.195 8.0703 10.2158 8.12232H10.229C10.2343 8.13993 10.24 8.15777 10.2459 8.1762C10.2844 8.29558 10.3308 8.43939 10.308 8.7018C10.3007 8.69816 10.2914 8.69754 10.2815 8.69688C10.2555 8.69514 10.2253 8.69312 10.2158 8.63595C10.1823 8.50199 10.1583 8.33018 10.1357 8.16865L10.1236 8.08282C10.1291 8.08282 10.1353 8.08165 10.1417 8.08043ZM10.9006 12.5738L10.927 12.6001L10.9006 12.7318V12.5738ZM11.7333 12.366C11.745 12.4303 11.7567 12.4947 11.7567 12.5474L11.7435 12.5343C11.7435 12.6114 11.7323 12.683 11.7209 12.7562L11.7209 12.7562V12.7563L11.7209 12.7563C11.7148 12.7956 11.7086 12.8353 11.704 12.8767C11.6645 12.8898 11.6513 12.7976 11.6645 12.6264C11.6908 12.508 11.704 12.3896 11.7171 12.2711L11.7172 12.2709C11.7216 12.3016 11.7274 12.3338 11.7333 12.366ZM12.5732 11.9548C12.5864 11.9679 12.6127 12.0733 12.6127 12.0733L12.6259 12.0865L12.5732 12.1523C12.5677 12.1496 12.5622 12.1474 12.557 12.1453C12.537 12.1374 12.5205 12.1309 12.5205 12.0996C12.4942 11.9679 12.5205 11.9021 12.5732 11.9548ZM12.56 8.06964C12.5732 8.09598 12.5995 8.20134 12.5995 8.20134H12.6127L12.56 8.28036C12.5545 8.27762 12.5491 8.27544 12.5438 8.27336L12.5438 8.27336C12.5239 8.26547 12.5074 8.25895 12.5074 8.22768C12.481 8.08281 12.5074 8.01696 12.56 8.06964ZM14.5619 12.8372L14.5882 12.8635L14.5619 12.9952V12.8372ZM15.1677 12.3762V12.5343L15.1414 12.5079L15.1677 12.3762ZM15.7603 12.3894C15.7867 12.3367 15.8525 12.3894 15.8525 12.4552H15.8394C15.8789 12.7055 15.8393 12.8635 15.7867 12.9952C15.7472 13.0479 15.7208 12.982 15.7208 12.7845C15.7208 12.6396 15.734 12.4684 15.7603 12.3894ZM16.9151 12.327C17.021 12.1482 17.139 11.9491 17.3012 12.0601C17.1168 13.0479 16.9325 12.9689 16.7349 12.5869L16.7086 12.4421L16.7481 12.5474C16.8037 12.515 16.8576 12.424 16.9151 12.327ZM18.4733 12.0338C18.5392 11.9679 18.5655 12.1655 18.5655 12.4684C18.5483 12.5633 18.5353 12.6751 18.5223 12.7863V12.7864L18.5223 12.7864C18.4957 13.0148 18.4695 13.2404 18.4075 13.3113C18.3416 13.3771 18.3153 13.1006 18.3153 12.8635C18.3285 12.4421 18.3812 12.1392 18.4733 12.0338ZM19.9747 12.2577L20.0011 12.284L19.9747 12.4157V12.2577ZM20.3698 13.2981C20.3566 13.0215 20.4488 12.824 20.4488 12.824C20.5147 12.8898 20.5015 13.2191 20.4752 13.4298C20.4647 13.5451 20.4459 13.6353 20.4254 13.7337L20.4253 13.7339C20.4201 13.7591 20.4147 13.7849 20.4093 13.8117L20.3171 14.0751C20.3009 13.8559 20.3297 13.8469 20.3573 13.8383C20.3744 13.833 20.3911 13.8278 20.3961 13.7722L20.3698 13.2981ZM20.8966 11.665C20.8308 12.1128 20.7912 12.5474 20.8703 13.1137C21.002 12.6133 21.002 12.1787 20.8966 11.665ZM22.2926 11.0329L22.319 10.9143H22.3321L22.3058 11.0724L22.2663 11.1514L22.2926 11.0329ZM23.7545 6.01514L23.7018 6.04148V6.02831C23.6755 5.90978 23.6886 5.77808 23.7282 5.7254C23.7413 5.71223 23.7677 5.77808 23.7677 5.81759C23.7677 5.85051 23.7644 5.88344 23.7611 5.91636C23.7578 5.94929 23.7545 5.98221 23.7545 6.01514ZM23.8646 12.0821C23.8675 12.1121 23.8703 12.1408 23.873 12.1655C23.8554 12.1743 23.8379 12.186 23.8203 12.1977C23.7852 12.2211 23.7501 12.2445 23.715 12.2445C23.6755 12.2445 23.6491 12.1128 23.6755 11.8758C23.6869 11.872 23.6994 11.8649 23.7126 11.8573C23.7454 11.8388 23.7828 11.8175 23.8203 11.8362C23.8412 11.8362 23.8537 11.968 23.8646 12.0818L23.8646 12.0821ZM24.3735 12.5211V12.6659H24.3471L24.3735 12.5211ZM25.4797 12.5211L25.4402 12.4684L25.4797 12.4157V12.5211ZM26.0856 5.80442L26.0461 5.73857L26.0856 5.68589V5.80442ZM25.9539 12.2709C26.0856 11.4411 26.2041 11.4807 26.3226 12.3894H26.3358C26.2684 12.5511 26.2044 12.4473 26.1422 12.3462C26.0828 12.2497 26.0249 12.1557 25.967 12.2972L25.9275 12.3762L25.9539 12.2709ZM27.5738 12.6133L27.6133 12.5738V12.6791L27.5738 12.6133ZM29.141 11.4543C29.141 11.428 29.1805 11.4807 29.1805 11.4807H29.1937V11.6782C29.1805 11.698 29.1673 11.7243 29.1574 11.744C29.1476 11.7638 29.141 11.777 29.141 11.7704C29.1015 11.7045 29.1015 11.5728 29.141 11.4543ZM30.452 11.7585C30.4883 11.7716 30.5293 11.7862 30.5765 11.7967H30.5897C30.5609 11.883 30.5351 11.9595 30.5117 12.0289L30.5116 12.029L30.5116 12.0291C30.4493 12.2136 30.4041 12.3476 30.3658 12.4816C30.2868 12.7055 30.2078 12.7713 30.1682 12.4026C30.1024 11.8231 30.2209 11.7572 30.3131 11.7309C30.3527 11.723 30.3971 11.7389 30.452 11.7585ZM31.2811 12.0535L31.2613 12.1128C31.2562 12.1698 31.2388 12.1758 31.2203 12.1822C31.1919 12.1921 31.1612 12.2028 31.1692 12.4026L31.2613 12.1523L31.2811 12.0535ZM31.6696 11.8494C31.6828 11.8362 31.7223 11.9284 31.7223 11.9284C31.7091 11.9811 31.6959 12.0601 31.6959 12.0733C31.6828 12.0996 31.6564 12.1128 31.6433 12.0733C31.6038 11.9548 31.6169 11.8626 31.6696 11.8494ZM31.8913 13.3143C31.8828 13.3257 31.8521 13.3677 31.8408 13.3903C31.8408 13.4101 31.8474 13.4331 31.854 13.4561C31.8606 13.4792 31.8672 13.5022 31.8672 13.522C31.8694 13.522 31.872 13.5231 31.8749 13.5248C31.8771 13.5262 31.8795 13.5278 31.882 13.5296C31.8951 13.5387 31.9106 13.5495 31.9198 13.522C31.957 13.4104 31.9475 13.3338 31.8913 13.3143ZM33.4739 6.9502C33.5266 6.98971 33.5661 7.14775 33.5661 7.41115H33.5529C33.5397 7.49017 33.5002 7.64821 33.4871 7.63504C33.4344 7.5692 33.4344 7.3322 33.4344 7.10834V7.10824C33.4476 7.04239 33.4739 6.9502 33.4739 6.9502ZM33.6056 3.8421C33.6714 3.76308 33.6978 3.94746 33.6978 4.30305C33.6834 4.34615 33.669 4.40319 33.6547 4.46024C33.6295 4.56004 33.6044 4.65983 33.5793 4.68497C33.5134 4.73765 33.4739 4.50059 33.4871 4.26354C33.5002 4.09233 33.5661 3.89478 33.6056 3.8421ZM34.3431 5.27762L34.3694 5.35664L34.3431 5.39615V5.27762ZM34.7382 11.8099V12.0075C34.725 12.0601 34.6987 12.1523 34.6987 12.1523C34.646 12.1655 34.6328 12.047 34.6724 11.8889C34.6855 11.8362 34.7382 11.8099 34.7382 11.8099ZM36.8849 9.96611C36.9376 9.87393 36.9508 9.97928 36.9376 10.1637C36.9112 10.2954 36.8981 10.4139 36.8849 10.5456C36.8454 10.5983 36.8454 10.5193 36.8454 10.3217C36.8454 10.19 36.8586 10.0188 36.8849 9.96611ZM37.122 7.62187V7.80625C37.1088 7.85893 37.0825 7.95112 37.0825 7.95112C37.0298 7.96428 37.0166 7.85893 37.0561 7.70089C37.0693 7.66138 37.122 7.62187 37.122 7.62187ZM37.4117 7.45943L37.3854 7.477L37.4117 7.55602V7.45943ZM38.0834 6.69997C38.1229 6.56827 38.1755 6.63412 38.1755 6.8185C38.1887 7.2136 38.136 7.50334 38.057 7.72723C38.0043 7.3453 38.0175 6.98971 38.0834 6.69997ZM38.5706 12.6396L38.597 12.5474H38.6102L38.5838 12.6791L38.5443 12.7713L38.5706 12.6396ZM38.9526 11.1646C38.9658 11.1646 38.9789 11.3094 38.9789 11.3094C38.9657 11.507 38.9394 11.5597 38.8999 11.4411V11.2568C38.9116 11.2392 38.9208 11.2189 38.9284 11.2019C38.938 11.1808 38.9453 11.1646 38.9526 11.1646ZM39.0053 7.30579C39.0184 7.10824 39.0448 7.06873 39.0843 7.17409V7.3453C39.0716 7.36424 39.062 7.38924 39.054 7.41013C39.0453 7.43281 39.0385 7.45066 39.0316 7.45066C39.0184 7.46383 39.0053 7.3453 39.0053 7.30579ZM39.6631 11.3094C39.7743 11.4793 39.8905 11.6567 39.9271 12.2313V12.2445C39.7694 12.4936 39.732 12.1408 39.6963 11.8031C39.6753 11.6051 39.6549 11.4122 39.6111 11.349C39.5957 11.3027 39.5783 11.2625 39.5604 11.2213C39.5325 11.1568 39.5035 11.0898 39.4794 10.9934C39.453 10.8485 39.4794 10.6905 39.5189 10.7958C39.554 10.8748 39.5774 10.989 39.6008 11.1031C39.6125 11.1602 39.6242 11.2173 39.6374 11.2699L39.6631 11.3094ZM40.0193 8.89935V9.0969H40.0325C40.0224 9.10193 40.0143 9.1108 40.0074 9.11838C39.9961 9.13065 39.988 9.13952 39.9798 9.12324C39.9667 9.0969 39.9535 9.01788 39.9535 8.9652C39.9535 8.75448 39.9798 8.72814 40.0193 8.89935ZM40.0457 3.56553L40.072 3.43383L40.0457 3.5787C39.9667 3.9738 39.8876 3.85527 39.7823 3.56553V3.43383L39.8086 3.51285L40.0457 3.56553ZM40.4397 10.909C40.4517 10.9549 40.465 11.0054 40.4803 11.046L40.4671 11.0329L40.4669 11.0338C40.4143 11.2573 40.3617 11.4809 40.3091 11.6914C40.2827 11.8099 40.2564 11.7177 40.2564 11.4938C40.2696 11.1514 40.2959 10.8617 40.3881 10.7827C40.4043 10.7746 40.4204 10.836 40.4397 10.909ZM41.6392 10.9012L41.6656 10.8222H41.6787L41.6524 10.9539L41.6129 11.0329L41.6392 10.9012ZM42.2319 10.9802L42.2582 10.8617H42.2714L42.2451 11.0065C42.2319 11.2304 42.2056 11.4543 42.1792 11.665C42.166 11.7967 42.1002 11.9943 42.1002 11.9679C42.008 11.7967 42.0607 11.586 42.1002 11.4411C42.1252 11.3245 42.1554 11.229 42.1843 11.1378L42.1844 11.1377C42.2011 11.0848 42.2174 11.0334 42.2319 10.9802ZM42.6533 10.7827C42.706 10.7036 42.7192 10.809 42.706 10.967V10.9802C42.6928 11.0987 42.6533 11.2173 42.627 11.2699C42.5875 11.3358 42.5743 11.2304 42.5743 11.0592C42.5831 11.0285 42.5919 10.9934 42.6007 10.9582L42.6007 10.9582C42.6182 10.8879 42.6358 10.8178 42.6533 10.7827ZM45.1424 7.41115C45.1424 7.46383 45.1029 7.52968 45.1029 7.52968C45.0503 7.51651 45.0371 7.41115 45.0502 7.22677C45.0502 7.17409 45.0766 7.12141 45.0898 7.12141C45.1424 7.10824 45.1556 7.22677 45.1424 7.41115ZM45.2234 9.87174L45.2236 9.87105L45.2238 9.86999C45.2445 9.7662 45.2659 9.65888 45.2873 9.54468C45.3576 10.6948 45.2785 11.3051 45.0502 11.3753C45.0502 10.7394 45.1296 10.3417 45.2234 9.87174ZM45.9722 11.8099C46.0117 11.5992 46.0644 11.5333 46.117 11.7045V11.7177C46.1565 11.8626 46.1829 12.0601 46.1565 12.3104C46.1039 12.5343 46.0643 12.5343 46.0117 12.3762C45.9722 12.2445 45.9326 12.047 45.9722 11.8099ZM47.6974 12.1128C47.7369 12.0338 47.7633 12.126 47.7633 12.2972C47.7238 12.5869 47.6579 12.7055 47.5789 12.6791C47.5262 12.6659 47.513 12.5343 47.5525 12.4289C47.5921 12.2972 47.6447 12.1918 47.6974 12.1128ZM49.0407 11.9416C49.0934 11.8494 49.1198 11.9284 49.1198 12.3235H49.1066C49.0971 12.3426 49.0858 12.3754 49.0728 12.4133L49.0728 12.4135L49.0727 12.4136C49.0499 12.4805 49.0216 12.5629 48.9881 12.6133C48.9354 12.7055 48.8695 12.6133 48.8959 12.3104C48.917 12.1731 48.9635 12.0866 49.0083 12.0034L49.0083 12.0033L49.0083 12.0033C49.0194 11.9828 49.0303 11.9625 49.0407 11.9416ZM50.6471 12.3589C50.641 12.2872 50.6362 12.2075 50.6314 12.1257L50.6314 12.1253C50.6158 11.8621 50.5989 11.5775 50.5289 11.4675C50.4368 11.3226 50.4104 11.6914 50.3973 11.9943V11.9944C50.3973 12.4026 50.3973 12.7713 50.5289 12.8108C50.5942 12.8369 50.6336 12.6948 50.6471 12.3589ZM52.5571 13.3903L52.5835 13.4825V13.364L52.5571 13.3903ZM52.6765 11.9824L52.5835 12.1918L52.5571 12.3367L52.5835 12.2313C52.5934 12.1817 52.6108 12.1807 52.6279 12.1797C52.655 12.1781 52.6815 12.1766 52.6765 11.9824ZM53.0708 12.5343L53.0312 12.4816L53.0708 12.4289V12.5343ZM53.4569 4.47466C53.44 4.47634 53.4229 4.47803 53.4132 4.52693H53.4263L53.3868 4.63229L53.4132 4.50059L53.5053 4.2372C53.5136 4.46903 53.4855 4.47183 53.4569 4.47466ZM53.4132 11.1646C53.4132 11.1251 53.4922 11.0724 53.5053 11.1382H53.5185C53.6161 11.5381 53.6052 11.9958 53.5931 12.5112V12.5113V12.5113C53.5888 12.6918 53.5844 12.8795 53.5844 13.0742C53.3868 12.4947 53.3736 11.8626 53.4132 11.1646ZM54.4836 11.1159C54.6636 11.0523 54.8126 10.9996 54.9672 11.2831C54.9215 11.3208 54.8752 11.3771 54.8276 11.435C54.6421 11.6609 54.4363 11.9114 54.1638 11.1777C54.2829 11.1869 54.3877 11.1499 54.4836 11.1159ZM55.4545 7.45066C55.494 7.31896 55.5203 7.3453 55.5467 7.50334V7.51651C55.5556 7.55199 55.5525 7.60541 55.5495 7.65662V7.65665C55.5481 7.68146 55.5467 7.70574 55.5467 7.72723C55.5072 7.83259 55.4808 7.81942 55.4545 7.66138C55.445 7.62317 55.4493 7.55031 55.4523 7.4981C55.4535 7.47832 55.4545 7.46151 55.4545 7.45066ZM56.5081 11.5202L56.6134 11.665C56.5698 11.8658 56.5551 11.7715 56.5386 11.6659C56.5302 11.6122 56.5214 11.5555 56.5081 11.5333C56.3387 12.0189 56.3533 12.7079 56.3692 13.459C56.3718 13.5839 56.3745 13.7104 56.3764 13.8381C56.113 13.5615 56.1262 12.9293 56.192 12.3499C56.2007 12.2715 56.2087 12.1798 56.2171 12.084C56.2592 11.6007 56.3102 11.0145 56.5081 11.5202ZM56.9427 12.0996C56.89 12.126 56.89 12.0338 56.9164 11.8626C56.9295 11.8099 56.9559 11.7967 56.969 11.7967C56.9822 11.7967 56.9822 11.9548 56.9822 11.9548C56.9783 11.9706 56.9743 11.9899 56.9704 12.0092L56.9704 12.0093C56.9611 12.0545 56.9519 12.0996 56.9427 12.0996ZM58.9972 8.54376C58.984 8.51742 58.9709 8.38572 58.9709 8.38572H58.984C58.9972 8.175 59.0235 8.16183 59.0499 8.33304V8.51742C59.0398 8.52245 59.0298 8.53133 59.0212 8.53891C59.0073 8.55117 58.9972 8.56004 58.9972 8.54376ZM57.8251 12.0601C58.0358 11.7045 58.1807 11.5465 58.2992 12.126V12.1392C58.3124 12.1918 58.2992 12.4816 58.2729 12.5343C58.1204 12.9026 58.0048 12.5726 57.8431 12.1115L57.8251 12.0601ZM59.1948 14.1146V14.2595L59.1684 14.1542C59.1466 14.1323 59.1248 14.1135 59.1032 14.0949C59.0467 14.0463 58.9922 13.9992 58.9445 13.9039C58.8787 13.7459 58.8523 13.4035 58.905 13.1137C58.9709 12.7581 59.0499 12.9952 59.0894 13.2586C59.1067 13.3684 59.119 13.4908 59.1317 13.6181C59.1481 13.781 59.1652 13.952 59.1948 14.1146ZM59.5478 4.64946C59.5381 4.615 59.5284 4.57728 59.5187 4.53956L59.5187 4.53937C59.5029 4.47781 59.4871 4.41625 59.4713 4.36889C59.4318 4.26354 59.3923 4.31622 59.3923 4.48742C59.3923 4.57961 59.4318 4.72448 59.4582 4.75082C59.4783 4.77095 59.5061 4.72189 59.5298 4.67999C59.5362 4.66882 59.5422 4.65817 59.5478 4.64946ZM59.7611 12.5474C59.8401 12.3104 59.9191 12.2972 60.0113 12.4947C59.9454 12.7581 59.8664 13.0215 59.7742 12.9162C59.7347 12.8767 59.7215 12.6528 59.7611 12.5474ZM60.0891 10.0332C59.9187 10.2044 59.8269 10.4546 59.8006 10.9407C59.8006 10.967 59.8664 11.0987 59.8928 11.0856C60.0036 11.0486 60.0338 10.6895 60.0803 10.1373L60.0891 10.0332ZM60.4854 13.68C60.4854 13.6537 60.5249 13.7064 60.5249 13.7064H60.5381V13.9039C60.5232 13.9188 60.5083 13.9464 60.4982 13.9651C60.4904 13.9795 60.4854 13.9887 60.4854 13.9829C60.4459 13.9171 60.4459 13.7986 60.4854 13.68ZM61.8024 15.5502V15.6424V15.6555H61.7629L61.8024 15.5502ZM62.1526 12.5515C61.811 12.6366 61.683 13.2899 61.6312 14.299L61.6049 14.4176L61.6312 14.3385C61.694 13.7639 61.8181 13.4464 61.9575 13.0897L61.9575 13.0897L61.9575 13.0895L61.9575 13.0895C62.0208 12.9275 62.0873 12.7574 62.1526 12.5515ZM62.6979 16.1691C62.7111 15.9848 62.7638 15.7872 62.8033 15.695C62.8768 15.548 62.8933 15.7885 62.9059 15.9712L62.9087 16.0111C62.8955 16.3535 62.8691 16.6433 62.777 16.6169C62.7111 16.6037 62.6848 16.393 62.6979 16.1691ZM64.015 5.26443C64.015 5.26443 63.9228 5.29077 63.9096 5.38296C63.8701 5.64636 63.9096 5.77806 63.9623 5.85708C64.015 5.9361 64.0676 5.96244 64.1072 5.72538C64.1335 5.34345 64.0677 5.29077 64.015 5.26443ZM63.8042 12.3367C63.7384 12.2182 63.7515 11.9811 63.7779 11.7836L63.7794 11.772C63.8053 11.5779 63.8319 11.3781 63.8964 11.5202C63.9228 11.5728 63.9228 11.7833 63.9228 11.915V11.9153C63.9096 12.1523 63.8701 12.3367 63.8042 12.3367Z" fill="#CCE2F7"/>
</svg>
