<svg width="93" height="54" viewBox="0 0 93 54" fill="none" xmlns="http://www.w3.org/2000/svg">
<g id="_&#229;&#156;&#150;&#229;&#177;&#164;_3" clip-path="url(#clip0_6278_3917)">
<g id="Group">
<path id="Vector" d="M39.686 5.09639C40.016 5.1096 40.566 5.06997 40.526 5.24167C40.486 5.41337 40.596 5.58507 40.606 5.75677C40.616 5.91526 40.586 6.07375 40.566 6.23224C40.956 6.27186 41.306 6.13979 41.656 6.23224C41.956 6.29827 42.086 6.40394 41.916 6.46997C41.176 6.73413 41.576 7.05111 41.146 7.31526C41.346 7.34167 41.536 7.36809 41.556 7.43412C41.556 7.43412 41.396 7.47375 41.346 7.47375C41.096 7.44733 41.096 7.3945 41.056 7.34167C40.876 7.34167 40.556 7.26243 40.576 7.36809C40.596 7.51337 41.256 7.53978 41.546 7.63224C41.906 7.7379 41.436 7.76431 41.066 7.7511L40.956 7.7511L41.036 7.7511C41.036 7.81714 40.986 7.88318 40.686 7.9228L40.586 7.9228L40.656 7.9228C40.836 8.2662 41.086 8.6096 41.766 8.92658C42.036 9.04545 42.096 9.16431 42.016 9.29639C41.926 9.44167 41.636 9.50771 41.056 9.40205C40.906 9.37563 40.716 9.29639 40.536 9.37563C40.456 9.41525 40.636 9.53413 40.656 9.53413C41.576 9.50771 41.256 9.75865 41.756 9.82469C42.016 9.86431 42.206 9.94356 42.006 10.0096C41.446 10.1945 41.676 10.419 41.536 10.6303C41.496 10.6964 41.366 10.736 41.156 10.7624C41.056 10.7492 41.196 10.6832 40.936 10.6964L41.136 10.7624C40.976 10.8417 41.026 10.9209 41.246 11.0002C41.536 11.0926 41.686 11.1983 41.106 11.2775C40.986 11.2511 40.866 11.2247 40.746 11.1851L40.656 11.1851L40.716 11.1851L41.076 11.2775C41.296 11.37 41.476 11.4492 41.076 11.5417C40.746 11.6209 40.336 11.7002 40.166 11.7926C39.826 11.9907 40.216 11.9115 40.526 11.8322C40.656 11.8719 40.916 11.9247 40.906 11.9643C40.856 12.136 40.826 12.3077 40.596 12.4662C40.346 12.6379 39.806 12.4266 39.416 12.4794C39.506 12.5851 39.866 12.5983 40.186 12.6379C40.486 12.6643 40.716 12.7303 40.596 12.8096C40.066 13.1662 40.786 13.4832 40.916 13.8134C40.976 13.9719 41.376 14.1171 41.146 14.2756C40.986 14.3813 41.146 14.4605 41.556 14.5266C41.996 14.6058 42.806 14.6983 41.556 14.7907C41.376 14.7907 41.466 14.87 41.636 14.8964C42.336 15.0153 42.356 15.2134 42.666 15.3851C43.266 15.7153 43.236 15.7153 41.726 15.7285C41.956 15.9266 41.906 16.1511 42.856 16.27C43.116 16.2964 43.176 16.402 42.826 16.4417C41.926 16.5473 42.466 16.7322 42.686 16.7983C43.286 16.97 42.546 17.1153 42.686 17.2737C42.776 17.3794 42.206 17.3134 42.026 17.353C41.486 17.4587 41.786 17.5115 42.276 17.5511C42.446 17.4983 42.606 17.4983 42.726 17.5511C42.756 17.5511 42.786 17.5643 42.806 17.5775C42.806 17.5775 42.756 17.5907 42.756 17.5775C42.726 17.5775 42.696 17.5643 42.666 17.5511C42.586 17.5511 42.506 17.5511 42.426 17.5643C42.376 17.67 42.466 17.7756 42.696 17.8813C42.736 17.8813 42.806 17.8945 42.796 17.9077C42.776 17.9341 42.716 17.9341 42.646 17.9077C42.346 17.9605 42.056 18.0002 42.526 18.0926C42.976 18.1851 43.396 18.2907 42.626 18.4228L42.536 18.4228L42.596 18.4228C43.256 18.6737 43.156 18.9907 43.746 19.2549C44.016 19.3737 43.866 19.4266 43.136 19.5587C42.856 19.6115 42.946 19.6643 43.006 19.6907C43.576 19.902 43.946 20.1134 43.276 20.3643C43.226 20.3775 43.186 20.4304 43.216 20.4304C44.626 20.6285 43.946 20.9719 44.186 21.2492C44.296 21.3681 44.476 21.5398 43.546 21.5794C43.116 21.5926 43.386 21.6454 43.546 21.6851C44.136 21.8303 44.116 22.0153 44.186 22.2002C44.396 22.8209 44.446 23.4417 44.426 24.0624C44.426 24.3398 44.846 24.6039 44.176 24.8681C44.136 24.8945 43.866 24.8681 43.946 24.9209C44.036 24.9077 44.116 24.8945 44.206 24.8681C45.036 25.1851 44.646 25.5417 44.456 25.8719C44.256 26.2153 44.406 26.5587 44.336 26.8888C44.256 27.2587 44.546 27.6285 44.226 28.0115C44.066 28.1964 43.896 28.4341 44.426 28.6322C44.806 28.7775 44.286 28.8303 43.946 28.9096C44.146 28.936 44.346 28.9756 44.366 29.0285C44.366 29.0285 44.206 29.0681 44.146 29.0681C43.866 29.0549 43.856 28.9888 43.806 28.936C43.306 29.1737 44.276 29.3454 44.346 29.5568C44.396 29.7285 44.816 29.953 44.466 30.0851C44.016 30.27 45.106 30.402 44.466 30.5473L44.376 30.5209L44.446 30.5473C44.356 30.7322 44.536 30.8907 44.676 31.0756C44.956 31.4322 45.086 31.802 44.986 32.1719C44.866 32.5813 44.536 33.0039 45.316 33.4002C45.436 33.4662 45.576 33.5454 45.516 33.6115C44.906 34.2058 45.596 34.8002 45.436 35.3945C45.356 35.6719 45.616 35.9624 45.376 36.2398L45.316 36.2662L45.406 36.2662C45.626 36.2794 45.816 36.3322 45.736 36.3851C45.126 36.7549 45.586 37.1247 45.386 37.4945C45.106 38.0096 45.316 38.5247 45.296 39.0398C45.276 39.4888 45.116 39.9643 45.646 40.4266C45.736 40.5058 45.776 40.6115 45.646 40.6775C44.996 40.9945 45.566 41.3379 45.406 41.6549C45.256 41.9851 45.456 42.3153 45.316 42.6322C45.216 42.87 46.296 43.1737 44.756 43.3454C44.616 43.3587 44.826 43.4115 44.936 43.4379C45.4693 43.5964 45.5226 43.7681 45.096 43.953C45.046 43.9794 44.936 43.9926 45.016 44.019C46.126 44.4417 45.796 44.9171 45.736 45.3794C45.696 45.7492 45.816 46.1322 45.296 46.4756C44.216 47.1888 44.206 47.9285 44.076 48.6681C44.046 48.8266 43.996 48.9719 43.686 49.1171C42.916 49.4737 42.716 49.87 42.576 50.2662C42.436 50.6624 42.036 51.0454 42.156 51.4417C42.236 51.6926 42.356 51.97 42.516 52.2209C42.716 52.5379 42.086 52.8681 40.976 53.0134C40.276 53.1058 39.746 52.987 39.536 52.8681C38.896 52.4851 38.086 52.102 38.436 51.6794C38.676 51.3756 38.756 51.0851 38.786 50.7813C38.846 50.2266 38.806 49.6719 38.956 49.1171C39.076 48.6681 38.716 48.2322 38.596 47.7964C38.446 47.2285 38.336 46.6605 38.066 46.0926C37.636 45.1945 37.986 44.2964 37.766 43.3983C37.506 42.3285 37.136 41.2587 37.116 40.1888C37.106 39.502 37.306 38.7888 36.736 38.102C36.706 38.0624 36.716 38.0228 36.726 37.97C36.946 36.8077 36.436 35.6587 36.596 34.4964C36.686 33.8756 36.516 33.2417 36.176 32.6209C36.156 32.5945 36.136 32.5681 36.146 32.5417C36.476 31.8549 35.856 31.1813 35.886 30.4945C35.926 29.6096 35.936 28.7379 35.476 27.853C35.376 27.6549 35.536 27.4568 35.566 27.2586C35.676 26.5454 35.366 25.8322 35.246 25.119C35.066 24.0624 35.206 23.019 35.096 21.9624C35.006 21.0379 34.926 20.1002 35.386 19.1624C35.486 18.9643 35.256 18.7662 35.296 18.5681C35.456 17.8813 35.336 17.1813 35.496 16.4813C35.616 15.9926 35.806 15.4775 35.696 14.9888C35.366 13.5756 36.126 12.1492 35.756 10.7492C35.486 9.73223 35.926 8.72846 35.446 7.71148C35.226 7.23601 35.486 6.74733 35.566 6.25865C35.576 6.17941 35.766 6.10016 35.886 6.02092C36.096 5.88884 36.486 5.87563 36.816 5.98129C37.246 6.10016 37.646 6.21903 38.396 6.17941L38.506 6.17941L38.416 6.17941C38.416 6.1662 38.416 6.15299 38.406 6.13978C38.176 5.92847 39.046 6.06054 39.206 5.9945C39.586 5.84922 38.616 5.84922 38.626 5.73035C38.626 5.73035 38.646 5.70394 38.686 5.69073C39.726 5.58507 39.536 5.40016 39.336 5.20204C39.276 5.13601 39.466 5.08318 39.716 5.09639L39.686 5.09639ZM43.076 48.9322L43.026 48.9587L43.106 48.9587L43.076 48.9322ZM44.656 46.4624L44.696 46.4888L44.736 46.4624L44.656 46.4624ZM44.656 46.0926C44.656 46.0926 44.686 46.119 44.706 46.1322C44.736 46.1322 44.766 46.119 44.796 46.1058C44.796 46.0926 44.816 46.0794 44.796 46.0662C44.726 46.0398 44.666 46.053 44.656 46.0926ZM44.766 45.67L44.716 45.6964L44.796 45.6964L44.766 45.67ZM45.086 45.0756L44.976 45.0756C44.976 45.0756 44.666 45.1285 44.886 45.1813L45.006 45.102L45.096 45.0756L45.086 45.0756ZM44.866 44.6794C44.866 44.6794 44.796 44.719 44.756 44.7322C44.776 44.7587 44.806 44.7851 44.826 44.8115C44.866 44.7983 44.926 44.7719 44.926 44.7587C44.926 44.7322 44.886 44.7058 44.866 44.6794ZM42.476 22.1077L42.506 22.1341L42.556 22.1077L42.476 22.1077ZM42.526 20.1926C42.396 20.1926 42.326 20.2058 42.346 20.2454C42.346 20.2454 42.426 20.2587 42.466 20.2719C42.596 20.2719 42.666 20.2587 42.646 20.219C42.646 20.219 42.566 20.1926 42.526 20.1926ZM40.946 17.3266L40.926 17.353L41.046 17.353L40.946 17.3266ZM37.636 16.9171C37.636 16.9171 37.566 16.9039 37.536 16.8907C37.486 16.8907 37.436 16.8907 37.396 16.8907C37.416 16.8907 37.426 16.9171 37.466 16.9303C37.576 16.9568 37.656 16.9436 37.646 16.9171L37.636 16.9171ZM40.796 16.8511C40.796 16.8511 40.686 16.8511 40.656 16.8643C40.546 16.8907 40.576 16.9039 40.736 16.9039C40.776 16.9039 40.806 16.8907 40.836 16.8775C40.826 16.8775 40.806 16.8511 40.796 16.8379L40.796 16.8511ZM41.586 16.587L41.526 16.6134L41.616 16.6134L41.596 16.587L41.586 16.587ZM39.816 15.8209L39.836 15.8473L39.896 15.8209L39.816 15.8209ZM41.816 15.4775C41.816 15.4775 41.926 15.5171 42.006 15.5303C42.126 15.5568 42.246 15.5303 42.226 15.5171C42.226 15.4907 42.106 15.4775 42.046 15.4643C41.916 15.4511 41.806 15.4643 41.816 15.4907L41.816 15.4775ZM38.936 13.1134C38.776 13.1134 38.746 13.1398 38.866 13.1662C38.936 13.1794 39.046 13.2058 39.136 13.2058C39.286 13.2058 39.316 13.1794 39.206 13.153C39.136 13.1398 39.026 13.1266 38.936 13.1134ZM39.846 11.0794C39.846 11.0794 39.756 11.0794 39.706 11.0926C39.706 11.0926 39.666 11.119 39.686 11.119C39.726 11.119 39.796 11.119 39.826 11.119C39.946 11.1058 39.956 11.0794 39.846 11.0662L39.846 11.0794ZM40.086 10.7888L40.076 10.7888L40.186 10.7888L40.086 10.7888ZM38.866 6.45676C38.866 6.45676 38.946 6.49639 38.996 6.5228C39.086 6.54922 39.196 6.54922 39.216 6.5228C39.226 6.50959 39.146 6.48318 39.096 6.45676C39.006 6.43035 38.916 6.43035 38.866 6.45676Z" fill="#CCE2F7"/>
<path id="Vector_2" d="M40.0061 4.91149C40.0061 4.91149 40.1761 4.97753 40.3461 4.96432C40.4161 4.96432 40.4961 4.92469 40.4961 4.89828C40.4961 4.85865 40.3361 4.83224 40.1661 4.84545C40.0961 4.84545 40.0661 4.88507 40.0061 4.91149Z" fill="#CCE2F7"/>
<path id="Vector_3" d="M41.6258 7.93604C41.6258 7.93604 41.6558 7.90962 41.6758 7.90962C41.6358 7.90962 41.5858 7.90962 41.5658 7.90962C41.5358 7.90962 41.5258 7.92283 41.5158 7.93604C41.5558 7.93604 41.5858 7.93604 41.6258 7.93604Z" fill="#CCE2F7"/>
</g>
<g id="Group_2">
<path id="Vector_4" d="M8.41786 10.4586C8.72786 10.6303 9.23785 10.8549 9.17785 10.9473C9.10785 11.0398 9.17786 11.2115 9.15786 11.3171C9.13786 11.4228 9.07785 11.5152 9.03785 11.6209C9.38785 11.819 9.74786 11.9115 10.0679 12.1228C10.3379 12.3077 10.4379 12.4266 10.2679 12.4001C9.52786 12.2285 9.83786 12.6115 9.38786 12.5983C9.56786 12.7039 9.74785 12.8096 9.74785 12.8624C9.74785 12.8624 9.59785 12.8228 9.54785 12.7964C9.31785 12.6643 9.32785 12.6379 9.29785 12.5851C9.12786 12.4926 8.84786 12.3077 8.84786 12.3869C8.84786 12.4926 9.44785 12.8096 9.71785 13.0077C10.0379 13.2454 9.58785 13.0473 9.24785 12.8756L9.14785 12.8228L9.21785 12.8756C9.21785 12.8756 9.14785 12.9417 8.85785 12.836L8.76786 12.7832L8.83786 12.836C8.94786 13.153 9.11786 13.4832 9.70786 13.9851C9.93786 14.1832 9.97786 14.2888 9.87786 14.3417C9.76786 14.3945 9.48786 14.3152 8.94786 13.9983C8.80786 13.919 8.63786 13.7737 8.45786 13.7605C8.37786 13.7605 8.52785 13.9058 8.54785 13.919C9.42785 14.302 9.07785 14.3285 9.53785 14.5794C9.77785 14.7115 9.94785 14.8435 9.74785 14.8039C9.17785 14.6851 9.36786 14.936 9.19786 15.0152C9.14786 15.0417 9.01786 15.0152 8.80786 14.9492C8.70786 14.8964 8.85785 14.9096 8.60785 14.8171L8.78785 14.9492C8.61785 14.936 8.64785 15.002 8.85785 15.1473C9.11785 15.3322 9.24785 15.4643 8.67785 15.2662L8.35785 15.0549L8.26786 15.002L8.31786 15.0417L8.64785 15.253C8.84785 15.3983 8.99785 15.5303 8.60785 15.4379C8.27785 15.3586 7.87786 15.2398 7.69786 15.2266C7.33786 15.2266 7.72785 15.3322 8.03785 15.4115C8.15785 15.4907 8.39786 15.636 8.37786 15.6492C8.29786 15.7417 8.24785 15.8473 7.99785 15.8605C7.72785 15.8605 7.25785 15.5171 6.86785 15.3983C6.93785 15.5039 7.27785 15.6624 7.57785 15.8209C7.85785 15.9662 8.06786 16.0983 7.94786 16.0983C7.38786 16.1247 8.01786 16.6266 8.08786 16.9039C8.11786 17.036 8.48786 17.2869 8.23786 17.3001C8.06786 17.3134 8.21786 17.4322 8.58786 17.6303C8.99786 17.8549 9.75785 18.2247 8.54785 17.802C8.37785 17.7492 8.45785 17.8152 8.60785 17.8945C9.25785 18.2379 9.24786 18.3832 9.51786 18.6077C10.0479 19.0435 10.0179 19.0303 8.56786 18.4888C8.75786 18.7001 8.67786 18.8322 9.56786 19.2681C9.80786 19.3869 9.85786 19.4794 9.51786 19.3737C8.63786 19.1096 9.12786 19.4266 9.33786 19.5586C9.88786 19.8888 9.15786 19.7171 9.26786 19.8756C9.33786 19.9813 8.80785 19.7303 8.61785 19.6907C8.07785 19.5718 8.36785 19.7171 8.82785 19.9152C8.99785 19.9417 9.14785 19.9945 9.25785 20.0869C9.28785 20.1002 9.30786 20.1134 9.33786 20.1266L9.28785 20.1266C9.28785 20.1266 9.22786 20.0869 9.19786 20.0737L8.95786 19.9945C8.89786 20.0473 8.95786 20.153 9.16786 20.2983C9.19786 20.3115 9.26786 20.3511 9.26786 20.3511C9.24786 20.3511 9.18786 20.3379 9.12786 20.2851C8.83786 20.219 8.54786 20.1398 8.98786 20.3643C9.40786 20.5888 9.79785 20.8001 9.03785 20.6152L8.94786 20.5756L8.99785 20.6152C9.60785 21.0115 9.45786 21.1832 9.98786 21.553C10.2279 21.7247 10.0879 21.7115 9.35785 21.553C9.07785 21.4869 9.15785 21.553 9.21785 21.5926C9.73785 21.9228 10.0779 22.1869 9.38786 22.1209C9.32786 22.1209 9.29786 22.1341 9.31786 22.1473C10.6579 22.7417 9.95785 22.7417 10.1579 23.0058C10.2479 23.1115 10.3979 23.2964 9.49785 23.019C9.07785 22.8869 9.33785 23.019 9.47785 23.0851C10.0379 23.3624 9.98786 23.4813 10.0279 23.6266C10.1579 24.0888 10.1379 24.5115 10.0479 24.9077C10.0079 25.0794 10.3979 25.3832 9.71785 25.3568C9.67785 25.3568 9.40786 25.2643 9.48786 25.3303L9.73786 25.37C10.5179 25.819 10.0879 25.9379 9.86785 26.0964C9.63785 26.2681 9.74785 26.5322 9.64785 26.7303C9.52785 26.9549 9.77785 27.2719 9.42785 27.4435C9.25785 27.5228 9.05786 27.6285 9.55786 27.8926C9.91786 28.0775 9.39786 27.9851 9.05786 27.9586C9.24786 28.0247 9.44786 28.1039 9.45786 28.1435C9.45786 28.1435 9.29786 28.1303 9.23786 28.1171C8.96786 28.0379 8.96785 27.9983 8.90785 27.9454C8.39785 27.9851 9.33786 28.3285 9.37786 28.4869C9.41786 28.619 9.80786 28.8568 9.44786 28.87C8.99786 28.8832 10.0479 29.2266 9.39785 29.1737L9.30786 29.1341L9.37786 29.1605C9.27786 29.253 9.43786 29.4115 9.55786 29.5568C9.80786 29.8473 9.89786 30.1247 9.76786 30.336C9.61786 30.5737 9.25785 30.7851 9.99785 31.2077C10.1179 31.2737 10.2479 31.353 10.1779 31.3794C9.52785 31.6435 10.1679 32.1718 9.95786 32.5152C9.85786 32.6869 10.0979 32.9115 9.84786 33.0568L9.78785 33.0568L9.87786 33.0568C10.0879 33.1228 10.2779 33.1888 10.1979 33.202C9.57786 33.3341 9.99786 33.6643 9.77786 33.8624C9.46786 34.153 9.64785 34.5228 9.58785 34.853C9.53785 35.1435 9.35785 35.4341 9.85785 35.8039C9.94785 35.87 9.97785 35.936 9.83785 35.9624C9.16785 36.0813 9.71786 36.3851 9.55786 36.57C9.38786 36.7681 9.57785 37.0058 9.42785 37.2039C9.31785 37.3492 10.3779 37.6662 8.83785 37.6134C8.69785 37.6134 8.90785 37.6662 9.01785 37.6926C9.54452 37.8511 9.59119 37.97 9.15785 38.0492C9.09785 38.0492 8.99785 38.0492 9.07785 38.0888C10.1679 38.4851 9.81785 38.7624 9.74785 39.053C9.69785 39.2907 9.79785 39.5417 9.26785 39.7398C8.15785 40.1228 8.14786 40.6247 7.98786 41.1134C7.95786 41.219 7.90785 41.3115 7.58785 41.4039C6.80785 41.602 6.59786 41.8662 6.45786 42.1303C6.31786 42.3945 5.90785 42.6454 6.01785 42.9228C6.09785 43.1077 6.20785 43.2926 6.36785 43.4775C6.55785 43.702 5.92786 43.9134 4.81786 44.0058C4.10786 44.0586 3.58785 43.9662 3.37785 43.8737C2.73785 43.5964 1.93785 43.2926 2.29785 42.9888C2.54785 42.7775 2.61785 42.5662 2.65785 42.3549C2.71785 41.9586 2.69785 41.5492 2.85785 41.153C2.98785 40.836 2.63786 40.5058 2.52786 40.1756C2.38786 39.753 2.29785 39.3303 2.04785 38.8945C1.65785 38.1945 2.02785 37.5737 1.85785 36.9002C1.64785 36.0945 1.32785 35.2624 1.37785 34.47C1.40785 33.9549 1.65785 33.4662 1.12786 32.8718C1.09786 32.8322 1.10785 32.8058 1.12786 32.7794C1.43786 31.9605 1.00785 31.0228 1.26785 30.1907C1.40786 29.7549 1.30785 29.253 1.01785 28.7247C1.00785 28.6983 0.97785 28.6718 0.99785 28.6586C1.37785 28.2228 0.837853 27.5888 0.937853 27.0869C1.06785 26.4398 1.16786 25.7926 0.817858 25.0266C0.737858 24.8549 0.917852 24.7492 0.967852 24.6039C1.15785 24.102 0.927855 23.4945 0.907855 22.9266C0.867855 22.0945 1.12785 21.3549 1.17785 20.5492C1.21785 19.836 1.25785 19.1096 1.85785 18.5945C1.97785 18.4888 1.78785 18.2643 1.85785 18.1322C2.11785 17.6832 2.09786 17.1284 2.37786 16.6926C2.57786 16.3756 2.83786 16.0851 2.80786 15.6888C2.71786 14.5266 3.69786 13.8266 3.59786 12.6643C3.53786 11.8322 4.13786 11.2907 3.87786 10.3662C3.75786 9.93034 4.10785 9.6926 4.28785 9.38883C4.31785 9.336 4.50786 9.36241 4.63786 9.36241C4.85786 9.36241 5.22786 9.54732 5.51786 9.75864C5.89786 10.0492 6.25786 10.3002 6.95786 10.6171L7.05786 10.6832L6.97786 10.6303C6.97786 10.6303 6.97786 10.6171 6.97786 10.5907C6.80786 10.3398 7.58785 10.8284 7.75785 10.8681C8.13785 10.9473 7.22786 10.4851 7.26786 10.419C7.26786 10.419 7.29785 10.419 7.32785 10.419C8.31785 10.8417 8.17786 10.6171 8.02786 10.3926C7.97786 10.3266 8.16786 10.3662 8.40786 10.4983L8.41786 10.4586ZM7.03785 41.2058L6.98786 41.2058L7.06786 41.2322L7.03785 41.2058ZM8.66786 39.6605L8.70786 39.6869L8.74785 39.6869L8.66786 39.6605ZM8.68785 39.4096C8.68785 39.4096 8.71786 39.4228 8.73786 39.436L8.82785 39.436C8.82785 39.436 8.85785 39.4096 8.82785 39.3964C8.75785 39.37 8.69785 39.37 8.68785 39.3964L8.68785 39.4096ZM8.80786 39.1454L8.75785 39.1454L8.83785 39.1718L8.81786 39.1454L8.80786 39.1454ZM9.14785 38.7756L9.03785 38.7756C9.03785 38.7756 8.72785 38.7756 8.94785 38.8285L9.06786 38.7888L9.15785 38.7888L9.14785 38.7756ZM8.93785 38.4851L8.82785 38.5115L8.89785 38.5643C8.89785 38.5643 8.99785 38.5511 8.99785 38.5379C8.99785 38.5247 8.95785 38.4983 8.93785 38.4851ZM8.38786 22.9398L8.40785 22.9662L8.45786 22.9662L8.38786 22.9398ZM8.68785 21.6851C8.55785 21.6322 8.48785 21.6322 8.50785 21.6586C8.50785 21.6586 8.57785 21.6983 8.61785 21.7115C8.74785 21.7511 8.81785 21.7643 8.79785 21.7379C8.79785 21.7379 8.72785 21.6983 8.68785 21.6851ZM7.54785 19.2152L7.52786 19.2152L7.63786 19.2549L7.54785 19.2152ZM4.42785 17.736C4.42785 17.736 4.36786 17.6964 4.33786 17.6832L4.19786 17.6435C4.19786 17.6435 4.22785 17.67 4.25785 17.6964C4.36785 17.7624 4.43785 17.7756 4.43785 17.7492L4.42785 17.736ZM7.47785 18.8322C7.47785 18.8322 7.37786 18.8058 7.33786 18.7926C7.22786 18.7662 7.25785 18.7926 7.40786 18.8454C7.43786 18.8454 7.47785 18.8586 7.50785 18.8718L7.47785 18.8322ZM8.27786 18.9511L8.21785 18.9511L8.29785 18.9775L8.27786 18.9511ZM6.69786 17.7756L6.69786 17.802L6.76786 17.802L6.69786 17.7756ZM8.65786 18.2907C8.65786 18.2907 8.75785 18.3568 8.82785 18.3964C8.93785 18.4492 9.04785 18.4888 9.04785 18.4624C9.04785 18.4492 8.93786 18.3964 8.87786 18.3568C8.75786 18.3039 8.64786 18.2643 8.65786 18.2907ZM6.27786 15.57C6.12786 15.5171 6.09786 15.5171 6.20786 15.57C6.27786 15.6096 6.36786 15.6624 6.45786 15.702C6.59786 15.7549 6.63785 15.7549 6.53785 15.702C6.46785 15.6624 6.36785 15.6096 6.28785 15.57L6.27786 15.57ZM7.47786 14.553C7.47786 14.553 7.38786 14.5266 7.34786 14.5134C7.34786 14.5134 7.30786 14.5134 7.31786 14.5134C7.34786 14.5266 7.41786 14.5662 7.44786 14.5794C7.56786 14.619 7.57785 14.6058 7.47786 14.553ZM7.76786 14.4605L7.75785 14.4605L7.86785 14.5134L7.77786 14.4605L7.76786 14.4605ZM7.39785 11.0001C7.39785 11.0001 7.45785 11.0662 7.50785 11.1058C7.58785 11.1718 7.69785 11.2115 7.71785 11.1983C7.72785 11.1983 7.66785 11.1322 7.61785 11.0926C7.53785 11.0266 7.45785 11.0001 7.39785 10.9869L7.39785 11.0001Z" fill="#CCE2F7"/>
<path id="Vector_5" d="M8.75703 10.4851C8.75703 10.4851 8.89703 10.604 9.05703 10.6832C9.12703 10.7097 9.20703 10.7229 9.20703 10.7097C9.20703 10.67 9.06703 10.5908 8.90703 10.5115C8.83703 10.4851 8.79702 10.4851 8.74702 10.4719L8.75703 10.4851Z" fill="#CCE2F7"/>
<path id="Vector_6" d="M9.70782 13.2322L9.75781 13.2322C9.75781 13.2322 9.66781 13.1926 9.65781 13.1793C9.62781 13.1793 9.61781 13.1793 9.60781 13.1793L9.70782 13.2322Z" fill="#CCE2F7"/>
</g>
<g id="Group_3">
<path id="Vector_7" d="M71.3472 1.17367C71.5472 0.94914 71.8472 0.539707 71.8972 0.658575C71.9472 0.777442 72.0772 0.803857 72.1472 0.89631C72.2172 0.975557 72.2572 1.09442 72.3172 1.20008C72.5572 0.94914 72.7172 0.63216 72.9572 0.420839C73.1572 0.249139 73.2772 0.222725 73.2072 0.368007C72.8772 1.04159 73.2372 0.949142 73.0972 1.3982C73.2272 1.27933 73.3472 1.14725 73.3872 1.17367C73.3872 1.17367 73.3072 1.30575 73.2772 1.34537C73.1172 1.51707 73.0972 1.47744 73.0572 1.47744C72.9472 1.59631 72.7372 1.78122 72.7872 1.83405C72.8572 1.90008 73.2572 1.45103 73.4672 1.29254C73.7272 1.09442 73.4572 1.43782 73.2372 1.70197L73.1672 1.76801L73.2272 1.72839C73.2272 1.72839 73.2572 1.83405 73.0872 2.07178L73.0272 2.12461L73.0772 2.08499C73.3172 2.15103 73.6072 2.17745 74.1272 1.87367C74.3272 1.7548 74.4172 1.78122 74.4172 1.91329C74.4172 2.05858 74.2772 2.29631 73.8972 2.66612C73.7972 2.75858 73.6472 2.85103 73.5872 3.02273C73.5572 3.10197 73.7072 3.03593 73.7272 3.02273C74.2572 2.34914 74.1672 2.71895 74.4872 2.40197C74.6572 2.23027 74.7972 2.15103 74.7072 2.32273C74.4572 2.83782 74.6872 2.78499 74.6872 3.00952C74.6872 3.07555 74.6272 3.19443 74.5172 3.35292C74.4472 3.41895 74.5072 3.27367 74.3672 3.47178L74.5072 3.36612C74.4472 3.52461 74.5072 3.53782 74.6672 3.41895C74.8772 3.27367 75.0072 3.22084 74.6972 3.6831L74.4572 3.88121L74.3972 3.93405L74.4372 3.90763L74.6772 3.69631C74.8372 3.59065 74.9772 3.5114 74.7872 3.84159C74.6272 4.11895 74.4172 4.46235 74.3572 4.63405C74.2372 4.99065 74.4372 4.66046 74.5872 4.39631C74.6872 4.33028 74.8472 4.17178 74.8572 4.1982C74.8972 4.33027 74.9472 4.44914 74.8772 4.71329C74.7972 4.99065 74.4072 5.2548 74.1972 5.57178C74.2872 5.57178 74.5072 5.32084 74.7072 5.10952C74.8972 4.9114 75.0472 4.77933 75.0172 4.91141C74.8572 5.49254 75.3972 5.16235 75.6072 5.2548C75.7072 5.29442 75.9972 5.09631 75.9272 5.34725C75.8772 5.51895 76.0072 5.45291 76.2672 5.20197C76.5572 4.92461 77.0572 4.40952 76.3772 5.34725C76.2772 5.47933 76.3572 5.45291 76.4572 5.34725C76.9072 4.9114 77.0072 5.01707 77.2472 4.88499C77.7272 4.63405 77.7072 4.66046 76.8472 5.75669C77.0572 5.70386 77.1272 5.86235 77.7172 5.2548C77.8772 5.0831 77.9572 5.09631 77.7772 5.37367C77.2972 6.08688 77.6872 5.79631 77.8472 5.67744C78.2672 5.34725 77.8972 5.9548 78.0372 5.94159C78.1272 5.94159 77.7772 6.31141 77.6872 6.4699C77.4172 6.91895 77.6172 6.73405 77.9072 6.40386C77.9872 6.24537 78.0772 6.13971 78.1672 6.08688C78.1872 6.07367 78.2072 6.06047 78.2272 6.04726L78.1972 6.08688C78.1972 6.08688 78.1572 6.1265 78.1372 6.13971L78.0072 6.32461C78.0272 6.43028 78.1172 6.41706 78.2872 6.3114C78.3072 6.28499 78.3572 6.24537 78.3572 6.24537C78.3572 6.27178 78.3172 6.31141 78.2672 6.33782C78.1172 6.57556 77.9672 6.81329 78.2672 6.52272C78.5672 6.24537 78.8472 6.00763 78.4572 6.64159L78.3972 6.69442L78.4372 6.66801C78.9172 6.32461 78.9872 6.58876 79.4372 6.3114C79.6372 6.17933 79.5772 6.31141 79.2072 6.93216C79.0672 7.1699 79.1372 7.13027 79.1872 7.10386C79.5972 6.81329 79.8972 6.6548 79.6172 7.28877C79.5972 7.3416 79.5972 7.39443 79.6172 7.36801C80.5072 6.45669 80.2572 7.14348 80.5072 7.11707C80.6172 7.11707 80.7872 7.07745 80.2772 7.76424C80.0372 8.08122 80.2172 7.92273 80.3172 7.83028C80.7172 7.48688 80.7772 7.59254 80.8872 7.65858C81.2572 7.85669 81.5372 8.16046 81.7872 8.51707C81.8972 8.67556 82.2472 8.51707 81.9772 9.15103C81.9672 9.19065 81.7972 9.37556 81.8672 9.34914L81.9972 9.13783C82.5972 8.70198 82.5172 9.19065 82.5472 9.50763C82.5772 9.83782 82.7972 9.91707 82.8972 10.1548C83.0072 10.419 83.3272 10.4057 83.2972 10.8548C83.2872 11.0793 83.2772 11.3303 83.6672 11.0397C83.9472 10.8284 83.6672 11.251 83.5072 11.5416C83.6272 11.4095 83.7572 11.2774 83.7972 11.3039C83.7972 11.3039 83.7272 11.4359 83.6872 11.4888C83.5272 11.6869 83.4972 11.6605 83.4372 11.6737C83.2572 12.1756 83.8672 11.5548 83.9972 11.6208C84.0972 11.6737 84.4272 11.4888 84.2872 11.8322C84.1072 12.2548 84.7772 11.5284 84.4772 12.0831L84.4172 12.1359L84.4672 12.0963C84.4972 12.2548 84.6572 12.2152 84.8172 12.2152C85.1272 12.202 85.3472 12.3076 85.4472 12.585C85.5572 12.8888 85.5372 13.3642 86.1372 13.0076C86.2272 12.9548 86.3472 12.8888 86.3372 12.968C86.2372 13.7473 86.8772 13.5491 87.0272 13.9982C87.0972 14.2095 87.3572 14.1699 87.3472 14.5001L87.3272 14.5661L87.3672 14.4869C87.4972 14.3416 87.6372 14.2227 87.6072 14.3152C87.4272 14.9624 87.8372 14.8303 87.8772 15.1737C87.9372 15.6624 88.2772 15.7812 88.4772 16.0718C88.6572 16.3359 88.7672 16.7057 89.2472 16.5473C89.3272 16.5208 89.3972 16.5473 89.3472 16.6793C89.1172 17.3397 89.5772 17.0888 89.6272 17.3793C89.6772 17.6699 89.9272 17.6963 89.9972 17.9737C90.0472 18.1718 90.7672 17.5246 89.9972 18.7793C89.9272 18.8982 90.0672 18.7529 90.1372 18.6869C90.4972 18.3611 90.6005 18.4139 90.4472 18.8454C90.4472 18.8454 90.3772 18.9774 90.4272 18.9378C91.2172 18.3171 91.2372 18.8322 91.3972 19.1095C91.5272 19.3341 91.7572 19.4397 91.6172 20.0341C91.3272 21.2359 91.6472 21.6322 91.8872 22.1341C91.9372 22.2397 91.9772 22.3586 91.8672 22.6756C91.6072 23.4548 91.6672 23.8114 91.7672 24.1416C91.8572 24.4586 91.8172 24.9737 92.0472 25.0925C92.1972 25.1718 92.3772 25.2114 92.5772 25.2246C92.8172 25.2378 92.6272 25.8982 92.0972 26.8359C91.7572 27.4303 91.4272 27.7737 91.2572 27.8661C90.7472 28.1567 90.1472 28.5793 90.1472 28.0774C90.1472 27.7341 90.0572 27.5227 89.9472 27.3378C89.7372 26.9944 89.4772 26.7303 89.3172 26.3208C89.1872 25.9907 88.8072 26.0303 88.5472 25.885C88.2172 25.7001 87.9072 25.4756 87.5172 25.3699C86.8872 25.2114 86.6972 24.4586 86.1872 24.1284C85.5772 23.7454 84.9172 23.4416 84.4472 22.8737C84.1372 22.5039 83.9472 21.9624 83.3372 22.0152C83.2972 22.0152 83.2872 21.9888 83.2772 21.9491C82.9072 21.1435 82.1272 20.8925 81.7172 20.1265C81.4972 19.7171 81.1372 19.4793 80.6872 19.4001C80.6672 19.4001 80.6372 19.4001 80.6372 19.3737C80.5272 18.7529 79.8972 18.8322 79.6272 18.4227C79.2772 17.8944 78.9072 17.3925 78.2772 17.2473C78.1372 17.2076 78.1372 16.9831 78.0772 16.851C77.8372 16.3624 77.3572 16.1907 76.9972 15.8737C76.4572 15.3982 76.0872 14.7114 75.5872 14.1963C75.1472 13.734 74.7072 13.2586 74.5872 12.3869C74.5672 12.202 74.3472 12.2548 74.2872 12.1095C74.0872 11.5944 73.7372 11.2907 73.5472 10.7624C73.4172 10.3925 73.3172 9.9699 73.0472 9.77179C72.2772 9.19065 72.1272 7.83028 71.3472 7.27556C70.7772 6.87933 70.6172 5.98122 69.9372 5.73027C69.6172 5.61141 69.5672 5.13593 69.4272 4.79254C69.4072 4.73971 69.4772 4.5548 69.5172 4.42272C69.5872 4.1982 69.8172 3.90763 70.0472 3.73593C70.3472 3.51141 70.6272 3.28688 71.0472 2.73216L71.1172 2.66612L71.0572 2.71895C71.0572 2.71895 71.0572 2.70574 71.0372 2.70574C70.8172 2.74537 71.3772 2.20386 71.4472 2.05858C71.6072 1.70197 71.0372 2.38876 70.9972 2.30952C70.9972 2.30952 70.9972 2.2699 71.0172 2.24348C71.5872 1.45103 71.3972 1.47744 71.1972 1.50386C71.1372 1.50386 71.2172 1.34537 71.3772 1.17367L71.3472 1.17367ZM91.4572 23.0454L91.4372 23.0982L91.4872 23.0322L91.4572 23.0322L91.4572 23.0454ZM91.2472 20.5359L91.2772 20.5359L91.2872 20.4699L91.2472 20.5359ZM91.0872 20.3246C91.0872 20.3246 91.1172 20.3246 91.1272 20.3114L91.1672 20.2322C91.1672 20.2322 91.1672 20.1925 91.1472 20.219C91.0972 20.2586 91.0672 20.3114 91.0872 20.3378L91.0872 20.3246ZM90.9772 20.0208L90.9572 20.0737L90.9972 20.0208L90.9672 20.0208L90.9772 20.0208ZM90.8972 19.4661L90.8372 19.5586C90.8372 19.5586 90.6872 19.8095 90.8272 19.6774L90.8572 19.5454L90.8972 19.4661ZM90.6072 19.4265L90.5672 19.5454L90.6372 19.5454C90.6372 19.5454 90.6772 19.4397 90.6672 19.4265C90.6672 19.4133 90.6272 19.4265 90.5972 19.4265L90.6072 19.4265ZM79.8472 8.86046L79.8772 8.86046L79.8972 8.80764L79.8572 8.86046L79.8472 8.86046ZM79.0872 7.75103C79.0072 7.84348 78.9772 7.90952 79.0072 7.90952C79.0072 7.90952 79.0572 7.85669 79.0872 7.83027C79.1672 7.73782 79.1972 7.67179 79.1672 7.67179C79.1672 7.67179 79.1172 7.71141 79.0872 7.75103ZM77.0072 7.27556L77.0072 7.30197L77.0672 7.20952L77.0072 7.27556ZM74.9372 9.42839C74.9372 9.42839 74.8872 9.46801 74.8672 9.48122L74.7872 9.58688C74.7872 9.58688 74.8172 9.58688 74.8372 9.56046C74.9172 9.49443 74.9472 9.4416 74.9372 9.41518L74.9372 9.42839ZM76.7272 7.11707C76.7272 7.11707 76.6672 7.19631 76.6572 7.22273C76.6072 7.31518 76.6272 7.30197 76.7172 7.19631C76.7372 7.1699 76.7472 7.14348 76.7672 7.10386L76.7272 7.10386L76.7272 7.11707ZM77.0872 6.40386L77.0572 6.45669L77.1072 6.40386L77.0772 6.40386L77.0872 6.40386ZM75.7472 7.23594L75.7672 7.23594L75.7872 7.1831L75.7372 7.23594L75.7472 7.23594ZM76.7572 5.5982C76.7572 5.5982 76.8372 5.54537 76.8872 5.49254C76.9572 5.4265 77.0272 5.33405 77.0072 5.32084C76.9972 5.32084 76.9272 5.38688 76.8772 5.4265C76.7972 5.50575 76.7372 5.5982 76.7572 5.5982ZM74.1372 6.32461C74.0472 6.44348 74.0372 6.46989 74.1172 6.40386C74.1672 6.36423 74.2372 6.2982 74.2872 6.23216C74.3772 6.1265 74.3872 6.08688 74.3072 6.15291C74.2572 6.19254 74.1972 6.27178 74.1372 6.32461ZM73.8472 4.50197C73.8472 4.50197 73.7972 4.56801 73.7772 4.60763C73.7772 4.60763 73.7672 4.64725 73.7772 4.64725C73.7972 4.62084 73.8472 4.58122 73.8672 4.5548C73.9272 4.46235 73.9272 4.43594 73.8572 4.51518L73.8472 4.50197ZM71.4172 2.53405C71.4172 2.53405 71.4772 2.50763 71.5172 2.48122C71.5772 2.42839 71.6472 2.34914 71.6472 2.32273C71.6472 2.30952 71.5872 2.34914 71.5472 2.37555C71.4872 2.42838 71.4372 2.48122 71.4172 2.54725L71.4172 2.53405Z" fill="#CCE2F7"/>
<path id="Vector_8" d="M71.4563 0.830322C71.4563 0.830322 71.5763 0.751077 71.6763 0.619002C71.7163 0.566172 71.7463 0.486923 71.7363 0.486923C71.7163 0.460508 71.6163 0.56617 71.5263 0.685038C71.4863 0.737869 71.4763 0.777492 71.4563 0.830322Z" fill="#CCE2F7"/>
<path id="Vector_9" d="M73.6167 1.43787L73.6367 1.38504C73.6367 1.38504 73.5767 1.45107 73.5667 1.45107C73.5567 1.47749 73.5567 1.4907 73.5467 1.50391L73.6167 1.43787Z" fill="#CCE2F7"/>
</g>
</g>
<defs>
<clipPath id="clip0_6278_3917">
<rect width="91.84" height="52.8962" fill="white" transform="translate(92.6562 53.0662) rotate(-180)"/>
</clipPath>
</defs>
</svg>
