<svg width="56" height="94" viewBox="0 0 56 94" fill="none" xmlns="http://www.w3.org/2000/svg">
<g id="Clip path group">
<mask id="mask0_6460_17524" style="mask-type:luminance" maskUnits="userSpaceOnUse" x="0" y="0" width="56" height="94">
<g id="clip0_6237_5963">
<path id="Vector" d="M34.7301 93.2467L55.3398 8.26392L21.2641 -1.02324e-05L0.654396 84.9828L34.7301 93.2467Z" fill="white"/>
</g>
</mask>
<g mask="url(#mask0_6460_17524)">
<g id="Group">
<path id="Vector_2" d="M26.9334 85.1026C26.8618 85.2688 26.771 85.1766 26.7113 85.0526C26.6693 84.9684 26.6364 84.8629 26.6007 84.7685L26.4651 84.5872L26.6241 84.4305C26.6956 83.9913 26.6905 83.9313 26.5879 83.9844C26.4952 84.0284 26.3673 84.1536 26.366 83.9659C26.3625 83.208 25.9699 82.7183 25.9747 81.9585L26.2312 82.2043L26.263 82.2665L26.2439 82.1838C26.1964 81.9616 26.1848 81.6232 25.968 81.9217C25.7686 81.9555 25.6818 81.7822 25.6812 81.4465C25.6151 81.3327 25.6328 81.2276 25.7002 81.1271C25.7252 80.3798 25.4392 79.6117 25.8049 78.8926C25.8358 78.8296 25.8161 78.6532 25.7942 78.5504C25.6502 77.8244 25.7012 77.0992 25.8094 76.3956C25.983 75.3096 25.9117 74.2035 25.8975 73.1032C25.8794 72.615 25.9185 72.2926 26.2609 72.442C26.3771 72.4936 26.514 72.4606 26.4501 72.1443C26.4234 72.013 26.4727 71.6971 26.2574 71.8283C26.0651 71.9455 25.9065 71.6341 25.9248 71.3652C25.9655 70.7469 25.873 70.1464 25.8356 69.5445C25.7991 68.9228 25.9215 68.8041 26.3368 68.8617C26.4279 68.8723 26.518 68.8549 26.6716 68.8492C26.4635 68.3072 26.2835 67.8262 26.0869 67.3494C26.1056 67.5136 26.1123 67.6794 26.1438 67.8391C26.1764 68.0268 26.303 68.2446 26.1881 68.3807C26.1114 68.4714 25.9595 68.4543 25.8596 68.383C25.7136 68.2776 25.6611 68.0109 25.6804 67.7541C25.7086 67.445 25.8457 67.3141 26.0024 67.2311C25.7246 66.719 25.6039 66.1705 25.5603 65.465C25.4916 64.5899 25.4201 63.7099 25.3275 62.8367C25.2118 61.9617 25.0713 61.0923 24.8656 60.2343C24.6917 59.5678 24.7463 59.4874 25.2737 59.3888L25.3255 59.4328L25.281 59.3752C25.2817 59.0823 25.3742 58.6366 25.0279 58.8415C24.764 58.9958 24.5686 58.8198 24.5746 58.3605C24.5882 57.548 24.2622 56.8486 24.1134 56.0941C24.0171 55.6223 23.7739 55.1766 24.0203 54.7718C24.0985 54.6425 23.998 54.4779 23.9226 54.3542C23.4535 53.5846 23.3848 52.7092 23.3198 51.8349C23.2994 51.5488 23.2856 51.2996 23.1411 51.0265C22.7736 50.3206 22.6083 49.4414 22.4827 48.72C22.3183 47.7239 22.0226 46.7547 21.7463 45.786C21.4762 44.807 21.1933 43.9463 20.9259 43.0853C20.7801 42.6244 20.504 42.2178 20.2438 41.8582C19.9754 41.5002 19.7304 41.191 19.5804 40.7954C19.2 40.6095 18.9053 40.4248 18.5831 40.2727C18.5046 40.2264 18.4216 40.1984 18.3349 40.1695C18.2491 40.1369 18.1633 40.1047 18.0732 40.1062C17.8946 40.0861 17.7094 40.0451 17.5443 40.1145C17.4772 40.1331 17.4028 40.1506 17.3239 40.1703C17.2487 40.2067 17.1753 40.2355 17.0944 40.2473C16.9343 40.2477 16.7781 40.2644 16.5873 40.0853C16.5003 40.0095 16.4111 40.0231 16.3509 40.0944C16.2907 40.1657 16.2555 40.2625 16.242 40.3019C16.1547 40.5815 16.0277 40.8318 15.8378 41.0355C15.754 41.1557 15.6526 41.2676 15.5476 41.3788C15.4454 41.4945 15.3498 41.6314 15.2494 41.7554C15.088 41.9542 14.9695 41.9762 14.8291 41.8954C14.8957 41.6853 14.9882 41.4967 14.7755 41.4725C14.7313 41.4618 14.6061 41.5916 14.5782 41.6746C14.4309 42.0562 14.7412 41.8233 14.8199 41.9011C14.7303 42.2383 14.5406 42.6021 14.5412 42.9537C14.5619 43.2863 14.1227 43.2306 14.1853 43.4877C14.2748 43.7946 14.1902 44.0628 14.1197 44.3696C14.0956 44.469 14.0742 44.5733 14.0404 44.7288C13.7398 44.7615 13.5609 44.4527 13.3066 44.3909L13.2823 44.3306L13.3002 44.4011C13.2142 44.5949 12.9559 44.6298 12.9873 44.903C13.0278 45.299 13.2034 44.8969 13.3139 44.9079C13.6076 44.9363 13.594 45.4913 13.86 45.5049C13.7471 46.0667 13.4653 45.7644 13.3106 45.9999L13.33 46.1452L13.2486 46.0784C13.2251 46.1433 13.1901 46.2711 13.1901 46.2711C13.6107 46.5488 13.7134 46.8977 13.7611 47.3935C13.8021 47.8676 13.7609 48.4082 13.8323 48.8861C13.5207 49.0602 13.4585 48.448 13.2451 48.4586C13.1817 48.4628 13.0798 48.4965 13.0728 48.5572C13.0538 48.7325 13.1502 48.6892 13.2082 48.7074C13.5171 48.8019 13.1329 49.372 13.4449 49.518C13.6387 49.6041 13.8719 49.6724 13.9924 50.0604C13.922 50.3832 13.5092 49.8966 13.5686 50.5042C13.4678 50.5501 13.3838 50.6389 13.3379 50.7955C13.2388 50.9628 13.2786 51.121 13.4075 51.2651C13.5255 51.696 13.5292 51.6968 13.8228 51.7093C13.6698 51.5359 13.5446 51.3922 13.4157 51.2477L13.3639 50.8175L13.5835 50.5236C13.7331 50.4701 13.9194 50.5387 13.9633 50.7599C14.0647 51.3076 14.3831 51.7165 14.4724 52.2494C14.6128 53.1033 14.8636 53.8391 15.1981 54.3106C15.2826 54.429 15.2996 54.4874 15.1956 54.6106C15.0414 54.7957 15.0805 54.8598 15.2461 54.853C15.5431 54.8356 15.6743 54.7775 15.7113 55.0753C15.7331 55.1625 15.7807 55.1273 15.8275 55.1113C16.0558 55.0066 16.1508 55.0336 16.343 55.0294C16.5224 55.0302 16.7719 55.0476 17.022 54.9012C17.0697 54.8818 17.1685 54.9251 17.2485 54.9331C17.3516 54.9422 17.3007 55.1523 17.471 55.0453C17.5031 55.026 17.3626 54.9293 17.2604 54.9164C17.2967 54.847 17.3162 54.7502 17.3703 54.7203C17.8211 54.4551 18.2746 54.0656 18.6975 53.6256C18.9103 53.4078 19.1156 53.1727 19.3127 52.9394C19.415 52.8237 19.5042 52.697 19.6064 52.5813L19.9209 52.1698C20.2801 51.7025 20.6403 51.2473 20.933 50.7485C21.2359 50.2562 21.5204 49.7593 21.7382 49.2149C21.9083 48.8034 22.0933 48.2978 22.517 48.3695L22.5331 48.4317L22.539 48.3592C22.6768 48.0645 22.6176 47.7614 22.931 47.4512C23.1951 47.1989 23.2774 46.7308 23.3574 46.3367C23.416 46.0466 23.4995 45.7507 23.6005 45.4628C23.8154 44.7539 23.8228 44.7558 24.3144 44.9333C24.3501 45.1723 24.1802 45.5994 24.4734 45.6942C24.459 45.3509 24.458 45.0816 24.34 44.9083C24.2817 44.6014 24.328 44.2653 24.3992 43.9236C24.4668 43.5811 24.5729 43.2397 24.6646 42.9419C24.8179 42.4875 24.8751 41.9936 24.9904 41.5184C25.1094 41.0435 25.2432 40.5727 25.5115 40.1418C25.6717 39.4978 25.794 38.8484 25.9173 38.1952C25.9165 37.5549 26.181 36.9633 26.3351 36.3762C26.4584 35.8675 26.7823 36.1256 26.9935 36.3329L27.0205 36.3824L27.0099 36.3135C26.9883 36.1287 26.9769 35.9347 26.8512 35.8574C26.5583 35.681 26.2508 35.5166 26.7152 34.8408C26.7462 34.7937 26.7766 34.6684 26.768 34.6233C26.618 34.0991 26.6961 33.5677 26.7954 33.0297C26.8827 32.4928 26.9837 31.9474 26.911 31.4263C26.9004 31.3574 26.9109 31.2662 26.9278 31.1962C27.0108 30.8221 27.2341 30.2713 27.1612 30.1053C26.988 29.6769 27.1385 29.2333 27.0557 28.8502C26.9873 28.537 27.0606 28.2347 27.1183 27.9326C27.1686 27.6286 27.2078 27.322 27.0859 27.0036C27.0326 26.8697 27.179 26.7647 27.2736 26.7447C27.3939 26.7153 27.5003 26.7919 27.6005 26.9098C27.6979 27.0232 27.8232 27.1824 27.8623 26.8601C27.8823 26.6972 27.8067 26.5422 27.6617 26.4641C27.1677 26.1999 26.9866 25.8359 27.0232 24.8964C27.0439 24.4408 27.0297 23.9846 27.0228 23.5302C27.0159 23.0758 26.9815 22.6224 26.9157 22.1694C26.8353 21.5996 27.0835 21.3006 27.1291 20.8551L27.1461 20.785L27.1114 20.8313C26.9336 20.9208 26.7783 20.8207 26.7089 20.4955C26.6575 20.2567 26.7608 20.1529 26.8969 20.1547L26.9423 20.193L26.9014 20.1363C26.9179 19.7461 27.3023 20.1086 27.2694 19.6167C27.3079 19.6026 27.3521 19.5977 27.3926 19.6075L27.4353 19.6569L27.3989 19.5817C27.3803 19.5616 27.3617 19.5259 27.3488 19.5306C27.3149 19.5418 27.2875 19.5742 27.2591 19.5947C27.2141 19.6033 27.1656 19.6422 27.125 19.6168C26.5965 19.3013 26.5823 19.2471 27.0139 18.4814C26.543 18.6208 26.2986 18.1479 26.3462 17.5974C26.3893 17.0497 26.272 16.4709 26.1751 15.9049C26.07 15.3408 26.0053 14.7865 26.1663 14.2674C26.0224 13.686 25.9447 13.1052 25.8707 12.5252C25.7848 11.9462 25.7181 11.368 25.6045 10.7901C25.3178 9.39745 25.055 8.00277 24.6368 6.62113C24.0544 4.66104 23.4747 2.68993 23.3705 0.689697C23.8313 0.80145 24.1394 1.31723 24.3872 1.88863C24.8624 3.00307 25.4019 4.09405 25.7185 5.28319C25.7656 5.44295 25.811 5.6257 25.8846 5.75672C26.8345 7.39223 27.2215 9.3049 27.6071 11.1431C28.0604 13.3295 28.5229 15.5102 28.8989 17.6935C29.3953 20.6358 29.5167 23.6276 29.7004 26.5878C29.8423 28.7064 29.5932 30.8278 29.6118 32.94C29.6272 33.3106 29.5398 33.7031 29.4901 34.0853C29.1077 36.8691 28.6682 39.6468 27.9321 42.376C27.8443 42.706 27.7408 43.0364 27.63 43.3645C26.727 45.9127 25.7549 48.4404 24.4885 50.846C24.152 51.5253 23.737 52.1584 23.3413 52.8082C23.1421 53.1306 22.9189 53.4393 22.7095 53.7553L22.3918 54.2287L22.2325 54.4673L22.0512 54.7161C21.3577 55.6602 20.545 56.5167 19.5207 57.248C19.0006 57.6061 18.427 57.9273 17.7552 58.1549C17.0916 58.3802 16.2994 58.4925 15.5008 58.3575C15.0504 58.2835 14.6068 58.1329 14.2116 57.9277C13.8072 57.7282 13.4345 57.4464 13.1223 57.1406C12.4914 56.5231 12.1056 55.8127 11.8138 55.1489C11.5267 54.4821 11.339 53.8236 11.1774 53.2186C11.013 52.6086 10.8661 51.9915 10.7348 51.3744C10.4352 49.9865 10.3882 48.5386 10.3221 47.1215C10.2987 46.7995 10.3244 46.4039 10.3329 46.0466C10.3699 45.6851 10.4024 45.3259 10.4578 44.9686C10.5752 44.2593 10.7183 43.5564 10.8882 42.8558C10.9815 42.3908 11.1806 41.9238 11.3798 41.4725C11.9347 40.3114 12.6285 39.1564 13.7181 38.1562C13.857 38.0336 13.9895 37.9058 14.1387 37.7897L14.6166 37.4607C14.9222 37.2304 15.3186 37.0767 15.6808 36.903C15.866 36.8152 16.0745 36.776 16.2728 36.7149C16.4758 36.6665 16.6768 36.5942 16.8845 36.5744C17.0932 36.5508 17.301 36.531 17.5115 36.5157L17.8242 36.4978L18.1307 36.5214C19.467 36.5801 20.8179 37.1575 21.7796 37.9877C22.767 38.809 23.4251 39.7648 23.9616 40.6911C24.6722 41.9292 25.1118 43.2067 25.4606 44.4076C25.7909 45.5724 26.122 46.7339 26.4531 47.8953C27.4311 51.2981 28.0986 54.7737 28.6697 58.2607C28.7485 58.7406 28.8347 59.2219 28.9255 59.7006L29.1647 61.1443C29.3297 62.1054 29.4506 63.0715 29.5025 64.0327C29.6501 66.8358 30.0287 69.6363 29.9039 72.4356C29.8563 73.6456 29.8845 74.8977 29.884 76.1232C29.877 77.3586 29.7216 78.5466 29.6622 79.7733C29.6214 81.0357 29.4196 82.2866 29.2775 83.5323C29.2107 83.9844 29.2402 84.6357 28.7968 84.5162C28.7373 84.6972 28.6855 84.9111 28.5421 84.7943C28.4801 84.7442 28.4635 84.6035 28.4975 84.4791C28.555 84.2742 28.6578 84.3656 28.7405 84.3622C28.9526 83.5198 28.9265 83.3381 28.5207 83.0638C28.2286 82.8681 27.8919 82.8723 27.6247 82.5578L27.5922 82.5146L27.6111 82.5817C27.3595 83.2975 27.3322 84.3914 26.6876 84.5553C26.6742 84.6107 26.6727 84.6649 26.6712 84.7192C26.7376 84.7351 26.8066 84.74 26.8676 84.7783C26.96 84.8322 27.0207 84.9676 26.951 85.1265L26.9334 85.1026ZM26.358 12.2218L26.3289 12.1484L26.3239 12.2175L26.3571 12.2255L26.358 12.2218ZM26.8518 15.4484L26.854 15.3748L26.8218 15.3787L26.8518 15.4484ZM26.6198 16.4694L26.5953 16.3932L26.5792 16.4596L26.6198 16.4694ZM26.8673 17.6535C26.9096 17.6403 26.9537 17.6354 27.0006 17.6351L27.0452 17.6927L27.0078 17.6212C26.9884 17.6048 26.9661 17.5682 26.9495 17.572C26.9156 17.5832 26.8854 17.611 26.8562 17.6352L26.8365 17.7163L26.8673 17.6535ZM28.5899 19.9174C28.6015 19.8695 28.5843 19.7794 28.5773 19.7114C28.5309 19.7743 28.4751 19.8271 28.4407 19.9047C28.4235 19.9434 28.4407 20.0335 28.4429 20.0887C28.5371 20.1349 28.5638 20.0087 28.5899 19.9174ZM27.46 21.47L27.4632 21.4084L27.4192 21.4289L27.46 21.47ZM27.6213 23.2031C27.6434 23.2084 27.6696 23.1484 27.6961 23.1197C27.6581 23.0832 27.6256 23.0402 27.585 23.0147C27.5314 22.9783 27.5105 23.0162 27.5157 23.1072C27.5509 23.1391 27.5844 23.1941 27.6213 23.2031ZM27.8594 25.0055C27.8702 24.9769 27.8884 24.9501 27.8919 24.9197C27.9022 24.8129 27.8825 24.7652 27.8469 24.7995C27.8368 24.8088 27.8381 24.8676 27.8375 24.9026L27.8631 25.0064L27.8594 25.0055ZM28.9715 24.9903C28.9824 24.9617 29.0006 24.9349 29.0049 24.9008C29.0152 24.794 28.9928 24.7417 28.9562 24.7797C28.9462 24.789 28.9475 24.8479 28.946 24.8865L28.9715 24.9903ZM27.6528 29.1082L27.6662 29.0529L27.6157 29.068L27.6519 29.1119L27.6528 29.1082ZM27.6964 30.3444L27.7424 30.3321L27.7099 30.2891L27.6973 30.3407L27.6964 30.3444ZM27.6237 31.7709C27.6466 31.7569 27.6705 31.6261 27.6592 31.5922C27.6405 31.5408 27.5933 31.5098 27.5528 31.5C27.4975 31.4866 27.4712 31.5466 27.4783 31.6302C27.5075 31.7349 27.5477 31.8266 27.6237 31.7709ZM27.4022 34.8084C27.5256 34.2997 27.3927 33.9786 27.4105 33.6317L27.4496 33.567L27.4039 33.6105C27.2429 34.0009 27.1857 34.3656 27.4059 34.8093L27.4022 34.8084ZM26.8436 37.3855C26.9239 37.4245 26.9962 37.3679 27.0025 37.2289C27.0131 37.0246 26.9486 36.888 26.8307 36.8594C26.7643 36.8433 26.6753 36.8725 26.668 37.0151C26.6566 37.2231 26.7757 37.2793 26.8436 37.3855ZM26.2083 40.311L26.2281 40.2609L26.1812 40.2613L26.2045 40.3099L26.2083 40.311ZM25.8167 41.1527C25.872 41.0374 25.8107 40.9521 25.728 40.9555L25.5863 40.9604C25.5593 40.9107 25.6612 40.748 25.55 40.7719L25.5754 40.9733C25.5969 41.0291 25.6103 41.1026 25.64 41.1409C25.6837 41.2024 25.7614 41.268 25.8176 41.1489L25.8167 41.1527ZM25.8505 42.1564C25.7701 41.9728 25.6746 41.8677 25.4783 41.9527C25.5311 42.266 25.6519 42.2994 25.8505 42.1564ZM24.7253 44.3658L24.7303 44.2968L24.7116 44.2452L24.7074 44.3105L24.7262 44.3621L24.7253 44.3658ZM25.0483 45.0296L25.0423 44.9576L25.0308 44.8923L25.023 44.9727L25.0474 45.0331L25.0483 45.0296ZM25.1094 48.3501C25.1094 48.3501 25.0823 48.4138 25.0705 48.4461C25.0808 48.4681 25.0838 48.5041 25.1023 48.5083C25.1133 48.5113 25.1553 48.4666 25.1607 48.4446C25.1913 48.3505 25.1699 48.3103 25.1103 48.3463L25.1094 48.3501ZM23.3973 47.8297C23.4432 47.8172 23.5049 47.8206 23.5286 47.7872C23.5859 47.6958 23.6238 47.5877 23.6636 47.5039C23.6245 47.4242 23.5785 47.4364 23.5341 47.5232C23.4823 47.6237 23.4454 47.7281 23.401 47.8305L23.3973 47.8297ZM22.7979 48.6756L22.844 48.679L22.8252 48.6274L22.7979 48.6756ZM21.7019 50.7166L21.7262 50.6484L21.6751 50.6984L21.7019 50.7166ZM22.6559 52.8017L22.6002 52.8548L22.6261 52.8764L22.6559 52.8017ZM20.7609 52.1667C21.1083 52.1182 21.2706 51.9156 21.2303 51.5504L21.2399 51.4787L21.2202 51.5598C21.1457 51.8189 20.8426 51.8936 20.7636 52.1713L20.7609 52.1667ZM19.1509 54.1217L19.1919 54.0656L19.1341 54.0944L19.1509 54.1217ZM16.9399 55.9158C16.9399 55.9158 17.0025 55.9155 17.0134 55.9022C17.0691 55.8495 17.0579 55.8157 16.9879 55.8142C16.9686 55.8134 16.9458 55.843 16.9221 55.8608C16.9249 55.881 16.9224 55.9075 16.9399 55.9158ZM16.348 55.862L16.3829 55.8627L16.3652 55.8233L16.348 55.862ZM15.0102 55.4557C15.1408 55.5771 15.2222 55.6435 15.3118 55.6928C15.4446 55.7406 15.5978 55.8009 15.5863 55.6071C15.5854 55.4819 15.4786 55.4717 15.3728 55.4732C15.2781 55.4777 15.1834 55.4819 15.0139 55.4565L15.0102 55.4557ZM14.3918 54.5132L14.4371 54.5515C14.4887 54.564 14.5155 54.7112 14.5803 54.6372C14.5341 54.6023 14.4833 54.5704 14.4388 54.5287L14.3872 54.5162L14.3918 54.5132ZM14.0574 53.8001C14.0613 53.8319 14.0561 53.8698 14.0691 53.8964C14.1103 54 14.1435 54.0079 14.1484 53.9233C14.151 53.8968 14.1304 53.8528 14.1137 53.8251C14.1025 53.8069 14.0795 53.8054 14.0583 53.7963L14.0574 53.8001ZM14.3377 53.3684C14.3462 53.3976 14.3712 53.4234 14.3871 53.4545C14.3924 53.4321 14.3987 53.4063 14.4041 53.3843C14.3928 53.3506 14.3925 53.3035 14.373 53.2872C14.323 53.236 14.303 53.2702 14.334 53.3673L14.3377 53.3684ZM11.9784 50.3021C11.9049 50.3153 11.8677 50.3885 11.8742 50.5228C11.8771 50.5429 11.9096 50.5858 11.9317 50.5911C12.0017 50.6082 12.066 50.5846 12.065 50.4439C12.0665 50.4052 12.01 50.3487 11.9821 50.3028L11.9784 50.3021ZM11.0563 50.1291C10.9523 50.1234 10.9097 50.2186 10.9511 50.3533C10.9776 50.4534 11.052 50.5653 11.1046 50.5896C11.1793 50.6195 11.231 50.5031 11.1969 50.37C11.1705 50.2698 11.0982 50.1977 11.0563 50.1291ZM11.2204 48.6156L11.2025 48.6892L11.2357 48.6972L11.2213 48.6118L11.2204 48.6156ZM13.0985 47.7595L13.0427 47.7967C13.0502 47.8297 13.0543 47.8775 13.0691 47.8968C13.1184 47.9674 13.1485 47.9397 13.1432 47.8327C13.1412 47.8088 13.1162 47.7834 13.0985 47.7595ZM13.1933 43.3292C13.1535 43.2844 13.1087 43.3243 13.1083 43.4062C13.1077 43.4566 13.1476 43.5014 13.1772 43.5242C13.2272 43.5598 13.2582 43.5283 13.2669 43.4601C13.2427 43.4153 13.2239 43.3641 13.1961 43.3337L13.1933 43.3292ZM12.6906 42.7466L12.6253 42.7583C12.6164 42.7951 12.6057 42.8391 12.6077 42.863C12.6221 42.9487 12.6597 42.9381 12.7013 42.8312C12.7076 42.8054 12.6954 42.775 12.6915 42.7432L12.6906 42.7466ZM12.8561 42.0805L12.8263 42.1552L12.8774 42.1052L12.8561 42.0805ZM13.5261 40.5568C13.4754 40.5405 13.3904 40.6175 13.3827 40.6975C13.3757 40.8716 13.447 40.9475 13.5949 40.9168C13.6277 40.7336 13.6405 40.6001 13.5261 40.5568ZM15.352 40.9137L15.3377 40.9725L15.3354 41.0306L15.3506 40.968L15.352 40.9137ZM15.5999 40.1817C15.5999 40.1817 15.5483 40.1692 15.5391 40.1745C15.519 40.1931 15.5073 40.2253 15.49 40.2484C15.4974 40.2659 15.5051 40.2989 15.5179 40.2943C15.5923 40.2773 15.6223 40.2336 15.5971 40.1767L15.5999 40.1817ZM15.0055 39.1242C14.921 39.1503 14.88 39.2068 14.8979 39.2618C14.9026 39.2747 14.9532 39.2751 14.9641 39.2622C14.9897 39.2372 15.006 39.2023 15.0252 39.1716C15.0176 39.1541 15.0192 39.1158 15.0064 39.1204L15.0055 39.1242ZM17.0935 39.7201C17.0423 39.6415 16.962 39.6025 16.8653 39.5827C16.8173 39.5714 16.7676 39.5668 16.7133 39.5657C16.6609 39.5725 16.6076 39.5827 16.5544 39.5934C16.477 39.5744 16.4013 39.5486 16.3158 39.5471C16.2413 39.5486 16.2113 39.6078 16.2777 39.6237C16.3551 39.6427 16.4534 39.6233 16.5389 39.6248C16.6455 39.6036 16.7022 39.6761 16.7761 39.725C16.852 39.7826 16.9323 39.8217 17.0935 39.7201ZM17.0768 38.7911C17.0768 38.7911 17.0673 38.7498 17.0498 38.7414C16.9714 38.7107 16.9163 38.7289 16.9204 38.7923C16.9205 38.8078 16.9593 38.8249 16.9869 38.8241C17.0145 38.823 17.0502 38.804 17.0805 38.7919L17.0768 38.7911ZM16.9052 37.1649C16.875 37.177 16.8466 37.1975 16.8228 37.2151C16.5977 37.2581 16.3745 37.3093 16.1504 37.3643L16.0566 37.365L16.1212 37.3884C16.378 37.4078 16.6097 37.3859 16.833 37.2215C16.8576 37.2001 16.8815 37.1825 16.9081 37.1695L16.9052 37.1649ZM17.9528 39.3313C17.8954 39.2941 17.8398 39.2338 17.804 39.2368C17.6523 39.2508 17.5886 39.3525 17.5847 39.4488C17.5842 39.5152 17.6257 39.5368 17.6779 39.4989C17.7666 39.4231 17.8566 39.3901 17.9528 39.3313ZM19.8946 40.0796L19.8356 40.0652L19.7813 40.0637L19.8422 40.0861L19.8937 40.0831L19.8946 40.0796ZM20.6528 40.88L20.5919 40.8576C20.5042 40.8166 20.4146 40.7677 20.3335 40.748C20.2644 40.7271 20.1473 40.6949 20.2109 40.8352C20.2211 40.8572 20.318 40.8925 20.3686 40.8929C20.4496 40.8971 20.5203 40.8792 20.5957 40.8739L20.6537 40.8762L20.6528 40.88ZM21.1143 41.6166C21.1677 41.6215 21.1644 41.5544 21.1014 41.4922C21.057 41.4505 21.0026 41.4334 20.9583 41.4068C20.9105 41.4266 20.91 41.477 20.9693 41.5385C21.0101 41.5794 21.0719 41.614 21.1143 41.6166ZM23.7931 45.8922C23.8135 45.9203 23.8332 45.9681 23.8516 45.9726C23.9106 45.987 23.9314 45.9335 23.9031 45.8406C23.8955 45.8076 23.8639 45.761 23.8491 45.7572C23.7902 45.7431 23.774 45.7936 23.7976 45.8892L23.7931 45.8922ZM23.3462 46.4471C23.1085 46.2685 22.9165 46.0462 22.7092 46.1289C22.8621 46.5928 23.0744 46.6986 23.3462 46.4471ZM23.217 48.3478C23.2382 48.228 23.1896 48.1225 23.1166 48.0698C23.0297 48.0099 22.9981 48.1074 22.9851 48.2098C22.9666 48.3183 22.9912 48.426 23.0772 48.4897C23.1546 48.5083 23.2021 48.4575 23.2198 48.3524L23.217 48.3478ZM23.8851 51.773C23.9347 51.7616 23.9453 51.7017 23.9033 51.6171C23.8566 51.52 23.8008 51.4286 23.746 51.3489C23.6986 51.2867 23.674 51.3235 23.6904 51.4328C23.721 51.5966 23.7862 51.7138 23.8851 51.773ZM24.4854 54.5765C24.5919 54.5397 24.6025 54.4798 24.5605 54.3956C24.5101 54.2973 24.4511 54.1543 24.3976 54.1335C24.3017 54.0948 24.3018 54.2393 24.3551 54.3576C24.4008 54.4585 24.463 54.5397 24.4882 54.5811L24.4854 54.5765ZM25.0781 57.7491C25.1559 57.6857 25.2798 57.6417 25.2857 57.4403C25.2889 57.234 25.1755 57.2028 25.0881 57.2089C24.9695 57.2154 24.8743 57.2859 24.9074 57.5359C24.9258 57.669 24.9806 57.7487 25.0818 57.7498L25.0781 57.7491ZM25.4275 61.893L25.4039 61.813L25.387 61.8832L25.4275 61.893ZM25.8497 62.003L25.7489 61.8069L25.7035 61.7686L25.7435 61.8289C25.7871 61.8748 25.7535 62.0618 25.8497 62.003ZM25.827 62.8367L25.8053 62.7651L25.7994 62.8379L25.8307 62.8375L25.827 62.8367ZM28.1491 63.111C28.1927 63.1569 28.1573 63.3511 28.2535 63.2927L28.1564 63.0973L28.1109 63.0431L28.1491 63.111ZM26.3012 63.6815C26.3139 63.6458 26.2832 63.4819 26.2685 63.4785C26.0565 63.4194 25.8878 63.5032 25.7685 63.9311C25.9816 63.889 26.1792 63.9917 26.3003 63.6853L26.3012 63.6815ZM26.5879 66.7641C26.6644 66.2558 26.523 65.7768 26.4526 65.0531C26.2684 65.8124 26.487 66.2794 26.5879 66.7641ZM27.7775 67.8141C27.8213 67.7621 27.8198 67.6877 27.777 67.6225C27.7631 67.5997 27.7299 67.5918 27.7144 67.6073C27.6715 67.6555 27.6738 67.7264 27.7148 67.7989C27.7369 67.8042 27.7619 67.8296 27.7775 67.8141ZM26.7541 70.2469L26.7801 70.0114C26.9172 69.4944 26.6365 69.4769 26.496 69.3806C26.3184 69.2592 26.1355 69.2736 26.0989 69.8267C26.3542 69.7557 26.5868 69.6173 26.7745 70.0023C26.7631 70.0816 26.6575 70.1146 26.7514 70.2424L26.7541 70.2469ZM26.7128 71.045C26.7128 71.045 26.7578 71.0207 26.7576 71.0052C26.7574 70.9737 26.7497 70.9252 26.734 70.9096C26.682 70.8501 26.6564 70.8751 26.6682 70.9718C26.6729 71.0003 26.6989 71.0223 26.7128 71.045ZM27.8963 75.1454C27.8963 75.1454 27.857 75.1787 27.8544 75.2053C27.8482 75.2311 27.8614 75.2736 27.8653 75.3058C27.8827 75.2982 27.9057 75.2997 27.9175 75.2831C27.9667 75.2091 27.9608 75.1533 27.8963 75.1454ZM26.7813 73.8367C26.9414 73.5788 26.8914 73.2701 26.7704 72.8194C26.6508 73.2003 26.5413 73.4586 26.665 73.7852C26.681 73.8318 26.7631 73.8637 26.7813 73.8367ZM26.2146 75.8031L26.2557 75.7621C26.339 75.6927 26.4297 75.6404 26.4998 75.5444C26.5737 75.4492 26.636 75.2884 26.5293 75.1495C26.4429 75.0388 26.3458 75.101 26.3019 75.266C26.267 75.4097 26.2646 75.5808 26.2418 75.7394L26.2109 75.8019L26.2146 75.8031ZM28.9808 76.2905C29.0098 76.2351 29.0417 76.1843 29.0615 76.1187C29.0912 76.0284 29.0767 75.9431 29.0244 75.9499C28.9959 75.9544 28.956 76.0386 28.9491 76.0993C28.9394 76.1555 28.9693 76.2253 28.9808 76.2905ZM26.7269 77.4728C26.7844 77.2839 26.7794 77.0954 26.7093 76.9338C26.6794 76.864 26.6151 76.8875 26.6028 76.9706C26.5758 77.1785 26.6495 77.3253 26.7232 77.4721L26.7269 77.4728ZM27.4398 77.5912C27.3894 77.2354 27.3173 77.0503 27.1752 76.9922C27.1678 76.9903 27.1283 77.1212 27.1315 77.1883C27.1461 77.4341 27.2642 77.4781 27.4398 77.5912ZM26.375 78.5857C26.375 78.5857 26.392 78.5159 26.3854 78.4947C26.3517 78.4086 26.3167 78.4078 26.3007 78.4897C26.2953 78.5117 26.3131 78.5512 26.3244 78.5853C26.3428 78.5895 26.3678 78.5997 26.3796 78.5831L26.375 78.5857ZM25.754 81.3236L25.7822 81.2875L25.7553 81.2534L25.7577 81.3243L25.754 81.3236ZM26.6128 82.0469C26.6232 81.2963 26.4474 81.0232 26.1542 80.9287L26.1217 80.8858L26.1405 80.9526C26.3745 81.1305 26.4385 81.591 26.6128 82.0469Z" fill="#A3C4E3"/>
<path id="Vector_3" d="M25.6485 83.4136C25.6276 83.3226 25.5764 83.2281 25.521 83.1993C25.4554 83.1636 25.3934 83.2421 25.3814 83.3722C25.3636 83.5748 25.443 83.6173 25.5415 83.6294C25.5973 83.5922 25.6809 83.5695 25.6476 83.417L25.6485 83.4136Z" fill="#A3C4E3"/>
<path id="Vector_4" d="M28.4992 85.8688C28.5088 85.7971 28.5052 85.6829 28.4783 85.6492C28.4077 85.554 28.3626 85.6757 28.3339 85.7781C28.3061 85.8923 28.2886 86.0129 28.3507 86.0789C28.4577 86.1203 28.4816 85.9898 28.4992 85.8688Z" fill="#A3C4E3"/>
<path id="Vector_5" d="M26.6446 85.4231C26.5899 85.3746 26.5253 85.3355 26.4821 85.4812C26.4703 85.6268 26.5232 85.6981 26.5887 85.7179C26.6256 85.7266 26.688 85.7107 26.7061 85.6682C26.7567 85.54 26.7001 85.4679 26.6446 85.4231Z" fill="#A3C4E3"/>
<path id="Vector_6" d="M16.0877 71.696C16.1083 71.611 16.2038 71.5875 16.2857 71.5879C16.3408 71.5856 16.3924 71.5981 16.4459 71.603L16.6048 71.5753L16.5109 71.7047C16.559 71.861 16.5756 71.8727 16.6506 71.8052C16.7164 71.743 16.792 71.6402 16.8393 71.6869C17.0293 71.8852 17.4602 71.8139 17.631 72.0271L17.3601 72.098L17.3215 72.0965L17.3583 72.1056C17.4469 72.1428 17.534 72.2338 17.6494 72.0317C17.8069 71.9137 17.92 71.9141 17.9943 72.01C18.0734 72.0059 18.0838 72.0434 18.0483 72.109C18.1971 72.3324 18.5841 72.4106 18.4278 72.8138C18.4151 72.8498 18.4678 72.8897 18.5066 72.9071C18.7789 73.0395 18.8654 73.2944 18.905 73.5656C18.9714 73.984 19.1982 74.3041 19.4011 74.6421C19.4932 74.7934 19.5061 74.9174 19.1933 75.0487C19.0887 75.0934 18.9752 75.175 19.0751 75.2463C19.1185 75.2763 19.1222 75.406 19.2858 75.2467C19.4329 75.1067 19.6115 75.1264 19.6389 75.2228C19.7021 75.4451 19.8604 75.5968 19.9712 75.7838C20.0848 75.975 19.9973 76.0789 19.6334 76.2754C19.5527 76.3182 19.4814 76.3713 19.3522 76.4533C19.5993 76.5288 19.8215 76.5944 20.0391 76.6627C20.0038 76.6149 19.9777 76.5618 19.9369 76.5208C19.886 76.4734 19.747 76.4669 19.8281 76.3577C19.8801 76.2883 20.0157 76.212 20.1075 76.1874C20.2452 76.1506 20.3284 76.2098 20.3393 76.3099C20.353 76.4305 20.2462 76.5489 20.1255 76.66C20.4211 76.6968 20.5886 76.8273 20.706 77.0507C20.9961 77.609 21.2706 78.1829 21.7548 78.6165C21.9437 78.7872 21.899 78.8429 21.4559 79.1411L21.4108 79.1498L21.4541 79.1487C21.4696 79.2617 21.4177 79.4756 21.704 79.2287C21.9216 79.0394 22.0962 79.0117 22.1195 79.1889C22.1604 79.5033 22.4538 79.6292 22.6145 79.8515C22.7176 79.9896 22.9462 80.0453 22.7394 80.3348C22.6747 80.4243 22.7641 80.4421 22.8304 80.458C23.2469 80.5434 23.3337 80.8612 23.3839 81.2011C23.4004 81.3107 23.4158 81.4082 23.5412 81.4541C23.864 81.5713 23.9858 81.874 24.0822 82.1202C24.3493 82.8052 24.9167 83.2983 25.1406 84.0004C25.2629 84.3812 25.768 84.5193 25.675 85.0318C26.1087 85.207 26.0957 85.7111 26.4323 85.9645C26.5674 86.0677 26.8295 86.1936 26.5035 86.5399C26.3511 86.7022 26.5737 86.7015 26.638 86.6935C27.1096 86.648 27.2127 86.915 27.3559 87.1293C27.4127 87.2173 27.3369 87.3042 27.2161 87.3998C27.1349 87.3645 27.0472 87.3236 26.9231 87.4654C26.8967 87.4942 26.911 87.564 26.9415 87.583C27.0873 87.6573 27.1218 87.4665 27.2144 87.407C27.3783 87.4392 27.4583 87.5599 27.6495 87.5439C27.8233 87.5197 27.52 87.8364 27.6853 87.7829C27.8762 87.7199 27.941 87.7746 28.014 87.8277C28.0372 87.8447 28.0603 87.8622 28.0927 87.8895C27.9204 88.1171 27.6978 88.2464 27.5114 88.4353L27.472 88.4531L27.5096 88.4429C27.5276 88.5134 27.3955 88.7039 27.5087 88.7042C27.6706 88.6967 27.6363 88.532 27.7074 88.4478C27.8981 88.2248 28.0667 88.254 28.2244 88.0386C28.3079 88.1448 28.062 88.3701 28.0437 88.51C28.0593 88.5097 28.0759 88.5059 28.0924 88.5021L28.0303 88.565C28.0369 88.5863 28.05 88.6284 28.05 88.6284C28.3385 88.3082 28.4667 88.2301 28.5458 88.2259C28.6231 88.229 28.6669 88.306 28.7349 88.2991C28.6884 88.6193 28.5862 88.6064 28.5159 88.8158C28.498 88.8738 28.4766 88.9777 28.485 88.9918C28.5138 89.0339 28.5343 88.9333 28.5514 88.8791C28.6432 88.5969 28.6628 89.0308 28.7473 88.7467C28.7902 88.57 28.8347 88.3545 28.8847 88.2768C28.9269 88.3924 28.8217 88.7297 28.9351 88.7611C28.9404 88.8677 28.9586 88.9698 28.994 89.0331C29.0344 89.156 29.0785 89.1355 29.1035 89.0323C29.1998 88.9895 29.2034 88.9747 29.1664 88.6925C29.1471 88.8203 29.1266 88.9208 29.0988 89.0194L28.9966 89.0066C28.9739 88.9227 28.9522 88.8355 28.935 88.7456C28.9302 88.5882 28.94 88.419 28.9749 88.4038C29.0612 88.386 29.0853 88.1421 29.1636 88.1569C29.3044 88.1717 29.4537 88.0712 29.5871 87.9396C29.6236 87.9016 29.654 87.905 29.7524 88.0306C29.8954 88.2134 29.9247 88.2051 29.8898 88.0757C29.8256 87.8413 29.7914 87.6926 30.0334 87.8216C30.1072 87.855 30.0838 87.8064 30.0789 87.7624C30.0201 87.3774 30.3754 87.4089 30.5073 87.187C30.52 87.1669 30.6012 87.2022 30.6537 87.2109C30.7173 87.2223 30.8012 87.3755 30.8421 87.3034C30.8493 87.2894 30.72 87.2113 30.6527 87.1988C30.6376 87.1483 30.5966 87.0762 30.6131 87.0565C30.749 86.8983 30.8719 86.7136 31.0013 86.5342C31.0669 86.4409 31.1307 86.3548 31.1999 86.2622C31.2747 86.1632 31.3559 86.0699 31.4399 85.9808C31.7349 85.6815 31.9802 85.3625 32.0886 84.9476C32.1307 84.7901 32.1467 84.5792 32.5271 84.7651L32.5531 84.8027L32.5418 84.7689C32.5935 84.668 32.4828 84.4969 32.6784 84.4469C32.8373 84.4032 32.8193 84.2037 32.8126 84.0383C32.8072 83.9158 32.8229 83.8028 32.8562 83.6977C32.9336 83.4432 32.9401 83.4485 33.3936 83.703C33.4644 83.8293 33.3844 83.9663 33.6522 84.1169C33.5867 83.9526 33.5435 83.8252 33.4129 83.7038C33.222 83.3802 33.325 83.1166 33.4091 82.9144C33.5394 82.6027 33.4637 82.1744 33.8793 82.006L34.1305 81.3566C34.0891 81.0926 34.3302 80.9678 34.4512 80.7903C34.5541 80.6397 34.8611 80.8544 35.0535 81.0103L35.0813 81.0407L35.0692 81.0103C35.0493 80.9314 35.0405 80.8552 34.925 80.7842C34.6579 80.6139 34.3724 80.4394 34.8033 80.3526C34.8318 80.3477 34.86 80.3116 34.8506 80.2858C34.5942 79.7984 35.1863 79.6103 35.1014 79.1877C35.0966 79.1593 35.1112 79.1316 35.1276 79.1119C35.2336 79.0129 35.4793 78.9006 35.4254 78.8175C35.2887 78.6085 35.4757 78.5133 35.435 78.3593C35.3716 78.1055 35.8285 78.0566 35.6654 77.763C35.63 77.7001 35.782 77.7171 35.8704 77.7388C35.9884 77.7672 36.079 77.8283 36.1595 77.8984C36.2364 77.9679 36.3345 78.0619 36.4121 77.9679C36.4504 77.9223 36.3983 77.8472 36.2681 77.7729C35.8293 77.5218 35.7223 77.3515 35.885 77.067C36.0422 76.789 36.1782 76.5018 36.2339 76.1916C36.2657 75.9962 36.5508 75.9795 36.6852 75.86L36.7164 75.8441L36.6759 75.8498C36.4908 75.8244 36.3615 75.7462 36.3634 75.6256C36.3646 75.5403 36.4824 75.5376 36.6087 75.5797L36.6457 75.6044L36.6178 75.5744C36.7118 75.4606 37.0041 75.6874 37.0701 75.5278C37.1107 75.5376 37.1512 75.5475 37.1909 75.5611L37.2233 75.5884L37.2037 75.5562C37.2037 75.5562 37.1796 75.527 37.1649 75.5236C37.1317 75.5156 37.0995 75.5194 37.0655 75.5149C37.0212 75.5042 36.9669 75.5027 36.9327 75.483C36.494 75.2319 36.4984 75.2137 37.0773 75.112C36.601 75.0161 36.4689 74.8044 36.6454 74.6561C36.9902 74.361 36.728 73.8485 37.3061 73.6373C37.3548 73.2276 37.6347 72.8779 37.7718 72.4899C37.9176 72.0176 38.1286 71.5495 38.2061 71.0534C38.3373 70.3513 38.5127 69.6602 39.2111 69.0332C39.5919 69.1531 39.6727 69.3678 39.6807 69.5919C39.6966 70.0255 39.8036 70.4689 39.6731 70.8941C39.6591 70.9529 39.6439 71.0155 39.6652 71.0716C39.826 71.4229 39.8442 71.7669 39.7941 72.1018C39.744 72.4371 39.6553 72.7709 39.5536 73.0937C39.3355 73.8641 39.1853 74.6436 39.0438 75.4212C38.8329 76.4665 38.3965 77.4459 38.183 78.4871C38.1194 78.8619 37.9683 79.2116 37.8318 79.5648C37.6991 79.919 37.5811 80.2767 37.5378 80.6644C37.5241 80.8017 37.444 80.9227 37.3869 81.0456C37.1748 81.5015 36.9673 81.9548 36.7949 82.424C36.6152 82.8917 36.4308 83.3624 36.251 83.8301C36.2039 83.9435 36.1431 84.0497 36.0785 84.1552C35.8266 84.5663 35.6134 84.9946 35.3965 85.4221C35.1898 85.856 34.9785 86.2926 34.7506 86.7174C34.5093 87.1976 34.1719 87.6232 33.8927 88.0822C33.4715 88.757 32.9611 89.445 32.3207 90.0739C31.9488 90.4328 31.5169 90.765 31.0028 91.0503C30.4896 91.3317 29.8813 91.5707 29.1921 91.6765C28.4119 91.8036 27.6051 91.5415 26.9149 91.2494C26.5891 91.1117 26.309 90.9149 26.0564 90.7172C25.8039 90.5192 25.5826 90.3212 25.334 90.1555C25.1731 90.0462 25.0433 89.9055 24.9301 89.761C24.6422 89.3866 24.3639 89.054 24.0986 88.7475C23.8454 88.4558 23.583 88.1698 23.339 87.8724C22.939 87.3812 22.5829 86.854 22.1692 86.3711C21.6182 85.7301 21.1999 84.9923 20.681 84.3315C19.9179 83.3582 19.2922 82.3011 18.6171 81.2709C18.2469 80.705 17.7549 80.2069 17.4846 79.5833C17.0919 78.676 16.4426 77.9254 16.1093 76.982C15.9666 76.5728 15.7359 76.2044 15.517 75.8354C15.2991 75.4625 15.2096 75.0271 15.0046 74.6493C14.7948 74.259 14.6666 73.822 14.5201 73.396C14.4675 73.2428 14.287 73.0858 14.6857 72.8741C14.6897 72.7933 14.6873 72.7068 14.8304 72.6632C14.8938 72.6435 14.9418 72.6708 14.945 72.7224C14.9437 72.8081 14.8391 72.8373 14.7685 72.8866C14.7967 73.2212 14.8576 73.2595 15.2559 73.1138C15.5431 73.008 15.8215 72.8256 16.121 72.7656L16.1578 72.7588L16.1283 72.7516C16.1875 72.411 15.9407 72.109 16.4393 71.7108C16.4363 71.6907 16.4252 71.6724 16.4131 71.6577C16.3544 71.6903 16.2949 71.7267 16.2353 71.7472C16.1445 71.784 16.0589 71.7824 16.0785 71.7017L16.0877 71.696ZM38.065 73.0994L38.0602 73.071L38.0327 73.0877L38.0622 73.0949L38.065 73.0994ZM37.6558 74.1751L37.6768 74.1528L37.6474 74.1456L37.6558 74.1751ZM37.1846 74.4118L37.1798 74.3834L37.1524 74.4004L37.1855 74.4084L37.1846 74.4118ZM37.1342 74.8291C37.1785 74.8397 37.2227 74.8507 37.2632 74.8606L37.291 74.8905L37.2715 74.8587C37.2715 74.8587 37.2428 74.8321 37.228 74.8283C37.1949 74.8203 37.159 74.8234 37.1249 74.8192L37.0855 74.8367L37.1305 74.8283L37.1342 74.8291ZM38.2705 76.0178C38.2925 76.0076 38.2932 75.9727 38.3022 75.9514C38.2462 75.9575 38.1836 75.9579 38.134 75.9693C38.1092 75.975 38.1085 76.0099 38.1004 76.0273C38.1798 76.0702 38.2302 76.0394 38.2742 76.019L38.2705 76.0178ZM36.8952 76.1529L36.9079 76.1324L36.8636 76.1218L36.8952 76.1529ZM36.7346 76.7343C36.7558 76.7434 36.7897 76.7321 36.8174 76.7313C36.7877 76.7082 36.7627 76.6828 36.7286 76.6627C36.6842 76.6365 36.6557 76.641 36.6486 76.6706C36.6745 76.6926 36.6995 76.718 36.7346 76.7343ZM36.6757 77.3799C36.6757 77.3799 36.7124 77.3731 36.7188 77.3629C36.7453 77.3344 36.7313 77.3113 36.6926 77.3098C36.6816 77.3071 36.6762 77.3291 36.6662 77.3386L36.6757 77.3799ZM37.7288 77.7369C37.7288 77.7369 37.7655 77.73 37.7719 77.7198C37.7993 77.6875 37.7853 77.6644 37.7421 77.6659C37.731 77.6629 37.7257 77.6853 37.7156 77.6944L37.7251 77.7357L37.7288 77.7369ZM35.9845 78.6525L36 78.6366L35.9558 78.626L35.9845 78.6525ZM35.9222 79.0861L35.9665 79.0971L35.9378 79.0705L35.9222 79.0861ZM35.7609 79.5583C35.7793 79.5629 35.8122 79.5238 35.801 79.5056C35.787 79.4828 35.7436 79.4525 35.7085 79.4362C35.6596 79.4127 35.6293 79.4248 35.6332 79.457C35.6529 79.5048 35.6854 79.5477 35.7609 79.5583ZM35.4498 80.5836C35.5675 80.4364 35.4587 80.2733 35.4799 80.1538L35.5175 80.1432L35.4743 80.1447C35.3167 80.2312 35.2466 80.3431 35.4489 80.5874L35.4498 80.5836ZM34.954 81.3726C35.0288 81.4181 35.0914 81.4177 35.0956 81.368C35.0987 81.2906 35.0348 81.2167 34.9276 81.1594C34.8685 81.1294 34.7874 81.1097 34.7823 81.1632C34.7792 81.2405 34.8882 81.3062 34.954 81.3726ZM34.5339 82.3326L34.5485 82.3204L34.5043 82.3098L34.5302 82.3314L34.5339 82.3326ZM34.2511 82.5488C34.2858 82.5181 34.2293 82.4616 34.1537 82.4354L34.0255 82.3849C33.9977 82.3546 34.0756 82.3227 33.9779 82.2912L34.0135 82.3857C34.0368 82.4187 34.0554 82.4543 34.0878 82.482C34.1359 82.5249 34.2118 82.5822 34.2474 82.548L34.2511 82.5488ZM34.3849 82.9949C34.294 82.8871 34.2005 82.806 34.0328 82.773C34.1121 82.9289 34.2229 82.9869 34.3849 82.9949ZM33.6752 83.5877L33.6667 83.5585L33.6426 83.5293L33.651 83.5585L33.6752 83.5877ZM34.0665 84.0182L34.0478 83.9826L34.0291 83.9469L34.0367 83.9799L34.0673 84.0148L34.0665 84.0182ZM34.721 85.6485C34.721 85.6485 34.7147 85.6743 34.7121 85.6853C34.7241 85.7001 34.7353 85.7183 34.7528 85.7267C34.7639 85.7293 34.7887 85.7236 34.7905 85.716C34.7957 85.6785 34.7707 85.6527 34.7284 85.6504L34.721 85.6485ZM33.1695 84.8038C33.2027 84.8121 33.2589 84.8376 33.269 84.8281C33.2955 84.7992 33.3053 84.7587 33.3171 84.7264C33.267 84.6752 33.231 84.6627 33.2119 84.6934C33.1919 84.7276 33.1858 84.7689 33.1695 84.8038ZM32.8491 85.0306L32.8915 85.0488L32.8646 85.0151L32.85 85.0268L32.8491 85.0306ZM32.4669 85.7536L32.474 85.7244L32.44 85.7354L32.4669 85.7536ZM33.8028 87.198L33.7725 87.2101L33.7993 87.2283L33.8064 87.1988L33.8028 87.198ZM32.1226 86.2558C32.3836 86.3385 32.4438 86.2672 32.308 86.0548L32.2939 86.0161L32.2969 86.0521C32.3143 86.1735 32.0997 86.1253 32.1226 86.2558ZM31.5444 86.9662L31.5506 86.9404L31.5222 86.9454L31.5444 86.9662ZM31.0768 87.9771C31.0768 87.9771 31.1053 87.9722 31.1043 87.9604C31.0994 87.916 31.0707 87.8895 31.0422 87.8944C31.0339 87.8963 31.0359 87.9202 31.0369 87.9323C31.049 87.9468 31.0638 87.9661 31.0777 87.9733L31.0768 87.9771ZM30.7966 88.0378L30.8104 88.0294L30.7771 88.0059L30.7994 88.0423L30.7966 88.0378ZM30.338 88.4964C30.4058 88.4584 30.4517 88.4459 30.4828 88.4144C30.5248 88.3701 30.5713 88.3071 30.4362 88.2043C30.3511 88.1368 30.3276 88.1857 30.329 88.2601C30.3331 88.3234 30.3336 88.386 30.3417 88.4975L30.338 88.4964ZM29.9455 88.6667L29.9526 88.6371C29.9386 88.5988 30.0086 88.6155 29.9492 88.5389L29.9397 88.6261L29.9463 88.6629L29.9455 88.6667ZM29.7404 88.8044C29.7404 88.8044 29.7681 88.8188 29.7772 88.8131C29.8047 88.7964 29.7999 88.768 29.7648 88.7517C29.7538 88.749 29.7409 88.7536 29.7391 88.7611C29.7373 88.7683 29.7403 88.7888 29.7449 88.8013L29.7404 88.8044ZM29.5052 88.4702C29.5052 88.4702 29.5143 88.449 29.5161 88.4418L29.4883 88.4114C29.4883 88.4114 29.4662 88.4061 29.4663 88.4217C29.4647 88.4603 29.4796 88.4797 29.5016 88.4694L29.5052 88.4702ZM28.7904 90.2913C28.7881 90.3649 28.8115 90.4134 28.8668 90.4271C28.8741 90.4286 28.8969 90.399 28.8968 90.3834C28.9092 90.3163 28.9014 90.2518 28.8525 90.2283C28.8377 90.2245 28.8114 90.2689 28.7904 90.2913ZM28.5988 91.1777C28.5821 91.279 28.6193 91.3348 28.6937 91.3177C28.7469 91.3071 28.811 91.2524 28.8272 91.2016C28.8478 91.1326 28.7977 91.0658 28.7324 91.0772C28.6828 91.0886 28.6373 91.1478 28.5988 91.1777ZM27.9574 90.7487L27.9806 90.7817L27.996 90.7502L27.9564 90.7525L27.9574 90.7487ZM28.346 88.8563L28.3326 88.9117C28.3326 88.9117 28.3528 88.9087 28.3629 88.8996C28.3957 88.8605 28.3992 88.8302 28.3808 88.826C28.3771 88.8249 28.3598 88.848 28.3497 88.8575L28.346 88.8563ZM27.0048 88.4804C26.959 88.5085 26.951 88.5415 26.985 88.5461C27.0081 88.5476 27.0493 88.5225 27.0822 88.499C27.1298 88.4638 27.1352 88.4418 27.1102 88.4319C27.0754 88.4467 27.0406 88.4619 27.0085 88.4812L27.0048 88.4804ZM26.4112 88.8362L26.3765 88.8821C26.3765 88.8821 26.4042 88.8969 26.4208 88.8931C26.4741 88.8825 26.4886 88.8548 26.4599 88.8283C26.4534 88.823 26.4277 88.8321 26.4112 88.8362ZM26.1776 88.7209L26.2007 88.738L26.2088 88.705L26.1776 88.7209ZM25.6774 88.3693C25.6381 88.4027 25.6467 88.4478 25.6908 88.4429C25.7901 88.4357 25.8771 88.3826 25.9436 88.2855C25.8561 88.276 25.7661 88.2931 25.6774 88.3693ZM26.8317 87.1506L26.8667 87.151L26.908 87.1415L26.8711 87.1328L26.8289 87.146L26.8317 87.1506ZM26.3779 87.1225C26.3779 87.1225 26.3496 87.1586 26.3525 87.1631C26.358 87.1722 26.3819 87.1703 26.3967 87.1737C26.4141 87.1661 26.4407 87.1532 26.4425 87.1457C26.4532 87.1017 26.432 87.0926 26.3788 87.1187L26.3779 87.1225ZM25.3565 87.745C25.3467 87.7856 25.3716 87.7954 25.4211 87.7685C25.434 87.7639 25.4494 87.7324 25.4457 87.7317C25.4364 87.7214 25.4162 87.7245 25.4015 87.7207C25.384 87.7283 25.3574 87.7412 25.3565 87.745ZM26.1942 86.3832C26.0654 86.5118 26.0827 86.6177 26.0918 86.725C26.0682 86.7739 26.0355 86.8286 26.0284 86.8737C26.0186 86.9143 26.071 86.9074 26.0927 86.8657C26.1163 86.8168 26.1123 86.769 26.1202 86.7204C26.1066 86.6154 26.3935 86.4625 26.1988 86.3802L26.1942 86.3832ZM25.4109 86.8449C25.4109 86.8449 25.3779 86.868 25.3707 86.882C25.3425 86.9336 25.3629 86.9465 25.4141 86.912C25.4279 86.9037 25.4415 86.8798 25.4405 86.8676C25.4432 86.8566 25.4211 86.8513 25.4118 86.8411L25.4109 86.8449ZM24.0557 87.7495L24.0989 87.7484L24.1865 87.9024L24.1784 87.9354L24.2021 87.9024C24.2382 87.8015 24.2276 87.7328 24.0998 87.7446L24.0557 87.7495ZM25.679 86.2387C25.67 86.2755 25.6419 86.3271 25.6557 86.3343C25.7121 86.3753 25.7957 86.3529 25.8799 86.2952C25.9357 86.2581 25.9429 86.2285 25.9043 86.227C25.8306 86.2247 25.7552 86.2296 25.6798 86.2349L25.679 86.2387ZM25.1164 85.5324L25.1496 85.5404L25.191 85.5309L25.1578 85.523L25.1164 85.5324ZM24.8746 85.1615L24.9142 85.1592C24.9676 85.1645 25.0201 85.1732 25.0798 85.1683C25.1277 85.1641 25.205 85.1676 25.209 85.0864C25.2117 85.0754 25.1417 85.0739 25.1041 85.0845C25.0416 85.1004 24.9811 85.1247 24.9169 85.1482L24.8709 85.1603L24.8746 85.1615ZM24.7116 84.8683C24.6693 84.8812 24.6558 84.921 24.6918 84.9335C24.7167 84.9438 24.7572 84.9377 24.7884 84.9377C24.8333 84.9134 24.8451 84.8812 24.8128 84.8694C24.7879 84.8592 24.7492 84.8577 24.7144 84.8728L24.7116 84.8683ZM22.8872 83.9416C22.8872 83.9416 22.8558 83.9264 22.8429 83.931C22.7952 83.9507 22.7752 83.9849 22.7957 84.0133C22.8012 84.0224 22.827 84.0285 22.8399 84.0239C22.8876 84.0042 22.9067 83.9739 22.8908 83.9428L22.8872 83.9416ZM23.2879 83.4963C23.4827 83.4656 23.641 83.4728 23.8213 83.3408C23.7075 83.2092 23.5297 83.2611 23.2879 83.4963ZM23.4464 82.6174C23.4275 82.6793 23.4654 82.7001 23.5306 82.6888C23.6041 82.6755 23.6303 82.6156 23.6457 82.5685C23.6591 82.5131 23.6441 82.4782 23.5706 82.4915C23.5055 82.5188 23.4635 82.5632 23.4464 82.6174ZM22.8993 81.4936C22.8572 81.5224 22.8501 81.552 22.8815 81.5671C22.9239 81.5853 22.9673 81.5998 23.0179 81.6005C23.0593 81.6066 23.0821 81.577 23.0634 81.5413C23.0373 81.4879 22.9829 81.4708 22.8957 81.4928L22.8993 81.4936ZM22.3413 80.6401C22.2507 80.708 22.2436 80.7372 22.2795 80.7501C22.3229 80.7645 22.3783 80.7933 22.4251 80.7774C22.5067 80.7467 22.5045 80.6913 22.4593 80.6685C22.4214 80.6477 22.3634 80.6454 22.3413 80.6401ZM21.72 79.6774C21.6579 79.7404 21.5535 79.8166 21.5569 79.8993C21.5602 79.9824 21.6602 79.9403 21.7381 79.8929C21.8389 79.8314 21.9147 79.7597 21.8801 79.6774C21.8595 79.6334 21.8098 79.6292 21.7237 79.6785L21.72 79.6774ZM21.1481 78.2861L21.1749 78.3043L21.1829 78.2709L21.1481 78.2861ZM20.7785 78.4579L20.8781 78.4818L20.9194 78.4723L20.8808 78.4708C20.8403 78.4769 20.8535 78.39 20.7739 78.4606L20.7785 78.4579ZM20.7312 78.1382L20.7589 78.1526L20.7587 78.1211L20.7312 78.1382ZM18.7176 79.2147C18.6772 79.2207 18.6904 79.1339 18.6108 79.2044L18.7103 79.2287L18.7553 79.22L18.7185 79.2112L18.7176 79.2147ZM20.2469 78.0752C20.2378 78.0964 20.2822 78.1385 20.2914 78.1329C20.4766 78.0449 20.6175 77.9311 20.6776 77.7152C20.4991 77.8397 20.3201 77.9019 20.2469 78.0752ZM19.6836 77.1307C19.6741 77.3469 19.855 77.4376 19.9891 77.6576C20.0693 77.2946 19.8233 77.2464 19.6836 77.1307ZM18.5492 77.3826C18.52 77.422 18.5294 77.4478 18.5727 77.4467C18.5874 77.4501 18.6185 77.4345 18.6258 77.4205C18.655 77.3807 18.6447 77.3587 18.6033 77.3526C18.5858 77.3602 18.5565 77.3685 18.5501 77.3788L18.5492 77.3826ZM19.1036 76.03L19.1125 76.1218C19.0646 76.3679 19.3019 76.2261 19.4368 76.1847C19.6012 76.135 19.7578 76.0364 19.7149 75.8267C19.509 75.9837 19.328 76.1506 19.1171 76.1191C19.1169 76.0876 19.2038 76.019 19.1045 76.0262L19.1036 76.03ZM19.0197 75.7481C19.0197 75.7481 18.985 75.7785 18.9878 75.783C18.9934 75.7925 19.0063 75.8031 19.022 75.8031C19.0744 75.7963 19.0954 75.7743 19.0703 75.7485C19.0639 75.7432 19.0391 75.7489 19.0197 75.7481ZM17.3663 75.0661C17.3663 75.0661 17.3928 75.0373 17.3918 75.0252C17.3945 75.0142 17.377 75.0062 17.3668 74.9998C17.3521 75.0119 17.3338 75.0229 17.3274 75.0331C17.3002 75.0813 17.3122 75.0957 17.3663 75.0661ZM18.5298 74.8875C18.4389 75.0529 18.536 75.1192 18.7068 75.2038C18.7524 75.0157 18.7965 74.8822 18.638 74.8435C18.6159 74.8382 18.5416 74.8708 18.5298 74.8875ZM18.6751 73.9665L18.6477 73.9991C18.5929 74.0636 18.5263 74.1296 18.4789 74.196C18.4306 74.2666 18.4064 74.3504 18.5185 74.3386C18.6105 74.3295 18.6827 74.2571 18.6894 74.1808C18.6936 74.1156 18.672 74.0594 18.6588 74.0018L18.6677 73.9646L18.6751 73.9665ZM16.241 75.2964C16.2292 75.329 16.2101 75.3593 16.2021 75.3923C16.1913 75.4367 16.2227 75.4523 16.2649 75.4234C16.2886 75.4056 16.303 75.3624 16.301 75.3385C16.2982 75.3184 16.2613 75.3093 16.241 75.2964ZM17.9264 73.7382C17.9133 73.8247 17.9504 73.8808 18.0407 73.8948C18.0775 73.9035 18.1278 73.8573 18.1239 73.825C18.1077 73.7469 18.0194 73.7412 17.9264 73.7382ZM17.3042 74.083C17.4133 74.1641 17.5073 74.1789 17.6384 74.1209C17.643 74.1182 17.6536 74.0583 17.6388 74.0393C17.5812 73.9707 17.4749 74.023 17.3042 74.083ZM18.0101 73.2159C18.0101 73.2159 18.0104 73.2473 18.0223 73.2462C18.0665 73.2568 18.0986 73.2375 18.0956 73.2014C18.0974 73.1942 18.0707 73.1916 18.0568 73.1844C18.0422 73.1965 18.0174 73.2022 18.0101 73.2159ZM17.9562 72.0867L17.9425 72.1106L17.9747 72.1068L17.9562 72.0867ZM17.0721 72.3522C17.231 72.5665 17.4424 72.5475 17.7092 72.4132L17.7459 72.4064L17.7164 72.3992C17.4796 72.4747 17.3226 72.3818 17.0721 72.3522Z" fill="#A3C4E3"/>
<path id="Vector_7" d="M17.5733 71.4433C17.6139 71.4532 17.6764 71.4528 17.7278 71.4342C17.7883 71.4096 17.8257 71.3523 17.8042 71.3121C17.7697 71.2453 17.6908 71.2806 17.6084 71.3311C17.571 71.3728 17.5042 71.4228 17.5724 71.4471L17.5733 71.4433Z" fill="#A3C4E3"/>
<path id="Vector_8" d="M14.5931 72.3568C14.6025 72.3826 14.6349 72.4099 14.6634 72.4054C14.7452 72.3898 14.7549 72.3337 14.7537 72.2904C14.7533 72.2434 14.7356 72.2039 14.6695 72.2191C14.5686 72.265 14.5799 72.3147 14.5977 72.3542L14.5931 72.3568Z" fill="#A3C4E3"/>
<path id="Vector_9" d="M16.2515 71.4548C16.3103 71.4377 16.3709 71.4134 16.375 71.3478C16.3471 71.3023 16.2901 71.3118 16.2277 71.3436C16.1966 71.3592 16.1472 71.402 16.1427 71.4206C16.1275 71.4832 16.1974 71.4688 16.2524 71.451L16.2515 71.4548Z" fill="#A3C4E3"/>
</g>
</g>
</g>
</svg>
