<svg width="310" height="108" viewBox="0 0 310 108" fill="none" xmlns="http://www.w3.org/2000/svg">
<path d="M57.4234 16.8754L61.0234 6.43535H65.0554L57.9754 24.1714L52.6954 13.1314L47.3914 24.1714L40.3354 6.43535H44.3674L48.0154 16.8754L52.6954 5.59535L57.4234 16.8754ZM69.9979 23.4754C68.7979 23.4754 67.7499 23.2354 66.8539 22.7554C65.9579 22.2754 65.2619 21.6114 64.7659 20.7634C64.2859 19.8994 64.0459 18.8834 64.0459 17.7154C64.0459 16.5314 64.2859 15.5154 64.7659 14.6674C65.2619 13.8034 65.9579 13.1394 66.8539 12.6754C67.7499 12.1954 68.8059 11.9554 70.0219 11.9554C71.2379 11.9554 72.2699 12.1794 73.1179 12.6274C73.9819 13.0594 74.6379 13.6994 75.0859 14.5474C75.5339 15.3794 75.7579 16.3874 75.7579 17.5714C75.7579 17.7154 75.7499 17.8674 75.7339 18.0274C75.7339 18.1874 75.7259 18.3154 75.7099 18.4114H65.8219V16.4914H72.9979L72.1579 17.5954C72.2219 17.4994 72.2779 17.3714 72.3259 17.2114C72.3899 17.0354 72.4219 16.8914 72.4219 16.7794C72.4219 16.2354 72.3179 15.7714 72.1099 15.3874C71.9179 15.0034 71.6379 14.6994 71.2699 14.4754C70.9019 14.2514 70.4699 14.1394 69.9739 14.1394C69.3659 14.1394 68.8539 14.2754 68.4379 14.5474C68.0379 14.8034 67.7259 15.1954 67.5019 15.7234C67.2939 16.2354 67.1819 16.8754 67.1659 17.6434C67.1659 18.3794 67.2699 19.0034 67.4779 19.5154C67.7019 20.0274 68.0299 20.4194 68.4619 20.6914C68.8939 20.9634 69.4139 21.0994 70.0219 21.0994C70.7099 21.0994 71.2939 20.9714 71.7739 20.7154C72.2699 20.4434 72.6779 20.0434 72.9979 19.5154L75.7099 20.3554C75.1339 21.3954 74.3659 22.1794 73.4059 22.7074C72.4619 23.2194 71.3259 23.4754 69.9979 23.4754ZM87.5057 19.8034C87.5057 20.1234 87.5857 20.4034 87.7457 20.6434C87.9057 20.8674 88.1217 21.0434 88.3937 21.1714C88.6817 21.2834 88.9937 21.3394 89.3297 21.3394C89.8097 21.3394 90.2417 21.2434 90.6257 21.0514C91.0097 20.8434 91.3217 20.5554 91.5617 20.1874C91.8017 19.8034 91.9217 19.3474 91.9217 18.8194L92.3057 20.2594C92.3057 20.9634 92.1057 21.5554 91.7057 22.0354C91.3217 22.5154 90.8177 22.8754 90.1937 23.1154C89.5857 23.3554 88.9457 23.4754 88.2737 23.4754C87.5857 23.4754 86.9457 23.3394 86.3537 23.0674C85.7617 22.7954 85.2817 22.4034 84.9137 21.8914C84.5617 21.3634 84.3857 20.7234 84.3857 19.9714C84.3857 18.8994 84.7617 18.0514 85.5137 17.4274C86.2657 16.8034 87.3297 16.4914 88.7057 16.4914C89.4097 16.4914 90.0257 16.5634 90.5537 16.7074C91.0977 16.8514 91.5537 17.0274 91.9217 17.2354C92.2897 17.4434 92.5537 17.6434 92.7137 17.8354V19.2754C92.2817 18.9554 91.7937 18.7154 91.2497 18.5554C90.7217 18.3954 90.1617 18.3154 89.5697 18.3154C89.0897 18.3154 88.6977 18.3794 88.3937 18.5074C88.0897 18.6194 87.8657 18.7874 87.7217 19.0114C87.5777 19.2194 87.5057 19.4834 87.5057 19.8034ZM86.3057 15.3154L85.1537 13.2034C85.7297 12.8994 86.4337 12.6114 87.2657 12.3394C88.0977 12.0514 89.0257 11.9074 90.0497 11.9074C90.9937 11.9074 91.8337 12.0434 92.5697 12.3154C93.3057 12.5874 93.8817 12.9874 94.2977 13.5154C94.7137 14.0274 94.9217 14.6594 94.9217 15.4114V23.2354H91.9217V16.0594C91.9217 15.7554 91.8737 15.4994 91.7777 15.2914C91.6817 15.0674 91.5297 14.8834 91.3217 14.7394C91.1297 14.5954 90.8977 14.4914 90.6257 14.4274C90.3537 14.3634 90.0497 14.3314 89.7137 14.3314C89.2017 14.3314 88.7137 14.3874 88.2497 14.4994C87.7857 14.6114 87.3857 14.7474 87.0497 14.9074C86.7137 15.0674 86.4657 15.2034 86.3057 15.3154ZM100.861 12.1954V23.2354H97.8133V12.1954H100.861ZM104.101 15.4354C103.893 15.2434 103.677 15.0994 103.453 15.0034C103.245 14.8914 102.981 14.8354 102.661 14.8354C102.277 14.8354 101.949 14.9394 101.677 15.1474C101.405 15.3554 101.197 15.6514 101.053 16.0354C100.925 16.4034 100.861 16.8514 100.861 17.3794L99.9973 16.5154C99.9973 15.6354 100.165 14.8594 100.501 14.1874C100.837 13.4994 101.277 12.9554 101.821 12.5554C102.365 12.1394 102.925 11.9314 103.501 11.9314C103.901 11.9314 104.277 12.0034 104.629 12.1474C104.997 12.2914 105.293 12.5074 105.517 12.7954L104.101 15.4354ZM112.021 23.4754C110.821 23.4754 109.773 23.2354 108.877 22.7554C107.981 22.2754 107.285 21.6114 106.789 20.7634C106.309 19.8994 106.069 18.8834 106.069 17.7154C106.069 16.5314 106.309 15.5154 106.789 14.6674C107.285 13.8034 107.981 13.1394 108.877 12.6754C109.773 12.1954 110.829 11.9554 112.045 11.9554C113.261 11.9554 114.293 12.1794 115.141 12.6274C116.005 13.0594 116.661 13.6994 117.109 14.5474C117.557 15.3794 117.781 16.3874 117.781 17.5714C117.781 17.7154 117.773 17.8674 117.757 18.0274C117.757 18.1874 117.749 18.3154 117.733 18.4114H107.845V16.4914H115.021L114.181 17.5954C114.245 17.4994 114.301 17.3714 114.349 17.2114C114.413 17.0354 114.445 16.8914 114.445 16.7794C114.445 16.2354 114.341 15.7714 114.133 15.3874C113.941 15.0034 113.661 14.6994 113.293 14.4754C112.925 14.2514 112.493 14.1394 111.997 14.1394C111.389 14.1394 110.877 14.2754 110.461 14.5474C110.061 14.8034 109.749 15.1954 109.525 15.7234C109.317 16.2354 109.205 16.8754 109.189 17.6434C109.189 18.3794 109.293 19.0034 109.501 19.5154C109.725 20.0274 110.053 20.4194 110.485 20.6914C110.917 20.9634 111.437 21.0994 112.045 21.0994C112.733 21.0994 113.317 20.9714 113.797 20.7154C114.293 20.4434 114.701 20.0434 115.021 19.5154L117.733 20.3554C117.157 21.3954 116.389 22.1794 115.429 22.7074C114.485 23.2194 113.349 23.4754 112.021 23.4754ZM127.873 19.4194C128.337 19.8514 128.769 20.2034 129.169 20.4754C129.569 20.7314 129.945 20.9234 130.297 21.0514C130.665 21.1794 131.009 21.2434 131.329 21.2434C131.745 21.2434 132.065 21.1554 132.289 20.9794C132.513 20.7874 132.625 20.5314 132.625 20.2114C132.625 19.9234 132.529 19.6834 132.337 19.4914C132.161 19.2834 131.897 19.0994 131.545 18.9394C131.193 18.7794 130.745 18.6114 130.201 18.4354C129.689 18.2434 129.193 18.0194 128.713 17.7634C128.233 17.4914 127.833 17.1394 127.513 16.7074C127.209 16.2594 127.057 15.6914 127.057 15.0034C127.057 14.3474 127.233 13.7954 127.585 13.3474C127.937 12.8834 128.409 12.5394 129.001 12.3154C129.609 12.0754 130.281 11.9554 131.017 11.9554C131.641 11.9554 132.225 12.0354 132.769 12.1954C133.313 12.3554 133.817 12.5714 134.281 12.8434C134.745 13.0994 135.153 13.4034 135.505 13.7554L134.137 15.6754C133.737 15.2434 133.257 14.8914 132.697 14.6194C132.153 14.3474 131.617 14.2114 131.089 14.2114C130.737 14.2114 130.457 14.2834 130.249 14.4274C130.057 14.5554 129.961 14.7554 129.961 15.0274C129.961 15.2674 130.057 15.4834 130.249 15.6754C130.457 15.8514 130.745 16.0114 131.113 16.1554C131.497 16.2994 131.929 16.4754 132.409 16.6834C133.001 16.9074 133.545 17.1634 134.041 17.4514C134.553 17.7234 134.961 18.0674 135.265 18.4834C135.569 18.8994 135.721 19.4434 135.721 20.1154C135.721 21.2194 135.361 22.0834 134.641 22.7074C133.921 23.3154 132.929 23.6194 131.665 23.6194C130.881 23.6194 130.161 23.5154 129.505 23.3074C128.865 23.0994 128.281 22.8274 127.753 22.4914C127.241 22.1394 126.777 21.7634 126.361 21.3634L127.873 19.4194ZM136.452 12.1954H143.268V14.8114H136.452V12.1954ZM138.348 8.35535H141.348V23.2354H138.348V8.35535ZM144.179 17.7154C144.179 16.5634 144.443 15.5554 144.971 14.6914C145.515 13.8274 146.243 13.1554 147.155 12.6754C148.083 12.1954 149.131 11.9554 150.299 11.9554C151.467 11.9554 152.507 12.1954 153.419 12.6754C154.347 13.1554 155.075 13.8274 155.603 14.6914C156.147 15.5554 156.419 16.5634 156.419 17.7154C156.419 18.8514 156.147 19.8594 155.603 20.7394C155.075 21.6034 154.347 22.2754 153.419 22.7554C152.507 23.2354 151.467 23.4754 150.299 23.4754C149.131 23.4754 148.083 23.2354 147.155 22.7554C146.243 22.2754 145.515 21.6034 144.971 20.7394C144.443 19.8594 144.179 18.8514 144.179 17.7154ZM147.347 17.7154C147.347 18.3394 147.475 18.8914 147.731 19.3714C148.003 19.8354 148.363 20.2034 148.811 20.4754C149.259 20.7314 149.755 20.8594 150.299 20.8594C150.843 20.8594 151.339 20.7314 151.787 20.4754C152.235 20.2034 152.587 19.8354 152.843 19.3714C153.115 18.8914 153.251 18.3394 153.251 17.7154C153.251 17.0914 153.115 16.5394 152.843 16.0594C152.587 15.5794 152.235 15.2114 151.787 14.9554C151.339 14.6994 150.843 14.5714 150.299 14.5714C149.755 14.5714 149.259 14.6994 148.811 14.9554C148.363 15.2114 148.003 15.5794 147.731 16.0594C147.475 16.5394 147.347 17.0914 147.347 17.7154ZM161.799 12.1954V23.2354H158.751V12.1954H161.799ZM165.039 15.4354C164.831 15.2434 164.615 15.0994 164.391 15.0034C164.183 14.8914 163.919 14.8354 163.599 14.8354C163.215 14.8354 162.887 14.9394 162.615 15.1474C162.343 15.3554 162.135 15.6514 161.991 16.0354C161.863 16.4034 161.799 16.8514 161.799 17.3794L160.935 16.5154C160.935 15.6354 161.103 14.8594 161.439 14.1874C161.775 13.4994 162.215 12.9554 162.759 12.5554C163.303 12.1394 163.863 11.9314 164.439 11.9314C164.839 11.9314 165.215 12.0034 165.567 12.1474C165.935 12.2914 166.231 12.5074 166.455 12.7954L165.039 15.4354ZM179.341 12.1954L172.141 28.5154H168.949L171.733 22.1314L167.149 12.1954H170.605L174.157 20.9794L172.621 20.9314L176.101 12.1954H179.341ZM179.319 12.1954H186.135V14.8114H179.319V12.1954ZM181.215 8.35535H184.215V23.2354H181.215V8.35535ZM192.998 23.4754C191.798 23.4754 190.75 23.2354 189.854 22.7554C188.958 22.2754 188.262 21.6114 187.766 20.7634C187.286 19.8994 187.046 18.8834 187.046 17.7154C187.046 16.5314 187.286 15.5154 187.766 14.6674C188.262 13.8034 188.958 13.1394 189.854 12.6754C190.75 12.1954 191.806 11.9554 193.022 11.9554C194.238 11.9554 195.27 12.1794 196.118 12.6274C196.982 13.0594 197.638 13.6994 198.086 14.5474C198.534 15.3794 198.758 16.3874 198.758 17.5714C198.758 17.7154 198.75 17.8674 198.734 18.0274C198.734 18.1874 198.726 18.3154 198.71 18.4114H188.822V16.4914H195.998L195.158 17.5954C195.222 17.4994 195.278 17.3714 195.326 17.2114C195.39 17.0354 195.422 16.8914 195.422 16.7794C195.422 16.2354 195.318 15.7714 195.11 15.3874C194.918 15.0034 194.638 14.6994 194.27 14.4754C193.902 14.2514 193.47 14.1394 192.974 14.1394C192.366 14.1394 191.854 14.2754 191.438 14.5474C191.038 14.8034 190.726 15.1954 190.502 15.7234C190.294 16.2354 190.182 16.8754 190.166 17.6434C190.166 18.3794 190.27 19.0034 190.478 19.5154C190.702 20.0274 191.03 20.4194 191.462 20.6914C191.894 20.9634 192.414 21.0994 193.022 21.0994C193.71 21.0994 194.294 20.9714 194.774 20.7154C195.27 20.4434 195.678 20.0434 195.998 19.5154L198.71 20.3554C198.134 21.3954 197.366 22.1794 196.406 22.7074C195.462 23.2194 194.326 23.4754 192.998 23.4754ZM201.102 4.51535H204.222V23.2354H201.102V4.51535ZM207.29 4.51535H210.41V23.2354H207.29V4.51535ZM218.685 23.4754C217.485 23.4754 216.437 23.2354 215.541 22.7554C214.645 22.2754 213.949 21.6114 213.453 20.7634C212.973 19.8994 212.733 18.8834 212.733 17.7154C212.733 16.5314 212.973 15.5154 213.453 14.6674C213.949 13.8034 214.645 13.1394 215.541 12.6754C216.437 12.1954 217.493 11.9554 218.709 11.9554C219.925 11.9554 220.957 12.1794 221.805 12.6274C222.669 13.0594 223.325 13.6994 223.773 14.5474C224.221 15.3794 224.445 16.3874 224.445 17.5714C224.445 17.7154 224.437 17.8674 224.421 18.0274C224.421 18.1874 224.413 18.3154 224.397 18.4114H214.509V16.4914H221.685L220.845 17.5954C220.909 17.4994 220.965 17.3714 221.013 17.2114C221.077 17.0354 221.109 16.8914 221.109 16.7794C221.109 16.2354 221.005 15.7714 220.797 15.3874C220.605 15.0034 220.325 14.6994 219.957 14.4754C219.589 14.2514 219.157 14.1394 218.661 14.1394C218.053 14.1394 217.541 14.2754 217.125 14.5474C216.725 14.8034 216.413 15.1954 216.189 15.7234C215.981 16.2354 215.869 16.8754 215.853 17.6434C215.853 18.3794 215.957 19.0034 216.165 19.5154C216.389 20.0274 216.717 20.4194 217.149 20.6914C217.581 20.9634 218.101 21.0994 218.709 21.0994C219.397 21.0994 219.981 20.9714 220.461 20.7154C220.957 20.4434 221.365 20.0434 221.685 19.5154L224.397 20.3554C223.821 21.3954 223.053 22.1794 222.093 22.7074C221.149 23.2194 220.013 23.4754 218.685 23.4754ZM229.838 12.1954V23.2354H226.79V12.1954H229.838ZM233.078 15.4354C232.87 15.2434 232.654 15.0994 232.43 15.0034C232.222 14.8914 231.958 14.8354 231.638 14.8354C231.254 14.8354 230.926 14.9394 230.654 15.1474C230.382 15.3554 230.174 15.6514 230.03 16.0354C229.902 16.4034 229.838 16.8514 229.838 17.3794L228.974 16.5154C228.974 15.6354 229.142 14.8594 229.478 14.1874C229.814 13.4994 230.254 12.9554 230.798 12.5554C231.342 12.1394 231.902 11.9314 232.478 11.9314C232.878 11.9314 233.254 12.0034 233.606 12.1474C233.974 12.2914 234.27 12.5074 234.494 12.7954L233.078 15.4354ZM236.693 19.4194C237.157 19.8514 237.589 20.2034 237.989 20.4754C238.389 20.7314 238.765 20.9234 239.117 21.0514C239.485 21.1794 239.829 21.2434 240.149 21.2434C240.565 21.2434 240.885 21.1554 241.109 20.9794C241.333 20.7874 241.445 20.5314 241.445 20.2114C241.445 19.9234 241.349 19.6834 241.157 19.4914C240.981 19.2834 240.717 19.0994 240.365 18.9394C240.013 18.7794 239.565 18.6114 239.021 18.4354C238.509 18.2434 238.013 18.0194 237.533 17.7634C237.053 17.4914 236.653 17.1394 236.333 16.7074C236.029 16.2594 235.877 15.6914 235.877 15.0034C235.877 14.3474 236.053 13.7954 236.405 13.3474C236.757 12.8834 237.229 12.5394 237.821 12.3154C238.429 12.0754 239.101 11.9554 239.837 11.9554C240.461 11.9554 241.045 12.0354 241.589 12.1954C242.133 12.3554 242.637 12.5714 243.101 12.8434C243.565 13.0994 243.973 13.4034 244.325 13.7554L242.957 15.6754C242.557 15.2434 242.077 14.8914 241.517 14.6194C240.973 14.3474 240.437 14.2114 239.909 14.2114C239.557 14.2114 239.277 14.2834 239.069 14.4274C238.877 14.5554 238.781 14.7554 238.781 15.0274C238.781 15.2674 238.877 15.4834 239.069 15.6754C239.277 15.8514 239.565 16.0114 239.933 16.1554C240.317 16.2994 240.749 16.4754 241.229 16.6834C241.821 16.9074 242.365 17.1634 242.861 17.4514C243.373 17.7234 243.781 18.0674 244.085 18.4834C244.389 18.8994 244.541 19.4434 244.541 20.1154C244.541 21.2194 244.181 22.0834 243.461 22.7074C242.741 23.3154 241.749 23.6194 240.485 23.6194C239.701 23.6194 238.981 23.5154 238.325 23.3074C237.685 23.0994 237.101 22.8274 236.573 22.4914C236.061 22.1394 235.597 21.7634 235.181 21.3634L236.693 19.4194ZM257.7 14.2354C257.364 13.8514 257.012 13.4514 256.644 13.0354C256.276 12.6194 255.956 12.1714 255.684 11.6914C255.428 11.2114 255.3 10.6834 255.3 10.1074C255.3 9.38735 255.5 8.72335 255.9 8.11535C256.3 7.49135 256.86 6.99535 257.58 6.62735C258.3 6.25935 259.156 6.07535 260.148 6.07535C261.124 6.07535 261.956 6.26735 262.644 6.65135C263.332 7.03535 263.852 7.53135 264.204 8.13935C264.556 8.73135 264.732 9.36335 264.732 10.0354C264.732 10.5474 264.644 11.0034 264.468 11.4034C264.292 11.8034 264.036 12.1874 263.7 12.5554C263.364 12.9234 262.956 13.2834 262.476 13.6354C261.996 13.9874 261.436 14.3714 260.796 14.7874C260.364 15.0594 259.9 15.3154 259.404 15.5554C258.924 15.7794 258.468 16.0194 258.036 16.2754C257.604 16.5314 257.252 16.8354 256.98 17.1874C256.708 17.5394 256.572 17.9794 256.572 18.5074C256.572 18.9554 256.684 19.3634 256.908 19.7314C257.148 20.0834 257.476 20.3634 257.892 20.5714C258.324 20.7634 258.828 20.8594 259.404 20.8594C260.108 20.8594 260.796 20.7154 261.468 20.4274C262.156 20.1234 262.812 19.7154 263.436 19.2034C264.076 18.6754 264.684 18.0754 265.26 17.4034C265.836 16.7154 266.38 15.9954 266.892 15.2434L269.028 16.8034C268.468 17.5874 267.844 18.3794 267.156 19.1794C266.484 19.9794 265.732 20.7074 264.9 21.3634C264.084 22.0034 263.188 22.5234 262.212 22.9234C261.236 23.3234 260.172 23.5234 259.02 23.5234C257.996 23.5234 257.052 23.3314 256.188 22.9474C255.324 22.5634 254.628 22.0194 254.1 21.3154C253.572 20.5954 253.308 19.7474 253.308 18.7714C253.308 18.0194 253.452 17.3714 253.74 16.8274C254.028 16.2834 254.396 15.8194 254.844 15.4354C255.292 15.0354 255.78 14.6994 256.308 14.4274C256.836 14.1554 257.34 13.9234 257.82 13.7314C258.316 13.5234 258.732 13.3394 259.068 13.1794C259.964 12.7154 260.652 12.2354 261.132 11.7394C261.612 11.2274 261.852 10.7394 261.852 10.2754C261.852 9.97135 261.78 9.69135 261.636 9.43535C261.508 9.17935 261.316 8.97935 261.06 8.83535C260.804 8.67535 260.492 8.59535 260.124 8.59535C259.548 8.59535 259.108 8.76335 258.804 9.09935C258.5 9.41935 258.348 9.80335 258.348 10.2514C258.348 10.7474 258.556 11.2434 258.972 11.7394C259.404 12.2194 259.916 12.7874 260.508 13.4434L269.388 23.2354H265.812L257.7 14.2354ZM62.3554 45.5154C62.3554 44.7794 62.2114 44.2194 61.9234 43.8354C61.6354 43.4514 61.1714 43.2594 60.5314 43.2594C60.0994 43.2594 59.7154 43.3554 59.3794 43.5474C59.0434 43.7234 58.7874 43.9794 58.6114 44.3154C58.4354 44.6514 58.3474 45.0514 58.3474 45.5154V52.2354H55.2274V41.1954H58.3474V42.8754C58.6834 42.2514 59.1234 41.7794 59.6674 41.4594C60.2274 41.1234 60.8994 40.9554 61.6834 40.9554C62.9954 40.9554 63.9714 41.3314 64.6114 42.0834C65.2514 42.8194 65.5714 43.8514 65.5714 45.1794V52.2354H62.3554V45.5154ZM67.8897 46.7154C67.8897 45.5634 68.1537 44.5554 68.6817 43.6914C69.2257 42.8274 69.9537 42.1554 70.8657 41.6754C71.7937 41.1954 72.8417 40.9554 74.0097 40.9554C75.1777 40.9554 76.2177 41.1954 77.1297 41.6754C78.0577 42.1554 78.7857 42.8274 79.3137 43.6914C79.8577 44.5554 80.1297 45.5634 80.1297 46.7154C80.1297 47.8514 79.8577 48.8594 79.3137 49.7394C78.7857 50.6034 78.0577 51.2754 77.1297 51.7554C76.2177 52.2354 75.1777 52.4754 74.0097 52.4754C72.8417 52.4754 71.7937 52.2354 70.8657 51.7554C69.9537 51.2754 69.2257 50.6034 68.6817 49.7394C68.1537 48.8594 67.8897 47.8514 67.8897 46.7154ZM71.0577 46.7154C71.0577 47.3394 71.1857 47.8914 71.4417 48.3714C71.7137 48.8354 72.0737 49.2034 72.5217 49.4754C72.9697 49.7314 73.4657 49.8594 74.0097 49.8594C74.5537 49.8594 75.0497 49.7314 75.4977 49.4754C75.9457 49.2034 76.2977 48.8354 76.5537 48.3714C76.8257 47.8914 76.9617 47.3394 76.9617 46.7154C76.9617 46.0914 76.8257 45.5394 76.5537 45.0594C76.2977 44.5794 75.9457 44.2114 75.4977 43.9554C75.0497 43.6994 74.5537 43.5714 74.0097 43.5714C73.4657 43.5714 72.9697 43.6994 72.5217 43.9554C72.0737 44.2114 71.7137 44.5794 71.4417 45.0594C71.1857 45.5394 71.0577 46.0914 71.0577 46.7154ZM89.5898 45.5154C89.5898 44.7794 89.4458 44.2194 89.1578 43.8354C88.8698 43.4514 88.4058 43.2594 87.7658 43.2594C87.3338 43.2594 86.9498 43.3554 86.6138 43.5474C86.2778 43.7234 86.0218 43.9794 85.8458 44.3154C85.6698 44.6514 85.5818 45.0514 85.5818 45.5154V52.2354H82.4618V41.1954H85.5818V42.8754C85.9178 42.2514 86.3578 41.7794 86.9018 41.4594C87.4618 41.1234 88.1338 40.9554 88.9178 40.9554C90.2298 40.9554 91.2058 41.3314 91.8458 42.0834C92.4858 42.8194 92.8058 43.8514 92.8058 45.1794V52.2354H89.5898V45.5154ZM98.916 57.5154H95.796V41.1954H98.916V57.5154ZM107.988 46.7154C107.988 47.9634 107.74 49.0274 107.244 49.9074C106.748 50.7874 106.092 51.4514 105.276 51.8994C104.476 52.3474 103.612 52.5714 102.684 52.5714C101.74 52.5714 100.916 52.3314 100.212 51.8514C99.524 51.3714 98.988 50.6914 98.604 49.8114C98.236 48.9314 98.052 47.8994 98.052 46.7154C98.052 45.5154 98.236 44.4834 98.604 43.6194C98.988 42.7394 99.524 42.0594 100.212 41.5794C100.916 41.0994 101.74 40.8594 102.684 40.8594C103.612 40.8594 104.476 41.0834 105.276 41.5314C106.092 41.9794 106.748 42.6434 107.244 43.5234C107.74 44.3874 107.988 45.4514 107.988 46.7154ZM104.772 46.7154C104.772 46.0594 104.636 45.4994 104.364 45.0354C104.092 44.5714 103.724 44.2194 103.26 43.9794C102.812 43.7394 102.316 43.6194 101.772 43.6194C101.308 43.6194 100.852 43.7394 100.404 43.9794C99.972 44.2034 99.612 44.5474 99.324 45.0114C99.052 45.4754 98.916 46.0434 98.916 46.7154C98.916 47.3874 99.052 47.9554 99.324 48.4194C99.612 48.8834 99.972 49.2354 100.404 49.4754C100.852 49.6994 101.308 49.8114 101.772 49.8114C102.316 49.8114 102.812 49.6914 103.26 49.4514C103.724 49.2114 104.092 48.8594 104.364 48.3954C104.636 47.9314 104.772 47.3714 104.772 46.7154ZM113.354 41.1954V52.2354H110.306V41.1954H113.354ZM116.594 44.4354C116.386 44.2434 116.17 44.0994 115.946 44.0034C115.738 43.8914 115.474 43.8354 115.154 43.8354C114.77 43.8354 114.442 43.9394 114.17 44.1474C113.898 44.3554 113.69 44.6514 113.546 45.0354C113.418 45.4034 113.354 45.8514 113.354 46.3794L112.49 45.5154C112.49 44.6354 112.658 43.8594 112.994 43.1874C113.33 42.4994 113.77 41.9554 114.314 41.5554C114.858 41.1394 115.418 40.9314 115.994 40.9314C116.394 40.9314 116.77 41.0034 117.122 41.1474C117.49 41.2914 117.786 41.5074 118.01 41.7954L116.594 44.4354ZM118.562 46.7154C118.562 45.5634 118.826 44.5554 119.354 43.6914C119.898 42.8274 120.626 42.1554 121.538 41.6754C122.466 41.1954 123.514 40.9554 124.682 40.9554C125.85 40.9554 126.89 41.1954 127.802 41.6754C128.73 42.1554 129.458 42.8274 129.986 43.6914C130.53 44.5554 130.802 45.5634 130.802 46.7154C130.802 47.8514 130.53 48.8594 129.986 49.7394C129.458 50.6034 128.73 51.2754 127.802 51.7554C126.89 52.2354 125.85 52.4754 124.682 52.4754C123.514 52.4754 122.466 52.2354 121.538 51.7554C120.626 51.2754 119.898 50.6034 119.354 49.7394C118.826 48.8594 118.562 47.8514 118.562 46.7154ZM121.73 46.7154C121.73 47.3394 121.858 47.8914 122.114 48.3714C122.386 48.8354 122.746 49.2034 123.194 49.4754C123.642 49.7314 124.138 49.8594 124.682 49.8594C125.226 49.8594 125.722 49.7314 126.17 49.4754C126.618 49.2034 126.97 48.8354 127.226 48.3714C127.498 47.8914 127.634 47.3394 127.634 46.7154C127.634 46.0914 127.498 45.5394 127.226 45.0594C126.97 44.5794 126.618 44.2114 126.17 43.9554C125.722 43.6994 125.226 43.5714 124.682 43.5714C124.138 43.5714 123.642 43.6994 123.194 43.9554C122.746 44.2114 122.386 44.5794 122.114 45.0594C121.858 45.5394 121.73 46.0914 121.73 46.7154ZM132.198 41.1954H139.11V43.8114H132.198V41.1954ZM138.774 36.6354C138.614 36.3954 138.43 36.2354 138.222 36.1554C138.03 36.0594 137.838 36.0114 137.646 36.0114C137.406 36.0114 137.198 36.0754 137.022 36.2034C136.862 36.3154 136.734 36.5074 136.638 36.7794C136.542 37.0514 136.494 37.3954 136.494 37.8114V52.2354H133.494V37.1154C133.494 36.2674 133.638 35.5554 133.926 34.9794C134.214 34.4034 134.646 33.9634 135.222 33.6594C135.798 33.3394 136.502 33.1794 137.334 33.1794C137.83 33.1794 138.254 33.2434 138.606 33.3714C138.958 33.4834 139.254 33.6274 139.494 33.8034C139.75 33.9794 139.95 34.1474 140.094 34.3074L138.774 36.6354ZM140.818 36.9234C140.818 36.4114 141.002 35.9954 141.37 35.6754C141.738 35.3394 142.178 35.1714 142.69 35.1714C143.202 35.1714 143.634 35.3394 143.986 35.6754C144.354 35.9954 144.538 36.4114 144.538 36.9234C144.538 37.4194 144.354 37.8354 143.986 38.1714C143.634 38.5074 143.202 38.6754 142.69 38.6754C142.178 38.6754 141.738 38.5074 141.37 38.1714C141.002 37.8354 140.818 37.4194 140.818 36.9234ZM141.154 41.1954H144.178V52.2354H141.154V41.1954ZM146.061 41.1954H152.877V43.8114H146.061V41.1954ZM147.957 37.3554H150.957V52.2354H147.957V37.3554ZM160.791 41.1954H167.703V43.8114H160.791V41.1954ZM167.367 36.6354C167.207 36.3954 167.023 36.2354 166.815 36.1554C166.623 36.0594 166.431 36.0114 166.239 36.0114C165.999 36.0114 165.791 36.0754 165.615 36.2034C165.455 36.3154 165.327 36.5074 165.231 36.7794C165.135 37.0514 165.087 37.3954 165.087 37.8114V52.2354H162.087V37.1154C162.087 36.2674 162.231 35.5554 162.519 34.9794C162.807 34.4034 163.239 33.9634 163.815 33.6594C164.391 33.3394 165.095 33.1794 165.927 33.1794C166.423 33.1794 166.847 33.2434 167.199 33.3714C167.551 33.4834 167.847 33.6274 168.087 33.8034C168.343 33.9794 168.543 34.1474 168.687 34.3074L167.367 36.6354ZM168.812 46.7154C168.812 45.5634 169.076 44.5554 169.604 43.6914C170.148 42.8274 170.876 42.1554 171.788 41.6754C172.716 41.1954 173.764 40.9554 174.932 40.9554C176.1 40.9554 177.14 41.1954 178.052 41.6754C178.98 42.1554 179.708 42.8274 180.236 43.6914C180.78 44.5554 181.052 45.5634 181.052 46.7154C181.052 47.8514 180.78 48.8594 180.236 49.7394C179.708 50.6034 178.98 51.2754 178.052 51.7554C177.14 52.2354 176.1 52.4754 174.932 52.4754C173.764 52.4754 172.716 52.2354 171.788 51.7554C170.876 51.2754 170.148 50.6034 169.604 49.7394C169.076 48.8594 168.812 47.8514 168.812 46.7154ZM171.98 46.7154C171.98 47.3394 172.108 47.8914 172.364 48.3714C172.636 48.8354 172.996 49.2034 173.444 49.4754C173.892 49.7314 174.388 49.8594 174.932 49.8594C175.476 49.8594 175.972 49.7314 176.42 49.4754C176.868 49.2034 177.22 48.8354 177.476 48.3714C177.748 47.8914 177.884 47.3394 177.884 46.7154C177.884 46.0914 177.748 45.5394 177.476 45.0594C177.22 44.5794 176.868 44.2114 176.42 43.9554C175.972 43.6994 175.476 43.5714 174.932 43.5714C174.388 43.5714 173.892 43.6994 173.444 43.9554C172.996 44.2114 172.636 44.5794 172.364 45.0594C172.108 45.5394 171.98 46.0914 171.98 46.7154ZM186.6 47.9154C186.6 48.6354 186.744 49.1954 187.032 49.5954C187.32 49.9794 187.784 50.1714 188.424 50.1714C188.872 50.1714 189.256 50.0834 189.576 49.9074C189.912 49.7154 190.168 49.4514 190.344 49.1154C190.536 48.7794 190.632 48.3794 190.632 47.9154V41.1954H193.728V52.2354H190.632V50.5554C190.28 51.1794 189.832 51.6594 189.288 51.9954C188.744 52.3154 188.08 52.4754 187.296 52.4754C185.984 52.4754 185 52.0994 184.344 51.3474C183.704 50.5954 183.384 49.5634 183.384 48.2514V41.1954H186.6V47.9154ZM203.918 45.5154C203.918 44.7794 203.774 44.2194 203.486 43.8354C203.198 43.4514 202.734 43.2594 202.094 43.2594C201.662 43.2594 201.278 43.3554 200.942 43.5474C200.606 43.7234 200.35 43.9794 200.174 44.3154C199.998 44.6514 199.91 45.0514 199.91 45.5154V52.2354H196.79V41.1954H199.91V42.8754C200.246 42.2514 200.686 41.7794 201.23 41.4594C201.79 41.1234 202.462 40.9554 203.246 40.9554C204.558 40.9554 205.534 41.3314 206.174 42.0834C206.814 42.8194 207.134 43.8514 207.134 45.1794V52.2354H203.918V45.5154ZM218.524 33.5154H221.644V52.2354H218.524V33.5154ZM209.452 46.7154C209.452 45.4834 209.7 44.4434 210.196 43.5954C210.692 42.7314 211.348 42.0754 212.164 41.6274C212.98 41.1794 213.844 40.9554 214.756 40.9554C215.684 40.9554 216.5 41.1874 217.204 41.6514C217.924 42.1154 218.484 42.7794 218.884 43.6434C219.3 44.4914 219.508 45.5154 219.508 46.7154C219.508 47.8994 219.3 48.9234 218.884 49.7874C218.484 50.6514 217.924 51.3154 217.204 51.7794C216.5 52.2434 215.684 52.4754 214.756 52.4754C213.844 52.4754 212.98 52.2514 212.164 51.8034C211.348 51.3554 210.692 50.6994 210.196 49.8354C209.7 48.9714 209.452 47.9314 209.452 46.7154ZM212.668 46.7154C212.668 47.3714 212.804 47.9394 213.076 48.4194C213.348 48.8994 213.716 49.2674 214.18 49.5234C214.644 49.7794 215.14 49.9074 215.668 49.9074C216.132 49.9074 216.58 49.7874 217.012 49.5474C217.46 49.2914 217.82 48.9234 218.092 48.4434C218.38 47.9634 218.524 47.3874 218.524 46.7154C218.524 46.0434 218.38 45.4674 218.092 44.9874C217.82 44.5074 217.46 44.1474 217.012 43.9074C216.58 43.6514 216.132 43.5234 215.668 43.5234C215.14 43.5234 214.644 43.6514 214.18 43.9074C213.716 44.1634 213.348 44.5314 213.076 45.0114C212.804 45.4914 212.668 46.0594 212.668 46.7154ZM229.842 52.4754C228.642 52.4754 227.594 52.2354 226.698 51.7554C225.802 51.2754 225.106 50.6114 224.61 49.7634C224.13 48.8994 223.89 47.8834 223.89 46.7154C223.89 45.5314 224.13 44.5154 224.61 43.6674C225.106 42.8034 225.802 42.1394 226.698 41.6754C227.594 41.1954 228.65 40.9554 229.866 40.9554C231.082 40.9554 232.114 41.1794 232.962 41.6274C233.826 42.0594 234.482 42.6994 234.93 43.5474C235.378 44.3794 235.602 45.3874 235.602 46.5714C235.602 46.7154 235.594 46.8674 235.578 47.0274C235.578 47.1874 235.57 47.3154 235.554 47.4114H225.666V45.4914H232.842L232.002 46.5954C232.066 46.4994 232.122 46.3714 232.17 46.2114C232.234 46.0354 232.266 45.8914 232.266 45.7794C232.266 45.2354 232.162 44.7714 231.954 44.3874C231.762 44.0034 231.482 43.6994 231.114 43.4754C230.746 43.2514 230.314 43.1394 229.818 43.1394C229.21 43.1394 228.698 43.2754 228.282 43.5474C227.882 43.8034 227.57 44.1954 227.346 44.7234C227.138 45.2354 227.026 45.8754 227.01 46.6434C227.01 47.3794 227.114 48.0034 227.322 48.5154C227.546 49.0274 227.874 49.4194 228.306 49.6914C228.738 49.9634 229.258 50.0994 229.866 50.0994C230.554 50.0994 231.138 49.9714 231.618 49.7154C232.114 49.4434 232.522 49.0434 232.842 48.5154L235.554 49.3554C234.978 50.3954 234.21 51.1794 233.25 51.7074C232.306 52.2194 231.17 52.4754 229.842 52.4754ZM240.994 41.1954V52.2354H237.946V41.1954H240.994ZM244.234 44.4354C244.026 44.2434 243.81 44.0994 243.586 44.0034C243.378 43.8914 243.114 43.8354 242.794 43.8354C242.41 43.8354 242.082 43.9394 241.81 44.1474C241.538 44.3554 241.33 44.6514 241.186 45.0354C241.058 45.4034 240.994 45.8514 240.994 46.3794L240.13 45.5154C240.13 44.6354 240.298 43.8594 240.634 43.1874C240.97 42.4994 241.41 41.9554 241.954 41.5554C242.498 41.1394 243.058 40.9314 243.634 40.9314C244.034 40.9314 244.41 41.0034 244.762 41.1474C245.13 41.2914 245.426 41.5074 245.65 41.7954L244.234 44.4354ZM247.85 48.4194C248.314 48.8514 248.746 49.2034 249.146 49.4754C249.546 49.7314 249.922 49.9234 250.274 50.0514C250.642 50.1794 250.986 50.2434 251.306 50.2434C251.722 50.2434 252.042 50.1554 252.266 49.9794C252.49 49.7874 252.602 49.5314 252.602 49.2114C252.602 48.9234 252.506 48.6834 252.314 48.4914C252.138 48.2834 251.874 48.0994 251.522 47.9394C251.17 47.7794 250.722 47.6114 250.178 47.4354C249.666 47.2434 249.17 47.0194 248.69 46.7634C248.21 46.4914 247.81 46.1394 247.49 45.7074C247.186 45.2594 247.034 44.6914 247.034 44.0034C247.034 43.3474 247.21 42.7954 247.562 42.3474C247.914 41.8834 248.386 41.5394 248.978 41.3154C249.586 41.0754 250.258 40.9554 250.994 40.9554C251.618 40.9554 252.202 41.0354 252.746 41.1954C253.29 41.3554 253.794 41.5714 254.258 41.8434C254.722 42.0994 255.13 42.4034 255.482 42.7554L254.114 44.6754C253.714 44.2434 253.234 43.8914 252.674 43.6194C252.13 43.3474 251.594 43.2114 251.066 43.2114C250.714 43.2114 250.434 43.2834 250.226 43.4274C250.034 43.5554 249.938 43.7554 249.938 44.0274C249.938 44.2674 250.034 44.4834 250.226 44.6754C250.434 44.8514 250.722 45.0114 251.09 45.1554C251.474 45.2994 251.906 45.4754 252.386 45.6834C252.978 45.9074 253.522 46.1634 254.018 46.4514C254.53 46.7234 254.938 47.0674 255.242 47.4834C255.546 47.8994 255.698 48.4434 255.698 49.1154C255.698 50.2194 255.338 51.0834 254.618 51.7074C253.898 52.3154 252.906 52.6194 251.642 52.6194C250.858 52.6194 250.138 52.5154 249.482 52.3074C248.842 52.0994 248.258 51.8274 247.73 51.4914C247.218 51.1394 246.754 50.7634 246.338 50.3634L247.85 48.4194ZM104.722 75.7154C104.722 74.5634 104.986 73.5554 105.514 72.6914C106.058 71.8274 106.786 71.1554 107.698 70.6754C108.626 70.1954 109.674 69.9554 110.842 69.9554C112.01 69.9554 113.05 70.1954 113.962 70.6754C114.89 71.1554 115.618 71.8274 116.146 72.6914C116.69 73.5554 116.962 74.5634 116.962 75.7154C116.962 76.8514 116.69 77.8594 116.146 78.7394C115.618 79.6034 114.89 80.2754 113.962 80.7554C113.05 81.2354 112.01 81.4754 110.842 81.4754C109.674 81.4754 108.626 81.2354 107.698 80.7554C106.786 80.2754 106.058 79.6034 105.514 78.7394C104.986 77.8594 104.722 76.8514 104.722 75.7154ZM107.89 75.7154C107.89 76.3394 108.018 76.8914 108.274 77.3714C108.546 77.8354 108.906 78.2034 109.354 78.4754C109.802 78.7314 110.298 78.8594 110.842 78.8594C111.386 78.8594 111.882 78.7314 112.33 78.4754C112.778 78.2034 113.13 77.8354 113.386 77.3714C113.658 76.8914 113.794 76.3394 113.794 75.7154C113.794 75.0914 113.658 74.5394 113.386 74.0594C113.13 73.5794 112.778 73.2114 112.33 72.9554C111.882 72.6994 111.386 72.5714 110.842 72.5714C110.298 72.5714 109.802 72.6994 109.354 72.9554C108.906 73.2114 108.546 73.5794 108.274 74.0594C108.018 74.5394 107.89 75.0914 107.89 75.7154ZM122.51 76.9154C122.51 77.6354 122.654 78.1954 122.942 78.5954C123.23 78.9794 123.694 79.1714 124.334 79.1714C124.782 79.1714 125.166 79.0834 125.486 78.9074C125.822 78.7154 126.078 78.4514 126.254 78.1154C126.446 77.7794 126.542 77.3794 126.542 76.9154V70.1954H129.638V81.2354H126.542V79.5554C126.19 80.1794 125.742 80.6594 125.198 80.9954C124.654 81.3154 123.99 81.4754 123.206 81.4754C121.894 81.4754 120.91 81.0994 120.254 80.3474C119.614 79.5954 119.294 78.5634 119.294 77.2514V70.1954H122.51V76.9154ZM135.748 70.1954V81.2354H132.7V70.1954H135.748ZM138.988 73.4354C138.78 73.2434 138.564 73.0994 138.34 73.0034C138.132 72.8914 137.868 72.8354 137.548 72.8354C137.164 72.8354 136.836 72.9394 136.564 73.1474C136.292 73.3554 136.084 73.6514 135.94 74.0354C135.812 74.4034 135.748 74.8514 135.748 75.3794L134.884 74.5154C134.884 73.6354 135.052 72.8594 135.388 72.1874C135.724 71.4994 136.164 70.9554 136.708 70.5554C137.252 70.1394 137.812 69.9314 138.388 69.9314C138.788 69.9314 139.164 70.0034 139.516 70.1474C139.884 70.2914 140.18 70.5074 140.404 70.7954L138.988 73.4354ZM142.604 77.4194C143.068 77.8514 143.5 78.2034 143.9 78.4754C144.3 78.7314 144.676 78.9234 145.028 79.0514C145.396 79.1794 145.74 79.2434 146.06 79.2434C146.476 79.2434 146.796 79.1554 147.02 78.9794C147.244 78.7874 147.356 78.5314 147.356 78.2114C147.356 77.9234 147.26 77.6834 147.068 77.4914C146.892 77.2834 146.628 77.0994 146.276 76.9394C145.924 76.7794 145.476 76.6114 144.932 76.4354C144.42 76.2434 143.924 76.0194 143.444 75.7634C142.964 75.4914 142.564 75.1394 142.244 74.7074C141.94 74.2594 141.788 73.6914 141.788 73.0034C141.788 72.3474 141.964 71.7954 142.316 71.3474C142.668 70.8834 143.14 70.5394 143.732 70.3154C144.34 70.0754 145.012 69.9554 145.748 69.9554C146.372 69.9554 146.956 70.0354 147.5 70.1954C148.044 70.3554 148.548 70.5714 149.012 70.8434C149.476 71.0994 149.884 71.4034 150.236 71.7554L148.868 73.6754C148.468 73.2434 147.988 72.8914 147.428 72.6194C146.884 72.3474 146.348 72.2114 145.82 72.2114C145.468 72.2114 145.188 72.2834 144.98 72.4274C144.788 72.5554 144.692 72.7554 144.692 73.0274C144.692 73.2674 144.788 73.4834 144.98 73.6754C145.188 73.8514 145.476 74.0114 145.844 74.1554C146.228 74.2994 146.66 74.4754 147.14 74.6834C147.732 74.9074 148.276 75.1634 148.772 75.4514C149.284 75.7234 149.692 76.0674 149.996 76.4834C150.3 76.8994 150.452 77.4434 150.452 78.1154C150.452 79.2194 150.092 80.0834 149.372 80.7074C148.652 81.3154 147.66 81.6194 146.396 81.6194C145.612 81.6194 144.892 81.5154 144.236 81.3074C143.596 81.0994 143.012 80.8274 142.484 80.4914C141.972 80.1394 141.508 79.7634 141.092 79.3634L142.604 77.4194ZM157.807 81.4754C156.607 81.4754 155.559 81.2354 154.663 80.7554C153.767 80.2754 153.071 79.6114 152.575 78.7634C152.095 77.8994 151.854 76.8834 151.854 75.7154C151.854 74.5314 152.095 73.5154 152.575 72.6674C153.071 71.8034 153.767 71.1394 154.663 70.6754C155.559 70.1954 156.615 69.9554 157.831 69.9554C159.047 69.9554 160.079 70.1794 160.927 70.6274C161.791 71.0594 162.447 71.6994 162.895 72.5474C163.343 73.3794 163.567 74.3874 163.567 75.5714C163.567 75.7154 163.559 75.8674 163.543 76.0274C163.543 76.1874 163.535 76.3154 163.519 76.4114H153.631V74.4914H160.807L159.967 75.5954C160.031 75.4994 160.087 75.3714 160.135 75.2114C160.199 75.0354 160.231 74.8914 160.231 74.7794C160.231 74.2354 160.127 73.7714 159.919 73.3874C159.727 73.0034 159.447 72.6994 159.079 72.4754C158.711 72.2514 158.279 72.1394 157.783 72.1394C157.175 72.1394 156.663 72.2754 156.247 72.5474C155.847 72.8034 155.535 73.1954 155.311 73.7234C155.103 74.2354 154.991 74.8754 154.975 75.6434C154.975 76.3794 155.079 77.0034 155.287 77.5154C155.511 78.0274 155.839 78.4194 156.271 78.6914C156.703 78.9634 157.223 79.0994 157.831 79.0994C158.519 79.0994 159.103 78.9714 159.583 78.7154C160.079 78.4434 160.487 78.0434 160.807 77.5154L163.519 78.3554C162.943 79.3954 162.175 80.1794 161.215 80.7074C160.271 81.2194 159.135 81.4754 157.807 81.4754ZM165.911 62.5154H169.031V81.2354H165.911V62.5154ZM170.514 70.1954H173.851L176.562 76.8434L179.275 70.1954H182.611L176.562 82.3874L170.514 70.1954ZM188.955 81.4754C187.755 81.4754 186.707 81.2354 185.811 80.7554C184.915 80.2754 184.219 79.6114 183.723 78.7634C183.243 77.8994 183.003 76.8834 183.003 75.7154C183.003 74.5314 183.243 73.5154 183.723 72.6674C184.219 71.8034 184.915 71.1394 185.811 70.6754C186.707 70.1954 187.763 69.9554 188.979 69.9554C190.195 69.9554 191.227 70.1794 192.075 70.6274C192.939 71.0594 193.595 71.6994 194.043 72.5474C194.491 73.3794 194.715 74.3874 194.715 75.5714C194.715 75.7154 194.707 75.8674 194.691 76.0274C194.691 76.1874 194.683 76.3154 194.667 76.4114H184.779V74.4914H191.955L191.115 75.5954C191.179 75.4994 191.235 75.3714 191.283 75.2114C191.347 75.0354 191.379 74.8914 191.379 74.7794C191.379 74.2354 191.275 73.7714 191.067 73.3874C190.875 73.0034 190.595 72.6994 190.227 72.4754C189.859 72.2514 189.427 72.1394 188.931 72.1394C188.323 72.1394 187.811 72.2754 187.395 72.5474C186.995 72.8034 186.683 73.1954 186.459 73.7234C186.251 74.2354 186.139 74.8754 186.123 75.6434C186.123 76.3794 186.227 77.0034 186.435 77.5154C186.659 78.0274 186.987 78.4194 187.419 78.6914C187.851 78.9634 188.371 79.0994 188.979 79.0994C189.667 79.0994 190.251 78.9714 190.731 78.7154C191.227 78.4434 191.635 78.0434 191.955 77.5154L194.667 78.3554C194.091 79.3954 193.323 80.1794 192.363 80.7074C191.419 81.2194 190.283 81.4754 188.955 81.4754ZM197.611 77.4194C198.075 77.8514 198.507 78.2034 198.907 78.4754C199.307 78.7314 199.683 78.9234 200.035 79.0514C200.403 79.1794 200.747 79.2434 201.067 79.2434C201.483 79.2434 201.803 79.1554 202.027 78.9794C202.251 78.7874 202.363 78.5314 202.363 78.2114C202.363 77.9234 202.267 77.6834 202.075 77.4914C201.899 77.2834 201.635 77.0994 201.283 76.9394C200.931 76.7794 200.483 76.6114 199.939 76.4354C199.427 76.2434 198.931 76.0194 198.451 75.7634C197.971 75.4914 197.571 75.1394 197.251 74.7074C196.947 74.2594 196.795 73.6914 196.795 73.0034C196.795 72.3474 196.971 71.7954 197.323 71.3474C197.675 70.8834 198.147 70.5394 198.739 70.3154C199.347 70.0754 200.019 69.9554 200.755 69.9554C201.379 69.9554 201.963 70.0354 202.507 70.1954C203.051 70.3554 203.555 70.5714 204.019 70.8434C204.483 71.0994 204.891 71.4034 205.243 71.7554L203.875 73.6754C203.475 73.2434 202.995 72.8914 202.435 72.6194C201.891 72.3474 201.355 72.2114 200.827 72.2114C200.475 72.2114 200.195 72.2834 199.987 72.4274C199.795 72.5554 199.699 72.7554 199.699 73.0274C199.699 73.2674 199.795 73.4834 199.987 73.6754C200.195 73.8514 200.483 74.0114 200.851 74.1554C201.235 74.2994 201.667 74.4754 202.147 74.6834C202.739 74.9074 203.283 75.1634 203.779 75.4514C204.291 75.7234 204.699 76.0674 205.003 76.4834C205.307 76.8994 205.459 77.4434 205.459 78.1154C205.459 79.2194 205.099 80.0834 204.379 80.7074C203.659 81.3154 202.667 81.6194 201.403 81.6194C200.619 81.6194 199.899 81.5154 199.243 81.3074C198.603 81.0994 198.019 80.8274 197.491 80.4914C196.979 80.1394 196.515 79.7634 196.099 79.3634L197.611 77.4194Z" fill="#091818"/>
<path d="M230.897 95.5968C231.102 95.7498 230.966 95.9028 230.798 95.9967C230.68 96.0627 230.541 96.1079 230.414 96.1601L230.16 96.3826L229.978 96.0731C229.415 95.8854 229.34 95.8889 229.389 96.0836C229.433 96.254 229.574 96.5043 229.334 96.4835C228.347 96.393 227.651 97.0328 226.666 96.932L227.027 96.4974L227.114 96.4487L227.004 96.473C226.71 96.5321 226.265 96.5078 226.623 96.9424C226.635 97.3075 226.401 97.4466 225.962 97.3979C225.806 97.5023 225.67 97.4571 225.552 97.318C224.587 97.1615 223.548 97.5788 222.667 96.8103C222.592 96.7442 222.361 96.7581 222.22 96.7825C221.258 96.9355 220.325 96.7338 219.424 96.4382C218.731 96.2192 218.027 96.0558 217.314 95.9758C216.6 95.8889 215.881 95.8402 215.165 95.7776C214.527 95.722 214.12 95.5898 214.36 94.9883C214.441 94.7901 214.417 94.5258 213.999 94.5954C213.826 94.6232 213.418 94.4841 213.563 94.9013C213.69 95.2699 213.262 95.5133 212.916 95.4403C212.116 95.2804 211.331 95.336 210.54 95.2943C209.728 95.263 209.589 95.0265 209.717 94.272C209.743 94.1086 209.734 93.9417 209.743 93.6635C209.015 93.9556 208.368 94.2164 207.721 94.4771C207.935 94.4771 208.154 94.4945 208.362 94.4702C208.608 94.4424 208.911 94.2407 209.073 94.4771C209.179 94.6336 209.139 94.9083 209.032 95.0787C208.876 95.3256 208.524 95.3881 208.195 95.2977C207.799 95.19 207.646 94.9083 207.554 94.6058C206.855 95.0126 206.127 95.1587 205.206 95.1204C204.634 95.0995 204.06 95.0683 203.485 95.0578C202.911 95.0543 202.336 95.0543 201.761 95.0683C201.187 95.0822 200.612 95.1065 200.04 95.1552C199.469 95.2178 198.897 95.3012 198.325 95.416C197.439 95.5933 197.341 95.4716 197.271 94.4945L197.332 94.4111L197.251 94.4806C196.873 94.4145 196.301 94.1538 196.526 94.8283C196.697 95.3395 196.448 95.6594 195.851 95.5724C194.797 95.4194 193.847 95.8193 192.853 95.9445C192.227 96.0349 191.623 96.4035 191.124 95.8541C190.965 95.6802 190.74 95.8263 190.569 95.9375C189.515 96.6017 188.375 96.5982 187.223 96.5008C186.847 96.4695 186.518 96.4417 186.148 96.6434C185.193 97.1824 184.029 97.2693 183.073 97.3319C181.759 97.4258 180.463 97.7317 179.169 97.996L178.652 98.1108C178.505 98.1421 178.355 98.1699 178.202 98.1942C178.049 98.2185 177.89 98.2359 177.723 98.2464L177.463 98.2603H177.327L177.22 98.2568C176.891 98.2359 176.735 98.4098 176.588 98.5454C176.426 98.6949 176.25 98.7749 175.493 98.8896C175.704 99.2061 175.626 99.5016 175.632 99.818C175.644 100.124 175.785 100.392 176.201 100.454C176.368 100.482 176.605 100.472 176.677 100.538C176.752 100.604 176.683 100.75 176.328 101.125C176.16 101.299 176.23 101.338 176.351 101.313C176.472 101.292 176.64 101.216 176.712 101.174C177.226 100.886 177.483 100.767 177.679 100.743C177.879 100.715 178.006 100.774 178.199 100.819C178.291 100.84 178.323 100.899 178.378 100.997C178.45 101.098 178.468 101.223 178.462 101.365C178.268 101.376 178.231 101.411 178.15 101.473C178.084 101.539 178.034 101.64 178.055 101.81C178.058 101.845 178.098 101.883 178.15 101.911C178.202 101.939 178.251 101.956 178.326 101.953C178.921 101.915 178.427 101.574 178.479 101.379C179.005 101.254 179.608 101.362 180.102 101.136C180.564 100.924 180.668 101.727 181 101.477C181.393 101.178 181.803 101.198 182.253 101.202C182.4 101.202 182.551 101.209 182.776 101.212C182.897 101.737 182.519 102.176 182.504 102.655L182.432 102.725L182.522 102.669C182.808 102.763 182.912 103.184 183.267 103.059C183.786 102.878 183.209 102.666 183.197 102.461C183.166 101.925 183.928 101.786 183.896 101.292C184.693 101.355 184.326 101.953 184.673 102.176L184.866 102.106L184.791 102.269C184.884 102.29 185.057 102.335 185.057 102.335C185.36 101.539 185.86 101.261 186.4 101.115C186.535 101.08 186.674 101.056 186.807 101.025C186.919 101.004 187.035 100.986 187.153 100.965L187.283 100.945L187.364 100.927C187.416 100.913 187.465 100.892 187.506 100.861C187.659 101.115 187.676 101.271 187.644 101.428C187.615 101.577 187.546 101.71 187.595 101.901C187.624 102.009 187.699 102.186 187.751 102.189C187.907 102.196 187.817 102.033 187.797 101.936C187.745 101.661 187.864 101.675 188.005 101.678C188.141 101.678 188.305 101.661 188.196 101.404C188.063 101.094 187.858 100.743 187.872 100.531C187.994 100.552 188.141 100.701 188.274 100.833C188.407 100.962 188.545 101.08 188.692 100.899C188.869 100.993 189.033 101.032 189.209 100.972C189.46 100.952 189.498 100.764 189.371 100.552C189.38 100.44 189.385 100.36 189.38 100.298C189.368 100.232 189.351 100.187 189.319 100.152C189.255 100.079 189.134 100.044 188.889 99.9815C188.978 100.072 189.068 100.162 189.146 100.26C189.218 100.354 189.281 100.454 189.345 100.559C189.299 100.687 189.238 100.809 189.183 100.931C189.01 100.924 188.845 100.906 188.687 100.875C188.447 100.733 188.204 100.493 188.242 100.388C188.282 100.239 188.225 100.065 188.132 99.9293C188.06 99.7937 187.962 99.6963 187.973 99.5851C187.985 99.4077 187.91 99.2339 187.797 99.1052C187.742 99.0426 187.679 98.987 187.612 98.9418C187.581 98.9209 187.546 98.9001 187.511 98.8827L187.419 98.827L187.312 98.761C187.136 98.6532 187.041 98.5489 187.11 98.2568C187.194 97.8326 187.098 97.7457 186.836 97.8465C186.368 98.0343 186.013 98.1038 185.681 97.4536C185.583 97.2589 185.49 97.3214 185.375 97.3388C184.321 97.5127 183.405 96.6538 182.343 96.4382C182.239 96.4174 182.143 96.2261 182.042 96.1149C181.912 95.9758 182.204 95.7463 181.872 95.6872C181.809 95.6768 181.881 95.9793 182.014 96.1253C181.886 96.1705 181.751 96.2853 181.638 96.254C181.196 96.1357 180.746 96.0349 180.293 95.9375C179.848 95.8576 179.412 95.7602 178.964 95.6941C178.078 95.5342 177.18 95.4194 176.288 95.2421C174.783 94.9605 173.287 94.877 171.757 95.1169C171.177 95.2039 170.463 95.4055 170.276 94.6371L170.336 94.5606L170.247 94.6162C169.814 94.651 169.502 94.9987 168.933 94.7692C168.468 94.5745 167.865 94.8179 167.342 95.0091C166.961 95.1482 166.548 95.256 166.138 95.329C165.142 95.5064 165.142 95.4959 165.072 94.5397C165.341 94.2963 165.959 94.2546 165.895 93.6948C165.491 93.9799 165.165 94.1851 165.026 94.5119C164.342 95.1656 163.256 95.2908 162.404 95.3916C161.102 95.5446 159.765 96.1288 158.419 95.6663L155.722 95.9654C154.879 96.2992 154.004 96.0419 153.181 96.0314C152.471 96.021 152.717 95.329 152.922 94.877L152.976 94.8075L152.887 94.8527C152.65 94.9605 152.399 95.0509 152.338 95.3012C152.197 95.8889 152.058 96.5008 151.033 95.9202C150.964 95.8819 150.788 95.8715 150.73 95.9132C149.41 96.7721 147.802 96.0071 146.428 96.5356C146.338 96.5704 146.211 96.5739 146.113 96.5599C145.593 96.4765 144.825 96.174 144.608 96.3339C144.06 96.7408 143.442 96.5147 142.934 96.7164C142.102 97.0467 141.279 96.3409 140.442 96.8486C140.265 96.9563 140.115 96.6956 140.081 96.5287C140.034 96.3096 140.127 96.1114 140.28 95.9202C140.427 95.7359 140.629 95.4959 140.196 95.4473C139.977 95.4229 139.778 95.569 139.682 95.8437C139.359 96.7755 138.871 97.0954 137.606 97.0537C136.376 97.0155 135.152 96.9946 133.933 97.1406C133.165 97.231 132.775 96.7755 132.183 96.626L132.091 96.5843L132.152 96.6538C132.258 96.9911 132.114 97.2623 131.672 97.3423C131.346 97.4014 131.219 97.1997 131.23 96.9563L131.285 96.8764L131.204 96.9424C130.688 96.8625 131.202 96.2053 130.543 96.2018C130.526 96.1253 130.526 96.0523 130.54 95.9758L130.61 95.9028L130.509 95.9584C130.483 95.9862 130.431 96.021 130.436 96.0453C130.448 96.1044 130.488 96.1636 130.514 96.2192C130.523 96.3026 130.566 96.4 130.532 96.4695C130.067 97.391 129.98 97.4014 129.01 96.48C129.143 97.3597 128.481 97.7387 127.748 97.5336C126.301 97.1267 124.601 97.9126 123.304 97.0363C121.719 97.1824 120.18 96.9007 118.623 96.8764C116.738 96.8486 114.858 96.7442 112.952 96.8138C110.255 96.9111 107.527 96.8486 105 95.8158C105.332 95.0822 106.089 94.8527 106.897 94.7588C108.468 94.5745 110.019 94.2129 111.615 94.2511C111.832 94.2546 112.074 94.2546 112.265 94.1851C114.627 93.3227 117.131 93.4236 119.565 93.3992C122.455 93.3714 125.34 93.1523 128.198 92.895C132.045 92.5473 135.914 92.6064 139.723 92.0883C142.44 91.7198 145.195 91.8623 147.874 91.2643C148.345 91.1599 148.856 91.1773 149.35 91.1599C152.956 91.0243 156.534 90.5827 160.114 90.162C160.55 90.1098 160.989 90.082 161.425 90.0681C164.864 89.9534 168.283 89.4248 171.815 89.2684C173.775 89.178 175.762 89.3136 177.763 89.5083C178.476 89.5813 179.192 89.6717 179.909 89.7899C180.625 89.9116 181.344 90.0507 182.042 90.2107C183.449 90.5375 184.861 90.9339 186.281 91.4833C187.09 91.7963 187.898 92.1683 188.715 92.6342C189.123 92.8637 189.533 93.1315 189.943 93.4236C190.041 93.4896 190.165 93.5939 190.275 93.6774C190.393 93.7713 190.491 93.8443 190.621 93.959C190.878 94.1885 191.141 94.418 191.375 94.6823C191.493 94.8109 191.617 94.9361 191.73 95.0683L192.056 95.4855C192.169 95.6211 192.267 95.7706 192.362 95.9236C192.458 96.0766 192.559 96.2227 192.643 96.3826C192.998 97.0085 193.243 97.7005 193.419 98.4167C193.587 99.1365 193.633 99.8911 193.595 100.635C193.561 101.007 193.529 101.383 193.448 101.744C193.385 102.113 193.281 102.468 193.168 102.822C192.917 103.612 192.51 104.328 192.002 104.926C191.493 105.531 190.852 105.976 190.182 106.345L189.665 106.595C189.492 106.678 189.307 106.731 189.131 106.8C188.756 106.946 188.456 107.026 188.126 107.113C187.555 107.252 187.072 107.346 186.564 107.436C184.687 107.76 182.929 107.534 181.202 107.628C180.633 107.659 180.047 107.6 179.478 107.52C178.661 107.405 177.847 107.29 177.033 107.176L175.141 106.887L174.188 106.724C173.882 106.654 173.562 106.595 173.27 106.512C172.967 106.435 172.684 106.345 172.404 106.254C172.138 106.15 171.855 106.06 171.607 105.941L171.226 105.771C171.102 105.712 170.986 105.646 170.865 105.583C170.619 105.461 170.406 105.315 170.183 105.176C169.967 105.034 169.767 104.881 169.568 104.724C169.386 104.557 169.19 104.401 169.028 104.22C168.679 103.876 168.384 103.493 168.124 103.076C167.706 102.388 167.368 101.584 167.238 100.614C167.212 100.374 167.189 100.131 167.172 99.8841L167.157 99.6998L167.166 99.5155L167.186 99.1504C167.215 98.6671 167.284 98.1977 167.403 97.77C167.634 96.9111 167.995 96.2018 168.448 95.5377C168.901 94.877 169.47 94.272 170.18 93.7191C170.663 93.361 171.182 93.0098 171.795 92.7212L172.02 92.6099C172.098 92.5821 172.176 92.5612 172.254 92.5369L172.727 92.3978L173.677 92.1196L177.512 91.0313L177.752 90.9652L177.873 90.9304L177.933 90.9131L177.971 90.9061L178.263 90.8435L178.849 90.7218L180.018 90.4715C180.798 90.3046 181.575 90.1203 182.351 89.9603C186.914 88.9415 191.534 88.4512 196.151 88.0896C197.424 88.0096 198.701 87.8601 199.977 87.7454C201.253 87.6619 202.527 87.5959 203.786 87.6654C207.459 87.8949 211.157 87.735 214.793 88.3678C216.364 88.6773 217.998 88.7711 219.598 88.9867C220.4 89.0841 221.189 89.2406 221.971 89.4144C222.754 89.6022 223.531 89.7899 224.327 89.9221C224.738 89.9916 225.145 90.0646 225.552 90.1585C225.956 90.2559 226.36 90.3602 226.765 90.4715C227.567 90.6975 228.373 90.9235 229.173 91.1495C229.753 91.3268 230.608 91.3616 230.386 92.1509C230.611 92.2796 230.885 92.4082 230.709 92.6482C230.631 92.7559 230.446 92.7699 230.29 92.6899C230.033 92.5578 230.169 92.3874 230.172 92.2309C229.106 91.7406 228.864 91.7511 228.448 92.4569C228.148 92.9646 228.102 93.5731 227.654 94.0286L227.59 94.0842L227.683 94.0599C228.578 94.6162 229.996 94.8179 230.108 96.0071C230.178 96.0349 230.247 96.0523 230.322 96.0558C230.357 95.941 230.371 95.8158 230.429 95.708C230.513 95.5481 230.697 95.4507 230.897 95.6003V95.5968ZM120.688 96.0279L120.584 96.0488L120.671 96.0836L120.685 96.0245L120.688 96.0279ZM125.002 96.101L124.907 96.0766V96.1323L125.002 96.101ZM126.31 96.7686L126.203 96.7929L126.293 96.8312L126.31 96.7686ZM127.913 96.5912C127.901 96.5113 127.898 96.4278 127.907 96.3478L127.988 96.2783L127.89 96.3305C127.864 96.3618 127.814 96.3965 127.817 96.4209C127.826 96.4835 127.864 96.5426 127.89 96.6052L127.993 96.6573L127.915 96.5878L127.913 96.5912ZM131.066 93.8234C131.002 93.7887 130.887 93.8165 130.797 93.8165C130.875 93.9104 130.939 94.0182 131.04 94.0947C131.089 94.1294 131.207 94.112 131.279 94.1155C131.346 93.9486 131.184 93.886 131.066 93.8234ZM133.038 96.0731L132.957 96.0662L132.983 96.1462L133.038 96.0731ZM135.348 95.9028C135.357 95.861 135.279 95.8124 135.238 95.7672C135.189 95.8332 135.131 95.8958 135.097 95.9654C135.051 96.0592 135.097 96.1044 135.218 96.094C135.264 96.0314 135.334 95.9688 135.345 95.9028H135.348ZM137.745 95.5029C137.707 95.482 137.67 95.4507 137.626 95.4473C137.485 95.4299 137.421 95.4681 137.467 95.5342C137.482 95.5551 137.557 95.5481 137.606 95.5516L137.745 95.5064V95.5029ZM137.701 93.4618C137.664 93.4409 137.629 93.4062 137.586 93.4027C137.444 93.3853 137.381 93.427 137.427 93.4931C137.441 93.514 137.517 93.507 137.566 93.5105L137.701 93.4583V93.4618ZM143.222 95.5829L143.144 95.5724L143.17 95.6559L143.225 95.5829H143.222ZM144.862 95.3082L144.839 95.2282L144.79 95.2977L144.862 95.3082ZM146.765 95.1482C146.742 95.1135 146.566 95.0995 146.52 95.1308C146.456 95.176 146.422 95.2699 146.419 95.3429C146.413 95.4438 146.494 95.4786 146.607 95.4473C146.742 95.3708 146.852 95.2769 146.765 95.1482ZM150.811 94.6927C150.112 94.644 149.728 94.9674 149.266 95.0439L149.171 94.9952L149.237 95.0648C149.789 95.2352 150.288 95.2421 150.811 94.6927ZM154.339 94.6858C154.362 94.5258 154.264 94.425 154.082 94.4737C153.817 94.5432 153.661 94.7171 153.658 94.9396C153.658 95.0648 153.724 95.2073 153.912 95.1587C154.186 95.0891 154.218 94.8492 154.336 94.6858H154.339ZM158.341 94.345L158.269 94.3346L158.292 94.4145L158.341 94.345ZM159.583 94.5571C159.413 94.5328 159.332 94.6788 159.375 94.8214L159.447 95.0648C159.395 95.1413 159.141 95.0543 159.222 95.2352L159.471 95.0822C159.534 95.0126 159.618 94.9466 159.655 94.8701C159.71 94.7553 159.762 94.5815 159.586 94.5571H159.583ZM160.825 93.8686C160.634 94.119 160.548 94.352 160.747 94.6406C161.116 94.3554 161.096 94.1225 160.825 93.8686ZM164.145 94.2755L164.059 94.3207L164.007 94.3902L164.091 94.345L164.143 94.2755H164.145ZM164.772 93.2288L164.688 93.2949L164.613 93.361L164.714 93.3123L164.772 93.2254V93.2288ZM168.61 90.4541C168.627 90.468 168.699 90.4436 168.745 90.4332C168.765 90.3984 168.8 90.3602 168.797 90.3289C168.797 90.3115 168.719 90.2802 168.69 90.2872C168.563 90.3219 168.532 90.388 168.61 90.4541ZM169.074 93.6739C169.031 93.6148 168.996 93.507 168.945 93.5035C168.803 93.4931 168.653 93.5244 168.529 93.5383C168.462 93.6704 168.503 93.7365 168.63 93.733C168.777 93.7296 168.924 93.6948 169.074 93.6774V93.6739ZM170.44 93.9069L170.414 93.8269L170.368 93.9034L170.44 93.9104V93.9069ZM173.487 93.7887L173.391 93.813L173.484 93.8478V93.7921L173.487 93.7887ZM175.231 90.3498L175.326 90.388L175.332 90.3289L175.228 90.3498H175.231ZM175.739 93.9104C175.462 93.3992 175.124 93.3644 174.737 93.7713L174.647 93.8234L174.754 93.7887C175.095 93.6565 175.378 94.039 175.739 93.9104ZM179.155 94.4702H179.057L179.14 94.5258L179.158 94.4702H179.155ZM183.391 94.9918C183.379 94.9674 183.307 94.9326 183.278 94.9396C183.157 94.9674 183.14 95.0335 183.238 95.0995C183.264 95.1169 183.324 95.0995 183.368 95.0995C183.376 95.0648 183.402 95.0265 183.388 94.9952L183.391 94.9918ZM184.272 95.5933L184.208 95.5655L184.22 95.6489L184.272 95.5933ZM186.772 96.6225C186.498 96.4522 186.336 96.3374 186.163 96.2644C185.935 96.1636 185.637 96.0627 185.698 96.4174C185.736 96.6434 185.938 96.7025 186.14 96.6816C186.313 96.6608 186.478 96.6469 186.772 96.6225ZM188.184 97.7213L188.106 97.7144C188.037 97.7491 187.936 97.5509 187.887 97.7283L188.112 97.7491L188.184 97.7213ZM188.75 98.222C188.741 98.1907 188.741 98.1455 188.721 98.1247C188.646 98.0482 188.603 98.0656 188.612 98.1594C188.612 98.1907 188.643 98.2185 188.672 98.2325C188.689 98.2429 188.724 98.2255 188.75 98.222ZM188.369 98.834C188.357 98.8166 188.323 98.8131 188.3 98.8027C188.291 98.827 188.279 98.8479 188.271 98.8688C188.282 98.8862 188.288 98.9209 188.308 98.9244C188.378 98.9348 188.409 98.8966 188.369 98.834ZM190.538 103.02C190.627 103.097 190.769 103.076 190.91 102.902C190.933 102.874 190.939 102.777 190.922 102.749C190.858 102.648 190.76 102.607 190.615 102.767C190.569 102.805 190.564 102.93 190.538 103.017V103.02ZM191.236 104.453C191.323 104.599 191.522 104.557 191.678 104.307C191.791 104.123 191.874 103.872 191.843 103.768C191.805 103.632 191.594 103.73 191.444 103.956C191.34 104.133 191.3 104.314 191.236 104.453ZM188.64 105.402H188.77L188.776 105.333L188.64 105.402ZM186.951 102.256L187.006 102.353C187.044 102.332 187.098 102.318 187.119 102.287C187.191 102.186 187.153 102.134 187.029 102.165C187 102.172 186.977 102.224 186.954 102.256H186.951ZM181.139 103.299C181.095 103.389 181.162 103.455 181.266 103.417C181.332 103.393 181.378 103.306 181.398 103.24C181.43 103.139 181.378 103.094 181.286 103.111C181.237 103.173 181.173 103.229 181.141 103.299H181.139ZM180.561 104.481L180.596 104.589C180.642 104.578 180.703 104.582 180.734 104.561C180.838 104.488 180.809 104.429 180.665 104.418C180.63 104.418 180.596 104.46 180.561 104.481ZM179.677 104.571H179.781L179.701 104.519L179.677 104.571ZM177.506 104.582C177.506 104.676 177.668 104.738 177.778 104.686C178.014 104.568 178.058 104.387 177.942 104.164C177.697 104.248 177.503 104.366 177.509 104.582H177.506ZM177.451 101.518L177.518 101.48L177.581 101.421L177.515 101.459L177.451 101.518ZM176.461 102.005C176.441 102.026 176.435 102.082 176.449 102.085C176.478 102.089 176.527 102.068 176.568 102.057C176.594 102.026 176.646 101.981 176.64 101.97C176.614 101.901 176.547 101.918 176.461 102.005ZM174.679 103.862C174.748 103.935 174.858 103.935 174.953 103.855C174.977 103.838 174.959 103.775 174.942 103.775C174.89 103.768 174.826 103.782 174.769 103.789C174.737 103.813 174.671 103.852 174.682 103.865L174.679 103.862ZM175.418 101.181C175.06 101.449 175.173 101.602 175.286 101.748C175.26 101.838 175.208 101.943 175.231 102.016C175.251 102.078 175.392 102.03 175.407 101.95C175.427 101.863 175.369 101.8 175.355 101.724C175.231 101.577 176.005 101.157 175.415 101.178L175.418 101.181ZM173.079 102.294C173.042 102.322 172.978 102.349 172.97 102.377C172.935 102.482 173.022 102.502 173.178 102.426C173.215 102.409 173.233 102.356 173.218 102.335C173.201 102.315 173.129 102.308 173.079 102.294ZM170.111 103.733L170.253 103.775C170.455 103.952 170.654 104.133 170.882 104.293L170.931 104.38L170.937 104.304C170.83 104.05 170.663 103.855 170.247 103.765L170.108 103.733H170.111ZM173.683 101.08C173.645 101.157 173.556 101.254 173.611 101.271C173.827 101.355 174.11 101.299 174.39 101.188C174.569 101.115 174.598 101.066 174.46 101.066C174.217 101.07 173.952 101.091 173.683 101.08ZM172.973 98.6984L173.019 98.7714L173.114 98.8305L173.074 98.7575L172.976 98.7019L172.973 98.6984ZM173.876 97.8013L173.923 97.8674C173.969 97.9647 173.995 98.0586 174.081 98.1455C174.157 98.2255 174.258 98.3402 174.512 98.2881C174.546 98.2777 174.457 98.1803 174.379 98.1247C174.258 98.0377 174.099 97.9543 173.96 97.8639L173.876 97.7978V97.8013ZM174.748 97.4049C174.682 97.3388 174.552 97.318 174.52 97.384C174.497 97.4292 174.546 97.4918 174.567 97.544C174.679 97.6066 174.783 97.624 174.809 97.5648C174.826 97.5231 174.8 97.4571 174.748 97.4049ZM179.51 94.3241C179.55 94.2963 179.617 94.2685 179.623 94.2407C179.646 94.1364 179.579 94.0912 179.455 94.119C179.412 94.1294 179.348 94.1711 179.343 94.199C179.319 94.3033 179.386 94.345 179.51 94.3276V94.3241ZM180.191 95.2595C179.934 95.6489 179.626 95.9445 179.715 96.3409C180.339 96.1717 180.498 95.8112 180.191 95.2595ZM182.666 95.9167C182.51 95.8541 182.369 95.9097 182.291 96.0384C182.204 96.1879 182.331 96.2574 182.458 96.3096C182.6 96.3687 182.741 96.3478 182.834 96.2053C182.868 96.0697 182.802 95.9723 182.666 95.9167ZM187.208 95.4646C187.197 95.3742 187.122 95.3395 187.009 95.3951C186.879 95.4612 186.749 95.5342 186.642 95.6211C186.553 95.6907 186.602 95.7498 186.746 95.7393C186.96 95.722 187.122 95.6316 187.211 95.4646H187.208ZM190.924 94.9674C190.89 94.7657 190.812 94.731 190.696 94.7901C190.564 94.8596 190.37 94.9361 190.335 95.03C190.275 95.1969 190.462 95.2247 190.621 95.1587C190.76 95.103 190.872 95.0022 190.924 94.9674ZM195.123 94.5432C195.048 94.3937 195.007 94.1572 194.745 94.1051C194.479 94.0529 194.421 94.2546 194.418 94.4145C194.413 94.6336 194.493 94.8179 194.826 94.8144C194.999 94.8144 195.108 94.7275 195.126 94.5432H195.123ZM200.549 94.6892L200.442 94.7171L200.531 94.7588L200.549 94.6892ZM200.739 93.9417L200.471 94.0807L200.416 94.1607L200.497 94.1016C200.56 94.0321 200.8 94.1329 200.739 93.9451V93.9417ZM201.822 94.1538L201.727 94.1851L201.822 94.2129V94.1572V94.1538ZM202.46 89.9568C202.524 89.8838 202.775 89.9847 202.708 89.7969L202.443 89.9464L202.368 90.0194L202.46 89.9603V89.9568ZM202.974 93.4305C202.928 93.3992 202.711 93.4305 202.706 93.4549C202.605 93.8304 202.691 94.1572 203.231 94.4424C203.202 94.046 203.361 93.7017 202.974 93.4305ZM207.017 93.4514C206.367 93.2288 205.723 93.4201 204.773 93.4166C205.735 93.8965 206.37 93.5557 207.017 93.4514ZM208.533 91.4798C208.472 91.3929 208.377 91.379 208.287 91.4451C208.258 91.4659 208.238 91.525 208.255 91.5529C208.316 91.6398 208.406 91.6467 208.504 91.5911C208.515 91.5529 208.553 91.5077 208.533 91.4833V91.4798ZM211.565 93.7574L211.264 93.6635C210.612 93.3088 210.554 93.8269 210.41 94.0703C210.228 94.3763 210.228 94.7032 210.938 94.8701C210.877 94.3902 210.727 93.9382 211.256 93.6704C211.354 93.7087 211.386 93.9069 211.565 93.7574ZM212.595 93.959C212.581 93.9277 212.569 93.8721 212.552 93.8721C212.512 93.8652 212.448 93.8756 212.425 93.8999C212.338 93.9834 212.37 94.039 212.497 94.0321C212.532 94.0321 212.564 93.9869 212.598 93.959H212.595ZM218.082 92.4395C218.076 92.4639 218.119 92.5125 218.154 92.5299C218.189 92.5438 218.241 92.5299 218.287 92.5299C218.281 92.4952 218.287 92.4569 218.264 92.4291C218.174 92.3283 218.102 92.3317 218.082 92.4395ZM216.231 94.2755C215.916 93.9451 215.512 93.9973 214.908 94.1399C215.385 94.4319 215.708 94.6545 216.15 94.4806C216.211 94.4563 216.265 94.3102 216.231 94.2755ZM218.705 95.6211L218.656 95.5411C218.576 95.3812 218.521 95.2108 218.411 95.0613C218.295 94.9083 218.099 94.7657 217.903 94.9326C217.747 95.0683 217.813 95.2595 218.024 95.3673C218.206 95.4577 218.425 95.4994 218.63 95.562L218.708 95.6246L218.705 95.6211ZM219.728 90.6384C219.658 90.5793 219.595 90.5132 219.514 90.4645C219.401 90.395 219.286 90.4124 219.286 90.5062C219.286 90.5584 219.393 90.6418 219.471 90.6662C219.543 90.687 219.638 90.6523 219.725 90.6384H219.728ZM220.946 94.9187C220.707 94.7866 220.464 94.7692 220.242 94.8701C220.143 94.9153 220.167 95.0335 220.276 95.0683C220.545 95.1482 220.744 95.0335 220.943 94.9187H220.946ZM221.197 93.6357C220.73 93.6774 220.478 93.7817 220.38 94.0355C220.374 94.046 220.545 94.1364 220.629 94.1399C220.949 94.1503 221.021 93.9417 221.197 93.6357ZM222.341 95.7324C222.326 95.7115 222.251 95.6941 222.225 95.7046C222.11 95.7533 222.104 95.8158 222.208 95.861C222.237 95.875 222.292 95.8437 222.335 95.8332C222.338 95.7985 222.361 95.7567 222.341 95.7324ZM225.8 97.2484L225.757 97.1928L225.708 97.2415L225.8 97.2484ZM226.871 95.7741C225.898 95.6524 225.514 95.941 225.35 96.4661L225.289 96.5217L225.379 96.4974C225.644 96.094 226.253 96.0384 226.871 95.7776V95.7741Z" fill="#E9C9F4"/>
</svg>
