<svg width="486" height="279" viewBox="0 0 486 279" fill="none" xmlns="http://www.w3.org/2000/svg">
<path fill-rule="evenodd" clip-rule="evenodd" d="M404.972 4.05176C406.909 3.98332 405.954 3.76618 404.647 3.60294C403.897 3.50736 402.999 3.42955 402.124 3.35368C401.93 3.33685 401.737 3.32011 401.547 3.3033L399.654 3.00605L397.75 3.28774C392.784 3.35415 392.153 3.33216 392.794 3.13828C392.907 3.10422 393.058 3.06782 393.21 3.0311C393.815 2.88488 394.44 2.73368 392.782 2.7054C388.744 2.64072 385.441 2.42502 382.162 2.21085C378.576 1.97667 375.019 1.74431 370.559 1.71326L373.176 2.23554L373.871 2.30174L372.974 2.25769C372.579 2.23915 372.148 2.22241 371.719 2.2057L371.718 2.20569C369.481 2.1187 367.261 2.0324 370.198 1.69704C370.681 1.3138 368.804 1.12157 364.998 1.10339C363.754 0.968356 362.553 0.991277 361.392 1.12096C358.867 1.11987 356.324 1.07024 353.779 1.02057C347.857 0.904995 341.924 0.789195 336.174 1.28435C335.468 1.34412 333.497 1.30551 332.306 1.26356C324.171 0.97682 315.954 1.1288 308.016 1.35986C296.057 1.70728 283.931 1.69632 271.82 1.68538L271.004 1.68464C265.503 1.67813 261.931 1.77395 263.728 2.4401C264.324 2.66021 264.019 2.93607 260.477 2.82765C260.146 2.81796 259.713 2.81586 259.257 2.81364C257.669 2.80594 255.789 2.79681 256.871 2.46295C258.106 2.08131 254.543 1.78468 251.544 1.82249C246.599 1.88519 241.752 1.81874 236.906 1.75229C234.972 1.72577 233.038 1.69925 231.098 1.68095C224.131 1.61101 222.886 1.83904 223.77 2.6613C223.894 2.77731 223.88 2.89372 223.861 3.04327C223.851 3.12282 223.84 3.21175 223.848 3.31499C217.688 2.89957 212.23 2.51456 206.781 2.10978C207.383 2.12325 207.988 2.13477 208.593 2.14628C209.827 2.16977 211.06 2.19325 212.26 2.23324C212.834 2.25386 213.44 2.28804 214.047 2.32229C215.664 2.4135 217.289 2.50518 218.335 2.34233C219.277 2.19407 219.008 1.89273 218.12 1.69391C216.834 1.40731 213.825 1.28192 210.978 1.3168C207.554 1.36167 206.207 1.62812 205.374 1.93346C202.417 1.64747 199.384 1.43044 196.103 1.26728C194.451 1.18643 192.789 1.10937 190.95 1.05939C190.548 1.05075 190.143 1.04179 189.733 1.03273L189.73 1.03267L189.712 1.03226L189.7 1.03199C189.176 1.02043 188.646 1.00873 188.111 0.99739C187.598 0.996873 187.078 0.995872 186.552 0.994854L186.548 0.994846C186.08 0.993941 185.607 0.993028 185.128 0.992435C175.091 1.04764 165.155 1.68521 155.342 2.31482L155.042 2.33411L155.03 2.33485C150.079 2.65091 145.156 2.96516 140.257 3.20738C139.031 3.27045 137.808 3.32363 136.585 3.37362L132.855 3.52415C130.334 3.62559 127.809 3.74651 125.286 3.88984C121.347 4.11111 119.169 4.32943 117.983 4.58595C116.797 4.84568 116.594 5.16661 116.589 5.69375L117.168 5.71895L116.416 5.72695C115.602 5.82787 114.697 5.96216 113.819 6.09236C111.183 6.48318 108.798 6.837 109.905 6.13956C110.47 5.78657 110.156 5.60364 109.053 5.61083C107.951 5.61803 106.056 5.82523 103.482 6.29294L102.264 6.51486C98.1633 7.26208 94.1716 7.98931 90.2287 8.80933C85.9015 9.70997 81.6239 10.7232 77.4116 12.0279C74.7644 12.847 72.104 13.6831 69.7135 14.5988C68.5208 15.0581 67.4053 15.5415 66.3849 16.0319C65.3847 16.5435 64.469 17.0435 63.7215 17.5845C63.2503 17.9252 62.5389 18.2841 61.7652 18.6307C60.9968 18.9866 60.181 19.3423 59.4706 19.6432C55.0915 21.5397 51.0623 23.967 47.511 26.6989C46.8444 27.1897 46.2305 27.7134 45.6172 28.2367L45.6151 28.2386L45.614 28.2395C45.3913 28.4295 45.1687 28.6194 44.9436 28.8077C44.3643 29.3194 43.8238 29.8494 43.2828 30.38L43.282 30.3808C43.0564 30.6021 42.8304 30.8238 42.6018 31.0438L41.4599 32.1714L40.4433 33.3361C40.2451 33.5671 40.0444 33.7977 39.8436 34.0283C39.3691 34.5733 38.8946 35.1184 38.453 35.6694L38.27 35.9118C37.5597 36.8528 36.8876 37.7433 36.1751 38.6308C36.0289 38.8215 35.8836 39.0127 35.7377 39.2047L35.7365 39.2063C35.1397 39.9916 34.5321 40.7911 33.8049 41.6333C29.192 47.0938 25.8022 53.8889 23.3839 59.4C21.6926 63.1989 20.1488 67.0111 18.6518 70.814C17.1456 74.6207 15.7289 78.4218 14.3251 82.1997C13.8886 83.3809 13.4539 84.562 13.0199 85.7414C12.7605 86.4463 12.5013 87.1505 12.2421 87.8538C12.0394 88.4393 11.8367 89.0241 11.6341 89.6086L11.5591 89.8249L11.5215 89.9334C11.0995 91.1508 10.678 92.3665 10.2584 93.5821L9.77425 95.0127L9.35195 96.449C9.0752 97.4074 8.79826 98.3625 8.51642 99.3147C8.3946 99.742 8.27374 100.169 8.15296 100.596C8.03582 101.01 7.91873 101.424 7.80094 101.837L7.70424 102.176C7.53272 102.834 7.38161 103.493 7.23053 104.152L7.23038 104.153L7.22957 104.156L7.15459 104.483C7.11178 104.669 7.06869 104.855 7.02489 105.041C6.78611 106.078 6.52845 107.115 6.25685 108.157C6.19941 108.373 6.14136 108.59 6.08329 108.807C5.86198 109.632 5.64049 110.459 5.45183 111.287C5.04207 112.956 4.62958 114.63 4.2185 116.297L3.90482 117.57C3.47577 119.662 3.07953 121.749 2.76189 123.805L2.73521 123.983L2.7101 124.149C2.64945 124.549 2.58902 124.947 2.54001 125.345C2.49608 125.858 2.45645 126.365 2.41702 126.875C2.3474 127.891 2.30072 128.896 2.29119 129.89C0.792988 136.465 0.589614 143.3 0.387142 150.106L0.387044 150.108C0.329993 152.027 0.272964 153.943 0.187067 155.85C0.18328 156.023 0.178965 156.201 0.174327 156.383C0.17005 156.55 0.165501 156.722 0.160895 156.896C0.119865 158.445 0.0725078 160.233 0.145287 161.905C0.16773 162.421 0.203745 162.926 0.252536 163.408C0.320349 163.892 0.405629 164.353 0.507814 164.78C0.712382 165.638 0.984873 166.369 1.35312 166.89C2.04712 167.855 1.67991 170.564 1.57651 171.264C1.40638 172.492 1.33649 173.81 1.33227 175.195C1.33242 175.885 1.34786 176.594 1.37829 177.315C1.40869 178.036 1.44483 178.773 1.54265 179.512C1.71492 180.995 1.93235 182.52 2.16989 184.064L2.22465 184.421L2.23005 184.456L2.23497 184.488L2.23514 184.489C2.33144 185.119 2.42828 185.753 2.54078 186.386L3.01113 188.708C3.50531 191.186 3.9604 191.81 4.41682 191.843C4.17248 189.96 3.95561 188.062 4.65665 188.911C4.79486 189.079 5.17594 190.572 5.27218 191.286C5.57753 193.578 5.23839 193.015 4.89429 192.445C4.72037 192.156 4.54517 191.866 4.45128 191.94C4.53346 193.204 4.78398 194.555 5.03554 195.912C5.08708 196.19 5.13866 196.468 5.18884 196.745C5.49338 198.378 5.75902 199.993 5.89037 201.427C6.06083 202.826 6.54906 203.711 6.98976 204.509C7.39474 205.243 7.75954 205.904 7.80064 206.825C7.82645 207.395 7.88627 207.979 7.97518 208.574C8.07822 209.169 8.21999 209.777 8.37669 210.396C8.61593 211.39 8.94745 212.411 9.29256 213.474C9.37944 213.741 9.46716 214.011 9.55447 214.284L9.95593 215.418L10.188 216.073C10.3303 216.475 10.4871 216.917 10.6671 217.425C11.3046 217.814 11.5386 217.213 11.7699 216.619C11.9384 216.186 12.1056 215.756 12.4262 215.716L12.3902 215.288L12.4791 215.806C12.7785 216.495 13.112 216.99 13.4417 217.479C13.5072 217.576 13.5725 217.673 13.6373 217.771C14.0292 218.367 14.3863 219.013 14.6862 220.035C15.2988 222.027 14.769 221.275 14.2417 220.525C13.9731 220.144 13.7052 219.763 13.5892 219.746C13.0917 219.682 13.3009 220.893 13.5029 222.063C13.6884 223.137 13.8677 224.175 13.4882 224.157C14.6079 226.57 15.1788 227.152 15.5999 227.38C15.6372 227.4 15.6734 227.417 15.7088 227.433C15.7697 227.46 15.8284 227.481 15.8869 227.503C16.1794 227.611 16.4633 227.715 16.9583 228.449C16.9994 228.552 17.0398 228.655 17.0802 228.759L17.0807 228.76C17.1944 229.05 17.3076 229.339 17.4335 229.627C17.4329 229.557 17.433 229.487 17.4332 229.417C17.4337 229.309 17.4345 229.201 17.4336 229.094C17.7504 229.624 18.3421 230.618 18.3421 230.618C18.1347 232.851 19.5366 236.153 21.724 239.757C23.916 243.36 26.9856 247.224 30.033 250.653C30.4744 250.825 30.5556 250.685 30.4467 250.377C30.3718 250.165 30.1963 249.877 29.9977 249.55C29.907 249.4 29.8111 249.243 29.7181 249.082C29.6356 248.947 29.5508 248.81 29.4664 248.674C28.91 247.776 28.3705 246.905 28.6071 246.809C28.764 246.745 29.2053 246.839 29.5602 247.219C30.3959 248.109 30.3017 248.226 30.2156 248.333C30.2079 248.343 30.2002 248.353 30.1933 248.363C30.1892 248.369 30.1852 248.375 30.1817 248.381C30.177 248.39 30.173 248.399 30.1702 248.41C30.1678 248.418 30.1662 248.428 30.1657 248.438C30.1548 248.721 30.3847 249.147 30.807 249.622C31.2294 250.1 31.7981 250.646 32.3768 251.202C32.6696 251.496 32.9853 251.785 33.2927 252.066C33.5736 252.324 33.8476 252.575 34.0908 252.817C34.6003 253.325 34.984 253.79 35.1066 254.165L35.1317 254.241C35.2736 254.673 35.4125 255.097 35.8094 255.73C36.2481 256.394 36.9898 257.289 38.4997 258.59C39.6453 259.344 39.6779 259.096 39.7106 258.848C39.7145 258.818 39.7185 258.788 39.7244 258.76C39.7271 258.747 39.7301 258.734 39.7338 258.722C39.8219 258.463 40.1208 258.474 42.6162 260.25C43.0915 260.281 43.9007 260.585 45.2658 261.303C46.7734 261.955 48.091 262.825 49.3646 263.825C50.3424 264.404 51.0839 264.837 51.6575 265.158C52.2269 265.485 52.6105 265.719 52.8868 265.901C53.4255 266.269 53.471 266.468 53.5622 266.871C51.8262 265.741 50.497 264.76 49.2145 263.77C47.9241 263.034 46.6561 262.277 45.4476 261.488C44.5458 261.142 43.6664 260.776 42.7821 260.407C42.1915 260.424 42.5843 261.264 44.5393 262.566C46.9578 264.17 49.226 265.639 51.6626 266.998C54.0895 268.354 56.6898 269.607 59.7421 270.668C64.5498 272.33 69.5547 273.584 74.6 274.573C79.6498 275.558 84.7438 276.264 89.8296 276.836C92.4889 277.131 93.6985 277.172 94.5552 276.942C95.174 276.769 95.7663 276.703 96.4541 276.728C97.1416 276.747 97.9203 276.862 98.9078 277.065C100.615 277.425 102.303 277.699 104.221 277.87C105.178 277.961 106.189 278.015 107.288 278.024C108.386 278.033 109.569 278.014 110.861 277.944C112.154 277.864 112.782 277.935 113.553 278.021C113.696 278.038 113.844 278.054 114.002 278.071C121.221 278.807 129.235 278.585 137.066 278.367H137.068H137.07H137.071C139.252 278.307 141.419 278.247 143.551 278.208C144.219 278.199 144.989 278.098 145.759 277.996H145.76C146.118 277.949 146.476 277.902 146.824 277.864C147.391 277.801 147.369 277.723 147.348 277.647C147.317 277.537 147.287 277.433 149.1 277.395C149.677 277.382 148.509 277.715 147.085 277.877C147.41 277.893 147.733 277.916 148.057 277.94C148.768 277.992 149.479 278.044 150.203 278.015C154.355 277.867 158.505 277.7 162.649 277.514L175.02 276.951L176.486 276.885L177.82 276.826C185.105 276.502 192.389 276.178 199.63 275.759C213.383 274.965 226.706 274.179 240.348 273.126C242.94 272.94 245.835 272.693 248.259 272.389C250.682 272.075 252.63 271.669 253.329 271.173L252.769 271.159L253.562 271.123C254.719 270.981 255.795 270.882 256.869 270.783H256.87C259.302 270.558 261.728 270.334 265.075 269.623C267.052 269.205 269.355 268.799 271.757 268.445C272.951 268.246 274.166 268.058 275.375 267.874C275.62 267.837 275.863 267.801 276.106 267.764L276.115 267.763L276.352 267.727L276.693 267.676L276.892 267.645L277.171 267.603C277.256 267.588 277.341 267.574 277.426 267.559C277.5 267.547 277.574 267.534 277.647 267.522C277.868 267.485 278.088 267.448 278.307 267.411L278.66 267.352L278.919 267.308C282.283 266.759 285.846 266.047 289.36 265.239C289.841 265.123 290.294 265.014 290.722 264.911H290.726L290.735 264.908L290.746 264.906C292.188 264.56 293.336 264.284 294.241 264.04C295.418 263.711 296.194 263.467 296.702 263.265C297.713 262.855 297.641 262.6 297.487 262.099C296.842 262.208 296.015 262.395 295.145 262.591L295.14 262.592H295.137L295.136 262.593H295.135H295.133C294.368 262.766 293.571 262.945 292.838 263.087C291.261 263.377 290.002 263.538 290.03 263.215C291.269 263.012 292.417 262.803 293.447 262.614C295.375 262.262 296.894 261.985 297.833 261.965C300.904 261.415 304.664 260.443 308.451 259.232C308.925 259.084 309.408 258.935 309.881 258.781L311.289 258.286C311.863 258.081 312.438 257.876 313.011 257.672L314.091 257.287C314.849 257.023 315.581 256.73 316.298 256.444L316.312 256.439L316.462 256.379C316.57 256.335 316.679 256.292 316.786 256.249C317.664 255.9 318.518 255.558 319.345 255.224L320.296 254.84L321.232 254.436C321.854 254.166 322.482 253.899 323.109 253.629C323.736 253.362 324.368 253.091 324.999 252.821C325.418 252.645 325.821 252.456 326.225 252.267C326.286 252.239 326.346 252.211 326.407 252.182C326.476 252.15 326.545 252.118 326.614 252.086L326.725 252.035C326.769 252.014 326.814 251.994 326.859 251.974C327.635 251.613 328.411 251.252 329.188 250.89L329.195 250.887L330.253 250.394L330.576 250.243C331.003 250.026 331.43 249.808 331.857 249.591L332.385 249.321C332.989 249.013 333.593 248.705 334.197 248.397C338.958 245.863 343.507 243.121 347.364 239.982C353.117 236.041 358.357 231.762 363.022 227.211C367.766 223.027 371.231 218.222 374.267 213.662C376.856 209.685 374.844 210.97 373.389 212.02L373.076 212.316L373.468 211.835C373.815 211.42 374.144 210.99 374.451 210.588C375.085 209.761 375.625 209.056 376.033 208.847L376.086 208.818C376.766 208.46 377.467 208.091 378.273 207.108C378.658 206.596 379.061 205.919 379.496 204.999C379.714 204.539 379.937 204.018 380.17 203.428C380.378 202.866 380.552 202.231 380.744 201.527L380.775 201.415C380.887 201.007 381.302 199.992 381.517 199.641C383.71 195.769 385.038 191.367 385.747 186.919L385.785 186.592C385.902 185.587 386.02 184.581 386.141 183.576C386.201 183.111 386.238 182.685 386.276 182.257L386.277 182.251V182.242C386.285 182.151 386.293 182.059 386.302 181.966C386.353 181.449 386.405 180.936 386.457 180.422L386.46 180.392C386.57 179.348 386.695 178.309 386.84 177.281C386.989 176.254 387.182 175.243 387.395 174.244C387.509 173.719 387.597 173.001 387.634 172.44C387.662 171.946 387.692 171.415 387.723 170.866L387.725 170.838C387.787 169.749 387.853 168.591 387.912 167.524C388.015 165.911 388.127 164.51 388.354 163.879C388.902 162.271 389.215 160.594 389.483 158.952L389.535 158.635C389.789 157.103 390.036 155.609 390.398 154.238C390.966 152.108 391.225 150.02 391.484 147.932C391.81 145.302 392.136 142.673 393.079 139.963C393.446 138.935 393.187 138.125 392.959 137.95C392.661 137.721 392.236 138.284 391.766 139.18L391.742 139.226C391.288 140.09 390.708 141.195 391.097 138.772C391.299 137.523 391.757 136.354 392.294 135.778C393.213 134.789 393.943 133.581 394.623 131.721C395.298 129.858 395.914 127.343 396.646 123.729C398.067 116.702 399.598 109.701 401.422 102.704C402.162 99.8778 402.338 97.9659 402.513 96.0672C402.61 95.0066 402.708 93.9502 402.903 92.7408L402.96 92.2169L402.991 92.5587C403.39 93.125 404.019 92.2702 404.733 89.7332C405.265 87.8564 405.108 87.1498 404.702 87.2456L404.499 87.5665L404.707 87.1039C404.97 85.7169 404.727 85.6432 404.484 85.5697C404.21 85.4864 403.936 85.4033 404.398 83.4128C404.299 83.329 404.18 83.3331 404.039 83.4221L403.832 83.8205L404.061 83.2345C404.085 83.1894 404.113 83.1306 404.142 83.0712C404.208 82.9338 404.275 82.7931 404.3 82.8117C404.356 82.8562 404.394 82.9767 404.431 83.0968C404.446 83.1455 404.461 83.1941 404.477 83.2376C404.517 83.2474 404.554 83.2795 404.59 83.3117C404.668 83.3807 404.747 83.4501 404.86 83.3007C406.985 80.5383 407.068 80.0513 407.028 74.657C408.247 75.3204 409.819 71.5707 410.793 67.511C411.289 65.5079 411.964 63.4135 412.791 61.3129C413.626 59.2117 414.569 57.0942 415.592 55.0296C415.736 54.726 415.891 54.426 416.044 54.1273L416.045 54.1266C416.154 53.9145 416.263 53.7029 416.368 53.4911C416.625 52.9805 416.882 52.4731 417.149 51.9747C417.302 51.6817 417.454 51.3909 417.606 51.1017L417.607 51.0984L417.609 51.0947C417.717 50.8882 417.825 50.6825 417.932 50.4775C418.11 50.1275 418.287 49.779 418.464 49.4329L418.726 48.9186C419.725 46.865 420.508 44.9053 421.07 43.1294C422.243 40.9784 423.393 38.9123 424.727 36.9827C426.056 35.0534 427.578 33.2662 429.414 31.646L430.115 31.0469L430.193 30.9799C430.4 30.8011 430.608 30.6224 430.846 30.462C431.059 30.3083 431.27 30.1526 431.48 29.9968C431.78 29.7748 432.081 29.5525 432.39 29.3353L434.062 28.2777C434.419 28.0553 434.803 27.8494 435.188 27.6435C435.408 27.5259 435.627 27.4081 435.842 27.2874C435.953 27.2287 436.062 27.1679 436.171 27.107L436.172 27.1066C436.36 27.0017 436.548 26.8965 436.749 26.8008L437.71 26.3494L438.671 25.898C438.989 25.7467 439.311 25.595 439.657 25.458C439.853 25.3772 440.048 25.2951 440.242 25.2131C440.721 25.0111 441.202 24.8086 441.702 24.6247C442.391 24.354 443.089 24.0891 443.803 23.8426C446.924 22.7274 450.177 21.7583 453.523 20.8992C456.863 20.0339 460.28 19.2635 463.757 18.5408C466.836 17.9001 469.954 17.2924 473.093 16.6807L473.094 16.6805L474.296 16.4462C476.094 16.1002 477.893 15.7534 479.696 15.406L479.704 15.4045L479.747 15.3962L479.778 15.3903L479.782 15.3894L479.79 15.3878L479.806 15.3848C481.521 15.0543 483.238 14.7233 484.96 14.392L485.058 14.3731L484.389 12.6605C484.381 12.6394 484.373 12.6182 484.366 12.597L484.34 12.5206C484.246 12.2178 484.228 11.9027 484.294 11.5871C484.33 11.4049 484.395 11.2243 484.483 11.0485L484.556 10.9156L484.577 10.8821L484.591 10.8812L484.62 10.8795L484.734 10.8917L484.844 10.9042C484.872 10.9088 484.935 10.9178 484.911 10.9129L484.887 10.9079L484.839 10.9013L484.648 10.8713L484.16 10.7859C483.99 10.7548 483.82 10.723 483.65 10.6912L483.649 10.691L483.647 10.6907L483.646 10.6905C483.475 10.6586 483.305 10.6267 483.135 10.5955C482.733 10.5182 482.33 10.442 481.925 10.3657C481.631 10.3101 481.337 10.2545 481.042 10.1982L476.876 9.41533C476.177 9.28834 475.468 9.16192 474.746 9.03958C474.49 8.99496 474.221 8.95279 473.949 8.91008C473.845 8.89381 473.741 8.87747 473.637 8.86088L473.03 8.77634C472.842 8.75435 472.642 8.7352 472.444 8.71629L472.302 8.70259C467.294 8.39255 462.377 8.09938 457.433 7.83035C456.198 7.76542 454.968 7.7002 453.738 7.63178C453.238 7.60723 452.739 7.58538 452.239 7.56356C451.524 7.53232 450.81 7.50108 450.097 7.462C447.676 7.34202 445.258 7.19935 442.849 7.0497C441.58 6.97075 440.314 6.89023 439.05 6.80986L439.049 6.80984C430.719 6.28027 422.489 5.75708 414.491 5.73058C414.729 5.81016 414.991 5.88734 415.274 5.96247C414.995 5.94369 414.715 5.92527 414.435 5.90723L414.431 5.90752C409.959 5.61891 405.45 5.42893 400.867 5.40421C393.19 5.36366 385.476 5.34339 377.736 5.33686C377.287 5.20022 376.722 5.06654 375.97 4.93765L375.502 4.86705L376.243 4.91112C378.678 4.77489 381.476 4.69221 384.263 4.60985C390.75 4.41813 397.177 4.22819 398.829 3.3687C399.444 3.35636 400.059 3.35363 400.68 3.3666C400.724 3.40695 400.753 3.44736 400.782 3.48761C400.848 3.57936 400.913 3.67028 401.158 3.75779C401.691 3.9465 403.139 4.09779 405.018 4.02645L404.972 4.05176ZM400.35 86.5191C400.352 86.3981 400.35 86.2869 400.345 86.1826L400.005 87.5467L399.897 87.984C399.935 88.0041 399.989 87.9787 400.065 87.8923C400.094 87.7545 400.133 87.5894 400.174 87.4202C400.257 87.0698 400.345 86.7013 400.35 86.5191ZM294.058 5.48749C294.06 5.48984 294.062 5.49214 294.065 5.49441L295.714 5.4926C295.749 5.47987 295.767 5.46524 295.784 5.45076C295.799 5.43863 295.813 5.42661 295.838 5.41587C295.716 5.41412 295.588 5.41074 295.46 5.40737C295.192 5.40027 294.925 5.39322 294.72 5.40154C294.418 5.41382 294.033 5.46335 294.058 5.49069V5.48749ZM429.34 30.0733C429.456 29.9858 429.581 29.9049 429.706 29.8239C429.787 29.7721 429.867 29.7202 429.945 29.6665L429.499 30.0378L429.34 30.0733ZM414.664 52.424C414.738 52.2492 414.817 52.074 414.897 51.9021L414.987 51.9061C414.874 52.0801 414.767 52.2506 414.664 52.4272V52.424ZM412.452 59.5959L412.729 59.0135L412.589 59.5072L412.453 59.5991L412.452 59.5959ZM408.975 68.5005C408.863 68.4432 408.735 68.4351 408.595 68.4758L408.344 68.9283L408.603 68.3662C408.632 68.3204 408.666 68.2613 408.701 68.2023C408.776 68.0715 408.852 67.9411 408.876 67.9574C408.934 67.9939 408.967 68.1018 409 68.2116C409.015 68.2598 409.03 68.3085 409.047 68.3515L408.95 68.9293L408.975 68.5005ZM400.888 97.7354L400.982 97.267L401.076 97.409L400.888 97.7354ZM397.613 110.977C397.559 111.011 397.553 110.813 397.546 110.616C397.543 110.529 397.54 110.441 397.533 110.375C397.565 110.321 397.597 110.265 397.629 110.208C397.649 110.173 397.669 110.137 397.689 110.102H397.69C397.807 109.893 397.925 109.685 398.031 109.541C398.245 109.258 398.253 109.534 398.078 110.225C398.03 110.306 397.98 110.398 397.929 110.491C397.812 110.707 397.696 110.922 397.613 110.977ZM393.997 124.747C393.998 124.729 393.999 124.71 394 124.692C394.003 124.642 394.005 124.593 394.007 124.544C394.012 124.397 394.017 124.25 394.046 124.082C394.185 123.277 394.328 122.902 394.377 123.156C394.386 123.209 394.343 123.42 394.298 123.637C394.275 123.745 394.253 123.856 394.236 123.949C394.197 124.08 394.157 124.213 394.117 124.345V124.348C394.076 124.481 394.036 124.615 393.997 124.747ZM388.319 156.127L388.376 155.68L388.484 155.808L388.319 156.13V156.127ZM386.518 165.573L386.407 165.461L386.554 165.16L386.518 165.57V165.573ZM384.966 176.517C384.925 176.388 385.014 175.38 385.092 175.119C385.206 174.736 385.378 174.532 385.498 174.493C385.665 174.437 385.665 174.894 385.544 175.54C385.337 176.327 385.113 176.98 384.966 176.517ZM379.338 200.155C379.43 199.922 379.527 199.695 379.622 199.474C379.73 199.22 379.836 198.973 379.927 198.731C380.093 198.277 380.26 197.846 380.424 197.434C380.752 196.611 381.075 195.868 381.387 195.165L381.503 194.863C382.003 193.567 382.455 192.395 382.86 191.135C382.876 190.999 382.884 190.861 382.893 190.724C382.895 190.676 382.898 190.628 382.901 190.58L382.935 190.97C382.791 191.779 382.617 192.567 382.429 193.346C382.335 193.734 382.231 194.123 382.127 194.509L381.959 195.084L381.739 195.654C381.435 196.411 381.103 197.161 380.719 197.914L380.686 197.977C380.503 198.332 380.318 198.688 380.107 199.041C379.865 199.412 379.609 199.785 379.339 200.158L379.338 200.155ZM367.474 219.685C367.128 219.761 367.393 219.221 368.248 218.278C368.442 218.069 368.619 217.871 368.784 217.686L368.785 217.685C368.891 217.566 368.992 217.453 369.09 217.346C369.343 217.073 369.57 216.841 369.776 216.654C370.188 216.282 370.494 216.093 370.675 216.11C370.875 216.13 370.824 216.535 370.006 217.54C369.417 218.279 368.939 218.656 368.559 218.94C368.38 219.07 368.216 219.177 368.053 219.283C367.866 219.405 367.679 219.526 367.474 219.682V219.685ZM346.416 238.649L345.997 238.96L346.391 238.786L346.416 238.649ZM338.351 244.32C338.917 243.977 339.356 243.731 339.656 243.613C339.957 243.495 340.113 243.498 340.064 243.63C340.017 243.78 339.969 243.928 339.917 244.076C340.081 244.013 340.406 243.811 340.731 243.609C341.257 243.282 341.781 242.956 341.611 243.229C341.313 243.385 341.013 243.541 340.714 243.697C340.41 243.856 340.107 244.015 339.804 244.173C339.307 244.403 338.634 244.688 338.286 244.793C337.76 244.945 337.198 245.038 338.351 244.32ZM329.04 248.674C330.654 248.131 331.543 247.961 330.503 248.908C329.774 249.214 329.219 249.421 328.805 249.534C328.396 249.652 328.152 249.693 328.051 249.661C327.848 249.596 328.234 249.258 329.045 248.671L329.04 248.674ZM305.328 259.329L304.646 259.518L305.094 259.437L305.801 259.245L305.328 259.329ZM298.654 260.234L299.378 260.08L300.028 259.95L299.194 260.162L298.659 260.234H298.654ZM263.23 268.71C263.338 268.672 263.436 268.631 263.535 268.589C263.745 268.501 263.955 268.413 264.254 268.364C265.468 268.173 266.753 267.971 267.822 267.805C268.463 267.836 268.153 267.965 267.053 268.152C266.081 268.323 265.098 268.457 264.116 268.591C263.82 268.631 263.525 268.672 263.23 268.713V268.71ZM251.537 270.593L251.733 270.481L252.156 270.51L251.541 270.593H251.537ZM224.939 272.936L225.78 272.907L224.966 272.996L224.934 272.936H224.939ZM205.122 274.105C207.809 273.46 210.699 273.278 213.982 273.556L214.741 273.574L213.813 273.583C212.389 273.583 211.039 273.71 209.672 273.839H209.671C208.213 273.977 206.735 274.116 205.122 274.105ZM174.611 275.624L175.476 275.606L174.691 275.68L174.611 275.624ZM137.127 276.508C137.272 276.486 137.962 276.459 138.185 276.471C139.173 276.522 139.177 276.593 138.215 276.649C138.03 276.661 137.747 276.648 137.461 276.636C137.339 276.631 137.216 276.625 137.101 276.622C137.1 276.61 137.085 276.597 137.069 276.585C137.035 276.557 137.001 276.529 137.127 276.508ZM128.315 276.912L128.925 276.906L128.637 276.988L128.315 276.912ZM104.893 276.261C104.647 276.249 104.392 276.236 104.127 276.223C105.903 276.469 107.127 276.611 108.225 276.739C108.579 276.78 108.919 276.82 109.261 276.861C110.93 277.066 112.904 277.149 113.882 276.973C115.347 276.701 112.848 276.592 110.662 276.496L110.373 276.483C109.538 276.442 108.688 276.408 107.687 276.373C107.185 276.356 106.649 276.338 106.051 276.317C105.688 276.3 105.303 276.281 104.893 276.261ZM87.2712 274.961L88.0178 275.095C88.1901 275.147 88.6113 275.197 89.029 275.245C89.6759 275.321 90.3143 275.396 90.0059 275.479C89.2702 275.354 88.5298 275.226 87.7893 275.097L87.7573 275.092L87.2712 274.961ZM77.1571 273.445C77.2332 273.454 77.3097 273.464 77.3865 273.473L77.4852 273.484L77.5784 273.495C77.8422 273.525 78.1051 273.555 78.3546 273.598C79.7281 273.841 79.9698 273.923 78.9701 273.83C78.6508 273.795 78.0814 273.696 77.6931 273.617C77.5276 273.584 77.4201 273.542 77.314 273.502L77.2702 273.485C77.2548 273.479 77.2393 273.473 77.2234 273.467C77.202 273.46 77.18 273.452 77.1571 273.445ZM73.5923 273.611L73.5932 273.612C73.7184 273.644 73.8434 273.676 73.9689 273.706C73.8592 273.694 73.7488 273.683 73.6398 273.671L73.4813 273.655C73.3804 273.645 73.2819 273.635 73.1877 273.626C72.7517 273.54 72.1628 273.432 71.9166 273.354C71.1394 273.11 71.4917 273.143 72.8011 273.422H72.7964C73.0657 273.477 73.3293 273.544 73.5923 273.611ZM25.2312 241.82C25.2633 241.839 25.2958 241.858 25.3287 241.877C25.3737 241.903 25.4192 241.929 25.465 241.955L25.5502 242.003L25.5737 242.041C25.5927 242.072 25.6125 242.104 25.6327 242.136L25.6969 242.238L25.698 242.239C25.8199 242.432 25.9431 242.627 25.9936 242.743C26.2314 243.297 26.0286 243.156 25.4934 242.386C25.4044 242.256 25.3511 242.121 25.2979 241.986L25.2974 241.985C25.2854 241.954 25.2733 241.924 25.2609 241.893C25.2514 241.87 25.2416 241.847 25.2314 241.824L25.2312 241.82ZM11.017 207.936C11.1018 207.7 11.301 208.089 11.4172 208.666C11.4882 209.047 11.4179 209.289 11.3443 209.4C11.2269 209.568 11.0662 209.266 10.9435 208.737C10.95 208.655 10.9533 208.566 10.9566 208.476C10.9643 208.27 10.9721 208.062 11.017 207.936ZM3.16921 181.856L3.16888 182.386L3.11901 182.803L3.11753 182.245L3.16921 181.856ZM3.38791 175.524C3.42347 175.486 3.5399 175.762 3.55271 175.893C3.57162 176.083 3.56669 176.274 3.56173 176.466L3.56165 176.47L3.55969 176.549C3.55883 176.586 3.55807 176.623 3.55764 176.66C3.54215 176.672 3.52458 176.695 3.50698 176.719C3.46819 176.77 3.4292 176.822 3.41187 176.753C3.24711 176.156 3.24144 175.68 3.38811 175.527L3.38791 175.524ZM2.32564 163.535C2.39341 164.048 2.46395 164.583 2.54932 165.11C2.60164 165.291 2.65603 165.465 2.71041 165.639C2.8377 166.046 2.96512 166.452 3.06597 166.957C3.18886 167.566 3.09719 168.073 2.94349 167.578C2.82595 167.202 2.73125 166.654 2.6362 166.104C2.61048 165.955 2.58468 165.806 2.55844 165.66C2.55044 165.616 2.54242 165.572 2.53434 165.528C2.52723 165.49 2.52007 165.452 2.51288 165.414L2.50369 165.366C2.40726 164.63 2.21919 164.281 2.03344 163.936C1.71769 163.35 1.40858 162.776 1.56733 160.333C1.97129 160.85 2.1381 162.114 2.32564 163.535ZM4.13679 158.792C4.1544 158.808 4.17341 158.814 4.19232 158.821C4.23258 158.835 4.2725 158.85 4.29782 158.946C4.45587 159.512 4.44464 159.943 4.27023 160.031C4.22899 160.052 4.15104 159.787 4.12855 159.577C4.11172 159.419 4.12052 159.207 4.12911 158.999C4.13203 158.929 4.13493 158.859 4.13679 158.792ZM2.53155 151.439C2.55675 151.62 2.58846 151.799 2.61876 151.97L2.61891 151.971C2.68078 152.32 2.73679 152.636 2.71949 152.87C2.62074 154.257 2.37567 154.886 2.08632 154.952C1.89498 154.996 1.83485 154.56 1.9395 154.033C2.07268 153.377 2.21632 152.771 2.36141 152.158L2.36317 152.151L2.3639 152.148L2.36448 152.145C2.42003 151.911 2.47581 151.675 2.53135 151.436L2.53155 151.439ZM3.99396 132.624L4.13551 132.133L3.98327 132.451L3.84111 132.984L3.99396 132.624ZM5.40486 123.07L5.57899 122.635L5.40592 122.935C5.33263 123.039 5.25973 123.136 5.1868 123.234C5.01301 123.465 4.83908 123.697 4.65931 124.025C4.49775 124.321 4.18755 125.121 4.17173 125.324C4.12877 126.514 4.35364 125.931 4.55362 125.413L4.55465 125.41L4.55686 125.404C4.58297 125.336 4.60864 125.27 4.6332 125.209C4.80629 124.793 4.98044 124.289 5.15513 123.784L5.15553 123.782C5.23853 123.542 5.32166 123.301 5.40486 123.07ZM6.92766 115.401C7.11085 115.149 7.08909 115.638 6.88036 116.319C6.77839 116.641 6.65958 116.902 6.54355 117.157L6.54298 117.159C6.51407 117.222 6.48535 117.285 6.4571 117.349C6.43163 117.406 6.40655 117.464 6.38209 117.523C6.22102 117.597 6.22159 117.224 6.43111 116.556C6.57706 116.084 6.78828 115.596 6.93238 115.401H6.92766ZM20.4249 75.7439C19.546 77.0562 18.7766 78.205 18.344 77.9998C19.7882 74.364 20.7289 73.2489 21.1662 74.6545C20.914 75.0137 20.6653 75.3849 20.4249 75.7439ZM25.0364 61.0163C24.7718 61.8647 24.3645 62.7026 23.9646 63.1996C23.5077 63.7708 23.6494 63.0778 23.8427 62.3784C24.0451 61.5949 24.44 60.7866 24.9099 60.1954C25.2394 59.9373 25.2555 60.2736 25.0364 61.0163ZM40.3323 35.6719C40.3864 35.7039 40.3412 35.8159 40.2102 35.9943C40.0795 36.1759 39.8822 36.429 39.5933 36.7328C38.9318 37.4387 38.2555 38.1358 37.6392 38.7329C37.139 39.2168 37.2368 38.9602 37.8563 38.1863C38.322 37.6049 38.7685 37.0954 39.1778 36.6718C39.5917 36.2478 39.9585 35.9039 40.3323 35.6719ZM62.1985 19.7442C63.1186 19.3443 63.6404 19.0617 63.6036 18.8139C63.5158 18.848 63.4082 18.8882 63.284 18.9347C62.7654 19.1288 61.9585 19.4309 61.0968 19.8381C60.4759 20.1303 59.8279 20.4435 59.4504 20.6917C59.068 20.937 58.9256 21.084 59.2662 21.0051C59.5556 20.9239 60.5531 20.4784 61.4792 20.0647C61.7293 19.9529 61.9742 19.8435 62.1985 19.7442ZM98.0742 8.39122C97.9788 8.44153 97.896 8.4917 97.811 8.54323C97.4348 8.77133 97.0148 9.026 95.2564 9.43617C93.0683 9.95064 92.4111 9.88531 92.2226 9.746C91.9746 9.56218 92.4697 9.22637 95.2878 8.64399C96.7692 8.33707 97.7861 8.24844 98.074 8.38802L98.0742 8.39122ZM144.782 3.43168L143.851 3.46037L144.612 3.36509L144.782 3.42848V3.43168ZM146.646 4.10655C146.24 4.10647 145.834 4.10727 145.428 4.10808C145.057 4.10881 144.685 4.10954 144.313 4.10961L143.817 4.05676L144.533 4.0735C144.742 4.08812 145.154 4.06382 145.563 4.03964C146.251 3.99906 146.932 3.95883 146.641 4.10364L146.646 4.10655ZM155.847 3.26402L155.011 3.28688L155.82 3.20468L155.847 3.26402ZM165.914 3.40872C165.52 3.46523 163.66 3.53861 163.602 3.51651C162.653 3.1737 163.31 2.77327 167.928 2.2176C167.887 2.32906 167.95 2.43096 168.01 2.5288C168.184 2.81172 168.337 3.06066 165.914 3.40872ZM200.63 3.06866C197.856 3.12796 195.107 3.07321 192.048 2.97663L191.262 2.95476C188.373 2.87389 185.16 2.78396 181.4 2.85184C185.545 2.52463 189.04 2.55247 192.132 2.65661C193.804 2.72012 195.374 2.80344 196.901 2.88446C198.164 2.9515 199.398 3.01698 200.635 3.06837L200.63 3.06866ZM238.07 3.48531L238.073 3.48525C238.511 3.47523 238.951 3.4652 239.39 3.45435C238.405 3.33265 237.935 3.38978 237.465 3.44691C237.246 3.47345 237.028 3.49999 236.758 3.50859C232.9 3.19158 233.49 2.80043 234.138 2.37109C234.231 2.30907 234.326 2.24625 234.409 2.18274C228.261 2.2677 228.193 2.62205 229.653 2.96855C229.858 3.01739 230.038 3.07468 230.224 3.1344C231.101 3.41451 232.144 3.74817 236.815 3.51469C237.232 3.50446 237.651 3.49487 238.07 3.48531ZM248.27 3.3647C248.226 3.37459 248.186 3.38725 248.146 3.39992C248.06 3.42682 247.975 3.45377 247.859 3.45438C247.509 3.45678 246.973 3.43855 246.777 3.40892C246.075 3.31101 246.355 3.2551 247.441 3.27787C247.658 3.28255 247.843 3.3083 248.029 3.33407C248.107 3.34489 248.185 3.35572 248.265 3.36499L248.27 3.3647ZM279.392 3.38201C276.539 3.70315 273.121 3.61594 268.043 3.40018C268.33 3.38242 268.61 3.36488 268.886 3.34768C272.637 3.11329 275.375 2.94225 278.81 3.15462C279.318 3.1874 279.707 3.34645 279.396 3.38171L279.392 3.38201ZM301.326 2.15943L300.853 2.2401C300.617 2.28943 300.398 2.34 300.18 2.39052C299.673 2.50818 299.166 2.6256 298.44 2.72669C297.361 2.88021 295.585 3.00943 294.02 2.81394C292.765 2.65389 293.454 2.45389 295.308 2.36481C296.435 2.31079 297.708 2.28366 298.98 2.25656C299.531 2.24483 300.081 2.2331 300.619 2.2192L301.326 2.15943ZM319.996 3.11123C317.863 3.23033 315.79 3.23015 313.969 3.09871C313.171 3.04213 313.447 2.91582 314.411 2.89149C316.75 2.82704 318.377 2.96724 320 3.11093L319.996 3.11123ZM314.546 4.01063C315.207 4.2876 317.249 4.42133 321.174 4.50583C321.036 4.46817 320.907 4.4319 320.784 4.39713C319.795 4.11784 319.152 3.93618 316.728 3.92061C316.368 3.92039 315.811 3.93882 315.353 3.96073C314.895 3.98264 314.532 4.00511 314.546 4.01063ZM332.513 2.39433C332.363 2.41647 331.715 2.42765 331.497 2.41227C330.541 2.34932 330.537 2.27892 331.472 2.24354C331.651 2.2368 331.91 2.25171 332.174 2.26688C332.299 2.27408 332.425 2.28136 332.544 2.28639C332.545 2.2983 332.56 2.31091 332.574 2.32335C332.605 2.35102 332.636 2.37785 332.513 2.39433ZM363.054 1.28472L363.462 1.23524L362.677 1.22777L363.054 1.28472ZM358.866 1.99042C359.768 2.57362 362.747 2.9352 371.116 2.97279C369.543 2.85119 367.952 2.75297 366.453 2.66041C363.225 2.46113 360.421 2.28804 359.135 1.96419L358.398 1.92302L358.866 1.99042ZM384.756 0.94055C385.061 1.04697 386.076 1.16081 387.083 1.21415C388.599 1.29501 389.033 1.18334 389.419 1.08394C389.473 1.07003 389.526 1.05635 389.581 1.04348C389.526 0.847705 389.114 0.683704 386.795 0.689094C385.318 0.693742 384.388 0.812325 384.756 0.94055ZM409.722 3.38215C408.022 3.37812 408.377 3.52642 408.868 3.65986V3.65665C409.335 3.78835 410.074 3.94182 411.56 3.93659C412.075 3.93358 412.343 3.82705 412.258 3.74881C412.107 3.60716 411.378 3.45631 409.722 3.38215Z" fill="#DD5621"/>
</svg>
