<svg width="82" height="89" viewBox="0 0 82 89" fill="none" xmlns="http://www.w3.org/2000/svg">
<path fill-rule="evenodd" clip-rule="evenodd" d="M80.713 0.899846C80.7625 0.963131 80.8257 1.0287 80.8897 1.09507C81.097 1.31004 81.3124 1.53339 81.0953 1.71461C80.9124 1.87408 80.7744 2.07922 80.6365 2.28434C80.5675 2.38691 80.4986 2.48947 80.424 2.58632C80.3112 2.72912 80.1881 2.86375 80.0621 3.00156C79.9559 3.11779 79.8475 3.23627 79.7416 3.3638C79.8562 3.49785 80.0073 3.57544 80.1556 3.65158C80.337 3.74473 80.5143 3.83572 80.6154 4.0253C80.7681 4.32258 80.7368 4.57142 80.5231 4.56788C79.9823 4.55701 79.7334 4.81949 79.4823 5.08435C79.3036 5.27276 79.1238 5.46238 78.837 5.55564C78.9672 5.71546 79.0856 5.88304 79.0318 5.99443C79.0278 6.01401 78.8634 5.96965 78.8205 5.93011C78.6609 5.77487 78.6982 5.67541 78.7325 5.58388L78.7326 5.58375L78.7326 5.58365C78.7384 5.56806 78.7442 5.5527 78.7489 5.53734C78.7123 5.50545 78.6742 5.46041 78.6357 5.41489C78.5285 5.28813 78.418 5.15762 78.329 5.29693C78.2281 5.46645 78.3952 5.70853 78.5605 5.94813L78.5605 5.9482C78.6523 6.08115 78.7435 6.21333 78.7881 6.33192C78.9499 6.73321 78.5398 6.49483 78.2374 6.27882L78.1635 6.19198L78.206 6.28251C78.1188 6.40739 77.9985 6.49475 77.717 6.375L77.6647 6.28243L77.6974 6.37093C77.4156 7.08861 77.1884 7.83808 77.3501 8.78066C77.416 9.15181 77.3142 9.39621 77.0932 9.57501C76.8367 9.77709 76.5312 9.72384 76.1682 9.20928C76.1458 9.17811 76.126 9.13953 76.1055 9.09956C76.0392 8.97011 75.9653 8.82596 75.7687 8.87096C75.6508 8.89754 75.6584 9.20551 75.6759 9.21937C76.1515 9.50903 76.1315 9.71803 76.1112 9.92913C76.0979 10.0682 76.0845 10.2081 76.2126 10.3726C76.3836 10.5818 76.4328 10.8371 76.1876 10.8372C75.7085 10.8498 75.5166 11.0999 75.3248 11.3499C75.2371 11.4642 75.1493 11.5786 75.0341 11.6701C74.9257 11.7497 74.7609 11.7563 74.5516 11.6822C74.5274 11.6502 74.5394 11.6258 74.5514 11.6013C74.5713 11.5609 74.5911 11.5205 74.4474 11.4461L74.532 11.6781C74.2963 11.7313 74.2441 11.8839 74.3304 12.1571C74.4436 12.4973 74.4376 12.7718 73.8587 12.5596L73.679 12.1955L73.6247 12.1127L73.6398 12.1873L73.8195 12.5515C73.8821 12.8402 73.9214 13.0935 73.4865 13.0236C73.4086 13.0118 73.3279 12.9975 73.2465 12.9831C72.9456 12.93 72.6357 12.8752 72.4223 12.9354C71.9035 13.0727 72.3127 13.1679 72.6574 13.2293C72.6745 13.2821 72.7044 13.3436 72.734 13.4044C72.7903 13.5202 72.8454 13.6335 72.809 13.6796C72.7901 13.6988 72.7712 13.7182 72.7523 13.7377L72.7055 13.7863C72.482 14.0188 72.2532 14.2567 71.9194 14.3731C71.6726 14.4603 71.5097 14.2635 71.3398 14.0585C71.2214 13.9155 71.0996 13.7685 70.9436 13.7109C70.901 13.916 71.09 14.1304 71.2811 14.347L71.3339 14.4071L71.3638 14.4416C71.57 14.6785 71.6762 14.9048 71.4874 14.9779C70.8998 15.1865 70.7873 15.7029 70.6744 16.2214C70.6198 16.4717 70.5652 16.7224 70.4569 16.9394C70.4019 17.0475 70.3844 17.179 70.3669 17.3103C70.3352 17.549 70.3035 17.7875 70.0459 17.8856C69.7805 17.9836 69.814 18.2153 70.0468 18.57C70.0718 18.607 70.0992 18.6462 70.1272 18.6864C70.3962 19.072 70.7273 19.5468 69.7081 19.0206C69.5518 18.937 69.5486 19.0998 69.6417 19.2417C69.9306 19.673 69.8944 19.9869 69.8587 20.2964C69.8433 20.4295 69.8281 20.5618 69.8388 20.7023C69.9006 21.6343 69.8732 21.6184 68.6441 20.7503C68.6287 20.8568 68.6008 20.9573 68.573 21.0573L68.573 21.0574C68.4741 21.4138 68.3765 21.7652 68.8498 22.3659C69.0111 22.5731 68.9349 22.7922 68.5947 22.6602C67.7403 22.2989 67.9218 22.9494 68.0239 23.1953C68.1747 23.596 67.9528 23.6819 67.7316 23.7674C67.5859 23.8238 67.4404 23.8801 67.402 24.0262C67.365 24.1731 67.2015 24.0501 67.0371 23.9265C66.9407 23.854 66.844 23.7813 66.7724 23.7627C66.2008 23.6133 66.3772 23.8951 66.7217 24.2526C66.9216 24.2737 67.0444 24.3707 67.0686 24.5493C67.0726 24.5593 67.0768 24.5684 67.0809 24.5771C67.0903 24.5976 67.0987 24.6158 67.1013 24.6378L67.0426 24.6256C67.0426 24.6256 67.0136 24.5685 66.9903 24.5331L66.7695 24.4157C66.582 24.581 66.5136 24.812 66.5721 25.1203L66.5722 25.1204C66.5955 25.1559 66.6342 25.2149 66.6224 25.2227C66.5751 25.2537 66.5342 25.2044 66.5232 25.1101L66.475 25.0951C66.1966 25.0074 65.9555 24.9316 66.188 25.3469C66.4359 25.7763 66.6189 26.2229 65.8343 25.968L65.78 25.8852L65.7952 25.9599C65.8964 26.4068 65.8055 26.7513 65.7141 27.0976C65.6324 27.4073 65.5502 27.7186 65.6048 28.106C65.6609 28.4751 65.4647 28.4854 64.7152 28.2583C64.4276 28.1679 64.4265 28.3209 64.4416 28.3955C64.6089 29.1145 64.6182 29.7088 63.7592 29.7143C63.6886 29.7098 63.594 29.7719 63.6193 29.7976C64.2098 30.6263 63.9105 30.9676 63.6129 31.307C63.48 31.4585 63.3475 31.6095 63.2946 31.8035L63.2895 31.8216C63.2134 32.0916 63.1037 32.4813 62.348 31.9847C62.0155 31.7644 62.1102 31.9742 62.1812 32.1314L62.1975 32.168C62.4399 32.7226 62.2574 33.0244 62.0681 33.3374C62.0465 33.3731 62.0249 33.4089 62.0038 33.4453C61.3282 34.6327 60.5297 35.7231 59.6689 36.7699C59.5585 36.9034 59.4777 37.0591 59.3974 37.2137C59.1998 37.5943 59.0059 37.9679 58.3851 37.9842C58.358 37.9951 58.3129 37.9638 58.2681 37.9326C58.2023 37.8869 58.137 37.8415 58.1306 37.9314L58.3908 38.0058C58.5726 38.9369 57.9919 39.3267 57.4424 39.6955L57.4422 39.6956C57.3635 39.7485 57.2854 39.8009 57.2103 39.8544C56.8259 40.1377 56.5449 40.4961 56.2657 40.8522C56.0894 41.0771 55.9138 41.301 55.7134 41.5045C55.4933 41.7228 55.3161 41.9766 55.1384 42.2311L55.1383 42.2311C55.0603 42.3428 54.9822 42.4547 54.9004 42.5637C54.9717 42.5872 55.0412 42.6167 55.1081 42.6551C55.6505 42.978 56.2499 43.0724 56.8427 43.1658C57.1142 43.2085 57.3843 43.2511 57.6469 43.3152C57.7691 43.3457 57.8919 43.3802 58.0156 43.415C58.6392 43.5901 59.2874 43.7723 60.0129 43.4798C60.1584 43.4181 60.3428 43.4156 60.4339 43.5672C60.6815 44.0418 61.0392 44.0443 61.3964 44.0467C61.6083 44.0482 61.82 44.0496 62.0083 44.1496C62.2684 44.2876 62.5504 44.333 62.8336 44.3786C63.1015 44.4218 63.3705 44.4651 63.6231 44.5871C63.7409 44.6431 63.8909 44.5907 64.0414 44.5382C64.3779 44.4208 64.7165 44.3025 64.7017 45.3933C64.7025 45.5195 64.7967 45.3873 64.8678 45.2874C64.8774 45.274 64.8865 45.2611 64.895 45.2496C65.2645 44.7816 65.5593 44.7884 65.7793 45.2698C65.7876 45.2861 65.7933 45.3068 65.7987 45.3266C65.8123 45.376 65.8241 45.4193 65.8708 45.3705C66.6585 44.5846 67.2889 44.7977 67.9156 45.0097C68.0372 45.0508 68.1586 45.0918 68.2809 45.1255C68.4008 45.1586 68.5232 45.1857 68.6461 45.2128C69.1369 45.3213 69.6351 45.4314 70.0126 45.9346C70.8833 47.1006 71.962 47.4218 73.0372 47.7419C73.1658 47.7802 73.2945 47.8185 73.4227 47.8582C73.6809 47.9425 73.9176 48.0325 74.1071 48.3987C74.5595 49.2689 75.1847 49.603 75.8261 49.8588C76.0368 49.947 76.2427 50.064 76.4483 50.1807C76.8568 50.4128 77.264 50.6441 77.705 50.6474C78.1541 50.6487 78.6191 50.6227 79.0844 50.5458C79.644 50.4577 80.0781 51.1709 80.1363 52.3167C80.1702 53.0386 79.8862 53.521 79.6281 53.6818C79.5381 53.7418 79.4477 53.8042 79.3571 53.8666C78.6832 54.3313 77.9982 54.8036 77.4205 54.3774C76.9679 54.0485 76.4828 53.8763 75.9777 53.751C75.6825 53.6766 75.3846 53.61 75.0863 53.5433C74.4531 53.4018 73.8183 53.2599 73.2039 53.0421C72.7219 52.8679 72.2103 52.9005 71.7003 52.9329C71.4363 52.9497 71.1727 52.9665 70.9139 52.9546C70.7027 52.9458 70.4915 52.9352 70.2799 52.9246L70.2793 52.9245C69.5071 52.8857 68.7315 52.8466 67.943 52.8993C67.0125 52.9622 66.1318 52.7678 65.2517 52.5736C64.6231 52.4349 63.9948 52.2963 63.3488 52.2515C62.9108 52.2212 62.4709 52.1974 62.0306 52.1737C60.6649 52.0999 59.295 52.026 57.9656 51.7565C58.1223 52.3252 58.4797 52.7818 58.8374 53.2388C59.1383 53.6232 59.4393 54.0078 59.6215 54.4598C59.7089 54.6764 59.8449 54.868 59.9816 55.0604C60.1825 55.3434 60.3849 55.6283 60.4358 55.9975L60.4196 56.0758L60.4672 55.9938C60.6912 55.9484 60.9167 55.9442 60.8883 56.0812C60.7915 56.6689 61.0564 57.0649 61.3182 57.4561C61.4787 57.6959 61.6379 57.9339 61.7119 58.2133C61.9006 58.926 62.2838 59.5265 62.6646 60.1232C62.8497 60.4133 63.0342 60.7025 63.1955 61.0033C63.2665 61.1346 63.3352 61.2693 63.4045 61.4052L63.4047 61.4056C63.76 62.1023 64.1304 62.8287 64.9065 63.289C65.0705 63.3843 65.2105 63.5462 65.1601 63.74C65.0115 64.3007 65.2827 64.6328 65.5543 64.9653C65.7141 65.1609 65.874 65.3567 65.9485 65.5991C66.047 65.9351 66.2331 66.227 66.4196 66.5195C66.5954 66.795 66.7714 67.071 66.8747 67.3848C66.9232 67.5304 67.0755 67.6315 67.2288 67.7332C67.5723 67.9611 67.9214 68.1927 67.1241 68.938C67.0404 69.0204 67.1772 69.0199 67.2965 69.0195H67.2967H67.297H67.2972C67.3242 69.0194 67.3502 69.0193 67.3725 69.0202C67.8528 69.0308 68.0865 69.036 68.1635 69.1484C68.2365 69.2549 68.1688 69.4578 68.0371 69.8527C68.0327 69.8742 68.0211 69.8961 68.0104 69.9165C67.9868 69.9613 67.9673 69.9985 68.036 70.0057C69.2006 70.1795 69.5254 70.9101 69.8487 71.6377C69.9132 71.7828 69.9776 71.9277 70.0486 72.0681C70.1179 72.2089 70.1945 72.3471 70.2713 72.4858C70.5607 73.0083 70.8535 73.537 70.774 74.2308C70.5851 75.8433 71.1616 77.0685 71.7381 78.2938C71.8068 78.4398 71.8755 78.5859 71.943 78.7326C72.0761 79.0258 72.1897 79.3149 72.061 79.7376C71.7574 80.7571 71.9887 81.561 72.2772 82.3358C72.373 82.5962 72.4417 82.8724 72.5103 83.1481C72.6427 83.6801 72.7746 84.2102 73.0997 84.6208C73.432 85.0371 73.8055 85.4517 74.2067 85.8312C74.6936 86.2898 74.4869 87.1866 73.6826 88.0102C73.1649 88.5359 72.5918 88.5905 72.2907 88.4667C72.1775 88.4234 72.0619 88.3813 71.9459 88.339C71.1029 88.0318 70.2415 87.7179 70.1234 86.9033C70.034 86.2515 69.793 85.6908 69.5186 85.1435C69.3431 84.7969 69.1582 84.4554 68.9735 84.1142C68.6169 83.4556 68.2609 82.7979 67.974 82.1059C67.7409 81.5473 67.335 81.0984 66.9297 80.6502L66.9297 80.6501C66.7184 80.4165 66.5074 80.1831 66.3211 79.9344C66.1942 79.7666 66.0682 79.5979 65.942 79.4291C65.3673 78.6598 64.7907 77.8881 64.1253 77.1804C63.3847 76.3855 62.8675 75.461 62.3498 74.5358C61.9685 73.8542 61.5869 73.1722 61.1157 72.5414C60.8005 72.1168 60.4793 71.695 60.1578 71.273L60.1562 71.2709L60.156 71.2706L60.156 71.2705L60.1559 71.2705C59.1434 69.9411 58.1283 68.6084 57.2879 67.1708C57.1315 66.9043 56.9833 66.6312 56.8347 66.3573C56.3021 65.3761 55.7638 64.3842 54.8232 63.6459C54.7688 63.603 54.7369 63.5402 54.7046 63.4765C54.6952 63.458 54.6858 63.4394 54.6758 63.4213C54.1607 62.2942 53.4756 61.2672 52.7907 60.2405C52.1591 59.2936 51.5276 58.347 51.0299 57.3224C50.4715 56.1749 49.6869 55.1336 48.7583 54.1951L48.7406 54.179C48.7019 54.1441 48.6603 54.1066 48.6436 54.059C48.4265 53.3228 47.9746 52.7263 47.4993 52.1435C47.378 52.3933 47.3065 52.6837 47.3127 53.0371C47.3152 53.2215 47.2999 53.443 47.1641 53.5067C46.3711 53.8534 45.9371 54.5126 45.5029 55.1719C45.2174 55.6055 44.9319 56.0391 44.5442 56.3841C44.3572 56.5511 44.2107 56.7547 44.0641 56.9585L44.0641 56.9585L44.0641 56.9585L44.0641 56.9585L44.0641 56.9585L44.064 56.9586C43.847 57.2602 43.6299 57.5621 43.2809 57.7456L43.1985 57.7489L43.2964 57.7693C43.4067 57.976 43.4737 58.1942 43.3342 58.2265C42.7243 58.3477 42.4077 58.7514 42.0945 59.1508C41.9045 59.3932 41.7157 59.634 41.4633 59.8091C40.8151 60.2514 40.3343 60.844 39.8575 61.4317C39.6252 61.7179 39.3939 62.003 39.1446 62.269C39.0364 62.3819 38.9244 62.4938 38.8115 62.6065L38.8115 62.6066C38.2177 63.1998 37.5994 63.8176 37.3652 64.7387C37.3245 64.9346 37.1937 65.1219 36.9955 65.142C36.3959 65.1905 36.1451 65.5727 35.8934 65.9563C35.7439 66.1841 35.5942 66.4124 35.3708 66.5715C35.0749 66.7826 34.8388 67.0554 34.6019 67.329C34.3685 67.5987 34.1343 67.8691 33.8417 68.0821C33.707 68.1809 33.6469 68.3662 33.5867 68.5519C33.4528 68.9646 33.3181 69.3799 32.3631 68.8576C32.2502 68.7984 32.3026 68.9615 32.3418 69.0835L32.3535 69.1202L32.3572 69.1321C32.5955 70.0498 32.5935 70.0596 31.703 70.0687C31.6814 70.0703 31.6583 70.0661 31.6367 70.0622C31.5857 70.0531 31.5433 70.0455 31.5497 70.1185C31.7002 71.3312 31.0452 71.8958 30.3955 72.4559C30.2701 72.564 30.1449 72.6719 30.0257 72.7843C29.9082 72.8955 29.7944 73.012 29.6804 73.1287L29.6804 73.1288C29.2277 73.5925 28.7711 74.0603 28.054 74.2132C26.4004 74.5558 25.3149 75.516 24.2286 76.4769C24.1019 76.5889 23.9752 76.701 23.8476 76.8121C23.587 77.0338 23.3208 77.2338 22.8697 77.2422C21.7712 77.2694 21.0283 77.7484 20.3184 78.2648C20.0791 78.4392 19.8166 78.592 19.5546 78.7446C19.0524 79.0369 18.5518 79.3284 18.2186 79.7692C17.8799 80.2198 17.5527 80.7135 17.2723 81.2273C16.9284 81.8504 15.9846 81.9199 14.9669 81.3612C14.3242 81.0133 14.1342 80.4529 14.174 80.1139C14.19 79.9897 14.2043 79.8637 14.2186 79.7373C14.3237 78.8115 14.4306 77.8696 15.215 77.5113C15.8349 77.2315 16.3478 76.8273 16.8256 76.3955C17.1698 76.0848 17.5017 75.7609 17.8335 75.4369L17.8336 75.4368L17.8337 75.4367L17.8338 75.4366L17.8339 75.4366L17.8341 75.4364C18.3623 74.9207 18.8907 74.4049 19.4698 73.9419C19.9672 73.5436 20.3092 73.0078 20.6506 72.473C20.8305 72.1911 21.0103 71.9095 21.2126 71.6484C21.967 70.6714 22.7235 69.6846 23.3727 68.6245C23.9542 67.6734 24.7105 66.8874 25.4665 66.1018L25.4665 66.1017C26.0576 65.4874 26.6485 64.8733 27.1553 64.1808C27.5515 63.6503 27.939 63.113 28.3266 62.5757C29.2955 61.2324 30.2645 59.8892 31.3677 58.6519C31.5769 58.4188 31.794 58.191 32.0116 57.9626C32.8308 57.1028 33.6573 56.2354 34.0968 55.0517C34.1249 54.9656 34.1999 54.8995 34.275 54.8333C35.2599 53.9151 36.0772 52.8563 36.8946 51.7973L36.8947 51.7972C37.6015 50.8815 38.3085 49.9657 39.124 49.1405C39.2583 49.0042 39.3892 48.8646 39.5167 48.7217C38.6299 48.5371 37.725 48.422 36.7827 48.4701C36.5449 48.4812 36.3394 48.3795 36.134 48.2777C36.0276 48.225 35.9212 48.1723 35.8104 48.1354C35.0286 47.864 34.2045 47.7747 33.3818 47.6856L33.3817 47.6856L33.3816 47.6856C32.9713 47.6412 32.5613 47.5968 32.1572 47.5298C31.1148 47.3607 30.0988 47.0975 29.0818 46.834L29.0817 46.834L29.0817 46.834C28.3443 46.643 27.6063 46.4518 26.8573 46.2963H26.8573C25.2809 45.9689 23.7046 45.6415 22.2853 44.7543C22.124 44.6546 21.9345 44.6474 21.7441 44.6401C21.5821 44.634 21.4193 44.6278 21.2728 44.5644C20.7281 44.3307 20.1644 44.1647 19.5994 43.9983C19.0167 43.8268 18.4327 43.6548 17.8669 43.4077C17.7222 43.3438 17.5776 43.2775 17.4328 43.211C16.7912 42.9168 16.1445 42.6202 15.4572 42.5191C14.2464 42.3486 13.1137 41.9105 11.9824 41.4729C10.8329 41.0282 9.68484 40.5841 8.45746 40.4218C7.70003 40.3132 6.98007 40.0798 6.25999 39.8463C5.32054 39.5416 4.38088 39.2369 3.35745 39.2094C2.73762 39.192 2.18183 38.9182 1.6287 38.6457C1.42067 38.5432 1.21302 38.4409 1.00248 38.3526C0.910409 38.3119 0.8451 38.191 0.779394 38.0694L0.779375 38.0693C0.751616 38.0179 0.723785 37.9664 0.693835 37.9208C0.534995 37.6529 0.643679 37.2771 0.892749 37.0122C1.23069 36.6637 1.52337 36.3364 1.67588 35.602L1.73742 35.5025L1.67017 35.5804L1.60163 35.5662C1.33087 35.6349 1.43113 35.3445 1.52256 35.0797C1.57313 34.9332 1.62099 34.7945 1.60193 34.7287C1.5257 34.4806 1.40056 34.6747 1.27227 34.8737C1.17493 35.0246 1.07578 35.1784 0.99481 35.144C0.975228 35.1399 0.95195 35.1044 0.948259 35.073C1.09325 34.0307 0.727817 34.1182 0.340768 34.2115C0.222899 34.2381 0.173416 34.0337 0.275244 33.7893L0.269143 33.8187C0.296358 33.7515 0.322003 33.6734 0.34821 33.5936C0.443198 33.3045 0.545584 32.9928 0.756968 33.0927C0.919193 33.1644 1.10282 33.1895 1.28609 33.2146L1.28614 33.2147C1.39878 33.2301 1.51127 33.2455 1.61858 33.2717C1.79537 33.3153 1.96309 33.3802 2.13809 33.4479L2.13819 33.448L2.13825 33.448L2.13833 33.448C2.22292 33.4808 2.30922 33.5142 2.39907 33.5461C2.47728 33.3891 2.50045 33.2227 2.52309 33.06C2.55117 32.8583 2.57844 32.6623 2.70885 32.4972C2.9049 32.2417 3.1133 32.1727 3.16482 32.3672C3.28366 32.8568 3.54674 32.9868 3.81032 33.117C3.99843 33.21 4.1868 33.303 4.32317 33.527C4.42056 33.3532 4.52773 33.1814 4.62767 33.1919C4.64725 33.196 4.64409 33.3588 4.62413 33.4057C4.53456 33.5958 4.45551 33.6038 4.37706 33.6118C4.35953 33.6136 4.34203 33.6154 4.32445 33.6192C4.30732 33.6634 4.28064 33.7138 4.2536 33.7649L4.25358 33.7649C4.17643 33.9107 4.09635 34.0621 4.22684 34.0892C4.38027 34.121 4.53909 33.8754 4.69632 33.6321C4.77991 33.5028 4.86304 33.3743 4.94468 33.2884C5.22922 33.0003 5.12385 33.4584 5.00944 33.8125L4.94994 33.9023L5.00538 33.8321C5.12084 33.8663 5.20655 33.9454 5.17491 34.2452L5.11744 34.3252L5.18064 34.2668C5.80433 34.2636 6.43043 34.1996 7.13622 33.7027C7.41225 33.5047 7.62599 33.5083 7.81127 33.6489C8.02388 33.8054 8.04121 34.1154 7.7099 34.6287C7.69184 34.6583 7.66684 34.6893 7.64036 34.722C7.55332 34.8297 7.45034 34.9571 7.52582 35.1216C7.5683 35.2121 7.80645 35.0982 7.8203 35.0806C7.95004 34.5444 8.11642 34.4854 8.28453 34.4258C8.39689 34.386 8.51003 34.3459 8.61353 34.1628C8.74473 33.9245 8.92617 33.7885 8.98137 34.0145C9.08639 34.4467 9.31592 34.5305 9.54589 34.6144C9.65353 34.6537 9.76128 34.693 9.85639 34.7682C9.94414 34.8374 9.97441 34.9867 9.97087 35.2005C9.95203 35.2353 9.93064 35.2329 9.90901 35.2304C9.87356 35.2264 9.83743 35.2223 9.81068 35.3817L9.97659 35.2221C10.0673 35.4248 10.2027 35.412 10.3943 35.2271C10.6352 35.0014 10.8497 34.903 10.8081 35.4969L10.5627 35.7932L10.515 35.8752L10.5741 35.8364L10.8216 35.5304C11.0307 35.3593 11.2199 35.2352 11.2658 35.6533C11.2744 35.7322 11.2817 35.8149 11.289 35.8982L11.289 35.8983C11.3147 36.1898 11.341 36.4882 11.4251 36.6566C11.6436 37.0799 11.6271 36.6679 11.606 36.3265C11.6351 36.2957 11.6676 36.2561 11.7008 36.2157C11.7869 36.1107 11.8775 36.0005 11.924 36.0249L11.9779 36.0507C12.2222 36.1676 12.4788 36.2904 12.6594 36.5657C12.7832 36.7545 12.6641 36.9785 12.5394 37.2131C12.4531 37.3753 12.3642 37.5426 12.3509 37.7068C12.5226 37.6781 12.6547 37.4003 12.7842 37.1283C12.7983 37.0985 12.8124 37.0689 12.8265 37.0396C12.9659 36.7622 13.1261 36.5809 13.2094 36.7208C13.5017 37.1751 13.9271 37.0782 14.3556 36.9806C14.561 36.9339 14.767 36.8869 14.9594 36.9004C15.0555 36.906 15.1602 36.8701 15.2644 36.8345C15.4557 36.7689 15.6454 36.704 15.7773 36.8967C15.9189 37.0997 16.0767 36.9793 16.3049 36.6182C16.3311 36.5765 16.3588 36.5309 16.3872 36.4842C16.6232 36.0959 16.9041 35.6336 16.7296 36.737C16.693 36.9132 16.8288 36.8495 16.9181 36.7149C17.188 36.2816 17.4378 36.1889 17.6846 36.0974L17.6846 36.0974C17.788 36.059 17.8909 36.0209 17.9945 35.9579C18.6958 35.5317 18.6897 35.561 18.3043 37.0232C18.3858 36.9967 18.4662 36.9824 18.5466 36.9682L18.5466 36.9682L18.5466 36.9682C18.8442 36.9153 19.142 36.8624 19.499 36.1887C19.6184 35.9582 19.8048 35.9458 19.7826 36.2987C19.7052 37.212 20.1614 36.7859 20.3334 36.5969C20.6053 36.2962 20.7247 36.4614 20.8425 36.6246C20.9201 36.732 20.997 36.8385 21.1163 36.8106C21.2369 36.7845 21.1835 36.9788 21.1292 37.1758C21.0969 37.2932 21.0643 37.4116 21.0682 37.4849C21.0934 38.0519 21.2719 37.7826 21.4577 37.3309C21.4257 37.1404 21.466 36.9956 21.5981 36.9005C21.614 36.8731 21.6397 36.8478 21.6633 36.8323L21.6728 36.8853C21.6728 36.8853 21.6312 36.938 21.6153 36.9653L21.5644 37.2101C21.7481 37.3095 21.9385 37.2776 22.1595 37.0988C22.1752 37.0789 22.1928 37.0497 22.2048 37.0298L22.2048 37.0298C22.214 37.0145 22.2199 37.0047 22.219 37.009C22.2541 37.0367 22.2321 37.0934 22.1591 37.1498L22.1589 37.1802C22.1564 37.4751 22.1541 37.7459 22.4244 37.3478C22.6901 36.9536 22.9889 36.5969 22.9849 37.403L22.9372 37.485L22.9866 37.4442C23.2994 37.1726 23.5828 37.11 23.8656 37.0477C24.1233 36.9908 24.3805 36.934 24.659 36.7191C24.9252 36.5191 24.9828 36.6842 24.9967 37.4531C25.0063 37.7513 25.1225 37.6835 25.1739 37.6329C25.6753 37.1855 26.1304 36.9124 26.3503 37.673C26.3675 37.7378 26.4377 37.7933 26.4536 37.7659C26.9339 36.883 27.2696 37.0026 27.6014 37.1208C27.749 37.1734 27.8958 37.2257 28.0543 37.1894L28.0791 37.1843C28.302 37.1378 28.6098 37.0737 28.4369 37.9532C28.3538 38.3533 28.4948 38.1634 28.594 38.0297L28.6091 38.0094C28.9571 37.5559 29.2289 37.5854 29.5103 37.6159C29.546 37.6197 29.5819 37.6236 29.618 37.6265C30.6864 37.6952 31.7145 37.9087 32.7381 38.1928C32.8641 38.2277 32.9987 38.229 33.1329 38.2303C33.4717 38.2337 33.8077 38.237 33.9948 38.7807C34.0117 38.8011 34.0005 38.8559 33.9896 38.909C33.9741 38.9842 33.9594 39.0561 34.0263 39.0221L34.0107 38.7533C34.6385 38.1748 35.0811 38.4879 35.507 38.789C35.578 38.8393 35.6486 38.8892 35.7195 38.9346C36.0429 39.1476 36.3945 39.2248 36.7437 39.3015C36.9573 39.3484 37.1699 39.3951 37.3747 39.4725C37.6006 39.562 37.8389 39.5982 38.0777 39.6345C38.4674 39.6936 38.858 39.7529 39.1964 40.0449C39.3309 40.1596 39.4839 40.2833 39.6594 40.3236C39.2196 39.6198 38.8066 38.9002 38.3938 38.1808L38.3938 38.1808C37.9352 37.3815 37.4767 36.5826 36.9818 35.8061C35.9562 34.204 34.9346 32.5824 34.3954 30.7035C34.3343 30.4918 34.1869 30.3221 34.0393 30.1522C33.9142 30.0082 33.789 29.8641 33.7164 29.6943C33.4406 29.0537 33.1043 28.4468 32.7679 27.8397C32.4153 27.2032 32.0625 26.5666 31.7794 25.8909C31.6989 25.7032 31.6206 25.5126 31.5421 25.3213L31.5421 25.3213C31.2313 24.5643 30.916 23.7964 30.4386 23.151C29.598 22.0084 28.9758 20.7185 28.3583 19.4383C27.7118 18.0982 27.0705 16.7687 26.1893 15.6297C25.7297 15.0404 25.3501 14.4117 24.9786 13.7965C24.3592 12.7705 23.7624 11.7822 22.8555 11.0767C22.4093 10.7356 22.1209 10.2727 21.8382 9.81912L21.8382 9.8191C21.6908 9.5827 21.545 9.3488 21.3793 9.13593C21.3257 9.06293 21.3294 8.93705 21.3331 8.8087C21.335 8.74634 21.3368 8.6834 21.3321 8.62566C21.3225 8.32748 21.5973 8.03729 21.9394 7.9143L21.948 7.91151C22.4048 7.76302 22.8291 7.62507 23.3127 7.05564L23.4151 7.0054L23.3266 7.03808C23.3266 7.03808 23.2956 6.99078 23.2662 6.98468C22.98 6.90593 23.1933 6.70779 23.3959 6.51953C23.5148 6.40909 23.63 6.30205 23.6386 6.22452C23.6709 5.95634 23.4637 6.06713 23.2526 6.18003C23.0951 6.26428 22.9353 6.34969 22.8713 6.27966C22.8538 6.2658 22.8423 6.22257 22.8582 6.19523C23.4296 5.31298 23.0265 5.18841 22.5977 5.08914C22.4606 5.06067 22.4956 4.84323 22.6872 4.65833L22.7047 4.67219C22.7573 4.62119 22.8118 4.55907 22.8674 4.49565L22.8674 4.49563C23.0685 4.2662 23.2845 4.01977 23.4827 4.22097C23.6158 4.37187 23.7834 4.4861 23.9526 4.60139C24.0778 4.6867 24.2038 4.77258 24.3173 4.87434C24.5569 5.09773 24.7708 5.34642 24.9924 5.60694C25.1388 5.5147 25.2358 5.37788 25.3313 5.24323C25.4505 5.0751 25.5673 4.91035 25.7748 4.84C26.0835 4.7305 26.3397 4.82456 26.3068 5.03221C26.2119 5.54457 26.4067 5.84527 26.5978 6.14044C26.7442 6.36655 26.8885 6.58942 26.899 6.9017C27.0898 6.81877 27.2787 6.74565 27.3721 6.83655C27.3897 6.85041 27.2984 6.99486 27.2531 7.0161C27.0649 7.11887 26.9838 7.06663 26.9051 7.01585C26.8874 7.00448 26.8699 6.99319 26.8513 6.98372C26.8165 7.00459 26.7721 7.02559 26.7259 7.04741C26.5707 7.12076 26.3961 7.20325 26.5056 7.32046C26.6355 7.45232 26.9085 7.36147 27.1839 7.26981C27.3376 7.21865 27.492 7.16725 27.6228 7.15416C28.0486 7.12005 27.6972 7.43517 27.4073 7.65072L27.307 7.69116L27.4012 7.68009C27.4886 7.80037 27.5327 7.9321 27.3309 8.16595L27.2347 8.18681L27.3269 8.18554C27.8941 8.65061 28.5067 9.09445 29.4311 9.26602C29.7934 9.34126 29.9921 9.51532 30.0706 9.77674C30.1605 10.0814 29.9841 10.3409 29.3809 10.4914C29.3451 10.5009 29.303 10.5056 29.2589 10.5105C29.1163 10.5265 28.9535 10.5447 28.9221 10.7332C28.8997 10.8409 29.1833 10.9508 29.1972 10.9333C29.6509 10.6102 29.8303 10.7022 30.01 10.7942C30.1294 10.8554 30.2489 10.9166 30.449 10.8562C30.7104 10.7778 30.9572 10.8188 30.8595 11.0436C30.672 11.4775 30.8139 11.7384 30.9561 11.9996C31.0227 12.1221 31.0894 12.2446 31.1222 12.3851C31.1467 12.5127 31.0868 12.6535 30.9307 12.8151C30.8895 12.826 30.8728 12.8049 30.8562 12.7841C30.8294 12.7503 30.8032 12.7172 30.6737 12.823L30.9148 12.8425C30.866 13.0775 30.979 13.1724 31.2495 13.198C31.6003 13.23 31.8447 13.3318 31.4081 13.762L31.0059 13.7806L30.9097 13.8015L30.988 13.8177L31.3922 13.7893C31.6782 13.8385 31.9209 13.8992 31.6711 14.266C31.6287 14.3286 31.5834 14.3928 31.5377 14.4575C31.3611 14.7075 31.1785 14.966 31.1349 15.176C31.0291 15.6851 31.3002 15.3635 31.5023 15.0787C31.5574 15.0831 31.6249 15.0794 31.6913 15.0757C31.8188 15.0686 31.9421 15.0617 31.9649 15.1135L31.995 15.1892C32.1138 15.4875 32.2355 15.7932 32.1985 16.1527C32.1714 16.3979 31.929 16.4692 31.6755 16.5437C31.4955 16.5967 31.3099 16.6512 31.1917 16.7709C31.353 16.8933 31.6289 16.7995 31.8999 16.7074C31.9402 16.6937 31.9804 16.6801 32.0201 16.6672C32.315 16.5752 32.572 16.5673 32.5431 16.7554C32.4734 17.3579 32.8912 17.6523 33.3079 17.9459C33.5051 18.0848 33.7021 18.2236 33.847 18.3948C33.9199 18.4829 34.0305 18.5462 34.1411 18.6096C34.3402 18.7236 34.5392 18.8377 34.5184 19.096C34.4929 19.3664 34.7063 19.4209 35.1325 19.3358C35.1795 19.3267 35.23 19.3161 35.2818 19.3052L35.282 19.3051L35.2822 19.3051C35.7347 19.2098 36.2822 19.0945 35.3938 19.7987C35.2576 19.9134 35.3886 19.9712 35.5595 19.9352C36.0643 19.8403 36.3252 19.9837 36.5867 20.1274C36.6996 20.1895 36.8126 20.2516 36.9454 20.2945C37.7965 20.5734 37.7728 20.589 36.4863 21.3737C36.5739 21.4254 36.6513 21.4863 36.7285 21.547C37.0042 21.7637 37.2779 21.9789 38.0073 21.7713C38.2667 21.7026 38.4185 21.8567 38.1637 22.1C37.4902 22.7364 38.1429 22.7902 38.4056 22.8039C38.8283 22.8118 38.8128 23.0396 38.7974 23.2664C38.7873 23.4163 38.7771 23.5657 38.8936 23.6508C39.0034 23.7376 38.8305 23.8376 38.6551 23.939C38.5502 23.9996 38.4445 24.0607 38.3978 24.1198C38.0277 24.5741 38.3557 24.5196 38.812 24.3386C38.9192 24.1668 39.0472 24.0913 39.2116 24.1357C39.2263 24.1387 39.242 24.1369 39.2577 24.135C39.2734 24.1332 39.2891 24.1313 39.3038 24.1344L39.2741 24.1793C39.2741 24.1793 39.2015 24.1846 39.1701 24.1883L38.9748 24.3418C39.0418 24.56 39.225 24.7104 39.5306 24.7636C39.5453 24.763 39.5634 24.7592 39.5807 24.7555C39.6119 24.7489 39.6407 24.7428 39.6444 24.7566C39.6538 24.8097 39.5988 24.8289 39.5008 24.8085L39.4817 24.8295C39.2774 25.0529 39.0968 25.2504 39.5765 25.1817C40.0595 25.1186 40.542 25.1065 39.9884 25.7064L39.8922 25.7273L39.9607 25.7415C40.4006 25.8059 40.6725 26.0064 40.946 26.2082C41.1903 26.3883 41.4358 26.5694 41.8034 26.6554C42.1559 26.7286 42.0879 26.9085 41.5775 27.497C41.3778 27.7211 41.5185 27.7809 41.5989 27.7874C42.314 27.8849 42.8559 28.0791 42.5129 28.8454C42.4888 28.9119 42.5097 29.0081 42.5313 29.0024C43.515 28.7612 43.7032 29.1432 43.8904 29.5233C43.9735 29.6921 44.0565 29.8605 44.2088 29.9739L44.2241 29.9851C44.437 30.1411 44.745 30.3669 44.0001 30.8804C43.6786 31.0989 43.886 31.0872 44.0508 31.0779C44.0688 31.0769 44.0864 31.0759 44.1026 31.0753C44.6859 31.0432 44.884 31.2969 45.0961 31.5684L45.0962 31.5686L45.0964 31.5688L45.0965 31.5689C45.1247 31.605 45.1531 31.6414 45.1827 31.6775C45.9971 32.6739 46.6639 33.7418 47.2813 34.8506C47.3584 34.9943 47.4681 35.118 47.5771 35.2409L47.5771 35.2409C47.8429 35.5407 48.1046 35.8357 47.8778 36.4043C47.8724 36.4302 47.8314 36.459 47.7901 36.4879C47.7222 36.5355 47.6533 36.5838 47.7409 36.621L47.917 36.4125C48.1081 36.441 48.2649 36.4915 48.3945 36.5591C49.1068 35.7911 49.6699 34.9078 50.2318 34.0263C50.4949 33.6136 50.7577 33.2013 51.0355 32.8013C51.7339 31.766 52.5061 30.7925 53.2781 29.8193L53.2781 29.8192L53.2782 29.8191L53.2782 29.8191L53.2783 29.819L53.2783 29.8189C53.9089 29.0239 54.5394 28.229 55.1292 27.401C56.2769 25.7601 57.4519 24.1351 59.0383 22.8406C59.2164 22.6965 59.3197 22.4868 59.4234 22.2761L59.4234 22.2761C59.5127 22.0946 59.6024 21.9125 59.7405 21.7711C60.2404 21.2367 60.6878 20.6621 61.1349 20.088L61.1349 20.0879C61.6036 19.4861 62.0718 18.8848 62.5999 18.3307C62.7358 18.1843 62.8745 18.0385 63.0136 17.8922C63.6153 17.2597 64.226 16.6177 64.6616 15.8787C65.4086 14.6145 66.3447 13.4905 67.2794 12.3681C68.2953 11.1482 69.3096 9.93034 70.0778 8.53668C70.5277 7.70298 71.0802 6.94917 71.6332 6.19469C72.3656 5.19552 73.0988 4.19519 73.5959 3.00656C73.9258 2.22695 74.5437 1.56983 75.1858 0.887095L75.1858 0.88707C75.3633 0.698328 75.5426 0.507629 75.7182 0.311842C75.8156 0.198895 75.9857 0.149274 76.1603 0.0983442C76.2267 0.0789744 76.2937 0.0594152 76.3576 0.0361109C76.743 -0.0983265 77.0471 0.15888 77.1521 0.538171C77.2817 1.04512 77.4529 1.49942 78.0973 1.88858L78.1593 1.98318L78.1189 1.88286C78.1189 1.88286 78.1604 1.83022 78.1763 1.80288C78.2665 1.46284 78.4903 1.66299 78.697 1.84783C78.814 1.95241 78.9254 2.0521 79.0041 2.0463C79.2912 2.03614 79.1754 1.82975 79.0563 1.61756C78.9662 1.45705 78.8743 1.29321 78.9535 1.20849C78.9771 1.19297 79.0244 1.16194 79.0517 1.17783C79.9689 1.66801 80.114 1.26502 80.2773 0.811531L80.2883 0.780997C80.3404 0.628408 80.5774 0.667422 80.7387 0.874541L80.713 0.899846ZM22.7591 76.5452L22.6865 76.5506L22.7449 76.6137L22.7591 76.5452ZM27.6454 73.7709L27.6332 73.8296L27.7058 73.8243L27.6454 73.7709ZM28.2206 73.1652L28.2023 73.2533L28.3002 73.2737C28.3002 73.2737 28.3671 73.2467 28.3536 73.2132C28.3405 73.1288 28.276 73.095 28.2128 73.1534L28.2206 73.1652ZM28.921 72.5957L28.8484 72.6011L28.897 72.6622L28.9092 72.6035L28.921 72.5957ZM29.9623 71.8111L30.0301 71.8456L29.968 71.8327L29.7637 71.8822C29.7054 71.7423 29.7809 71.7675 29.8585 71.7933C29.8987 71.8067 29.9395 71.8203 29.9623 71.8111ZM30.3245 71.0999L30.4804 71.0846C30.4777 71.0916 30.4754 71.0988 30.4731 71.1062C30.4697 71.1174 30.4667 71.129 30.4637 71.1404C30.453 71.1807 30.4427 71.2197 30.4176 71.2418C30.4017 71.2574 30.3658 71.2572 30.3281 71.257C30.3048 71.2568 30.2808 71.2566 30.2606 71.2602L30.3245 71.0999ZM60.7968 32.2243L60.7846 32.2831L60.8572 32.2777L60.7968 32.2243ZM63.3961 28.9546C63.2908 28.8714 63.2124 28.8551 63.1962 28.9335C63.1939 28.9445 63.2088 28.9655 63.2262 28.9898C63.2397 29.0088 63.2546 29.0298 63.264 29.0497C63.3692 29.1328 63.4476 29.1491 63.4736 29.0728C63.4777 29.0532 63.4389 28.9941 63.4058 28.9566L63.3961 28.9546ZM65.9207 23.0445L65.8754 23.0657L65.975 23.1272L65.9207 23.0445ZM63.8146 20.3499C63.8146 20.3499 63.7877 20.283 63.7644 20.2475L63.6354 20.1799C63.6354 20.1799 63.6232 20.2386 63.6465 20.2741C63.7045 20.3883 63.769 20.4221 63.8146 20.3499ZM66.4275 22.1284C66.4275 22.1284 66.3357 22.0787 66.2966 22.0706C66.1791 22.0461 66.1787 22.0971 66.3015 22.1941C66.3198 22.2047 66.3485 22.2084 66.3772 22.2121C66.3916 22.214 66.406 22.2158 66.419 22.2185L66.4353 22.1402L66.4275 22.1284ZM67.3078 22.1682L67.3799 22.1653L67.3662 22.2314L67.3078 22.1682ZM66.9825 19.7516L66.9703 19.8103L67.0331 19.8029L66.9825 19.7516ZM69.0256 20.3393C69.0256 20.3393 69.0579 20.4788 69.1045 20.5498C69.1743 20.6562 69.2759 20.7079 69.3077 20.6533C69.3211 20.6255 69.2908 20.56 69.2635 20.5007C69.2543 20.4808 69.2454 20.4617 69.2386 20.4449C69.159 20.3364 69.0574 20.2847 69.0256 20.3393ZM69.7473 14.5042C69.6106 14.4247 69.5654 14.446 69.6234 14.5601C69.6601 14.6291 69.7222 14.7237 69.7924 14.7791C69.9074 14.8643 69.9743 14.8373 69.9163 14.7231C69.8918 14.6772 69.8499 14.6276 69.808 14.5781C69.7871 14.5533 69.7661 14.5285 69.7473 14.5042ZM73.0508 11.4828C73.0508 11.4828 72.9647 11.4547 72.9178 11.4348C72.9094 11.4403 72.8986 11.4453 72.8884 11.4499C72.8699 11.4584 72.8536 11.4659 72.8586 11.4736C72.8819 11.509 72.9325 11.5604 72.9619 11.5665C73.0871 11.6027 73.1246 11.5697 73.0528 11.473L73.0508 11.4828ZM73.6183 11.1105L73.5829 11.1337L73.6845 11.1855L73.6183 11.1105ZM78.0912 2.70441C78.0938 2.72602 78.0938 2.74831 78.0937 2.77097C78.0937 2.81419 78.0937 2.85877 78.1113 2.90264C78.14 3.01072 78.2395 3.07225 78.2987 3.03346C78.331 3.01224 78.3084 2.92866 78.2911 2.86492L78.2911 2.86487L78.2863 2.84705C78.2577 2.73898 78.1854 2.69334 78.099 2.71623L78.0912 2.70441ZM22.6224 4.18513C22.7203 4.20546 22.8344 4.14747 22.918 3.99119C22.9518 3.92672 22.9525 3.82474 22.9174 3.79702C22.8375 3.73956 22.7151 3.83671 22.6239 3.98117C22.5992 4.02813 22.6068 4.07637 22.6149 4.12717L22.6149 4.12721C22.6179 4.14614 22.6209 4.16542 22.6224 4.18513ZM71.3888 79.6797L71.3745 79.7482L71.4435 79.7114L71.3888 79.6797ZM70.2365 74.5073L70.2912 74.5391L70.3055 74.4705L70.2365 74.5073ZM69.8551 73.8357C69.8551 73.8357 69.9098 73.8675 69.9294 73.8715L69.9889 73.7818C69.9889 73.7818 69.9815 73.7189 69.9521 73.7128C69.862 73.7043 69.8204 73.757 69.8572 73.8259L69.8551 73.8357ZM69.5373 73.0547L69.5231 73.1233L69.592 73.0865L69.5373 73.0547ZM69.2013 71.8206L69.1222 71.9063C69.1247 71.9275 69.1002 71.9606 69.0757 71.9938C69.0276 72.059 68.979 72.1248 69.1325 72.1025L69.1536 71.9026L69.211 71.8226L69.2013 71.8206ZM68.6054 71.2475L68.5749 71.3943L68.7075 71.4934C68.7093 71.4844 68.712 71.475 68.715 71.4653C68.7174 71.4573 68.7202 71.4491 68.7229 71.4409C68.7349 71.4049 68.747 71.3688 68.738 71.3465C68.7226 71.3137 68.6836 71.2921 68.6461 71.2714L68.6337 71.2645L68.6242 71.2591C68.6177 71.2553 68.6113 71.2514 68.6054 71.2475ZM43.5813 32.356L43.6262 32.3858L43.6404 32.3172L43.5813 32.356ZM41.6808 28.9177C41.5666 28.9757 41.521 29.0479 41.5736 29.0895C41.5842 29.0917 41.608 29.0877 41.6342 29.0833L41.6343 29.0832C41.6565 29.0795 41.6803 29.0755 41.6992 29.0747C41.8154 29.0069 41.859 28.9445 41.7966 28.9009C41.777 28.8968 41.7044 28.9022 41.6689 28.9254L41.6808 28.9177ZM37.3861 24.6144L37.376 24.6634L37.4824 24.5936L37.3861 24.6144ZM34.1022 25.5257C34.1022 25.5257 34.0296 25.531 33.9884 25.5327L33.8779 25.6221C33.8779 25.6221 33.9326 25.6539 33.9758 25.6424C34.0994 25.6374 34.1606 25.5889 34.114 25.5179L34.1022 25.5257ZM36.7701 23.843C36.7701 23.843 36.6853 23.9071 36.6674 23.9443C36.6059 24.0438 36.643 24.0618 36.7829 23.9785C36.8079 23.9684 36.8199 23.9383 36.8319 23.9082C36.8359 23.8982 36.8399 23.8882 36.8444 23.8789L36.7701 23.843ZM37.2 23.0029L37.1837 23.0812L37.2526 23.0445L37.2 23.0029ZM34.8835 22.5014L34.9264 22.5409L34.9406 22.4724L34.8835 22.5014ZM36.2584 20.8974C36.2584 20.8974 36.3955 20.9259 36.482 20.903C36.5978 20.8862 36.6965 20.8046 36.6557 20.7552C36.6406 20.7323 36.5859 20.7353 36.5274 20.7386C36.4955 20.7403 36.4625 20.7422 36.4342 20.7399C36.3045 20.7742 36.2176 20.8481 36.2605 20.8877L36.2584 20.8974ZM31.3582 18.1332C31.2281 18.2185 31.2257 18.2793 31.3513 18.2645C31.4337 18.2612 31.5398 18.2424 31.6205 18.1979C31.7485 18.1223 31.7509 18.0616 31.6273 18.0665C31.5693 18.0689 31.5024 18.0896 31.4377 18.1097C31.4105 18.1181 31.3837 18.1264 31.3582 18.1332ZM30.0859 14.0798C30.0859 14.0798 30.0207 14.1479 29.9831 14.181C29.9791 14.2006 29.9787 14.2516 30.0003 14.2458C30.0415 14.2442 30.1104 14.2074 30.1341 14.1919C30.225 14.0984 30.2037 14.0532 30.0957 14.0818L30.0859 14.0798ZM29.9945 13.4378L30.008 13.4712L30.0928 13.4071L29.9945 13.4378ZM24.0519 7.08659C24.0671 7.08719 24.0822 7.08841 24.0972 7.08962C24.1424 7.09326 24.1876 7.09691 24.2363 7.08403C24.3423 7.0652 24.4194 6.98929 24.3924 6.92241C24.3789 6.88897 24.2847 6.90004 24.2199 6.91721C24.1138 6.93604 24.0604 6.99643 24.0539 7.0768L24.0519 7.08659ZM28.1045 7.59118L28.0883 7.66951L27.9859 7.71975C27.9822 7.68834 27.9863 7.66876 27.9924 7.63938C27.9965 7.6198 28.1045 7.59118 28.1045 7.59118ZM81.3861 1.15187C81.2534 1.05283 81.1975 0.928863 81.2394 0.825228L81.2296 0.823195C81.2514 0.824566 81.2738 0.823142 81.2958 0.821737C81.3452 0.818589 81.3931 0.815537 81.4295 0.844287C81.5719 0.945361 81.6455 1.08319 81.5782 1.16114C81.5505 1.19624 81.4387 1.19345 81.3861 1.15187ZM78.4274 6.9411L78.504 6.91617C78.504 6.91617 78.4379 6.84116 78.4281 6.83912C78.3988 6.83302 78.3751 6.84853 78.3514 6.86405L78.4274 6.9411ZM73.6713 48.9721L73.6424 48.915L73.6876 48.8938L73.6713 48.9721ZM69.871 46.518L69.8237 46.549L69.84 46.4707L69.871 46.518ZM69.2562 46.3801C69.2325 46.3956 69.1873 46.4168 69.1873 46.4168L69.1775 46.4148C69.1208 46.3928 69.1134 46.33 69.1668 46.2696C69.1904 46.2541 69.2353 46.2838 69.2353 46.2838L69.2562 46.3801ZM68.5631 46.2259L68.5341 46.1688L68.5793 46.1476L68.5631 46.2259ZM67.5977 45.7599L67.5907 45.6461L67.5927 45.6363L67.6136 45.7325L67.7262 45.8785C67.6032 46.0776 67.5977 45.7599 67.5977 45.7599ZM66.9732 45.8651L66.8977 45.737C66.9186 45.7333 66.9386 45.7262 66.9576 45.7195C66.9867 45.7092 67.0135 45.6998 67.0372 45.7047C67.0763 45.7129 67.1147 45.823 67.1147 45.823L66.9732 45.8651ZM28.9737 39.2045L29.0161 39.1969L28.9871 39.1398L28.9737 39.2045ZM25.8519 38.4989C25.7891 38.5063 25.7838 38.4337 25.82 38.3084L25.8298 38.3105C25.84 38.2615 25.8738 38.197 25.8934 38.2011C25.9464 38.1917 25.9517 38.2643 25.9253 38.3916C25.9144 38.4054 25.9037 38.4256 25.8936 38.4448L25.8936 38.4449C25.878 38.4744 25.8638 38.5014 25.8519 38.4989ZM20.7013 38.5628L20.676 38.5371L20.6781 38.5274L20.7257 38.4453L20.7013 38.5628ZM19.0353 41.6179L19.1045 41.5301C19.1731 41.5443 19.1588 41.6129 19.0875 41.7104C19.0618 41.7357 19.0068 41.7549 19.0068 41.7549L19.0353 41.6179ZM19.846 38.5997C19.8325 38.5662 19.8549 38.4585 19.8549 38.4585L19.8646 38.4605L19.9315 38.4336C19.9321 38.4487 19.9343 38.4628 19.9365 38.4764C19.9402 38.5001 19.9437 38.5226 19.9385 38.5474C19.8982 38.6922 19.8628 38.7155 19.846 38.5997ZM19.6667 37.6432L19.6495 37.5784L19.683 37.5649L19.6667 37.6432ZM17.9114 38.9148L17.9433 38.9092L17.9261 38.8443L17.9114 38.9148ZM18.0186 36.6779C17.9729 36.7501 17.8743 36.8318 17.8743 36.8318C17.8233 36.8314 17.8379 36.7119 17.9015 36.6025L17.9188 36.5772C17.9603 36.5165 18.0116 36.4415 18.0458 36.4486C18.0947 36.4588 18.0801 36.5783 18.0186 36.6779ZM13.2623 38.5804C13.1829 38.6739 13.1589 38.6419 13.1885 38.4934C13.2264 38.4094 13.2781 38.3079 13.3217 38.2455C13.4028 38.15 13.4338 38.1973 13.3935 38.3421C13.3776 38.4189 13.323 38.4953 13.2803 38.555L13.2623 38.5804ZM10.1024 36.7802C10.1027 36.7292 10.1113 36.6391 10.1113 36.6391L10.0994 36.6468C10.161 36.5473 10.1981 36.5652 10.1933 36.6868C10.197 36.7182 10.1611 36.7924 10.1452 36.8198C10.144 36.8255 10.1357 36.8159 10.1255 36.8041C10.1181 36.7956 10.1097 36.786 10.1024 36.7802ZM9.72963 36.2636L9.70026 36.2575L9.74997 36.1657L9.72963 36.2636ZM2.39478 35.1896C2.34544 35.2304 2.25288 35.2827 2.25288 35.2827C2.21613 35.2138 2.23443 35.1257 2.30944 35.0595L2.32736 35.0445C2.37316 35.006 2.42519 34.9622 2.44931 34.9762C2.50399 35.008 2.46979 35.1235 2.39478 35.1896ZM0.0580686 33.4072C0.142498 33.3941 0.217894 33.2769 0.252465 33.1105C0.2667 33.042 0.234009 32.9535 0.194844 32.9453C0.116516 32.9291 0.0370602 33.0658 0.00248969 33.2322C-0.00732208 33.2795 0.0136733 33.3185 0.0339574 33.3563H0.0339595L0.033966 33.3563C0.0431071 33.3733 0.0521029 33.3901 0.0580686 33.4072ZM5.44628 33.3314L5.48507 33.3905L5.47528 33.3884L5.42354 33.49C5.4214 33.482 5.41623 33.4747 5.41093 33.4672C5.40204 33.4547 5.39275 33.4416 5.39657 33.4232C5.3986 33.4134 5.44628 33.3314 5.44628 33.3314Z" fill="#DD5621"/>
</svg>
