<svg width="486" height="279" viewBox="0 0 486 279" fill="none" xmlns="http://www.w3.org/2000/svg">
<path fill-rule="evenodd" clip-rule="evenodd" d="M80.1875 4.31153C78.2511 4.24308 79.2064 4.02595 80.5134 3.8627C81.2632 3.76713 82.1608 3.68932 83.036 3.61344C83.2302 3.59661 83.4232 3.57988 83.6133 3.56307L85.5061 3.26582L87.4103 3.5475C92.3761 3.61391 93.007 3.59193 92.3658 3.39805C92.253 3.36399 92.1023 3.32758 91.9504 3.29087C91.3453 3.14465 90.7196 2.99345 92.3784 2.96516C96.4159 2.90048 99.7187 2.68478 102.998 2.47061C106.584 2.23643 110.142 2.00408 114.601 1.97302L111.984 2.49531L111.289 2.5615L112.186 2.51745C112.581 2.49892 113.012 2.48218 113.442 2.46547C115.679 2.37848 117.899 2.29217 114.962 1.9568C114.479 1.57357 116.356 1.38134 120.162 1.36316C121.406 1.22812 122.607 1.25104 123.768 1.38072C126.293 1.37963 128.836 1.33001 131.381 1.28034C137.303 1.16476 143.236 1.04896 148.986 1.54411C149.692 1.60389 151.664 1.56528 152.854 1.52332C160.989 1.23658 169.206 1.38857 177.144 1.61963C189.103 1.96705 201.229 1.95609 213.34 1.94514L214.157 1.94441C219.657 1.9379 223.229 2.03372 221.432 2.69987C220.836 2.91998 221.141 3.19583 224.684 3.08741C225.014 3.07773 225.447 3.07563 225.903 3.07341C227.491 3.06571 229.371 3.05658 228.289 2.72271C227.054 2.34108 230.617 2.04444 233.616 2.08225C238.561 2.14496 243.408 2.0785 248.254 2.01206C250.189 1.98554 252.123 1.95902 254.063 1.94072C261.03 1.87078 262.274 2.09881 261.39 2.92107C261.266 3.03707 261.28 3.15348 261.299 3.30303C261.309 3.38258 261.32 3.47151 261.312 3.57475C267.472 3.15933 272.93 2.77433 278.379 2.36954C277.777 2.38301 277.172 2.39453 276.567 2.40605C275.333 2.42954 274.1 2.45302 272.9 2.493C272.326 2.51362 271.72 2.54781 271.113 2.58205C269.496 2.67327 267.871 2.76494 266.825 2.6021C265.883 2.45384 266.152 2.1525 267.04 1.95368C268.327 1.66708 271.335 1.54169 274.182 1.57656C277.607 1.62144 278.953 1.88789 279.786 2.19322C282.743 1.90723 285.777 1.69021 289.057 1.52705C290.709 1.4462 292.371 1.36913 294.21 1.31916C294.612 1.31052 295.017 1.30155 295.427 1.2925L295.43 1.29244L295.449 1.29202L295.461 1.29176C295.984 1.2802 296.514 1.26849 297.049 1.25715C297.562 1.25664 298.082 1.25564 298.608 1.25462L298.613 1.25461C299.08 1.2537 299.553 1.25279 300.032 1.2522C310.069 1.3074 320.005 1.94498 329.818 2.57459L330.118 2.59387L330.13 2.59461C335.081 2.91067 340.004 3.22493 344.903 3.46714C346.13 3.53022 347.352 3.5834 348.575 3.63338L352.305 3.78392C354.826 3.88535 357.351 4.00628 359.874 4.1496C363.813 4.37088 365.991 4.58919 367.177 4.84572C368.363 5.10545 368.566 5.42637 368.571 5.95352L367.992 5.97872L368.744 5.98672C369.558 6.08763 370.463 6.22193 371.341 6.35212C373.977 6.74295 376.363 7.09677 375.255 6.39933C374.69 6.04633 375.005 5.8634 376.107 5.8706C377.209 5.87779 379.104 6.085 381.678 6.55271L382.896 6.77462C386.997 7.52184 390.989 8.24908 394.932 9.06909C399.259 9.96974 403.537 10.9829 407.749 12.2876C410.396 13.1068 413.057 13.9428 415.447 14.8585C416.64 15.3178 417.755 15.8013 418.776 16.2917C419.776 16.8033 420.692 17.3033 421.439 17.8442C421.91 18.185 422.622 18.5438 423.395 18.8904C424.164 19.2464 424.98 19.6021 425.69 19.903C430.069 21.7995 434.098 24.2268 437.65 26.9587C438.316 27.4495 438.93 27.9732 439.543 28.4965L439.545 28.4983L439.547 28.4992C439.769 28.6892 439.992 28.8792 440.217 29.0674C440.796 29.5791 441.337 30.1092 441.878 30.6398L441.879 30.6405C442.105 30.8617 442.33 31.0835 442.559 31.3036L443.701 32.4311L444.717 33.5959C444.915 33.8269 445.116 34.0575 445.317 34.2881C445.791 34.8331 446.266 35.3782 446.708 35.9292L446.891 36.1716C447.601 37.1126 448.273 38.0031 448.985 38.8906C449.132 39.0813 449.277 39.2724 449.423 39.4644L449.424 39.4661C450.021 40.2513 450.628 41.0509 451.356 41.893C455.969 47.3536 459.358 54.1487 461.777 59.6598C463.468 63.4586 465.012 67.2709 466.509 71.0738C468.015 74.8804 469.432 78.6816 470.836 82.4595C471.272 83.6407 471.707 84.8217 472.141 86.0012C472.4 86.706 472.659 87.4102 472.918 88.1136C473.121 88.699 473.324 89.2839 473.526 89.8683L473.601 90.0847L473.639 90.1931C474.061 91.4106 474.483 92.6263 474.902 93.8419L475.386 95.2724L475.809 96.7088C476.085 97.6671 476.362 98.6223 476.644 99.5745C476.766 100.002 476.887 100.429 477.008 100.856C477.125 101.27 477.242 101.684 477.36 102.097L477.456 102.436C477.628 103.093 477.779 103.753 477.93 104.412L477.931 104.416L478.006 104.743C478.049 104.929 478.092 105.115 478.136 105.301C478.374 106.338 478.632 107.375 478.904 108.417C478.961 108.633 479.019 108.85 479.077 109.067C479.299 109.892 479.52 110.719 479.709 111.547C480.118 113.216 480.531 114.89 480.942 116.557L481.256 117.83C481.685 119.922 482.081 122.009 482.399 124.065L482.425 124.243L482.45 124.408C482.511 124.808 482.572 125.207 482.621 125.605C482.664 126.118 482.704 126.625 482.744 127.135C482.813 128.151 482.86 129.156 482.869 130.149C484.368 136.725 484.571 143.56 484.773 150.366V150.367L484.774 150.368C484.831 152.287 484.888 154.203 484.973 156.11C484.977 156.283 484.982 156.461 484.986 156.643C484.991 156.81 484.995 156.981 485 157.155C485.041 158.705 485.088 160.493 485.015 162.165C484.993 162.68 484.957 163.186 484.908 163.668C484.84 164.152 484.755 164.612 484.653 165.04C484.448 165.898 484.176 166.629 483.807 167.149C483.113 168.115 483.481 170.823 483.584 171.524C483.754 172.752 483.824 174.07 483.828 175.455C483.828 176.145 483.813 176.854 483.782 177.575C483.752 178.296 483.716 179.033 483.618 179.772C483.446 181.255 483.228 182.78 482.991 184.323L482.936 184.68L482.93 184.716L482.926 184.748L482.925 184.749C482.829 185.379 482.732 186.013 482.62 186.645L482.149 188.968C481.655 191.446 481.2 192.07 480.744 192.103C480.988 190.219 481.205 188.321 480.504 189.171C480.366 189.339 479.985 190.832 479.888 191.545C479.583 193.837 479.922 193.275 480.266 192.704C480.44 192.416 480.615 192.125 480.709 192.2C480.627 193.464 480.377 194.815 480.125 196.171C480.073 196.449 480.022 196.727 479.972 197.005C479.667 198.637 479.402 200.253 479.27 201.687C479.1 203.086 478.611 203.971 478.171 204.769C477.766 205.503 477.401 206.164 477.36 207.084C477.334 207.655 477.274 208.239 477.185 208.834C477.082 209.428 476.941 210.036 476.784 210.656C476.545 211.65 476.213 212.671 475.868 213.734C475.781 214.001 475.693 214.271 475.606 214.544L475.205 215.677L474.973 216.333C474.83 216.734 474.673 217.177 474.493 217.684C473.856 218.074 473.622 217.473 473.391 216.878C473.222 216.445 473.055 216.016 472.734 215.976L472.77 215.548L472.681 216.066C472.382 216.755 472.049 217.249 471.719 217.739C471.653 217.836 471.588 217.932 471.523 218.031C471.131 218.626 470.774 219.272 470.474 220.295C469.862 222.287 470.392 221.534 470.919 220.785C471.187 220.403 471.455 220.023 471.571 220.006C472.069 219.941 471.86 221.153 471.658 222.323C471.472 223.396 471.293 224.434 471.672 224.416C470.553 226.83 469.982 227.412 469.561 227.639C469.523 227.659 469.487 227.677 469.452 227.692C469.391 227.719 469.332 227.741 469.274 227.762C468.981 227.87 468.697 227.975 468.202 228.708C468.161 228.812 468.121 228.915 468.08 229.018V229.02C467.966 229.31 467.853 229.599 467.727 229.887C467.728 229.816 467.728 229.746 467.727 229.676C467.727 229.568 467.726 229.461 467.727 229.354C467.41 229.883 466.818 230.878 466.818 230.878C467.026 233.11 465.624 236.413 463.437 240.016C461.245 243.62 458.175 247.484 455.128 250.912C454.686 251.084 454.605 250.944 454.714 250.636C454.789 250.425 454.964 250.136 455.163 249.81C455.254 249.661 455.349 249.503 455.442 249.342C455.525 249.207 455.61 249.07 455.694 248.934C456.251 248.035 456.79 247.164 456.553 247.069C456.397 247.004 455.955 247.099 455.6 247.479C454.765 248.369 454.859 248.486 454.945 248.593C454.953 248.603 454.96 248.612 454.967 248.622C454.971 248.628 454.975 248.635 454.979 248.641C454.984 248.65 454.988 248.659 454.99 248.669C454.993 248.678 454.994 248.687 454.995 248.697C455.006 248.981 454.776 249.407 454.354 249.882C453.931 250.36 453.362 250.906 452.784 251.461C452.491 251.755 452.175 252.045 451.868 252.326C451.587 252.583 451.313 252.834 451.07 253.077C450.56 253.585 450.177 254.05 450.054 254.424L450.029 254.501C449.887 254.933 449.748 255.356 449.351 255.99C448.912 256.654 448.171 257.549 446.661 258.85C445.515 259.604 445.483 259.356 445.45 259.108C445.446 259.078 445.442 259.048 445.436 259.019C445.433 259.007 445.43 258.994 445.427 258.982C445.339 258.723 445.04 258.733 442.544 260.51C442.069 260.541 441.26 260.844 439.895 261.563C438.387 262.215 437.07 263.084 435.796 264.085C434.818 264.664 434.077 265.096 433.503 265.417C432.934 265.745 432.55 265.978 432.274 266.16C431.735 266.529 431.69 266.728 431.598 267.131C433.334 266.001 434.664 265.02 435.946 264.03C437.236 263.294 438.504 262.537 439.713 261.748C440.615 261.402 441.494 261.036 442.378 260.666C442.969 260.684 442.576 261.523 440.621 262.825C438.203 264.43 435.935 265.899 433.498 267.258C431.071 268.614 428.471 269.867 425.418 270.927C420.611 272.589 415.606 273.844 410.561 274.833C405.511 275.818 400.417 276.524 395.331 277.096C392.672 277.391 391.462 277.432 390.605 277.202C389.987 277.029 389.394 276.963 388.706 276.988C388.019 277.006 387.24 277.122 386.253 277.324C384.545 277.685 382.858 277.959 380.94 278.13C379.982 278.221 378.971 278.274 377.872 278.283C376.774 278.292 375.592 278.274 374.299 278.204C373.007 278.124 372.378 278.194 371.607 278.281C371.464 278.297 371.316 278.314 371.158 278.33C363.939 279.067 355.925 278.844 348.094 278.627H348.092H348.09C345.909 278.567 343.741 278.506 341.609 278.468C340.941 278.459 340.171 278.358 339.402 278.256H339.4C339.042 278.209 338.684 278.162 338.336 278.124C337.769 278.061 337.791 277.983 337.812 277.907C337.843 277.797 337.873 277.693 336.06 277.655C335.483 277.642 336.651 277.974 338.075 278.136C337.75 278.152 337.427 278.176 337.104 278.2C336.392 278.252 335.681 278.304 334.957 278.274C330.805 278.127 326.655 277.96 322.511 277.774L310.14 277.211L308.674 277.145L307.34 277.086C300.055 276.762 292.771 276.438 285.53 276.018C271.777 275.225 258.454 274.439 244.812 273.386C242.22 273.2 239.325 272.953 236.901 272.649C234.478 272.335 232.53 271.929 231.832 271.432L232.391 271.419L231.598 271.383C230.441 271.241 229.365 271.142 228.291 271.043C225.859 270.818 223.432 270.594 220.085 269.883C218.109 269.465 215.805 269.059 213.403 268.705C212.209 268.506 210.995 268.318 209.785 268.134C209.54 268.097 209.297 268.06 209.054 268.024L209.045 268.022L208.808 267.987L208.467 267.935L208.268 267.905L207.989 267.862C207.904 267.848 207.819 267.833 207.734 267.819C207.66 267.807 207.587 267.794 207.513 267.782C207.292 267.744 207.072 267.707 206.853 267.671L206.5 267.611L206.242 267.568C202.877 267.019 199.314 266.307 195.8 265.499C195.32 265.383 194.866 265.274 194.438 265.171L194.434 265.17L194.426 265.168L194.414 265.165C192.973 264.82 191.824 264.544 190.919 264.3C189.742 263.97 188.966 263.726 188.458 263.525C187.447 263.115 187.52 262.86 187.674 262.358C188.318 262.468 189.145 262.655 190.015 262.85L190.02 262.852H190.023L190.024 262.853H190.025H190.027C190.792 263.025 191.589 263.205 192.322 263.346C193.899 263.637 195.158 263.798 195.13 263.475C193.891 263.272 192.744 263.062 191.713 262.874C189.785 262.522 188.266 262.245 187.327 262.224C184.256 261.675 180.496 260.703 176.709 259.492C176.235 259.344 175.752 259.195 175.279 259.041L173.871 258.546C173.297 258.341 172.722 258.136 172.149 257.932L171.069 257.547C170.311 257.282 169.579 256.99 168.862 256.704L168.861 256.703L168.848 256.698L168.698 256.638C168.59 256.595 168.482 256.552 168.374 256.509C167.496 256.159 166.642 255.817 165.815 255.483L164.864 255.1L163.928 254.695C163.306 254.425 162.679 254.159 162.052 253.889C161.424 253.622 160.793 253.351 160.161 253.081C159.742 252.905 159.339 252.716 158.935 252.527C158.875 252.499 158.814 252.471 158.753 252.442C158.685 252.41 158.616 252.378 158.546 252.346L158.435 252.295C158.391 252.274 158.346 252.254 158.301 252.233C157.525 251.873 156.749 251.512 155.972 251.15L155.965 251.146L154.907 250.653L154.584 250.503C154.157 250.286 153.73 250.068 153.304 249.85L152.775 249.581C152.172 249.273 151.568 248.964 150.964 248.657C146.203 246.123 141.653 243.381 137.796 240.241C132.043 236.3 126.803 232.022 122.138 227.47C117.394 223.287 113.929 218.482 110.893 213.922C108.304 209.945 110.316 211.229 111.771 212.28L112.084 212.576L111.692 212.095C111.346 211.679 111.016 211.249 110.709 210.848C110.075 210.021 109.535 209.315 109.127 209.106L109.074 209.078C108.394 208.72 107.693 208.351 106.887 207.368C106.502 206.856 106.099 206.179 105.664 205.259C105.446 204.799 105.223 204.278 104.99 203.688C104.782 203.126 104.608 202.491 104.416 201.787V201.786L104.385 201.675C104.273 201.267 103.858 200.252 103.643 199.901C101.45 196.029 100.123 191.626 99.4132 187.178L99.3751 186.852C99.2579 185.847 99.1404 184.84 99.019 183.836C98.9589 183.37 98.9216 182.945 98.884 182.516L98.8835 182.511L98.8827 182.502C98.8747 182.41 98.8666 182.319 98.8583 182.226C98.8067 181.709 98.7549 181.196 98.7031 180.682V180.681L98.7001 180.652C98.5896 179.607 98.4646 178.568 98.3199 177.541C98.1705 176.514 97.9775 175.503 97.7648 174.503C97.6505 173.979 97.5625 173.26 97.5262 172.699C97.4984 172.206 97.4681 171.675 97.4369 171.126L97.4353 171.098C97.3733 170.008 97.3073 168.851 97.2483 167.783C97.1445 166.171 97.0325 164.77 96.8064 164.139C96.2575 162.531 95.9448 160.854 95.6772 159.212L95.6247 158.895C95.3714 157.363 95.1244 155.869 94.762 154.497C94.1941 152.368 93.9352 150.28 93.6763 148.192C93.3503 145.562 93.0243 142.933 92.0814 140.223C91.7143 139.195 91.9726 138.385 92.2012 138.21C92.4994 137.981 92.9237 138.544 93.3936 139.44L93.4176 139.486C93.8718 140.35 94.4521 141.455 94.0626 139.032C93.8606 137.782 93.4028 136.614 92.8658 136.038C91.9472 135.049 91.2173 133.841 90.5373 131.981C89.8621 130.118 89.2462 127.603 88.5138 123.989C87.0933 116.962 85.5623 109.961 83.7376 102.964C82.9984 100.138 82.8223 98.2257 82.6473 96.3269C82.5496 95.2664 82.4523 94.2099 82.2574 93.0006L82.1999 92.4766L82.1693 92.8184C81.7698 93.3848 81.1411 92.53 80.4272 89.993C79.8949 88.1162 80.0522 87.4096 80.4581 87.5053L80.6607 87.8263L80.4527 87.3637C80.19 85.9767 80.4331 85.903 80.6756 85.8294C80.9502 85.7461 81.2241 85.6631 80.7616 83.6725C80.8614 83.5888 80.9795 83.5929 81.1207 83.6819L81.328 84.0802L81.0992 83.4943C81.0749 83.4492 81.0467 83.3904 81.0181 83.331C80.9521 83.1935 80.8846 83.0528 80.8603 83.0715C80.8037 83.116 80.7663 83.2365 80.729 83.3565C80.7139 83.4053 80.6988 83.4539 80.6825 83.4974C80.6427 83.5072 80.6064 83.5393 80.57 83.5715C80.4919 83.6405 80.4133 83.7099 80.2999 83.5604C78.1753 80.798 78.0918 80.311 78.1322 74.9168C76.9126 75.5802 75.3413 71.8305 74.3667 67.7708C73.8706 65.7677 73.1955 63.6732 72.3694 61.5726C71.5339 59.4715 70.5905 57.354 69.5681 55.2894C69.4237 54.9857 69.2694 54.6858 69.1156 54.3871C69.0064 54.1749 68.8972 53.9627 68.7924 53.7509C68.5353 53.2403 68.278 52.7328 68.0106 52.2344C67.8584 51.9415 67.7059 51.6507 67.5543 51.3614L67.5526 51.3581L67.5507 51.3544C67.4425 51.1479 67.3347 50.9423 67.2277 50.7372C67.0502 50.3873 66.8726 50.0388 66.6963 49.6927L66.4343 49.1783C65.4349 47.1248 64.6521 45.165 64.0899 43.3891C62.9167 41.2381 61.7666 39.1721 60.4329 37.2425C59.1039 35.3131 57.5816 33.526 55.746 31.9058L55.0447 31.3067L54.9669 31.2397C54.7596 31.0609 54.5524 30.8822 54.3141 30.7218C54.101 30.5681 53.8904 30.4124 53.6796 30.2565C53.3795 30.0346 53.0789 29.8123 52.7698 29.595L51.0982 28.5375C50.7414 28.3151 50.3569 28.1092 49.9723 27.9033C49.7527 27.7857 49.5326 27.6678 49.3182 27.5472C49.2072 27.4884 49.0983 27.4277 48.9891 27.3668C48.8011 27.2619 48.6117 27.1563 48.4112 27.0606L47.4499 26.6092L46.4885 26.1578C46.1713 26.0064 45.8494 25.8548 45.5029 25.7177C45.3069 25.6369 45.1123 25.5549 44.9175 25.4728C44.438 25.2708 43.9578 25.0684 43.4576 24.8844C42.7691 24.6137 42.0708 24.3489 41.3572 24.1023C38.236 22.9872 34.9827 22.0181 31.6374 21.159C28.2972 20.2937 24.8802 19.5233 21.4034 18.8005C18.3244 18.1599 15.206 17.5522 12.0672 16.9404L12.0662 16.9402L10.8644 16.7059C9.06603 16.36 7.2665 16.0132 5.46393 15.6658L5.45628 15.6643L5.41299 15.6559L5.38225 15.65L5.37795 15.6492L5.36963 15.6476L5.35395 15.6446C3.63921 15.3141 1.92169 14.983 0.199789 14.6517L0.101562 14.6328L0.770805 12.9203C0.779065 12.8992 0.786957 12.878 0.794477 12.8567L0.819795 12.7804C0.913568 12.4776 0.932167 12.1624 0.865643 11.8468C0.829583 11.6647 0.765033 11.484 0.676512 11.3083L0.604275 11.1753L0.58268 11.1419L0.568535 11.141L0.540243 11.1392L0.425891 11.1514L0.316254 11.1639C0.287567 11.1686 0.225479 11.1776 0.249451 11.1726L0.273423 11.1677L0.321167 11.161L0.51235 11.1311L1.00043 11.0457C1.16956 11.0146 1.33991 10.9828 1.51026 10.9509L1.51301 10.9504C1.6839 10.9185 1.85545 10.8865 2.02512 10.8553C2.42703 10.7779 2.83046 10.7017 3.23456 10.6254C3.52883 10.5699 3.82346 10.5142 4.11812 10.458L8.28448 9.6751C8.98339 9.5481 9.69174 9.42169 10.414 9.29935C10.6704 9.25473 10.9391 9.21256 11.2113 9.16984C11.3149 9.15358 11.419 9.13723 11.5232 9.12065L12.1295 9.03611C12.3177 9.01412 12.5179 8.99496 12.7156 8.97605L12.8583 8.96235C17.8663 8.65232 22.7833 8.35914 27.7272 8.09012C28.9619 8.02519 30.1918 7.95996 31.422 7.89154C31.9218 7.86699 32.4214 7.84515 32.9207 7.82332C33.6354 7.79207 34.3499 7.76085 35.0629 7.72176C37.4842 7.60179 39.9023 7.45912 42.3113 7.30947C43.5797 7.23052 44.8462 7.15 46.1104 7.06963L46.1115 7.06956C54.4416 6.53999 62.6707 6.01685 70.6692 5.99035C70.4308 6.06993 70.1691 6.1471 69.8858 6.22224C70.1652 6.20345 70.4448 6.18503 70.7246 6.16699L70.7293 6.16729C75.2011 5.87868 79.7095 5.6887 84.2928 5.66398C91.97 5.62342 99.6838 5.60315 107.425 5.59662C107.873 5.45999 108.438 5.32631 109.19 5.19742L109.658 5.12681L108.917 5.17089C106.482 5.03466 103.684 4.95198 100.897 4.86962C94.41 4.67791 87.9828 4.48795 86.3309 3.62846C85.7163 3.61613 85.1012 3.61339 84.4803 3.62636C84.436 3.66672 84.407 3.70713 84.3782 3.74738C84.3124 3.83913 84.2473 3.93005 84.0017 4.01756C83.4694 4.20626 82.0211 4.35756 80.1417 4.28621L80.1875 4.31153ZM84.8103 86.7789C84.8077 86.6578 84.8097 86.5466 84.8148 86.4423L85.1545 87.8064L85.2634 88.2437C85.2253 88.2639 85.1708 88.2385 85.0945 88.1521C85.066 88.0143 85.0267 87.8492 84.9863 87.6799C84.9028 87.3296 84.815 86.9611 84.8103 86.7789ZM191.102 5.74726C191.1 5.7496 191.098 5.75191 191.095 5.75418L189.447 5.75236C189.411 5.73964 189.393 5.72501 189.376 5.71052C189.362 5.6984 189.347 5.68637 189.322 5.67564C189.444 5.67388 189.572 5.6705 189.7 5.66713C189.969 5.66003 190.235 5.65298 190.44 5.66131C190.742 5.67358 191.128 5.72312 191.102 5.75046V5.74726ZM55.8196 30.3331C55.7038 30.2456 55.5787 30.1647 55.4535 30.0837C55.3734 30.0318 55.2932 29.98 55.2153 29.9263L55.6609 30.2976L55.8196 30.3331ZM70.4962 52.6838C70.4218 52.509 70.3427 52.3338 70.2634 52.1619L70.1732 52.1659C70.2855 52.3399 70.3933 52.5104 70.496 52.687L70.4962 52.6838ZM72.7076 59.8557L72.4313 59.2732L72.5711 59.7669L72.7074 59.8589L72.7076 59.8557ZM76.1845 68.7603C76.2969 68.703 76.4252 68.6949 76.5647 68.7356L76.8159 69.188L76.5573 68.6259C76.5277 68.5802 76.4935 68.5211 76.4594 68.4621C76.3837 68.3313 76.3082 68.2009 76.2844 68.2171C76.2262 68.2537 76.1933 68.3616 76.1599 68.4714C76.1452 68.5196 76.1304 68.5682 76.1132 68.6113L76.21 69.1891L76.1845 68.7603ZM84.2723 97.9952L84.1782 97.5268L84.0842 97.6687L84.2723 97.9952ZM87.547 111.237C87.6006 111.271 87.6073 111.073 87.6139 110.876L87.614 110.875C87.6169 110.788 87.6199 110.701 87.6269 110.635C87.5951 110.581 87.5629 110.524 87.5305 110.468C87.5105 110.432 87.4905 110.397 87.4705 110.362L87.4704 110.361C87.3527 110.153 87.2351 109.945 87.1294 109.801C86.915 109.518 86.9074 109.793 87.0823 110.485C87.13 110.565 87.1803 110.658 87.2305 110.751C87.3474 110.967 87.4643 111.182 87.547 111.237ZM91.1629 125.007C91.1617 124.988 91.1606 124.97 91.1596 124.952C91.157 124.902 91.1552 124.853 91.1534 124.804C91.1481 124.657 91.1428 124.509 91.1141 124.342C90.9746 123.537 90.8322 123.162 90.7833 123.416C90.7738 123.469 90.8173 123.68 90.862 123.897C90.8844 124.006 90.9072 124.116 90.9236 124.208C90.9625 124.34 91.0025 124.473 91.0425 124.605L91.0433 124.608C91.0835 124.741 91.1238 124.874 91.1629 125.007ZM96.8413 156.386L96.7838 155.94L96.6764 156.068L96.8411 156.39L96.8413 156.386ZM98.6422 165.833L98.7533 165.721L98.6063 165.42L98.6424 165.83L98.6422 165.833ZM100.194 176.777C100.236 176.648 100.146 175.64 100.068 175.378C99.9542 174.995 99.7822 174.792 99.6616 174.752C99.4946 174.697 99.4948 175.153 99.6157 175.8C99.8226 176.587 100.047 177.24 100.194 176.777ZM105.822 200.415C105.73 200.181 105.633 199.955 105.538 199.733C105.43 199.48 105.324 199.233 105.233 198.991C105.067 198.537 104.9 198.106 104.736 197.694C104.408 196.871 104.085 196.128 103.774 195.425L103.657 195.123C103.157 193.827 102.706 192.655 102.3 191.395C102.284 191.259 102.276 191.121 102.268 190.984C102.265 190.936 102.262 190.888 102.259 190.84L102.225 191.23C102.369 192.039 102.543 192.827 102.731 193.606C102.825 193.994 102.929 194.383 103.033 194.768L103.201 195.344L103.421 195.914C103.725 196.671 104.057 197.421 104.441 198.174L104.474 198.237C104.658 198.591 104.843 198.948 105.053 199.301C105.295 199.672 105.551 200.045 105.822 200.418V200.415ZM117.686 219.944C118.032 220.02 117.767 219.48 116.912 218.538C116.718 218.329 116.541 218.131 116.376 217.946C116.269 217.827 116.168 217.712 116.07 217.605C115.817 217.333 115.59 217.1 115.384 216.914C114.972 216.542 114.666 216.352 114.485 216.37C114.285 216.39 114.336 216.795 115.154 217.799C115.743 218.539 116.221 218.916 116.601 219.2C116.78 219.33 116.944 219.437 117.107 219.543C117.294 219.665 117.481 219.786 117.686 219.941V219.944ZM138.744 238.909L139.163 239.22L138.769 239.046L138.744 238.909ZM146.809 244.58C146.244 244.237 145.804 243.991 145.504 243.873C145.204 243.755 145.047 243.758 145.096 243.89C145.143 244.04 145.191 244.188 145.243 244.336C145.079 244.273 144.754 244.071 144.43 243.869C143.903 243.542 143.379 243.216 143.549 243.489C143.847 243.644 144.147 243.801 144.446 243.957C144.75 244.116 145.053 244.275 145.356 244.432C145.853 244.662 146.526 244.948 146.875 245.053C147.4 245.205 147.962 245.297 146.809 244.58ZM156.12 248.934C154.506 248.391 153.617 248.22 154.657 249.168C155.386 249.473 155.941 249.681 156.355 249.794C156.764 249.912 157.008 249.953 157.109 249.921C157.312 249.856 156.926 249.517 156.115 248.931L156.12 248.934ZM179.832 259.589L180.514 259.778L180.066 259.697L179.359 259.505L179.832 259.589ZM186.506 260.494L185.782 260.34L185.132 260.209L185.966 260.422L186.502 260.493L186.506 260.494ZM221.931 268.969C221.822 268.932 221.724 268.89 221.625 268.849C221.415 268.761 221.206 268.672 220.906 268.623C219.692 268.432 218.407 268.231 217.339 268.065C216.698 268.096 217.007 268.225 218.108 268.412C219.079 268.583 220.062 268.717 221.044 268.851C221.34 268.891 221.635 268.931 221.93 268.973L221.931 268.969ZM233.623 270.853L233.427 270.741L233.004 270.769L233.619 270.852L233.623 270.853ZM260.221 273.196L259.38 273.166L260.194 273.255L260.226 273.196H260.221ZM280.038 274.365C277.351 273.72 274.461 273.538 271.178 273.816L270.42 273.834L271.347 273.843C272.772 273.842 274.121 273.97 275.488 274.099H275.489C276.947 274.236 278.425 274.376 280.038 274.365ZM310.549 275.883L309.684 275.865L310.47 275.94L310.549 275.883ZM348.033 276.768C347.888 276.746 347.198 276.719 346.975 276.731C345.988 276.782 345.983 276.853 346.945 276.909C347.13 276.92 347.414 276.908 347.699 276.896C347.821 276.89 347.944 276.885 348.059 276.882C348.06 276.87 348.075 276.857 348.091 276.844C348.125 276.817 348.159 276.789 348.033 276.768ZM356.845 277.172L356.235 277.166L356.523 277.248L356.845 277.172ZM380.267 276.521C380.513 276.508 380.768 276.496 381.034 276.483C379.257 276.728 378.033 276.871 376.935 276.999C376.582 277.04 376.241 277.079 375.9 277.121C374.23 277.326 372.256 277.409 371.278 277.233C369.813 276.961 372.312 276.851 374.498 276.756L374.787 276.743C375.623 276.702 376.472 276.668 377.473 276.633C377.976 276.616 378.512 276.598 379.109 276.577C379.472 276.56 379.857 276.541 380.267 276.521ZM397.889 275.221L397.143 275.355C396.97 275.407 396.549 275.456 396.132 275.505C395.485 275.581 394.846 275.656 395.155 275.739C395.89 275.614 396.631 275.485 397.371 275.357L397.403 275.351L397.889 275.221ZM408.003 273.704C407.927 273.714 407.851 273.724 407.774 273.733L407.675 273.744L407.582 273.755C407.318 273.785 407.055 273.815 406.806 273.858C405.432 274.101 405.191 274.182 406.19 274.09C406.51 274.055 407.079 273.955 407.467 273.877C407.633 273.843 407.74 273.802 407.847 273.761L407.89 273.745C407.906 273.739 407.921 273.733 407.937 273.727C407.959 273.719 407.981 273.712 408.003 273.704ZM411.568 273.871C411.443 273.903 411.317 273.935 411.192 273.966C411.301 273.954 411.412 273.942 411.521 273.931L411.679 273.915C411.78 273.905 411.879 273.895 411.973 273.886C412.409 273.8 412.998 273.692 413.244 273.614C414.021 273.37 413.669 273.403 412.359 273.682H412.364C412.095 273.737 411.831 273.804 411.568 273.871ZM459.929 242.08C459.897 242.099 459.865 242.118 459.832 242.137C459.787 242.163 459.741 242.189 459.696 242.215L459.61 242.263L459.587 242.301C459.568 242.332 459.548 242.364 459.528 242.396L459.464 242.497L459.463 242.499C459.341 242.692 459.217 242.887 459.167 243.003C458.929 243.557 459.132 243.415 459.667 242.645C459.756 242.516 459.809 242.381 459.863 242.246V242.244C459.875 242.214 459.887 242.184 459.9 242.153C459.909 242.13 459.919 242.107 459.929 242.083V242.08ZM474.144 208.196C474.059 207.959 473.86 208.349 473.743 208.926C473.672 209.307 473.743 209.549 473.816 209.66C473.934 209.828 474.094 209.526 474.217 208.997C474.211 208.915 474.207 208.825 474.204 208.736C474.196 208.529 474.188 208.322 474.144 208.196ZM481.991 182.116L481.992 182.646L482.042 183.063L482.043 182.504L481.991 182.116ZM481.773 175.783C481.737 175.746 481.621 176.021 481.608 176.152C481.589 176.343 481.594 176.534 481.599 176.725V176.73L481.601 176.809C481.602 176.846 481.602 176.883 481.603 176.92C481.618 176.932 481.636 176.955 481.654 176.978C481.692 177.03 481.731 177.082 481.749 177.012C481.913 176.415 481.919 175.94 481.772 175.787L481.773 175.783ZM482.835 163.794C482.767 164.308 482.697 164.843 482.611 165.37C482.559 165.551 482.505 165.725 482.45 165.898V165.899C482.323 166.305 482.195 166.712 482.095 167.217C481.972 167.826 482.063 168.333 482.217 167.838C482.335 167.461 482.429 166.914 482.524 166.364C482.55 166.215 482.576 166.066 482.602 165.92C482.61 165.876 482.618 165.832 482.626 165.788C482.633 165.75 482.64 165.712 482.648 165.674L482.657 165.626C482.753 164.89 482.941 164.54 483.127 164.196C483.443 163.609 483.752 163.035 483.593 160.593C483.189 161.11 483.022 162.374 482.835 163.794ZM481.024 159.052C481.006 159.068 480.987 159.074 480.968 159.081C480.928 159.095 480.888 159.109 480.863 159.206C480.705 159.771 480.716 160.202 480.89 160.29C480.932 160.312 481.01 160.047 481.032 159.837C481.049 159.679 481.04 159.467 481.031 159.259C481.029 159.189 481.026 159.119 481.024 159.052ZM482.629 151.699C482.604 151.88 482.572 152.059 482.542 152.23V152.231C482.48 152.58 482.424 152.896 482.441 153.13C482.54 154.517 482.785 155.146 483.074 155.212C483.266 155.256 483.326 154.819 483.221 154.293C483.088 153.637 482.944 153.031 482.799 152.418L482.797 152.41V152.407L482.796 152.405C482.741 152.171 482.685 151.935 482.629 151.696V151.699ZM481.167 132.884L481.025 132.392L481.177 132.711L481.319 133.243L481.167 132.884ZM479.756 123.33L479.582 122.894L479.755 123.195C479.828 123.299 479.901 123.396 479.974 123.493C480.148 123.725 480.321 123.957 480.501 124.285C480.663 124.581 480.973 125.381 480.989 125.584C481.032 126.774 480.807 126.191 480.607 125.672L480.606 125.67L480.604 125.664C480.578 125.596 480.552 125.53 480.527 125.469C480.354 125.053 480.18 124.549 480.005 124.043C479.922 123.803 479.839 123.561 479.756 123.33ZM478.233 115.661C478.05 115.408 478.071 115.898 478.28 116.579C478.382 116.901 478.501 117.162 478.617 117.417L478.618 117.418C478.646 117.482 478.675 117.545 478.703 117.609C478.729 117.666 478.754 117.724 478.778 117.782C478.94 117.857 478.939 117.484 478.729 116.816C478.583 116.344 478.372 115.856 478.228 115.66L478.233 115.661ZM464.736 76.0036C465.615 77.3159 466.384 78.4648 466.817 78.2595C465.372 74.6237 464.432 73.5087 463.994 74.9143C464.247 75.2734 464.495 75.6447 464.736 76.0036ZM460.124 61.2761C460.389 62.1245 460.796 62.9624 461.196 63.4594C461.653 64.0305 461.511 63.3375 461.318 62.6381C461.115 61.8546 460.721 61.0464 460.251 60.4551C459.921 60.197 459.905 60.5333 460.124 61.2761ZM444.828 35.9317C444.774 35.9637 444.819 36.0757 444.95 36.2541C445.081 36.4356 445.278 36.6888 445.567 36.9925C446.229 37.6984 446.905 38.3956 447.521 38.9927C448.022 39.4766 447.924 39.22 447.304 38.446C446.839 37.8647 446.392 37.3552 445.983 36.9315C445.569 36.5076 445.202 36.1636 444.828 35.9317ZM422.962 20.004C422.042 19.604 421.52 19.3215 421.557 19.0737C421.645 19.1077 421.752 19.148 421.877 19.1945C422.395 19.3886 423.202 19.6906 424.064 20.0979C424.685 20.3901 425.333 20.7033 425.71 20.9515C426.093 21.1968 426.235 21.3437 425.894 21.2648C425.605 21.1837 424.607 20.7381 423.681 20.3244C423.431 20.2127 423.186 20.1033 422.962 20.004ZM387.086 8.65099C387.182 8.70129 387.265 8.75147 387.35 8.803C387.726 9.0311 388.146 9.28576 389.904 9.69593C392.092 10.2104 392.749 10.145 392.938 10.0057C393.186 9.82195 392.691 9.48613 389.873 8.90375C388.391 8.59684 387.374 8.5082 387.087 8.64779L387.086 8.65099ZM340.378 3.69145L341.309 3.72013L340.548 3.62486L340.378 3.68825V3.69145ZM338.514 4.36631C338.92 4.36624 339.326 4.36704 339.733 4.36784C340.103 4.36857 340.475 4.36931 340.847 4.36938L341.343 4.31653L340.627 4.33326C340.418 4.34789 340.006 4.32358 339.597 4.29941C338.91 4.25882 338.228 4.2186 338.519 4.36341L338.514 4.36631ZM329.313 3.52379L330.149 3.54664L329.34 3.46445L329.313 3.52379ZM319.246 3.66848C319.64 3.725 321.5 3.79838 321.558 3.77628C322.507 3.43347 321.851 3.03303 317.232 2.47736C317.273 2.58883 317.21 2.69073 317.15 2.78857C316.976 3.07148 316.823 3.32042 319.246 3.66848ZM284.53 3.32843C287.304 3.38773 290.053 3.33298 293.112 3.2364L293.898 3.21452C296.788 3.13365 300.001 3.04372 303.76 3.1116C299.615 2.7844 296.12 2.81224 293.028 2.91637C291.356 2.97989 289.786 3.0632 288.259 3.14423C286.996 3.21127 285.763 3.27674 284.525 3.32814L284.53 3.32843ZM247.09 3.74508L247.088 3.74502C246.649 3.735 246.21 3.72497 245.77 3.71412C246.755 3.59241 247.225 3.64955 247.695 3.70667C247.914 3.73322 248.132 3.75976 248.402 3.76835C252.26 3.45135 251.67 3.06019 251.022 2.63086C250.929 2.56883 250.834 2.50601 250.751 2.4425C256.899 2.52746 256.967 2.88182 255.507 3.22831C255.302 3.27715 255.123 3.33444 254.936 3.39417C254.059 3.67427 253.016 4.00793 248.345 3.77445C247.928 3.76422 247.51 3.75467 247.092 3.74511L247.09 3.74508ZM236.89 3.62447C236.934 3.63435 236.974 3.64701 237.014 3.65969C237.1 3.68658 237.186 3.71353 237.301 3.71415C237.651 3.71654 238.187 3.69832 238.383 3.66868C239.085 3.57078 238.805 3.51487 237.719 3.53764C237.502 3.54231 237.317 3.56806 237.131 3.59384C237.053 3.60466 236.975 3.61549 236.895 3.62476L236.89 3.62447ZM205.768 3.64177C208.622 3.96291 212.04 3.87571 217.118 3.65995C216.831 3.64219 216.55 3.62465 216.274 3.60744C212.523 3.37305 209.785 3.20201 206.35 3.41438C205.842 3.44716 205.453 3.60622 205.764 3.64148L205.768 3.64177ZM183.835 2.41919L184.308 2.49987C184.543 2.5492 184.762 2.59976 184.98 2.65028C185.488 2.76794 185.994 2.88537 186.72 2.98646C187.799 3.13998 189.575 3.2692 191.14 3.07371C192.395 2.91365 191.707 2.71366 189.852 2.62457C188.726 2.57055 187.452 2.54343 186.18 2.51633C185.63 2.50459 185.079 2.49287 184.541 2.47897L183.835 2.41919ZM165.165 3.37099C167.297 3.4901 169.37 3.48991 171.191 3.35848C171.989 3.3019 171.713 3.17559 170.749 3.15126C168.41 3.0868 166.783 3.22701 165.16 3.3707L165.165 3.37099ZM170.614 4.2704C169.953 4.54737 167.911 4.6811 163.986 4.76559C164.124 4.72794 164.253 4.69166 164.376 4.6569C165.365 4.37761 166.008 4.19595 168.433 4.18038C168.792 4.18015 169.35 4.19859 169.807 4.2205C170.265 4.2424 170.628 4.26487 170.614 4.2704ZM152.647 2.65409C152.797 2.67623 153.445 2.68741 153.664 2.67203C154.619 2.60909 154.623 2.53869 153.688 2.5033C153.509 2.49656 153.25 2.51147 152.986 2.52665C152.861 2.53385 152.735 2.54112 152.616 2.54615C152.615 2.55807 152.601 2.57068 152.586 2.58312C152.555 2.61078 152.524 2.63761 152.647 2.65409ZM122.106 1.54448L121.698 1.495L122.483 1.48754L122.106 1.54448ZM126.294 2.25019C125.392 2.83339 122.413 3.19496 114.044 3.23256C115.617 3.11096 117.208 3.01274 118.708 2.92017C121.935 2.72089 124.739 2.54781 126.026 2.22395L126.762 2.18278L126.294 2.25019ZM100.404 1.20031C100.099 1.30673 99.0839 1.42058 98.0772 1.47392C96.5609 1.55478 96.1272 1.4431 95.7413 1.34371C95.6872 1.32979 95.6341 1.31612 95.5791 1.30325C95.6339 1.10747 96.0463 0.94347 98.3653 0.94886C99.8418 0.953507 100.772 1.07209 100.404 1.20031ZM75.4381 3.64192C77.1376 3.63788 76.7829 3.78618 76.2918 3.91962L76.292 3.91642C75.8247 4.04812 75.0863 4.20158 73.6004 4.19635C73.0847 4.19334 72.8168 4.08682 72.9021 4.00857C73.0528 3.86693 73.7816 3.71608 75.4381 3.64192Z" fill="#091818"/>
</svg>
