<svg width="449" height="457" viewBox="0 0 449 457" fill="none" xmlns="http://www.w3.org/2000/svg">
<path d="M447.511 354.849C447.193 352.428 446.699 350.147 446.276 347.779C445.817 345.463 445.217 343.431 444.671 341.256C443.595 336.908 442.06 332.896 440.526 328.812C433.735 312.568 427.932 296.712 421.829 281.14C415.744 265.585 409.429 250.33 401.721 236.277C398.687 230.763 395.512 225.371 392.39 220.068L387.734 212.167L385.423 208.208L383.007 204.001C358.507 161.136 340.41 114.895 312.717 73.7804C301.852 57.642 289.646 42.3168 275.765 28.6531C263.559 16.5979 248.301 0 230.434 0C225.071 0 219.462 0.60099 214.33 1.856C209.214 3.07566 204.346 4.73722 199.99 6.76998C197.714 7.75984 195.739 8.87344 193.64 10.0047C191.717 11.1713 189.653 12.338 187.89 13.593C180.552 18.5777 174.537 24.1987 169.563 30.0672C160.973 40.1603 154.288 50.819 152.789 61.7783C150.249 80.6564 147.762 98.3679 143.123 114.241C141.289 120.64 139.807 127.127 138.678 133.703C134.851 132.342 130.988 131.034 127.143 129.725C114.425 125.466 101.849 118.024 88.4085 118.077C69.3765 118.13 49.8684 124.847 34.2759 135.612C27.7144 140.154 21.7173 145.457 15.8966 150.919C8.5943 157.76 4.13176 172.926 1.82111 182.719C0.445312 188.446 0.445312 194.403 0.445312 200.289C0.568782 237.868 7.53599 271.736 23.199 305.851C27.0089 314.035 31.3127 322.06 36.5337 329.891C39.0912 333.779 42.1603 337.862 44.7885 341.062L48.8453 346.17L53.0257 351.173C58.5641 357.872 64.3496 364.324 70.0821 370.846C79.8362 381.77 91.1953 390.962 101.637 401.249C106.523 406.022 113.579 408.32 118.553 412.297C127.601 419.597 138.237 423.857 148.027 429.69C160.991 437.521 175.913 441.109 189.865 445.935C234.42 461.331 293.368 459.828 338.663 446.571C352.245 442.594 365.35 436.991 379.144 433.756C392.373 430.662 405.337 429.337 417.666 422.973C424.386 419.526 431.001 414.577 436.275 408.037C441.549 401.514 445.2 393.525 446.77 385.571C448.869 374.788 448.816 364.43 447.493 354.832L447.511 354.849ZM165.806 108.426C169.087 94.4262 178.135 80.8862 186.778 69.5558C194.116 59.9399 209.409 53.5235 221.65 51.7735C229.746 50.6246 237.93 53.6472 244.915 57.9248C270.649 73.7097 285.519 99.6406 302.064 123.892C327.339 160.906 352.21 198.504 376.639 235.959C384.118 247.307 392.461 258.284 397.788 271.206C401.456 280.132 404.578 289.324 407.93 298.374C408.829 300.813 409.764 303.235 410.734 305.639C410.717 305.639 410.699 305.603 410.681 305.586C408.847 304.154 407.013 302.74 405.125 301.379C389.639 290.702 375.122 279.902 360.482 269.544C345.878 259.204 331.22 249.252 316.033 241.085C310.071 237.868 304.074 234.846 298.148 231.858L289.329 227.404L280.315 222.755C256.785 210.47 233.309 198.928 213.765 180.05C200.483 167.234 185.385 156.381 169.175 147.137C165.03 144.786 160.779 142.7 156.458 140.773C159.104 129.832 163.213 119.438 165.771 108.443L165.806 108.426ZM316.033 440.013C312.47 441.003 309.154 441.816 306.508 442.505C293.65 445.846 279.945 445.033 266.839 443.902C255.198 442.894 243.557 441.728 232.056 439.695C196.056 433.349 163.301 418.148 132.593 398.686C122.962 392.535 113.649 385.8 104.989 378.253C94.529 369.096 84.8984 358.791 75.2502 349.069L70.7347 344.438C69.2354 342.883 67.8243 341.256 66.378 339.665C63.45 336.484 60.716 333.143 57.9997 329.785C52.4612 323.138 47.9634 315.644 44.1711 307.813C35.8105 290.49 30.8893 271.506 29.7781 252.646C29.1608 242.199 24.9099 232.512 24.6982 221.695C24.4866 210.895 26.0917 199.953 30.7482 190.125C39.691 171.265 59.8341 162.197 80.0125 163.416C100.173 164.636 117.971 175.312 135.627 184.062C136.368 184.433 137.108 184.804 137.849 185.176L138.414 189.648C139.366 197.708 140.636 205.698 141.8 213.723C143.882 227.245 148.185 240.184 151.078 253.6C152.454 259.84 156.969 265.178 158.821 270.817C166.917 295.882 184.679 319.709 202.089 339.1C230.081 370.298 267.298 395.186 303.527 415.974C314.64 422.355 326.246 428.365 338.875 430.521C335.771 429.991 330.814 433.968 328.151 435.311C324.182 437.326 320.408 438.811 316.033 440.031V440.013ZM371.065 421.206C360.659 420.039 351.31 420.251 341.556 415.85C335.506 413.128 329.562 410.07 323.265 407.913C317.727 406.022 312.647 404.148 307.655 400.984C302.24 397.555 296.966 393.914 291.833 390.078C290.651 389.194 289.47 388.293 288.253 387.462C284.725 385.058 281.144 383.485 277.705 380.886C274.071 378.129 270.42 375.389 266.787 372.632C259.502 367.099 252.235 361.513 245.162 355.698C231.192 344.208 217.857 331.782 206.886 317.323C201.542 310.288 196.338 303.023 192.211 295.122C187.29 285.788 182.369 276.42 177.889 266.787C173.461 257.135 169.546 247.166 166.618 236.914C163.072 224.47 160.797 211.584 158.098 199.104L157.269 195.11C183.233 208.862 210.096 221.023 237.295 232.106C256.062 239.742 275.5 245.77 294.073 254.06C307.408 260.017 321.272 265.16 333.672 273.592C342.226 279.443 350.481 285.789 358.824 291.94C367.167 298.091 375.704 303.818 385.035 308.75C388.228 310.394 391.244 312.338 394.295 314.265C397.258 316.333 400.186 318.454 403.026 320.717C408.618 325.312 414.068 330.279 418.954 335.883C422.517 339.948 425.621 344.562 428.108 349.582C430.542 354.655 432.094 360.276 432.535 366.021C432.976 371.765 432.2 377.599 430.384 382.972C428.567 388.346 425.762 393.26 422.323 397.502C419.113 401.461 416.467 406.093 412.727 409.292C409.993 410.847 407.136 412.12 404.226 413.039C398.687 414.807 393.449 417.087 387.928 418.855C382.442 420.605 376.727 421.807 371.101 421.206H371.065Z" fill="#F9DFD5"/>
</svg>
