<svg width="990" height="14" viewBox="0 0 990 14" fill="none" xmlns="http://www.w3.org/2000/svg">
<path d="M989.03 10.9436C990.293 11.0791 989.644 11.2397 988.771 11.3508C988.156 11.4269 987.413 11.4858 986.729 11.5535L985.458 11.8009L984.204 11.5085C980.901 11.3739 980.477 11.3855 980.892 11.5758C981.255 11.7431 982.241 11.9768 980.857 11.9803C975.21 11.9938 971.681 12.6725 965.991 12.6387L967.764 12.179L968.231 12.1243L967.634 12.1583C965.991 12.2385 963.44 12.243 965.749 12.6558C966.043 13.0198 964.78 13.1764 962.246 13.1596C961.407 13.2733 960.612 13.2397 959.842 13.1079C954.238 13.0333 948.478 13.4675 943.038 12.7345C942.571 12.6709 941.257 12.6934 940.452 12.7224C935.013 12.9252 929.538 12.7184 924.254 12.4367C916.107 12.001 907.823 11.9032 899.555 11.7529C895.879 11.6877 893.492 11.5483 894.738 10.9503C895.153 10.751 894.962 10.4918 892.593 10.5401C891.598 10.5606 889.263 10.4062 890.163 10.8266C890.958 11.2011 888.563 11.424 886.556 11.3402C881.938 11.1445 877.432 11.1718 872.883 11.0855C868.222 10.9988 867.4 10.75 868.058 10.0048C868.196 9.8443 868.127 9.6725 868.161 9.3966C864.02 9.64 860.342 9.8565 856.664 10.0731C857.889 10.0879 859.135 10.1195 860.335 10.1107C861.746 10.0995 863.46 9.9198 864.404 10.1685C865.024 10.3323 864.816 10.6059 864.209 10.7688C863.324 11.0055 861.305 11.044 859.404 10.9331C857.121 10.7979 856.242 10.5057 855.713 10.1968C851.71 10.558 847.527 10.6216 842.237 10.4966C829.096 10.1923 815.881 9.8239 802.696 9.9382C797.562 9.9829 797.027 9.8516 796.934 8.8661L797.308 8.7932L796.819 8.8519C794.674 8.7304 791.508 8.3866 792.57 9.0913C793.375 9.6256 791.847 9.9044 788.455 9.713C782.476 9.374 776.888 9.6121 771.14 9.5555C767.524 9.5199 763.891 9.7595 761.294 9.1182C760.477 8.9147 759.11 9.0151 758.088 9.0886C751.741 9.546 745.195 9.261 738.692 8.9122C736.571 8.7969 734.722 8.6985 732.492 8.8123C726.71 9.1115 720.002 8.897 714.532 8.7214C699.467 8.2372 684.255 8.3797 669.412 7.8372C661.358 7.5383 652.954 8.063 645.276 7.3014C637.088 7.6845 628.539 7.0374 620.133 7.1934C616.742 7.2595 611.477 7.4712 609.377 6.5935C608.4 6.1857 605.792 6.4944 605.123 6.5964C600.406 7.3079 594.234 7.1308 588.143 7.0454C585.709 7.0118 585.054 6.7969 584.967 6.5105C586.807 6.4527 588.662 6.377 587.761 6.0332C587.586 5.965 586.101 5.8913 585.4 5.9106C582.02 6.0076 585.047 6.2996 584.865 6.4995C581.91 6.6786 578.366 6.6201 575.585 6.8814C572.982 7.1274 572.002 6.3266 570.157 6.5933C567.965 6.9114 565.518 6.9025 562.814 6.9078C561.923 6.9046 561.03 6.9015 559.667 6.9009C558.826 6.3746 560.992 5.9354 560.943 5.4532L561.354 5.3827L560.849 5.4384C559.157 5.3496 558.48 4.93 556.437 5.0526C553.429 5.2298 556.815 5.4457 556.927 5.6513C557.231 6.1926 552.636 6.3162 552.842 6.808C547.909 6.7079 550.195 6.1263 548.114 5.8847C547.718 5.9027 547.317 5.9207 546.921 5.9386C547.086 5.8854 547.246 5.8322 547.411 5.7789C546.851 5.7492 545.8 5.6913 545.8 5.6913C541.806 7.2316 532.541 6.5696 524.888 6.6213C523.72 6.0204 528.538 6.0263 528.541 5.6262C528.544 5.5113 528.318 5.3158 527.875 5.2932C526.556 5.2254 526.819 5.4129 526.65 5.515C525.729 6.0658 521.583 5.2412 520.244 5.7722C519.417 6.1013 518.691 6.511 515.523 6.6195C513.09 6.3911 517.284 5.7985 512.534 5.7142C512.299 5.5155 511.717 5.3367 510.583 5.1977C509.432 4.9582 508.204 4.9817 506.936 5.1525C504.658 5.183 503.336 5.3727 502.971 5.7214C504.513 5.5152 505.781 5.3444 507.047 5.1772L510.374 5.2383L512.351 5.7332C512.604 6.0184 511.84 6.3422 510.074 6.3389C505.699 6.3312 502.028 6.7285 497.733 6.6386C490.962 6.5094 484.25 6.5281 477.526 6.5819C475.766 6.5958 474.98 6.555 474.466 6.2631C473.723 5.8383 472.97 5.8105 471.627 6.0459C469.304 6.4511 467.08 6.697 463.725 6.2263C462.732 6.0868 462.328 6.1815 461.658 6.2452C455.548 6.8422 448.681 6.3051 442.214 6.3797C441.57 6.387 440.778 6.2246 440.054 6.1437C439.131 6.037 440.57 5.7433 438.552 5.7678C438.17 5.7714 438.943 6.0492 439.884 6.1624C439.196 6.2405 438.519 6.3845 437.824 6.3828C426.854 6.3733 415.789 6.4881 404.939 6.3082C395.805 6.1574 386.995 6.1124 378.025 6.3328C374.618 6.4131 370.434 6.602 369.404 5.8338L369.763 5.7578L369.247 5.8138C366.748 5.8377 364.887 6.1849 361.643 5.9302C358.986 5.722 355.491 5.9404 352.462 6.1043C350.244 6.2248 347.872 6.3113 345.512 6.3627C339.816 6.4855 339.8 6.472 339.648 5.5126C341.238 5.2842 344.74 5.2778 344.515 4.7135C342.159 4.9769 340.267 5.165 339.398 5.4812C335.364 6.0938 329.216 6.156 324.382 6.2063C320.689 6.2424 316.927 6.3882 313.153 6.4578C309.379 6.5275 305.595 6.5383 301.855 6.2765L286.576 6.4661C281.75 6.7666 276.868 6.4738 272.239 6.428C268.231 6.3893 269.779 5.7064 271.045 5.2608L271.377 5.1925L270.864 5.2345C269.503 5.3348 268.072 5.4126 267.671 5.6603C266.727 6.243 265.81 6.8494 260.17 6.2261C259.787 6.1846 258.807 6.17 258.458 6.2074C250.821 7.0032 241.932 6.2124 234.051 6.7123C233.534 6.744 232.824 6.7462 232.274 6.7301C229.365 6.6367 225.099 6.3199 223.85 6.4762C220.657 6.8741 217.232 6.6349 214.323 6.8267C209.558 7.143 205.079 6.4181 200.242 6.9067C199.218 7.0116 198.446 6.7477 198.286 6.5782C198.079 6.3578 198.653 6.161 199.552 5.9726C200.424 5.792 201.616 5.5537 199.193 5.4955C197.965 5.4669 196.803 5.6104 196.208 5.8808C194.172 6.8103 191.334 7.1045 184.216 7.0614C177.295 7.0233 170.396 7.0089 163.485 7.1584C159.134 7.251 157.037 6.7976 153.733 6.649L153.22 6.6075L153.55 6.6749C154.069 7.0119 153.195 7.2831 150.686 7.3664C148.83 7.4282 148.158 7.2242 148.282 6.9807L148.608 6.8986L148.144 6.9636C145.241 6.8839 148.291 6.2255 144.593 6.2235C144.519 6.149 144.533 6.0721 144.631 5.9963L145.032 5.9226L144.447 5.9805C144.294 6.0091 143.997 6.0452 144.019 6.0689C144.074 6.13 144.276 6.187 144.419 6.2457C144.442 6.3286 144.676 6.4265 144.452 6.4988C141.609 7.4227 141.12 7.4328 135.874 6.5134C136.416 7.3925 132.606 7.7762 128.523 7.5726C120.46 7.173 110.688 8.0243 103.576 7.174C94.5996 7.3632 85.9988 7.1211 77.2261 7.1377C71.913 7.1421 66.615 7.1461 61.299 7.1505C55.9834 7.1793 50.6501 7.219 45.2664 7.3019C30.0419 7.5422 14.6729 7.6231 0.658203 6.7167C2.69749 5.9645 7.01217 5.6921 11.6005 5.5582C20.5004 5.2911 29.3273 4.8485 38.3281 4.8047C39.5435 4.7989 40.9181 4.7853 42.0115 4.7028C48.7707 4.2132 55.673 3.9561 62.6017 3.8061C69.5309 3.684 76.4895 3.6723 83.3602 3.6284C91.5121 3.5767 99.6666 3.4764 107.808 3.3485C115.946 3.2068 124.07 3.069 132.16 2.9287C143.041 2.7494 153.936 2.674 164.811 2.5749C175.684 2.4828 186.536 2.3356 197.336 2.1342C212.74 1.8193 228.237 2.0167 243.501 1.4692C246.177 1.3743 249.059 1.3954 251.842 1.4019C272.214 1.4122 292.497 1.1119 312.784 0.839301C315.248 0.812901 317.736 0.813702 320.206 0.821902C339.659 0.902902 359.003 0.618103 378.381 0.468103C389.157 0.403003 399.968 0.462201 410.765 0.424401C418.458 0.399401 426.165 0.374002 433.872 0.348602C441.581 0.344102 449.288 0.339502 456.987 0.335202C465.745 0.346902 474.512 0.358203 483.277 0.366203C492.041 0.370703 500.804 0.364802 509.555 0.324502C519.338 0.269502 529.298 0.484403 539.096 0.439403C548.301 0.407403 557.575 0.606502 566.728 0.457702C569.735 0.405802 572.891 0.429702 575.97 0.469802C592.04 0.675702 607.97 0.541103 623.968 0.588903C637.111 0.649703 650.306 0.809901 663.454 0.832301C680.932 0.849601 698.467 1.2029 715.91 1.3186C741.505 1.4732 767.036 1.9635 792.596 2.3347C806.671 2.5332 820.904 2.4942 834.788 2.9137C855.057 3.5217 875.461 3.58 895.672 4.3218C904.424 4.6432 913.496 4.7922 922.395 4.9599C931.346 5.1297 939.985 5.5586 948.893 5.7539C958.069 5.9523 967.193 6.3364 976.317 6.6617C979.629 6.7822 984.351 6.728 983.685 7.5432C985.026 7.6487 986.617 7.7507 985.83 8.0091C985.476 8.1232 984.464 8.1547 983.547 8.0897C982.025 7.9822 982.656 7.7977 982.578 7.6434C976.352 7.2589 975.028 7.2955 973.178 8.0286C971.846 8.5596 971.984 9.1715 969.762 9.6574L969.442 9.7183L969.935 9.6872C975.314 10.1994 983.409 10.2398 984.905 11.4231C985.311 11.4431 985.718 11.4526 986.133 11.4516C986.245 11.3303 986.237 11.2052 986.479 11.0941C986.842 10.9276 987.811 10.8104 989.039 10.94L989.03 10.9436ZM89.0975 6.2318L88.5112 6.255L88.9989 6.2902L89.0975 6.2318ZM113.4 6.196L112.86 6.1761L112.847 6.2322L113.4 6.196ZM120.615 6.8313L120.011 6.8584L120.506 6.8934L120.615 6.8313ZM129.694 6.6288C129.65 6.5465 129.655 6.4664 129.713 6.3847L130.178 6.3162L129.604 6.3703C129.451 6.4024 129.161 6.4348 129.176 6.4622C129.217 6.5272 129.407 6.5845 129.538 6.647L130.11 6.7007L129.691 6.6323L129.694 6.6288ZM148.115 3.8474C147.772 3.8152 147.113 3.8404 146.596 3.8408C147.019 3.9334 147.352 4.0425 147.901 4.1177C148.16 4.1523 148.834 4.1337 149.249 4.1396C149.664 3.9716 148.773 3.9127 148.112 3.8475L148.115 3.8474ZM158.715 6.0971L158.255 6.089L158.383 6.1689L158.713 6.0972L158.715 6.0971ZM171.775 5.9236C171.829 5.8804 171.407 5.833 171.198 5.7866C170.914 5.8536 170.569 5.9153 170.353 5.9873C170.064 6.0823 170.333 6.1271 171.012 6.1152C171.285 6.052 171.69 5.9921 171.775 5.9236ZM185.378 5.516C185.164 5.4975 184.967 5.4647 184.73 5.4609C183.938 5.4445 183.566 5.4826 183.808 5.549C183.884 5.5678 184.317 5.5627 184.584 5.5658C184.849 5.5515 185.11 5.5338 185.375 5.5195L185.378 5.516ZM185.621 3.4707C185.41 3.4487 185.22 3.4157 184.982 3.4118C184.191 3.3954 183.818 3.4336 184.064 3.5033C184.139 3.5221 184.572 3.5171 184.84 3.5201L185.621 3.4672V3.4707ZM216.253 5.6949L215.813 5.6827L215.932 5.7664L216.253 5.6949ZM225.559 5.4513L225.455 5.3707L225.155 5.4382L225.559 5.4479V5.4513ZM236.327 5.3308C236.203 5.296 235.213 5.2782 234.952 5.3097C234.574 5.355 234.371 5.4476 234.33 5.5217C234.272 5.6242 234.718 5.6606 235.356 5.6291C236.13 5.5554 236.775 5.4611 236.327 5.3343V5.3308ZM259.246 4.9924C255.318 4.9167 253.068 5.226 250.449 5.281L249.924 5.2295L250.29 5.3028C253.365 5.496 256.178 5.5225 259.246 4.9924ZM279.141 5.1273C279.309 4.9661 278.781 4.8624 277.744 4.905C276.223 4.9645 275.308 5.1289 275.244 5.3534C275.207 5.4761 275.562 5.6229 276.629 5.5829C278.195 5.5222 278.434 5.286 279.141 5.1273ZM301.789 4.9459L301.386 4.9327L301.489 5.0133L301.789 4.9459ZM308.735 5.206C307.778 5.1768 307.29 5.319 307.497 5.4628C307.614 5.5466 307.727 5.627 307.842 5.7107C307.537 5.7853 306.121 5.6888 306.525 5.8724C307.003 5.8244 307.477 5.7765 307.955 5.7285C308.329 5.659 308.824 5.6001 309.054 5.5241C309.398 5.4103 309.725 5.2377 308.735 5.206ZM315.903 4.5832C314.768 4.8233 314.232 5.0504 315.288 5.3482C317.442 5.0833 317.389 4.8517 315.903 4.5832ZM334.524 5.1847L334.031 5.2262L333.726 5.2938L334.209 5.2525L334.524 5.1882V5.1847ZM338.312 4.1719L337.826 4.2341L337.391 4.2948L337.968 4.2545L338.315 4.1718L338.312 4.1719ZM360.501 1.589C360.592 1.6039 361 1.5787 361.262 1.5749C361.375 1.5404 361.582 1.5069 361.567 1.4725C361.557 1.4554 361.135 1.4184 360.973 1.4263C360.257 1.4566 360.072 1.5208 360.498 1.5891L360.501 1.589ZM362.677 4.8232C362.441 4.7602 362.255 4.654 361.96 4.6482C361.148 4.6325 360.291 4.6596 359.575 4.669C359.171 4.7985 359.392 4.8654 360.129 4.8659C360.978 4.8667 361.829 4.8397 362.677 4.8232ZM370.498 5.0869L370.358 5.0038L370.089 5.0773L370.498 5.0834V5.0869ZM388.12 4.982L387.564 5.0078L388.104 5.0381L388.12 4.982ZM397.312 1.4785L397.85 1.5123L397.874 1.4525L397.312 1.4785ZM401.274 5.0042C399.477 4.5182 397.555 4.4983 395.388 4.9235L394.887 4.9826L395.5 4.9448C397.449 4.7934 399.202 5.1694 401.274 5.0076V5.0042ZM421.598 5.1481L421.02 5.164L421.544 5.2052L421.598 5.1481ZM446.498 4.6643C446.402 4.6461 445.945 4.631 445.8 4.6454C445.145 4.7087 445.141 4.775 445.777 4.813C445.951 4.8221 446.264 4.7856 446.515 4.7717C446.521 4.7368 446.623 4.6887 446.498 4.6643ZM452.324 4.9693L451.921 4.9666L452.108 5.0449L452.324 4.9728V4.9693ZM468.376 4.9426C466.453 4.9158 465.316 4.8812 464.205 4.8876C462.716 4.8975 460.864 4.9174 461.848 5.2276C462.475 5.426 463.783 5.3967 464.9 5.2858C465.843 5.1902 466.777 5.0982 468.376 4.9391V4.9426ZM479.56 5.1272L479.049 5.1691C478.741 5.2438 477.385 5.1387 477.69 5.3181C478.2 5.2761 478.708 5.2342 479.219 5.1958L479.56 5.1272ZM486.377 5.109C486.112 5.092 485.837 5.0613 485.582 5.0614C484.649 5.0629 484.476 5.1129 485.13 5.1748C485.341 5.1934 485.726 5.1931 485.99 5.1823C486.159 5.1777 486.252 5.1369 486.374 5.1126L486.377 5.109ZM489.082 5.8552C488.814 5.8521 488.544 5.877 488.277 5.8914C488.448 5.9144 488.62 5.941 488.78 5.9644C489.073 5.9668 489.464 5.9872 489.641 5.9684C490.191 5.9115 489.97 5.8619 489.082 5.8586V5.8552ZM515.623 2.9187C515.594 2.7839 515.095 2.6933 514.129 2.6644C513.972 2.6583 513.627 2.7096 513.577 2.7423C513.393 2.8622 513.495 2.9846 514.503 3.0297C514.789 3.0427 515.249 2.957 515.623 2.9187ZM517.693 1.2995C517.807 1.1155 517.2 1.014 516.216 1.0412C515.504 1.0609 514.651 1.161 514.436 1.2539C514.148 1.3767 514.905 1.5088 515.889 1.4851C516.613 1.465 517.188 1.3552 517.693 1.2995ZM528.248 1.9293L527.742 1.8807L527.641 1.9427L528.248 1.9259V1.9293ZM533.908 5.4881C533.823 5.4522 533.739 5.4162 533.654 5.3803C533.389 5.3911 533.04 5.3938 532.875 5.4193C532.32 5.5007 532.508 5.5581 533.338 5.563C533.534 5.5645 533.72 5.5177 533.909 5.4916L533.908 5.4881ZM568.596 4.7997C568.81 4.7068 568.403 4.645 567.832 4.6852C567.456 4.7129 567.235 4.7991 567.144 4.8677C567.004 4.969 567.318 5.0125 567.841 4.991C568.098 4.9282 568.434 4.8668 568.592 4.7998L568.596 4.7997ZM571.389 3.5848L571.143 3.4768C570.885 3.4875 570.547 3.4898 570.38 3.5119C569.825 3.5898 570.003 3.6475 570.825 3.6526C571.017 3.6543 571.2 3.6075 571.386 3.5849L571.389 3.5848ZM576.275 3.4392L575.694 3.4483L576.177 3.4941L576.275 3.4392ZM588.01 3.2224C587.912 3.1277 587.123 3.0834 586.651 3.1486C585.614 3.2921 585.404 3.4754 586.169 3.6873C587.413 3.5798 588.234 3.4353 588.01 3.2224ZM594.735 6.3098L594.224 6.3553L593.825 6.422L594.363 6.3758L594.735 6.3098ZM600.857 5.716C600.889 5.6908 600.615 5.6323 600.488 5.6323C600.239 5.6323 599.992 5.66 599.743 5.6738C599.71 5.706 599.567 5.7587 599.664 5.7699C600.254 5.8371 600.718 5.8173 600.857 5.716ZM602.32 3.5466C601.744 3.4825 601.29 3.5055 601.144 3.6034C601.109 3.6253 601.396 3.6869 601.489 3.6843C601.745 3.6807 601.973 3.657 602.213 3.6399C602.255 3.6075 602.407 3.5546 602.32 3.5466ZM615.736 6.3515C615.027 6.0162 612.992 5.9126 611.042 5.796C610.442 5.7048 609.925 5.5939 609.214 5.5266C608.614 5.4666 608.125 5.5428 608.617 5.6231C609.16 5.7124 610.055 5.7642 610.794 5.8342C612.746 5.9437 611.975 6.5251 615.732 6.3516L615.736 6.3515ZM617.139 4.7089C617.091 4.6755 617.126 4.6328 616.984 4.6054C616.425 4.506 616.001 4.5178 615.922 4.6278C615.905 4.6561 616.165 4.7011 616.372 4.7162C616.581 4.7279 616.881 4.7126 617.139 4.7089ZM617.689 1.7228L617.2 1.7851L613.504 1.7203L613.031 1.6708L613.32 1.7428C614.609 1.9124 615.91 1.9843 617.247 1.7907L617.691 1.7193L617.689 1.7228ZM624.365 5.8136C623.828 5.7519 623.309 5.6514 622.969 5.6608C621.618 5.6913 621.014 5.8332 620.955 6.0192C620.918 6.1385 621.343 6.1894 621.85 6.1336C622.73 6.0362 623.522 5.9239 624.365 5.817V5.8136ZM643.171 5.9125L642.681 5.9504L642.33 6.0122L642.853 5.9769L643.173 5.9124L643.171 5.9125ZM652.452 6.0383L651.995 6.0962C651.287 6.168 650.494 6.2282 649.891 6.311C649.369 6.3845 648.447 6.4831 649.758 6.5895C649.954 6.6049 650.743 6.51 651.034 6.4463C651.498 6.343 651.772 6.2241 652.125 6.1135L652.449 6.0384L652.452 6.0383ZM659.488 6.1811C659.743 6.1045 659.272 6.041 658.598 6.07C658.13 6.09 657.788 6.1551 657.408 6.2004C657.325 6.2931 657.684 6.3458 658.342 6.3206C658.809 6.3008 659.291 6.2422 659.488 6.1811ZM696.948 4.8142C697.187 4.7971 697.585 4.7896 697.644 4.7636C697.862 4.6706 697.533 4.6066 696.816 4.5986C696.572 4.5949 696.182 4.6197 696.123 4.6457C695.905 4.7387 696.234 4.7991 696.948 4.8176V4.8142ZM699.975 5.9201C698.228 6.2294 696.246 6.4303 696.415 6.8397C700.049 6.8481 701.236 6.5416 699.975 5.9201ZM713.333 7.2343C712.508 7.1354 711.659 7.1554 711.132 7.2569C710.527 7.3746 711.191 7.4849 711.869 7.567C712.63 7.6573 713.439 7.6732 714.066 7.5584C714.364 7.4319 714.055 7.3222 713.333 7.2343ZM739.275 7.8872C739.261 7.7936 738.863 7.7455 738.19 7.7746C737.411 7.81 736.639 7.8557 735.966 7.9161C735.423 7.9659 735.662 8.0358 736.478 8.055C737.703 8.0872 738.67 8.0326 739.275 7.8872ZM760.622 8.1975C760.521 7.9916 760.096 7.9408 759.411 7.9771C758.623 8.0198 757.484 8.0548 757.242 8.1415C756.815 8.2959 757.857 8.3575 758.792 8.3247C759.604 8.2953 760.291 8.2206 760.618 8.1942L760.622 8.1975ZM784.673 8.5618C784.295 8.3983 784.151 8.1588 782.683 8.0602C781.192 7.9624 780.796 8.1507 780.712 8.3131C780.603 8.5283 780.986 8.7265 782.87 8.7787C783.86 8.8069 784.515 8.7401 784.673 8.5618ZM815.61 9.5322L814.987 9.5494L815.497 9.598L815.607 9.5323L815.61 9.5322ZM816.835 8.813C816.315 8.8483 815.798 8.8834 815.278 8.9187L814.948 8.9904L815.429 8.9423C815.801 8.8799 817.149 9.0096 816.835 8.8165V8.813ZM822.982 9.1578L822.426 9.1732L822.965 9.2139L822.982 9.1578ZM827.19 5.0477C827.553 4.982 828.936 5.1141 828.595 4.9149C828.094 4.9531 827.595 4.9912 827.093 5.0295L826.662 5.0936L827.19 5.0477ZM829.649 8.5767C829.387 8.5388 828.154 8.5451 828.117 8.5669C827.493 8.9286 827.942 9.2675 830.994 9.6179C830.884 9.2209 831.813 8.8926 829.649 8.5732V8.5767ZM852.646 9.0015C848.952 8.7175 845.294 8.8466 839.885 8.7527C845.333 9.3221 848.979 9.0438 852.646 9.0015ZM861.185 7.1336C860.843 7.0422 860.295 7.0226 859.794 7.0817C859.629 7.1002 859.522 7.1588 859.622 7.1873C859.96 7.2788 860.476 7.2924 861.019 7.2426C861.081 7.2061 861.285 7.1622 861.185 7.1336ZM878.565 9.5994C877.986 9.5631 877.415 9.5303 876.836 9.494C873.074 9.1145 872.823 9.6191 872.019 9.8536C871.015 10.1422 871.033 10.4791 875.132 10.6893C874.734 10.2064 873.826 9.7479 876.801 9.5021C877.363 9.5456 877.579 9.745 878.565 9.6029V9.5994ZM884.481 9.8462C884.386 9.8139 884.325 9.7601 884.213 9.7562C883.979 9.7488 883.616 9.7552 883.486 9.7763C883.011 9.8556 883.192 9.9131 883.919 9.9103C884.126 9.9116 884.29 9.8652 884.481 9.8427V9.8462ZM915.165 8.4439C915.148 8.4688 915.407 8.5174 915.606 8.5327C915.805 8.548 916.099 8.533 916.35 8.5294C916.298 8.4961 916.324 8.4537 916.185 8.4296C915.649 8.3297 915.243 8.334 915.165 8.4439ZM905.254 10.2628C903.369 9.9253 901.085 9.9747 897.678 10.1071C900.463 10.4092 902.383 10.6381 904.856 10.4687C905.193 10.4453 905.461 10.3022 905.263 10.2627L905.254 10.2628ZM919.826 11.6268L919.515 11.5485C919.005 11.3888 918.616 11.2185 917.932 11.0705C917.223 10.9196 916.047 10.7783 914.992 10.9467C914.144 11.0814 914.594 11.2777 915.822 11.3794C916.894 11.4679 918.174 11.5057 919.359 11.5667L919.826 11.6268ZM923.735 6.617C923.32 6.5589 922.957 6.4926 922.49 6.4462C921.841 6.3773 921.21 6.3983 921.245 6.4912C921.262 6.5428 921.893 6.6229 922.334 6.6488C922.741 6.6689 923.268 6.63 923.744 6.6169L923.735 6.617ZM932.34 10.891C930.922 10.7632 929.538 10.7492 928.319 10.8527C927.783 10.8988 927.956 11.0192 928.596 11.0502C930.152 11.1289 931.251 11.0115 932.34 10.891ZM933.214 9.6006C930.585 9.649 929.21 9.7565 928.76 10.0126C928.751 10.0198 928.994 10.0444 929.296 10.0673C929.599 10.0902 929.971 10.1147 930.213 10.115C932.029 10.1203 932.358 9.9094 933.214 9.6006ZM940.651 11.6664C940.556 11.6447 940.115 11.629 939.977 11.6434C939.328 11.696 939.328 11.7587 939.951 11.8007C940.124 11.8133 940.418 11.7808 940.669 11.7704C940.669 11.7355 940.772 11.6945 940.651 11.6699V11.6664ZM961.243 13.017L960.958 12.9658L960.698 13.0181L961.243 13.0205V13.017ZM966.441 11.4678C960.845 11.4137 958.839 11.7302 958.207 12.2625L957.896 12.3234L958.389 12.2924C959.669 11.8673 963.102 11.7722 966.441 11.4678Z" fill="#D6B9E0"/>
</svg>
