<svg width="100" height="15" viewBox="0 0 100 15" fill="none" xmlns="http://www.w3.org/2000/svg">
<path fill-rule="evenodd" clip-rule="evenodd" d="M98.5652 10.3523C98.6578 10.144 98.7272 9.86629 98.5999 9.66958L98.6809 9.62329C98.5652 9.43815 98.4611 9.65801 98.4263 9.94729C98.411 10.07 98.4058 10.208 98.4007 10.3443C98.3981 10.4137 98.3955 10.4827 98.3916 10.549C98.3454 10.5721 98.2991 10.5606 98.2644 10.5374C98.1662 9.17091 97.7381 8.84596 97.3076 8.51912C97.1294 8.38378 96.9507 8.24811 96.7948 8.03801L96.7485 8.10744L96.7832 8.0033C96.9274 7.46262 96.9818 6.86355 97.0358 6.26766V6.26759V6.26752C97.0686 5.90698 97.1012 5.5476 97.1535 5.20303C97.3502 3.94175 97.4891 3.8376 98.1023 4.3236C98.1055 4.3921 98.1027 4.46563 98.1 4.53923C98.0925 4.73914 98.085 4.93954 98.1949 5.04103C98.2875 5.12203 98.3916 5.04103 98.4263 4.84431C98.5011 4.42769 98.3688 4.2872 98.2479 4.15883C98.2378 4.14815 98.2278 4.13755 98.2181 4.12689C98.285 2.99803 97.9724 2.94482 97.6789 2.89487C97.6174 2.88441 97.5568 2.87409 97.5007 2.85404C97.2966 2.78339 97.0925 2.708 96.8882 2.63257L96.8881 2.63252C96.1892 2.37438 95.4887 2.11567 94.7814 2.04404C94.3537 1.99961 93.934 1.86187 93.5147 1.72423C93.0604 1.57512 92.6064 1.42613 92.1431 1.39604C92.0465 1.38977 91.9498 1.38391 91.8531 1.37804C91.0569 1.32977 90.2555 1.28119 89.4817 1.00262C88.3783 0.600785 87.2643 0.539985 86.1494 0.479138C85.2417 0.429597 84.3335 0.380025 83.4299 0.146335C82.5514 -0.0825006 81.6542 0.00417477 80.7561 0.0909285C80.2464 0.140166 79.7364 0.189429 79.2294 0.18105C78.5272 0.168281 77.8249 0.141423 77.1227 0.114566C75.2792 0.0440643 73.4358 -0.0264373 71.5923 0.157907C70.8106 0.235557 70.0313 0.234467 69.2522 0.233377C68.2897 0.232031 67.3277 0.230685 66.3621 0.377763C65.5996 0.499214 64.8333 0.538044 64.0675 0.57684C63.5201 0.604579 62.9729 0.632301 62.4278 0.69019C61.8734 0.74644 61.3189 0.837567 60.7644 0.928694C59.722 1.10001 58.6797 1.27133 57.6373 1.2109C57.3248 1.18776 57.0124 1.19933 56.7116 1.32662C56.1611 1.56351 55.6065 1.56547 55.0527 1.56741C54.6868 1.5687 54.3213 1.56999 53.9576 1.63904C53.4844 1.72917 53.0057 1.71784 52.5269 1.7065C52.0221 1.69454 51.5172 1.68258 51.0184 1.78947C49.8088 2.04582 48.5991 2.10251 47.3895 2.15921C46.8519 2.1844 46.3142 2.2096 45.7766 2.25233C45.0072 2.31596 44.2407 2.3796 43.4742 2.44323C42.7075 2.50688 41.9408 2.57053 41.1712 2.63418C40.682 2.68152 40.1929 2.69299 39.7037 2.70447C39.1167 2.71824 38.5298 2.73201 37.9428 2.80775C37.5376 2.86113 37.1324 2.92112 36.7272 2.98111C35.2 3.20723 33.6728 3.43335 32.1455 3.30532C31.9025 3.28218 31.648 3.28218 31.405 3.31689L31.135 3.35864C29.2 3.65817 27.265 3.95769 25.33 3.80289C25.2638 3.79737 25.1969 3.78791 25.1299 3.77842C24.9157 3.74811 24.6995 3.71752 24.4969 3.81446C23.5924 4.22557 22.6839 4.20662 21.7738 4.18763C21.1468 4.17455 20.5191 4.16146 19.8914 4.28889C18.6219 4.54825 17.3444 4.47749 16.0659 4.40669C15.1769 4.35745 14.2874 4.30819 13.3999 4.36989C11.7915 4.4856 10.1599 4.53189 8.53992 4.26575C8.39382 4.24098 8.24732 4.21397 8.10052 4.1869C6.8754 3.96098 5.6295 3.73123 4.42051 4.77489C4.30479 4.86746 4.16593 4.84431 4.05022 4.8096C3.42868 4.64009 2.81277 4.79716 2.19465 4.95481L2.19464 4.95481C1.92666 5.02315 1.65827 5.0916 1.38881 5.1336C0.925959 5.20303 0.49781 5.50388 0.277954 6.68416C1.65495 8.67444 3.18238 9.06787 4.69823 9.20672C5.44 9.27122 6.17615 9.47618 6.9106 9.68066L6.91061 9.68066L6.91062 9.68066C7.23022 9.76964 7.5495 9.85853 7.86877 9.93572C8.19453 10.0139 8.51867 10.1524 8.84361 10.2913C9.38436 10.5223 9.92737 10.7544 10.4839 10.711C10.8878 11.6399 11.3896 11.6486 11.8959 11.6574C12.2599 11.6637 12.6262 11.6701 12.9602 12.0186C13.3652 12.4467 13.747 11.8913 13.7123 10.4101C14.2215 12.0417 14.2678 12.0417 14.5686 10.5606C14.584 10.4834 14.5789 10.3857 14.5738 10.288C14.5712 10.2391 14.5686 10.1903 14.5686 10.144C14.5646 10.1077 14.5591 10.0727 14.5537 10.0382V10.0382L14.5537 10.0382C14.5437 9.97383 14.5339 9.91094 14.5339 9.84315C14.5339 9.79686 14.5802 9.70429 14.5802 9.70429L14.638 9.62329L14.5917 9.73901V10.1209C14.7809 10.1636 14.7834 10.4733 14.786 10.7837C14.7883 11.062 14.7906 11.3409 14.9273 11.4284L14.9736 11.3243L14.9389 11.4516C14.9273 11.845 14.9852 12.2037 15.1703 12.1343C15.4249 12.0417 15.5175 11.602 15.4712 11.035L15.4365 10.9193L15.4827 11.0003C15.5975 11.1109 15.6962 11.2825 15.7955 11.4548C15.9765 11.7693 16.1591 12.0866 16.4432 12.0417C17.1259 11.926 17.8202 12.0996 18.5029 12.2963C19.2087 12.5046 19.498 12.0301 19.7179 10.5143C19.7757 10.0746 19.903 9.84315 20.0187 9.91258C20.2501 10.0399 20.1344 10.4217 20.0419 10.711C19.9493 11.0003 19.8914 11.3243 19.903 11.6946C19.9146 11.9839 19.984 12.4351 20.0881 12.2731C20.3495 11.8749 20.5975 12.0556 20.8447 12.2357C21.0571 12.3905 21.269 12.5449 21.4883 12.331C21.6054 12.2186 21.73 12.2237 21.8584 12.229C22.0473 12.2367 22.2443 12.2448 22.4371 11.8797C22.5227 11.7242 22.7388 11.9344 22.9592 12.1488C23.0668 12.2534 23.1754 12.359 23.2703 12.4236C23.3166 12.4699 23.3976 12.4699 23.4439 12.4236C23.798 12.1002 24.1658 12.2048 24.5331 12.3093C24.9939 12.4404 25.454 12.5713 25.8854 11.8566C25.9201 11.7987 26.0243 11.8334 26.059 11.9029C26.5988 12.9825 26.7054 11.9987 26.8088 11.0449L26.8111 11.0234C26.8547 10.6418 26.9805 10.5068 27.1111 10.3666L27.1351 10.3407L27.1814 10.2713L27.1467 10.387C27.0078 11.116 26.8458 12.2384 27.2393 12.331C27.3723 12.3643 27.5064 12.431 27.6414 12.4982C27.9759 12.6648 28.3163 12.8343 28.6625 12.5046L30.19 12.3079C30.7137 12.9544 31.2491 12.7269 31.7796 12.5015C31.9992 12.4082 32.218 12.3152 32.4348 12.2847C32.9092 12.2153 33.5225 12.1227 33.9391 11.116C34.0284 10.6024 34.2039 10.2935 34.4344 9.88781L34.4598 9.84315C34.4679 10.4993 34.3002 10.7018 34.1433 10.8912C34.0761 10.9724 34.0108 11.0512 33.9622 11.1623C33.9622 12.7591 33.9622 12.7823 34.5292 12.5856C34.7607 12.5046 35.0036 12.3657 35.2235 12.169L35.2608 12.1345C35.5527 11.8639 35.8824 11.5584 36.1377 11.8913C36.3486 12.1624 36.5006 12.0169 36.6513 11.8726C36.7321 11.7952 36.8125 11.7183 36.9014 11.7061L36.9592 11.6136L36.9245 11.7409C36.9998 12.9355 37.3755 12.7587 37.6976 12.6071L37.7337 12.5903C37.7456 12.5847 37.7575 12.5793 37.7692 12.574C38.6718 12.1806 39.5512 12.2384 40.4538 12.4583C41.2426 12.6534 42.0501 12.5935 42.8534 12.534L42.8535 12.534L42.8535 12.534C43.1461 12.5123 43.4381 12.4907 43.7285 12.4814C43.7771 12.4814 43.8257 12.3624 43.8743 12.2433C43.8951 12.1923 43.9159 12.1412 43.9367 12.0996C43.8442 11.9144 43.7747 11.4516 43.8095 11.4516C43.9248 11.4176 43.9208 11.5748 43.9164 11.7455C43.9133 11.8659 43.9101 11.9931 43.9483 12.0649C43.9694 12.1069 43.9904 12.1596 44.0114 12.2123C44.0598 12.3336 44.1082 12.4548 44.1566 12.4467C44.3839 12.3858 44.614 12.4502 44.8439 12.5145C45.2697 12.6336 45.6949 12.7526 46.1006 12.0764C46.1107 12.0597 46.1202 12.0422 46.1295 12.0252C46.1844 11.9249 46.2297 11.8421 46.3089 12.0301C46.6329 12.7938 46.8527 12.3657 47.0957 11.6714C47.2346 11.2664 47.304 11.3127 47.3734 12.007C47.4197 12.493 47.5007 12.5508 47.6743 12.5161C48.3455 12.3773 49.0166 12.2963 49.6877 12.4583C49.9192 12.5146 50.1338 12.3341 50.3515 12.151C50.5366 11.9954 50.7239 11.8378 50.9259 11.8219C51.0994 11.8103 51.1804 11.2664 51.1573 10.792L50.9721 9.99358C50.9143 9.982 50.8593 9.97043 50.8043 9.95885C50.7494 9.94729 50.6944 9.93572 50.6366 9.92415C50.5929 10.0235 50.5492 10.1242 50.5041 10.2281L50.504 10.2282L50.5035 10.2293C50.4174 10.4277 50.3262 10.6379 50.22 10.873C50.2586 10.2867 50.3936 9.955 50.625 9.87786C50.7523 9.57701 50.868 9.53072 50.9837 9.91258C51.0879 10.1324 51.1457 10.4217 51.1689 10.7457C51.4325 10.7918 51.4071 11.1495 51.3812 11.5131C51.3617 11.7878 51.342 12.0659 51.4466 12.2153C51.7318 12.0319 51.8198 11.4718 51.8999 10.9615C51.9108 10.8921 51.9215 10.8237 51.9326 10.7573C52.0078 10.3116 52.1439 10.4189 52.2741 10.5217C52.4042 10.6243 52.5285 10.7224 52.5806 10.2597C52.586 10.2187 52.5889 10.1705 52.5918 10.1221V10.1221C52.6012 9.96583 52.6107 9.80719 52.7079 9.87786C52.7541 9.91258 52.7657 10.2366 52.7657 10.4217C52.7608 10.707 52.6722 10.8794 52.58 11.0589C52.4553 11.3016 52.324 11.5573 52.3839 12.1227C52.5688 12.0835 52.7626 12.1114 52.9561 12.1393C53.5618 12.2267 54.1654 12.3138 54.4899 10.3407C54.4899 10.3407 54.594 10.4217 54.6519 10.468C54.6461 10.5142 54.6374 10.5576 54.6287 10.6009L54.6287 10.6011C54.62 10.6445 54.6113 10.6879 54.6056 10.7341C54.6229 10.7168 54.6431 10.6995 54.6634 10.6821L54.6634 10.6821L54.6634 10.6821L54.6634 10.6821C54.6837 10.6647 54.7039 10.6474 54.7213 10.63C54.7953 10.7736 54.8087 11.004 54.8225 11.2412C54.8454 11.6344 54.8694 12.0462 55.1726 12.1111C55.167 11.7198 55.2721 11.4581 55.3797 11.1904C55.4948 10.9039 55.6127 10.6105 55.6007 10.144C55.6007 10.0273 55.5601 9.91337 55.5198 9.8003C55.4443 9.5883 55.3698 9.37929 55.566 9.16044C55.6856 9.01968 55.7582 9.22135 55.8331 9.42962C55.8814 9.56379 55.9307 9.70071 55.9941 9.75058L56.0404 9.64643L55.9941 9.77372C55.9941 10.1142 55.9542 10.4462 55.9137 10.7824L55.9137 10.7824C55.8592 11.2347 55.8039 11.6944 55.8437 12.1921C55.9594 12.1825 56.035 12.1729 56.1105 12.1632L56.1561 12.1574L56.1817 12.1532C56.4488 12.1092 56.6836 12.0705 56.8967 11.521C56.985 11.2949 57.0495 11.4762 57.1218 11.6791C57.2011 11.9019 57.2897 12.1506 57.429 11.9144C57.5935 11.6446 57.7768 11.5432 57.9596 11.442C58.0982 11.3654 58.2365 11.2888 58.3663 11.1391C58.37 11.0296 58.3418 10.909 58.3136 10.789C58.2556 10.5412 58.1981 10.2959 58.4241 10.1556C58.4935 10.1093 58.644 10.2019 58.6555 10.3176C58.7365 10.873 58.5514 11.0234 58.3663 11.1507C58.3778 11.6251 58.4357 11.9723 58.6787 11.9954C58.7354 11.9998 58.7923 12.0055 58.8491 12.0112C59.3949 12.0659 59.9395 12.1206 60.3797 10.9887C60.4491 10.8036 60.7153 10.2597 60.8078 10.9193C60.9871 12.2165 61.4452 11.9757 61.779 11.8003C61.8114 11.7832 61.8427 11.7668 61.8724 11.7524C62.2401 11.5812 62.6078 11.6577 62.9736 11.7338C63.4481 11.8325 63.9195 11.9306 64.3834 11.4863C64.8402 12.1679 65.3311 12.0558 65.8251 11.9429C66.1445 11.87 66.4651 11.7967 66.7787 11.9376C67.5619 12.2829 68.3616 12.2832 69.1638 12.2834C69.8666 12.2836 70.5712 12.2838 71.2683 12.5161L71.2797 12.5198C71.8215 12.6927 72.4874 12.9053 73.0619 12.2963C73.2818 12.0533 73.4669 12.1806 73.6752 12.331C74.3232 12.7823 74.9712 13.1063 75.6076 12.2037C75.7117 12.0533 75.8506 11.8566 75.9316 12.1806C76.1164 12.9551 76.3749 12.8593 76.6459 12.7589C76.7312 12.7273 76.8177 12.6952 76.9036 12.6897C77.0946 12.678 77.2856 12.6112 77.4774 12.5441C77.8552 12.4119 78.2364 12.2785 78.6277 12.5624C78.9633 12.8054 79.1137 12.3079 79.0443 11.44C78.967 10.4836 79.172 10.6725 79.363 10.8485C79.4008 10.8833 79.438 10.9176 79.4724 10.9424L79.5187 10.8383L79.484 10.9656C79.4724 12.5971 79.5303 12.817 80.0395 12.6203C81.2324 12.1808 82.4158 12.3658 83.5984 12.5508L83.5991 12.5509C83.724 12.5704 83.8488 12.5899 83.9737 12.6087C84.506 12.6897 84.9226 12.4814 85.3276 11.7871C85.3739 12.2847 85.4549 12.7476 85.6863 12.9211C85.883 13.0716 86.0797 12.9558 86.1723 12.5393C86.2417 12.2616 86.2648 11.7987 86.207 11.5441C86.141 11.2639 86.034 11.3594 85.9277 11.4543C85.8847 11.4926 85.8419 11.5308 85.802 11.5441C85.7004 11.5718 85.6063 11.5701 85.5077 11.5682C85.4827 11.5678 85.4575 11.5673 85.4317 11.5673C85.802 11.1276 86.1723 10.6763 86.5889 10.1671C86.584 10.3606 86.5812 10.5217 86.5787 10.664V10.6644C86.5752 10.8623 86.5724 11.0239 86.5657 11.1854C86.4847 12.4351 86.5657 12.8286 87.0286 12.8633C87.1849 12.8753 87.3412 12.8637 87.498 12.8521C87.7939 12.8302 88.0915 12.8081 88.394 12.9443C88.5907 13.0368 88.8337 12.5971 88.7643 11.9954C88.6925 11.4661 88.8155 11.4654 88.9229 11.4649C88.9541 11.4647 88.9839 11.4646 89.0073 11.4516C89.2503 11.3127 89.2618 11.7293 89.2155 12.0764C89.0767 13.1063 89.3081 13.2798 89.6784 13.2914C89.7936 13.2979 89.9088 13.3026 90.024 13.3073C90.7302 13.3359 91.4351 13.3644 92.1315 13.8121C92.6522 14.1593 93.1961 14.356 93.74 13.8816C93.821 13.8121 93.9482 13.7427 93.9945 13.8353C94.3554 14.5811 94.7497 14.3876 95.1426 14.1947C95.3166 14.1093 95.4903 14.024 95.6608 14.0204C95.7418 14.2171 95.8228 14.2518 95.9038 14.0436C96.1584 14.0088 96.2857 13.7196 96.2625 13.1178C96.0779 12.5931 96.2278 12.4601 96.3766 12.3281C96.4049 12.3029 96.4333 12.2778 96.4592 12.25L96.5171 12.1806L96.4708 12.2847C96.4419 12.4177 96.4101 12.5535 96.3783 12.6893L96.3783 12.6894L96.3783 12.6895C96.3464 12.8256 96.3146 12.9616 96.2857 13.0947C96.5762 13.0473 96.812 12.7022 97.0492 12.3551C97.2749 12.0247 97.5019 11.6926 97.7784 11.6136C97.8804 11.5857 97.8412 11.3424 97.8037 11.1098C97.7944 11.0522 97.7852 10.9953 97.7784 10.9424C97.7436 10.6416 97.7899 10.6069 98.1139 10.7457C98.1312 10.8207 98.1514 10.8958 98.1716 10.9708L98.1718 10.9714C98.192 11.0466 98.2123 11.1218 98.2297 11.197C98.2644 11.0466 98.3106 10.8961 98.3569 10.7457C98.3839 10.6918 98.4126 10.6431 98.441 10.5949C98.4858 10.519 98.5298 10.4443 98.5652 10.3523ZM8.96805 8.78321L8.92177 8.80172L8.96805 8.87115V8.78321ZM11.3286 9.32244L11.3865 9.36872L11.3286 9.41501V9.32244ZM12.0808 10.6254L12.0345 10.6531L12.0808 10.7226V10.6254ZM13.0065 10.0977V10.5027V10.5143L13.0412 10.6416L12.9833 10.5374C12.9795 10.5027 12.9743 10.468 12.9692 10.4333C12.9589 10.3639 12.9486 10.2944 12.9486 10.225C12.9486 10.1787 12.9949 10.0746 12.9949 10.0746L13.0528 9.99358L13.0065 10.0977ZM14.7771 6.20233C14.8155 6.20314 14.8568 6.20401 14.881 6.24445L14.8926 6.23288C14.8995 6.24659 14.9068 6.26046 14.9143 6.27471L14.9144 6.27477C14.9705 6.38075 15.0375 6.50745 14.9967 6.74202C14.9841 6.73885 14.9696 6.73828 14.9549 6.73771C14.9159 6.73618 14.8747 6.73457 14.8579 6.68416C14.8075 6.56321 14.7747 6.40714 14.7441 6.26184L14.7306 6.19816C14.7445 6.20165 14.7606 6.20199 14.7771 6.20233ZM15.853 10.1787L15.8993 10.2019L15.853 10.3176V10.1787ZM17.1543 9.98013C17.1744 10.0456 17.1953 10.1133 17.1953 10.1671L17.1837 10.1556C17.1769 10.2168 17.1581 10.2741 17.1391 10.3321L17.139 10.3321L17.139 10.3321L17.139 10.3321C17.1257 10.3727 17.1123 10.4136 17.1027 10.4564C17.0449 10.468 17.0102 10.387 17.0449 10.2366C17.068 10.1324 17.1027 10.0283 17.1374 9.9242L17.1374 9.92418L17.1375 9.92416L17.1375 9.92415C17.1426 9.9423 17.1484 9.96104 17.1542 9.97996L17.1543 9.98013ZM18.5029 9.66958C18.526 9.68115 18.5607 9.77372 18.5607 9.77372L18.5723 9.78529C18.5492 9.79686 18.5144 9.82 18.4913 9.84315C18.483 9.84039 18.4741 9.83829 18.4653 9.83621L18.4653 9.83621C18.4371 9.8296 18.4103 9.82329 18.4103 9.79686C18.3872 9.68115 18.4219 9.62329 18.5029 9.66958ZM18.5607 6.25602C18.5839 6.27916 18.6186 6.37174 18.6186 6.37174H18.6302C18.6186 6.38331 18.6041 6.39488 18.5897 6.40645C18.5752 6.41802 18.5607 6.42959 18.5492 6.44116C18.5409 6.4384 18.532 6.4363 18.5232 6.43423L18.5231 6.43423L18.5231 6.43423C18.495 6.42761 18.4682 6.42131 18.4682 6.39488C18.445 6.26759 18.4797 6.20974 18.5607 6.25602ZM21.5809 10.468L21.6271 10.4911L21.5809 10.6069V10.468ZM22.5181 10.1903L22.5529 10.0746V10.2134L22.5181 10.1903ZM23.4901 10.1093C23.5133 10.063 23.6174 10.1093 23.629 10.1671V10.1787C23.6637 10.3986 23.6058 10.5374 23.5248 10.6531C23.4554 10.6879 23.4207 10.63 23.4207 10.4564C23.4323 10.3291 23.4554 10.1787 23.4901 10.1093ZM25.3089 10.0748C25.4762 9.92277 25.6568 9.75847 25.9086 9.85472C25.5961 10.711 25.3184 10.6531 25.0176 10.306L24.9828 10.1787L25.0291 10.2713C25.125 10.2421 25.2148 10.1604 25.3089 10.0748ZM27.7484 9.84315C27.8525 9.78529 27.9104 9.95886 27.8873 10.225C27.8691 10.2948 27.854 10.3733 27.8389 10.4527L27.8388 10.4527L27.8388 10.4528C27.7961 10.6761 27.7522 10.9058 27.6327 10.9656C27.517 11.0234 27.4938 10.7804 27.4938 10.5721C27.5054 10.2019 27.598 9.93572 27.7484 9.84315ZM30.109 10.0746L30.1437 10.0977V10.1093L30.109 10.2134V10.0746ZM30.7107 10.9887C30.6875 10.7457 30.7454 10.5143 30.838 10.5721L30.8495 10.5606C30.9421 10.6184 30.9074 10.9077 30.8727 11.0929C30.8588 11.1692 30.8324 11.2331 30.806 11.297C30.7884 11.3396 30.7708 11.3821 30.757 11.4284C30.6991 11.5094 30.6528 11.5789 30.6065 11.6599C30.5853 11.4756 30.6291 11.4693 30.6743 11.4628C30.7029 11.4588 30.7319 11.4546 30.7454 11.4053C30.7415 11.359 30.7364 11.3127 30.7312 11.2664C30.721 11.1739 30.7107 11.0813 30.7107 10.9887ZM31.5554 9.56543C31.4397 9.95886 31.3818 10.3407 31.486 10.8383C31.7058 10.4101 31.7058 10.0167 31.5554 9.56543ZM33.3258 10.792L33.3605 10.6763L33.4068 10.6069V10.6184L33.3721 10.7226L33.3258 10.792ZM33.754 9.04472L33.8002 8.94058L33.7655 9.07944L33.7077 9.14886L33.754 9.04472ZM36.1261 4.65917C36.0914 4.67074 36.0451 4.68231 36.0451 4.68231L36.0566 4.67074C36.0104 4.5666 36.0335 4.45089 36.1029 4.4046C36.1145 4.39303 36.1608 4.45089 36.1608 4.4856C36.1608 4.52418 36.1505 4.56275 36.1402 4.60133C36.1351 4.62061 36.1299 4.63989 36.1261 4.65917ZM36.1874 9.94769C36.1935 9.98861 36.1997 10.0299 36.2071 10.063L36.1955 10.0746C36.1703 10.0818 36.1441 10.0912 36.1174 10.1008C36.0581 10.122 35.9968 10.144 35.9409 10.144C35.8715 10.1324 35.8484 10.0167 35.8946 9.80843C35.9081 9.80458 35.9216 9.8004 35.9351 9.79622C36.0026 9.77533 36.0701 9.75443 36.1377 9.77372C36.1613 9.77372 36.1742 9.85987 36.1874 9.94769ZM36.9824 10.387V10.5143H36.9361L36.9824 10.387ZM38.6833 10.3523L38.7412 10.306V10.3986L38.6833 10.3523ZM39.7711 4.50874L39.7132 4.45089L39.7711 4.4046V4.50874ZM39.4586 10.1903C39.6901 9.47286 39.8752 9.50758 40.0488 10.306C39.9433 10.4407 39.8468 10.3501 39.7516 10.2608C39.6588 10.1736 39.5673 10.0877 39.4702 10.2134L39.4124 10.2829L39.4586 10.1903ZM42.0622 10.4981L42.0159 10.5259L42.0622 10.5837V10.4981ZM44.4922 9.53072C44.5038 9.50758 44.5616 9.55386 44.5616 9.55386C44.5693 9.57701 44.5668 9.62072 44.5642 9.66443C44.5629 9.68629 44.5616 9.70815 44.5616 9.72743C44.5558 9.73611 44.55 9.74624 44.5443 9.75637C44.5269 9.78674 44.5095 9.81711 44.4922 9.80843C44.4228 9.75058 44.4228 9.63486 44.4922 9.53072ZM45.1055 10.0167H45.1402H45.1517L45.1286 10.144L45.1055 10.0167ZM46.5767 9.82129C46.6232 9.83192 46.6756 9.84388 46.737 9.85472H46.7255C46.5635 10.1324 46.4709 10.2944 46.3783 10.4564C46.2626 10.6531 46.1353 10.711 46.0775 10.387C45.9849 9.86629 46.17 9.82 46.3205 9.79686C46.4001 9.78094 46.4742 9.79787 46.5767 9.82129ZM47.8416 10.084L47.8016 10.144C47.7881 10.1936 47.7604 10.1993 47.7332 10.2049C47.6905 10.2136 47.6486 10.2221 47.6627 10.3986C47.6859 10.3639 47.7119 10.3263 47.7379 10.2887C47.764 10.2511 47.79 10.2135 47.8132 10.1787L47.8416 10.084ZM48.4496 9.93572C48.4727 9.92415 48.5306 10.0051 48.5306 10.0051H48.519C48.5147 10.0182 48.5103 10.0361 48.506 10.054C48.4988 10.0838 48.4915 10.1136 48.4843 10.1209C48.4612 10.144 48.4264 10.1556 48.4033 10.1209C48.3339 10.0283 48.357 9.94729 48.4496 9.93572ZM48.7833 11.2216C48.7733 11.2297 48.7249 11.2689 48.7042 11.2896C48.7099 11.3069 48.7186 11.3272 48.7273 11.3474C48.736 11.3677 48.7447 11.3879 48.7504 11.4053C48.763 11.4053 48.7756 11.4098 48.7871 11.414C48.8073 11.4213 48.8241 11.4274 48.8315 11.4053C48.8872 11.3049 48.8677 11.2368 48.7833 11.2216ZM51.3424 5.66588C51.435 5.70059 51.4813 5.83945 51.4813 6.07088H51.4929L51.4835 6.09007L51.4685 6.12159C51.4354 6.19185 51.3955 6.27674 51.3772 6.26759C51.273 6.20974 51.2614 6.00145 51.2846 5.80474C51.2962 5.74688 51.3309 5.66588 51.3424 5.66588ZM51.5739 2.92347C51.6664 2.86561 51.7243 3.02761 51.7127 3.34003C51.6921 3.37303 51.6715 3.41926 51.6503 3.46667L51.6503 3.46671C51.6121 3.55229 51.5723 3.6417 51.5276 3.66403C51.435 3.71032 51.354 3.50203 51.3887 3.29375C51.4119 3.14332 51.5044 2.96975 51.5739 2.92347ZM52.7079 4.20789L52.7541 4.27732L52.7079 4.31203V4.20789ZM53.2402 9.95898C53.2517 10.0168 53.2633 10.0746 53.2633 10.1324C53.2546 10.1499 53.2475 10.1723 53.2408 10.1935L53.2408 10.1935C53.2298 10.2283 53.2198 10.2597 53.2054 10.2597C53.1244 10.2713 53.1013 10.1671 53.1591 10.0283C53.174 9.99862 53.1936 9.98797 53.2118 9.97805L53.2119 9.978C53.2165 9.9755 53.221 9.97304 53.2254 9.97034C53.2286 9.96833 53.2317 9.96619 53.2347 9.96379C53.2365 9.96226 53.2384 9.96063 53.2401 9.95886L53.2402 9.95898ZM56.5958 8.68601C56.6074 8.5703 56.6305 8.41987 56.6653 8.37358C56.7231 8.29258 56.7578 8.39673 56.7347 8.54715H56.7463C56.7323 8.62414 56.714 8.69266 56.6967 8.75783L56.6967 8.75791L56.6966 8.75803C56.6853 8.80054 56.6744 8.84163 56.6653 8.88272C56.6074 8.92901 56.5843 8.85958 56.5958 8.68601ZM57.0124 6.31399C57.024 6.37181 57.0356 6.42963 57.0356 6.48745C57.0268 6.50492 57.0197 6.52734 57.013 6.54848L57.013 6.54851C57.002 6.58336 56.9921 6.61473 56.9777 6.61473C56.8967 6.61473 56.8736 6.52216 56.9314 6.38331C56.9456 6.36196 56.9642 6.34937 56.9818 6.33745C56.9929 6.32999 57.0035 6.32279 57.0124 6.31388L57.0124 6.31399ZM57.51 6.17965L57.4637 6.19816L57.51 6.26759V6.17965ZM58.563 5.52702C58.6208 5.41131 58.7018 5.46917 58.7018 5.63117C58.7134 5.97831 58.6324 6.23288 58.5051 6.42959C58.4357 6.09402 58.4588 5.78159 58.563 5.52702ZM59.2688 10.7573L59.3151 10.6763L59.2804 10.792L59.2225 10.873L59.2688 10.7573ZM59.9053 9.44972C59.9168 9.44972 59.94 9.58858 59.94 9.58858L59.9515 9.57701C59.94 9.75058 59.8937 9.79686 59.8358 9.69272C59.8206 9.6851 59.8254 9.6423 59.8305 9.59745L59.8305 9.59738C59.8332 9.57418 59.8358 9.55044 59.8358 9.53072C59.8384 9.52687 59.841 9.52288 59.8435 9.51883C59.8456 9.51557 59.8477 9.51227 59.8497 9.50897C59.8682 9.47935 59.8867 9.44972 59.9053 9.44972ZM59.9978 6.07088C60.0094 5.89731 60.0557 5.86259 60.1135 5.95517C60.1201 5.96837 60.1154 6.00039 60.1102 6.03621C60.1062 6.06318 60.102 6.09231 60.102 6.11717C60.0933 6.12584 60.0846 6.13941 60.0759 6.15297C60.0615 6.17557 60.047 6.19816 60.0325 6.19816C60.021 6.20974 59.9978 6.10559 59.9978 6.07088ZM60.9601 9.57645C61.1523 9.73446 61.3417 9.8902 61.4095 10.4217C61.1731 10.6366 61.1186 10.3415 61.0646 10.0498C61.0314 9.87036 60.9985 9.69217 60.9235 9.63486C60.9075 9.61352 60.8909 9.59279 60.8741 9.57182C60.818 9.50186 60.7598 9.42927 60.7152 9.32244C60.669 9.19515 60.7153 9.05629 60.7731 9.14886C60.8194 9.21829 60.8554 9.31856 60.8914 9.41884C60.9094 9.46899 60.9274 9.51914 60.9467 9.56543L60.9601 9.57645ZM61.5715 7.49416C61.5831 7.54044 61.5831 7.66773 61.5831 7.66773H61.5947C61.5827 7.67172 61.5721 7.67848 61.5624 7.68466C61.544 7.69637 61.5288 7.70602 61.5137 7.69087C61.4905 7.66773 61.4674 7.5983 61.4674 7.55202C61.4789 7.3553 61.5137 7.34373 61.5715 7.49416ZM61.6294 2.80775L61.6757 2.69204V2.70361L61.6294 2.83089C61.4905 3.16646 61.3633 3.07389 61.236 2.80775L61.2128 2.69204L61.2591 2.76147C61.3227 2.76725 61.3835 2.77593 61.4442 2.78461C61.505 2.79329 61.5658 2.80197 61.6294 2.80775ZM62.2171 9.27472C62.2356 9.31416 62.2557 9.35709 62.2774 9.39186C62.2554 9.44201 62.2335 9.49386 62.2113 9.54625L62.2112 9.54647L62.2111 9.5467C62.1515 9.6876 62.0902 9.83244 62.0228 9.95886C61.965 10.063 61.9303 9.98201 61.9303 9.78529C61.9418 9.48444 61.9997 9.22987 62.1385 9.16044C62.1602 9.15321 62.1864 9.20915 62.2171 9.27472ZM64.1056 9.28772L64.1519 9.21829H64.1635L64.1288 9.33401L64.0709 9.40344L64.1056 9.28772ZM65.0314 9.36872L65.0777 9.26458L65.043 9.39186L65.0322 9.45282L65.0322 9.45314L65.032 9.45415C65.0008 9.63193 64.9687 9.81509 64.9272 9.97043C64.9041 10.0746 64.8231 10.2481 64.7999 10.225C64.6776 10.0805 64.7583 9.90384 64.8162 9.77732L64.8231 9.76215C64.8638 9.65635 64.9159 9.56772 64.9674 9.48017C64.9892 9.44323 65.0108 9.40649 65.0314 9.36872ZM65.7025 9.19515C65.7604 9.13729 65.8067 9.22987 65.7835 9.36872H65.7951C65.7719 9.47286 65.7257 9.57701 65.6794 9.62329C65.6099 9.68115 65.5868 9.58858 65.5868 9.43815C65.5957 9.41739 65.6046 9.39436 65.6137 9.3708L65.6138 9.3705L65.6139 9.37007C65.6403 9.30189 65.6682 9.22945 65.7025 9.19515ZM69.6021 6.29074C69.6021 6.33702 69.5326 6.39488 69.5326 6.39488C69.4516 6.38331 69.4285 6.29074 69.4517 6.12874C69.4632 6.08245 69.4979 6.03617 69.5211 6.03617C69.6021 6.02459 69.6252 6.12874 69.6021 6.29074ZM69.7132 8.47465C69.7488 8.37616 69.7856 8.27429 69.8219 8.1653C69.9376 9.17587 69.8142 9.71201 69.4517 9.77372C69.4424 9.22498 69.5676 8.87808 69.7132 8.47465ZM70.9096 10.1556C70.9675 9.97043 71.0485 9.92415 71.1295 10.0746C71.1989 10.2019 71.2336 10.3754 71.1989 10.5953C71.1295 10.8036 71.0485 10.792 70.979 10.6531C70.9096 10.5374 70.8518 10.3639 70.9096 10.1556ZM73.6058 10.468C73.6752 10.3986 73.7099 10.4796 73.7099 10.63C73.6521 10.8846 73.5595 10.9887 73.4322 10.9656C73.3512 10.954 73.3281 10.8383 73.3859 10.7457C73.4553 10.63 73.5248 10.5374 73.6058 10.468ZM75.7233 10.3407C75.7927 10.2597 75.839 10.3291 75.839 10.6763V10.6879C75.829 10.7012 75.8161 10.7223 75.8008 10.7472L75.8008 10.7473C75.7632 10.8086 75.7115 10.8931 75.6539 10.9424C75.5613 11.0119 75.4572 10.9309 75.5035 10.6647C75.5214 10.5478 75.5954 10.4728 75.6655 10.4017L75.6655 10.4016C75.6856 10.3813 75.7053 10.3613 75.7233 10.3407ZM78.216 10.5827C78.2219 10.6399 78.2277 10.6951 78.2343 10.7457H78.2459C78.2227 11.0466 78.1533 11.1739 78.0608 11.1507C77.8756 11.1044 77.8409 10.7804 77.8524 10.4217C77.864 10.1556 77.8987 9.83158 78.0492 9.95886C78.1616 10.0619 78.1906 10.3395 78.216 10.5827ZM81.2891 11.6552L81.2429 11.683L81.2891 11.764V11.6552ZM81.4293 10.4342C81.4044 10.4647 81.3815 10.4953 81.3586 10.5258C81.3326 10.5606 81.3065 10.5953 81.2776 10.63L81.2429 10.7573L81.2891 10.6647C81.3022 10.6211 81.3301 10.6202 81.3579 10.6193C81.4029 10.6179 81.4476 10.6165 81.4293 10.4342ZM81.9834 10.8961L82.0413 10.8499V10.9424L81.9834 10.8961ZM82.6064 3.8611C82.579 3.86258 82.5518 3.86405 82.5389 3.90703L82.481 3.9996L82.5273 3.88389C82.5504 3.84339 82.5765 3.80578 82.6025 3.76818C82.6285 3.73057 82.6546 3.69296 82.6777 3.65246C82.6995 3.8561 82.6528 3.85861 82.6064 3.8611ZM82.5736 9.73901C82.5736 9.70429 82.7009 9.65801 82.724 9.71586C82.8816 10.0747 82.867 10.4865 82.8505 10.9512V10.9515V10.9518C82.8452 11.1013 82.8397 11.2564 82.8397 11.4169C82.5504 10.9077 82.5042 10.3523 82.5736 9.73901ZM84.2474 9.7122C84.5389 9.65921 84.7795 9.61547 85.0151 9.86629C84.9375 9.90024 84.8599 9.95147 84.7808 10.0037C84.4825 10.2006 84.163 10.4115 83.7423 9.76215C83.9289 9.77009 84.0951 9.73988 84.2474 9.7122ZM85.7557 6.51059C85.802 6.39488 85.8598 6.41802 85.8946 6.55688C85.8946 6.5787 85.8894 6.60825 85.884 6.63944L85.884 6.63956L85.8839 6.63971C85.8779 6.67459 85.8714 6.71152 85.8714 6.74202C85.8136 6.83459 85.7673 6.82302 85.7326 6.68416C85.7326 6.64945 85.7441 6.54531 85.7557 6.51059ZM87.4104 10.1093C87.4683 10.144 87.584 10.2366 87.584 10.2366V10.2481C87.5133 10.4209 87.4853 10.3273 87.4565 10.2311C87.4428 10.1856 87.429 10.1395 87.4104 10.1209C87.1443 10.5404 87.1769 11.1772 87.212 11.8632C87.2166 11.9528 87.2213 12.0433 87.2253 12.1343C86.8203 11.8913 86.8203 11.3359 86.9244 10.8267C86.9383 10.7571 86.9509 10.6745 86.964 10.5881C87.0273 10.172 87.1038 9.66851 87.4104 10.1093ZM88.151 10.3639C88.1625 10.3639 88.1741 10.5027 88.1741 10.5027H88.1857C88.177 10.5202 88.1699 10.5426 88.1632 10.5637C88.1522 10.5986 88.1422 10.63 88.1278 10.63C88.0468 10.6531 88.0352 10.5721 88.0815 10.4217C88.0931 10.3754 88.1278 10.3639 88.151 10.3639ZM91.31 7.54044C91.2868 7.5173 91.2637 7.40159 91.2637 7.40159C91.2752 7.21645 91.3216 7.20487 91.3678 7.3553C91.3794 7.38995 91.3794 7.45917 91.3794 7.51696V7.5173C91.3728 7.52061 91.3662 7.5258 91.3595 7.531C91.343 7.54399 91.3265 7.55697 91.31 7.54044ZM89.4932 10.6069C89.8288 10.306 90.0603 10.1671 90.2454 10.6763C90.257 10.7341 90.2338 10.9771 90.1991 11.0234C89.9712 11.349 89.7942 11.0741 89.544 10.6854L89.4932 10.6069ZM91.6455 12.4467L91.6803 12.574L91.634 12.4814C91.5981 12.4599 91.5611 12.4428 91.524 12.4257C91.4415 12.3876 91.3587 12.3494 91.2868 12.2616C91.1595 12.1227 91.1248 11.8103 91.2058 11.5673C91.31 11.2549 91.4257 11.4631 91.4951 11.6946C91.5466 11.8577 91.579 12.0526 91.6112 12.2464C91.6224 12.3138 91.6336 12.381 91.6455 12.4467ZM92.0158 3.88389C92.0621 3.95332 92.1084 4.05746 92.1431 4.13846L92.1315 4.12689C92.1176 4.13731 92.1027 4.1519 92.0876 4.1666C92.0526 4.20085 92.017 4.23565 91.9927 4.21946C91.9464 4.19632 91.8885 4.06903 91.8885 3.98803C91.8885 3.8376 91.9464 3.79132 92.0158 3.88389ZM92.5365 11.0697C92.6638 10.8614 92.8027 10.8614 92.9415 11.035H92.9299C92.8258 11.2664 92.7101 11.4863 92.5597 11.3937C92.5018 11.359 92.4787 11.1623 92.5365 11.0697ZM92.5944 9.66958C92.6407 9.22987 92.7795 9.02158 93.0457 8.87115C93.0342 8.93693 93.0237 9.00006 93.0136 9.06025C92.9422 9.48714 92.8955 9.76644 92.7333 9.79686C92.687 9.80843 92.5944 9.69272 92.5944 9.66958ZM93.6821 12.088C93.6937 12.0649 93.7515 12.1111 93.7515 12.1111C93.7593 12.142 93.7567 12.1831 93.7541 12.2243C93.7534 12.235 93.7528 12.2457 93.7523 12.2562C93.7518 12.2659 93.7515 12.2754 93.7515 12.2847C93.7438 12.2924 93.7348 12.304 93.7258 12.3156C93.7078 12.3387 93.6898 12.3618 93.6821 12.3541C93.6127 12.2963 93.6127 12.1921 93.6821 12.088ZM95.7649 13.7543L95.7881 13.8353L95.7997 13.8468H95.7418L95.7649 13.7543ZM95.4988 12.6666C95.5682 11.7524 95.7765 11.1854 96.3319 11.1276C96.2282 11.3039 96.1255 11.4493 96.0287 11.5862C95.8018 11.9074 95.6077 12.182 95.5104 12.7013L95.4641 12.7707L95.4988 12.6666ZM97.1882 14.3212C97.2114 14.1592 97.2808 13.9857 97.3502 13.9047V13.9162C97.4567 13.7884 97.4848 13.994 97.5067 14.1538L97.5122 14.194C97.5007 14.4948 97.4659 14.7494 97.3155 14.7262C97.2229 14.7031 97.1651 14.518 97.1882 14.3212ZM99.1207 4.75172C99.1207 4.75172 98.9818 4.77486 98.9587 4.85586C98.8893 5.08729 98.9818 5.20301 99.0512 5.27243C99.1322 5.34186 99.2248 5.36501 99.2711 5.16829C99.3058 4.83272 99.2017 4.78644 99.1091 4.76329L99.1207 4.75172ZM98.8892 10.9656C98.7851 10.8614 98.8082 10.6531 98.8429 10.4796C98.8776 10.306 98.9355 10.1209 99.028 10.2481C99.0628 10.2944 99.0628 10.4796 99.0628 10.5953C99.0512 10.8036 98.9933 10.9656 98.8892 10.9656Z" fill="#F5F5CE"/>
</svg>
