<svg width="61" height="105" viewBox="0 0 61 105" fill="none" xmlns="http://www.w3.org/2000/svg">
<g filter="url(#filter0_d_6538_1252)">
<path d="M23.3145 70.1746C22.9479 69.9598 22.3033 69.707 22.4676 69.4794C22.6319 69.2519 22.6319 68.9486 22.7457 68.6958C22.8468 68.4682 22.9985 68.2534 23.1375 68.0258C22.733 67.7604 22.2401 67.7351 21.8988 67.4191C21.608 67.1537 21.5448 66.9261 21.7724 66.9388C22.7962 66.9767 22.5813 66.3068 23.2513 66.1551C23.049 66.0034 22.8468 65.8517 22.872 65.7506C22.872 65.738 23.0743 65.7885 23.1249 65.8138C23.3903 65.9908 23.3524 66.0666 23.3524 66.1677C23.542 66.2815 23.858 66.5596 23.9085 66.4079C23.9844 66.193 23.2765 65.7759 22.9984 65.4725C22.6698 65.106 23.2133 65.3461 23.6305 65.561L23.7442 65.6495L23.6684 65.5737C23.7189 65.4725 23.8201 65.4093 24.1866 65.5357L24.2751 65.6242L24.2119 65.5484C24.2624 64.9417 24.2245 64.3097 23.681 63.4754C23.4661 63.1468 23.4788 62.9445 23.6684 62.8055C23.8706 62.6538 24.2372 62.717 24.8439 63.1973C24.9956 63.3111 25.1473 63.5512 25.4127 63.526C25.5265 63.5133 25.4127 63.2479 25.3874 63.2352C24.3257 62.7549 24.8692 62.578 24.3509 62.1988C24.0729 61.9965 23.9212 61.7816 24.1993 61.7943C24.9703 61.8322 24.8692 61.3898 25.1725 61.1623C25.261 61.0991 25.438 61.1117 25.7034 61.1876C25.8046 61.2634 25.6023 61.276 25.9057 61.4024C25.8425 61.3392 25.7919 61.2634 25.7287 61.2002C25.9815 61.1749 25.9689 61.0359 25.7666 60.7957C25.5138 60.4923 25.4127 60.2522 26.1332 60.4797C26.247 60.5935 26.3607 60.6946 26.4745 60.8083L26.563 60.8842L26.5124 60.821C26.3986 60.7072 26.2849 60.6061 26.1711 60.4923C25.9815 60.2395 25.8551 60.012 26.3607 60.1005C26.7905 60.1763 27.3087 60.2901 27.5742 60.2522C28.105 60.1637 27.5994 60.0499 27.195 59.9741C27.0686 59.8351 26.8158 59.6202 26.8537 59.5696C27.0307 59.3547 27.195 59.1146 27.5742 59.0261C27.9786 58.925 28.4337 59.5191 28.9267 59.6707C28.9014 59.4685 28.5095 59.241 28.1682 59.0135C27.8522 58.7986 27.6374 58.5837 27.8143 58.5458C28.6612 58.3309 28.0924 57.4587 28.1809 56.9026C28.2315 56.6498 27.8775 56.2074 28.2567 56.1062C28.5095 56.0304 28.3831 55.8408 27.9786 55.5121C27.5362 55.1582 26.6893 54.5641 28.1682 55.1329C28.3705 55.2088 28.3199 55.0824 28.1556 54.9433C27.4478 54.3745 27.5742 54.0712 27.3466 53.6541C26.9042 52.8451 26.9422 52.8577 28.6486 53.692C28.5348 53.2749 28.7497 52.9841 27.7638 52.2763C27.4983 52.0867 27.4983 51.8971 27.9155 52.0361C29.0151 52.4027 28.5348 51.8212 28.3326 51.5937C27.7764 50.9996 28.7244 51.2145 28.6739 50.9112C28.6486 50.7089 29.2427 51.126 29.4828 51.1766C30.178 51.3409 29.862 51.0755 29.3438 50.7595C29.1163 50.7342 28.9393 50.6457 28.8382 50.4814C28.8129 50.4561 28.7876 50.4308 28.7623 50.4056H28.8255C28.8635 50.4308 28.8887 50.4561 28.914 50.494C29.0151 50.532 29.1036 50.5699 29.2047 50.6078C29.3438 50.4688 29.3185 50.2792 29.1289 50.0011C29.091 49.9632 29.0152 49.9126 29.0278 49.9126C29.0657 49.8873 29.1289 49.9252 29.1795 50.0137C29.546 50.1148 29.9126 50.2286 29.4449 49.8241C29.0025 49.4449 28.6107 49.0404 29.5713 49.3059L29.6598 49.3817L29.6092 49.3185C29.0404 48.5727 29.3943 48.1809 28.914 47.4604C28.6991 47.1318 28.9014 47.1318 29.8241 47.3719C30.178 47.4604 30.1148 47.3214 30.0643 47.2582C29.5839 46.6262 29.3059 46.1079 30.2412 46.1332C30.3171 46.1332 30.3929 46.0826 30.355 46.0574C28.9014 44.9703 29.9252 44.8566 29.8494 44.3257C29.8115 44.0982 29.7356 43.7316 30.81 44.1993C31.3156 44.4142 31.0375 44.1993 30.8985 44.0476C30.3297 43.5041 30.494 43.2513 30.5572 42.9353C30.7721 41.9241 31.1513 41.0013 31.6316 40.1165C31.8339 39.7247 31.5558 39.0927 32.4912 39.0927C32.5544 39.08 32.8451 39.2696 32.7945 39.1432C32.6808 39.118 32.5797 39.0927 32.4659 39.0674C31.7581 38.132 32.4659 37.8413 32.9083 37.4748C33.3886 37.0829 33.4518 36.5141 33.7804 36.0717C34.147 35.5787 34.0838 34.8835 34.7158 34.517C35.0318 34.34 35.3984 34.0998 34.9307 33.5184C34.6021 33.1013 35.2341 33.3035 35.6765 33.392C35.4742 33.2403 35.272 33.076 35.2973 32.9749C35.2973 32.9622 35.4995 33.0128 35.5754 33.0507C35.8787 33.2277 35.8408 33.3288 35.866 33.4299C36.5992 33.3667 35.6259 32.583 35.7144 32.2165C35.7776 31.9257 35.4616 31.3822 35.9672 31.3822C36.5992 31.3822 35.4742 30.5733 36.3085 30.7249L36.3969 30.8008L36.3338 30.7249C36.5613 30.5101 36.4854 30.1688 36.4475 29.8401C36.3843 29.1702 36.5107 28.5635 36.8899 28.0832C37.3197 27.5523 37.9896 27.1352 37.4081 26.1239C37.3197 25.9596 37.2185 25.77 37.3323 25.7195C38.4573 25.2139 38.0907 23.9625 38.7101 23.2041C39.0008 22.8375 38.925 22.2814 39.3926 22.0033H39.4811L39.3673 21.978C39.1398 21.8137 38.9629 21.6114 39.1019 21.5862C40.05 21.4092 39.8098 20.6002 40.2901 20.1831C40.9853 19.589 41.1243 18.7295 41.5162 18.009C41.8701 17.377 42.401 16.7703 42.1229 15.8096C42.0724 15.6453 42.0976 15.4684 42.3125 15.4431C43.2858 15.3546 42.8813 14.5456 43.2858 14.1664C43.6903 13.7872 43.703 13.1931 44.0948 12.8013C44.3855 12.5106 43.3743 11.4614 45.245 12.0808C45.422 12.1314 45.2071 11.9544 45.106 11.8407C44.3729 11.0443 44.3728 11.0443 45.2955 11.0064C45.3714 11.0064 45.4978 11.0443 45.4346 10.9558C44.4866 9.71712 45.2071 9.21152 45.6115 8.57951C45.9275 8.07391 46.0666 7.45455 46.9009 7.2523C48.6325 6.83518 49.176 5.77341 49.8712 4.77484C50.0229 4.55996 50.1873 4.37036 50.6423 4.34508C51.78 4.2566 52.2855 3.80156 52.7279 3.30859C53.1703 2.81563 53.9034 2.47435 54.0551 1.85499C54.1562 1.43786 54.2068 0.982818 54.2194 0.515135C54.2194 -0.041029 55.1675 -0.167431 56.5326 0.237051C57.4048 0.502493 57.9104 0.957538 58.0494 1.2609C58.4918 2.17099 59.1365 3.18219 58.4286 3.59931C57.9356 3.89004 57.6449 4.28188 57.3921 4.68636C56.9244 5.45741 56.5579 6.27902 56.0017 6.9995C55.5467 7.58094 55.6352 8.41519 55.4456 9.11039C55.2054 10.0205 54.9147 10.9053 54.8136 11.8659C54.6492 13.408 53.6001 14.5077 53.1956 15.936C52.7153 17.6298 52.3613 19.3741 51.6156 20.9415C51.1353 21.9527 50.3895 22.8502 50.5412 24.1774C50.5412 24.2532 50.5033 24.3164 50.4654 24.367C49.3783 25.9091 49.1255 27.8809 48.1017 29.4609C47.5582 30.3078 47.2801 31.319 47.2169 32.4061C47.2169 32.4566 47.2168 32.5198 47.1916 32.5451C46.3194 33.3541 46.5343 34.6813 46.0034 35.6546C45.3208 36.9059 44.6636 38.17 44.5498 39.6994C44.5245 40.0407 44.1959 40.2429 44.019 40.5084C43.3743 41.4817 43.21 42.6825 42.8308 43.7822C42.262 45.4001 41.3518 46.841 40.7198 48.4211C40.151 49.8241 39.5696 51.2145 38.3688 52.2889C38.116 52.5165 38.2297 52.9336 38.0401 53.199C37.3576 54.1091 36.991 55.1835 36.2958 56.0936C35.8029 56.7382 35.2214 57.3576 34.9939 58.1286C34.3366 60.3659 32.4532 61.9839 31.8592 64.2338C31.4294 65.8517 30.2033 67.0652 30.0011 68.7969C29.9126 69.6185 29.2553 70.1746 28.8129 70.8193C28.7371 70.9331 28.4716 70.9457 28.2694 70.9836C27.9407 71.0595 27.4857 70.8446 27.1823 70.5159C26.7905 70.0988 26.4113 69.707 25.5391 69.3404L25.4254 69.2519L25.5139 69.3404C25.5139 69.3404 25.4886 69.3783 25.5012 69.4036C25.6023 69.846 24.7175 69.1634 24.49 69.1634C23.9591 69.1634 25.0462 69.7196 24.945 69.8713C24.945 69.8839 24.8945 69.9092 24.8565 69.8966C23.6052 69.4542 23.681 69.8334 23.7695 70.2378C23.7948 70.3643 23.542 70.339 23.2513 70.1746H23.3145ZM51.2111 4.92653H51.287L51.1985 4.87597V4.92653H51.2111ZM47.634 7.60622L47.6087 7.54303H47.5455L47.634 7.60622ZM47.3685 8.14975C47.3685 8.14975 47.3559 8.09919 47.3432 8.07391C47.3053 8.07391 47.2674 8.07391 47.2169 8.06127C47.2169 8.07391 47.1663 8.08654 47.1916 8.11182C47.2548 8.18766 47.3306 8.21295 47.3685 8.14975ZM46.9388 8.68063H47.0147L46.9262 8.63007V8.68063H46.9388ZM46.1425 9.3632L46.2815 9.40111C46.2815 9.40111 46.6607 9.51488 46.4458 9.32528C46.3826 9.33792 46.3194 9.36319 46.2562 9.37583H46.1425V9.3632ZM46.1172 10.0584C46.1172 10.0584 46.2309 10.0584 46.2815 10.0458C46.2815 9.9952 46.2688 9.94464 46.2562 9.89408C46.2056 9.89408 46.1172 9.89408 46.1045 9.91936C46.0792 9.95728 46.1045 10.0078 46.1172 10.0584ZM32.4659 44.0223V43.9718H32.3774L32.4659 44.0223ZM31.0249 46.7652C31.1766 46.841 31.2651 46.8537 31.2524 46.7905C31.2524 46.7778 31.1766 46.7273 31.1387 46.6894C30.987 46.6135 30.8985 46.6009 30.8985 46.6641C30.8985 46.6767 30.9744 46.7399 31.0249 46.7652ZM30.7342 51.796L30.7721 51.7707L30.6331 51.7201L30.7342 51.796ZM34.1723 54.2734C34.1723 54.2734 34.2355 54.3366 34.2734 54.3745C34.324 54.3998 34.3872 54.4251 34.4378 54.4377C34.4251 54.4125 34.4251 54.3872 34.3872 54.3493C34.2734 54.2481 34.1849 54.2102 34.1723 54.2734ZM30.5572 52.5796C30.5572 52.5796 30.6836 52.6302 30.7216 52.6302C30.8606 52.6555 30.8353 52.6049 30.671 52.5291C30.6331 52.5038 30.5825 52.5164 30.5319 52.5038C30.5319 52.5291 30.5446 52.5544 30.5572 52.5796ZM29.4828 52.4912H29.5713L29.4828 52.4406V52.4912ZM30.9112 54.6147V54.5641H30.8227L30.9112 54.6147ZM28.4084 53.9827C28.4084 53.9827 28.3199 53.8563 28.2315 53.7931C28.1177 53.692 27.966 53.6414 27.966 53.692C27.966 53.7299 28.0671 53.8184 28.1303 53.8816C28.2567 53.9827 28.3958 54.0333 28.4084 53.9827ZM29.9505 59.0261C30.1275 59.1019 30.178 59.0893 30.0643 58.9882C29.9884 58.925 29.8873 58.8365 29.7862 58.7859C29.6218 58.6975 29.5587 58.7227 29.6598 58.8239C29.723 58.8871 29.8494 58.9629 29.9379 59.0261H29.9505ZM27.4604 61.4403C27.4604 61.4403 27.5742 61.4783 27.6247 61.4909C27.6374 61.4909 27.6879 61.4656 27.6753 61.453C27.6374 61.4277 27.5615 61.3772 27.5236 61.3645C27.3719 61.3266 27.3466 61.3645 27.4604 61.4403ZM26.9675 61.7311L26.9927 61.7058L26.8663 61.6552L26.9675 61.7311ZM25.2105 68.6705C25.2105 68.6705 25.1599 68.5567 25.1094 68.5062C25.0335 68.4177 24.8945 68.3545 24.8565 68.3924C24.8313 68.4177 24.8945 68.4935 24.945 68.5567C25.0209 68.6452 25.122 68.6958 25.2105 68.6831V68.6705Z" fill="#091818"/>
<path d="M22.8089 70.2757C22.8089 70.1872 22.6699 70.0861 22.4677 70.0103C22.3792 69.9723 22.2654 69.985 22.2528 70.0103C22.2275 70.0861 22.3792 70.1999 22.5814 70.2757C22.6699 70.3136 22.7331 70.2757 22.7963 70.2757H22.8089Z" fill="#091818"/>
<path d="M23.1754 64.98C23.1754 64.98 23.1249 64.98 23.0996 64.9926C23.1375 65.0179 23.2007 65.0685 23.2134 65.0685C23.2513 65.0685 23.2639 65.0685 23.2892 65.0685C23.2513 65.0432 23.2134 65.0179 23.1754 64.9926V64.98Z" fill="#091818"/>
<path d="M14.959 89.5012C14.5545 89.6276 13.9099 89.8678 13.9352 89.7793C13.9478 89.6909 13.7961 89.6656 13.7582 89.615C13.7203 89.5645 13.7203 89.4886 13.695 89.4128C13.2653 89.6403 12.8987 89.8931 12.4942 90.0953C12.1529 90.2723 12.0139 90.3481 12.1908 90.2217C12.9619 89.6656 12.4816 89.8805 12.8608 89.4886C12.6585 89.6403 12.4689 89.792 12.4436 89.792C12.4436 89.792 12.5827 89.6529 12.6333 89.615C12.8734 89.4128 12.886 89.4254 12.9366 89.4128C13.1136 89.2737 13.4422 89.0462 13.3916 89.0209C13.3284 88.9956 12.6964 89.5265 12.4057 89.7541C12.0518 90.0448 12.4942 89.6403 12.8229 89.3117L12.924 89.2232L12.8481 89.2864C12.8481 89.2864 12.8481 89.2105 13.1135 88.9324L13.202 88.8566L13.1262 88.9198C12.8608 88.983 12.5574 89.1094 11.9633 89.7667C11.7358 90.0195 11.6726 90.0827 11.7105 89.9816C11.7611 89.8678 11.938 89.5518 12.3678 88.9451C12.4815 88.7934 12.6459 88.6038 12.7344 88.4016C12.7723 88.3131 12.608 88.4648 12.5953 88.49C11.976 89.476 12.1276 89.0841 11.7864 89.6277C11.6094 89.9057 11.483 90.108 11.5968 89.8805C11.9001 89.2358 11.6979 89.4633 11.7232 89.2864C11.7232 89.2358 11.7864 89.0841 11.8748 88.8313C11.938 88.7176 11.8748 88.8819 12.0139 88.5785L11.8875 88.806C11.938 88.6038 11.8875 88.6544 11.7611 88.9072C11.5968 89.2358 11.5083 89.4128 11.7358 88.7049L11.9254 88.3004L11.9759 88.1867L11.938 88.2499L11.7484 88.667C11.622 88.9198 11.5335 89.1221 11.6599 88.6291C11.7611 88.2246 11.8875 87.719 11.9001 87.4915C11.9254 87.0491 11.8243 87.542 11.7484 87.9339C11.6852 88.0856 11.5715 88.4016 11.5588 88.3889C11.5083 88.3131 11.4577 88.2499 11.4577 87.9465C11.4577 87.6179 11.6852 86.9732 11.7611 86.4803C11.6726 86.5687 11.5715 87.0238 11.483 87.4156C11.3945 87.7822 11.3187 88.0603 11.306 87.9212C11.2555 87.2387 10.9648 88.0982 10.851 88.2752C10.7878 88.351 10.7246 88.8566 10.674 88.5659C10.6361 88.3636 10.5982 88.5659 10.5982 89.0841C10.5855 89.6403 10.6235 90.6641 10.5223 89.0841C10.5097 88.8693 10.4971 88.983 10.4971 89.1852C10.5224 90.0701 10.4971 90.0953 10.5223 90.4745C10.5982 91.2329 10.6235 91.195 10.2948 89.3117C10.2948 89.6024 10.2316 89.5644 10.4971 90.7147C10.5729 91.0307 10.5855 91.1065 10.4718 90.6768C10.1684 89.5771 10.3201 90.247 10.4086 90.5251C10.6488 91.2456 10.3328 90.3608 10.3833 90.5251C10.4212 90.6262 10.1558 89.9689 10.0673 89.7541C9.78924 89.1221 9.91562 89.4886 10.1684 90.0574C10.2569 90.2597 10.3327 90.4366 10.3959 90.5757C10.4086 90.6136 10.4212 90.6389 10.4339 90.6768L10.4086 90.6136C10.4086 90.6136 10.3707 90.5377 10.358 90.4998L10.2316 90.2217C10.2316 90.2217 10.2316 90.2723 10.358 90.5377C10.3833 90.5757 10.4212 90.6515 10.4212 90.6515C10.4086 90.6262 10.3707 90.563 10.3328 90.4872C10.1684 90.1585 9.97883 89.8299 10.2569 90.3608C10.3201 90.4745 10.3833 90.5883 10.4212 90.6768V90.6641C10.4086 90.6389 10.4086 90.6389 10.3074 90.4745L10.2443 90.3734L10.2822 90.4366C10.4339 90.6768 10.396 90.6136 10.3833 90.6136V90.5883C10.3833 90.5883 10.3454 90.563 10.3201 90.5377C10.3454 90.563 10.3833 90.5883 10.4339 90.6389C10.4339 90.6389 10.4339 90.6389 10.4718 90.6641H10.4844C10.535 90.6894 10.535 90.6894 10.535 90.6894C10.5982 90.7273 10.6614 90.7526 10.7246 90.7526C10.8004 90.7779 10.8889 90.8032 10.9521 90.8032C11.0279 90.8158 11.1038 90.8285 11.167 90.8285H11.1796C11.2555 90.8285 11.3566 90.8285 11.4198 90.8285C11.4956 90.8285 11.5589 90.8285 11.6094 90.8032C11.66 90.8032 11.6852 90.7905 11.7105 90.7779C11.5588 90.8411 11.5336 90.8537 11.5588 90.8411C11.5588 90.8411 11.7484 90.7526 11.6979 90.7779L11.6599 90.7905C11.6473 90.7905 11.6473 90.7905 11.5968 90.8285C11.5462 90.8537 11.5968 90.8285 11.5209 90.8664C11.4956 90.8917 11.4704 90.9043 11.4324 90.9296C11.3692 90.9675 11.2934 91.0433 11.2302 91.1065C11.1543 91.1824 11.0785 91.2709 11.0279 91.3341C11.0153 91.3593 11.0027 91.3593 11.0027 91.372C10.9395 91.4605 10.8889 91.5742 10.8763 91.5869C10.8763 91.5616 10.8763 91.5363 10.8763 91.511C10.8763 91.4857 10.8763 91.2961 10.8383 91.2203C10.8257 91.0686 10.7752 90.9801 10.7372 90.8411C10.7246 90.8032 10.7372 90.8158 10.7119 90.7779C10.5855 90.5251 10.6361 90.6136 10.5982 90.5377C10.535 90.4493 10.535 90.4493 10.4844 90.3608C10.4591 90.3229 10.4339 90.2849 10.4086 90.2723C10.4086 90.2723 10.4086 90.2597 10.3833 90.2344C10.3833 90.2344 10.3833 90.2344 10.4086 90.2597C10.4339 90.2849 10.4971 90.3229 10.5476 90.3608C10.674 90.4366 10.851 90.5377 11.0659 90.6009C11.0785 90.6009 11.1038 90.6009 11.1796 90.6389C11.2428 90.6515 11.2934 90.6641 11.3313 90.6768C11.4957 90.7147 11.622 90.7273 11.7232 90.74C11.9381 90.7653 12.0265 90.7653 12.1276 90.74C12.3046 90.74 12.8228 90.6641 12.6585 90.6136C12.5574 90.5883 12.4183 90.563 12.2035 90.6009C11.9507 90.6389 12.7217 90.4493 14.0363 89.931C14.8705 89.6024 15.5152 89.438 15.7806 89.4507C16.6022 89.4254 17.7272 89.5897 17.3101 90.0321C17.032 90.3102 16.9561 90.5504 16.9182 90.7779C16.8297 91.195 16.8297 91.6248 16.5517 91.9661C16.3494 92.2315 16.6654 92.636 16.6781 93.0152C16.6781 93.4702 16.6149 93.9253 16.6528 94.4688C16.7034 95.3915 15.8565 95.6443 15.5025 96.3269C15.0475 97.1232 14.4534 98.0712 13.4422 98.4631C12.7723 98.7159 12.0771 98.6021 11.3692 99.3858C11.3313 99.4364 11.2681 99.4237 11.2302 99.4111C10.5476 99.2847 9.89036 99.3479 9.19515 99.2847C8.49995 99.2594 7.77945 99.0951 7.21065 98.6906C6.60393 98.2482 5.93401 98.0207 5.08712 97.8563C5.0492 97.8563 4.99862 97.8563 4.98598 97.8184C4.8343 97.3887 4.50567 97.1864 4.16438 96.9715C3.81046 96.7693 3.4186 96.5544 3.24164 96.2131C2.73604 95.341 2.39476 94.5067 1.54788 93.7104C1.35828 93.5208 1.49733 93.2427 1.48469 93.0152C1.44677 92.1936 0.979088 91.4099 0.852687 90.4998C0.675726 89.1347 1.15605 87.7064 1.72486 86.2654C2.19254 84.9761 3.15317 83.6742 4.63206 83.2444C4.93542 83.1686 5.01129 82.7641 5.28937 82.6377C6.25002 82.2458 7.09689 81.7402 8.0449 81.677C8.70218 81.677 9.35944 81.7782 9.91561 81.6012C10.7625 81.3105 11.6094 81.5001 12.3804 81.7655C13.1641 82.0183 13.8593 82.3596 14.7189 82.4734C15.9955 82.6756 16.7413 83.8006 18.1191 84.382C18.8016 84.7107 18.9912 85.4943 19.2567 86.1769C19.3072 86.2907 19.1555 86.5182 19.0671 86.6825C18.928 86.9732 18.4729 87.1881 18.0558 87.2766C17.4997 87.3904 16.9941 87.5547 16.1977 88.0476L16.0714 88.0982L16.1851 88.0603C16.1851 88.0603 16.1851 88.0856 16.2104 88.0856C16.5643 88.1235 15.5278 88.528 15.3761 88.667C14.9969 88.9704 16.1093 88.4268 16.1219 88.528C16.1219 88.528 16.1093 88.5659 16.0714 88.5912C14.9085 89.2105 15.1613 89.1979 15.452 89.2485C15.5405 89.2611 15.3382 89.3749 15.0222 89.476L14.959 89.5012ZM11.4198 90.7526H11.483H11.3819H11.4198ZM10.0799 90.4872H10.1052L10.1684 90.5251L10.0799 90.4872ZM10.1937 90.424C10.0673 90.3102 10.0041 90.247 10.0294 90.2723C10.0294 90.2723 10.1052 90.3355 10.1432 90.3734C10.2696 90.4872 10.3327 90.5377 10.3074 90.5251C10.3074 90.5251 10.2316 90.4619 10.1937 90.424ZM9.56169 88.5027V88.4774L9.59961 88.6164L9.56169 88.5027ZM8.37352 84.4958C8.37352 84.4958 8.37354 84.4073 8.3609 84.3694L8.29768 84.2051C8.29768 84.2051 8.29768 84.2556 8.29768 84.2935C8.32296 84.4326 8.36089 84.5211 8.38617 84.5084L8.37352 84.4958ZM9.67544 88.2625C9.67544 88.2625 9.6249 88.1361 9.61226 88.0982C9.5617 87.9718 9.56171 88.0097 9.62491 88.1993L9.67544 88.3257V88.2752V88.2625ZM10.042 89.1979L10.0168 89.1221L10.042 89.2232V89.1852V89.1979ZM9.85242 86.948V86.9732L9.86508 87.0364V86.9353L9.85242 86.948ZM10.3833 89.4128C10.3833 89.4128 10.3833 89.5518 10.4086 89.6529C10.4212 89.792 10.4465 89.9437 10.4465 89.931C10.4465 89.9184 10.4339 89.7793 10.4212 89.7035C10.4086 89.5392 10.3833 89.4001 10.3833 89.4128ZM11.5083 85.823C11.5336 85.6334 11.5209 85.5828 11.483 85.7345C11.4577 85.823 11.4324 85.9494 11.4198 86.0631C11.3945 86.2527 11.4072 86.2907 11.4451 86.1643C11.4577 86.0758 11.4956 85.9367 11.5209 85.823H11.5083ZM12.4184 87.2387C12.4184 87.2387 12.4563 87.1249 12.4689 87.0744C12.4689 87.0744 12.4689 87.0238 12.4689 87.0491C12.4437 87.087 12.4057 87.1755 12.4057 87.2134C12.3551 87.3651 12.3678 87.3777 12.431 87.2387H12.4184ZM15.4773 88.1993C15.4773 88.1993 15.3762 88.2246 15.313 88.2499C15.2118 88.2878 15.0854 88.3763 15.0728 88.4016C15.0728 88.4268 15.1613 88.3889 15.2245 88.3636C15.3382 88.3257 15.4267 88.2625 15.4773 88.212V88.1993Z" fill="#091818"/>
<path d="M14.6051 89.7417C14.6051 89.7417 14.3902 89.767 14.188 89.8428C14.0995 89.8681 14.011 89.9187 14.0237 89.9187C14.0363 89.9313 14.2259 89.8934 14.4282 89.8302C14.5166 89.8049 14.5419 89.767 14.6051 89.7417Z" fill="#091818"/>
<path d="M12.3045 89.7667L12.2666 89.8173C12.2666 89.8173 12.3551 89.7288 12.3677 89.7288C12.393 89.7035 12.393 89.6909 12.4056 89.6782L12.3045 89.7793V89.7667Z" fill="#091818"/>
</g>
<defs>
<filter id="filter0_d_6538_1252" x="0.81543" y="0" width="59.9277" height="104.422" filterUnits="userSpaceOnUse" color-interpolation-filters="sRGB">
<feFlood flood-opacity="0" result="BackgroundImageFix"/>
<feColorMatrix in="SourceAlpha" type="matrix" values="0 0 0 0 0 0 0 0 0 0 0 0 0 0 0 0 0 0 127 0" result="hardAlpha"/>
<feOffset dx="2" dy="5"/>
<feComposite in2="hardAlpha" operator="out"/>
<feColorMatrix type="matrix" values="0 0 0 0 0.866667 0 0 0 0 0.941176 0 0 0 0 0.858824 0 0 0 1 0"/>
<feBlend mode="normal" in2="BackgroundImageFix" result="effect1_dropShadow_6538_1252"/>
<feBlend mode="normal" in="SourceGraphic" in2="effect1_dropShadow_6538_1252" result="shape"/>
</filter>
</defs>
</svg>
