<svg width="793" height="397" viewBox="0 0 793 397" fill="none" xmlns="http://www.w3.org/2000/svg">
<mask id="path-1-inside-1_6565_2251" fill="white">
<path d="M15.7998 69.682C15.5763 137.712 15.3529 205.742 15.1294 273.773C15.0416 300.352 15.0496 327.26 30.8601 353.017C33.8637 357.913 38.2081 363.181 48.6181 365.809C55.6255 367.575 64.1919 367.817 72.3832 368.001C129.243 369.27 186.106 369.986 242.971 370.149C299.736 370.312 360.908 379.337 417.233 368.738C513.563 350.61 610.815 363.715 707.506 356.974C723.112 355.887 753.23 362.305 760.496 338.024C762.307 331.969 759.852 311.198 760.253 303.777C761.147 287.258 764.01 270.514 765.582 254.077C767.258 236.547 779.06 41.315 775.894 41.4297C615.609 47.2439 456.03 47.6003 295.487 56.8154C199.836 62.3063 103.177 63.9796 6.69336 65.6499"/>
</mask>
<path d="M15.7998 69.682C15.5763 137.712 15.3529 205.742 15.1294 273.773C15.0416 300.352 15.0496 327.26 30.8601 353.017C33.8637 357.913 38.2081 363.181 48.6181 365.809C55.6255 367.575 64.1919 367.817 72.3832 368.001C129.243 369.27 186.106 369.986 242.971 370.149C299.736 370.312 360.908 379.337 417.233 368.738C513.563 350.61 610.815 363.715 707.506 356.974C723.112 355.887 753.23 362.305 760.496 338.024C762.307 331.969 759.852 311.198 760.253 303.777C761.147 287.258 764.01 270.514 765.582 254.077C767.258 236.547 779.06 41.315 775.894 41.4297C615.609 47.2439 456.03 47.6003 295.487 56.8154C199.836 62.3063 103.177 63.9796 6.69336 65.6499" fill="#F0E3DE"/>
<path d="M15.1294 273.773L15.254 273.773L15.254 273.773L15.1294 273.773ZM30.8601 353.017L30.9663 352.952L30.9663 352.952L30.8601 353.017ZM48.6181 365.809L48.5876 365.929L48.5876 365.929L48.6181 365.809ZM72.3832 368.001L72.3804 368.126L72.3804 368.126L72.3832 368.001ZM242.971 370.149L242.972 370.024L242.972 370.024L242.971 370.149ZM417.233 368.738L417.256 368.861L417.256 368.861L417.233 368.738ZM707.506 356.974L707.498 356.85L707.498 356.85L707.506 356.974ZM760.496 338.024L760.615 338.06L760.615 338.06L760.496 338.024ZM760.253 303.777L760.378 303.783L760.378 303.783L760.253 303.777ZM765.582 254.077L765.706 254.089L765.706 254.089L765.582 254.077ZM775.894 41.4297L775.889 41.3052L775.889 41.3052L775.894 41.4297ZM295.487 56.8154L295.48 56.691L295.48 56.691L295.487 56.8154ZM15.7998 69.682L15.6752 69.6816C15.5635 103.697 15.4517 137.712 15.34 171.727C15.2283 205.742 15.1165 239.757 15.0048 273.772L15.1294 273.773L15.254 273.773C15.3657 239.758 15.4774 205.743 15.5892 171.728C15.7009 137.713 15.8127 103.698 15.9244 69.6824L15.7998 69.682ZM15.1294 273.773L15.0048 273.772C14.917 300.348 14.9224 327.291 30.754 353.083L30.8601 353.017L30.9663 352.952C15.1767 327.229 15.1662 300.356 15.254 273.773L15.1294 273.773ZM30.8601 353.017L30.754 353.083C32.2595 355.537 34.105 358.09 36.8829 360.36C39.6612 362.63 43.3667 364.612 48.5876 365.929L48.6181 365.809L48.6486 365.688C43.4595 364.378 39.7878 362.412 37.0405 360.167C34.2928 357.922 32.4644 355.394 30.9663 352.952L30.8601 353.017ZM48.6181 365.809L48.5876 365.929C55.6112 367.7 64.1924 367.942 72.3804 368.126L72.3832 368.001L72.386 367.877C64.1915 367.692 55.6398 367.451 48.6486 365.688L48.6181 365.809ZM72.3832 368.001L72.3804 368.126C129.241 369.394 186.105 370.11 242.971 370.273L242.971 370.149L242.972 370.024C186.107 369.861 129.245 369.145 72.386 367.877L72.3832 368.001ZM242.971 370.149L242.971 370.273C271.352 370.355 300.825 372.652 330.263 373.604C359.695 374.555 389.08 374.162 417.256 368.861L417.233 368.738L417.21 368.616C389.061 373.913 359.698 374.306 330.271 373.355C300.851 372.403 271.355 370.106 242.972 370.024L242.971 370.149ZM417.233 368.738L417.256 368.861C465.409 359.799 513.795 358.543 562.234 358.711C610.67 358.878 659.163 360.469 707.515 357.098L707.506 356.974L707.498 356.85C659.158 360.22 610.68 358.629 562.235 358.462C513.792 358.294 465.387 359.55 417.21 368.616L417.233 368.738ZM707.506 356.974L707.515 357.098C711.41 356.827 716.209 357.024 721.346 357.093C726.479 357.163 731.942 357.105 737.147 356.32C742.352 355.535 747.306 354.023 751.416 351.178C755.529 348.332 758.791 344.157 760.615 338.06L760.496 338.024L760.376 337.989C758.568 344.032 755.34 348.16 751.275 350.973C747.207 353.788 742.294 355.292 737.11 356.074C731.926 356.855 726.48 356.914 721.35 356.844C716.224 356.775 711.406 356.577 707.498 356.85L707.506 356.974ZM760.496 338.024L760.615 338.06C761.073 336.528 761.259 334.078 761.29 331.163C761.321 328.245 761.196 324.846 761.028 321.406C760.69 314.521 760.177 307.485 760.378 303.783L760.253 303.777L760.129 303.77C759.928 307.489 760.442 314.549 760.779 321.419C760.947 324.857 761.072 328.25 761.041 331.161C761.01 334.076 760.824 336.493 760.376 337.989L760.496 338.024ZM760.253 303.777L760.378 303.783C761.272 287.266 764.132 270.541 765.706 254.089L765.582 254.077L765.458 254.065C763.887 270.486 761.023 287.251 760.129 303.77L760.253 303.777ZM765.582 254.077L765.706 254.089C766.545 245.321 769.914 192.127 772.678 141.143C774.06 115.651 775.291 90.7087 775.978 72.1469C776.322 62.8662 776.53 55.1792 776.553 49.8155C776.564 47.1341 776.53 45.0309 776.442 43.5988C776.399 42.8836 776.342 42.3311 776.27 41.9564C776.234 41.7702 776.193 41.62 776.145 41.5141C776.12 41.4614 776.091 41.4119 776.053 41.3743C776.014 41.3352 775.958 41.3027 775.889 41.3052L775.894 41.4297L775.898 41.5542C775.879 41.555 775.871 41.5445 775.877 41.551C775.885 41.559 775.9 41.5785 775.918 41.6179C775.954 41.6963 775.99 41.823 776.025 42.0034C776.094 42.3618 776.15 42.9012 776.194 43.6139C776.281 45.0376 776.315 47.1342 776.304 49.8144C776.281 55.174 776.073 62.8576 775.729 72.1377C775.042 90.6974 773.811 115.638 772.429 141.13C769.665 192.116 766.296 245.303 765.458 254.065L765.582 254.077ZM775.894 41.4297L775.889 41.3052C615.611 47.1192 456.023 47.4759 295.48 56.691L295.487 56.8154L295.494 56.9397C456.036 47.7247 615.607 47.3686 775.898 41.5542L775.894 41.4297ZM295.487 56.8154L295.48 56.691C199.832 62.1818 103.175 63.855 6.6912 65.5253L6.69336 65.6499L6.69552 65.7744C103.179 64.1042 199.84 62.4309 295.494 56.9397L295.487 56.8154Z" fill="#F0E3DE" mask="url(#path-1-inside-1_6565_2251)"/>
<mask id="path-3-inside-2_6565_2251" fill="white">
<path d="M17.3954 68.7673C18.1669 67.1906 16.31 64.6868 23.5595 64.7351C30.6813 64.7804 37.8537 64.1612 45.0127 63.98C51.5998 63.8079 58.1949 63.8441 65.2661 63.7746C66.708 61.9473 61.5735 60.3949 64.8059 58.6702C67.5301 57.2144 72.0421 56.5258 74.5481 57.2658C85.5434 60.5096 98.6963 58.3924 110.149 60.114C111.237 59.1686 112.424 58.2232 114.972 58.0934C115.425 58.0692 116.563 58.782 116.393 59.0297C115.563 60.2348 113.068 60.265 110.913 60.5036C110.474 61.3523 107.537 62.8927 111.828 62.7115C117.739 62.4668 119.176 59.3861 122.977 57.897C127.564 56.0969 128.306 58.2806 128.25 60.0052L127.622 60.5247L128.527 60.123C131.469 60.0536 134.175 60.2046 135.577 61.5819L134.755 62.047L135.785 61.6755C150.286 60.4643 164.671 58.9149 177.643 55.3237C182.724 53.9192 187.752 53.4692 193.084 53.6504C199.085 53.8619 201.722 55.1123 197.787 57.9937C196.795 58.7216 193.137 59.7666 196.954 60.4523C197.806 60.6063 199.439 60.4281 200.857 60.2016C201.565 60.0868 202.222 59.963 202.695 59.8572C203.172 59.7515 203.467 59.67 203.462 59.6428C202.227 55.3902 212.746 56.5047 215.441 54.0431C216.857 52.7534 220.118 51.7657 222.967 52.5843C231.055 54.8737 240.286 53.4058 248.954 53.6474C251.481 53.7229 253.314 54.2454 254.626 55.1727C254.062 55.6831 251.25 55.1485 252.114 56.3234C253.022 55.9701 253.926 55.6197 254.833 55.2693C258.356 55.8825 261.383 55.5019 264.562 54.2757C268.561 52.7353 272.895 51.7839 276.169 54.3572C274.97 54.9734 273.77 55.5895 272.57 56.2057L271.942 56.6738L272.927 56.3536C274.121 55.7345 275.316 55.1153 276.513 54.4961C280.216 53.2669 283.781 52.246 287.793 53.8619C291.187 55.2301 294.489 56.9456 298.666 57.5406C306.822 58.7035 303.593 57.0453 300.517 55.7345C302.278 55.0096 304.114 53.6988 305.795 53.6655C312.856 53.5266 320.223 53.2638 326.804 54.0038C333.905 54.8314 325.445 57.746 327.69 59.4978C331.973 58.8756 332.793 57.142 334.144 55.5895C335.421 54.1216 337.845 52.9527 341.021 53.3273C355.824 55.0398 369.277 51.1677 383.366 49.9596C389.852 49.4159 395.852 47.3289 402.723 48.1353C407.421 48.691 410.452 47.8151 413.224 45.8368C416.278 43.6471 420.189 39.781 424.155 45.4502C424.714 46.2506 427.223 45.7492 428.359 44.9519C433.224 41.5358 441.793 41.1341 448.713 39.485C462.284 36.2593 462.441 36.4103 463.265 43.4205C467.391 42.7651 471.832 42.4208 475.835 41.6718C479.839 40.9318 483.412 39.7871 485.804 37.5127C487.11 36.2714 491.478 35.8606 493.192 37.4372C497.632 41.5328 505.424 38.7873 508.162 37.6668C515.443 34.6736 521.482 37.9869 528.149 37.1563C532.395 36.6278 529.939 39.331 531.448 40.1676C535.84 42.596 538.16 41.11 539.551 38.7964C537.537 38.0292 537.58 37.3225 540.033 36.6822C540.355 36.5432 540.658 36.3922 541.017 36.2774C541.06 36.2623 541.571 36.4919 541.544 36.51C541.297 36.6761 540.977 36.8211 540.679 36.9691C540.863 37.3527 541.102 37.7272 541.395 38.0957C546.093 38.2165 550.491 37.7 554.577 36.5311C554.891 36.3529 555.271 36.0056 555.506 36.0207C556.548 36.0871 556.362 36.368 554.997 36.7184C557.08 38.0534 558.669 39.3823 562.513 37.0959C566.219 34.8911 570.946 32.8342 576.11 36.3288L575.488 36.7697L576.464 36.4858C587.095 33.1333 600.37 33.3235 611.413 30.3122C616.396 28.9531 618.793 29.5602 624.271 32.8735C626.383 34.1511 628.7 33.6497 629.637 33.3507C638.602 30.4814 647.557 28.5091 657.826 31.4056C658.653 31.6382 660.686 31.7499 660.851 31.608C668.946 24.8092 683.562 27.6543 695.124 26.1714C700.118 25.5371 707.538 24.489 709.19 28.7538C709.959 30.7442 712.145 29.4212 713.699 28.6662C719.725 25.7304 727.421 25.5764 735.293 25.0387C737.682 24.8817 740.071 24.7216 742.46 24.5645L746.331 24.329L751.498 24.0481C758.399 23.6766 765.34 23.3292 772.307 23L780.384 25.6337L784.428 26.9687L786.449 27.6423L786.955 27.8114L787.208 27.896L787.335 27.9383C787.375 27.9534 787.402 27.9926 787.442 28.0289C787.716 28.343 787.905 28.6329 788.104 28.9229C788.865 30.0827 789.501 31.2969 790.102 32.6349C790.695 33.9729 791.225 35.4317 791.659 37.0265C792.092 38.6242 792.433 40.3458 792.638 42.1973C792.85 44.0397 792.93 45.9969 792.967 47.9752C793.034 51.947 792.957 56.0093 792.866 60.0656L792.696 66.1667L792.536 70.9963C792.371 75.7261 792.175 80.4348 791.962 85.1436C791.363 98.273 792.491 111.215 789.102 123.514C788.876 124.828 787.814 123.333 788.027 126.115C788.418 125.371 788.807 124.632 789.195 123.892C791.826 139.434 789.28 156.164 787.615 171.652C785.851 188.05 785.51 204.166 784.199 220.237C783.473 229.114 783.119 237.988 782.576 246.983C782.438 249.245 782.291 251.486 782.097 253.86L781.932 255.745L781.743 257.557L781.549 259.315L781.336 261.054C780.754 265.691 780.019 270.209 779.131 274.625C778.256 278.971 777.298 283.767 776.771 288.582C776.244 293.39 776.143 298.241 776.971 302.581C777.122 303.357 777.218 304.073 777.266 304.738L777.274 304.861V304.922L777.279 304.952C777.279 304.955 777.279 304.958 777.282 304.961L777.308 305.021C777.316 305.04 777.322 305.061 777.327 305.079C777.332 305.1 777.338 305.106 777.343 305.154C777.354 305.233 777.359 305.308 777.364 305.384C777.364 305.472 777.367 305.559 777.37 305.647C777.37 305.843 777.356 306.015 777.343 306.242C777.327 306.459 777.298 306.646 777.269 306.879C777.237 307.103 777.197 307.311 777.151 307.528C777.106 307.752 777.056 307.969 776.997 308.184C776.768 309.051 776.455 309.884 776.117 310.712C775.781 311.542 775.422 312.361 775.116 313.234C776.01 314.596 776.931 316.028 777.167 319.111C777.21 319.676 776.617 321.117 776.353 320.957C775.183 320.232 774.981 317.121 774.606 314.638C774.249 317.474 774.265 320.175 774.467 322.823C774.568 324.152 774.72 325.463 774.888 326.81C774.978 327.499 775.068 328.181 775.159 328.858C775.207 329.236 775.252 329.613 775.3 329.991L775.319 330.136L775.334 330.317L775.369 330.682L775.436 331.413C775.606 333.364 775.734 335.34 775.742 337.333C775.749 339.327 775.627 341.341 775.265 343.344C774.478 347.318 773.129 351.366 770.873 355.12C769.104 358.128 766.885 361.049 764.321 363.671C761.753 366.286 758.832 368.609 755.714 370.373C755.326 370.608 754.945 370.814 754.562 371.01C754.177 371.206 753.793 371.4 753.413 371.596C753.033 371.783 752.639 371.979 752.269 372.146C751.931 372.288 751.593 372.43 751.261 372.571C750.923 372.707 750.59 372.84 750.258 372.976C750.09 373.04 749.925 373.106 749.758 373.169C749.593 373.23 749.433 373.281 749.273 373.336C748.63 373.547 747.994 373.746 747.363 373.931C744.889 374.592 742.612 374.906 740.68 374.81C738.196 374.722 736.065 374.867 734.062 375.178C733.075 375.317 732.098 375.519 731.183 375.698C730.265 375.891 729.366 376.081 728.483 376.268C724.984 376.996 721.795 377.464 718.748 375.9L719.621 375.48L718.53 375.791C716.604 375.652 714.811 375.592 713.14 375.613C711.48 375.634 709.919 375.737 708.711 375.942C707.82 376.066 706.926 376.19 706.034 376.314C705.117 376.45 704.196 376.589 703.27 376.727C701.424 377.005 699.562 377.319 697.67 377.573C682.639 379.724 666.837 380.769 651.117 380.421C642.396 380.246 633.625 379.715 624.92 379.684C616.22 379.642 607.598 380.08 599.183 381.808C596.523 382.354 593.099 382.964 590.535 382.644C578.143 381.086 565.756 381.074 553.42 381.439C541.081 381.805 528.806 382.554 516.579 382.511C504.985 382.469 493.309 384.2 481.707 383.943L480.691 383.732L481.417 384.106C480.164 385.218 477.95 386.311 475.843 386.075C474.907 385.973 473.971 385.885 473.029 385.822C472.092 385.767 471.153 385.731 470.214 385.71C468.333 385.668 466.447 385.689 464.558 385.755C462.675 385.843 460.791 385.991 458.905 386.16C457.019 386.332 455.133 386.528 453.26 386.788C451.384 387.045 449.508 387.302 447.638 387.558C445.768 387.821 443.914 388.135 442.057 388.401C441.128 388.534 440.202 388.667 439.277 388.797C438.814 388.86 438.351 388.921 437.891 388.984C437.43 389.05 436.97 389.117 436.513 389.183C434.674 389.44 432.844 389.664 431.019 389.839C430.367 389.902 429.713 389.963 429.061 390.035L427.111 390.28L423.216 390.802L419.194 391.376L414.876 392.007C409.119 392.965 403.412 393.563 397.706 394.327C386.327 395.541 375.055 396.387 363.951 396.583C344.411 396.84 323.894 395.309 304.667 396.846C301.345 397.115 296.902 397.097 294.087 396.308C280.753 392.593 266.816 394.569 253.495 393.581C250.196 393.357 246.876 393.249 243.54 393.182L242.915 393.17L242.268 393.164L240.975 393.158C240.114 393.158 239.252 393.158 238.387 393.158C236.66 393.164 234.934 393.173 233.205 393.179C226.29 393.216 219.373 393.255 212.544 392.901C202.485 392.376 189.723 397.323 182.274 390.047C181.593 389.383 179.603 390.358 178.26 390.854C168.395 394.493 168.305 394.496 156.594 391.358C155.596 391.089 155.163 390.603 153.878 390.956C135.878 395.904 115.842 394.025 96.4935 393.394C88.7944 393.143 80.9224 393.074 73.1594 392.714C69.2992 392.536 65.2209 392.288 60.9563 391.739C56.6891 391.183 52.2463 390.352 47.5321 388.806C46.319 388.404 45.0713 387.972 43.7943 387.477L41.8735 386.716C41.227 386.447 40.5646 386.145 39.9128 385.858C37.2844 384.659 34.5734 383.224 31.8386 381.382C29.1117 379.548 26.3609 377.265 23.8974 374.613C23.5914 374.281 23.2802 373.952 22.9822 373.613L22.1069 372.581L21.676 372.061L21.2663 371.532L20.4575 370.466C20.1968 370.11 19.952 369.753 19.702 369.397C19.4519 369.041 19.2018 368.678 18.981 368.328L18.3 367.265C18.0845 366.914 17.8849 366.576 17.6774 366.229L17.3715 365.712L17.0948 365.22L16.5548 364.244L15.6822 362.55C15.0916 361.429 14.5409 360.276 13.9848 359.128L13.5672 358.267L13.1681 357.391L12.3727 355.639C11.8486 354.468 11.3564 353.274 10.8536 352.094C8.90354 347.318 7.21686 342.401 5.81751 337.421C4.42348 332.437 3.33805 327.399 2.49205 322.385C1.67266 317.375 1.08205 312.388 0.706942 307.495C-0.056584 297.694 -0.0698859 288.253 0.0657929 279.255C0.126981 275.404 0.225415 271.768 0.462188 268.158C0.701621 264.555 1.09003 261.009 1.75247 257.487C4.97949 240.347 5.84411 221.467 6.48792 202.46C7.11843 183.8 8.83703 165.014 8.41137 146.626C8.12937 134.375 7.67977 121.69 7.04926 109.294C6.29372 94.4251 8.91152 78.6438 13.506 71.3829C16.4191 66.7829 18.5633 72.3615 19.404 78.2783C21.9766 96.3883 25.2409 114.722 23.7404 135.046C22.6949 149.211 22.3464 163.325 22.1735 177.584C21.8542 204.06 21.9101 230.603 21.221 257.007C21.0827 262.338 21.0667 267.636 21.1253 272.909C21.1838 278.186 21.3248 283.381 21.6015 288.494C22.1548 298.718 23.3121 308.592 25.4244 317.958C26.7786 323.995 28.6249 329.794 31.0165 335.264C32.2137 337.998 33.5359 340.652 34.9964 343.211L36.1164 345.114C36.4862 345.748 36.8959 346.358 37.2844 346.983C37.4786 347.285 37.6834 347.626 37.8563 347.871C38.0372 348.14 38.2155 348.406 38.3911 348.641L38.6544 349.007L38.9152 349.342C39.0029 349.451 39.0881 349.572 39.1759 349.674L39.4366 349.982C40.1309 350.798 40.8386 351.477 41.6101 352.087C42.3869 352.692 43.2063 353.244 44.1428 353.709C45.9891 354.664 48.1812 355.368 50.5463 355.857C52.9247 356.328 55.5265 356.6 58.2241 356.736C60.9244 356.872 63.7204 356.878 66.5644 356.829C71.1163 356.736 75.9102 356.612 80.6138 356.576C85.3333 356.527 90.0528 356.518 94.7723 356.539C104.209 356.579 113.64 356.739 123.073 356.905C141.938 357.249 160.8 357.645 179.681 357.319C190.865 357.122 202.052 356.875 213.244 356.612C218.839 356.476 224.436 356.34 230.036 356.204C232.835 356.135 235.636 356.065 238.435 355.996L242.636 355.893L246.911 355.827L251.197 355.769C252.625 355.751 254.057 355.727 255.477 355.739C258.324 355.751 261.17 355.76 264.017 355.772C266.858 355.8 269.689 355.86 272.527 355.911C275.369 355.957 278.191 356.038 281.017 356.117C286.678 356.271 292.299 356.476 297.934 356.694C303.537 356.923 309.142 357.156 314.753 357.385C329.185 357.995 343.671 358.693 358.032 358.454C372.379 358.219 386.628 357.035 400.254 353.933C401.071 353.749 401.922 353.616 402.782 353.507C403.213 353.459 403.644 353.407 404.075 353.359C404.29 353.335 404.506 353.314 404.721 353.29C404.934 353.259 405.147 353.229 405.357 353.199L413.926 351.93L414.461 351.849L415.017 351.761L416.177 351.568L418.494 351.178L423.128 350.387C426.22 349.877 429.311 349.418 432.4 348.919C435.491 348.448 438.582 348.028 441.671 347.569C454.034 345.847 466.396 344.443 478.749 343.359C503.458 341.184 528.122 340.281 552.654 340.634C578.999 341.018 605.536 340.773 631.528 339.2C632.709 339.127 633.931 339.003 635.088 339.067C649.355 339.828 663.501 339.324 677.55 338.342C679.308 338.23 681.062 338.091 682.815 337.949L688.074 337.529C691.57 337.218 695.069 336.91 698.567 336.599C700.312 336.436 702.057 336.273 703.805 336.113L706.45 335.883L708.227 335.76L709.892 335.684C712.052 335.609 714.029 335.609 715.907 335.624C717.69 335.654 719.472 335.684 721.257 335.714C723.447 335.756 725.524 335.772 727.496 335.729C729.462 335.684 731.337 335.59 733.035 335.4C734.737 335.216 736.291 334.947 737.608 334.615C737.93 334.527 738.275 334.458 738.549 334.355L738.986 334.219L739.204 334.156L739.393 334.08L739.771 333.935C739.893 333.89 740.053 333.842 740.077 333.814C740.183 333.748 740.319 333.709 740.414 333.669C741.101 333.328 741.726 332.76 742.053 331.99C742.067 331.969 742.083 331.948 742.096 331.927C742.112 331.906 742.109 331.875 742.12 331.851C742.133 331.8 742.149 331.752 742.17 331.703C742.186 331.655 742.226 331.616 742.237 331.564C742.242 331.51 742.253 331.459 742.269 331.407C742.295 331.308 742.357 331.22 742.367 331.111C742.383 331.009 742.396 330.903 742.402 330.797C742.415 330.586 742.412 330.377 742.402 330.169C742.402 330.118 742.391 330.063 742.391 330.012V329.9L742.383 329.583L742.341 328.076C742.263 325.868 742.122 323.449 741.955 320.93L741.417 312.983C741.33 311.573 741.242 310.123 741.173 308.528C741.141 307.728 741.111 306.897 741.096 305.967L741.088 305.263V304.49L741.096 303.68L741.122 302.759L741.215 300.449C741.247 299.724 741.274 298.99 741.314 298.274C741.391 296.836 741.463 295.396 741.558 293.982C741.731 291.131 741.95 288.352 742.162 285.583C742.394 282.867 742.625 280.155 742.854 277.44C743.322 272.088 743.79 266.89 744.152 261.858L744.288 260.145L744.437 258.457C744.546 257.327 744.652 256.228 744.775 255.122C744.897 254.029 745.02 252.939 745.142 251.848L745.307 250.42L745.48 248.81C745.719 246.53 745.959 244.249 746.195 241.975C746.43 239.667 746.65 237.348 746.837 235.028C748.18 218.147 749.01 201.167 749.691 184.232C750.37 167.291 750.888 150.362 751.545 133.475C752.274 115.803 753.003 98.1371 753.73 80.4741L753.982 73.8958L754.208 67.5017V67.2027C754.208 67.103 754.216 67.0034 754.201 66.9067C754.118 66.9007 754.022 66.9128 753.937 66.9218L745.828 67.2571C739.406 67.4866 732.987 67.7343 726.567 68.0031C687.431 69.6311 648.185 70.951 609.104 69.6945C600.953 69.4317 592.471 70.7124 584.208 70.6973C555.08 70.6368 525.97 71.9054 496.802 71.9054C486.472 71.9114 475.984 71.8238 465.532 71.9235C455.079 72.0111 444.651 72.2286 434.445 72.8508C427.023 73.3008 419.598 73.6391 412.178 73.9743C404.758 74.3066 397.341 74.5814 389.922 74.817C382.504 75.0496 375.093 75.2821 367.681 75.5147C363.975 75.6174 360.269 75.7201 356.563 75.8228C352.86 75.9406 349.157 76.0584 345.456 76.1762C341.753 76.2939 338.052 76.4148 334.352 76.5326C330.651 76.6594 326.951 76.7621 323.253 76.9252C315.86 77.2303 308.469 77.5534 301.084 77.9219L295.54 78.2058L289.958 78.5139C286.239 78.7253 282.52 78.9488 278.801 79.1905C275.084 79.417 271.368 79.6526 267.654 79.9063C263.94 80.1751 260.229 80.4439 256.515 80.7127C235.179 82.3437 213.826 82.981 192.501 83.6213C171.173 84.2616 149.868 84.908 128.591 86.5359C108.532 88.0763 87.8473 87.2548 67.4769 87.2638C64.0317 87.2638 60.6184 86.4514 57.2451 85.9409C51.4987 85.0711 51.3577 83.2226 55.3456 81.6339C60.5918 79.5438 65.1091 77.5565 63.3533 74.1012L64.045 73.5787L63.1431 74.0196C62.5419 74.0438 61.9167 74.0257 61.3474 74.1042C52.2383 75.3365 57.9315 71.1865 55.1886 70.4737C48.8756 68.8367 48.9181 73.3582 43.9832 73.3733C43.4591 73.3733 42.6131 73.2917 42.4747 73.1377C38.2314 68.3655 30.2291 69.3864 21.9367 70.4768C19.3215 70.8211 16.7836 69.9814 17.3821 68.7612L17.3954 68.7673ZM4.08029 266.503L4.3011 265.343L3.95791 265.204L4.07763 266.503H4.08029ZM48.7532 386.106C48.285 386.084 47.7875 386.033 47.3033 385.994C47.7529 386.151 48.2211 386.323 48.6601 386.468L48.7505 386.106H48.7532ZM66.8969 387.779C66.3595 387.755 65.8168 387.885 65.2661 387.939L66.2877 388.407C66.873 388.434 67.6205 388.564 67.9903 388.455C69.0704 388.144 68.6474 387.851 66.8969 387.779ZM84.2771 388.712L83.2369 388.452L83.1225 388.809L84.2771 388.712ZM109.668 390.694L109.027 390.153C107.803 390.005 107.255 388.694 105.384 389.658C106.507 389.857 107.63 390.059 108.752 390.259L109.668 390.69V390.694ZM126.13 389.923C125.337 389.736 124.544 389.546 123.749 389.359C122.709 389.452 121.671 389.543 120.634 389.636C121.416 389.821 122.182 390.129 122.98 390.156C124.015 390.192 125.079 390.011 126.13 389.923ZM731.332 33.1665L732.433 33.0124L731.43 32.8101L731.332 33.1665ZM650.813 35.1267C650.694 35.7549 651.492 36.0569 652.87 35.8969C653.258 35.8516 653.516 35.5163 653.83 35.3139C653.822 34.6917 653.099 34.3867 651.726 34.5407C651.343 34.583 650.853 34.9183 650.813 35.1267ZM530.578 45.3868L531.458 45.4562L531.184 44.9247L530.581 45.3868H530.578ZM513.591 61.2557C513.214 61.2738 512.873 61.5819 512.514 61.7601C512.66 61.9775 512.809 62.198 512.956 62.4185C513.442 62.3067 514.054 62.2463 514.392 62.0742C515.491 61.5154 515.172 61.1832 513.589 61.2587L513.591 61.2557ZM510.521 46.5979C510.737 46.8124 510.835 47.0842 511.186 47.2292C512.322 47.6943 513.051 47.5342 512.977 46.8245C512.958 46.6583 512.314 46.5194 511.955 46.3654C511.479 46.4409 511 46.5194 510.521 46.5949V46.5979ZM499.816 43.1819L500.787 43.4417L500.989 43.0339L499.816 43.1819ZM467.336 52.3396L468.472 52.2158L467.525 51.9772L467.333 52.3396H467.336ZM452.73 43.4689C453.611 43.4054 454.555 42.9101 455.162 42.5114C456.018 41.9466 455.561 41.3969 454.318 41.4905C453.438 41.557 452.672 42.0976 451.858 42.4268C451.155 43.043 451.488 43.5595 452.73 43.4689ZM353.842 60.6244C354.158 61.3342 355.02 61.4429 356.127 60.8358C356.819 60.4613 357.609 59.9509 357.609 59.528C357.609 58.8454 356.441 58.7186 355.35 59.2834C354.645 59.6488 354.328 60.1714 353.839 60.6244H353.842ZM268.627 60.7966C268.492 60.9264 269.109 61.1983 269.383 61.4037C269.846 61.4188 270.585 61.5215 270.721 61.4339C271.003 61.2557 271.219 60.8872 271.011 60.7543C270.186 60.2227 269.213 60.2438 268.627 60.7966ZM256.235 60.2559L257.01 60.271L256.736 59.7697L256.238 60.2559H256.235ZM74.6306 71.5218C75.5404 71.3013 76.5354 71.1352 77.3335 70.8483C78.5626 70.4043 78.4562 69.8757 77.0835 69.8123C76.2534 69.773 75.1919 70.1566 74.3991 70.4466C73.1807 70.8906 73.327 71.2892 74.6279 71.5248L74.6306 71.5218Z"/>
</mask>
<path d="M17.3954 68.7673C18.1669 67.1906 16.31 64.6868 23.5595 64.7351C30.6813 64.7804 37.8537 64.1612 45.0127 63.98C51.5998 63.8079 58.1949 63.8441 65.2661 63.7746C66.708 61.9473 61.5735 60.3949 64.8059 58.6702C67.5301 57.2144 72.0421 56.5258 74.5481 57.2658C85.5434 60.5096 98.6963 58.3924 110.149 60.114C111.237 59.1686 112.424 58.2232 114.972 58.0934C115.425 58.0692 116.563 58.782 116.393 59.0297C115.563 60.2348 113.068 60.265 110.913 60.5036C110.474 61.3523 107.537 62.8927 111.828 62.7115C117.739 62.4668 119.176 59.3861 122.977 57.897C127.564 56.0969 128.306 58.2806 128.25 60.0052L127.622 60.5247L128.527 60.123C131.469 60.0536 134.175 60.2046 135.577 61.5819L134.755 62.047L135.785 61.6755C150.286 60.4643 164.671 58.9149 177.643 55.3237C182.724 53.9192 187.752 53.4692 193.084 53.6504C199.085 53.8619 201.722 55.1123 197.787 57.9937C196.795 58.7216 193.137 59.7666 196.954 60.4523C197.806 60.6063 199.439 60.4281 200.857 60.2016C201.565 60.0868 202.222 59.963 202.695 59.8572C203.172 59.7515 203.467 59.67 203.462 59.6428C202.227 55.3902 212.746 56.5047 215.441 54.0431C216.857 52.7534 220.118 51.7657 222.967 52.5843C231.055 54.8737 240.286 53.4058 248.954 53.6474C251.481 53.7229 253.314 54.2454 254.626 55.1727C254.062 55.6831 251.25 55.1485 252.114 56.3234C253.022 55.9701 253.926 55.6197 254.833 55.2693C258.356 55.8825 261.383 55.5019 264.562 54.2757C268.561 52.7353 272.895 51.7839 276.169 54.3572C274.97 54.9734 273.77 55.5895 272.57 56.2057L271.942 56.6738L272.927 56.3536C274.121 55.7345 275.316 55.1153 276.513 54.4961C280.216 53.2669 283.781 52.246 287.793 53.8619C291.187 55.2301 294.489 56.9456 298.666 57.5406C306.822 58.7035 303.593 57.0453 300.517 55.7345C302.278 55.0096 304.114 53.6988 305.795 53.6655C312.856 53.5266 320.223 53.2638 326.804 54.0038C333.905 54.8314 325.445 57.746 327.69 59.4978C331.973 58.8756 332.793 57.142 334.144 55.5895C335.421 54.1216 337.845 52.9527 341.021 53.3273C355.824 55.0398 369.277 51.1677 383.366 49.9596C389.852 49.4159 395.852 47.3289 402.723 48.1353C407.421 48.691 410.452 47.8151 413.224 45.8368C416.278 43.6471 420.189 39.781 424.155 45.4502C424.714 46.2506 427.223 45.7492 428.359 44.9519C433.224 41.5358 441.793 41.1341 448.713 39.485C462.284 36.2593 462.441 36.4103 463.265 43.4205C467.391 42.7651 471.832 42.4208 475.835 41.6718C479.839 40.9318 483.412 39.7871 485.804 37.5127C487.11 36.2714 491.478 35.8606 493.192 37.4372C497.632 41.5328 505.424 38.7873 508.162 37.6668C515.443 34.6736 521.482 37.9869 528.149 37.1563C532.395 36.6278 529.939 39.331 531.448 40.1676C535.84 42.596 538.16 41.11 539.551 38.7964C537.537 38.0292 537.58 37.3225 540.033 36.6822C540.355 36.5432 540.658 36.3922 541.017 36.2774C541.06 36.2623 541.571 36.4919 541.544 36.51C541.297 36.6761 540.977 36.8211 540.679 36.9691C540.863 37.3527 541.102 37.7272 541.395 38.0957C546.093 38.2165 550.491 37.7 554.577 36.5311C554.891 36.3529 555.271 36.0056 555.506 36.0207C556.548 36.0871 556.362 36.368 554.997 36.7184C557.08 38.0534 558.669 39.3823 562.513 37.0959C566.219 34.8911 570.946 32.8342 576.11 36.3288L575.488 36.7697L576.464 36.4858C587.095 33.1333 600.37 33.3235 611.413 30.3122C616.396 28.9531 618.793 29.5602 624.271 32.8735C626.383 34.1511 628.7 33.6497 629.637 33.3507C638.602 30.4814 647.557 28.5091 657.826 31.4056C658.653 31.6382 660.686 31.7499 660.851 31.608C668.946 24.8092 683.562 27.6543 695.124 26.1714C700.118 25.5371 707.538 24.489 709.19 28.7538C709.959 30.7442 712.145 29.4212 713.699 28.6662C719.725 25.7304 727.421 25.5764 735.293 25.0387C737.682 24.8817 740.071 24.7216 742.46 24.5645L746.331 24.329L751.498 24.0481C758.399 23.6766 765.34 23.3292 772.307 23L780.384 25.6337L784.428 26.9687L786.449 27.6423L786.955 27.8114L787.208 27.896L787.335 27.9383C787.375 27.9534 787.402 27.9926 787.442 28.0289C787.716 28.343 787.905 28.6329 788.104 28.9229C788.865 30.0827 789.501 31.2969 790.102 32.6349C790.695 33.9729 791.225 35.4317 791.659 37.0265C792.092 38.6242 792.433 40.3458 792.638 42.1973C792.85 44.0397 792.93 45.9969 792.967 47.9752C793.034 51.947 792.957 56.0093 792.866 60.0656L792.696 66.1667L792.536 70.9963C792.371 75.7261 792.175 80.4348 791.962 85.1436C791.363 98.273 792.491 111.215 789.102 123.514C788.876 124.828 787.814 123.333 788.027 126.115C788.418 125.371 788.807 124.632 789.195 123.892C791.826 139.434 789.28 156.164 787.615 171.652C785.851 188.05 785.51 204.166 784.199 220.237C783.473 229.114 783.119 237.988 782.576 246.983C782.438 249.245 782.291 251.486 782.097 253.86L781.932 255.745L781.743 257.557L781.549 259.315L781.336 261.054C780.754 265.691 780.019 270.209 779.131 274.625C778.256 278.971 777.298 283.767 776.771 288.582C776.244 293.39 776.143 298.241 776.971 302.581C777.122 303.357 777.218 304.073 777.266 304.738L777.274 304.861V304.922L777.279 304.952C777.279 304.955 777.279 304.958 777.282 304.961L777.308 305.021C777.316 305.04 777.322 305.061 777.327 305.079C777.332 305.1 777.338 305.106 777.343 305.154C777.354 305.233 777.359 305.308 777.364 305.384C777.364 305.472 777.367 305.559 777.37 305.647C777.37 305.843 777.356 306.015 777.343 306.242C777.327 306.459 777.298 306.646 777.269 306.879C777.237 307.103 777.197 307.311 777.151 307.528C777.106 307.752 777.056 307.969 776.997 308.184C776.768 309.051 776.455 309.884 776.117 310.712C775.781 311.542 775.422 312.361 775.116 313.234C776.01 314.596 776.931 316.028 777.167 319.111C777.21 319.676 776.617 321.117 776.353 320.957C775.183 320.232 774.981 317.121 774.606 314.638C774.249 317.474 774.265 320.175 774.467 322.823C774.568 324.152 774.72 325.463 774.888 326.81C774.978 327.499 775.068 328.181 775.159 328.858C775.207 329.236 775.252 329.613 775.3 329.991L775.319 330.136L775.334 330.317L775.369 330.682L775.436 331.413C775.606 333.364 775.734 335.34 775.742 337.333C775.749 339.327 775.627 341.341 775.265 343.344C774.478 347.318 773.129 351.366 770.873 355.12C769.104 358.128 766.885 361.049 764.321 363.671C761.753 366.286 758.832 368.609 755.714 370.373C755.326 370.608 754.945 370.814 754.562 371.01C754.177 371.206 753.793 371.4 753.413 371.596C753.033 371.783 752.639 371.979 752.269 372.146C751.931 372.288 751.593 372.43 751.261 372.571C750.923 372.707 750.59 372.84 750.258 372.976C750.09 373.04 749.925 373.106 749.758 373.169C749.593 373.23 749.433 373.281 749.273 373.336C748.63 373.547 747.994 373.746 747.363 373.931C744.889 374.592 742.612 374.906 740.68 374.81C738.196 374.722 736.065 374.867 734.062 375.178C733.075 375.317 732.098 375.519 731.183 375.698C730.265 375.891 729.366 376.081 728.483 376.268C724.984 376.996 721.795 377.464 718.748 375.9L719.621 375.48L718.53 375.791C716.604 375.652 714.811 375.592 713.14 375.613C711.48 375.634 709.919 375.737 708.711 375.942C707.82 376.066 706.926 376.19 706.034 376.314C705.117 376.45 704.196 376.589 703.27 376.727C701.424 377.005 699.562 377.319 697.67 377.573C682.639 379.724 666.837 380.769 651.117 380.421C642.396 380.246 633.625 379.715 624.92 379.684C616.22 379.642 607.598 380.08 599.183 381.808C596.523 382.354 593.099 382.964 590.535 382.644C578.143 381.086 565.756 381.074 553.42 381.439C541.081 381.805 528.806 382.554 516.579 382.511C504.985 382.469 493.309 384.2 481.707 383.943L480.691 383.732L481.417 384.106C480.164 385.218 477.95 386.311 475.843 386.075C474.907 385.973 473.971 385.885 473.029 385.822C472.092 385.767 471.153 385.731 470.214 385.71C468.333 385.668 466.447 385.689 464.558 385.755C462.675 385.843 460.791 385.991 458.905 386.16C457.019 386.332 455.133 386.528 453.26 386.788C451.384 387.045 449.508 387.302 447.638 387.558C445.768 387.821 443.914 388.135 442.057 388.401C441.128 388.534 440.202 388.667 439.277 388.797C438.814 388.86 438.351 388.921 437.891 388.984C437.43 389.05 436.97 389.117 436.513 389.183C434.674 389.44 432.844 389.664 431.019 389.839C430.367 389.902 429.713 389.963 429.061 390.035L427.111 390.28L423.216 390.802L419.194 391.376L414.876 392.007C409.119 392.965 403.412 393.563 397.706 394.327C386.327 395.541 375.055 396.387 363.951 396.583C344.411 396.84 323.894 395.309 304.667 396.846C301.345 397.115 296.902 397.097 294.087 396.308C280.753 392.593 266.816 394.569 253.495 393.581C250.196 393.357 246.876 393.249 243.54 393.182L242.915 393.17L242.268 393.164L240.975 393.158C240.114 393.158 239.252 393.158 238.387 393.158C236.66 393.164 234.934 393.173 233.205 393.179C226.29 393.216 219.373 393.255 212.544 392.901C202.485 392.376 189.723 397.323 182.274 390.047C181.593 389.383 179.603 390.358 178.26 390.854C168.395 394.493 168.305 394.496 156.594 391.358C155.596 391.089 155.163 390.603 153.878 390.956C135.878 395.904 115.842 394.025 96.4935 393.394C88.7944 393.143 80.9224 393.074 73.1594 392.714C69.2992 392.536 65.2209 392.288 60.9563 391.739C56.6891 391.183 52.2463 390.352 47.5321 388.806C46.319 388.404 45.0713 387.972 43.7943 387.477L41.8735 386.716C41.227 386.447 40.5646 386.145 39.9128 385.858C37.2844 384.659 34.5734 383.224 31.8386 381.382C29.1117 379.548 26.3609 377.265 23.8974 374.613C23.5914 374.281 23.2802 373.952 22.9822 373.613L22.1069 372.581L21.676 372.061L21.2663 371.532L20.4575 370.466C20.1968 370.11 19.952 369.753 19.702 369.397C19.4519 369.041 19.2018 368.678 18.981 368.328L18.3 367.265C18.0845 366.914 17.8849 366.576 17.6774 366.229L17.3715 365.712L17.0948 365.22L16.5548 364.244L15.6822 362.55C15.0916 361.429 14.5409 360.276 13.9848 359.128L13.5672 358.267L13.1681 357.391L12.3727 355.639C11.8486 354.468 11.3564 353.274 10.8536 352.094C8.90354 347.318 7.21686 342.401 5.81751 337.421C4.42348 332.437 3.33805 327.399 2.49205 322.385C1.67266 317.375 1.08205 312.388 0.706942 307.495C-0.056584 297.694 -0.0698859 288.253 0.0657929 279.255C0.126981 275.404 0.225415 271.768 0.462188 268.158C0.701621 264.555 1.09003 261.009 1.75247 257.487C4.97949 240.347 5.84411 221.467 6.48792 202.46C7.11843 183.8 8.83703 165.014 8.41137 146.626C8.12937 134.375 7.67977 121.69 7.04926 109.294C6.29372 94.4251 8.91152 78.6438 13.506 71.3829C16.4191 66.7829 18.5633 72.3615 19.404 78.2783C21.9766 96.3883 25.2409 114.722 23.7404 135.046C22.6949 149.211 22.3464 163.325 22.1735 177.584C21.8542 204.06 21.9101 230.603 21.221 257.007C21.0827 262.338 21.0667 267.636 21.1253 272.909C21.1838 278.186 21.3248 283.381 21.6015 288.494C22.1548 298.718 23.3121 308.592 25.4244 317.958C26.7786 323.995 28.6249 329.794 31.0165 335.264C32.2137 337.998 33.5359 340.652 34.9964 343.211L36.1164 345.114C36.4862 345.748 36.8959 346.358 37.2844 346.983C37.4786 347.285 37.6834 347.626 37.8563 347.871C38.0372 348.14 38.2155 348.406 38.3911 348.641L38.6544 349.007L38.9152 349.342C39.0029 349.451 39.0881 349.572 39.1759 349.674L39.4366 349.982C40.1309 350.798 40.8386 351.477 41.6101 352.087C42.3869 352.692 43.2063 353.244 44.1428 353.709C45.9891 354.664 48.1812 355.368 50.5463 355.857C52.9247 356.328 55.5265 356.6 58.2241 356.736C60.9244 356.872 63.7204 356.878 66.5644 356.829C71.1163 356.736 75.9102 356.612 80.6138 356.576C85.3333 356.527 90.0528 356.518 94.7723 356.539C104.209 356.579 113.64 356.739 123.073 356.905C141.938 357.249 160.8 357.645 179.681 357.319C190.865 357.122 202.052 356.875 213.244 356.612C218.839 356.476 224.436 356.34 230.036 356.204C232.835 356.135 235.636 356.065 238.435 355.996L242.636 355.893L246.911 355.827L251.197 355.769C252.625 355.751 254.057 355.727 255.477 355.739C258.324 355.751 261.17 355.76 264.017 355.772C266.858 355.8 269.689 355.86 272.527 355.911C275.369 355.957 278.191 356.038 281.017 356.117C286.678 356.271 292.299 356.476 297.934 356.694C303.537 356.923 309.142 357.156 314.753 357.385C329.185 357.995 343.671 358.693 358.032 358.454C372.379 358.219 386.628 357.035 400.254 353.933C401.071 353.749 401.922 353.616 402.782 353.507C403.213 353.459 403.644 353.407 404.075 353.359C404.29 353.335 404.506 353.314 404.721 353.29C404.934 353.259 405.147 353.229 405.357 353.199L413.926 351.93L414.461 351.849L415.017 351.761L416.177 351.568L418.494 351.178L423.128 350.387C426.22 349.877 429.311 349.418 432.4 348.919C435.491 348.448 438.582 348.028 441.671 347.569C454.034 345.847 466.396 344.443 478.749 343.359C503.458 341.184 528.122 340.281 552.654 340.634C578.999 341.018 605.536 340.773 631.528 339.2C632.709 339.127 633.931 339.003 635.088 339.067C649.355 339.828 663.501 339.324 677.55 338.342C679.308 338.23 681.062 338.091 682.815 337.949L688.074 337.529C691.57 337.218 695.069 336.91 698.567 336.599C700.312 336.436 702.057 336.273 703.805 336.113L706.45 335.883L708.227 335.76L709.892 335.684C712.052 335.609 714.029 335.609 715.907 335.624C717.69 335.654 719.472 335.684 721.257 335.714C723.447 335.756 725.524 335.772 727.496 335.729C729.462 335.684 731.337 335.59 733.035 335.4C734.737 335.216 736.291 334.947 737.608 334.615C737.93 334.527 738.275 334.458 738.549 334.355L738.986 334.219L739.204 334.156L739.393 334.08L739.771 333.935C739.893 333.89 740.053 333.842 740.077 333.814C740.183 333.748 740.319 333.709 740.414 333.669C741.101 333.328 741.726 332.76 742.053 331.99C742.067 331.969 742.083 331.948 742.096 331.927C742.112 331.906 742.109 331.875 742.12 331.851C742.133 331.8 742.149 331.752 742.17 331.703C742.186 331.655 742.226 331.616 742.237 331.564C742.242 331.51 742.253 331.459 742.269 331.407C742.295 331.308 742.357 331.22 742.367 331.111C742.383 331.009 742.396 330.903 742.402 330.797C742.415 330.586 742.412 330.377 742.402 330.169C742.402 330.118 742.391 330.063 742.391 330.012V329.9L742.383 329.583L742.341 328.076C742.263 325.868 742.122 323.449 741.955 320.93L741.417 312.983C741.33 311.573 741.242 310.123 741.173 308.528C741.141 307.728 741.111 306.897 741.096 305.967L741.088 305.263V304.49L741.096 303.68L741.122 302.759L741.215 300.449C741.247 299.724 741.274 298.99 741.314 298.274C741.391 296.836 741.463 295.396 741.558 293.982C741.731 291.131 741.95 288.352 742.162 285.583C742.394 282.867 742.625 280.155 742.854 277.44C743.322 272.088 743.79 266.89 744.152 261.858L744.288 260.145L744.437 258.457C744.546 257.327 744.652 256.228 744.775 255.122C744.897 254.029 745.02 252.939 745.142 251.848L745.307 250.42L745.48 248.81C745.719 246.53 745.959 244.249 746.195 241.975C746.43 239.667 746.65 237.348 746.837 235.028C748.18 218.147 749.01 201.167 749.691 184.232C750.37 167.291 750.888 150.362 751.545 133.475C752.274 115.803 753.003 98.1371 753.73 80.4741L753.982 73.8958L754.208 67.5017V67.2027C754.208 67.103 754.216 67.0034 754.201 66.9067C754.118 66.9007 754.022 66.9128 753.937 66.9218L745.828 67.2571C739.406 67.4866 732.987 67.7343 726.567 68.0031C687.431 69.6311 648.185 70.951 609.104 69.6945C600.953 69.4317 592.471 70.7124 584.208 70.6973C555.08 70.6368 525.97 71.9054 496.802 71.9054C486.472 71.9114 475.984 71.8238 465.532 71.9235C455.079 72.0111 444.651 72.2286 434.445 72.8508C427.023 73.3008 419.598 73.6391 412.178 73.9743C404.758 74.3066 397.341 74.5814 389.922 74.817C382.504 75.0496 375.093 75.2821 367.681 75.5147C363.975 75.6174 360.269 75.7201 356.563 75.8228C352.86 75.9406 349.157 76.0584 345.456 76.1762C341.753 76.2939 338.052 76.4148 334.352 76.5326C330.651 76.6594 326.951 76.7621 323.253 76.9252C315.86 77.2303 308.469 77.5534 301.084 77.9219L295.54 78.2058L289.958 78.5139C286.239 78.7253 282.52 78.9488 278.801 79.1905C275.084 79.417 271.368 79.6526 267.654 79.9063C263.94 80.1751 260.229 80.4439 256.515 80.7127C235.179 82.3437 213.826 82.981 192.501 83.6213C171.173 84.2616 149.868 84.908 128.591 86.5359C108.532 88.0763 87.8473 87.2548 67.4769 87.2638C64.0317 87.2638 60.6184 86.4514 57.2451 85.9409C51.4987 85.0711 51.3577 83.2226 55.3456 81.6339C60.5918 79.5438 65.1091 77.5565 63.3533 74.1012L64.045 73.5787L63.1431 74.0196C62.5419 74.0438 61.9167 74.0257 61.3474 74.1042C52.2383 75.3365 57.9315 71.1865 55.1886 70.4737C48.8756 68.8367 48.9181 73.3582 43.9832 73.3733C43.4591 73.3733 42.6131 73.2917 42.4747 73.1377C38.2314 68.3655 30.2291 69.3864 21.9367 70.4768C19.3215 70.8211 16.7836 69.9814 17.3821 68.7612L17.3954 68.7673ZM4.08029 266.503L4.3011 265.343L3.95791 265.204L4.07763 266.503H4.08029ZM48.7532 386.106C48.285 386.084 47.7875 386.033 47.3033 385.994C47.7529 386.151 48.2211 386.323 48.6601 386.468L48.7505 386.106H48.7532ZM66.8969 387.779C66.3595 387.755 65.8168 387.885 65.2661 387.939L66.2877 388.407C66.873 388.434 67.6205 388.564 67.9903 388.455C69.0704 388.144 68.6474 387.851 66.8969 387.779ZM84.2771 388.712L83.2369 388.452L83.1225 388.809L84.2771 388.712ZM109.668 390.694L109.027 390.153C107.803 390.005 107.255 388.694 105.384 389.658C106.507 389.857 107.63 390.059 108.752 390.259L109.668 390.69V390.694ZM126.13 389.923C125.337 389.736 124.544 389.546 123.749 389.359C122.709 389.452 121.671 389.543 120.634 389.636C121.416 389.821 122.182 390.129 122.98 390.156C124.015 390.192 125.079 390.011 126.13 389.923ZM731.332 33.1665L732.433 33.0124L731.43 32.8101L731.332 33.1665ZM650.813 35.1267C650.694 35.7549 651.492 36.0569 652.87 35.8969C653.258 35.8516 653.516 35.5163 653.83 35.3139C653.822 34.6917 653.099 34.3867 651.726 34.5407C651.343 34.583 650.853 34.9183 650.813 35.1267ZM530.578 45.3868L531.458 45.4562L531.184 44.9247L530.581 45.3868H530.578ZM513.591 61.2557C513.214 61.2738 512.873 61.5819 512.514 61.7601C512.66 61.9775 512.809 62.198 512.956 62.4185C513.442 62.3067 514.054 62.2463 514.392 62.0742C515.491 61.5154 515.172 61.1832 513.589 61.2587L513.591 61.2557ZM510.521 46.5979C510.737 46.8124 510.835 47.0842 511.186 47.2292C512.322 47.6943 513.051 47.5342 512.977 46.8245C512.958 46.6583 512.314 46.5194 511.955 46.3654C511.479 46.4409 511 46.5194 510.521 46.5949V46.5979ZM499.816 43.1819L500.787 43.4417L500.989 43.0339L499.816 43.1819ZM467.336 52.3396L468.472 52.2158L467.525 51.9772L467.333 52.3396H467.336ZM452.73 43.4689C453.611 43.4054 454.555 42.9101 455.162 42.5114C456.018 41.9466 455.561 41.3969 454.318 41.4905C453.438 41.557 452.672 42.0976 451.858 42.4268C451.155 43.043 451.488 43.5595 452.73 43.4689ZM353.842 60.6244C354.158 61.3342 355.02 61.4429 356.127 60.8358C356.819 60.4613 357.609 59.9509 357.609 59.528C357.609 58.8454 356.441 58.7186 355.35 59.2834C354.645 59.6488 354.328 60.1714 353.839 60.6244H353.842ZM268.627 60.7966C268.492 60.9264 269.109 61.1983 269.383 61.4037C269.846 61.4188 270.585 61.5215 270.721 61.4339C271.003 61.2557 271.219 60.8872 271.011 60.7543C270.186 60.2227 269.213 60.2438 268.627 60.7966ZM256.235 60.2559L257.01 60.271L256.736 59.7697L256.238 60.2559H256.235ZM74.6306 71.5218C75.5404 71.3013 76.5354 71.1352 77.3335 70.8483C78.5626 70.4043 78.4562 69.8757 77.0835 69.8123C76.2534 69.773 75.1919 70.1566 74.3991 70.4466C73.1807 70.8906 73.327 71.2892 74.6279 71.5248L74.6306 71.5218Z" fill="#F0E3DE" stroke="#F0E3DE" stroke-width="0.24917" mask="url(#path-3-inside-2_6565_2251)"/>
<path d="M9.12793 65.2119C9.55553 65.1971 10.138 65.2734 10.6406 65.3945C10.8914 65.455 11.1202 65.5264 11.2988 65.6016C11.3881 65.6391 11.4636 65.6772 11.5225 65.7148C11.5523 65.7339 11.5771 65.7523 11.5967 65.7695L11.6416 65.8184C11.7656 66.0043 11.7992 66.1729 11.7627 66.3232C11.7257 66.475 11.6142 66.6214 11.4209 66.7559C11.0337 67.0252 10.3432 67.2302 9.39453 67.3359C8.95351 67.2283 8.36963 67.1383 7.88086 67.0381C7.63217 66.9871 7.4068 66.9335 7.23145 66.873C7.14402 66.8429 7.07064 66.8117 7.01367 66.7793C6.98473 66.7628 6.96105 66.7461 6.94238 66.7305L6.90039 66.6855C6.77898 66.5012 6.74207 66.3267 6.77539 66.168C6.80887 66.0085 6.91579 65.855 7.10254 65.7178C7.43105 65.4764 7.99439 65.2951 8.77832 65.2314L9.12793 65.2119Z" fill="#F0E3DE" stroke="#F0E3DE" stroke-width="0.124585"/>
<path d="M135.97 57.2598C136.144 57.2867 136.318 57.3135 136.492 57.3408C136.384 57.4784 136.276 57.6149 136.165 57.7549C135.964 57.7247 135.74 57.702 135.541 57.6748C135.334 57.6467 135.151 57.6115 135.018 57.5566C135.032 57.5289 135.064 57.49 135.109 57.4414C135.154 57.3934 135.206 57.3414 135.258 57.2891C135.298 57.2481 135.337 57.2049 135.371 57.166C135.571 57.1975 135.77 57.229 135.97 57.2598Z" fill="#F0E3DE" stroke="#F0E3DE" stroke-width="0.124585"/>
<g clip-path="url(#clip0_6565_2251)">
<path d="M352.447 46.9922C352.415 46.731 352.303 46.4011 352.303 46.1243C352.303 45.9848 352.339 45.8572 352.437 45.7551C352.535 45.6549 352.706 45.6039 352.953 45.6039L353.134 45.6196L353.224 45.6255C353.24 45.6235 353.254 45.6314 353.268 45.6432L353.309 45.6746C353.362 45.7355 353.423 45.7119 353.48 45.7139L353.656 45.704C353.715 45.704 353.774 45.6903 353.833 45.6962L354.006 45.7315C354.12 45.759 354.24 45.7688 354.35 45.8062C354.807 45.9161 355.241 46.1046 355.642 46.3599C356.011 46.5975 356.331 46.9097 356.624 47.2514C356.9 47.6088 357.14 48.0055 357.327 48.4414C357.564 48.2784 357.696 47.9289 357.823 47.6029C357.953 47.2789 358.079 46.9785 358.389 46.9608C358.905 46.9313 359.437 47.4537 359.371 48.0487C359.261 49.3172 359.296 50.3245 359.302 51.3555C359.31 51.6088 359.292 51.8719 359.288 52.1272C359.271 52.3864 359.255 52.6436 359.216 52.9009C359.143 53.4134 359.013 53.9239 358.793 54.3795C359.088 54.5582 359.369 54.7899 359.335 55.2494C359.328 55.3338 359.057 55.485 358.98 55.4379C358.609 55.2219 358.666 54.837 358.644 54.4954C358.507 54.4541 358.326 54.3226 358.173 54.2872C358.02 54.2519 357.898 54.299 357.878 54.5896C357.849 54.9882 358.075 55.2808 358.354 55.597C358.63 55.9112 358.96 56.241 359.123 56.6613C359.32 57.1718 359.216 57.4055 359.017 57.4428C358.817 57.484 358.515 57.3446 358.253 57.1974L358.12 57.0206L358.206 57.219C358.108 57.6627 357.918 58.0241 357.472 57.9043L357.382 57.7001L357.438 57.9102C357.266 58.9646 356.887 60.0211 356.256 60.9853C355.632 61.9533 354.827 62.8645 353.882 63.7953C353.138 64.5277 352.247 64.8301 351.381 64.8222C350.89 64.8026 350.568 64.6868 350.483 64.4374C350.395 64.1958 350.55 63.8542 350.939 63.3672C351.037 63.2395 351.227 63.0805 351.331 62.9254C351.436 62.7702 351.451 62.621 351.229 62.5248C351.131 62.4875 350.909 62.5424 350.705 62.621C350.501 62.6976 350.316 62.7899 350.312 62.8056C350.181 63.5223 349.774 63.754 349.289 63.8895C348.808 64.0054 348.28 64.0211 347.885 64.3392C347.677 64.51 347.404 64.6377 347.145 64.6691C346.888 64.6907 346.644 64.618 346.509 64.4217C346.318 64.1389 346.096 63.9072 345.839 63.7246C345.715 63.6244 345.582 63.5341 345.444 63.4497C345.305 63.3691 345.164 63.2886 345.02 63.2042C344.877 63.1217 344.73 63.0432 344.582 62.9646C344.437 62.8841 344.296 62.7918 344.154 62.7054C343.866 62.5385 343.612 62.3264 343.387 62.1085C343.129 61.8453 343.094 61.537 343.222 61.2307C343.422 61.1836 343.553 61.5626 343.791 61.2386C343.604 61.2248 343.418 61.2111 343.227 61.1914C343.147 60.9519 343.019 60.7712 342.823 60.6377C342.634 60.4983 342.393 60.3903 342.075 60.3098C341.678 60.2057 341.336 60.027 341.148 59.7972C340.979 59.5518 340.975 59.2474 341.285 58.8881C341.554 58.9647 341.827 59.0295 342.094 59.0884L342.279 59.0982L342.118 59.0255C341.851 58.9666 341.574 58.9057 341.309 58.8272C341.014 58.6622 340.722 58.4894 340.571 58.2558C340.423 58.0221 340.368 57.7531 340.573 57.4153C340.743 57.1306 340.928 56.8655 341.118 56.5965C341.164 56.5297 341.207 56.4629 341.248 56.3962L341.307 56.298C341.323 56.2646 341.344 56.2332 341.374 56.1979C341.476 56.0624 341.57 55.9249 341.633 55.7874C341.867 55.2612 341.831 55.1277 341.625 55.1591C341.523 55.1767 341.386 55.2376 341.236 55.3279C341.201 55.3496 341.162 55.3731 341.122 55.3986C341.083 55.4242 341.067 55.4477 341.038 55.4733C340.987 55.5243 340.936 55.5793 340.887 55.6343C340.608 55.434 340.17 55.2082 340.143 54.9765C340.062 54.0182 340.099 52.9853 340.567 52.1822C340.683 51.9662 340.838 51.8915 340.981 51.8915C341.181 51.9033 341.403 51.9937 341.627 52.0997C342.073 52.3137 342.577 52.5769 343.023 52.5356C342.956 52.2921 342.74 52.1036 342.448 51.9269C342.157 51.7521 341.798 51.595 341.478 51.4222C341.401 51.381 341.329 51.3398 341.26 51.2946C341.193 51.2514 341.118 51.2023 341.087 51.163C341.009 51.0805 340.946 50.9902 340.904 50.8979C340.818 50.7114 340.838 50.5189 340.991 50.3501C341.334 49.9534 341.6 49.5528 341.888 49.1895C342.034 49.0089 342.191 48.8439 342.36 48.7143C342.53 48.5847 342.709 48.4944 342.884 48.4237C343.233 48.2863 343.549 48.2215 343.875 48.1272C344.199 48.0329 344.541 47.9407 344.948 47.8876C345.111 47.8641 345.25 47.8248 345.38 47.7737C345.617 47.6873 345.814 47.5499 346.108 47.487C346.251 47.4537 346.413 47.4321 346.599 47.436C346.693 47.438 346.791 47.4458 346.899 47.4635C347.011 47.4851 347.131 47.5145 347.259 47.5538C347.705 47.6932 347.974 47.705 348.146 47.6049C348.325 47.5145 348.404 47.3044 348.441 46.9942C348.461 46.8214 348.478 46.6132 348.529 46.4286C348.578 46.244 348.671 46.0968 348.812 46.03C349.091 45.9024 349.603 46.1223 350.306 47.1964C350.505 47.5008 350.868 47.4203 351.009 47.1827C351.157 46.9313 351.383 46.7428 351.673 46.6329C351.964 46.519 352.307 46.4581 352.681 46.4208C353.054 46.3756 353.456 46.3913 353.865 46.3874C354.275 46.3913 354.697 46.3756 355.112 46.3697C355.926 46.3462 356.612 46.3285 357.091 46.3953C357.58 46.4522 357.894 46.5425 358.045 46.6878C358.352 46.9804 358.006 47.5067 357.301 48.5219C357.717 48.569 358.139 48.6495 358.571 48.73C358.795 48.7634 358.98 48.8282 359.19 48.8734C359.394 48.9225 359.602 48.9696 359.816 49.0089C359.924 49.0285 360.032 49.0482 360.142 49.0639C360.252 49.0796 360.368 49.0953 360.468 49.113C360.675 49.1463 360.891 49.1719 361.116 49.1876C361.568 49.219 362.065 49.2092 362.626 49.1405C363.208 49.058 363.856 49.5371 363.512 49.9416C363.049 50.4659 363.239 50.7605 363.598 51.0688C363.777 51.2219 363.997 51.3731 364.195 51.5243C364.408 51.6834 364.586 51.8189 364.708 51.9112L364.771 51.9603L364.779 51.9662L364.783 51.9701C364.783 51.9701 364.771 51.974 364.765 51.9779L364.68 52.0074L364.512 52.0683C364.278 52.1507 364.046 52.2332 363.814 52.3157L363.636 52.3785L363.545 52.4099L363.5 52.4257L363.479 52.4335V52.4374L363.504 52.4885C363.52 52.5219 363.534 52.5572 363.545 52.5906L363.555 52.6161C363.555 52.6161 363.549 52.6201 363.565 52.622H363.622L363.736 52.6299C363.889 52.6377 364.042 52.6436 364.193 52.6515C364.5 52.6652 364.806 52.6809 365.11 52.6947L365.224 52.7006L365.232 52.7418L365.244 52.8243L365.266 52.9912C365.277 53.1031 365.285 53.215 365.289 53.325C365.307 54.2126 365.032 54.9666 364.71 55.5066C364.384 56.0545 364.011 56.4335 363.677 56.7477C363.341 57.0619 363.037 57.325 362.782 57.6274C362.452 58.0064 362.261 57.9023 362.1 57.7275C361.939 57.5469 361.798 57.2838 361.594 57.2523C361.006 57.1542 360.73 57.2131 360.584 57.4232C360.443 57.6313 360.443 57.9828 360.494 58.3873C360.724 58.4266 360.867 58.4914 360.912 58.6014C360.955 58.7133 360.898 58.8684 360.72 59.0668C360.68 59.1355 360.645 59.2042 360.594 59.269C360.588 59.2769 360.461 59.2474 360.463 59.2396C360.486 59.1689 360.525 59.1001 360.559 59.0314C360.47 58.9293 360.376 58.8311 360.272 58.7408C359.846 58.892 359.447 59.0609 359.037 59.2553C358.933 59.3063 358.829 59.3554 358.725 59.4065L358.566 59.485L358.487 59.5263L358.44 59.5596C358.316 59.65 358.196 59.754 358.081 59.8699C358.051 59.9347 358.026 60.0564 357.992 60.0564C357.851 60.0564 357.857 59.9602 358.012 59.8169C357.645 59.4183 357.352 59.0137 356.999 59.8404C356.659 60.6338 356.15 61.4094 355.255 60.3372L355.31 60.1821L355.198 60.2921C354.897 60.6161 354.56 60.8674 354.202 61.0776C354.112 61.1306 354.022 61.1816 353.929 61.2307C353.878 61.2562 353.847 61.2778 353.78 61.3053L353.584 61.3858C353.311 61.4919 353.026 61.5881 352.739 61.6863C351.587 62.0849 350.395 62.4443 349.181 63.0707C348.631 63.3475 348.225 63.4438 347.873 63.3377C347.522 63.2336 347.22 62.9136 346.913 62.3618C346.683 61.9357 346.21 62.136 345.988 62.2538C345.474 62.5267 344.948 62.7761 344.421 62.9862C344.158 63.0903 343.897 63.1846 343.638 63.267C343.381 63.3456 343.129 63.4084 342.882 63.4555C342.389 63.5498 341.918 63.5851 341.505 63.5282C341.097 63.4673 340.741 63.32 340.482 63.0687C340.398 62.9882 340.07 62.9489 339.999 62.998C338.295 64.1919 336.83 64.5375 335.53 64.6455C334.88 64.7005 334.259 64.6927 333.637 64.7044C333.014 64.7162 332.374 64.7437 331.65 64.8654C331.112 64.9558 330.438 65.0716 329.977 65.054C330.006 64.8046 330.11 64.512 330.328 64.1841C330.438 64.0191 330.576 63.8463 330.748 63.6617C330.925 63.4752 331.12 63.2926 331.396 63.0609C332.274 62.3323 331.838 62.3245 331.612 62.2361C331.174 62.0731 331.063 61.594 331.088 60.9911C331.114 60.3844 331.279 59.6578 331.406 58.945C331.616 57.7688 331.852 56.5827 332.107 55.3849C332.361 54.189 332.649 52.9794 332.987 51.76C333.672 49.325 334.583 46.8233 335.956 44.4237C336.109 44.1606 336.251 43.8955 336.386 43.6265C336.535 43.3634 336.683 43.1002 336.826 42.8351L337.042 42.4365C337.12 42.3049 337.203 42.1773 337.283 42.0477C337.446 41.7905 337.613 41.5332 337.788 41.2799C337.973 41.0325 338.175 40.7949 338.381 40.5632C338.587 40.3315 338.803 40.1056 339.055 39.9093C339.3 39.709 339.559 39.5205 339.83 39.3516C340.103 39.1827 340.415 39.0551 340.728 38.9373C340.957 38.8077 341.081 39.2829 341.358 38.843C341.158 38.8469 340.954 38.8528 340.747 38.8607C340.82 38.682 340.902 38.5033 340.993 38.3285C341.087 38.1597 341.195 37.9967 341.307 37.8356C341.419 37.6746 341.539 37.5156 341.664 37.3604C341.788 37.2034 341.92 37.0521 342.065 36.9127C342.35 36.63 342.658 36.3649 342.984 36.1174C343.139 35.9977 343.332 35.874 343.518 35.7561L343.801 35.5853L344.025 35.4557C345.25 34.792 346.668 34.4228 348.042 34.1636C349.495 33.8828 350.982 33.6707 352.486 33.6393C353.998 33.5922 355.43 33.7669 356.686 34.1086C357.383 34.2971 358.035 34.4817 358.662 34.6643C359.286 34.847 359.881 35.0315 360.435 35.2259C360.991 35.4203 361.513 35.6285 361.99 35.8602C362.454 36.086 362.929 36.357 363.379 36.6908C364.272 37.3467 365.387 38.1538 366.85 37.9515C367.913 37.8101 367.877 38.7291 368.013 39.4184C368.331 39.2338 368.667 39.061 369.034 39.2357C369.101 39.2672 369.13 39.5794 369.061 39.652C368.753 39.9701 368.402 39.7875 368.066 39.7031C368.521 40.4061 369.158 40.573 369.863 40.6692C370.566 40.7733 371.343 40.8008 372.001 41.2269C372.521 41.5627 373.189 41.8533 373.784 42.2382C374.379 42.6113 374.901 43.0884 375.084 43.6717C375.2 44.0447 375.4 44.304 375.642 44.5101C375.881 44.7261 376.168 44.8773 376.437 45.0541C376.975 45.3957 377.474 45.7924 377.377 46.5838L377.163 46.519L377.372 46.6387C377.46 46.8096 377.55 46.9745 377.643 47.1375C377.733 47.3044 377.825 47.4674 377.921 47.6284C378.118 47.9465 378.302 48.2764 378.505 48.5965C378.891 49.2485 379.294 49.9141 379.632 50.6505C379.714 50.8331 379.801 51.0157 379.877 51.2043C379.952 51.3928 380.023 51.5813 380.093 51.7737L380.195 52.0643L380.288 52.3687C380.347 52.5729 380.407 52.7771 380.458 52.9853C380.659 53.8179 380.782 54.6799 380.82 55.5459C380.889 57.2779 380.608 59.0059 380.04 60.5493C379.726 61.4055 379.335 62.2165 378.913 62.9823C378.487 63.7462 378.031 64.4688 377.578 65.1757C376.665 66.5876 375.783 67.9248 375.047 69.4918C374.817 69.9886 374.461 70.6052 374.01 70.8507C372.926 71.4476 371.893 72.0525 370.84 72.6474L370.047 73.0893L369.24 73.5213L368.83 73.7314L368.625 73.8374L368.435 73.9297L367.671 74.2989L367.288 74.4835L366.903 74.6523L366.132 74.9862C365.615 75.1982 365.097 75.3828 364.572 75.5654C364.054 75.7206 363.526 75.8836 363.003 75.9974C362.483 76.1035 361.951 76.2135 361.435 76.2547C360.942 76.3018 360.449 76.3863 359.97 76.4511L359.245 76.5649C359.005 76.6003 358.77 76.6297 358.53 76.6612C358.293 76.6906 358.051 76.7201 357.815 76.7397C357.58 76.7554 357.346 76.7672 357.111 76.7711C356.635 76.7849 356.176 76.7495 355.716 76.669L355.555 76.5748L355.669 76.7161C355.465 77.0637 355.106 77.3759 354.778 77.2385C353.605 76.7672 352.472 76.6612 351.343 76.6239C350.216 76.5826 349.13 76.5944 348.101 76.3489C346.575 75.9837 344.942 75.7736 343.163 75.4378C342.713 75.3475 342.271 75.267 341.804 75.155C341.572 75.1001 341.344 75.051 341.109 74.9901L340.398 74.7957L340.042 74.6936L339.677 74.5738L338.951 74.3264C338.703 74.2302 338.456 74.13 338.21 74.0299L337.843 73.8747C337.719 73.8197 337.594 73.7569 337.47 73.696C335.728 72.8634 333.882 71.6087 332.227 69.969L331.622 69.3347C331.422 69.1227 331.218 68.9106 331.037 68.6828L330.481 68.0053C330.299 67.7776 330.102 67.5557 329.939 67.3161C329.769 67.0785 329.6 66.8409 329.431 66.6033L329.175 66.2459C329.087 66.1261 329.007 66.0063 328.932 65.8846C328.628 65.4015 328.304 64.9106 328.005 64.4256C327.809 64.0898 327.612 63.6814 327.473 63.267C327.438 63.163 327.404 63.0589 327.379 62.9587C327.357 62.8586 327.339 62.7604 327.328 62.6642C327.302 62.4717 327.294 62.2852 327.31 62.1183C327.369 61.321 327.406 60.6141 327.365 59.9033C327.351 59.7226 327.351 59.5557 327.343 59.3868C327.336 59.218 327.326 59.0491 327.312 58.8802C327.286 58.5444 327.245 58.1988 327.228 57.8827L327.147 56.9087C327.121 56.5847 327.118 56.2823 327.108 55.9661C327.088 55.3299 327.137 54.7467 327.247 54.1576C327.489 53.0246 327.636 51.9073 327.824 50.8547C328.003 49.7845 328.221 48.7831 328.563 47.8444C328.69 47.5106 328.714 47.112 328.714 46.7232C328.714 46.3501 328.69 45.9652 328.734 45.6098C328.818 44.897 329.177 44.2961 330.475 44.1488C330.713 44.1213 330.462 43.7797 330.344 43.5617C329.496 41.9652 329.492 41.9436 330.902 40.732C331.021 40.6299 331.192 40.6201 331.121 40.4198C330.138 37.6275 331.461 35.1886 332.402 32.7419C333.15 30.794 333.743 28.6555 335.249 27.1062C336.796 25.5176 338.004 23.7778 339.116 21.9712C340.225 20.1647 341.232 18.2894 342.356 16.4651C342.599 16.0783 342.843 15.7032 343.133 15.3655C343.422 15.0277 343.771 14.7312 344.201 14.4897C346.299 13.3252 347.765 11.6168 349.276 9.90649C349.651 9.49216 350.037 9.08568 350.448 8.69688C350.858 8.312 351.269 7.92908 351.679 7.54421C352.095 7.16718 352.498 6.78427 352.877 6.38368C353.268 5.99291 353.631 5.58447 353.957 5.14265C354.179 4.85203 354.403 4.55748 354.627 4.26293C354.852 3.96838 355.066 3.65812 355.298 3.36357C355.758 2.76858 356.197 2.14806 356.659 1.54915C356.934 1.18783 357.26 0.86972 357.643 0.632117C358.026 0.394514 358.448 0.217785 358.888 0.111747C359.771 -0.0944377 360.741 0.00570904 361.607 0.416114C362.705 0.944339 362.729 1.99686 362.442 2.66058C362.334 2.91782 362.224 3.1731 362.116 3.43033C362.014 3.6915 361.914 3.95267 361.812 4.2158C361.605 4.73224 361.391 5.23494 361.158 5.72193C360.922 6.20499 360.643 6.64485 360.327 7.05918C360.007 7.46959 359.61 7.81716 359.147 8.12741C358.819 8.33949 358.503 8.56335 358.196 8.79899C357.898 9.04248 357.607 9.29383 357.325 9.555C357.038 9.81224 356.773 10.0891 356.51 10.3719C356.248 10.6546 355.985 10.9354 355.74 11.2339C353.89 13.4352 352.296 15.8505 350.627 18.2265C349.268 20.1509 348.69 22.4445 347.856 24.5908C346.772 27.3634 345.774 30.2009 345.118 33.1032C344.594 35.4262 343.85 37.6589 343.112 39.9112C342.373 42.1616 341.643 44.4277 341.162 46.7723C341.022 47.4674 340.881 48.1625 340.749 48.8616L340.551 49.9082L340.376 50.9117C340.158 52.2313 340.003 53.5057 339.942 54.6957C339.879 55.8856 339.919 56.9892 340.066 57.9141C340.215 58.8429 340.453 59.5695 340.751 60.1114C341.164 60.8007 341.57 61.4035 342.544 61.8768C343.493 62.3461 344.871 62.6112 346.428 62.4128C346.609 62.3932 346.809 62.4364 346.992 62.4796C347.626 62.619 348.298 62.7231 349.008 62.8016C349.356 62.8429 349.733 62.8763 350.1 62.9077C350.471 62.9411 350.829 62.9607 351.196 62.9823C352.645 63.0628 354.045 63.0569 355.377 62.9686C356.708 62.8822 357.969 62.7152 359.137 62.4855C360.307 62.2557 361.385 61.9671 362.389 61.6215C362.96 61.4212 363.367 61.2464 363.801 60.9617C364.225 60.6868 364.625 60.351 364.975 59.9759C365.67 59.2219 366.167 58.299 366.32 57.4507C366.334 57.3741 366.336 57.2877 366.383 57.2347C366.546 57.0717 366.656 56.8949 366.756 56.7182C366.839 56.5415 366.911 56.3589 366.937 56.188C367.007 55.8405 366.948 55.5322 366.858 55.2769C366.803 55.1512 366.75 55.0354 366.679 54.9293C366.652 54.8783 366.599 54.8037 366.569 54.7428C366.524 54.6819 366.491 54.621 366.448 54.5621C366.281 54.3284 366.124 54.1046 365.933 53.8061C365.692 53.4252 365.326 52.9774 364.794 52.5199C364.274 52.0604 363.604 51.597 362.835 51.1689C361.289 50.3049 359.367 49.598 357.215 49.0874C356.977 49.0324 356.714 48.9382 356.49 48.8439C356.258 48.7458 356.048 48.6417 355.842 48.5317C355.439 48.3177 355.082 48.1017 354.74 47.9603C354.43 47.8287 354.147 47.7305 353.9 47.6638C353.651 47.595 353.429 47.5499 353.254 47.5381C353.075 47.5244 352.928 47.5244 352.82 47.5499C352.765 47.5617 352.72 47.5872 352.671 47.595L352.635 47.6029L352.598 47.6225C352.573 47.6343 352.547 47.6461 352.523 47.654C352.321 47.7423 352.095 47.8739 351.836 48.0526C351.771 48.1056 351.705 48.1409 351.638 48.1959C351.569 48.2548 351.5 48.3079 351.428 48.3569L351.375 48.406C351.361 48.4198 351.326 48.4453 351.345 48.4394C351.361 48.4394 351.381 48.4316 351.386 48.4335L351.383 48.4826C351.383 48.6574 351.392 48.6927 351.361 48.7536C351.339 48.8027 351.3 48.897 351.422 48.8636C351.467 48.8479 351.508 48.8263 351.549 48.7988C351.626 48.7477 351.61 48.7359 351.559 48.8164C351.514 48.895 351.436 49.0658 351.528 49.3506C351.553 49.4232 351.604 49.3623 351.632 49.2936L351.669 49.1994C351.669 49.1994 351.687 49.1856 351.697 49.1797C351.691 49.1797 351.734 49.1699 351.762 49.164L351.852 49.1444C351.974 49.1208 352.095 49.1012 352.217 49.0874C353.079 48.9971 353.935 48.8636 354.789 48.7084L355.428 48.5867L355.746 48.5239L355.905 48.4924L355.985 48.4767L356.025 48.4689H356.034L356.036 48.4669C357.385 54.5621 356.41 50.1537 356.71 51.5126V51.5008L356.696 51.4517C356.669 51.3221 356.633 51.1866 356.6 51.0648C356.571 50.949 356.539 50.8351 356.504 50.7232C356.476 50.625 356.447 50.5307 356.413 50.4365C356.384 50.3481 356.362 50.2813 356.333 50.2067C356.235 49.9357 356.178 49.8277 356.195 49.865C356.223 49.9298 356.612 50.6564 357.26 51.4124C357.58 51.7914 357.961 52.1782 358.344 52.4905C358.727 52.8046 359.117 53.0442 359.416 53.1679C359.718 53.2975 359.924 53.3034 359.956 53.2975H359.962H359.964C361.383 53.1404 347.602 54.6583 353.437 54.0182V54.026L353.448 54.0869L353.474 54.2087C353.48 54.2381 353.478 54.2204 353.478 54.2244V54.2204V54.2126C353.478 54.2028 353.478 54.1949 353.478 54.1851C353.478 54.1478 353.466 54.1223 353.456 54.0948C353.427 54.0241 353.364 53.9279 353.232 53.8454C353.105 53.7629 352.91 53.6981 352.755 53.7177C352.525 53.7472 352.36 53.7374 352.113 53.6981L351.822 53.649C351.718 53.6313 351.591 53.6078 351.487 53.651C351.436 53.6726 351.39 53.702 351.351 53.7374C351.31 53.7708 351.286 53.814 351.243 53.8513C351.178 53.9337 351.119 54.0241 351.082 54.1242C351.007 54.3226 351.002 54.5543 351.102 54.7526C351.196 54.9509 351.396 55.1119 351.657 55.1551C351.909 55.1944 352.08 55.2258 352.243 55.2553C352.404 55.2828 352.559 55.3063 352.722 55.2808C352.881 55.2553 353.048 55.1787 353.152 55.0314C353.258 54.8901 353.266 54.6701 353.185 54.5111C353.109 54.3658 353.124 54.3284 353.175 54.2185C353.224 54.1183 353.301 53.9436 353.285 53.7727C353.281 53.7217 353.407 53.4703 353.448 53.2622C353.525 52.9205 353.715 52.351 354.051 52.0722C354.155 51.9838 354.267 51.9033 354.379 51.8228C354.487 51.7443 354.601 51.6618 354.719 51.5616C354.951 51.3653 355.2 51.1159 355.461 50.6505L355.571 50.5857L355.469 50.6171C355.447 50.5759 355.428 50.5229 355.392 50.5013C355.324 50.4541 355.28 50.405 355.251 50.354C355.218 50.3049 355.204 50.2519 355.204 50.1949C355.204 50.081 355.253 49.9534 355.324 49.8218C355.461 49.5587 355.683 49.3034 355.657 49.0933C355.616 48.8596 355.538 48.7556 355.449 48.734C355.353 48.7183 355.247 48.7811 355.143 48.8675C354.935 49.0324 354.719 49.3054 354.554 49.1719C354.517 49.1463 354.464 49.0776 354.469 49.0226C354.489 48.8125 354.489 48.622 354.477 48.4551C354.462 48.2902 354.43 48.1468 354.387 48.0212C354.302 47.7639 354.155 47.6068 353.988 47.4929C353.814 47.3987 353.613 47.3535 353.401 47.3751C353.344 47.379 353.303 47.381 353.234 47.3928L353.124 47.4124L353.065 47.436L352.955 47.4831C352.922 47.5047 352.891 47.5302 352.859 47.5518C352.82 47.5813 352.783 47.5813 352.743 47.5636C352.708 47.5538 352.673 47.5204 352.633 47.4713C352.559 47.3712 352.474 47.2082 352.447 47.0079V46.9922ZM344.431 15.8662L344.573 15.7877L344.468 15.7071L344.431 15.8642V15.8662ZM336.121 27.5323V27.3713L336.005 27.4832L336.121 27.5343V27.5323ZM335.337 29.5372C335.365 29.4744 335.343 29.3919 335.343 29.3173L335.161 29.388C335.131 29.4567 335.063 29.5353 335.082 29.5942C335.139 29.765 335.249 29.7454 335.335 29.5372H335.337ZM334.362 31.658L334.483 31.5519L334.375 31.4969L334.362 31.656V31.658ZM332.765 34.7272L332.961 34.7016C333.056 34.5583 333.494 34.627 333.256 34.2834L332.938 34.6545L332.765 34.7272ZM332.416 36.9343L332.681 36.6849L332.704 36.2549C332.618 36.3374 332.49 36.4041 332.453 36.5043C332.402 36.6339 332.425 36.789 332.416 36.9343ZM334.416 57.9966V57.8454L334.279 58.0555L334.416 57.9966ZM342.666 61.7354C342.839 61.5135 342.786 61.4074 342.522 61.4664C342.448 61.484 342.32 61.6018 342.216 61.6745C342.055 61.8944 342.098 62.0005 342.367 61.9435C342.442 61.9278 342.607 61.808 342.666 61.7354ZM360.665 55.76C360.624 55.7796 360.582 55.7973 360.541 55.8149L360.682 55.9367L360.665 55.76ZM359.944 53.2798H359.958H359.966L356.836 53.6235L356.824 53.6274L356.802 53.6372H356.745H356.718H356.704H356.696H356.69L359.97 53.2759H359.964C359.964 53.2759 359.948 53.2759 359.944 53.2759C359.93 53.2759 359.917 53.2759 359.907 53.2759C359.834 53.2661 359.866 53.2759 359.946 53.2759L359.944 53.2798ZM361.58 52.8341C361.543 52.8694 361.491 52.8891 361.472 52.9382C361.493 53.0167 361.539 53.0717 361.576 53.1149C361.599 53.162 361.672 53.1876 361.792 53.1758C361.819 53.1738 361.845 53.1404 361.87 53.0992C361.876 53.0894 361.882 53.0776 361.888 53.0658C361.888 53.058 361.876 53.0501 361.87 53.0422C361.855 53.0285 361.841 53.0128 361.829 53.001L361.623 52.9205C361.607 52.891 361.594 52.8596 361.578 52.8302L361.58 52.8341ZM362.21 51.2887L362.216 51.4065L362.373 51.3849C362.32 51.3496 362.265 51.3201 362.212 51.2887H362.21ZM356.009 50.8704L356.146 50.894L356.08 50.8213L356.007 50.8685L356.009 50.8704ZM355.445 47.8817C355.61 47.9132 355.854 47.813 356.027 47.7305C356.272 47.6167 356.28 47.4144 356.019 47.3633C355.834 47.328 355.61 47.4497 355.416 47.5047C355.208 47.6559 355.212 47.8405 355.443 47.8817H355.445ZM344.979 50.4679C345.307 50.5975 345.421 50.5759 345.274 50.3972C345.181 50.2833 345.054 50.1419 344.883 50.0477C344.606 49.8945 344.427 49.9181 344.557 50.0987C344.641 50.2146 344.832 50.3442 344.979 50.4679ZM343.983 58.7545C344.04 58.7428 344.115 58.6308 344.182 58.566C344.164 58.5189 344.166 58.4305 344.123 58.4325C344.036 58.4384 343.879 58.4836 343.836 58.5287C343.667 58.7074 343.734 58.8017 343.983 58.7545ZM344.602 60.0309L344.549 59.9583L344.394 60.1016L344.602 60.0329V60.0309ZM356.203 51.0688C356.262 51.1139 356.309 51.1807 356.372 51.2121C356.472 51.2592 356.572 51.1689 356.563 51.0177C356.561 50.9254 356.466 50.8822 356.398 50.8567C356.292 50.8155 356.223 50.9077 356.203 51.0688Z" fill="#091818"/>
<path d="M351.595 46.8421C351.648 46.7518 351.685 46.6732 351.675 46.5692C351.668 46.469 351.624 46.3591 351.53 46.257C351.457 46.1745 351.212 46.1568 351.126 46.2452C350.919 46.4219 351 46.6615 351.228 46.8186C351.322 46.8853 351.479 46.8323 351.593 46.8421H351.595Z" fill="#091818"/>
<path d="M358.57 58.9962C358.617 58.9471 358.664 58.8961 358.709 58.845C358.67 58.7842 358.617 58.6703 358.594 58.6781C358.539 58.6938 358.501 58.7684 358.456 58.8175C358.493 58.8784 358.531 58.9373 358.57 58.9962Z" fill="#091818"/>
<path d="M420.239 63.7543C420.174 64.0116 420.164 64.3572 420.076 64.6203C419.988 64.8815 419.803 65.0719 419.391 64.958C418.597 64.744 417.757 64.581 417.011 64.1706C416.331 63.7916 415.74 63.2772 415.177 62.6802C414.904 62.8314 414.768 63.1142 414.635 63.3773C414.499 63.6385 414.356 63.8879 413.999 63.933C413.704 63.9664 413.402 63.9016 413.176 63.7641C412.956 63.6247 412.799 63.4284 412.795 63.2065C412.767 62.2521 412.455 61.5413 412.141 60.8069C411.831 60.0823 411.528 59.3322 411.625 58.5428C411.283 58.5094 410.947 58.4465 410.829 58.1265C410.806 58.0695 411.012 57.8633 411.098 57.8673C411.509 57.8751 411.587 58.1736 411.725 58.4112C412.015 58.3837 412.591 58.5526 412.41 58.0872C412.294 57.7652 411.982 57.6257 411.628 57.506C411.271 57.3901 410.869 57.2998 410.594 57.0916C410.254 56.8403 410.277 56.6439 410.448 56.5222C410.621 56.3984 410.945 56.3395 411.234 56.3101L411.412 56.367L411.271 56.2708C411.244 56.0902 411.253 55.9095 411.318 55.7544C411.383 55.5992 411.511 55.4657 411.748 55.3734L411.899 55.4637L411.78 55.3459C411.738 55.1319 411.693 54.9159 411.664 54.6979L411.611 54.37L411.572 54.0381C411.513 53.5924 411.483 53.1348 411.452 52.6891C411.434 52.4633 411.409 52.2355 411.381 52.0018C411.367 51.774 411.348 51.5423 411.322 51.3067C411.301 51.073 411.251 50.8256 411.234 50.588C411.208 50.3484 411.175 50.1029 411.134 49.8496C411.061 49.449 411.1 49.0897 411.198 48.7519C411.247 48.5831 411.314 48.4201 411.395 48.263C411.479 48.1079 411.587 47.9684 411.703 47.829C411.97 47.5207 412.239 47.3519 412.51 47.3892C412.785 47.4284 413.032 47.6543 413.298 48.1118C413.429 48.3455 413.474 48.8737 413.936 48.6381C414.126 48.5301 414.222 47.9233 414.189 47.8997C413.555 47.5443 413.523 47.1751 413.604 46.7942C413.7 46.427 413.902 46.0598 413.708 45.667C413.496 45.2507 413.578 44.7402 414.056 44.6754C414.224 44.6538 414.38 44.6184 414.523 44.5713C414.668 44.5281 414.808 44.4771 414.935 44.4142C415.192 44.2905 415.416 44.1295 415.63 43.9547C416.072 43.6288 416.457 43.2144 416.95 42.9788C417.235 42.8354 417.533 42.857 417.853 43.0298C417.896 43.2007 417.5 43.2321 417.826 43.4952C417.847 43.346 417.869 43.1928 417.894 43.0455C418.389 43.0102 418.625 42.7392 418.745 42.2247C418.9 41.5924 419.232 41.0662 420.035 41.6749C420.005 41.9106 419.976 42.1383 419.956 42.3759L419.97 42.5409L420.019 42.4015C420.039 42.1658 420.068 41.9361 420.096 41.7004C420.198 41.4393 420.312 41.1918 420.488 41.0485C420.665 40.9071 420.913 40.8796 421.26 41.0426C421.557 41.182 421.855 41.3489 422.15 41.4943C422.444 41.6415 422.731 41.7593 422.998 41.7849C423.518 41.834 423.634 41.7711 423.56 41.6396C423.485 41.5119 423.214 41.3215 422.957 41.1703C423.055 40.8914 423.094 40.4299 423.287 40.371C424.076 40.1197 424.952 39.8742 425.786 40.0569C426.236 40.1629 426.238 40.479 426.201 40.8325C426.16 41.186 426.089 41.5748 426.26 41.8595C426.444 41.7495 426.535 41.5512 426.592 41.3195C426.648 41.0858 426.67 40.8089 426.713 40.5537C426.79 40.0686 427.065 39.6759 427.454 39.8467C427.897 40.0451 428.296 40.155 428.697 40.2375C429.097 40.32 429.5 40.3789 429.92 40.4594C430.342 40.538 430.772 40.6577 431.194 40.8423C431.615 41.0289 432.027 41.29 432.347 41.6651C432.636 42.0068 433.015 42.319 433.284 42.7608C433.549 43.1928 433.7 43.7564 433.492 44.3003C433.347 44.6597 433.292 44.9287 433.337 45.2016C433.382 45.4726 433.523 45.7475 433.737 46.0637C433.977 46.4113 434.305 46.8747 434.317 47.2065C434.328 47.5345 434.03 47.7171 433.066 47.4343C432.793 47.3558 432.757 47.6916 432.907 47.937C433.549 48.9915 433.076 49.832 433.079 50.7568C433.087 52.5654 433.034 52.5536 430.974 51.3891C430.794 52.3749 430.171 53.2546 431.155 54.4957C431.424 54.8354 431.249 55.3086 430.684 55.1869C429.951 55.0298 429.651 55.2497 429.551 55.5659C429.502 55.7249 429.502 55.9056 429.523 56.0764C429.529 56.1196 429.535 56.1608 429.543 56.2021C429.551 56.2414 429.559 56.2826 429.561 56.3336C429.567 56.4279 429.576 56.5143 429.584 56.587C429.673 57.3528 429.317 57.8162 428.905 58.1579C428.488 58.5055 428.019 58.7391 427.75 59.2222C427.395 59.8349 427.071 58.8628 426.727 58.8039C426.236 58.7077 426.02 58.7882 425.949 59.0023C425.881 59.2163 425.957 59.556 426.091 59.9429C426.478 59.9762 426.623 60.1706 426.427 60.581C426.411 60.6498 426.397 60.7185 426.372 60.7853C426.368 60.7931 426.26 60.7735 426.26 60.7656C426.262 60.6969 426.279 60.6282 426.289 60.5594C426.195 60.4672 426.095 60.3808 425.991 60.3022C425.574 60.5516 425.199 60.8226 424.864 61.1544C424.697 61.3096 424.541 61.4804 424.39 61.663C424.367 61.7337 424.353 61.8594 424.314 61.8653C424.143 61.8928 424.141 61.7966 424.302 61.6238C424.058 61.4686 423.838 61.2919 423.646 61.2683C423.452 61.2408 423.287 61.3587 423.108 61.773C422.935 62.1755 422.684 62.5643 422.326 62.7116C421.973 62.8569 421.514 62.7529 421.021 62.1579L421.099 62.0126L420.958 62.1048C420.571 62.3758 420.117 62.5545 419.634 62.6802C419.393 62.747 419.141 62.7961 418.886 62.8373C418.759 62.8589 418.631 62.8766 418.497 62.8942L418.297 62.9178L418.146 62.9433C417.335 63.0808 416.506 63.1672 415.668 63.4971C414.912 63.7916 414.58 63.4971 414.114 62.2011C413.938 61.6984 413.598 61.7671 413.445 61.8201C412.708 62.0774 412.035 62.2678 411.145 62.0597C410.317 61.8751 409.541 61.3861 409.064 60.5045C408.987 60.3611 408.718 60.1451 408.669 60.1628C407.422 60.7008 406.313 60.2688 405.443 59.5148C405.225 59.3263 405.015 59.122 404.82 58.9002C404.622 58.6842 404.439 58.4544 404.259 58.2247C404.074 57.9988 403.909 57.7593 403.729 57.5374C403.558 57.3096 403.379 57.0916 403.195 56.8835C402.876 56.5261 402.49 56.0548 402.362 55.556C402.232 55.0592 402.354 54.5585 402.99 54.1913C403.098 54.1285 403.169 54.0715 403.208 54.0146C403.403 53.773 403.016 53.5983 402.764 53.4353C402.466 53.2448 402.215 53.0092 402.036 52.7343C401.942 52.5968 401.859 52.4515 401.785 52.3003C401.708 52.1491 401.643 51.992 401.598 51.827C401.504 51.4991 401.421 51.1535 401.38 50.7961C401.347 50.4387 401.315 50.0735 401.302 49.7043C401.221 47.2694 401.861 44.7736 403.096 42.5546C403.701 41.4393 404.465 40.3985 405.329 39.4501L405.659 39.0986C405.771 38.9808 405.883 38.8629 405.987 38.7707C406.199 38.5704 406.413 38.374 406.629 38.1776C406.849 37.9852 407.083 37.8026 407.31 37.62C407.424 37.5316 407.546 37.4295 407.654 37.3549L407.984 37.1212C408.76 36.5674 409.466 35.9548 410.24 35.4992C410.433 35.3892 410.629 35.2871 410.831 35.1968C411.033 35.1084 411.238 35.0436 411.45 34.9906C411.876 34.8806 412.318 34.8708 412.789 34.9572C412.97 34.9474 412.964 35.4167 413.235 35.1673C413.097 35.077 412.958 34.9847 412.816 34.9003C413.488 33.9263 414.423 33.4275 415.371 33.1762C416.327 32.9229 417.298 32.917 418.173 32.8699C419.102 32.8188 419.956 32.6637 420.773 32.4948C421.616 32.322 422.527 32.1217 423.532 32.0451C423.813 32.0255 424.086 31.9941 424.382 31.9685L424.816 31.9234L425.27 31.8821C425.567 31.8507 425.887 31.8291 426.203 31.8095L426.446 31.7957L426.735 31.7898L427.312 31.7859C428.846 31.8055 430.407 32.0942 431.756 32.8384C432.09 33.0132 432.424 33.2371 432.777 33.4374C432.95 33.5473 433.125 33.6553 433.303 33.7614C433.394 33.8124 433.484 33.8635 433.574 33.9165C433.663 33.9734 433.753 34.0264 433.843 34.0795C434.209 34.2857 434.576 34.4918 434.969 34.6587C435.353 34.8394 435.766 34.9788 436.204 35.0908C436.524 35.1654 436.748 35.295 436.907 35.4521C437.066 35.6092 437.16 35.7879 437.207 35.9862C437.301 36.3809 437.237 36.809 437.211 37.2095C437.598 37.186 438.012 37.1821 438.34 37.5846C438.401 37.6592 438.332 37.993 438.234 38.0264C437.808 38.1816 437.517 37.7888 437.186 37.5296C437.453 38.4918 438.006 38.9965 438.65 39.5247L438.892 39.7191C438.972 39.7839 439.055 39.8526 439.128 39.9057C439.281 40.0195 439.432 40.1374 439.571 40.2611C439.858 40.5105 440.109 40.7854 440.284 41.1212C440.553 41.6513 440.964 42.1953 441.254 42.7412C441.405 43.0161 441.513 43.2871 441.582 43.5561C441.647 43.8251 441.663 44.0902 441.582 44.3435C441.384 44.9837 441.743 45.398 442.036 45.8222C442.183 46.0323 442.326 46.2404 442.37 46.4643C442.411 46.6881 442.364 46.9257 442.146 47.1869L441.983 47.0828L442.116 47.2242C442.128 47.5109 442.152 47.7858 442.189 48.0588C442.226 48.3298 442.289 48.5968 442.348 48.8639C442.462 49.396 442.629 49.9321 442.741 50.4898C442.988 51.6012 443.094 52.7617 443.055 53.9242C443.023 55.0887 442.825 56.2531 442.485 57.3724C442.108 58.6154 441.563 59.8015 441.109 60.9973C440.653 62.1971 440.302 63.4146 440.235 64.8245C440.217 65.2722 440.139 65.8378 439.856 66.1323C438.466 67.5304 437.386 69.0601 436.184 70.5859C435.891 70.9708 435.569 71.338 435.257 71.713C434.937 72.0822 434.601 72.4416 434.258 72.795C433.555 73.4862 432.801 74.1382 431.95 74.6625C431.75 74.7881 431.554 74.9197 431.359 75.0532C431.159 75.1828 430.963 75.3164 430.766 75.4519C430.568 75.5854 430.377 75.7307 430.173 75.8583L429.871 76.0547L429.527 76.2727C429.274 76.4337 428.983 76.5986 428.697 76.7518C428.408 76.905 428.115 77.0483 427.817 77.1779C427.22 77.4352 426.603 77.6374 425.973 77.7533L425.737 77.7277L425.924 77.8181C425.745 78.2403 425.311 78.6899 424.818 78.6723C423.952 78.6389 423.116 78.631 422.279 78.6153C421.023 78.5741 419.764 78.5152 418.527 78.2815C417.292 78.0537 416.08 77.6551 415.01 77.0189C414.501 76.7165 414.004 76.4042 413.517 76.0763C413.272 75.9114 413.036 75.7582 412.783 75.5756L412.477 75.3556C412.384 75.2908 412.306 75.228 412.22 75.1652C411.599 74.7017 410.98 74.2364 410.364 73.7749C409.845 73.3881 409.329 73.0012 408.815 72.6144C408.306 72.2315 407.789 71.8289 407.283 71.3969C406.391 70.635 405.484 69.7612 404.496 68.8756C403.507 67.9899 402.442 67.1043 401.196 66.2835C400.98 66.1382 400.75 65.9536 400.563 65.7337C400.377 65.5098 400.233 65.2624 400.184 65.0229C400.155 64.8795 400.121 64.744 400.082 64.6105C400.045 64.473 400.002 64.3395 399.954 64.2079C399.86 63.9468 399.746 63.7013 399.619 63.4657C399.495 63.2222 399.358 62.9826 399.212 62.7529C399.065 62.5211 398.908 62.2973 398.757 62.0597L398.283 61.3606C398.124 61.1269 397.979 60.8756 397.832 60.6301C397.533 60.1392 397.296 59.613 397.127 59.0651C396.795 57.9812 396.424 56.9247 396.108 55.8624C396.021 55.5953 395.958 55.3322 395.892 55.0671C395.827 54.802 395.764 54.5369 395.707 54.2698C395.601 53.7396 395.538 53.2134 395.501 52.6852C395.475 51.9213 394.984 51.1064 394.833 50.3111C394.794 50.1128 394.768 49.9125 394.78 49.722C394.794 49.5315 394.839 49.345 394.924 49.1663C395.096 48.8089 395.428 48.477 396.035 48.2119C396.257 48.1157 395.923 47.8428 395.752 47.6543C395.12 46.9591 394.827 46.5978 394.81 46.2169C394.802 46.0264 394.863 45.8281 394.998 45.5826C395.138 45.3411 395.346 45.0524 395.627 44.6754C395.723 44.5477 395.888 44.5006 395.776 44.32C395.018 43.0534 394.867 41.7338 394.986 40.483C395.108 39.236 395.481 38.0186 395.764 36.8855C395.874 36.428 395.97 35.9607 396.072 35.4953C396.178 35.0318 396.294 34.5704 396.43 34.1168C396.567 33.6632 396.72 33.2155 396.928 32.7933C397.137 32.3711 397.384 31.9666 397.69 31.5935C398.953 30.052 399.854 28.428 400.601 26.7511C400.974 25.9126 401.321 25.0702 401.645 24.216C401.975 23.3697 402.307 22.5214 402.637 21.6731C402.929 20.9563 403.24 20.2847 403.943 19.7663C405.669 18.5135 406.601 16.8248 407.487 15.1085C408.351 13.4198 409.626 11.8921 410.128 10.111C410.464 8.923 410.761 7.67411 410.984 6.42915C411.253 4.9348 412.754 3.84104 414.643 3.82337C415.841 3.81159 416.398 4.63632 416.483 5.30397C416.74 7.35403 417.237 9.51209 415.986 11.1812C415.114 12.3457 414.493 13.6044 413.944 14.9023C412.919 17.3137 412.058 19.784 410.982 22.162C410.124 24.0884 410.005 26.2013 409.586 28.214C409.036 30.808 408.504 33.4118 408.316 36.0215C408.253 37.0662 408.102 38.0873 407.954 39.1025C407.791 40.1197 407.603 41.1153 407.442 42.0932C407.118 44.049 406.861 45.9832 407.039 47.8212C407.143 48.909 407.326 49.9517 407.585 50.9277C407.844 51.9036 408.194 52.801 408.602 53.6238C409.013 54.4466 409.476 55.1849 410.038 55.9331C410.596 56.6773 411.234 57.4195 411.941 58.1775C412.842 59.1554 413.875 60.1922 415.057 61.1544C415.66 61.6355 416.286 62.0931 416.977 62.5192C417.315 62.7293 417.68 62.9374 418.042 63.126C418.391 63.3027 418.743 63.4598 419.079 63.5697C419.159 63.5972 419.232 63.6404 419.299 63.6895C419.363 63.7347 419.422 63.7877 419.483 63.8388C419.562 63.9075 419.636 63.9684 419.709 64.0273C419.782 64.0842 419.86 64.151 419.929 64.2001C420.021 64.2668 420.007 64.2629 420.049 64.2963L420.151 64.3729C420.29 64.4711 420.441 64.5575 420.6 64.6203C420.759 64.6831 420.926 64.7283 421.093 64.7479C421.262 64.7676 421.433 64.7479 421.598 64.7244C421.865 64.6694 422.11 64.5476 422.332 64.4063C422.442 64.3336 422.548 64.259 422.65 64.1824L422.745 64.1097L422.921 63.9919C423.043 63.9173 423.155 63.827 423.273 63.7425C423.511 63.5815 423.732 63.395 423.962 63.2222C424.076 63.1338 424.184 63.0356 424.298 62.9433L424.467 62.8059L424.63 62.6606C425.078 62.2855 425.502 61.8712 425.94 61.4568C426.688 60.7224 427.318 59.8309 427.754 58.8393C428.19 57.8496 428.469 56.7833 428.538 55.7131C428.543 55.6149 428.532 55.5109 428.581 55.4284C428.659 55.3047 428.724 55.1751 428.781 55.0435C428.84 54.912 428.897 54.7804 428.944 54.6469C429.026 54.3759 429.111 54.101 429.15 53.8221C429.252 53.2644 429.246 52.6969 429.217 52.1412C429.176 51.5855 429.089 51.0435 428.999 50.5173C428.897 49.993 428.814 49.4805 428.738 48.9758C428.653 48.3258 428.51 47.6876 428.314 47.0848C428.215 46.7883 428.106 46.5212 427.992 46.2876C427.937 46.1658 427.876 46.0637 427.817 45.9636L427.776 45.9007C427.768 45.8909 427.76 45.8771 427.754 45.8693C427.738 45.8555 427.723 45.8398 427.711 45.8241C427.595 45.7043 427.442 45.6199 427.269 45.6199C427.183 45.6199 427.1 45.6278 427.014 45.671C426.996 45.6749 426.973 45.6906 426.951 45.7043C426.929 45.7181 426.912 45.7259 426.892 45.7397C426.853 45.7691 426.815 45.8025 426.782 45.8418C426.721 45.9125 426.698 45.885 426.662 45.8379C426.645 45.8202 426.627 45.775 426.607 45.7554C426.595 45.7417 426.588 45.7279 426.572 45.7142C426.519 45.7063 426.464 45.6985 426.409 45.6945C426 45.667 425.46 45.7201 424.824 45.8516C424.502 45.9184 424.168 45.995 423.803 46.0912C423.45 46.1835 423.037 46.2934 422.666 46.4014C421.156 46.8335 419.87 47.3204 418.827 47.774C418.433 47.939 418.103 48.1098 417.779 48.265L417.557 48.3867L417.445 48.4437L417.345 48.5045L417.142 48.6204C417.082 48.6616 417.023 48.6989 416.96 48.7362L416.868 48.7912L416.787 48.8501C416.732 48.8874 416.677 48.9248 416.622 48.9601C416.573 48.9994 416.526 49.0367 416.477 49.072L416.402 49.125L416.363 49.1624C416.337 49.1859 416.312 49.2075 416.282 49.2272C416.257 49.2527 416.231 49.2821 416.204 49.3077L416.161 49.343C416.147 49.3548 416.159 49.3528 416.155 49.3568C416.155 49.3607 416.151 49.3626 416.145 49.3626C416.108 49.396 416.074 49.4765 416.168 49.504C416.18 49.506 416.19 49.508 416.202 49.508C416.218 49.508 416.233 49.504 416.231 49.508C416.296 49.5021 416.302 49.4608 416.269 49.5178C416.261 49.5315 416.253 49.5531 416.247 49.5806C416.243 49.5963 416.243 49.6042 416.239 49.6297C416.239 49.6356 416.251 49.6415 416.255 49.6493L416.329 49.6906C416.379 49.72 416.437 49.7436 416.49 49.7731C416.93 49.9989 417.474 50.2404 418.075 50.4898C418.366 50.6115 418.696 50.5998 419.031 50.5664L419.283 50.5408C419.314 50.5408 419.299 50.535 419.302 50.531V50.5212C419.302 50.5212 419.308 50.5094 419.312 50.5035C419.326 50.4819 419.336 50.4741 419.348 50.4918C419.416 50.588 419.518 50.6233 419.601 50.6037C419.672 50.586 419.723 50.5369 419.78 50.4918C419.809 50.4682 419.84 50.4466 419.878 50.425L419.894 50.4171L419.901 50.4132C419.901 50.4132 419.901 50.423 419.925 50.3857L420.143 50.0676L420.589 49.4373C421.963 47.5345 423.471 45.6337 424.522 43.56L424.803 43.0122C424.883 42.8551 424.94 42.7353 424.973 42.6548C424.987 42.6194 424.999 42.588 425.003 42.5723C425.007 42.5605 425.005 42.5586 425.003 42.5566V42.5546L425.058 42.5821L425.174 42.6371L425.547 42.8197L425.904 42.9866L426.234 43.1359C426.423 43.2223 426.617 43.3048 426.811 43.3813C426.967 43.4481 427.122 43.5109 427.283 43.5698L427.493 43.6484L427.687 43.7171C428.186 43.888 428.541 43.9704 428.797 44.0136C428.85 44.0235 428.905 44.0333 428.96 44.0372C429.013 44.0431 429.04 44.047 429.083 44.0509H429.115H429.123C428.983 44.0431 429.319 44.0627 429.284 44.0608H429.28C429.258 44.0608 429.062 44.0843 428.816 44.2021C428.571 44.3141 428.292 44.5144 428.094 44.7029C427.893 44.8914 427.787 45.0504 427.77 45.0819C427.75 45.1172 427.811 45.019 427.874 44.7971C427.89 44.7441 427.907 44.6832 427.919 44.6184L427.927 44.5693L427.666 45.9439L427.652 46.0303L427.64 46.1226C427.634 46.1638 427.63 46.2051 427.626 46.2463L427.609 46.5252C427.603 46.6332 427.609 46.7235 427.605 46.8688C427.605 46.9356 427.605 47.0004 427.609 47.0652L427.615 47.1614L427.619 47.2792C427.622 47.3577 427.626 47.4383 427.632 47.5148L427.638 47.5718V47.5659C427.632 47.5639 427.626 47.56 427.619 47.5541C427.575 47.5423 427.473 47.5423 427.328 47.5659C427.039 47.6111 426.564 47.7564 426.008 48.0038C424.919 48.479 423.897 49.1172 423.09 49.8928C422.519 50.4544 421.983 50.9807 421.515 51.4913C421.407 51.6209 421.276 51.7426 421.178 51.8722C421.08 51.9998 420.974 52.1236 420.867 52.2473C420.781 52.3729 420.693 52.4967 420.598 52.6184C420.51 52.7401 420.449 52.8639 420.365 52.9836C420.078 53.4667 419.895 53.9341 419.831 54.3916L419.815 54.5624L419.805 54.6469C419.805 54.6586 419.799 54.6783 419.801 54.6842L419.807 54.7018C419.817 54.7274 419.817 54.747 419.827 54.7745C419.839 54.802 419.848 54.8295 419.856 54.855C419.905 54.9689 419.982 55.0985 420.092 55.2301C420.192 55.3518 420.261 55.4873 420.316 55.6365C420.371 55.7838 420.4 55.9507 420.441 56.1196C420.516 56.4534 420.6 56.8265 420.738 57.0543C420.75 57.0739 420.748 57.1073 420.738 57.1466C420.73 57.1819 420.714 57.2291 420.695 57.2801C420.655 57.3881 420.606 57.4981 420.577 57.6022C420.469 57.934 420.155 58.474 419.713 58.7823C419.422 58.9748 419.11 59.1515 418.78 59.3695C418.45 59.5953 418.091 59.882 417.733 60.3474L417.576 60.4357L417.726 60.3808C417.763 60.4082 417.788 60.4475 417.836 60.4613C418.207 60.5477 418.093 60.7735 417.894 61.0366C417.696 61.2958 417.39 61.5727 417.408 61.7455C417.429 61.9438 417.508 62.0243 417.612 62.0263C417.718 62.0263 417.847 61.9497 417.981 61.8555C418.114 61.7612 418.25 61.6473 418.37 61.5727C418.491 61.4922 418.596 61.447 418.672 61.4981C418.704 61.5197 418.743 61.5805 418.725 61.6316C418.603 62.0243 418.57 62.3267 418.599 62.5624C418.631 62.7961 418.729 62.9453 418.863 63.0513C419.136 63.2398 419.542 63.2143 419.917 63.1102C420.035 63.0867 420.133 63.1436 420.196 63.2634C420.259 63.3832 420.286 63.5638 420.237 63.7641L420.239 63.7543ZM404.498 20.9328L404.616 20.8483L404.496 20.7933V20.9347L404.498 20.9328ZM398.615 31.9057L398.592 31.7623L398.495 31.8703L398.617 31.9057H398.615ZM398.16 33.7535C398.175 33.6946 398.14 33.6219 398.13 33.5571L397.963 33.6376C397.948 33.7024 397.893 33.7771 397.922 33.8281C398.007 33.9754 398.111 33.9479 398.162 33.7535H398.16ZM397.523 35.7329L397.63 35.6268L397.516 35.5895L397.523 35.7329ZM396.424 38.6627L396.612 38.6155C396.681 38.4722 397.125 38.4859 396.836 38.1973L396.581 38.5763L396.422 38.6627H396.424ZM396.424 40.7598C396.496 40.6695 396.569 40.5772 396.646 40.4889L396.601 40.0863C396.528 40.1747 396.414 40.2532 396.392 40.3514C396.363 40.479 396.408 40.6224 396.426 40.7598H396.424ZM403.994 50.3111L403.952 50.1422L403.874 50.3013L403.994 50.3091V50.3111ZM410.715 60.0175C410.831 59.8388 410.772 59.6935 410.56 59.6385C410.501 59.6228 410.409 59.6994 410.332 59.7347C410.226 59.9134 410.274 60.0646 410.491 60.1235C410.552 60.1392 410.676 60.0764 410.713 60.0175H410.715ZM425.676 57.3783L425.584 57.4353L425.724 57.5492L425.676 57.3764V57.3783ZM422.715 52.5418C422.725 52.5222 422.652 52.4456 422.615 52.3965L422.421 52.2846C422.434 52.3258 422.431 52.3612 422.466 52.4102C422.578 52.5673 422.678 52.6243 422.715 52.5418ZM426.902 55.1967C426.827 55.177 426.745 55.1338 426.68 55.1397C426.474 55.1574 426.47 55.2576 426.666 55.3931C426.713 55.4245 426.796 55.3891 426.863 55.3832L426.9 55.1967H426.902ZM428.606 54.7882L428.467 54.8314L428.569 54.9218L428.604 54.7882H428.606ZM428.155 50.1913L428.113 50.317L428.245 50.2718L428.155 50.1913ZM431.675 50.4269C431.634 50.5192 431.713 50.692 431.785 50.8177C431.89 50.9964 432.078 51.0514 432.135 50.9218C432.176 50.8295 432.072 50.6646 432.033 50.531C431.903 50.3582 431.734 50.2973 431.675 50.4269ZM428.377 42.588C428.341 42.8315 428.361 42.8826 428.469 42.7215C428.536 42.6234 428.632 42.4839 428.677 42.3504C428.754 42.1344 428.685 42.048 428.569 42.1953C428.494 42.2935 428.435 42.4545 428.377 42.588ZM420.359 43.8821C420.369 43.9253 420.479 43.9744 420.543 44.0215C420.593 44.0058 420.683 44.0019 420.683 43.9704C420.679 43.9076 420.636 43.7917 420.593 43.7623C420.416 43.6464 420.32 43.6975 420.361 43.8801L420.359 43.8821ZM419.024 44.3337L419.102 44.2984L418.976 44.1747L419.024 44.3337ZM416.528 60.204C416.426 60.1844 416.333 60.1451 416.216 60.1451C416.035 60.1451 415.895 60.2551 415.95 60.3749C415.984 60.4475 416.141 60.4514 416.257 60.4495C416.437 60.4456 416.53 60.3474 416.528 60.204Z" fill="#091818"/>
<path d="M421.01 64.2871C420.816 64.3578 420.714 64.5542 420.767 64.8232C420.788 64.939 420.959 65.0529 421.061 65.0451C421.289 65.0254 421.366 64.7839 421.289 64.5208C421.258 64.4108 421.103 64.3617 421.01 64.2871Z" fill="#091818"/>
<path d="M410.313 55.292L410.24 55.4648C410.299 55.4825 410.391 55.5257 410.409 55.51C410.454 55.4687 410.464 55.4 410.488 55.343C410.429 55.3254 410.372 55.3077 410.313 55.292Z" fill="#091818"/>
</g>
<defs>
<clipPath id="clip0_6565_2251">
<rect width="115.968" height="78.68" fill="white" transform="translate(327.1)"/>
</clipPath>
</defs>
</svg>
