<svg width="719" height="172" viewBox="0 0 719 172" fill="none" xmlns="http://www.w3.org/2000/svg">
<path d="M11.6191 10.4018C11.6877 61.8294 13.7576 113.233 14.4629 164.557C131.073 165.341 247.699 166.124 364.332 166.08C422.625 166.056 480.919 165.831 539.194 165.287C591.861 164.797 645.073 161.923 697.218 165.718C722.29 142.472 712.508 114.809 713.953 90.452C715.558 63.4356 715.6 35.8561 713.899 8.82009C713.846 7.94354 713.694 6.98374 712.016 6.34713C710.171 5.64687 707.167 5.59301 704.484 5.58811C469.643 5.06414 234.78 5.83296 0 7.87988" fill="#F0E3DE"/>
<path d="M10.6923 5.59176C8.59572 5.42037 9.6669 5.12166 11.104 4.90619C12.1104 4.75439 13.3493 4.62707 14.4815 4.48995C15.1829 4.33325 15.8805 4.18145 16.5819 4.02474C17.2719 4.16675 17.9657 4.31366 18.6595 4.45567C24.1298 4.54382 24.8274 4.50954 24.1374 4.21083C23.5313 3.95129 21.8959 3.59871 24.1831 3.53505C33.515 3.28531 39.3436 2.0121 48.7594 1.84561L45.8355 2.67809L45.0617 2.78582L46.0528 2.70747C48.7632 2.51159 52.9831 2.40386 49.1558 1.81133C48.6526 1.2188 50.734 0.910291 54.931 0.841734C56.3148 0.621372 57.6338 0.645857 58.907 0.83194C68.1741 0.738899 77.6889 -0.20621 86.7158 0.787868C87.4897 0.871116 89.6701 0.787868 90.9853 0.70462C99.9855 0.16106 109.047 0.293277 117.795 0.562609C131.275 0.973951 144.979 0.841734 158.672 0.782971C164.756 0.758486 168.698 0.900498 166.654 1.93865C165.976 2.28633 166.292 2.70747 170.215 2.54097C171.854 2.47241 175.735 2.64381 174.233 1.97293C172.902 1.3804 176.867 0.920085 180.179 0.993539C187.826 1.15514 195.279 0.949467 202.808 0.929879C210.523 0.910291 211.876 1.29715 210.809 2.55566C210.577 2.82989 210.71 3.10412 210.653 3.56933C217.503 3.02577 223.583 2.54097 229.66 2.05617C227.632 2.07576 225.569 2.06107 223.587 2.11494C221.254 2.1786 218.426 2.53607 216.855 2.15901C215.826 1.90927 216.165 1.44895 217.164 1.16004C218.62 0.738898 221.963 0.601784 225.108 0.729105C228.89 0.876013 230.35 1.33143 231.23 1.82602C237.844 1.09637 244.759 0.851528 253.515 0.88091C275.263 0.954364 297.133 1.13065 318.945 0.543021C327.438 0.317762 328.327 0.523433 328.502 2.14922L327.884 2.28633L328.689 2.1737C332.238 2.31082 337.483 2.78582 335.711 1.64973C334.365 0.782971 336.888 0.278586 342.504 0.498949C352.403 0.88091 361.64 0.332453 371.151 0.258999C377.136 0.214926 383.144 -0.284561 387.448 0.709517C388.805 1.02292 391.061 0.81725 392.746 0.670341C403.241 -0.26987 414.075 0.0337397 424.84 0.445082C428.347 0.582197 431.408 0.699723 435.098 0.449979C444.659 -0.191519 455.763 0.009255 464.813 0.165957C489.744 0.606681 514.911 0.00435804 539.475 0.631166C552.802 0.973951 566.705 -0.0690959 579.418 1.0572C592.958 0.278587 607.112 1.17962 621.015 0.787868C626.626 0.631166 635.333 0.205132 638.821 1.63014C640.441 2.29123 644.756 1.74277 645.862 1.56648C653.657 0.317762 663.874 0.52833 673.949 0.59199C677.978 0.616475 679.061 0.964158 679.206 1.43426C676.164 1.55669 673.095 1.7036 674.586 2.26674C674.879 2.37937 677.334 2.47731 678.493 2.43814C684.081 2.23246 679.072 1.78684 679.37 1.45385C684.253 1.11596 690.123 1.16983 694.717 0.699723C699.025 0.258999 700.652 1.57627 703.698 1.10617C704.598 0.969055 705.551 0.861322 706.557 0.802559C707.064 0.773177 707.579 0.758486 708.116 0.758486C708.387 0.758486 708.657 0.758486 708.936 0.773177L709.161 0.782971L709.473 0.807456C709.687 0.827043 709.896 0.846631 710.11 0.866219C711.806 1.0621 713.564 1.46854 715.012 2.55566C715.733 3.08943 716.411 3.81907 716.884 4.75928C717.12 5.22449 717.292 5.6995 717.429 6.20878C717.57 6.71316 717.684 7.27141 717.768 7.84925C717.879 8.61807 717.902 9.44076 717.959 10.2732C718.005 10.998 718.05 11.7472 718.1 12.5405C718.172 13.6227 718.23 14.8323 718.31 16.2867C717.734 18.1475 716.907 13.5738 716.293 13.7403L716.148 12.8735L716.289 13.941C716.381 17.5648 715.919 19.0436 716.274 23.3872C716.766 29.7875 716.758 22.545 716.994 22.2805C717.684 21.5754 718.226 31.3937 718.824 30.9236C718.881 33.568 718.851 35.2525 718.782 36.3543C718.714 37.4561 718.611 37.9801 718.496 38.3082C718.268 38.9693 718.005 38.8713 717.886 41.0995C717.925 41.9515 717.959 42.7987 717.997 43.6508C717.925 43.3031 717.848 42.9554 717.776 42.6077C717.753 43.8075 717.707 46.0552 717.707 46.0552C718.752 50.3057 719.053 57.4258 718.946 65.5205C718.839 73.6151 718.313 82.6744 717.898 90.8621C716.998 93.291 717.532 82.9976 716.994 82.9536C716.846 82.9389 716.571 83.3992 716.503 84.3394C716.289 87.1453 716.548 86.6067 716.663 86.974C716.975 87.9729 716.716 90.7495 716.552 93.3302C716.388 95.9892 716.381 98.8343 716.77 100.205C717.014 101.053 717.276 101.831 717.547 103.237C717.81 104.637 718.092 106.65 718.344 110.024C718.336 112.639 718.02 111.728 717.764 111.419C717.635 111.268 717.52 111.273 717.463 111.953C717.406 112.634 717.41 113.981 717.482 116.561C717.235 117.095 717.067 118.363 716.914 120.841C716.625 123.363 716.617 126.032 716.663 128.867C716.594 129.812 716.537 130.64 716.487 131.37C716.415 132.099 716.354 132.726 716.301 133.27C716.202 134.357 716.091 135.106 716.06 135.669C716 136.79 716.076 137.133 716.297 137.848C716.674 134.327 716.735 131.453 716.705 128.627C716.876 126.179 716.953 123.735 716.968 121.306C717.162 119.867 717.353 118.412 717.513 116.968C717.848 116.4 718.367 118.016 718.386 121.953C718.401 124.387 718.34 126.766 718.249 129.107C718.172 130.282 718.134 131.443 718.02 132.604C717.967 133.186 717.925 133.764 717.864 134.342C717.795 134.92 717.723 135.498 717.654 136.076C717.589 136.653 717.501 137.231 717.402 137.809C717.307 138.387 717.212 138.965 717.116 139.543C716.994 140.116 716.876 140.693 716.754 141.271L716.567 142.138C716.499 142.427 716.419 142.711 716.346 143C716.194 143.573 716.038 144.151 715.885 144.728C715.717 145.301 715.523 145.869 715.34 146.442C714.985 147.603 714.517 148.715 714.063 149.856C712.561 153.416 710.724 156.701 708.688 159.664C706.652 162.632 704.422 165.296 702.097 167.724L699.592 170.178L698.868 170.888C698.746 171.005 698.628 171.128 698.502 171.24L698.049 171.211L696.223 171.098L691.503 170.824L687.36 170.599L683.212 170.442C680.319 170.335 679.023 170.207 678.188 169.683C676.979 168.919 675.741 168.851 673.514 169.169C671.593 169.443 669.718 169.654 667.632 169.678C665.543 169.727 663.249 169.585 660.485 169.14C658.853 168.88 658.182 169.012 657.077 169.115C646.994 169.967 635.668 169.115 624.991 169.37C623.927 169.399 622.616 169.149 621.423 169.027C619.898 168.875 622.269 168.346 618.934 168.439C618.305 168.454 619.582 168.9 621.137 169.061C620.005 169.208 618.888 169.458 617.737 169.478C599.618 169.742 581.324 170.423 563.354 170.511C555.791 170.55 548.357 170.604 540.954 170.697C533.559 170.77 526.21 170.873 518.788 171.113C513.15 171.289 506.227 171.632 504.519 170.359L505.114 170.232L504.26 170.325C500.124 170.379 497.044 170.966 491.676 170.57C487.277 170.241 481.494 170.628 476.481 170.922C472.81 171.138 468.888 171.299 464.981 171.397C455.553 171.637 455.531 171.617 455.271 170.026C457.902 169.639 463.696 169.605 463.319 168.67C459.423 169.12 456.293 169.443 454.856 169.977C448.181 171.02 438.007 171.162 430.009 171.275C417.788 171.446 405.101 172.337 392.731 171.485L367.446 171.818C359.456 172.303 351.382 171.715 343.72 171.588C337.087 171.471 339.652 170.359 341.749 169.639L342.298 169.531L341.451 169.595C339.202 169.742 336.831 169.855 336.164 170.261C334.597 171.216 333.076 172.21 323.748 171.098C323.116 171.025 321.492 170.986 320.912 171.04C308.268 172.274 293.568 170.775 280.524 171.451C279.666 171.495 278.492 171.485 277.581 171.446C272.766 171.236 265.714 170.623 263.644 170.858C258.357 171.451 252.688 170.991 247.877 171.255C239.986 171.686 232.583 170.398 224.578 171.113C222.886 171.265 221.605 170.81 221.346 170.53C221.01 170.163 221.959 169.845 223.45 169.551C224.895 169.267 226.869 168.895 222.863 168.753C220.831 168.679 218.906 168.895 217.919 169.331C214.537 170.824 209.837 171.285 198.062 171.035C186.61 170.795 175.197 170.584 163.761 170.653C156.56 170.697 153.099 169.884 147.636 169.551L146.79 169.473L147.331 169.595C148.181 170.168 146.733 170.594 142.577 170.667C139.509 170.721 138.399 170.369 138.609 169.967L139.15 169.84L138.38 169.938C133.577 169.732 138.64 168.719 132.517 168.616C132.399 168.488 132.418 168.366 132.582 168.239L133.249 168.126L132.281 168.204C132.03 168.248 131.534 168.297 131.568 168.337C131.66 168.439 131.991 168.537 132.228 168.64C132.262 168.782 132.647 168.944 132.277 169.056C127.558 170.516 126.742 170.516 118.085 168.856C118.962 170.33 112.653 170.863 105.902 170.418C92.5711 169.536 76.3852 170.589 64.6365 168.954C49.781 168.968 35.5583 168.283 21.042 168.018C17.9886 167.974 14.9351 167.925 11.8855 167.881C11.8359 161.868 11.7864 155.859 11.7368 149.846C11.6835 144.919 11.6339 139.988 11.5805 135.047C11.4509 125.165 11.2832 115.249 11.0697 105.254C10.7228 89.0698 10.4102 72.8071 10.3912 56.8578C10.3721 40.9134 10.6352 25.2823 11.3785 10.4055C11.8436 12.5846 12.1447 15.9684 12.343 20.023C12.5602 24.0777 12.6555 28.8032 12.7508 33.6806C13.0787 52.5828 13.8373 71.3233 14.1194 90.4459C14.1575 93.0266 14.2108 95.9451 14.3405 98.2712C14.9542 109.093 15.3964 120.097 15.709 131.174C15.8691 136.712 15.9873 142.27 16.0864 147.833L16.2122 156.177C16.2312 158.175 16.2465 160.173 16.2655 162.166C21.286 162.245 26.295 162.323 31.2697 162.397C58.2437 162.764 85.2291 162.818 112.001 162.803C148.006 162.783 184.091 163.43 219.825 163.126C245.308 162.906 270.944 163.538 296.199 162.93C300.625 162.823 305.393 162.93 309.995 162.97C326.844 163.116 343.659 163.136 360.454 163.097C364.655 163.102 368.852 163.023 373.049 162.979C377.247 162.925 381.444 162.867 385.637 162.813C394.027 162.69 402.417 162.573 410.808 162.45C414.883 162.392 418.996 162.372 423.086 162.372C455.264 162.372 487.258 161.799 519.31 161.383C523.766 161.334 528.226 161.29 532.686 161.241L539.38 161.187L546.07 161.094C554.99 160.962 563.918 160.781 572.846 160.541C598.288 159.87 623.84 159.096 649.384 159.233C663.912 159.321 678.466 159.747 693.013 160.643L695.468 160.79L695.914 160.815C695.952 160.815 695.994 160.83 696.024 160.81L696.116 160.722L696.291 160.546L696.794 160.046C697.138 159.723 697.446 159.36 697.77 159.013C698.411 158.313 699.066 157.632 699.657 156.878C702.097 153.954 704.239 150.722 705.924 147.192C707.579 143.636 708.833 139.817 709.553 135.747C709.759 134.739 709.889 133.701 710.041 132.667C710.11 132.148 710.156 131.619 710.217 131.095L710.301 130.307L710.361 129.509C710.544 127.393 710.598 125.224 710.617 123.035C710.64 118.133 710.346 113.065 710.072 107.82C709.805 102.576 709.542 97.14 709.79 91.484C709.851 90.0198 709.927 88.7858 709.999 87.4783C710.072 86.1806 710.148 84.8879 710.205 83.5902C710.339 80.9997 710.449 78.4043 710.544 75.8187C710.731 70.6378 710.861 65.4617 710.903 60.3101C710.979 50.6289 710.945 40.9085 710.659 31.2174C710.518 26.3695 710.323 21.5313 710.045 16.7127C709.976 15.5081 709.912 14.3034 709.828 13.0988L709.805 12.7756L709.793 12.6678L709.774 12.4573L709.732 12.0361C709.721 11.899 709.698 11.7521 709.611 11.6542C709.527 11.5562 709.42 11.5024 709.313 11.4681C709.096 11.3995 708.875 11.3848 708.665 11.3848H708.562H708.528H708.436L708.234 11.3701C707.956 11.3604 707.674 11.3506 707.392 11.3408C706.82 11.3261 706.225 11.3261 705.616 11.3261C704.358 11.3359 703.092 11.3457 701.822 11.3555C699.257 11.3555 696.68 11.3555 694.134 11.3506C667.552 11.2134 641.2 11.6493 614.736 11.8109C592.996 11.9529 571.165 11.9186 549.421 12.1439C520.514 12.4328 491.501 12.2516 462.651 12.4915C420.315 12.8294 378.074 12.7364 335.791 12.8686C312.507 12.9372 288.964 13.466 265.992 13.2212C232.454 12.8784 198.71 13.466 165.259 12.9763C150.777 12.7707 135.762 12.8392 121.036 12.898C106.23 12.9568 91.9307 12.5601 77.1895 12.5944C62.01 12.6238 46.9029 12.3446 31.8148 12.1732C26.3293 12.1096 18.5146 12.3838 19.6049 11.0127C17.3825 10.8902 14.7445 10.7874 16.0444 10.3271C16.6239 10.1214 18.2974 10.0284 19.8184 10.0969C22.3419 10.2145 21.2974 10.5426 21.4347 10.7972C31.7424 11.1841 33.9267 11.0714 36.9687 9.77864C39.1683 8.84333 38.9205 7.83456 42.58 6.93842L43.1023 6.82579L42.2827 6.89924C33.3702 6.26754 19.9861 6.52708 17.4816 4.62707C16.8068 4.60748 16.1283 4.60748 15.4383 4.62707C15.2668 4.82784 15.2744 5.03841 14.878 5.23429C14.2871 5.5281 12.6937 5.75826 10.658 5.59176H10.6923ZM40.7274 166.897L39.7553 166.916L40.5597 166.99L40.7274 166.897ZM80.933 167.641L80.0447 167.587L80.0181 167.68L80.933 167.641ZM92.857 168.934L91.8583 168.958L92.6778 169.037L92.8608 168.934H92.857ZM107.88 168.865C107.808 168.728 107.819 168.596 107.915 168.459L108.685 168.356L107.735 168.43C107.484 168.479 107 168.528 107.026 168.572C107.095 168.679 107.408 168.782 107.621 168.89L108.566 168.993L107.873 168.865H107.88ZM138.411 164.737C137.843 164.674 136.753 164.698 135.899 164.688C136.596 164.855 137.145 165.041 138.053 165.183C138.483 165.251 139.596 165.232 140.283 165.251C140.973 164.987 139.497 164.86 138.407 164.737H138.411ZM155.908 168.748L155.15 168.723L155.363 168.861L155.912 168.748H155.908ZM177.515 168.797C177.602 168.728 176.905 168.635 176.558 168.557C176.085 168.66 175.517 168.758 175.159 168.865C174.679 169.017 175.121 169.096 176.249 169.096C176.699 168.998 177.374 168.905 177.515 168.802V168.797ZM200.032 168.483C199.678 168.444 199.358 168.386 198.961 168.371C197.654 168.322 197.032 168.376 197.436 168.488C197.562 168.523 198.275 168.523 198.725 168.537C199.16 168.518 199.598 168.498 200.032 168.479V168.483ZM200.459 165.095C200.109 165.056 199.796 164.997 199.403 164.982C198.092 164.933 197.475 164.992 197.886 165.109C198.008 165.144 198.725 165.144 199.171 165.158C199.602 165.139 200.032 165.114 200.463 165.095H200.459ZM251.114 169.394L250.386 169.37L250.584 169.507L251.114 169.394ZM266.511 169.179L266.339 169.047L265.844 169.154L266.511 169.179ZM284.328 169.189C284.122 169.13 282.483 169.081 282.052 169.125C281.427 169.189 281.092 169.34 281.019 169.463C280.92 169.629 281.66 169.698 282.716 169.659C284 169.551 285.068 169.409 284.324 169.189H284.328ZM322.25 169.017C315.755 168.841 312.026 169.316 307.696 169.375L306.831 169.282L307.433 169.409C312.518 169.771 317.176 169.855 322.254 169.017H322.25ZM355.171 169.512C355.449 169.247 354.576 169.071 352.861 169.12C350.341 169.198 348.828 169.458 348.721 169.83C348.66 170.036 349.247 170.286 351.012 170.232C353.604 170.153 354.001 169.766 355.167 169.512H355.171ZM392.647 169.272L391.98 169.252L392.152 169.384L392.647 169.272ZM404.14 169.693C402.558 169.644 401.747 169.879 402.093 170.119C402.288 170.261 402.475 170.393 402.661 170.53C402.158 170.653 399.814 170.496 400.481 170.8C401.27 170.721 402.059 170.638 402.848 170.56C403.47 170.447 404.285 170.344 404.667 170.217C405.235 170.031 405.776 169.742 404.137 169.693H404.14ZM416.004 168.63C414.128 169.037 413.236 169.419 414.982 169.904C418.546 169.453 418.458 169.066 416.004 168.63ZM446.816 169.507L446 169.575L445.497 169.688L446.298 169.615L446.816 169.502V169.507ZM453.079 167.803L452.271 167.911L451.555 168.018L452.508 167.945L453.079 167.803ZM489.774 163.376C489.923 163.4 490.601 163.356 491.036 163.347C491.223 163.288 491.562 163.229 491.539 163.175C491.524 163.146 490.826 163.092 490.559 163.102C489.374 163.156 489.069 163.263 489.774 163.376ZM493.399 168.723C493.007 168.621 492.702 168.444 492.214 168.434C490.868 168.415 489.45 168.464 488.268 168.483C487.605 168.699 487.967 168.812 489.187 168.807C490.59 168.802 491.996 168.753 493.399 168.719V168.723ZM506.345 169.11L506.112 168.973L505.666 169.1L506.345 169.11ZM535.499 168.753L534.581 168.802L535.473 168.846L535.499 168.753ZM550.66 162.739L551.552 162.779L551.59 162.676L550.66 162.739ZM557.278 168.464C554.293 167.715 551.11 167.744 547.53 168.503L546.699 168.611L547.713 168.532C550.942 168.234 553.847 168.797 557.274 168.464H557.278ZM590.907 167.95L589.954 168.004L590.824 168.048L590.911 167.955L590.907 167.95ZM632.066 166.437C631.906 166.407 631.151 166.388 630.911 166.417C629.828 166.53 629.825 166.642 630.873 166.696C631.163 166.711 631.673 166.647 632.093 166.618C632.1 166.559 632.268 166.481 632.066 166.441V166.437ZM641.691 166.897H641.024L641.333 167.019L641.688 166.897H641.691ZM668.2 167.156C665.025 167.039 663.149 166.951 661.316 166.926C658.857 166.882 655.796 166.882 657.416 167.421C658.449 167.764 660.607 167.759 662.452 167.612C664.011 167.489 665.551 167.367 668.197 167.156H668.2ZM686.639 168.165L685.797 168.199C685.286 168.297 683.056 168.028 683.548 168.346C684.39 168.317 685.233 168.288 686.075 168.253L686.643 168.165H686.639ZM698.861 167.93C698.609 168.155 698.35 168.386 698.098 168.616L698.003 168.699L697.957 168.743C697.957 168.743 697.919 168.743 697.9 168.743L697.667 168.719C697.515 168.709 697.359 168.694 697.21 168.684C695.045 168.557 694.603 168.611 696.173 168.807C696.428 168.841 696.783 168.865 697.153 168.89C697.34 168.9 697.526 168.91 697.709 168.919C697.801 168.919 697.888 168.929 697.976 168.929C698.052 168.9 698.113 168.802 698.178 168.748C698.495 168.425 698.647 168.195 698.868 167.925L698.861 167.93ZM703.53 164.693C703.168 165.085 702.829 165.506 702.478 165.917C702.73 165.697 702.985 165.472 703.214 165.271C703.412 165.061 703.645 164.811 703.858 164.586C704.064 164.346 704.247 164.125 704.354 163.973C705.013 163.038 704.689 163.347 703.527 164.693H703.53ZM713.598 110.254C713.426 110.332 713.369 111.4 713.434 113.442C713.445 113.77 713.545 114.495 713.59 114.598C713.758 114.975 713.918 114.749 713.865 112.609C713.853 112.007 713.693 111.037 713.598 110.254ZM711.269 106.052C711.017 105.827 710.952 107.144 711.109 109.221C711.219 110.724 711.44 112.502 711.578 112.942C711.764 113.535 711.86 111.939 711.715 109.862C711.608 108.325 711.395 107.125 711.269 106.052ZM712.226 83.2474L712.119 84.3149L712.191 84.5353L712.226 83.2474ZM717.246 71.4898C717.193 71.6661 717.143 71.8473 717.09 72.0285C717.09 72.5965 717.067 73.3409 717.09 73.6984C717.162 74.8883 717.25 74.4917 717.303 72.7141C717.315 72.2978 717.265 71.8963 717.246 71.4898ZM706.351 4.08351C705.993 4.23531 706.671 4.33325 707.632 4.30387C708.265 4.28428 708.65 4.16675 708.81 4.06882C709.058 3.91701 708.52 3.79459 707.624 3.79948C707.186 3.88763 706.618 3.97577 706.347 4.0884L706.351 4.08351ZM701.723 6.11573L702.127 6.29202C702.554 6.26754 703.115 6.26264 703.389 6.22347C704.304 6.08635 704.011 5.99331 702.65 5.99821C702.33 5.99821 702.028 6.07656 701.72 6.12063L701.723 6.11573ZM693.642 6.42424L694.606 6.39976L693.806 6.3312L693.642 6.42424ZM674.231 6.93842C674.395 7.09512 675.699 7.15878 676.48 7.04126C678.195 6.78662 678.542 6.48301 677.273 6.14512C675.218 6.34099 673.861 6.59074 674.231 6.93842ZM663.073 1.89947L663.919 1.81622L664.579 1.6987L663.687 1.78195L663.073 1.89458V1.89947ZM652.952 2.9719C652.899 3.01108 653.352 3.10412 653.566 3.10412C653.981 3.10412 654.389 3.05515 654.797 3.02577C654.851 2.9719 655.091 2.87886 654.927 2.86417C653.947 2.76133 653.181 2.80051 652.952 2.9719ZM650.554 6.59563C651.511 6.69357 652.262 6.6495 652.499 6.48301C652.556 6.44383 652.083 6.35079 651.927 6.35079C651.507 6.36058 651.126 6.40465 650.726 6.43404C650.657 6.4879 650.406 6.57605 650.551 6.59074L650.554 6.59563ZM628.33 2.12473C629.504 2.66829 632.874 2.8152 636.099 2.9817C637.094 3.12371 637.948 3.3 639.126 3.40283C640.117 3.49098 640.925 3.35876 640.113 3.23144C639.21 3.08943 637.735 3.01597 636.507 2.91314C633.278 2.76133 634.544 1.78195 628.33 2.12473ZM626.024 4.87191C626.104 4.93068 626.051 4.99923 626.283 5.03841C627.21 5.19511 627.911 5.17063 628.037 4.98454C628.067 4.94047 627.633 4.86212 627.29 4.84253C626.946 4.82294 626.451 4.85722 626.02 4.86702L626.024 4.87191ZM625.155 9.83741L625.963 9.72478L632.077 9.77864L632.859 9.8521L632.379 9.73947C630.248 9.47993 628.094 9.3771 625.883 9.71498L625.151 9.83741H625.155ZM614.058 3.14819C614.946 3.24123 615.808 3.39794 616.372 3.37835C618.606 3.30489 619.604 3.06005 619.7 2.75644C619.761 2.55566 619.052 2.48221 618.213 2.58015C616.757 2.75644 615.449 2.95721 614.054 3.14819H614.058ZM582.94 3.32448L583.752 3.25103L584.335 3.1384L583.474 3.20695L582.944 3.31958L582.94 3.32448ZM567.585 3.2902L568.34 3.18737C569.514 3.05515 570.822 2.94252 571.821 2.78582C572.682 2.6536 574.207 2.47241 572.034 2.32061C571.71 2.29612 570.403 2.46752 569.922 2.58015C569.156 2.75644 568.702 2.96211 568.119 3.15799L567.585 3.2902ZM555.943 3.19226C555.524 3.32448 556.306 3.42242 557.415 3.35876C558.189 3.31469 558.753 3.20206 559.386 3.11881C559.523 2.967 558.928 2.87886 557.838 2.93762C557.068 2.9768 556.271 3.08453 555.94 3.18737L555.943 3.19226ZM493.998 6.23816C493.598 6.27244 492.946 6.29202 492.847 6.34099C492.488 6.50259 493.033 6.60053 494.223 6.59563C494.623 6.59563 495.271 6.54667 495.37 6.50259C495.728 6.34099 495.183 6.25285 494.002 6.23816H493.998ZM488.966 4.47526C491.852 3.92191 495.126 3.54484 494.84 2.86417C488.827 2.93273 486.869 3.46976 488.966 4.47526ZM466.848 2.61443C468.217 2.76133 469.62 2.70747 470.489 2.52138C471.492 2.31082 470.386 2.14432 469.265 2.02679C468.004 1.89458 466.669 1.88478 465.632 2.09535C465.144 2.31082 465.652 2.48711 466.852 2.61443H466.848ZM423.921 2.1688C423.948 2.32061 424.603 2.39406 425.72 2.32551C427.009 2.24716 428.282 2.15411 429.395 2.03659C430.291 1.93865 429.895 1.83092 428.545 1.82112C426.517 1.80153 424.92 1.91416 423.921 2.1688ZM388.599 2.22267C388.77 2.56546 389.472 2.63401 390.604 2.55077C391.908 2.45772 393.791 2.36958 394.187 2.21777C394.889 1.95334 393.166 1.87499 391.618 1.95334C390.276 2.0219 389.136 2.1688 388.599 2.21777V2.22267ZM348.797 2.30592C349.426 2.56546 349.67 2.96211 352.099 3.07963C354.565 3.19716 355.221 2.87396 355.354 2.60463C355.533 2.24716 354.893 1.92885 351.774 1.89458C350.135 1.87499 349.053 2.00721 348.797 2.30592ZM297.602 1.62524L298.631 1.58117L297.785 1.50772L297.602 1.62035V1.62524ZM295.589 2.85927C296.447 2.78582 297.304 2.71236 298.162 2.63401L298.703 2.50669L297.91 2.60463C297.293 2.71726 295.063 2.55077 295.585 2.85927H295.589ZM285.415 2.48221L286.333 2.43324L285.441 2.38427L285.418 2.47731L285.415 2.48221ZM278.545 9.43096C277.947 9.54849 275.656 9.37709 276.224 9.6954C277.051 9.61704 277.878 9.5338 278.705 9.45545L279.418 9.33792L278.541 9.43096H278.545ZM274.398 3.66237C274.832 3.71624 276.872 3.66237 276.933 3.62809C277.954 3.00618 277.203 2.46262 272.149 1.97782C272.339 2.63401 270.811 3.20695 274.398 3.66237ZM236.346 3.71624C242.464 4.06392 248.514 3.73093 257.465 3.70644C248.438 2.94252 242.411 3.52526 236.346 3.71624ZM222.264 7.09512C222.828 7.23224 223.736 7.24693 224.563 7.1343C224.837 7.09512 225.009 6.99718 224.845 6.95311C224.285 6.816 223.431 6.8062 222.535 6.90904C222.432 6.9727 222.1 7.05105 222.264 7.09023V7.09512ZM193.457 3.6085C194.41 3.64768 195.363 3.68685 196.312 3.72113C202.548 4.21572 202.96 3.36855 204.283 2.95231C205.934 2.43324 205.895 1.87499 199.106 1.67911C199.781 2.46262 201.29 3.19716 196.381 3.71134C195.439 3.66237 195.088 3.33428 193.457 3.6085ZM183.671 3.41263C183.816 3.4616 183.93 3.54974 184.117 3.55464C184.506 3.55464 185.101 3.53505 185.314 3.49098C186.099 3.33917 185.795 3.25592 184.59 3.28041C184.251 3.2902 183.976 3.36366 183.671 3.41263ZM132.937 6.85028C132.967 6.8062 132.544 6.73765 132.209 6.71806C131.877 6.70337 131.393 6.73765 130.974 6.74744C131.057 6.80131 131.023 6.86986 131.248 6.90904C132.14 7.05595 132.811 7.03636 132.937 6.85028ZM149.287 3.47139C152.412 3.96108 156.194 3.79459 161.824 3.4518C157.208 3.05515 154.04 2.74664 149.95 3.11391C149.382 3.16288 148.944 3.41263 149.287 3.46649V3.47139ZM125.145 1.74767L125.663 1.87009C126.521 2.11494 127.158 2.38427 128.298 2.59973C129.475 2.82499 131.431 3.01108 133.173 2.69278C134.568 2.43814 133.821 2.12963 131.782 2.00721C130.002 1.89947 127.89 1.88478 125.923 1.83092L125.145 1.74767ZM118.809 10.2047C119.492 10.283 120.113 10.381 120.875 10.4397C121.954 10.5279 123.003 10.4691 122.942 10.3173C122.907 10.2341 121.867 10.1214 121.131 10.0969C120.46 10.0774 119.591 10.1606 118.809 10.1998V10.2047ZM104.465 3.43711C106.813 3.59381 109.1 3.56933 111.12 3.34897C112.005 3.25103 111.711 3.06005 110.648 3.03067C108.071 2.96211 106.264 3.19716 104.465 3.43711ZM103.062 5.61135C107.408 5.43016 109.668 5.20001 110.419 4.76418C110.434 4.75439 110.034 4.72011 109.531 4.69562C109.028 4.67114 108.414 4.64176 108.014 4.65155C105.002 4.71031 104.465 5.07269 103.062 5.61625V5.61135ZM90.6956 2.47241C90.8595 2.5018 91.5762 2.51159 91.8163 2.48711C92.8761 2.37448 92.8837 2.27164 91.8544 2.22267C91.5647 2.20798 91.0768 2.27164 90.6689 2.30102C90.6613 2.35978 90.4974 2.43324 90.6956 2.46752V2.47241ZM56.6007 1.03271L57.0772 1.10617L57.4965 1.01313L56.6045 1.03271H56.6007ZM48.0503 3.80928C57.2945 3.68196 60.6072 3.07963 61.6402 2.1688L62.1587 2.05617L61.3429 2.12963C59.231 2.88376 53.5511 3.17757 48.0503 3.80928Z" fill="#F0E3DE"/>
<path d="M30.5875 1.19482C31.7006 1.10668 32.829 0.920596 33.1721 0.758997C33.5876 0.558223 32.5736 0.377036 30.9459 0.381933C28.3918 0.381933 27.9229 0.641471 27.8467 0.945081C28.3346 1.10178 28.6739 1.35153 30.5875 1.19972V1.19482Z" fill="#F0E3DE"/>
<path d="M2.76717 10.5672C3.64394 10.5721 5.03915 10.5281 5.41654 10.4399C6.48391 10.2 5.00484 10.0971 3.71256 10.0433C2.30592 9.98451 0.819221 9.97472 0.0834978 10.1853C-0.339638 10.5232 1.29573 10.5575 2.76717 10.5672Z" fill="#F0E3DE"/>
<path d="M6.52956 4.81875C7.0823 4.63757 7.49019 4.43189 5.65279 4.34375C3.8497 4.35844 3.03011 4.52983 2.83951 4.73551C2.73277 4.84813 2.99961 5.03422 3.56379 5.07829C5.17629 5.19582 6.0035 4.99504 6.53337 4.81875H6.52956Z" fill="#F0E3DE"/>
</svg>
