<svg width="87" height="98" viewBox="0 0 87 98" fill="none" xmlns="http://www.w3.org/2000/svg">
<g filter="url(#filter0_d_6538_464)">
<path d="M67.7872 76.8092C67.5972 77.0892 67.4172 77.6092 67.1172 77.4092C66.8372 77.1992 66.4772 77.1192 66.1672 76.9392C65.8872 76.7692 65.6272 76.5692 65.3572 76.3592C65.0772 76.6292 65.0872 77.0692 64.7472 77.2692C64.4672 77.4392 64.1972 77.3992 64.1872 77.1892C64.1672 76.2692 63.3972 76.1792 63.2272 75.4792C63.0572 75.5992 62.8872 75.7092 62.7772 75.6392C62.7572 75.6292 62.8172 75.4692 62.8572 75.4392C63.0572 75.2692 63.1472 75.3592 63.2572 75.3892C63.3872 75.2692 63.6972 75.1092 63.5272 74.9892C63.2872 74.8292 62.8172 75.2692 62.4672 75.3792C62.0572 75.4992 62.3372 75.1192 62.5772 74.8492L62.6672 74.7892L62.5772 74.8192C62.4672 74.7192 62.3972 74.5992 62.5472 74.3292L62.6372 74.2892L62.5472 74.3092C61.8972 73.9692 61.2072 73.6592 60.2672 73.6792C59.8972 73.6792 59.6672 73.5492 59.5372 73.3092C59.3872 73.0292 59.5072 72.7392 60.0672 72.4692C60.2072 72.3992 60.4772 72.3892 60.4672 72.1392C60.4672 72.0292 60.1672 71.9792 60.1572 71.9992C59.5272 72.6792 59.4072 72.0792 58.9472 72.3292C58.7072 72.4592 58.4572 72.4692 58.5072 72.2292C58.6472 71.5492 58.1672 71.3792 57.9772 70.9692C57.9272 70.8492 57.9572 70.6992 58.0772 70.5092C58.1772 70.4592 58.1572 70.6592 58.3272 70.4492L58.0872 70.4792C58.0872 70.2392 57.9572 70.1692 57.6872 70.1992C57.3372 70.2392 57.0772 70.1892 57.4172 69.6792L57.8072 69.5792L57.8972 69.5392H57.8172L57.4272 69.6492C57.1372 69.6592 56.8872 69.6492 57.0572 69.2392C57.1972 68.8992 57.3972 68.5092 57.3972 68.2392C57.3972 67.7192 57.1972 68.0892 57.0572 68.4092C56.8972 68.4292 56.6472 68.5392 56.5972 68.4692C56.4072 68.1792 56.1972 67.8892 56.1572 67.4992C56.1172 67.0792 56.7972 67.0292 57.0172 66.6892C56.8072 66.5892 56.5072 66.7992 56.2272 66.9592C55.9572 67.1092 55.7072 67.1692 55.6972 66.9792C55.6172 66.0892 54.6372 66.0692 54.0872 65.6392C53.8372 65.4392 53.3372 65.4892 53.2872 65.0892C53.2572 64.8192 53.0372 64.8092 52.6372 64.9792C52.2072 65.1592 51.4772 65.5492 52.2872 64.5792C52.3972 64.4392 52.2572 64.4092 52.0972 64.4792C51.4172 64.7592 51.1272 64.4592 50.6672 64.4092C49.7772 64.3092 49.7972 64.2892 50.8972 63.2592C50.4572 63.1092 50.1872 62.7292 49.3272 63.1792C49.0872 63.2992 48.9072 63.1792 49.1072 62.8892C49.6372 62.1292 48.9872 62.2092 48.7272 62.2492C48.0372 62.3792 48.4072 61.6692 48.0772 61.5192C47.8772 61.4192 48.3772 61.1392 48.4672 60.9592C48.7372 60.4392 48.4272 60.5592 48.0172 60.8292C47.9472 61.0192 47.8372 61.1192 47.6672 61.1092C47.6372 61.1092 47.6072 61.1292 47.5772 61.1292L47.5972 61.0792C47.5972 61.0792 47.6672 61.0592 47.6972 61.0492L47.8572 60.8592C47.7472 60.6592 47.5372 60.5492 47.2272 60.5592C47.1872 60.5692 47.1272 60.6092 47.1172 60.5892C47.0972 60.5392 47.1472 60.5092 47.2472 60.5092C47.4072 60.2392 47.5672 59.9892 47.0972 60.1592C46.6372 60.3192 46.1672 60.4292 46.5872 59.7292L46.6772 59.6892H46.6072C45.7672 59.7392 45.4172 59.1892 44.6172 59.1692C44.2572 59.1692 44.2872 58.9792 44.6672 58.2992C44.8172 58.0392 44.6672 58.0092 44.5872 58.0192C43.8672 58.0692 43.2972 57.9892 43.4772 57.1692C43.4872 57.0992 43.4472 57.0092 43.4272 57.0192C42.1072 57.6492 42.1472 56.6692 41.5872 56.4092C41.3472 56.2992 40.9672 56.1492 41.6072 55.4792C41.9072 55.1692 41.6272 55.2692 41.4672 55.3092C40.8272 55.4792 40.5972 55.1892 40.2872 54.9392C39.2872 54.1292 38.4172 53.2192 37.5872 52.2592C37.2272 51.8292 36.5372 51.7092 36.6872 50.8592C36.6872 50.7892 36.9272 50.6492 36.7772 50.6192L36.6472 50.8592C35.5872 50.9192 35.4072 50.1192 35.1072 49.4992C34.7872 48.8392 34.2172 48.4192 33.8172 47.8592C33.3772 47.2392 32.6472 46.8592 32.3772 46.0692C32.2472 45.6792 32.0572 45.2092 31.3972 45.2592C30.9172 45.2992 31.2272 44.8592 31.3872 44.5192C31.1972 44.6092 30.9972 44.6892 30.9072 44.6092C30.8872 44.5892 30.9672 44.4492 31.0272 44.4092C31.2572 44.2492 31.3472 44.3392 31.4672 44.3792C31.5172 43.6892 30.5672 44.0692 30.2172 43.7792C29.9372 43.5392 29.3372 43.4892 29.4072 43.0392C29.4972 42.4692 28.5072 42.9792 28.7972 42.3392L28.8972 42.3092H28.8072C28.6272 41.9792 28.2672 41.8492 27.9172 41.6692C27.2272 41.3192 26.6272 40.8392 26.2072 40.1992C25.7372 39.4992 25.4172 38.6292 24.2972 38.5292C24.1172 38.5092 23.9072 38.4792 23.8672 38.3492C23.5272 37.0392 22.1972 36.5892 21.5172 35.5692C21.1972 35.0892 20.6172 34.8192 20.4072 34.2292V34.1492L20.3772 34.2392C20.1672 34.3292 19.9472 34.3792 19.9472 34.2392C19.9072 33.2792 19.0472 32.9992 18.7072 32.3192C18.2172 31.3392 17.3572 30.6892 16.6872 29.8892C16.0972 29.1892 15.5672 28.3492 14.5472 27.9992C14.3672 27.9392 14.1972 27.8092 14.2072 27.6092C14.2572 26.6892 13.3872 26.5492 13.0572 25.9492C12.7372 25.3492 12.1272 24.9792 11.7872 24.3892C11.5372 23.9592 10.3172 24.2092 11.2272 22.9192C11.3072 22.7992 11.0872 22.8692 10.9672 22.8892C10.0472 23.0592 10.0472 23.0592 10.1472 22.2092C10.1472 22.1392 10.2172 22.0492 10.1172 22.0592C8.7072 22.1392 8.3172 21.1892 7.7272 20.4492C7.2672 19.8592 6.6572 19.3592 6.5772 18.4792C6.4172 16.6692 5.4172 15.5292 4.5172 14.3092C4.3272 14.0492 4.1572 13.7892 4.1972 13.3492C4.2872 12.2892 3.8972 11.5492 3.4572 10.8492C3.0272 10.1592 2.7972 9.28917 2.1872 8.77917C1.7772 8.43917 1.3272 8.10918 0.857201 7.81918C0.287201 7.46918 0.307201 6.54919 0.927201 5.57919C1.3272 4.95919 1.8772 4.78918 2.1972 4.84918C3.1872 5.00918 4.3172 5.05918 4.6372 5.93918C4.8572 6.55918 5.2072 7.05918 5.5872 7.53918C6.2972 8.42918 7.0772 9.25919 7.7172 10.1992C8.2372 10.9592 9.0972 11.3892 9.7772 11.9892C10.6572 12.7592 11.5172 13.5592 12.4872 14.2392C14.0272 15.3292 14.9872 16.9392 16.3772 18.1692C18.0172 19.6292 19.7472 21.0192 21.2172 22.6492C22.1672 23.6992 22.9772 24.9192 24.3472 25.5992C24.4272 25.6392 24.4772 25.7192 24.5372 25.7892C25.9472 27.7092 27.8972 29.1392 29.3472 31.0192C30.1272 32.0292 31.1072 32.8892 32.2072 33.6192C32.2572 33.6492 32.3172 33.6792 32.3472 33.7292C33.0272 34.9992 34.4172 35.6192 35.3172 36.6892C36.4772 38.0592 37.6672 39.4192 39.2072 40.4592C39.5572 40.6992 39.7072 41.1092 39.9472 41.4292C40.8372 42.5992 42.0372 43.4792 43.0872 44.4992C44.6472 45.9892 45.9772 47.6892 47.4772 49.2292C48.8072 50.5892 50.1372 51.9692 51.0472 53.6992C51.2372 54.0592 51.6872 54.2192 51.9172 54.5492C52.7372 55.7192 53.7772 56.6992 54.5872 57.8792C55.1672 58.7092 55.7072 59.6192 56.4572 60.2892C58.6172 62.2292 60.0072 64.9592 62.1472 66.7892C63.6672 68.0792 64.6872 69.7592 66.3372 70.5692C67.1072 70.9392 67.5772 71.6592 68.1772 72.1692C68.2772 72.2592 68.2772 72.4892 68.3272 72.6592C68.3972 72.9492 68.1872 73.2892 67.8772 73.4792C67.4572 73.7192 67.0672 73.9392 66.7072 74.5992L66.6172 74.6692L66.6972 74.6192C66.6972 74.6192 66.7372 74.6592 66.7672 74.6592C67.2372 74.6892 66.5372 75.2692 66.5572 75.4792C66.5972 75.9492 67.1172 75.1392 67.2972 75.2692C67.3172 75.2792 67.3372 75.3192 67.3272 75.3492C66.9472 76.3292 67.3672 76.3692 67.8072 76.3792C67.9472 76.3792 67.9572 76.5992 67.8072 76.8192L67.7872 76.8092ZM4.8672 13.2692V13.1992L4.8072 13.2492L4.8672 13.2692ZM7.0472 18.0992L6.9872 18.0792V18.1492L7.0472 18.0992ZM7.5572 18.6792C7.5572 18.6792 7.4972 18.6592 7.4772 18.6592L7.4372 18.7592C7.4372 18.7592 7.4572 18.8192 7.4872 18.8192C7.5772 18.8092 7.6072 18.7492 7.5572 18.6892V18.6792ZM8.0272 19.3792V19.3092L7.9672 19.3592L8.0272 19.3792ZM8.6072 20.5192L8.6672 20.4192C8.6472 20.3592 8.8372 20.1492 8.6172 20.2292L8.6372 20.4292L8.5972 20.5192H8.6072ZM9.3072 20.9692V20.8092L9.1572 20.7392C9.1572 20.7892 9.1372 20.8592 9.1572 20.8892C9.1872 20.9292 9.2572 20.9392 9.3072 20.9592V20.9692ZM41.7172 53.9492L41.6672 53.9292V53.9992L41.7172 53.9492ZM44.2772 56.9292C44.3772 56.8492 44.4072 56.7692 44.3472 56.7392C44.3272 56.7392 44.2672 56.7692 44.2272 56.7792C44.1272 56.8692 44.0972 56.9392 44.1672 56.9692C44.1872 56.9692 44.2572 56.9492 44.2872 56.9192L44.2772 56.9292ZM49.3572 60.2692V60.2192L49.2672 60.3092L49.3572 60.2692ZM52.3872 58.7092C52.3872 58.7092 52.4572 58.6892 52.4972 58.6792L52.5872 58.5692C52.5872 58.5692 52.5272 58.5492 52.4872 58.5692C52.3672 58.5992 52.3172 58.6592 52.3772 58.7192L52.3872 58.7092ZM50.1172 60.8992C50.1172 60.8992 50.1872 60.8192 50.1972 60.7792C50.2372 60.6692 50.1972 60.6592 50.0772 60.7692C50.0472 60.7892 50.0472 60.8392 50.0372 60.8792L50.1172 60.8992ZM49.8672 61.8092V61.7292L49.8072 61.7792L49.8672 61.8092ZM52.2372 61.8292L52.1872 61.7992V61.8692L52.2372 61.8292ZM51.2172 63.6792C51.2172 63.6792 51.0772 63.6792 50.9972 63.7192C50.8872 63.7592 50.8072 63.8592 50.8572 63.8992C50.8872 63.9292 50.9972 63.8792 51.0772 63.8692C51.1972 63.8092 51.2672 63.7192 51.2172 63.6892V63.6792ZM56.5772 65.3892C56.6872 65.2792 56.6772 65.2192 56.5572 65.2592C56.4772 65.2792 56.3772 65.3192 56.3072 65.3792C56.1972 65.4792 56.2072 65.5392 56.3272 65.5092C56.4072 65.4892 56.4972 65.4292 56.5772 65.3892ZM58.6472 69.0992C58.6472 69.0992 58.6972 69.0192 58.7272 68.9792C58.7272 68.9592 58.7172 68.9092 58.6972 68.9192C58.6572 68.9292 58.5972 68.9792 58.5772 68.9992C58.5072 69.1092 58.5372 69.1492 58.6372 69.0992H58.6472ZM58.8672 69.7092L58.8472 69.6792L58.7772 69.7592L58.8672 69.7092ZM65.9772 74.7192C65.9172 74.7292 65.8572 74.7292 65.7972 74.7592C65.6972 74.7992 65.6372 74.8892 65.6772 74.9492C65.6972 74.9792 65.7872 74.9492 65.8472 74.9192C65.9472 74.8792 65.9872 74.8092 65.9772 74.7292V74.7192Z" fill="#091818"/>
<path d="M67.9668 77.269C67.8668 77.269 67.7668 77.349 67.7168 77.519C67.6968 77.589 67.7168 77.689 67.7568 77.709C67.8468 77.749 67.9468 77.6291 68.0068 77.4691C68.0268 77.3991 67.9868 77.339 67.9668 77.269Z" fill="#091818"/>
<path d="M61.9072 74.9689V75.049C61.9072 75.049 62.0072 74.9989 62.0072 74.9789C62.0072 74.9489 62.0072 74.9289 61.9972 74.8989L61.9072 74.9689Z" fill="#091818"/>
<path d="M11.7567 92.2989C11.4967 92.0789 10.9867 91.8689 11.2167 91.5789C11.4367 91.2889 11.5367 90.9189 11.6967 90.5889C11.8467 90.2889 12.0367 90.0089 12.2067 89.6889C11.8967 89.4489 11.4667 89.5189 11.2167 89.2189C11.0067 88.9589 10.9867 88.7089 11.1967 88.6689C12.1067 88.4989 12.0167 87.7189 12.6467 87.3589C12.4867 87.2289 12.3367 87.0889 12.3667 86.9689C12.3667 86.9489 12.5367 86.9589 12.5867 86.9889C12.8067 87.1289 12.7467 87.2489 12.7367 87.3589C12.8967 87.4489 13.1167 87.7189 13.1967 87.5089C13.2967 87.2189 12.7267 86.8889 12.5367 86.5889C12.2967 86.2289 12.7467 86.3789 13.0867 86.5289L13.1767 86.5989L13.1167 86.5189C13.1767 86.3789 13.2767 86.2689 13.5767 86.3289L13.6467 86.4089L13.5967 86.3289C13.7267 85.5689 13.7967 84.7889 13.4467 83.8989C13.3067 83.5489 13.3567 83.2889 13.5367 83.0689C13.7467 82.8189 14.0567 82.8089 14.5167 83.2389C14.6367 83.3489 14.7367 83.5989 14.9767 83.4889C15.0867 83.4389 15.0167 83.1389 14.9967 83.1289C14.1267 82.8189 14.6367 82.4489 14.2367 82.1089C14.0267 81.9389 13.9267 81.6989 14.1667 81.6489C14.8467 81.4889 14.8267 80.9589 15.1267 80.5989C15.2167 80.4989 15.3767 80.4589 15.5967 80.4889C15.6767 80.5589 15.4967 80.6289 15.7467 80.6989L15.6167 80.4889C15.8367 80.3889 15.8567 80.2289 15.7167 79.9789C15.5367 79.6689 15.4867 79.3989 16.0967 79.4889L16.3467 79.8089L16.4167 79.8789L16.3867 79.8089L16.1367 79.4889C16.0167 79.2189 15.9267 78.9789 16.3667 78.9589C16.7367 78.9389 17.1767 78.9589 17.4267 78.8289C17.9067 78.5889 17.4867 78.5789 17.1367 78.5889C17.0567 78.4489 16.8567 78.2589 16.8967 78.1789C17.0967 77.8689 17.2767 77.5289 17.6267 77.3189C18.0067 77.0889 18.3167 77.7089 18.7167 77.7689C18.7167 77.5289 18.4167 77.3389 18.1567 77.1389C17.9067 76.9489 17.7567 76.7489 17.9267 76.6389C18.7167 76.1589 18.3467 75.2289 18.5367 74.5089C18.6267 74.1789 18.3867 73.7289 18.7467 73.4989C18.9867 73.3489 18.9067 73.1289 18.6067 72.8289C18.2667 72.4989 17.6267 71.9789 18.8467 72.3189C19.0167 72.3689 18.9867 72.2089 18.8667 72.0889C18.3367 71.5689 18.5067 71.1489 18.3767 70.6989C18.1267 69.7989 18.1567 69.8089 19.5367 70.4089C19.5067 69.9189 19.7567 69.4989 19.0067 68.8689C18.8067 68.6989 18.8367 68.4689 19.1967 68.5289C20.1067 68.7089 19.7967 68.1089 19.6467 67.8889C19.2667 67.2889 20.0667 67.3289 20.0867 66.9489C20.0967 66.7089 20.5567 67.0689 20.7567 67.0789C21.3467 67.1089 21.1167 66.8689 20.7067 66.5889C20.5067 66.6089 20.3667 66.5389 20.3067 66.3689C20.2867 66.3389 20.2667 66.3189 20.2567 66.2889H20.3167C20.3167 66.2889 20.3567 66.3389 20.3867 66.3689L20.6267 66.4389C20.7767 66.2389 20.7967 65.9989 20.6767 65.7089C20.6467 65.6789 20.5967 65.6289 20.6067 65.6189C20.6467 65.5789 20.6967 65.6189 20.7267 65.7089C21.0367 65.7389 21.3367 65.7889 21.0067 65.4089C20.6767 65.0389 20.4067 64.6389 21.2267 64.7289L21.2967 64.7989L21.2667 64.7289C20.9067 63.9389 21.2967 63.3689 21.0167 62.5889C20.8867 62.2389 21.0767 62.1889 21.8567 62.2589C22.1567 62.2889 22.1267 62.1389 22.0967 62.0689C21.7867 61.3989 21.6567 60.8189 22.4967 60.6389C22.5667 60.6289 22.6467 60.5489 22.6167 60.5289C21.5367 59.5289 22.4867 59.1489 22.5267 58.4989C22.5467 58.2189 22.5567 57.7889 23.4167 58.1289C23.8167 58.2889 23.6267 58.0589 23.5267 57.9189C23.1367 57.3689 23.3267 57.0189 23.4567 56.6289C23.8767 55.3289 24.4367 54.0989 25.0667 52.8989C25.3467 52.3689 25.2267 51.6489 26.0767 51.4489C26.1367 51.4089 26.3567 51.5989 26.3367 51.4489L26.0667 51.4289C25.6467 50.4289 26.3467 49.9189 26.8467 49.3789C27.3667 48.7989 27.5767 48.0789 27.9767 47.4589C28.4267 46.7789 28.5367 45.9189 29.2067 45.3389C29.5367 45.0589 29.9267 44.6889 29.6567 44.0589C29.4667 43.6089 29.9867 43.7389 30.3667 43.7589C30.2167 43.6089 30.0767 43.4489 30.1267 43.3189C30.1267 43.2989 30.3067 43.3189 30.3567 43.3489C30.5867 43.5089 30.5267 43.6389 30.5267 43.7689C31.2067 43.5489 30.5267 42.7689 30.6967 42.3089C30.8367 41.9389 30.6867 41.3289 31.1367 41.2189C31.7167 41.0789 30.8967 40.3089 31.6167 40.3389L31.6767 40.4189L31.6367 40.3389C31.8967 40.0389 31.9167 39.6289 31.9767 39.2189C32.0967 38.4089 32.3767 37.6389 32.8567 36.9789C33.3867 36.2489 34.1167 35.6089 33.8567 34.4589C33.8167 34.2789 33.7867 34.0589 33.9067 33.9689C35.0767 33.1389 35.1067 31.6689 35.8867 30.6189C36.2567 30.1189 36.3367 29.4489 36.8467 29.0289L36.9267 29.0089H36.8267C36.6767 28.8289 36.5667 28.6289 36.6967 28.5689C37.6167 28.1789 37.6467 27.2289 38.2067 26.6389C39.0167 25.7989 39.3967 24.7089 39.9767 23.7589C40.4967 22.9289 41.1667 22.1089 41.2167 20.9789C41.2167 20.7789 41.3067 20.5689 41.4967 20.5089C42.4167 20.2389 42.2967 19.3189 42.7967 18.7789C43.2867 18.2489 43.4967 17.5289 43.9867 16.9889C44.3467 16.5889 43.7667 15.4689 45.2767 15.9289C45.4167 15.9689 45.2867 15.7689 45.2267 15.6589C44.8067 14.8089 44.8067 14.7989 45.6767 14.6089C45.7467 14.5889 45.8467 14.6289 45.8167 14.5289C45.3467 13.1489 46.1867 12.4389 46.7667 11.6089C47.2267 10.9489 47.5667 10.1789 48.4067 9.80888C50.1367 9.05888 51.0167 7.69889 51.9967 6.40889C52.2067 6.13889 52.4267 5.88889 52.8667 5.78889C53.9367 5.53889 54.5667 4.91887 55.1567 4.26887C55.7367 3.62887 56.5467 3.12888 56.9067 2.36888C57.1467 1.85888 57.3667 1.30888 57.5367 0.748885C57.7467 0.0688846 58.6567 -0.191121 59.7667 0.148879C60.4667 0.358879 60.7667 0.868876 60.7967 1.20888C60.8767 2.24888 61.0967 3.38889 60.3067 3.96889C59.7567 4.36889 59.3367 4.8689 58.9567 5.3889C58.2467 6.3589 57.6367 7.3989 56.8667 8.3289C56.2467 9.0789 56.0467 10.0689 55.6267 10.9289C55.0867 12.0389 54.5467 13.1589 54.1267 14.3289C53.4567 16.1989 52.1367 17.6689 51.3267 19.4489C50.3467 21.5489 49.4867 23.7089 48.3267 25.7189C47.5767 27.0089 46.6267 28.2189 46.3867 29.7989C46.3767 29.8889 46.3167 29.9689 46.2567 30.0489C44.8067 32.0989 44.0267 34.5089 42.6667 36.6089C41.9367 37.7389 41.4067 38.9989 41.0667 40.3389C41.0467 40.3989 41.0467 40.4689 41.0067 40.5189C40.0167 41.6589 39.8567 43.2289 39.1267 44.5089C38.2067 46.1589 37.2967 47.8289 36.8267 49.7089C36.7167 50.1389 36.3867 50.4389 36.1567 50.7989C35.3567 52.1189 34.9267 53.6189 34.3267 55.0289C33.4667 57.1289 32.3267 59.0789 31.4167 61.1489C30.6267 62.9889 29.8067 64.8189 28.5167 66.4089C28.2467 66.7389 28.2767 67.2389 28.0467 67.5989C27.2667 68.8789 26.7367 70.2789 25.9467 71.5489C25.3967 72.4589 24.7667 73.3689 24.4267 74.3689C23.4367 77.2689 21.5167 79.7389 20.6167 82.6589C19.9867 84.7689 18.7267 86.5689 18.2967 88.7889C18.0867 89.8489 17.3767 90.8089 16.7667 91.8589C16.6667 92.0389 16.4067 92.1289 16.1967 92.2589C15.8467 92.4689 15.4967 92.2789 15.3167 91.9289C15.0867 91.4589 14.8267 91.0489 14.1167 90.7989L14.0367 90.7189L14.0967 90.8089C14.0967 90.8089 14.0667 90.8689 14.0567 90.8989C14.0267 91.4489 13.4067 90.7689 13.1967 90.8289C12.7067 90.9489 13.5567 91.4089 13.4167 91.6389C13.3967 91.6589 13.3567 91.6989 13.3267 91.6889C12.3067 91.3889 12.2667 91.8389 12.1967 92.3289C12.1767 92.4889 11.9367 92.4989 11.7367 92.3289L11.7567 92.2989ZM53.1167 6.4489L53.1867 6.42888L53.1167 6.37889V6.4489ZM48.8967 10.1689V10.0989L48.8267 10.1189L48.8967 10.1589V10.1689ZM48.4567 10.8689C48.4567 10.8689 48.4567 10.8089 48.4567 10.7789H48.3567C48.3567 10.7789 48.2967 10.8189 48.3167 10.8489C48.3467 10.9289 48.4167 10.9489 48.4667 10.8789L48.4567 10.8689ZM47.8867 11.5689L47.9567 11.5489L47.8967 11.4989V11.5589L47.8867 11.5689ZM46.9167 12.5189L47.0267 12.5489C47.0867 12.5089 47.3367 12.6289 47.2067 12.4389L47.0167 12.5289H46.9167V12.5189ZM46.6567 13.3689L46.8167 13.3189L46.8467 13.1489C46.7967 13.1689 46.7167 13.1689 46.6967 13.1989C46.6667 13.2389 46.6767 13.3089 46.6667 13.3689H46.6567ZM24.8867 57.5789V57.5189L24.8167 57.5389L24.8867 57.5789ZM23.0067 61.3089C23.1267 61.3689 23.2067 61.3689 23.2067 61.2889C23.2067 61.2689 23.1467 61.2289 23.1167 61.1889C22.9967 61.1289 22.9167 61.1289 22.9067 61.2089C22.9067 61.2289 22.9567 61.2789 22.9967 61.3089H23.0067ZM21.7367 67.6089L21.7767 67.5789L21.6667 67.5389L21.7367 67.6089ZM24.3467 69.8189C24.3467 69.8189 24.3867 69.8789 24.4167 69.9089L24.5567 69.9489C24.5567 69.9489 24.5567 69.8889 24.5267 69.8589C24.4467 69.7589 24.3767 69.7389 24.3467 69.8189ZM21.4267 68.6089C21.4267 68.6089 21.5267 68.6389 21.5667 68.6389C21.6867 68.6389 21.6767 68.5889 21.5367 68.5189C21.5067 68.5089 21.4567 68.5189 21.4167 68.5189V68.5989L21.4267 68.6089ZM20.4767 68.7689L20.5567 68.7489L20.4867 68.6989V68.7689H20.4767ZM21.3667 71.0489V70.9889L21.3067 71.0089L21.3667 71.0489ZM19.2467 70.8889C19.2467 70.8889 19.1867 70.7589 19.1267 70.6989C19.0367 70.6089 18.9267 70.5789 18.9067 70.6389C18.8967 70.6789 18.9767 70.7689 19.0167 70.8289C19.1167 70.9189 19.2267 70.9489 19.2467 70.8889ZM19.7267 76.7489C19.8767 76.7989 19.9167 76.7689 19.8367 76.6689C19.7867 76.6089 19.7067 76.5289 19.6267 76.4889C19.4967 76.4289 19.4367 76.4689 19.5167 76.5689C19.5667 76.6289 19.6567 76.6889 19.7267 76.7489ZM17.1067 80.3789C17.1067 80.3789 17.1967 80.3889 17.2467 80.3989C17.2667 80.3789 17.3067 80.3589 17.2967 80.3489C17.2667 80.3189 17.2067 80.2789 17.1767 80.2789C17.0467 80.2689 17.0167 80.3089 17.1067 80.3889V80.3789ZM16.6267 80.8589L16.6567 80.8289L16.5467 80.7989L16.6267 80.8589ZM13.9567 89.9989C13.9367 89.9389 13.9367 89.8689 13.8967 89.8089C13.8467 89.7089 13.7367 89.6689 13.6867 89.7189C13.6567 89.7489 13.7067 89.8389 13.7367 89.8989C13.7867 89.9989 13.8667 90.0289 13.9467 89.9889L13.9567 89.9989Z" fill="#091818"/>
<path d="M11.2567 92.4788C11.2767 92.3688 11.1967 92.2588 11.0467 92.1888C10.9867 92.1588 10.8767 92.1788 10.8567 92.2188C10.8067 92.3088 10.9067 92.4288 11.0667 92.4988C11.1267 92.5288 11.1967 92.4888 11.2667 92.4788H11.2567Z" fill="#091818"/>
<path d="M12.7673 85.9189L12.6973 85.9589C12.6973 85.9589 12.7773 86.0189 12.7873 86.0189C12.8173 86.0189 12.8373 85.9989 12.8573 85.9789L12.7673 85.9189Z" fill="#091818"/>
<path d="M83.8275 43.7092C83.7675 44.0392 83.7875 44.5892 83.4975 44.5192C83.2175 44.4592 82.9075 44.5292 82.6175 44.5192C82.3475 44.5092 82.0875 44.4492 81.7975 44.4092C81.6975 44.7892 81.8775 45.1592 81.7075 45.4992C81.5675 45.7892 81.3775 45.8992 81.2875 45.7192C80.9175 44.9392 80.3475 45.2792 79.9175 44.8192C79.8575 45.0092 79.7875 45.1992 79.6875 45.2092C79.6675 45.2092 79.6375 45.0492 79.6475 44.9992C79.7075 44.7492 79.8075 44.7692 79.8975 44.7292C79.9275 44.5492 80.0775 44.2492 79.8975 44.2492C79.6575 44.2492 79.5375 44.8892 79.3575 45.1792C79.1375 45.5192 79.1475 45.0492 79.1875 44.6792L79.2275 44.5792L79.1875 44.6592C79.0675 44.6492 78.9675 44.5892 78.9375 44.2892L78.9775 44.1992L78.9275 44.2692C78.3175 44.3992 77.7175 44.5892 77.1275 45.2192C76.8975 45.4692 76.6875 45.5092 76.4775 45.4092C76.2375 45.2992 76.1575 44.9992 76.3775 44.4292C76.4275 44.2892 76.5975 44.0992 76.4575 43.9092C76.3975 43.8292 76.1875 43.9892 76.1775 44.0092C76.1475 44.9292 75.7475 44.5692 75.5875 45.0692C75.5075 45.3292 75.3575 45.4992 75.2575 45.2892C74.9775 44.6992 74.5875 44.8992 74.2475 44.7292C74.1475 44.6792 74.0875 44.5392 74.0475 44.3292C74.0775 44.2292 74.1775 44.3792 74.1675 44.1192L74.0375 44.3092C73.9075 44.1292 73.7775 44.1692 73.6275 44.3892C73.4375 44.6592 73.2475 44.7992 73.1675 44.2092L73.3475 43.8692L73.3775 43.7792L73.3275 43.8292L73.1475 44.1792C72.9775 44.3892 72.8175 44.5492 72.6875 44.1492C72.5775 43.8092 72.4775 43.3892 72.3275 43.1992C72.0275 42.8292 72.1275 43.2292 72.2175 43.5592C72.1375 43.6892 72.0375 43.9392 71.9675 43.9192C71.6875 43.8492 71.3875 43.7892 71.1375 43.5392C70.8675 43.2692 71.2575 42.7592 71.2075 42.3592C71.0275 42.4292 70.9575 42.7892 70.8775 43.1092C70.7975 43.4092 70.6775 43.6192 70.5675 43.4992C70.0075 42.9292 69.4075 43.5992 68.8175 43.6792C68.5475 43.7192 68.2775 44.0992 68.0175 43.8492C67.8375 43.6792 67.7075 43.8292 67.5575 44.2292C67.3975 44.6592 67.1775 45.4492 67.1175 44.1992C67.1175 44.0192 66.9975 44.1092 66.9375 44.2592C66.6875 44.9392 66.3375 44.9392 66.0375 45.2192C65.4375 45.7792 65.4375 45.7492 65.5175 44.2392C65.1675 44.4392 64.7875 44.3692 64.5175 45.2992C64.4475 45.5492 64.2675 45.5992 64.2175 45.2492C64.1075 44.3392 63.7475 44.8492 63.6175 45.0692C63.2775 45.6492 63.0875 44.8892 62.8075 45.0192C62.6275 45.0992 62.7675 44.5392 62.7175 44.3492C62.5775 43.7992 62.4575 44.0992 62.3675 44.5792C62.4375 44.7592 62.4275 44.9092 62.3175 45.0292C62.3075 45.0592 62.2875 45.0892 62.2675 45.1092L62.2475 45.0592C62.2475 45.0592 62.2775 44.9992 62.2875 44.9692V44.7192C62.0875 44.6592 61.9075 44.7292 61.7275 44.9492C61.7075 44.9892 61.6875 45.0592 61.6875 45.0492C61.6475 45.0292 61.6575 44.9692 61.7175 44.8992C61.6575 44.5992 61.6075 44.2992 61.4175 44.7592C61.2375 45.1992 61.0175 45.6092 60.8575 44.8192L60.8875 44.7292L60.8475 44.7792C60.3675 45.4092 59.8375 45.2692 59.3575 45.8292C59.1375 46.0792 59.0475 45.9292 58.8775 45.1792C58.8075 44.8892 58.7075 44.9792 58.6675 45.0392C58.2675 45.5792 57.8775 45.9392 57.5075 45.2392C57.4775 45.1792 57.3975 45.1392 57.3875 45.1692C56.9675 46.5592 56.4175 45.8392 55.9375 46.0592C55.7275 46.1492 55.4175 46.3192 55.4075 45.3892C55.4075 44.9592 55.2975 45.2192 55.2275 45.3692C54.9475 45.9492 54.6375 45.9092 54.3175 45.9492C53.2575 46.0992 52.2075 46.0992 51.1475 46.0292C50.6875 45.9992 50.2075 46.3992 49.7975 45.7092C49.7475 45.6692 49.8175 45.3992 49.7175 45.4792L49.7875 45.7392C49.2075 46.5492 48.6275 46.1192 48.0775 45.9092C47.4975 45.6792 46.9175 45.8092 46.3475 45.7192C45.7175 45.6092 45.0775 45.8792 44.4475 45.5292C44.1375 45.3592 43.7475 45.1692 43.3975 45.6892C43.1375 46.0592 43.0575 45.5392 42.9475 45.1892C42.8875 45.3892 42.8275 45.5892 42.7175 45.5992C42.6975 45.5992 42.6575 45.4392 42.6675 45.3792C42.7075 45.1092 42.8175 45.0992 42.9075 45.0492C42.5275 44.5392 42.1975 45.4992 41.8175 45.5492C41.5175 45.5892 41.1375 45.9992 40.9075 45.6392C40.6175 45.1792 40.3575 46.2592 40.1275 45.6092L40.1675 45.5192L40.1175 45.5892C39.8175 45.4892 39.5275 45.6592 39.2175 45.7892C38.6075 46.0492 37.9775 46.1492 37.3575 46.0292C36.6675 45.8992 35.9575 45.5392 35.2575 46.2992C35.1475 46.4192 35.0075 46.5492 34.9075 46.4892C33.9175 45.8492 32.8975 46.5092 31.8975 46.3292C31.4275 46.2392 30.9275 46.4892 30.4575 46.2392L30.4175 46.1792L30.4475 46.2692C30.3875 46.4892 30.2875 46.6792 30.2075 46.5892C29.6075 45.9692 28.9475 46.4092 28.3375 46.2092C27.4675 45.9092 26.5775 46.1092 25.7175 46.0792C24.9575 46.0492 24.1475 45.8792 23.3675 46.3992C23.2375 46.4892 23.0575 46.5292 22.9375 46.3992C22.3975 45.7392 21.8275 46.3092 21.2775 46.1492C20.7275 45.9892 20.1675 46.1892 19.6075 46.0492C19.1975 45.9492 18.6875 47.0292 18.3875 45.4792C18.3575 45.3392 18.2775 45.5492 18.2275 45.6592C17.9609 46.1925 17.6709 46.2458 17.3575 45.8192C17.3175 45.7692 17.2975 45.6592 17.2475 45.7392C16.5175 46.8492 15.7175 46.5192 14.9375 46.4692C14.3175 46.4292 13.6675 46.5492 13.0775 46.0292C11.8575 44.9492 10.5975 44.9592 9.34753 44.8392C9.07753 44.8092 8.82753 44.7692 8.56753 44.4492C7.94753 43.6892 7.26753 43.4892 6.58753 43.3692C5.91753 43.2392 5.23753 42.8492 4.58753 42.9792C4.14753 43.0692 3.69753 43.1892 3.25753 43.3592C2.72753 43.5592 2.15753 42.9492 1.86753 41.8392C1.68753 41.1392 1.86753 40.6092 2.08753 40.3992C2.72753 39.7492 3.36753 38.9292 4.10753 39.2692C4.61753 39.4992 5.12753 39.5692 5.64753 39.5892C6.59753 39.6292 7.55753 39.5892 8.50753 39.7192C9.27753 39.8292 10.0175 39.4592 10.7675 39.3392C11.7375 39.1792 12.7175 39.0592 13.6875 38.7892C15.2275 38.3592 16.7775 38.6992 18.3175 38.4892C20.1475 38.2392 21.9875 37.8692 23.8275 37.8792C25.0175 37.8792 26.2275 38.0992 27.4275 37.5392C27.4975 37.5092 27.5775 37.5192 27.6475 37.5292C29.6375 37.7892 31.6275 37.3092 33.6175 37.5292C34.6875 37.6492 35.7775 37.5092 36.8575 37.1992C36.9075 37.1892 36.9575 37.1592 37.0075 37.1692C38.1775 37.5292 39.3575 36.9592 40.5375 37.0292C42.0475 37.1192 43.5675 37.1892 45.0975 36.7892C45.4475 36.6992 45.7775 36.8792 46.1175 36.9192C47.3475 37.0792 48.5875 36.8192 49.8175 36.7692C51.6375 36.6892 53.4375 36.8992 55.2575 36.8992C56.8675 36.8992 58.4775 36.8992 60.0475 37.4792C60.3775 37.5992 60.7375 37.3892 61.0775 37.4592C62.2575 37.6992 63.4575 37.6492 64.6475 37.8992C65.4875 38.0792 66.3375 38.3292 67.1875 38.2792C69.6475 38.1192 72.0175 39.0892 74.4675 38.9092C76.2275 38.7992 77.9275 39.3792 79.7075 39.0592C80.5475 38.9092 81.3675 39.2592 82.1875 39.4192C82.3275 39.4492 82.4475 39.6492 82.5775 39.7792C82.7875 40.0092 82.7575 40.3992 82.5675 40.7092C82.3075 41.1192 82.0875 41.4992 82.0875 42.2492L82.0475 42.3592L82.0975 42.2692C82.0975 42.2692 82.1475 42.2692 82.1675 42.2692C82.5575 42.0792 82.2475 42.9192 82.3375 43.0892C82.5575 43.4892 82.6475 42.5192 82.8475 42.5592C82.8675 42.5592 82.8975 42.5892 82.9075 42.6192C82.9775 43.6692 83.3175 43.5092 83.6775 43.3392C83.7875 43.2892 83.8775 43.4792 83.8275 43.7392V43.7092ZM8.91753 43.8492L8.87753 43.7992V43.8792L8.91753 43.8492ZM13.1375 45.3892L13.0975 45.4292L13.1375 45.4692V45.3892ZM13.7875 45.3892C13.7875 45.3892 13.7475 45.4192 13.7275 45.4392L13.7675 45.5292C13.7675 45.5292 13.8175 45.5492 13.8375 45.5292C13.8775 45.4592 13.8575 45.3992 13.7975 45.3892H13.7875ZM14.4775 45.4992L14.4375 45.4492V45.5292L14.4775 45.4992ZM15.5075 45.8192L15.4775 45.7092C15.4775 45.7092 15.4075 45.3992 15.3275 45.6192L15.4675 45.7392L15.5075 45.8292V45.8192ZM16.1675 45.5892L16.0675 45.4792L15.9375 45.5492C15.9375 45.5492 15.9975 45.6492 16.0375 45.6492C16.0775 45.6492 16.1175 45.6092 16.1675 45.5892ZM54.6375 44.2692L54.5875 44.2892L54.6275 44.3392V44.2592L54.6375 44.2692ZM57.8975 44.5092C57.9075 44.3792 57.8875 44.3092 57.8275 44.3292C57.8075 44.3292 57.7975 44.4092 57.7775 44.4492C57.7775 44.5792 57.7975 44.6492 57.8475 44.6292C57.8675 44.6292 57.8875 44.5592 57.8875 44.5092H57.8975ZM62.8875 43.2392L62.8575 43.2192V43.3392L62.8875 43.2492V43.2392ZM63.8175 39.9892C63.8175 39.9892 63.8475 39.9292 63.8675 39.8892V39.7492C63.8675 39.7492 63.8175 39.7792 63.7975 39.8092C63.7475 39.9192 63.7475 39.9892 63.8175 39.9892ZM63.7075 43.1492C63.7075 43.1492 63.7075 43.0392 63.6875 43.0092C63.6475 42.8992 63.6175 42.9292 63.6075 43.0792C63.6075 43.1192 63.6275 43.1492 63.6375 43.1892L63.6975 43.1492H63.7075ZM64.0875 43.9692L64.0575 43.9092V43.9892L64.0875 43.9692ZM65.5375 42.3092L65.4875 42.3292L65.5175 42.3892V42.3092H65.5375ZM65.9775 44.3392C65.9775 44.3392 65.8975 44.4392 65.8675 44.5192C65.8275 44.6292 65.8375 44.7492 65.8875 44.7492C65.9275 44.7492 65.9675 44.6392 65.9975 44.5692C66.0375 44.4492 66.0275 44.3292 65.9775 44.3392ZM70.2275 41.7692C70.2275 41.6092 70.1975 41.5792 70.1375 41.6892C70.1075 41.7592 70.0575 41.8592 70.0575 41.9492C70.0475 42.0992 70.0875 42.1392 70.1475 42.0292C70.1775 41.9592 70.2075 41.8492 70.2275 41.7592V41.7692ZM73.6175 42.9492C73.6175 42.9492 73.6075 42.8592 73.5975 42.8092C73.5775 42.7992 73.5475 42.7692 73.5475 42.7792C73.5375 42.8092 73.5175 42.8892 73.5275 42.9192C73.5475 43.0392 73.5875 43.0492 73.6275 42.9392L73.6175 42.9492ZM74.0975 43.2392H74.0675V43.3392L74.0975 43.2392ZM81.5875 42.6892C81.5875 42.6892 81.5075 42.7592 81.4675 42.8092C81.4075 42.8892 81.3975 43.0092 81.4575 43.0292C81.4875 43.0392 81.5375 42.9692 81.5775 42.9192C81.6375 42.8392 81.6375 42.7492 81.5875 42.6892Z" fill="#091818"/>
<path d="M84.1173 44.0688C84.0373 44.0988 83.9873 44.2288 83.9873 44.3988C83.9873 44.4688 84.0373 44.5489 84.0773 44.5489C84.1573 44.5489 84.2073 44.3989 84.2073 44.2289C84.2073 44.1589 84.1473 44.1188 84.1173 44.0688Z" fill="#091818"/>
<path d="M78.8076 45.1891L78.8576 45.2391C78.8576 45.2391 78.8876 45.1491 78.8876 45.1391C78.8876 45.1091 78.8576 45.0991 78.8476 45.0791L78.8176 45.1891H78.8076Z" fill="#091818"/>
</g>
<defs>
<filter id="filter0_d_6538_464" x="0.445312" y="0" width="85.7617" height="97.5098" filterUnits="userSpaceOnUse" color-interpolation-filters="sRGB">
<feFlood flood-opacity="0" result="BackgroundImageFix"/>
<feColorMatrix in="SourceAlpha" type="matrix" values="0 0 0 0 0 0 0 0 0 0 0 0 0 0 0 0 0 0 127 0" result="hardAlpha"/>
<feOffset dx="2" dy="5"/>
<feComposite in2="hardAlpha" operator="out"/>
<feColorMatrix type="matrix" values="0 0 0 0 0.866667 0 0 0 0 0.941176 0 0 0 0 0.858824 0 0 0 1 0"/>
<feBlend mode="normal" in2="BackgroundImageFix" result="effect1_dropShadow_6538_464"/>
<feBlend mode="normal" in="SourceGraphic" in2="effect1_dropShadow_6538_464" result="shape"/>
</filter>
</defs>
</svg>
