<svg width="515" height="252" viewBox="0 0 515 252" fill="none" xmlns="http://www.w3.org/2000/svg">
<g clip-path="url(#clip0_6438_10713)">
<path d="M222.737 246.213C222.354 247.026 222.065 248.458 221.34 248.103C220.624 247.751 219.779 247.76 219.023 247.533C218.325 247.324 217.663 247.004 216.933 246.715C216.457 247.64 216.689 248.716 216.053 249.499C215.515 250.157 214.941 250.33 214.816 249.824C214.287 247.582 212.58 248.147 211.721 246.688C211.446 247.155 211.165 247.613 210.885 247.569C210.836 247.56 210.845 247.12 210.903 246.995C211.192 246.377 211.455 246.475 211.712 246.444C211.904 246.004 212.468 245.296 212.002 245.199C211.357 245.065 210.685 246.671 210.045 247.307C209.276 248.076 209.573 246.848 209.871 245.915L210.023 245.661L209.863 245.839C209.551 245.741 209.307 245.532 209.396 244.718L209.56 244.5L209.391 244.656C207.71 244.661 205.989 244.847 204.113 246.181C203.379 246.706 202.801 246.715 202.303 246.346C201.738 245.932 201.662 245.127 202.516 243.731C202.73 243.38 203.268 242.984 202.987 242.419C202.863 242.17 202.214 242.49 202.2 242.553C201.658 244.954 200.773 243.82 200.124 245.039C199.781 245.679 199.305 246.061 199.145 245.465C198.692 243.784 197.54 244.131 196.717 243.522C196.477 243.344 196.37 242.957 196.379 242.375C196.513 242.126 196.713 242.57 196.802 241.877L196.375 242.313C196.112 241.783 195.752 241.832 195.259 242.335C194.636 242.966 194.067 243.26 194.111 241.659L194.738 240.832L194.867 240.609L194.72 240.734L194.093 241.565C193.546 242.037 193.048 242.397 192.879 241.276C192.737 240.329 192.648 239.191 192.315 238.622C191.657 237.514 191.75 238.617 191.874 239.515C191.594 239.818 191.23 240.436 191.056 240.36C190.331 240.045 189.566 239.751 188.997 239C188.384 238.177 189.642 236.994 189.646 235.909C189.122 236.033 188.806 236.954 188.459 237.75C188.134 238.497 187.73 239.026 187.459 238.657C186.178 236.932 184.283 238.457 182.696 238.453C181.958 238.457 181.082 239.378 180.468 238.626C180.05 238.115 179.627 238.47 179.107 239.458C178.533 240.547 177.675 242.557 177.929 239.222C177.964 238.75 177.644 238.928 177.435 239.329C176.532 241.045 175.607 240.907 174.705 241.565C172.935 242.873 172.944 242.784 173.624 238.826C172.619 239.257 171.614 238.942 170.636 241.325C170.369 241.975 169.871 242.05 169.857 241.107C169.822 238.653 168.719 239.911 168.319 240.454C167.251 241.895 166.953 239.844 166.166 240.093C165.668 240.254 166.193 238.813 166.113 238.292C165.886 236.78 165.495 237.545 165.121 238.804C165.259 239.297 165.188 239.698 164.868 239.978C164.819 240.049 164.774 240.12 164.725 240.174C164.721 240.182 164.69 240.036 164.694 240.027C164.734 239.942 164.783 239.871 164.828 239.796C164.846 239.573 164.854 239.355 164.859 239.137C164.374 238.919 163.858 239.075 163.32 239.604C163.271 239.698 163.196 239.88 163.173 239.862C163.071 239.791 163.116 239.64 163.294 239.484C163.2 238.666 163.156 237.866 162.538 239.035C161.942 240.165 161.261 241.165 161.03 239.048L161.137 238.817L161.008 238.946C159.58 240.525 158.193 240.031 156.774 241.405C156.134 242.028 155.934 241.614 155.631 239.582C155.516 238.799 155.227 239.013 155.102 239.155C153.915 240.503 152.816 241.388 151.954 239.453C151.883 239.297 151.678 239.177 151.647 239.253C150.264 242.864 148.943 240.849 147.609 241.334C147.035 241.539 146.177 241.935 146.302 239.466C146.359 238.315 146.035 239.004 145.817 239.391C144.972 240.881 144.149 240.734 143.278 240.805C140.418 241.023 137.608 240.907 134.802 240.569C133.565 240.414 132.245 241.463 131.213 239.582C131.097 239.471 131.293 238.746 131.013 238.955L131.173 239.653C129.527 241.748 128.024 240.56 126.579 239.942C125.049 239.302 123.484 239.6 121.963 239.297C120.282 238.955 118.539 239.64 116.871 238.679C116.049 238.208 115.012 237.679 114.039 239.057C113.34 240.045 113.14 238.635 112.851 237.705C112.687 238.23 112.513 238.768 112.224 238.799C112.171 238.804 112.064 238.372 112.086 238.208C112.193 237.474 112.482 237.461 112.736 237.319C111.713 235.949 110.819 238.493 109.801 238.622C108.987 238.724 107.955 239.796 107.346 238.835C106.572 237.608 105.852 240.471 105.26 238.737L105.362 238.493L105.238 238.679C104.42 238.421 103.646 238.871 102.823 239.231C101.187 239.942 99.4969 240.209 97.8115 239.907C95.9482 239.56 94.0404 238.635 92.186 240.667C91.8925 240.992 91.5145 241.356 91.2388 241.183C88.5528 239.524 85.8268 241.339 83.1186 240.907C81.8334 240.698 80.5305 241.379 79.2319 240.761L79.1208 240.596L79.2008 240.841C79.0585 241.419 78.805 241.943 78.5693 241.717C76.8973 240.116 75.1585 241.348 73.4953 240.845C71.1162 240.111 68.7504 240.734 66.4157 240.712C64.3612 240.685 62.1421 240.325 60.1009 241.797C59.7452 242.055 59.2694 242.179 58.9447 241.819C57.4194 240.111 55.9341 241.69 54.4221 241.334C52.919 240.983 51.4115 241.557 49.904 241.263C48.7922 241.045 47.5248 243.985 46.5287 239.911C46.4398 239.538 46.2441 240.116 46.1107 240.409C45.4555 241.865 44.6713 242.041 43.7582 240.938C43.6426 240.796 43.5803 240.525 43.4514 240.743C41.6237 243.793 39.3957 243.011 37.2701 242.966C35.5802 242.935 33.8414 243.362 32.1693 242.05C28.7274 239.342 25.2987 239.538 21.8612 239.378C21.1274 239.346 20.4248 239.262 19.6911 238.461C17.8989 236.518 16.0267 236.109 14.1545 235.855C12.3179 235.606 10.4146 234.659 8.64916 235.095C7.47071 235.384 6.26112 235.793 5.08267 236.309C3.67297 236.932 2.01869 235.38 1.09816 232.471C0.5156 230.63 0.955853 229.189 1.49394 228.594C3.13933 226.766 4.77583 224.489 6.83034 225.276C8.25783 225.828 9.65418 225.93 11.0505 225.916C13.6476 225.89 16.2357 225.627 18.8461 225.859C20.9496 226.037 22.9196 224.956 24.9608 224.529C27.5845 223.969 30.2393 223.515 32.8275 222.661C34.8998 221.972 37.0032 221.812 39.1111 221.732C41.219 221.643 43.3269 221.63 45.4214 221.252C47.9073 220.794 50.3887 220.269 52.8879 219.846C55.3827 219.415 57.8908 219.073 60.4167 218.984C63.6763 218.846 67.0116 219.335 70.249 217.743C70.4447 217.649 70.6537 217.676 70.8538 217.694C73.5887 217.956 76.3147 217.73 79.0496 217.498C81.7845 217.289 84.5194 217.027 87.2632 217.276C90.2071 217.534 93.1955 217.125 96.1706 216.28C96.304 216.24 96.4463 216.169 96.5752 216.209C99.7993 217.138 103.059 215.604 106.314 215.786C110.494 216.062 114.683 216.271 118.93 215.297C119.895 215.075 120.82 215.55 121.754 215.693C125.147 216.222 128.603 215.617 132.031 215.608C133.299 215.599 134.561 215.639 135.82 215.706C137.078 215.791 138.337 215.911 139.595 216.031L143.367 216.395C144.625 216.524 145.884 216.64 147.146 216.711C148.267 216.778 149.388 216.84 150.504 216.942C151.62 217.054 152.736 217.187 153.844 217.369C154.951 217.552 156.054 217.778 157.148 218.076C158.237 218.383 159.318 218.77 160.376 219.242C161.261 219.637 162.32 219.17 163.236 219.428C164.859 219.869 166.5 220.198 168.145 220.491C169.791 220.798 171.44 221.087 173.05 221.625C174.189 221.999 175.336 222.421 176.492 222.768C177.648 223.11 178.818 223.382 179.996 223.479C181.717 223.608 183.403 223.915 185.066 224.311C186.729 224.716 188.366 225.245 190.002 225.752L192.457 226.503C193.275 226.757 194.093 227.006 194.916 227.228C196.562 227.677 198.234 228.02 199.946 228.207C202.4 228.509 204.748 229.243 207.096 229.945C209.44 230.684 211.801 231.328 214.336 231.44C216.724 231.573 218.792 232.969 220.958 233.903C221.322 234.068 221.536 234.673 221.798 235.108C222.247 235.851 221.918 236.856 221.207 237.528C220.273 238.413 219.441 239.275 218.992 241.227L218.828 241.477L219.001 241.281C219.068 241.294 219.13 241.334 219.201 241.321C220.371 241.081 219.019 243.06 219.17 243.571C219.517 244.749 220.349 242.304 220.86 242.522C220.913 242.544 220.984 242.628 220.971 242.717C220.518 245.492 221.523 245.305 222.585 245.096C222.919 245.03 223.021 245.599 222.723 246.23L222.737 246.213ZM20.4737 236.847L20.3537 236.714V236.936L20.4737 236.847ZM32.1516 240.369L32.0359 240.476L32.1604 240.583L32.1516 240.369ZM33.8948 240.28C33.837 240.28 33.788 240.369 33.7347 240.414L33.8548 240.654C33.917 240.654 33.9971 240.712 34.0326 240.64C34.1349 240.44 34.0816 240.28 33.8992 240.28H33.8948ZM35.8025 240.48L35.6825 240.351V240.556L35.8025 240.48ZM38.6308 241.192L38.5463 240.894C38.4085 240.827 38.3106 240.089 38.1328 240.667L38.5197 240.956L38.6308 241.187V241.192ZM40.4007 240.503L40.125 240.214L39.7915 240.418C39.8804 240.512 39.9738 240.676 40.0628 240.68C40.1784 240.685 40.2851 240.565 40.4007 240.503ZM144.252 236.305L144.123 236.358L144.216 236.505L144.252 236.305ZM152.99 237.536C153.052 237.185 152.99 236.989 152.83 237.043C152.785 237.056 152.732 237.238 152.683 237.345C152.634 237.697 152.687 237.892 152.848 237.843C152.892 237.83 152.972 237.652 152.99 237.536ZM166.718 235.366L166.629 235.3L166.607 235.606L166.718 235.366ZM170.129 226.997C170.173 226.997 170.24 226.837 170.298 226.748L170.315 226.366C170.249 226.415 170.178 226.428 170.124 226.512C169.946 226.788 169.951 226.988 170.129 226.997ZM168.977 235.34C168.977 235.211 168.995 235.055 168.968 234.962C168.892 234.664 168.799 234.73 168.737 235.131C168.723 235.224 168.777 235.326 168.799 235.42L168.977 235.335V235.34ZM169.759 237.634L169.684 237.456L169.622 237.679L169.759 237.639V237.634ZM174.171 233.663L174.037 233.69L174.113 233.859L174.171 233.663ZM174.731 239.177C174.633 239.177 174.478 239.422 174.371 239.627C174.22 239.911 174.206 240.236 174.344 240.231C174.442 240.231 174.584 239.951 174.705 239.796C174.847 239.475 174.869 239.173 174.731 239.177ZM187.098 233.939C187.156 233.525 187.081 233.423 186.889 233.703C186.769 233.877 186.623 234.121 186.565 234.357C186.476 234.739 186.582 234.864 186.769 234.601C186.889 234.432 186.992 234.161 187.098 233.934V233.939ZM195.792 238.515C195.823 238.453 195.801 238.266 195.806 238.137C195.761 238.101 195.703 238.008 195.677 238.048C195.623 238.132 195.548 238.324 195.548 238.408C195.552 238.746 195.654 238.786 195.792 238.515ZM196.962 239.484L196.886 239.435L196.842 239.729L196.962 239.489V239.484ZM217.374 242.09C217.24 242.17 217.107 242.215 216.973 242.335C216.769 242.522 216.684 242.811 216.813 242.908C216.893 242.966 217.071 242.806 217.205 242.686C217.409 242.499 217.467 242.277 217.374 242.09Z" fill="black"/>
<path d="M223.293 247.311C223.057 247.338 222.843 247.631 222.746 248.076C222.706 248.258 222.79 248.512 222.883 248.534C223.092 248.587 223.319 248.236 223.417 247.791C223.457 247.609 223.337 247.467 223.288 247.311H223.293Z" fill="black"/>
<path d="M208.568 247.004L208.662 247.169C208.706 247.08 208.786 246.942 208.786 246.906C208.777 246.822 208.728 246.791 208.697 246.733L208.568 247V247.004Z" fill="black"/>
<path d="M512.786 154.955C512.648 155.849 512.901 157.299 511.781 157.192C510.678 157.09 509.566 157.366 508.459 157.388C507.44 157.41 506.418 157.321 505.324 157.277C505.101 158.304 505.888 159.251 505.395 160.198C504.977 160.999 504.287 161.337 503.901 160.883C502.202 158.869 500.187 160.029 498.409 158.94C498.253 159.469 498.079 160.003 497.688 160.056C497.617 160.065 497.435 159.647 497.457 159.509C497.568 158.829 497.955 158.833 498.284 158.713C498.342 158.233 498.782 157.374 498.119 157.446C497.203 157.539 497.021 159.282 496.456 160.096C495.776 161.083 495.629 159.829 495.611 158.846L495.7 158.557L495.567 158.78C495.113 158.793 494.691 158.682 494.451 157.881L494.571 157.624L494.415 157.828C492.187 158.38 489.986 159.078 488.083 161.043C487.336 161.804 486.575 162.022 485.748 161.862C484.819 161.679 484.369 160.941 484.89 159.336C485.019 158.931 485.557 158.371 484.943 157.939C484.667 157.748 483.947 158.277 483.956 158.335C484.28 160.776 482.617 160.02 482.284 161.386C482.11 162.102 481.639 162.626 481.172 162.128C479.838 160.719 478.455 161.399 477.103 161.177C476.707 161.106 476.4 160.785 476.156 160.243C476.222 159.958 476.681 160.296 476.498 159.616L476.12 160.185C475.547 159.798 475.088 159.976 474.648 160.625C474.092 161.443 473.465 161.928 472.834 160.416L473.31 159.416L473.385 159.158L473.247 159.327L472.772 160.332C472.251 160.977 471.744 161.492 471.037 160.505C470.441 159.674 469.837 158.637 469.147 158.233C467.804 157.441 468.396 158.437 468.947 159.229C468.707 159.611 468.489 160.327 468.227 160.318C467.128 160.287 465.986 160.296 464.914 159.82C463.753 159.291 464.914 157.704 464.46 156.694C463.82 157.014 463.793 157.993 463.673 158.864C463.557 159.687 463.251 160.332 462.73 160.092C460.302 158.98 458.439 161.137 456.327 161.741C455.353 162.03 454.57 163.182 453.44 162.742C452.671 162.435 452.262 162.938 451.986 164.063C451.679 165.303 451.386 167.514 450.323 164.321C450.172 163.872 449.825 164.165 449.714 164.619C449.234 166.575 447.948 166.824 447.019 167.798C445.209 169.702 445.178 169.617 444.44 165.664C443.857 166.059 443.204 166.282 442.652 166.727C442.101 167.18 441.656 167.874 441.5 169.181C441.411 169.897 440.784 170.177 440.375 169.306C439.317 167.051 438.37 168.679 438.063 169.35C437.236 171.125 435.995 169.337 435.052 169.888C434.456 170.24 434.563 168.688 434.247 168.234C433.331 166.922 433.118 167.789 433.14 169.11C433.527 169.515 433.589 169.915 433.278 170.306C433.242 170.391 433.211 170.48 433.167 170.547C433.162 170.555 433.06 170.435 433.064 170.422C433.087 170.324 433.118 170.24 433.149 170.151C433.082 169.937 433.007 169.728 432.926 169.528C432.193 169.524 431.57 169.871 431.068 170.582C431.037 170.689 431.014 170.884 430.979 170.88C430.814 170.858 430.81 170.698 430.983 170.48C430.525 169.764 430.143 169.043 429.796 170.391C429.458 171.689 428.96 172.926 427.799 171.053L427.848 170.796L427.728 170.969C426.465 173.032 424.419 173.152 423.076 175.025C422.472 175.87 422.04 175.572 420.826 173.806C420.359 173.126 420.061 173.446 419.95 173.628C418.91 175.385 417.789 176.683 415.881 175.256C415.725 175.14 415.405 175.118 415.396 175.198C414.974 179.143 412.417 177.844 410.834 178.867C410.149 179.307 409.153 180.023 408.366 177.675C407.997 176.581 407.828 177.355 407.69 177.808C407.143 179.565 405.987 179.792 404.857 180.241C402.994 180.984 401.113 181.62 399.209 182.184C398.258 182.469 397.302 182.722 396.341 182.985C395.38 183.252 394.42 183.501 393.45 183.741C391.743 184.163 390.369 185.702 388.292 184.399C388.092 184.346 388.092 183.585 387.789 183.901L388.261 184.483C387.549 185.817 386.58 186.373 385.521 186.6C384.463 186.836 383.311 186.756 382.235 186.791C379.958 186.871 377.975 187.836 375.831 188.228C373.461 188.646 371.38 190.073 368.81 189.922C367.547 189.846 365.977 189.815 365.159 191.541C364.572 192.781 363.811 191.55 363.1 190.803C363.064 191.367 363.02 191.945 362.642 192.106C362.575 192.137 362.277 191.772 362.255 191.607C362.144 190.874 362.526 190.736 362.811 190.491C360.965 189.642 360.658 192.435 359.342 193.017C358.288 193.48 357.279 194.952 356.136 194.32C354.682 193.52 354.699 196.535 353.307 195.156L353.361 194.88L353.258 195.107C352.076 195.223 351.191 195.988 350.208 196.686C348.256 198.091 346.081 199.123 343.715 199.572C341.096 200.066 338.245 200.026 336.409 202.787C336.12 203.223 335.728 203.734 335.302 203.694C331.166 203.299 328.066 206.238 324.309 206.994C322.53 207.359 320.996 208.573 319.088 208.559L318.888 208.453L319.07 208.653C319.057 209.267 318.888 209.876 318.505 209.765C315.788 208.969 313.871 210.903 311.532 211.161C308.175 211.534 305.271 213.162 302.243 214.216C299.57 215.141 296.59 215.817 294.474 218.183C294.109 218.592 293.54 218.934 293.011 218.756C291.761 218.325 290.791 218.659 289.884 219.148C288.986 219.646 288.15 220.3 287.136 220.509C285.13 220.931 283.45 222.238 281.488 222.75C280.012 223.119 279.594 226.521 276.828 223.279C276.574 222.981 276.557 223.621 276.503 223.964C276.143 226.525 276.156 226.521 273.853 225.747C273.657 225.68 273.475 225.462 273.404 225.734C272.416 229.563 269.481 230.078 266.991 231.319C266.004 231.808 265.048 232.4 264.047 232.876C263.042 233.347 261.957 233.658 260.716 233.618C255.545 233.405 251.729 235.935 247.949 238.323C247.144 238.843 246.344 239.284 245.107 239.164C243.622 239.044 242.306 239.27 241.096 239.688C239.909 240.133 238.815 240.756 237.757 241.427C236.738 242.108 235.573 242.646 234.497 243.282C233.434 243.931 232.398 244.625 231.66 245.594C230.681 246.888 229.739 248.284 228.983 249.779C228.751 250.223 228.413 250.575 227.995 250.842C227.577 251.108 227.093 251.304 226.532 251.393C225.416 251.58 224.038 251.406 222.579 250.828C220.729 250.094 220.146 248.627 220.262 247.635C220.44 246.132 220.538 244.5 220.987 243.104C221.423 241.694 222.134 240.449 223.495 239.751C225.358 238.746 226.942 237.523 228.458 236.189C231.313 233.769 234.106 231.261 237.263 229.274C238.548 228.491 239.615 227.459 240.66 226.396C241.714 225.351 242.706 224.204 243.849 223.252C246.753 220.735 249.839 218.436 252.725 215.879C253.881 214.856 255.118 213.954 256.403 213.144C257.679 212.317 259.013 211.592 260.352 210.885C261.686 210.165 263.051 209.52 264.385 208.808C265.728 208.115 267.058 207.408 268.352 206.612C274.489 202.89 280.697 199.154 287.35 196.49C291.641 194.765 296.226 193.649 300.032 190.669C300.259 190.491 300.548 190.425 300.824 190.349C304.542 189.344 308.095 187.925 311.643 186.52C315.192 185.11 318.736 183.705 322.419 182.758C326.376 181.744 330.161 180.054 333.785 177.96C333.95 177.866 334.11 177.737 334.297 177.715C338.85 177.226 342.581 174.286 346.926 173.081C349.71 172.299 352.489 171.494 355.224 170.529C357.972 169.59 360.667 168.496 363.273 167.1C364.456 166.469 365.83 166.509 367.102 166.228C369.419 165.735 371.656 164.979 373.87 164.152C376.089 163.333 378.268 162.4 380.514 161.666C383.827 160.559 387.194 159.651 390.564 158.771C393.957 157.939 397.351 157.134 400.712 156.169C401.455 155.96 402.198 155.738 402.949 155.538L405.204 154.964C406.711 154.591 408.223 154.244 409.744 153.941C411.265 153.639 412.799 153.381 414.342 153.194C415.89 153.012 417.46 152.936 419.043 152.932C420.359 152.932 421.56 152.06 422.872 151.918C427.47 151.375 431.997 150.308 436.64 149.926C439.922 149.628 443.364 149.677 446.539 148.876C447.695 148.592 448.856 148.347 450.025 148.138C451.19 147.925 452.364 147.751 453.547 147.64C455.909 147.395 458.283 147.244 460.649 147.089C463.015 146.928 465.385 146.768 467.747 146.613C470.108 146.426 472.46 146.146 474.795 145.679C475.635 145.514 476.476 145.363 477.321 145.265C478.17 145.172 479.02 145.101 479.869 145.043C481.568 144.923 483.271 144.856 484.974 144.772C486.677 144.696 488.372 144.567 490.075 144.416C491.778 144.283 493.477 144.069 495.176 143.7C496.776 143.353 498.413 143.335 500.058 143.415C500.881 143.464 501.704 143.509 502.526 143.602C503.349 143.696 504.172 143.784 504.99 143.842C505.546 143.882 506.093 144.389 506.631 144.718C507.552 145.279 507.56 146.337 506.925 147.2C506.084 148.338 505.368 149.419 505.644 151.411L505.533 151.7L505.675 151.46C505.768 151.451 505.866 151.469 505.96 151.433C507.396 150.833 506.489 153.141 506.916 153.577C507.894 154.582 507.907 151.998 508.686 152.047C508.766 152.051 508.899 152.109 508.921 152.198C509.557 154.973 510.802 154.475 512.114 153.941C512.528 153.772 512.915 154.279 512.803 154.969L512.786 154.955ZM245.085 237.243L244.881 237.22L245.001 237.407L245.085 237.243ZM259.929 232.16L259.845 232.329L260.036 232.346L259.929 232.16ZM261.895 230.977C261.828 231.012 261.81 231.124 261.766 231.195L262.015 231.333C262.086 231.297 262.206 231.297 262.215 231.212C262.246 230.968 262.108 230.861 261.895 230.972V230.977ZM264.203 229.981L264.003 229.936L264.092 230.123L264.203 229.981ZM267.827 228.927L267.6 228.709C267.409 228.731 266.978 228.113 267.018 228.744L267.596 228.78L267.827 228.927ZM269.646 227.268L269.201 227.166L268.89 227.548C269.037 227.579 269.215 227.677 269.321 227.628C269.459 227.566 269.539 227.392 269.646 227.268ZM404.426 175.652L404.274 175.758L404.457 175.852L404.426 175.652ZM416.522 173.041C416.464 172.69 416.308 172.534 416.117 172.65C416.063 172.681 416.063 172.877 416.037 172.997C416.112 173.344 416.259 173.499 416.45 173.388C416.504 173.357 416.539 173.161 416.522 173.041ZM433.878 165.281L433.736 165.255L433.829 165.553L433.878 165.286V165.281ZM434.977 156.129C435.034 156.116 435.057 155.934 435.097 155.831L434.963 155.467C434.897 155.538 434.808 155.578 434.772 155.68C434.652 156.009 434.736 156.192 434.977 156.129ZM436.862 164.347C436.809 164.227 436.769 164.076 436.698 164.001C436.475 163.751 436.377 163.854 436.457 164.25C436.475 164.343 436.591 164.414 436.658 164.494L436.858 164.347H436.862ZM438.837 166.14L438.663 166.006L438.672 166.237L438.841 166.14H438.837ZM443.048 160.652L442.879 160.728L443.048 160.856V160.652ZM446.081 165.57C445.952 165.61 445.845 165.899 445.787 166.126C445.703 166.451 445.818 166.758 446.005 166.695C446.134 166.651 446.205 166.344 446.303 166.153C446.361 165.802 446.263 165.512 446.081 165.57ZM460.271 155.845C460.178 155.44 460.031 155.369 459.898 155.707C459.813 155.916 459.72 156.2 459.746 156.441C459.791 156.828 459.982 156.903 460.12 156.592C460.209 156.387 460.227 156.098 460.276 155.845H460.271ZM473.732 156.85C473.75 156.779 473.639 156.614 473.585 156.494C473.51 156.476 473.39 156.409 473.372 156.458C473.336 156.556 473.319 156.761 473.359 156.841C473.514 157.157 473.665 157.157 473.732 156.85ZM475.702 157.326L475.582 157.308L475.644 157.597L475.702 157.326ZM503.861 152.741C503.718 152.856 503.563 152.941 503.438 153.092C503.247 153.332 503.265 153.635 503.478 153.688C503.607 153.719 503.772 153.514 503.896 153.359C504.087 153.119 504.065 152.892 503.856 152.741H503.861Z" fill="black"/>
<path d="M514.012 155.822C513.714 155.925 513.563 156.267 513.63 156.721C513.657 156.907 513.883 157.121 514.017 157.112C514.319 157.094 514.461 156.689 514.395 156.24C514.368 156.054 514.146 155.96 514.012 155.822Z" fill="black"/>
<path d="M494.371 160.31L494.567 160.434C494.585 160.336 494.633 160.181 494.616 160.15C494.571 160.074 494.491 160.056 494.424 160.016L494.371 160.314V160.31Z" fill="black"/>
<path d="M196.744 207.528C196.21 208.253 195.628 209.587 195.032 209.129C194.445 208.675 193.658 208.546 192.999 208.199C192.395 207.884 191.848 207.466 191.234 207.065C190.589 207.879 190.571 208.96 189.807 209.613C189.162 210.165 188.593 210.236 188.597 209.716C188.606 207.439 186.912 207.679 186.449 206.1C186.093 206.505 185.733 206.901 185.489 206.807C185.444 206.79 185.551 206.363 185.631 206.252C186.031 205.705 186.249 205.842 186.494 205.86C186.765 205.464 187.441 204.882 187.032 204.7C186.471 204.446 185.493 205.9 184.764 206.421C183.879 207.048 184.421 205.909 184.902 205.051L185.097 204.828L184.91 204.975C184.644 204.833 184.457 204.597 184.715 203.819L184.91 203.637L184.719 203.761C183.163 203.486 181.531 203.374 179.507 204.357C178.716 204.744 178.182 204.655 177.8 204.215C177.368 203.717 177.479 202.912 178.56 201.707C178.831 201.404 179.409 201.115 179.276 200.515C179.214 200.248 178.551 200.444 178.525 200.497C177.506 202.738 176.946 201.471 176.088 202.538C175.638 203.099 175.118 203.383 175.1 202.774C175.051 201.044 173.895 201.226 173.259 200.506C173.072 200.297 173.059 199.906 173.184 199.341C173.357 199.119 173.455 199.581 173.682 198.923L173.193 199.279C173.059 198.727 172.717 198.714 172.152 199.119C171.44 199.626 170.858 199.817 171.236 198.265L171.987 197.567L172.156 197.371L171.996 197.464L171.24 198.167C170.636 198.536 170.102 198.798 170.186 197.678C170.253 196.73 170.413 195.605 170.226 194.996C169.853 193.804 169.706 194.894 169.635 195.792C169.315 196.037 168.848 196.579 168.706 196.477C168.105 196.041 167.456 195.641 167.1 194.787C166.713 193.867 168.11 192.942 168.345 191.883C167.838 191.906 167.358 192.746 166.873 193.462C166.415 194.138 165.944 194.565 165.766 194.169C164.934 192.292 162.862 193.484 161.395 193.231C160.714 193.111 159.723 193.858 159.313 193.017C159.033 192.444 158.575 192.719 157.895 193.595C157.143 194.56 155.952 196.379 156.863 193.16C156.992 192.706 156.663 192.826 156.387 193.177C155.213 194.698 154.391 194.409 153.435 194.894C151.545 195.894 151.567 195.81 152.985 192.052C151.971 192.315 151.109 191.852 149.735 194.031C149.361 194.627 148.89 194.623 149.063 193.698C149.512 191.292 148.249 192.355 147.773 192.822C146.515 194.058 146.644 191.99 145.879 192.106C145.394 192.177 146.155 190.852 146.181 190.331C146.27 188.81 145.759 189.491 145.176 190.665C145.208 191.176 145.061 191.55 144.714 191.777C144.656 191.834 144.598 191.901 144.545 191.946C144.536 191.95 144.536 191.803 144.545 191.794C144.598 191.719 144.656 191.656 144.714 191.59C144.772 191.376 144.825 191.163 144.87 190.949C144.469 190.656 143.971 190.718 143.371 191.145C143.309 191.225 143.206 191.394 143.189 191.372C143.109 191.283 143.18 191.145 143.371 191.021C143.442 190.207 143.558 189.402 142.762 190.46C141.997 191.479 141.174 192.377 141.365 190.26L141.508 190.051L141.365 190.158C139.751 191.487 138.577 190.794 137.016 191.928C136.314 192.439 136.211 192.008 136.309 189.967C136.349 189.179 136.042 189.344 135.904 189.469C134.566 190.616 133.41 191.287 132.978 189.246C132.943 189.082 132.778 188.926 132.738 188.997C130.826 192.297 129.972 190.176 128.66 190.469C128.096 190.598 127.246 190.852 127.798 188.45C128.056 187.33 127.633 187.957 127.366 188.303C126.33 189.642 125.605 189.38 124.8 189.322C123.475 189.228 122.181 189.033 120.914 188.766C119.642 188.499 118.366 188.241 117.111 187.894C116 187.592 114.639 188.432 114.003 186.436C113.914 186.307 114.212 185.622 113.919 185.786L113.954 186.498C112.122 188.335 110.948 186.956 109.729 186.138C108.431 185.311 106.954 185.431 105.612 184.95C104.122 184.421 102.445 184.866 101.062 183.701C100.382 183.132 99.5102 182.456 98.4341 183.714C97.6603 184.626 97.6692 183.212 97.5313 182.26C97.309 182.762 97.0822 183.274 96.8109 183.278C96.762 183.278 96.722 182.838 96.7664 182.678C96.9621 181.962 97.2289 181.98 97.4779 181.869C96.722 180.401 95.5702 182.825 94.6274 182.843C93.8714 182.86 92.7953 183.808 92.3639 182.789C91.808 181.491 90.803 184.252 90.4784 182.456L90.5984 182.224L90.465 182.393C89.7535 182.038 88.9931 182.393 88.2059 182.651C86.6362 183.181 85.0619 183.349 83.5677 182.874C81.9135 182.353 80.2725 181.255 78.387 183.096C78.089 183.39 77.7155 183.71 77.4798 183.51C77.1996 183.265 76.9106 183.078 76.6171 182.936C76.3236 182.803 76.0212 182.714 75.7188 182.656C75.1095 182.54 74.4914 182.553 73.8688 182.602C72.6192 182.7 71.3652 182.949 70.1556 182.62C69.0083 182.309 67.7764 182.887 66.6513 182.167L66.5624 181.993L66.6158 182.242C66.4423 182.807 66.1755 183.309 65.9798 183.065C64.5835 181.357 62.9203 182.518 61.4528 181.922C59.3405 181.077 57.1659 181.535 55.0536 181.375C53.1947 181.286 51.198 180.859 49.308 182.26C48.979 182.505 48.5476 182.616 48.2674 182.242C46.9378 180.49 45.5548 182.002 44.1984 181.584C42.8466 181.197 41.4769 181.797 40.125 181.477C39.1155 181.25 37.9771 184.177 37.0788 180.09C36.9943 179.716 36.8209 180.29 36.7008 180.583C36.6208 180.721 36.6608 180.846 36.643 180.961C36.643 181.077 36.6385 181.184 36.6341 181.291C36.6341 181.482 36.6341 181.646 36.6341 181.797C36.6341 182.073 36.6385 182.22 36.6297 182.247C36.6074 182.3 36.5496 181.878 36.2961 181.028C36.2561 180.886 36.1938 180.61 36.2161 180.824C36.3895 182.296 36.603 182.807 36.6474 182.936C36.7053 183.06 36.5852 182.811 36.514 182.74C36.4607 182.687 36.4873 182.74 36.3895 182.638C36.2828 182.536 36.0515 182.282 35.3178 181.628C34.5662 180.961 33.8458 180.446 33.2499 180.103C32.8141 179.89 32.5251 179.863 32.325 179.925C31.9247 180.063 31.8803 180.526 31.7424 180.957C31.6846 181.153 31.569 181.286 30.7196 181.286C29.6879 181.295 29.0698 181.593 28.674 181.993C28.2782 182.398 28.1048 182.9 27.9713 183.43C27.9402 183.558 27.8957 183.692 27.8424 183.83C27.8157 183.879 27.7979 184.021 27.7712 184.123L27.6956 184.452C27.5933 184.893 27.4777 185.333 27.3843 185.773C27.1976 186.649 27.0953 187.512 27.3399 188.33C27.6645 189.42 28.1003 190.54 28.6473 191.621C29.3054 192.919 27.7979 194.525 24.9207 195.49C23.093 196.103 21.6477 195.743 21.034 195.263C19.1663 193.795 16.8494 192.355 17.5832 190.411C18.0946 189.059 18.1568 187.756 18.1035 186.453L18.0545 185.546L17.9834 184.559L17.7966 182.22C17.681 180.668 17.5965 179.12 17.641 177.653C17.6765 176.47 17.383 175.225 17.0139 173.886C16.6404 172.552 16.1779 171.12 15.8888 169.742C15.7021 168.848 15.5197 167.95 15.333 167.051L15.0528 165.677L14.9061 164.979L14.8305 164.628C14.8305 164.601 14.8127 164.565 14.8171 164.543L14.8838 164.53L15.0217 164.499C16.4847 164.17 17.9523 163.805 19.402 163.334C21.7367 162.582 24.6583 162.306 27.5266 162.106L31.8402 161.826L33.9748 161.67L35.0421 161.568L35.5757 161.506L35.8425 161.47L36.0338 161.435C38.3996 160.999 40.7698 160.496 43.1578 160.074C45.5459 159.718 47.9473 159.491 50.3575 159.474C51.914 159.465 53.4793 159.603 55.0536 159.549C56.6234 159.536 58.1976 159.38 59.7852 158.678C59.9764 158.593 60.1721 158.633 60.3633 158.664C61.6618 158.873 62.9603 158.958 64.2633 158.975C64.917 158.984 65.5663 158.98 66.22 158.967L67.2028 158.94H68.1811C70.7915 158.953 73.4197 158.94 76.0034 159.385C76.6971 159.505 77.3953 159.58 78.1024 159.62C78.4537 159.643 78.8094 159.647 79.1652 159.651C79.521 159.665 79.8723 159.669 80.228 159.665C81.6511 159.647 83.0963 159.491 84.5505 159.211C84.6839 159.184 84.8218 159.131 84.9419 159.18C87.8947 160.452 91.1721 159.136 94.2227 159.78C96.1839 160.163 98.145 160.523 100.142 160.723C101.138 160.825 102.143 160.874 103.157 160.888C104.166 160.923 105.185 160.901 106.221 160.803C107.164 160.714 107.964 161.319 108.827 161.577C110.392 162.048 112.006 162.248 113.643 162.373L114.87 162.457L116.093 162.578C116.907 162.658 117.721 162.747 118.526 162.867C120.909 163.218 123.248 163.769 125.579 164.347C126.748 164.614 127.895 164.979 129.052 165.295C130.208 165.615 131.369 165.922 132.543 166.189C134.615 166.669 136.7 167.136 138.719 167.825C140.716 168.568 142.659 169.488 144.469 170.751C145.225 171.276 146.297 170.987 147.111 171.383C147.827 171.734 148.556 172.041 149.294 172.325L151.496 173.215C152.963 173.802 154.435 174.393 155.836 175.163C156.828 175.71 157.815 176.305 158.824 176.83C159.331 177.093 159.843 177.333 160.363 177.546C160.879 177.773 161.404 177.969 161.942 178.115C165.077 178.969 167.941 180.499 170.787 182.011C173.606 183.59 176.372 185.231 179.49 186.151C180.606 186.494 181.682 186.912 182.714 187.427C183.741 187.952 184.741 188.521 185.755 189.077C187.779 190.189 189.824 191.234 192.172 191.75C193.289 191.977 194.222 192.573 195.121 193.24C196.019 193.907 196.864 194.667 197.767 195.312C198.074 195.53 198.14 196.152 198.291 196.615C198.549 197.406 198.025 198.323 197.215 198.856C196.152 199.559 195.192 200.257 194.351 202.071L194.142 202.285L194.347 202.125C194.405 202.151 194.454 202.2 194.525 202.196C195.663 202.151 193.978 203.846 194.009 204.366C194.076 205.562 195.379 203.33 195.81 203.628C195.854 203.659 195.903 203.752 195.872 203.837C194.849 206.443 195.823 206.425 196.855 206.403C197.18 206.394 197.149 206.959 196.739 207.519L196.744 207.528ZM29.092 180.414H28.9497L29.1809 180.503L29.092 180.414ZM33.7791 180.063L33.8503 180.157L33.9792 180.263L33.7791 180.063ZM34.1304 180.041C34.1304 180.041 34.1749 180.121 34.2016 180.161L34.4239 180.392C34.4239 180.392 34.504 180.454 34.4551 180.388C34.3172 180.201 34.1794 180.05 34.1304 180.041ZM34.7219 180.303L34.6063 180.174L34.7486 180.37L34.7219 180.303ZM35.6691 181.095L35.5001 180.801C35.4468 180.735 35.0287 180.01 35.3089 180.57L35.5312 180.868L35.6691 181.099V181.095ZM35.6513 180.486L35.4823 180.192L35.5046 180.383C35.5624 180.477 35.6469 180.641 35.6647 180.65C35.6869 180.659 35.6558 180.548 35.6513 180.486ZM126.477 185.048L126.348 185.084L126.41 185.239L126.477 185.048ZM134.277 187.552C134.397 187.214 134.379 187.014 134.223 187.04C134.179 187.049 134.099 187.218 134.032 187.312C133.926 187.65 133.939 187.85 134.09 187.828C134.135 187.823 134.237 187.663 134.277 187.552ZM147.302 187.587L147.235 187.507L147.155 187.805L147.302 187.587ZM152.074 179.965C152.114 179.974 152.207 179.827 152.278 179.752L152.372 179.378C152.305 179.414 152.234 179.414 152.167 179.489C151.949 179.73 151.914 179.925 152.078 179.965H152.074ZM149.379 187.948C149.401 187.823 149.45 187.672 149.446 187.579C149.437 187.272 149.339 187.321 149.201 187.703C149.17 187.792 149.201 187.899 149.201 188.001L149.379 187.952V187.948ZM149.655 190.309L149.619 190.122L149.517 190.327L149.655 190.309ZM154.515 187.121H154.386L154.422 187.303L154.515 187.121ZM153.937 192.586C153.844 192.573 153.652 192.786 153.515 192.968C153.319 193.222 153.239 193.538 153.372 193.551C153.466 193.56 153.648 193.315 153.79 193.182C153.986 192.893 154.066 192.599 153.937 192.586ZM166.406 189.54C166.544 189.148 166.495 189.037 166.26 189.277C166.113 189.429 165.922 189.642 165.824 189.864C165.664 190.22 165.735 190.358 165.962 190.136C166.108 189.993 166.255 189.74 166.406 189.54ZM173.468 195.499C173.513 195.441 173.531 195.259 173.557 195.134C173.522 195.094 173.491 194.987 173.455 195.023C173.388 195.094 173.277 195.267 173.259 195.352C173.193 195.681 173.277 195.739 173.464 195.499H173.468ZM174.344 196.642L174.287 196.579L174.18 196.855L174.344 196.642ZM192.657 202.654C192.515 202.707 192.381 202.729 192.235 202.818C192.003 202.961 191.861 203.232 191.959 203.348C192.017 203.419 192.217 203.294 192.368 203.201C192.599 203.054 192.702 202.85 192.657 202.654Z" fill="black"/>
<path d="M197.019 208.68C196.792 208.666 196.534 208.915 196.343 209.329C196.263 209.498 196.29 209.756 196.37 209.796C196.552 209.88 196.841 209.578 197.028 209.169C197.108 209 197.028 208.844 197.015 208.684L197.019 208.68Z" fill="black"/>
<path d="M183.452 205.905L183.506 206.079C183.568 205.999 183.67 205.883 183.674 205.847C183.688 205.767 183.648 205.723 183.63 205.665L183.452 205.905Z" fill="black"/>
<path d="M186.612 201.369C186.915 200.519 186.83 199.025 188.178 199.394C188.831 199.581 189.499 199.728 190.179 199.834C190.846 199.986 191.535 200.101 192.189 200.324C193.39 200.733 194.537 201.289 195.729 201.929C196.449 201.142 195.938 199.83 196.947 199.274C197.81 198.807 198.855 198.945 199.077 199.608C199.713 201.093 200.207 201.684 200.958 202.356C201.683 203.014 202.404 203.601 202.986 204.815C203.226 204.361 203.453 203.903 203.742 204.104C203.791 204.139 203.858 204.731 203.822 204.873C203.631 205.558 203.32 205.264 203.035 205.149C202.897 205.629 202.319 206.18 202.911 206.647C203.751 207.296 204.142 205.491 204.596 204.922C204.872 204.579 204.996 204.788 205.054 205.269C205.116 205.744 205.121 206.465 205.099 207.074L205.019 207.354L205.125 207.194C205.454 207.554 205.748 208.039 205.939 209.289L205.846 209.511L205.966 209.387C206.259 209.631 206.539 209.867 206.815 210.071C207.131 210.307 207.393 210.543 207.664 210.707L207.762 210.77L207.811 210.796L207.833 210.81C207.833 210.81 207.847 210.77 207.856 210.752L208.025 210.245C208.136 209.907 208.238 209.56 208.34 209.213C208.736 207.817 209.048 206.336 209.185 204.766C209.319 203.268 209.563 202.569 210.039 202.205C210.302 202 210.582 202.022 210.871 202.343C211.151 202.667 211.431 203.281 211.622 204.361C211.729 204.895 211.622 206.025 212.209 205.936C212.489 205.887 212.765 204.682 212.721 204.633C211.315 202.369 212.752 201.84 212.16 200.35C211.849 199.572 211.76 198.843 212.334 198.954C213.152 199.096 213.69 198.714 214.122 198.242C214.486 197.824 215.073 197.019 215.718 196.499C216.105 196.183 216.599 196.121 217.194 196.277C217.341 196.535 216.714 196.722 217.359 197.024L217.266 196.286C218.03 196.032 218.284 195.499 218.195 194.636C218.084 193.551 218.288 192.617 219.872 193.133L220.174 194.285L220.29 194.538V194.293L219.983 193.142C219.978 192.675 219.996 192.226 220.169 191.91C220.352 191.594 220.708 191.421 221.352 191.474C222.451 191.567 223.678 191.812 224.545 191.536C226.24 190.994 225.061 190.749 224.052 190.625C224.007 190.136 223.723 189.406 223.958 189.188C224.95 188.272 225.933 187.263 227.222 186.76C228.637 186.253 228.565 188.392 229.628 188.815C230.011 188.077 229.419 187.294 228.983 186.525C228.57 185.795 228.459 185.044 229.095 184.821C230.571 184.301 231.403 183.252 232.079 182.055C232.248 181.757 232.408 181.446 232.563 181.135C232.723 180.828 232.892 180.526 233.057 180.223C233.395 179.618 233.746 179.031 234.173 178.502C234.956 177.537 235.062 175.958 236.428 175.5C237.362 175.198 237.473 174.46 237.166 173.317C236.815 172.054 235.974 169.942 238.736 171.929C239.123 172.21 239.327 171.716 239.207 171.245C238.687 169.221 239.901 168.083 240.381 166.566C240.848 165.068 241.146 164.379 241.622 164.392C242.102 164.414 242.791 165.179 244.13 166.682C244.975 165.206 246.46 164.156 245.615 161.59C245.384 160.892 245.944 160.221 246.771 160.741C248.91 162.075 249.231 160.06 249.28 159.247C249.426 157.112 251.556 157.979 252.348 156.894C252.859 156.2 253.38 157.704 253.909 157.926C255.443 158.58 255.305 157.655 254.754 156.441C254.171 156.303 253.936 155.969 254.118 155.413C254.118 155.316 254.122 155.213 254.145 155.124C254.145 155.115 254.309 155.169 254.309 155.178C254.322 155.28 254.318 155.378 254.322 155.476C254.483 155.636 254.647 155.782 254.82 155.92C255.634 155.498 256.181 154.817 256.466 153.857C256.457 153.741 256.404 153.541 256.448 153.528C256.644 153.452 256.706 153.603 256.595 153.901C257.382 154.31 258.08 154.769 257.956 153.314C257.836 151.914 257.947 150.464 259.939 151.576L259.979 151.847L260.046 151.616C260.366 150.282 261.109 149.321 261.882 148.383C262.652 147.44 263.443 146.51 263.897 145.256C264.306 144.122 264.906 144.171 266.859 145.221C267.61 145.621 267.846 145.167 267.912 144.936C268.535 142.731 269.46 140.934 272.093 141.379C272.306 141.414 272.684 141.281 272.671 141.196C271.977 137.141 275.366 137.212 276.927 135.477C277.602 134.726 278.581 133.556 280.115 135.504C280.831 136.411 280.818 135.571 280.867 135.064C281.058 133.112 282.365 132.4 283.584 131.475C284.589 130.715 285.607 129.977 286.639 129.261C287.67 128.545 288.72 127.873 289.778 127.206C291.895 125.881 294.052 124.596 296.253 123.413C298.188 122.363 299.522 120.3 302.221 120.847C302.466 120.829 302.612 121.589 302.906 121.167L302.239 120.753C303.426 117.574 306.428 117.138 308.963 116.329C311.64 115.457 313.854 113.847 316.34 112.753C319.093 111.557 321.356 109.44 324.465 108.844C325.99 108.542 327.858 108.115 328.623 106.123C329.174 104.691 330.233 105.714 331.167 106.27C331.144 105.683 331.131 105.082 331.558 104.811C331.638 104.762 332.029 105.042 332.078 105.202C332.296 105.918 331.856 106.172 331.545 106.505C333.83 106.817 333.897 103.926 335.422 102.979C336.636 102.227 337.713 100.457 339.144 100.795C340.963 101.227 340.67 98.1538 342.462 99.1899L342.422 99.4879L342.524 99.23C343.934 98.8119 344.948 97.8203 346.082 96.8597C348.341 94.9697 350.898 93.3644 353.74 92.3771C356.906 91.2965 360.348 90.7273 362.473 87.5121C362.807 87.0007 363.269 86.4004 363.799 86.3648C366.338 86.178 368.53 85.1908 370.669 84.0612C371.737 83.4965 372.795 82.8961 373.871 82.3492C374.961 81.82 376.068 81.3441 377.233 81.0017C379.434 80.3524 381.351 78.8538 383.717 78.5781L383.961 78.6581L383.743 78.4803C383.775 77.8443 384.01 77.1862 384.482 77.244C387.839 77.7109 390.325 75.4963 393.278 74.9538C394.332 74.7626 395.35 74.4869 396.364 74.1845C397.378 73.891 398.379 73.5485 399.366 73.1883C401.34 72.4679 403.284 71.6675 405.262 71.0182C406.997 70.4312 408.851 69.9909 410.648 69.3595C412.444 68.728 414.192 67.9186 415.757 66.6824C416.3 66.2555 417.087 65.8864 417.727 66.0731C420.751 67.0026 422.953 64.8102 425.643 64.4633C426.973 64.2943 428.262 63.8986 429.548 63.4939C430.842 63.1159 432.145 62.7512 433.483 62.5911C435.444 62.3643 437.174 58.9535 439.567 62.5911C439.785 62.9247 440.025 62.2754 440.211 61.933C441.568 59.3715 441.612 59.4026 444.232 60.5678C444.454 60.6656 444.601 60.9191 444.796 60.6567C446.179 58.8379 447.891 57.9307 449.719 57.3926C450.631 57.1258 451.574 56.9523 452.521 56.8011C453.477 56.6811 454.433 56.5877 455.376 56.4454C456.874 56.223 458.386 55.8895 459.903 55.7116C460.281 55.6672 460.663 55.636 461.041 55.6182C461.232 55.6093 461.424 55.6049 461.61 55.6005H461.895C461.931 55.6005 462.015 55.6005 462.1 55.5916L462.349 55.5782C463.011 55.5426 463.665 55.5204 464.31 55.5293C464.99 55.5515 465.657 55.6005 466.306 55.6805C471.545 56.4676 476.143 56.5921 480.813 56.3876C481.978 56.3387 483.138 56.2675 484.299 56.183L485.171 56.1163L485.282 56.1074C485.313 56.1074 485.308 56.1741 485.322 56.2052L485.38 56.4365L485.491 56.899L485.944 58.7356C486.558 61.177 487.158 63.5295 487.737 65.9042C487.977 66.9181 488.212 67.9053 488.337 68.937C488.444 69.9776 488.461 71.0449 488.301 72.1522C488.119 73.4863 487.937 74.7759 487.848 75.9899C487.759 77.2084 487.723 78.3646 487.697 79.5253C487.697 79.8499 487.67 80.0011 487.661 80.2235L487.634 80.8505C487.616 81.2685 487.603 81.6866 487.599 82.1046C487.59 82.9406 487.621 83.7766 487.63 84.6127C487.701 87.9035 486.94 91.2343 487.43 94.3827C487.741 96.4906 488.141 98.6785 488.568 100.84C489.111 103.446 487.319 106.19 484.299 107.243C482.387 107.915 481.026 106.901 480.515 105.923C480.128 105.167 479.696 104.415 479.278 103.668C478.869 102.921 478.487 102.174 478.162 101.422C477.535 99.9193 477.202 98.4073 477.606 96.7797C478.18 94.5028 478.198 92.2215 478.069 89.9402C477.918 87.8234 477.691 85.7066 477.388 83.6032C477.322 83.074 477.25 82.5493 477.17 82.0245L477.077 81.3441L477.01 80.7571C476.908 79.97 476.824 79.174 476.744 78.3424C476.615 76.995 476.165 75.8032 475.645 74.807C475.383 74.309 475.12 73.8465 474.845 73.4062C474.711 73.1839 474.578 72.966 474.453 72.7436L474.36 72.5791C474.342 72.5524 474.333 72.5168 474.311 72.5035L474.191 72.5391L473.711 72.6769C472.096 73.1261 470.571 73.5352 469.13 73.971C468.41 74.1889 467.716 74.4157 467.049 74.6514C466.711 74.767 466.404 74.9049 466.075 75.0427C465.719 75.1895 465.493 75.314 464.879 75.523C463.207 76.1278 461.513 76.6036 459.809 77.0039C458.956 77.204 458.102 77.3863 457.243 77.5597C456.385 77.7243 455.536 77.9377 454.678 78.1156C452.965 78.4847 451.249 78.836 449.541 79.2274C448.687 79.423 447.838 79.6276 446.989 79.8455C446.566 79.9567 446.139 80.0678 445.721 80.1924C445.303 80.3258 444.885 80.4636 444.467 80.6059C436.565 83.283 428.832 86.3826 420.894 88.9441C418.337 89.7801 415.691 90.4471 413.129 91.3632C410.572 92.306 408.077 93.4311 405.792 95.0275C405.516 95.2188 405.182 95.3033 404.862 95.3878C403.773 95.6724 402.705 96.037 401.643 96.4106C400.58 96.7841 399.526 97.1799 398.481 97.5935C396.386 98.4251 394.305 99.27 392.251 100.204C390.196 101.138 388.146 102.076 386.074 102.965C385.038 103.41 383.997 103.842 382.947 104.255C381.907 104.691 380.857 105.109 379.795 105.496C377.513 106.336 375.281 107.337 373.111 108.466C370.945 109.623 368.855 110.948 366.827 112.353C366.645 112.482 366.467 112.642 366.253 112.695C364.946 113.042 363.705 113.527 362.505 114.101C361.313 114.692 360.161 115.368 359.023 116.066C356.746 117.467 354.504 118.935 352.081 120.051C348.977 121.514 345.873 122.999 342.849 124.631C339.838 126.308 336.917 128.14 334.151 130.239C332.892 131.182 331.327 131.546 329.926 132.191C327.387 133.374 324.972 134.788 322.611 136.282C320.258 137.803 317.946 139.382 315.575 140.854C313.819 141.934 312.058 142.993 310.292 144.025L304.965 147.08L299.668 150.139C297.925 151.184 296.2 152.252 294.492 153.345C292.971 154.306 291.486 155.302 289.983 156.276C288.484 157.25 286.955 158.188 285.434 159.118C282.419 160.999 279.252 162.671 276.002 164.178C274.632 164.797 273.707 166.171 272.404 166.913C270.154 168.274 268.001 169.786 265.853 171.302C263.763 172.872 261.66 174.433 259.445 175.852C256.408 177.951 253.059 179.925 250.565 182.607C249.644 183.567 248.693 184.488 247.719 185.382C246.785 186.307 245.833 187.218 244.864 188.103C243.899 188.993 242.898 189.855 241.92 190.736L239.06 193.426L237.624 194.769C237.153 195.223 236.65 195.654 236.214 196.135C235.316 197.077 234.427 198.024 233.555 198.989C233.119 199.47 232.688 199.959 232.261 200.448L231.625 201.186C231.42 201.435 231.234 201.702 231.038 201.96C230.269 203.001 229.522 204.059 228.819 205.144C228.374 205.829 227.912 206.5 227.431 207.159L227.342 207.283L227.298 207.345L227.276 207.377L227.236 207.443L226.898 207.968L226.222 209.013L224.852 211.099C223.02 213.874 221.152 216.617 219.293 219.348C217.457 222.132 215.669 224.982 213.873 227.855C212.979 229.296 212.085 230.754 211.191 232.249L210.528 233.356L209.941 234.232L209.354 235.13L208.701 236.158L206.664 233.618L204.507 230.999C203.093 229.309 201.612 227.379 200.194 225.462C199.478 224.493 198.757 223.492 198.086 222.55L197.063 221.104C196.72 220.633 196.387 220.095 196.044 219.73L194.012 217.307C193.932 217.196 193.834 217.129 193.745 217.053L193.47 216.826L192.918 216.373L191.82 215.475L191.273 215.025L191.082 214.883L190.699 214.594C190.575 214.501 190.446 214.398 190.317 214.309L189.943 214.074C189.774 213.967 189.659 213.758 189.552 213.509C189.441 213.278 189.343 213.011 189.223 212.78C188.818 211.993 189.156 210.988 189.988 210.405C190.53 210.023 191.077 209.653 191.566 209.142C192.051 208.639 192.487 208.004 192.798 207.043L193.025 206.83L192.789 206.981C192.7 206.945 192.62 206.883 192.518 206.883C190.948 206.865 192.709 205.109 192.465 204.526C192.167 203.837 191.749 204.13 191.348 204.526C190.944 204.922 190.539 205.451 190.174 205.291C190.099 205.255 189.983 205.166 189.992 205.073C190.112 203.663 189.774 202.952 189.218 202.627C188.654 202.338 187.902 202.369 187.146 202.516C186.675 202.596 186.341 202.013 186.568 201.355L186.612 201.369ZM486.394 70.7425L486.336 71.0982L486.54 71.0049L486.394 70.738V70.7425ZM466.173 57.3704L466.538 57.2192C466.418 57.1969 466.298 57.1747 466.177 57.1525V57.3704H466.173ZM461.602 58.1664C461.699 58.153 461.784 58.0507 461.873 57.9885L461.642 57.7795C461.535 57.7973 461.388 57.7617 461.33 57.8417C461.166 58.0685 461.277 58.2153 461.597 58.1664H461.602ZM458.235 58.4821L458.462 58.5799L458.444 58.3754L458.235 58.4821ZM453.192 58.5622L453.379 58.8334C453.628 58.8601 453.886 59.5672 454.126 58.9401L453.415 58.7578L453.192 58.5577V58.5622ZM450.177 59.8295L450.693 60.0252L451.244 59.7095C451.075 59.6472 450.893 59.5138 450.742 59.5405C450.542 59.5716 450.364 59.7273 450.177 59.8295ZM285.251 135.815L285.398 135.651L285.167 135.633L285.251 135.815ZM272.057 143.829C272.23 144.145 272.457 144.216 272.64 144.011C272.693 143.953 272.631 143.767 272.622 143.642C272.431 143.344 272.213 143.264 272.03 143.464C271.977 143.522 271.999 143.727 272.057 143.833V143.829ZM255.563 160.407L255.728 160.35L255.501 160.132L255.563 160.407ZM258.338 169.386C258.285 169.43 258.338 169.608 258.347 169.724L258.645 169.977C258.68 169.879 258.756 169.79 258.747 169.675C258.725 169.31 258.56 169.19 258.342 169.386H258.338ZM252.779 163.044C252.886 163.12 252.997 163.231 253.104 163.262C253.446 163.356 253.509 163.209 253.251 162.893C253.188 162.818 253.037 162.822 252.931 162.791L252.779 163.044ZM249.867 162.609L250.116 162.626L250.004 162.422L249.867 162.609ZM248.021 170.182L248.154 170.008H247.919L248.021 170.182ZM242.489 167.843C242.6 167.714 242.569 167.394 242.52 167.153C242.449 166.811 242.178 166.62 242.013 166.798C241.898 166.922 241.978 167.251 241.969 167.487C242.084 167.838 242.324 168.025 242.485 167.843H242.489ZM233.995 186.258C234.329 186.507 234.498 186.453 234.418 186.084C234.369 185.853 234.275 185.555 234.106 185.382C233.831 185.106 233.608 185.19 233.675 185.546C233.719 185.777 233.88 186.022 233.991 186.262L233.995 186.258ZM221.65 196.477C221.686 196.539 221.895 196.561 222.024 196.601C222.095 196.548 222.242 196.49 222.224 196.441C222.184 196.339 222.055 196.179 221.966 196.157C221.619 196.068 221.495 196.201 221.655 196.477H221.65ZM219.694 197.882L219.805 197.784L219.542 197.642L219.689 197.882H219.694ZM195.093 206.709C195.284 206.683 195.471 206.696 195.667 206.629C195.969 206.527 196.107 206.256 195.929 206.091C195.818 205.994 195.555 206.082 195.36 206.149C195.062 206.256 194.973 206.469 195.093 206.709Z" fill="black"/>
<path d="M185.319 200.302C185.68 200.248 185.897 199.933 185.871 199.47C185.857 199.279 185.608 199.03 185.444 199.016C185.075 198.985 184.87 199.363 184.91 199.826C184.928 200.017 185.181 200.146 185.319 200.302Z" fill="black"/>
<path d="M205.967 206.198L205.842 205.887C205.834 206.002 205.802 206.162 205.816 206.22C205.847 206.354 205.9 206.434 205.94 206.54C205.949 206.425 205.958 206.314 205.967 206.198Z" fill="black"/>
<path d="M210.711 234.494C209.848 234.205 208.363 234.356 208.674 232.929C209.003 231.528 208.843 230.056 208.99 228.629C209.145 227.317 209.301 226.001 209.465 224.591C208.465 224.217 207.442 225.151 206.548 224.431C205.792 223.826 205.525 222.928 206.015 222.47C208.096 220.446 207.206 217.782 208.354 215.55C207.833 215.319 207.313 215.074 207.282 214.572C207.277 214.483 207.704 214.265 207.842 214.3C208.514 214.478 208.491 214.972 208.589 215.403C209.065 215.501 209.897 216.115 209.866 215.252C209.817 214.06 208.109 213.749 207.295 212.989C206.321 212.077 207.58 211.939 208.563 211.952L208.852 212.077L208.634 211.895C208.629 211.308 208.749 210.77 209.554 210.485L209.808 210.649L209.608 210.445C209.372 208.991 209.012 207.554 208.509 206.171C208.251 205.478 207.971 204.802 207.602 204.144C207.233 203.485 206.806 202.849 206.312 202.24C205.53 201.284 205.316 200.319 205.419 199.261C205.543 198.073 206.259 197.482 207.896 198.127C208.309 198.291 208.901 198.981 209.296 198.176C209.47 197.815 208.901 196.89 208.838 196.904C206.41 197.366 207.082 195.21 205.659 194.818C204.921 194.614 204.356 194.036 204.809 193.422C205.454 192.55 205.579 191.67 205.53 190.798C205.476 189.926 205.276 189.059 205.334 188.188C205.365 187.676 205.654 187.267 206.175 186.925C206.464 186.996 206.175 187.605 206.833 187.334L206.228 186.876C206.557 186.115 206.308 185.542 205.601 185.013C204.707 184.35 204.142 183.585 205.57 182.673L206.637 183.22L206.904 183.305L206.717 183.136L205.645 182.593C204.943 181.962 204.32 181.362 205.196 180.388C205.93 179.561 206.864 178.707 207.153 177.791C207.442 176.892 207.344 176.657 207.108 176.741C206.868 176.826 206.477 177.23 206.126 177.617C205.708 177.337 204.943 177.119 204.898 176.786C204.712 175.385 204.471 173.931 204.76 172.508C205.054 170.969 206.873 172.299 207.793 171.618C207.344 170.822 206.361 170.889 205.463 170.822C204.618 170.76 203.911 170.431 204.044 169.742C204.369 168.127 203.831 166.789 203.124 165.53C202.421 164.267 201.47 163.107 200.883 161.813C200.616 161.217 200.136 160.71 199.749 160.167C199.353 159.629 199.033 159.06 199.108 158.317C199.211 157.299 198.601 156.859 197.41 156.676C196.102 156.467 193.812 156.454 196.685 154.635C197.089 154.377 196.694 153.986 196.209 153.919C194.128 153.63 193.51 152.074 192.238 151.1C189.779 149.196 189.859 149.156 193.536 147.538C192.349 146.252 191.753 144.46 189.067 144.563C188.329 144.594 187.835 143.882 188.556 143.215C190.423 141.476 188.48 140.632 187.715 140.391C185.656 139.751 186.968 137.874 186.074 136.838C185.509 136.184 187.079 135.984 187.404 135.504C188.342 134.108 187.395 134.037 186.101 134.352C185.856 134.908 185.483 135.073 184.976 134.784C184.878 134.761 184.78 134.739 184.696 134.704C184.687 134.704 184.767 134.552 184.776 134.552C184.878 134.552 184.976 134.579 185.078 134.597C185.26 134.468 185.438 134.335 185.607 134.188C185.323 133.298 184.731 132.622 183.833 132.173C183.717 132.16 183.513 132.182 183.499 132.133C183.455 131.929 183.611 131.893 183.895 132.049C184.42 131.337 184.976 130.706 183.508 130.595C182.094 130.483 180.689 130.181 182.063 128.336H182.334L182.116 128.229C179.559 127.21 178.608 124.787 176.157 123.684C175.063 123.186 175.17 122.608 176.353 120.704C176.802 119.975 176.353 119.708 176.122 119.628C173.912 118.868 172.191 117.898 172.671 115.27C172.711 115.057 172.582 114.67 172.497 114.683C168.477 115.292 168.5 111.979 166.73 110.445C165.956 109.796 164.76 108.875 166.632 107.243C167.508 106.483 166.667 106.527 166.161 106.501C164.195 106.407 163.377 105.167 162.367 104.01C160.704 102.12 159.001 100.106 157.329 97.8736C155.661 95.6501 154.011 93.2176 152.495 90.5094C151.823 89.3265 150.93 88.2281 150.254 86.9962C149.911 86.3914 149.649 85.7111 149.489 85.0218C149.333 84.3192 149.311 83.5498 149.462 82.7449C149.449 82.4336 150.249 82.4648 149.818 81.9667L149.36 82.6915C147.714 81.482 146.794 79.7299 146.371 77.8532C145.94 75.9855 145.98 74.0688 145.989 72.3167C146.011 68.6257 145.504 65.2638 145.758 62.0174C145.9 60.2342 145.842 58.4954 145.896 56.7967C145.953 55.0935 146.109 53.368 146.732 51.6604C147.327 49.9794 148.088 47.9071 146.998 45.7903C146.229 44.2472 147.71 43.9093 148.759 43.4068C148.297 43.011 147.834 42.5885 147.914 41.9704C147.932 41.8547 148.417 41.6813 148.568 41.7525C149.244 42.0727 149.142 42.673 149.191 43.2111C150.058 42.2327 150.009 41.2144 149.747 40.1382C149.529 39.062 149.102 37.9236 149.378 36.8074C149.751 35.0553 149.555 32.4849 151.005 31.4443C151.93 30.7995 151.903 29.879 151.917 28.9896C151.961 28.1135 152.068 27.2775 153.189 26.9973L153.304 27.3131L153.269 26.9795C154.46 25.3786 154.994 23.5642 155.932 21.7143C157.685 17.9655 160.597 14.608 164.102 12.2555C164.586 11.9309 165.08 11.6107 165.574 11.2994C166.076 11.0059 166.592 10.7391 167.099 10.4589L168.615 9.61845C169.109 9.3205 169.629 9.08926 170.123 8.80465C172.102 7.66622 173.969 6.47887 175.633 4.6645C176.162 4.10862 176.887 3.44157 177.585 3.36153C178.425 3.2459 179.252 3.16141 180.062 3.028C180.871 2.89904 181.663 2.70782 182.45 2.53438C183.241 2.37429 184.024 2.18752 184.802 1.9874C185.194 1.88957 185.581 1.77395 185.972 1.68056L187.146 1.40929L189.498 0.844525C190.285 0.697774 191.081 0.551023 191.873 0.426507C192.269 0.364249 192.669 0.301991 193.069 0.248627C193.47 0.208604 193.87 0.181922 194.27 0.159687C195.07 0.115217 195.875 0.101876 196.68 0.124111C197.441 0.164134 198.201 0.186369 198.97 0.168581C199.735 0.168581 200.505 0.106323 201.278 0.146346C202.822 0.19971 204.374 0.270862 205.859 0.82229L206.099 1.0224L205.948 0.755585C206.37 0.230839 207.064 -0.20052 207.589 0.106323C208.06 0.368696 208.505 0.622175 208.958 0.840078C209.412 1.05353 209.875 1.23586 210.341 1.39151C210.804 1.5516 211.284 1.66722 211.751 1.80508C212.218 1.93849 212.689 2.05856 213.165 2.16973C214.113 2.39208 215.073 2.57441 215.989 2.85457C216.905 3.12584 217.826 3.41044 218.662 3.8418C221.054 5.07362 223.482 6.06975 225.844 7.12813L227.622 7.91081C228.201 8.18652 228.779 8.46223 229.357 8.73795C230.522 9.28048 231.629 9.88527 232.719 10.5212C233.688 11.0682 234.609 11.6952 235.56 12.3044C236.521 12.9048 237.437 13.554 238.398 14.1499C239.367 14.7369 240.31 15.3373 241.319 15.8531C241.822 16.1111 242.338 16.3557 242.845 16.5914C243.102 16.707 243.365 16.8181 243.627 16.9249L243.827 17.0049L243.93 17.0449C243.961 17.0538 243.992 17.0672 244.054 17.0983L244.686 17.414C245.869 17.9877 247.309 19.0728 247.905 20.0378C248.257 20.6114 248.635 21.1406 249.039 21.6387C249.448 22.1368 249.884 22.6081 250.307 23.0795C251.174 24.0134 252.143 24.8672 253.162 25.7166C255.176 27.4109 257.382 29.0963 259.076 30.9507C259.552 31.4755 260.05 31.9913 260.566 32.5027C261.073 33.0141 261.646 33.53 262.109 34.0369C261.131 35.669 260.21 37.301 259.25 38.942C258.769 39.7602 258.28 40.5829 257.773 41.4012C257.275 42.2105 256.715 43.0465 256.217 43.8114C255.163 45.399 254.789 47.3868 253.935 49.2368C253.513 50.1529 252.984 51.0156 252.25 51.6737C251.885 52.0028 251.467 52.2785 250.987 52.4831C250.854 52.5542 250.778 52.5275 250.671 52.5364C250.569 52.5364 250.462 52.5364 250.351 52.5364C250.129 52.5275 249.884 52.5053 249.617 52.4653C249.226 52.4075 249.568 52.9989 249.72 53.3502C250.831 55.9384 250.845 55.9117 248.346 57.1213C248.132 57.2236 247.852 57.1836 247.945 57.4904C248.621 59.6294 248.394 61.3993 247.807 63.058C247.283 64.7435 246.38 66.3044 245.664 67.9186C245.148 69.2216 244.721 70.5913 244.152 71.8898C244.01 72.2144 243.854 72.5346 243.69 72.8503C243.538 73.1705 243.374 73.4818 243.191 73.7887C242.827 74.4023 242.395 74.9805 241.862 75.5185C241.315 76.07 240.808 76.6436 240.332 77.2351C239.87 77.831 239.474 78.4491 239.087 79.0806C238.704 79.7121 238.353 80.3569 238.024 81.0106C237.699 81.6687 237.379 82.3269 237.135 83.0117C236.619 84.3725 236.179 85.7644 235.76 87.1652C235.365 88.5705 235.062 90.0024 234.698 91.421C234.551 92.0302 234.373 92.6172 234.137 93.1865C233.906 93.7557 233.581 94.3027 233.079 94.823C232.47 95.4544 231.949 96.1304 231.5 96.833C231.047 97.5356 230.669 98.2649 230.384 99.0209C229.793 100.528 229.397 102.112 229.046 103.713C228.761 105.287 228.298 106.857 227.92 108.44C227.716 109.231 227.596 110.027 227.516 110.823C227.436 111.619 227.409 112.415 227.467 113.202C227.507 113.732 227.551 114.261 227.605 114.794C227.663 115.328 227.756 115.862 227.84 116.4C228.018 117.472 228.223 118.539 228.459 119.588C228.712 120.851 228.547 122.154 227.88 123.346C227.227 124.533 226.124 125.61 224.683 126.357C222.855 127.313 221.401 126.441 220.783 125.405C219.849 123.835 218.76 122.225 218.07 120.527C217.408 118.828 217.07 117.04 217.51 115.172C217.848 113.874 218.101 112.58 218.27 111.29C218.444 110.001 218.528 108.706 218.671 107.412C218.902 105.007 219.04 102.587 219.373 100.195C219.525 98.9942 219.671 97.798 219.854 96.6062C220.071 95.4189 220.312 94.236 220.578 93.062C220.805 92.1147 220.908 91.1586 221.041 90.207C221.165 89.2553 221.237 88.2992 221.294 87.3387C221.352 86.3781 221.374 85.4087 221.441 84.4481C221.526 83.4876 221.619 82.5315 221.752 81.5753C222.406 76.6392 223.518 71.7564 224.323 66.8113C224.683 64.8413 225.212 62.9202 225.79 61.0169C226.404 59.1225 227.16 57.2814 227.894 55.4314C228.25 54.502 228.694 53.6082 229.09 52.6965L230.3 49.9705C230.682 49.05 231.127 48.1606 231.531 47.249C231.941 46.3418 232.336 45.4257 232.71 44.4963L233.017 43.7269L233.163 43.3623L233.235 43.1622L233.519 42.3706L234.04 40.8497L234.911 38.3594L234.938 38.2794C234.947 38.2527 234.969 38.2216 234.92 38.2038L234.733 38.0792L234.364 37.8302L233.653 37.3544L232.31 36.4694L231.064 35.6423C230.864 35.5044 230.678 35.371 230.464 35.2376L230.308 35.1309L229.984 34.8907L229.317 34.3971C227.16 32.8451 225.017 31.2487 222.717 29.9546C220.418 28.6783 217.968 27.7 215.38 27.3842C215.069 27.3575 214.788 27.2063 214.513 27.0685C214.046 26.8417 213.579 26.606 213.107 26.397L211.671 25.8322L210.951 25.5609L210.217 25.3342L208.749 24.8983C208.256 24.7783 207.762 24.676 207.269 24.5648C206.775 24.4536 206.281 24.3425 205.783 24.2802L204.298 24.0579C203.804 23.9823 203.333 23.9734 202.853 23.9244C200.945 23.7332 199.006 23.7955 197.089 23.8444C196.609 23.8844 196.129 23.92 195.653 23.9467L194.933 23.9823L194.217 24.0623C193.741 24.1112 193.265 24.1557 192.785 24.1868L191.362 24.3647C190.326 24.4403 189.343 24.7249 188.342 24.9562C187.853 25.1029 187.377 25.2852 186.901 25.4587L186.185 25.7255C185.954 25.8322 185.732 25.9478 185.505 26.059C185.056 26.2858 184.607 26.5082 184.166 26.7483L182.93 27.571C182.73 27.7133 182.517 27.8378 182.334 27.9979L181.783 28.4737C181.423 28.7984 181.045 29.0874 180.724 29.4387C180.609 29.5677 180.507 29.7233 180.351 29.7811C180.111 29.8745 179.879 29.9724 179.648 30.0791C179.417 30.1858 179.181 30.2881 178.986 30.4349C178.577 30.7106 178.181 31.0041 177.798 31.3109C177.42 31.6222 177.118 32.0046 176.789 32.356C176.633 32.5383 176.464 32.7117 176.317 32.9029L175.922 33.4988L175.53 34.0858L175.335 34.3749C175.277 34.4772 175.228 34.5839 175.17 34.6862C174.957 35.0998 174.739 35.5044 174.508 35.8958C174.29 36.3049 174.09 36.7318 173.858 37.1365C173.658 37.5767 173.409 37.9636 173.182 38.3994C171.955 40.5562 170.977 43.1221 170.403 45.9994C169.825 48.8721 169.656 52.025 169.963 55.3114C170.101 56.7878 169.567 58.2953 169.407 59.7673C169.122 62.4266 169.242 64.9169 169.62 67.1048C169.811 68.1988 170.065 69.2171 170.354 70.151C170.652 71.0982 170.963 71.912 171.328 72.7392C171.848 73.9665 172.471 75.2695 173.236 76.6703C174.001 78.0711 174.912 79.5697 175.948 81.1484C176.985 82.7316 178.15 84.3947 179.421 86.1469L183.477 91.6745C188.44 98.345 193.074 105.389 196.058 113.251C196.694 114.879 198.072 116.186 198.81 117.796C201.345 123.471 204.356 128.931 206.437 134.837C207.193 136.914 207.833 139.079 208.567 141.192C208.927 142.25 209.274 143.313 209.67 144.349C210.061 145.39 210.488 146.408 210.92 147.413C213.53 153.243 215.206 159.438 216.585 165.668C217.973 171.907 219.066 178.178 220.587 184.408C221.655 188.895 222.139 193.493 222.491 198.096C222.811 202.707 223.109 207.305 223.727 211.952C223.807 212.499 223.865 213.051 223.905 213.602C223.931 214.154 223.94 214.71 223.936 215.265C223.927 216.377 223.865 217.493 223.771 218.61C223.651 219.726 223.505 220.842 223.358 221.958L223.144 223.626C223.064 224.182 222.984 224.738 222.909 225.289C222.811 226.041 222.246 226.739 221.859 227.437C221.201 228.633 220.147 228.54 219.356 227.601C218.315 226.365 217.31 225.325 215.295 225.516L215.015 225.347L215.242 225.556C215.242 225.68 215.211 225.809 215.242 225.934C215.691 227.886 213.49 226.481 213.01 227.001C211.902 228.188 214.446 228.451 214.295 229.474C214.277 229.58 214.201 229.749 214.108 229.767C211.249 230.319 211.6 231.986 211.862 233.752C211.951 234.308 211.378 234.748 210.711 234.521V234.494ZM231.772 93.0708L231.603 93.2443L231.82 93.3021L231.772 93.0708ZM240.305 74.9093L240.341 75.1361L240.51 74.976L240.305 74.9093ZM241.177 72.0855C241.146 72.1744 241.199 72.2945 241.213 72.3967L241.497 72.2989C241.528 72.2011 241.626 72.0943 241.586 72.0143C241.466 71.7742 241.284 71.792 241.172 72.0855H241.177ZM242.524 69.1593L242.333 69.2972L242.52 69.3861V69.1638L242.524 69.1593ZM244.97 65.0592H244.646C244.494 65.246 243.765 65.0725 244.17 65.5973L244.69 65.1303L244.975 65.0592H244.97ZM245.526 62.0086L245.086 62.3021L245.046 62.9113C245.188 62.8135 245.397 62.7468 245.459 62.6133C245.539 62.4399 245.508 62.2131 245.522 62.0086H245.526ZM166.57 102.045L166.387 101.907V102.147L166.57 102.049V102.045ZM175.126 115.395C175.446 115.23 175.521 115.003 175.312 114.808C175.255 114.754 175.068 114.808 174.939 114.808C174.636 114.995 174.552 115.208 174.752 115.404C174.81 115.457 175.019 115.444 175.121 115.39L175.126 115.395ZM190.17 134.401L190.143 134.219L189.885 134.401H190.165H190.17ZM199.651 133.899C199.686 133.97 199.873 133.961 199.993 133.992L200.305 133.752C200.211 133.681 200.131 133.579 200.02 133.552C199.646 133.467 199.5 133.605 199.655 133.899H199.651ZM192.22 137.883C192.318 137.794 192.451 137.71 192.505 137.612C192.669 137.292 192.531 137.19 192.167 137.367C192.082 137.407 192.055 137.563 191.998 137.665L192.22 137.883ZM191.144 140.685L191.215 140.445L190.988 140.498L191.144 140.685ZM198.032 144.892L197.899 144.696L197.828 144.932L198.032 144.892ZM194.145 149.53C194.061 149.374 193.745 149.294 193.501 149.263C193.154 149.214 192.883 149.414 193.003 149.632C193.087 149.783 193.416 149.823 193.639 149.908C194.008 149.917 194.266 149.748 194.145 149.53ZM207.74 166.095C208.122 165.926 208.158 165.735 207.789 165.597C207.558 165.512 207.251 165.424 207.02 165.486C206.642 165.588 206.61 165.842 206.957 165.984C207.18 166.073 207.478 166.064 207.74 166.095ZM209.243 183.594C209.314 183.612 209.465 183.456 209.581 183.385C209.585 183.287 209.639 183.127 209.59 183.109C209.488 183.069 209.279 183.06 209.203 183.109C208.91 183.327 208.927 183.523 209.243 183.594ZM209.034 186.169V186.009L208.758 186.107L209.034 186.169ZM214.135 223.048C214.037 222.852 213.957 222.639 213.815 222.465C213.588 222.194 213.285 222.198 213.219 222.474C213.179 222.643 213.374 222.874 213.517 223.048C213.735 223.315 213.966 223.306 214.135 223.048Z" fill="black"/>
<path d="M209.625 235.975C209.58 235.575 209.269 235.339 208.802 235.37C208.611 235.384 208.362 235.646 208.344 235.82C208.309 236.211 208.682 236.447 209.14 236.415C209.331 236.402 209.465 236.131 209.625 235.975Z" fill="black"/>
<path d="M207.112 210.303L206.983 210.552C207.081 210.578 207.237 210.65 207.268 210.623C207.344 210.565 207.366 210.463 207.406 210.383C207.308 210.356 207.21 210.329 207.112 210.303Z" fill="black"/>
<path d="M202.924 193.533C202.115 193.929 201.039 194.93 200.581 194.045C200.145 193.164 199.322 192.541 198.722 191.772C198.446 191.416 198.193 191.047 197.939 190.665C197.69 190.282 197.406 189.909 197.121 189.522C196.196 190.011 195.885 191.127 194.871 191.381C194.017 191.599 193.385 191.367 193.532 190.829C193.857 189.638 193.497 188.891 193.052 188.206C192.603 187.525 192.1 186.885 191.971 185.955C191.487 186.209 190.993 186.458 190.726 186.245C190.677 186.209 190.882 185.809 190.997 185.729C191.562 185.342 191.789 185.591 192.069 185.729C192.46 185.444 193.354 185.155 192.914 184.768C192.3 184.234 190.913 185.293 189.992 185.493C188.881 185.733 189.712 184.781 190.415 184.092L190.677 183.95L190.437 184.017C190.166 183.728 189.983 183.398 190.415 182.687L190.673 182.585L190.433 182.629C189.548 182.122 188.649 181.642 187.644 181.335C186.626 181.037 185.528 180.89 184.291 181.006C183.322 181.095 182.695 180.819 182.295 180.201C181.841 179.516 182.05 178.694 183.46 177.826C183.816 177.608 184.536 177.524 184.434 176.83C184.385 176.519 183.571 176.47 183.535 176.519C182.117 178.52 181.543 176.977 180.418 177.809C179.831 178.244 179.186 178.369 179.213 177.72C179.297 175.861 177.892 175.643 177.185 174.647C176.976 174.358 176.985 173.931 177.176 173.37C177.403 173.193 177.483 173.722 177.799 173.095L177.185 173.304C177.056 172.672 176.638 172.543 175.931 172.788C175.042 173.095 174.326 173.104 174.864 171.574L175.815 171.08L176.029 170.929L175.829 170.978L174.877 171.476C174.126 171.667 173.458 171.783 173.605 170.618C173.73 169.631 173.97 168.488 173.756 167.776C173.338 166.389 173.12 167.505 172.996 168.439C172.591 168.599 172 169.03 171.826 168.879C171.093 168.239 170.297 167.625 169.883 166.615C169.429 165.526 171.19 164.961 171.515 163.907C170.884 163.778 170.261 164.534 169.638 165.144C169.051 165.722 168.442 166.051 168.238 165.566C167.277 163.294 164.676 163.938 162.857 163.222C162.012 162.898 160.749 163.383 160.264 162.377C159.935 161.688 159.348 161.844 158.468 162.564C157.494 163.356 155.919 164.912 157.182 161.799C157.36 161.359 156.942 161.386 156.582 161.679C155.048 162.929 154.007 162.373 152.767 162.586C150.334 163.005 150.361 162.916 152.349 159.425C151.059 159.358 150.005 158.575 148.124 160.39C147.612 160.883 147.003 160.71 147.283 159.794C148.013 157.424 146.341 158.091 145.696 158.406C143.988 159.242 144.313 157.112 143.321 156.948C142.69 156.841 143.784 155.743 143.868 155.209C144.122 153.661 143.415 154.182 142.556 155.178C142.547 155.72 142.325 156.058 141.858 156.156C141.778 156.196 141.698 156.241 141.622 156.267C141.613 156.267 141.622 156.116 141.636 156.107C141.716 156.049 141.791 156.005 141.871 155.96C141.969 155.76 142.058 155.556 142.134 155.356C141.649 154.893 141.004 154.764 140.19 154.973C140.102 155.031 139.95 155.164 139.928 155.138C139.835 155.013 139.941 154.898 140.199 154.849C140.382 154.026 140.617 153.252 139.483 154.017C138.394 154.746 137.215 155.311 137.74 153.186L137.949 153.03L137.753 153.079C135.517 153.755 134.111 152.443 131.906 152.852C130.91 153.03 130.834 152.505 131.328 150.451C131.519 149.659 131.101 149.677 130.901 149.726C128.971 150.233 127.303 150.237 127.187 147.916C127.179 147.729 126.996 147.48 126.934 147.529C125.32 148.685 124.364 148.534 123.585 148.054C122.812 147.565 122.225 146.76 121.353 146.448C120.597 146.19 119.419 145.839 120.833 143.811C121.491 142.864 120.775 143.211 120.335 143.371C118.627 143.98 117.782 143.158 116.777 142.499C113.491 140.263 110.538 137.523 107.91 134.401C107.327 133.721 106.553 133.201 105.935 132.56C105.326 131.916 104.926 131.111 105.108 129.901C105.077 129.696 105.784 129.403 105.37 129.247L105.019 129.905C103.494 129.75 102.609 129.007 101.986 128.078C101.399 127.131 101.07 125.997 100.706 124.965C100.319 123.875 99.7405 122.928 99.1758 121.99C98.8912 121.523 98.5888 121.06 98.3131 120.589C98.0418 120.113 97.7839 119.633 97.5571 119.135C97.0457 118.041 96.3875 117.04 95.7649 116.004C95.1824 114.955 94.6398 113.87 94.5331 112.589C94.4753 111.962 94.3908 111.268 94.1151 110.659C93.8394 110.045 93.3502 109.52 92.4386 109.223C91.1312 108.787 92.2874 107.884 92.9589 107.119C92.3941 107.141 91.816 107.155 91.6203 106.803C91.5848 106.737 91.9183 106.416 92.0784 106.376C92.8032 106.199 92.9722 106.554 93.2435 106.808C93.5726 105.869 93.0523 105.403 92.3674 104.993C92.025 104.802 91.6248 104.584 91.3001 104.415C91.0645 104.486 90.8421 104.446 90.7754 104.393C90.6642 104.291 90.3351 104.295 90.1395 104.273C89.9394 104.246 89.8727 104.184 90.2373 103.802C90.6954 103.304 90.2951 103.441 89.9749 103.606C89.6503 103.757 89.4057 103.935 90.055 103.161L90.2596 102.992L90.0995 103.103C90.1973 102.654 89.7615 102.805 89.4546 102.983C88.8321 103.308 88.5964 103.548 88.752 102.832C88.841 102.441 89.0144 101.756 88.9744 101.529C88.9388 101.316 88.672 101.565 88.0138 103.428C87.8048 104.015 87.5869 104.718 87.6758 104.371C87.876 103.539 87.916 103.063 87.8804 102.868C87.8448 102.668 87.7337 102.748 87.6269 102.939C87.5113 103.148 87.409 103.459 87.3334 103.673C87.2578 103.882 87.2134 103.984 87.1511 103.766C87.0888 103.57 87.0488 103.859 87.0221 104.028C86.991 104.202 86.9777 104.255 86.8398 103.713L86.7775 103.406L86.862 103.868C87.031 104.985 87.2089 105.972 87.1289 105.549C86.8309 104.064 86.7108 104.006 86.6931 104.131C86.6619 104.273 86.7286 104.593 86.5507 104.273C86.2839 103.833 86.1772 103.962 86.1461 104.153C86.1149 104.353 86.1594 104.62 86.0927 104.722C86.0349 104.811 85.8926 104.86 85.9059 105.042C85.9237 105.211 86.1016 105.514 86.7509 105.829C86.9777 105.95 87.0888 105.941 86.7286 105.901C86.5152 105.869 86.3462 105.856 86.2083 105.865C86.0393 106.034 85.9059 106.212 85.8081 106.399C85.608 106.772 85.5235 107.181 85.479 107.595C85.3723 108.422 85.5235 109.303 85.1544 110.067C84.8075 110.832 84.6563 111.651 84.5585 112.478C84.474 113.309 84.3895 114.136 84.0916 114.924C83.8692 115.506 84.4073 116.271 84.5229 116.934C84.6252 117.596 84.2561 118.152 82.1616 118.397C81.7791 118.441 82.3172 118.744 82.5885 118.93C84.5763 120.327 84.5985 120.296 82.7975 121.594C82.6463 121.705 82.3661 121.741 82.5662 121.91C83.967 123.102 84.394 124.244 84.514 125.401C84.5629 125.979 84.514 126.557 84.4429 127.139L84.3228 128.011C84.2917 128.3 84.2694 128.594 84.2561 128.883C84.2116 129.803 84.2783 130.742 84.1849 131.675C84.1005 132.609 83.9092 133.534 83.2511 134.455C82.9176 134.931 82.6241 135.406 82.375 135.891C82.126 136.371 81.9481 136.856 81.7836 137.341C81.4634 138.31 81.2722 139.289 81.1565 140.263C81.0809 141.236 81.0898 142.206 81.1254 143.18C81.1476 143.665 81.1565 144.154 81.201 144.638L81.3344 146.093C81.4056 146.924 81.4145 147.716 80.7207 148.654C79.9114 149.788 79.5112 150.922 79.311 152.043C79.2176 152.603 79.1554 153.168 79.1643 153.719C79.1732 154.271 79.2132 154.822 79.2621 155.373C79.311 155.912 79.3155 156.467 79.311 157.028L79.3021 157.868L79.3333 158.7C79.3866 159.807 79.5289 160.897 79.9914 161.862C80.6496 163.138 81.4545 164.405 82.335 165.593C83.4423 166.985 82.5796 169.257 80.1782 171.24C78.6573 172.494 77.1187 172.432 76.3271 171.965C75.1175 171.258 73.7923 170.56 72.7562 169.688C71.7511 168.803 71.053 167.736 71.0574 166.371C71.0619 165.895 71.0307 165.433 70.9951 164.97C70.9685 164.508 70.9195 164.054 70.8528 163.609C70.7239 162.715 70.5238 161.844 70.297 160.972C69.9056 159.354 69.5143 157.735 69.123 156.116C68.785 154.489 68.5137 152.843 68.3447 151.193C68.2647 149.85 67.8734 148.587 67.4064 147.329C67.1618 146.702 66.9439 146.07 66.726 145.439C66.5081 144.807 66.3036 144.167 66.1346 143.522C65.2852 140.183 64.716 136.772 63.8399 133.383C63.1818 130.666 63.0706 127.895 63.1951 125.147L63.2707 123.084L63.4086 121.02C63.4931 119.646 63.5064 118.268 63.5331 116.88C63.5464 115.235 63.4886 113.576 63.5731 111.926C63.6354 110.272 63.662 108.604 63.8355 106.946C63.9867 105.287 64.1334 103.619 64.4403 101.974L64.6582 100.738L64.8183 99.9238L65.005 99.0433C65.2763 97.8293 65.5743 96.6153 65.8944 95.4146C66.726 92.3106 67.7844 89.3266 68.8384 86.4094C69.8923 83.4744 70.9284 80.5616 71.9157 77.3197C72.0357 76.9328 72.2403 76.6571 72.4315 76.3859C73.7389 74.5804 75.0464 72.895 76.416 71.3563C77.7857 69.8088 79.2176 68.4168 80.7919 67.2339C82.3706 66.0733 84.1094 65.086 86.0883 64.499C86.3328 64.419 86.5952 64.3656 86.8443 64.2989C87.1022 64.2411 87.3468 64.1611 87.618 64.1344C88.1472 64.0543 88.672 63.9787 89.2189 63.961C90.304 63.8809 91.4113 64.0454 92.5008 64.1877C92.6031 64.2055 92.7054 64.2278 92.8077 64.2456C93.3724 64.3923 93.9283 64.548 94.4709 64.7036C95.0134 64.8548 95.5248 65.0727 96.014 65.2728C96.9923 65.6775 97.8239 66.1578 98.5754 66.5936C100.065 67.5008 101.253 68.3101 102.515 69.0839C102.631 69.155 102.773 69.1906 102.845 69.3596C103.311 70.3824 103.805 71.2896 104.365 72.1746C104.917 73.0684 105.531 73.94 106.166 74.9762C106.802 76.0079 107.452 77.2219 108.034 78.7783C108.323 79.5432 108.599 80.4371 108.821 81.3976C109.008 82.3938 109.182 83.4166 109.333 84.4616L109.613 86.4672L109.849 88.4106L110.093 90.3494L110.155 90.8342C110.178 90.9943 110.187 91.1632 110.244 91.2922L110.52 92.1282C110.889 93.24 111.254 94.3562 111.641 95.4635C111.747 95.7437 111.832 95.9971 111.956 96.2995L112.117 96.6953L112.197 96.8865L112.535 97.6559C113.468 99.6881 114.629 101.609 116.114 103.304C116.808 104.055 116.839 105.136 117.239 106.025C117.924 107.662 118.938 109.107 120.014 110.477C121.126 111.824 122.296 113.1 123.434 114.359C123.843 114.835 124.261 115.302 124.675 115.764L125.28 116.471L125.898 117.16L126.507 117.859C126.712 118.09 126.93 118.317 127.139 118.548L128.397 119.935C130.145 121.75 131.928 123.569 134.009 125.169C137.647 128.033 141.551 130.728 144.958 134.544C145.682 135.34 146.91 135.438 147.737 136.118C150.628 138.537 154.083 140.28 157.196 142.695C159.397 144.407 161.643 146.333 164.213 147.52C167.966 149.254 171.408 151.66 174.859 154.159C178.315 156.663 181.765 159.242 185.625 161.408C188.396 163 190.904 165.006 193.377 167.149C194.626 168.185 195.849 169.297 197.139 170.333C197.788 170.84 198.424 171.392 199.095 171.894C199.758 172.41 200.461 172.881 201.163 173.379C201.826 173.846 202.435 174.38 203.009 174.954C203.293 175.243 203.578 175.532 203.84 175.847C204.103 176.163 204.356 176.488 204.605 176.821C205.103 177.479 205.584 178.155 206.064 178.831C206.526 179.521 206.98 180.228 207.46 180.899C207.785 181.357 207.731 182.095 207.812 182.714C207.923 183.799 207.078 184.439 206.019 184.461C204.614 184.497 203.324 184.657 201.928 186.089L201.635 186.191L201.91 186.147C201.973 186.209 202.017 186.293 202.097 186.333C202.764 186.667 202.497 187.032 202.062 187.379C201.626 187.721 201.016 188.054 200.959 188.344C200.692 189.673 202.76 188.126 203.156 188.739C203.196 188.806 203.227 188.935 203.164 189.006C202.226 190.069 202.017 190.745 202.195 191.243C202.368 191.741 202.889 192.088 203.445 192.43C203.791 192.653 203.569 193.231 202.942 193.533H202.924ZM79.022 147.96L78.9064 148.116L79.1287 148.089L79.022 147.96ZM81.5879 134.486L81.6946 134.615L81.8014 134.477L81.5879 134.486ZM81.4812 132.534C81.4812 132.596 81.5701 132.658 81.6146 132.716L81.8547 132.587C81.8547 132.52 81.9125 132.431 81.8414 132.387C81.6413 132.267 81.4812 132.325 81.4812 132.529V132.534ZM81.7391 130.404L81.6057 130.533L81.8103 130.541L81.7391 130.404ZM82.5751 127.3L82.2727 127.375C82.1971 127.522 81.45 127.584 82.0148 127.82L82.335 127.411L82.5751 127.304V127.3ZM82.0282 125.281L81.7213 125.565L81.8992 125.952C81.997 125.859 82.1705 125.77 82.1793 125.672C82.1927 125.547 82.0815 125.414 82.0282 125.281ZM120.299 139.515L120.134 139.462L120.152 139.658L120.299 139.515ZM129.22 146.906C129.446 146.631 129.464 146.413 129.264 146.355C129.206 146.337 129.064 146.466 128.962 146.528C128.748 146.813 128.722 147.022 128.922 147.084C128.98 147.102 129.144 146.995 129.22 146.902V146.906ZM145.558 152.768L145.482 152.661L145.349 152.941L145.554 152.768H145.558ZM152.188 146.497C152.233 146.519 152.362 146.399 152.455 146.342L152.606 145.986C152.522 145.999 152.437 145.977 152.349 146.035C152.064 146.213 151.997 146.404 152.188 146.497ZM148.119 153.875C148.159 153.75 148.231 153.612 148.235 153.51C148.248 153.186 148.124 153.203 147.919 153.555C147.87 153.635 147.902 153.759 147.893 153.866L148.119 153.875ZM148.275 156.441L148.244 156.232L148.102 156.414L148.275 156.441ZM154.55 154.729L154.39 154.693L154.421 154.889L154.55 154.729ZM153.514 160.305C153.398 160.261 153.149 160.421 152.967 160.568C152.704 160.772 152.593 161.079 152.758 161.137C152.873 161.181 153.118 160.981 153.305 160.888C153.563 160.648 153.683 160.367 153.518 160.305H153.514ZM169.18 160.83C169.367 160.456 169.309 160.323 169.007 160.505C168.82 160.621 168.58 160.79 168.451 160.994C168.242 161.324 168.327 161.493 168.611 161.328C168.798 161.221 168.989 160.999 169.176 160.83H169.18ZM177.723 169.359C177.781 169.315 177.812 169.124 177.852 168.999C177.812 168.946 177.776 168.821 177.732 168.848C177.648 168.901 177.501 169.052 177.479 169.132C177.381 169.466 177.479 169.555 177.723 169.359ZM178.737 170.876L178.666 170.791L178.524 171.049L178.737 170.876ZM199.82 185.662C199.647 185.635 199.491 185.573 199.3 185.586C199.002 185.6 198.78 185.809 198.864 185.996C198.913 186.107 199.171 186.093 199.362 186.084C199.66 186.067 199.825 185.907 199.82 185.666V185.662Z" fill="black"/>
<path d="M202.818 194.934C202.587 194.765 202.227 194.845 201.88 195.148C201.737 195.272 201.671 195.552 201.746 195.646C201.906 195.859 202.316 195.744 202.662 195.446C202.805 195.321 202.774 195.108 202.823 194.934H202.818Z" fill="black"/>
<path d="M188.609 184.332L188.636 184.541C188.721 184.483 188.858 184.408 188.872 184.372C188.898 184.292 188.863 184.23 188.854 184.159L188.609 184.332Z" fill="black"/>
<path d="M224.403 190.172C223.679 189.638 222.291 189.149 222.874 188.313C223.456 187.495 223.647 186.454 224.088 185.556C224.497 184.729 224.95 183.924 225.426 183.052C224.586 182.43 223.43 182.656 222.767 181.843C222.207 181.162 222.162 180.468 222.705 180.348C223.905 180.082 224.461 179.419 224.919 178.707C225.36 177.983 225.706 177.213 226.538 176.697C226.111 176.355 225.693 176.004 225.782 175.661C225.8 175.599 226.249 175.617 226.365 175.688C226.947 176.053 226.809 176.368 226.787 176.684C227.205 176.924 227.823 177.631 228.01 177.058C228.268 176.266 226.729 175.417 226.182 174.63C225.52 173.682 226.725 174.056 227.636 174.425L227.872 174.612L227.716 174.416C227.868 174.034 228.121 173.731 228.948 173.842L229.144 174.043L229.011 173.834C229.144 172.797 229.237 171.748 229.157 170.672C229.064 169.591 228.806 168.479 228.255 167.332C227.814 166.425 227.881 165.713 228.321 165.086C228.819 164.379 229.66 164.281 230.967 165.313C231.296 165.571 231.625 166.234 232.239 165.878C232.515 165.722 232.275 164.917 232.217 164.904C229.838 164.268 231.118 163.152 229.962 162.365C229.357 161.951 229.033 161.364 229.655 161.155C231.425 160.555 231.23 159.132 231.95 158.087C232.159 157.784 232.568 157.646 233.16 157.646C233.4 157.807 232.919 158.069 233.613 158.167L233.226 157.638C233.796 157.304 233.796 156.855 233.355 156.241C232.799 155.467 232.586 154.756 234.209 154.8L234.961 155.579L235.17 155.739L235.063 155.556L234.307 154.778C233.902 154.098 233.609 153.475 234.774 153.262C235.761 153.079 236.931 152.977 237.553 152.564C238.772 151.754 237.638 151.861 236.708 152.012C236.441 151.665 235.863 151.203 235.966 150.985C236.397 150.078 236.797 149.117 237.664 148.428C238.603 147.685 239.599 149.273 240.702 149.308C240.662 148.664 239.781 148.246 239.034 147.796C238.327 147.369 237.865 146.854 238.287 146.525C240.253 144.99 239.083 142.589 239.394 140.579C239.532 139.658 238.816 138.493 239.723 137.786C240.341 137.306 240.079 136.75 239.208 136.007C238.247 135.194 236.433 133.908 239.732 134.544C240.195 134.633 240.097 134.215 239.746 133.908C238.229 132.597 238.634 131.431 238.225 130.204C237.429 127.794 237.522 127.798 241.298 129.177C241.146 127.847 241.773 126.642 239.71 125.05C239.145 124.614 239.234 123.965 240.181 124.094C242.645 124.427 241.738 122.844 241.333 122.239C240.248 120.634 242.427 120.616 242.463 119.589C242.489 118.931 243.726 119.865 244.273 119.865C245.856 119.874 245.238 119.242 244.13 118.531C243.588 118.606 243.223 118.437 243.059 117.979C243.01 117.908 242.952 117.833 242.916 117.761C242.912 117.752 243.068 117.739 243.076 117.748C243.148 117.819 243.196 117.89 243.254 117.966C243.468 118.033 243.681 118.09 243.89 118.139C244.282 117.575 244.322 116.899 244.001 116.107C243.93 116.027 243.779 115.894 243.801 115.867C243.908 115.751 244.041 115.84 244.126 116.098C244.966 116.152 245.771 116.272 244.869 115.244C243.997 114.257 243.285 113.154 245.469 113.359L245.651 113.546L245.576 113.354C244.628 111.202 245.691 109.574 245.029 107.431C244.722 106.462 245.22 106.306 247.332 106.488C248.146 106.559 248.07 106.141 247.99 105.95C247.212 104.087 246.968 102.441 249.267 101.97C249.453 101.934 249.676 101.717 249.618 101.659C246.883 98.8082 249.498 97.7676 249.809 95.9755C249.934 95.1928 250.076 93.9877 252.317 95.0327C253.362 95.5219 252.904 94.8771 252.669 94.468C252.215 93.6808 252.139 93.0405 252.246 92.4668C252.357 91.8976 252.637 91.3862 252.878 90.8437C254.412 87.246 256.449 83.9241 258.743 80.749C259.77 79.3704 259.85 77.3026 262.256 77.0446C262.448 76.969 262.919 77.5605 262.959 77.1336L262.23 76.9601C261.714 74.0207 263.937 72.86 265.614 71.5748C267.45 70.2452 268.5 68.3374 270.079 66.861C270.964 66.0605 271.662 65.1 272.427 64.1839C272.809 63.7259 273.205 63.2856 273.65 62.8809C274.09 62.4762 274.615 62.1472 275.188 61.8715C276.331 61.3334 277.696 60.6441 277.598 58.7319C277.527 57.3489 278.786 58.096 279.751 58.4517C279.528 57.9314 279.315 57.3933 279.577 57.082C279.626 57.0242 280.049 57.2199 280.142 57.3578C280.565 57.9714 280.289 58.2605 280.142 58.6029C281.147 58.5762 281.405 57.9136 281.539 57.1087C281.676 56.3172 281.694 55.3877 282.174 54.8496C282.926 53.9869 283.3 52.2437 284.598 52.3771C286.23 52.555 285.109 49.7756 286.91 50.5405L286.964 50.8162L286.977 50.5672C288.027 50.0202 288.6 49.0107 289.294 48.0102C290.677 46.0312 292.487 44.3636 294.653 43.2519C295.862 42.6471 297.161 42.1713 298.304 41.4686C299.46 40.7838 300.434 39.8277 301.079 38.2935C301.279 37.8043 301.568 37.2173 302.004 37.1639C304.116 36.9327 305.801 35.9721 307.473 34.9271L308.719 34.1222C309.141 33.8598 309.563 33.6019 309.99 33.3573C310.844 32.8637 311.729 32.4145 312.685 32.1344C314.469 31.5741 315.994 30.24 317.977 30.1332L318.191 30.2311L317.995 30.0398C317.991 29.4262 318.16 28.8036 318.564 28.897C319.28 29.0659 319.934 29.0659 320.556 28.9681C321.183 28.8792 321.779 28.7013 322.362 28.4834C323.527 28.0431 324.67 27.5139 325.906 27.4161C329.437 27.1582 332.639 25.7574 336.041 25.1704C339.038 24.6545 342.253 24.5745 345.197 22.8713C345.709 22.5689 346.416 22.3732 346.918 22.7156C348.092 23.5116 349.191 23.4627 350.311 23.3026C351.428 23.1559 352.548 22.809 353.673 23.0047C354.789 23.2092 355.906 23.147 357.035 23.147C358.165 23.1514 359.299 23.1159 360.402 23.3738C361.211 23.5561 362.185 22.9647 363.088 22.8535C363.986 22.7645 364.8 23.1603 365.178 25.2638C365.244 25.6507 365.627 25.117 365.876 24.8502C366.792 23.8674 367.272 23.4138 367.726 23.4183C367.953 23.4183 368.17 23.5472 368.437 23.7963C368.571 23.9208 368.713 24.072 368.878 24.2587C368.958 24.3521 369.042 24.45 369.135 24.5567C369.238 24.6679 369.376 24.7879 369.509 24.9124C369.678 25.0814 369.767 25.3749 370.123 25.2326C371.399 24.7346 372.751 24.4989 374.121 24.4366C374.801 24.4144 375.499 24.3966 376.166 24.49C376.833 24.5745 377.496 24.7079 378.136 24.8902C379.417 25.2504 380.635 25.7752 381.769 26.3977C382.903 27.0248 383.953 27.7496 384.967 28.4923C385.763 29.0971 386.559 29.7241 387.288 30.4267C387.666 30.7603 388.004 31.1471 388.355 31.5118C388.68 31.9031 389.014 32.2856 389.303 32.6991C390.481 34.3445 391.273 36.2523 391.299 38.249C391.339 40.3035 391.202 42.2691 390.984 44.2169C390.77 46.1602 390.423 48.0947 390.161 49.9713L389.983 51.3721L389.903 52.0703L389.885 52.2348L389.867 52.3371L389.836 52.5417C389.752 53.0842 389.681 53.6267 389.614 54.1693C389.498 55.2543 389.383 56.3438 389.263 57.4334C389.16 58.3628 389.005 59.2433 388.133 60.0927C386.016 62.1605 385.429 64.4819 384.989 66.8254C384.553 69.1245 383.415 71.4236 383.664 73.7094C383.828 75.2347 384.104 76.8134 384.495 78.3609C384.962 80.2153 383.246 82.1275 380.257 82.9458C378.363 83.4616 376.98 82.7323 376.442 81.9852C374.797 79.695 372.706 77.3648 373.711 74.8745C374.41 73.1357 374.654 71.3969 374.788 69.6315C375.032 66.354 375.032 63.0677 375.517 59.8036C375.908 57.171 375.019 54.5739 374.783 51.9635L374.77 51.8079L374.757 51.7012L374.725 51.4922L374.663 51.083L374.543 50.2826C374.459 49.7578 374.383 49.2464 374.281 48.7573C374.081 47.7878 373.72 46.8584 372.884 46.2758C372.222 45.8222 371.532 45.4754 370.856 45.2086C370.181 44.9373 369.518 44.7283 368.851 44.546C368.184 44.3592 367.503 44.2347 366.814 44.119C366.636 44.0879 366.498 44.0701 366.223 44.0434L365.329 43.9545C364.724 43.91 364.124 43.8522 363.51 43.8745C360.624 43.8745 357.751 44.1769 354.914 44.5237C352.072 44.8795 349.266 45.2886 346.438 45.6621C345.522 45.7689 344.606 45.8801 343.681 45.9912C342.756 46.1024 341.835 46.2669 340.919 46.4493C340.008 46.6583 339.105 46.9295 338.229 47.272C337.357 47.6544 336.512 48.1036 335.721 48.6994C335.53 48.8462 335.298 48.8773 335.071 48.9174C332.025 49.4199 329.126 50.545 326.32 51.8479C323.509 53.1464 320.783 54.5962 317.906 55.7702C314.811 57.0376 312.032 59.0876 309.71 61.618C309.604 61.7336 309.515 61.8804 309.368 61.9293C308.483 62.2317 307.678 62.663 306.944 63.2056C306.206 63.7392 305.521 64.3395 304.872 64.9933C304.218 65.6336 303.582 66.2962 302.942 66.9499C302.622 67.2746 302.293 67.5859 301.95 67.8838C301.617 68.1862 301.274 68.4841 300.91 68.7554C299.042 70.1429 297.254 71.6415 295.613 73.2914C293.981 74.9234 292.54 76.8623 291.313 78.9124C290.766 79.8551 289.761 80.3576 288.978 81.0736C288.28 81.7318 287.613 82.4122 287.017 83.1637C286.43 83.9241 285.874 84.7068 285.336 85.5028C284.233 87.0637 283.304 88.7758 282.25 90.3678C279.199 95.1217 275.704 99.5998 272.991 104.652C272.391 105.768 271.826 106.911 271.217 108.022C270.915 108.583 270.608 109.134 270.292 109.686C269.99 110.246 269.687 110.806 269.367 111.362C268.736 112.469 268.046 113.546 267.321 114.613C266.614 115.689 265.841 116.739 264.987 117.748C264.262 118.584 264.346 119.878 263.777 120.812C263.275 121.639 262.812 122.484 262.372 123.342C261.927 124.196 261.545 125.09 261.14 125.966C260.74 126.847 260.335 127.727 259.913 128.599C259.495 129.475 259.077 130.355 258.601 131.214C257.236 133.628 255.755 136.136 255.048 138.805C254.572 140.766 253.923 142.66 253.202 144.532C252.513 146.422 251.721 148.263 250.956 150.144C249.436 153.907 247.955 157.784 247.141 161.956C246.563 164.953 245.496 167.861 244.442 170.81C243.397 173.758 242.329 176.755 241.733 180.006C241.186 183.074 239.234 185.765 237.691 188.558C237.424 189.033 236.735 189.296 236.215 189.625C235.325 190.19 234.374 189.723 233.862 188.789C233.191 187.557 232.506 186.476 230.598 185.845L230.38 185.627L230.54 185.854C230.509 185.938 230.451 186.014 230.451 186.103C230.411 187.584 228.704 185.805 228.139 185.969C226.849 186.343 229.153 187.499 228.779 188.131C228.739 188.197 228.633 188.282 228.544 188.26C225.786 187.535 225.746 188.784 225.613 190.092C225.573 190.505 224.955 190.581 224.395 190.163L224.403 190.172ZM386.652 58.9453L386.505 59.0832L386.728 59.1054L386.652 58.9409V58.9453ZM389.778 38.8849L389.965 39.0806L389.974 38.7915L389.778 38.8849ZM388.044 35.5719C388.106 35.6742 388.249 35.7231 388.347 35.8076C388.373 35.6964 388.4 35.5852 388.422 35.4741C388.351 35.3629 388.302 35.185 388.2 35.1539C387.902 35.0649 387.826 35.2428 388.044 35.5764V35.5719ZM385.607 32.2722C385.634 32.3612 385.665 32.4412 385.692 32.5346L385.861 32.4145C385.781 32.3612 385.692 32.3211 385.607 32.2722ZM381.071 28.1499L381.04 28.4745C381.271 28.6791 380.956 29.3461 381.689 29.0926C381.516 28.8703 381.325 28.6657 381.138 28.4523L381.071 28.1499ZM376.958 27.1404C377.105 27.2916 377.247 27.4428 377.385 27.5984L378.198 27.6829C378.065 27.5317 377.963 27.3138 377.776 27.2382C377.536 27.1404 377.233 27.1582 376.953 27.1359L376.958 27.1404ZM256.462 93.7476L256.489 93.5741L256.297 93.6275L256.462 93.7476ZM250.578 103.833C250.885 104.016 251.103 104.002 251.13 103.793C251.139 103.736 250.992 103.611 250.912 103.518C250.596 103.349 250.387 103.358 250.352 103.562C250.343 103.62 250.472 103.771 250.574 103.829L250.578 103.833ZM246.945 121.181L247.043 121.088L246.745 120.999L246.945 121.181ZM254.096 126.855C254.083 126.904 254.221 127.016 254.292 127.1L254.665 127.193C254.639 127.109 254.647 127.024 254.576 126.944C254.354 126.686 254.158 126.651 254.096 126.86V126.855ZM246.194 123.947C246.323 123.969 246.469 124.018 246.572 124.005C246.892 123.969 246.856 123.84 246.478 123.689C246.389 123.654 246.274 123.703 246.167 123.716L246.194 123.947ZM243.668 124.53L243.872 124.463L243.672 124.347V124.525L243.668 124.53ZM246.309 130.564L246.318 130.395L246.127 130.462L246.305 130.564H246.309ZM240.622 130.533C240.648 130.409 240.448 130.186 240.275 130.026C240.03 129.799 239.71 129.742 239.674 129.919C239.652 130.044 239.888 130.257 240.008 130.426C240.288 130.644 240.586 130.711 240.622 130.533ZM243.134 146.276C243.539 146.369 243.659 146.28 243.41 146.035C243.254 145.88 243.032 145.689 242.805 145.608C242.436 145.479 242.289 145.604 242.516 145.844C242.663 146 242.925 146.133 243.134 146.276ZM237.18 156.899C237.242 156.939 237.429 156.908 237.562 156.913C237.602 156.859 237.709 156.784 237.673 156.748C237.598 156.681 237.411 156.588 237.326 156.593C236.98 156.601 236.926 156.726 237.184 156.899H237.18ZM236.028 158.358L236.09 158.265L235.801 158.211L236.032 158.362L236.028 158.358ZM230.091 183.781C230.042 183.613 230.024 183.444 229.931 183.275C229.789 183.012 229.504 182.901 229.375 183.057C229.3 183.154 229.424 183.381 229.517 183.55C229.664 183.813 229.878 183.893 230.091 183.781Z" fill="black"/>
<path d="M223.097 190.741C223.141 190.452 222.905 190.167 222.478 190.003C222.301 189.936 222.016 190.011 221.967 190.123C221.851 190.372 222.14 190.679 222.563 190.843C222.741 190.91 222.919 190.781 223.097 190.736V190.741Z" fill="black"/>
<path d="M226.739 172.838L226.557 172.954C226.641 173.007 226.766 173.109 226.806 173.105C226.89 173.096 226.935 173.038 226.997 172.998L226.743 172.838H226.739Z" fill="black"/>
</g>
<defs>
<clipPath id="clip0_6438_10713">
<rect width="513.704" height="251.46" fill="white" transform="translate(0.732422)"/>
</clipPath>
</defs>
</svg>
