<svg width="10" height="12" viewBox="0 0 10 12" fill="none" xmlns="http://www.w3.org/2000/svg">
<g id=".indicator">
<path id="Vector" d="M5.10547 11.3965C5.10923 11.3888 5.11834 11.3723 5.12988 11.3516C5.13023 11.3509 5.13023 11.3498 5.13086 11.3486C5.11911 11.3714 5.10925 11.3883 5.10547 11.3965ZM5.10547 11.3965V11.3984L5.10449 11.4004C5.10488 11.3995 5.10477 11.398 5.10547 11.3965ZM6.97852 1.31152C7.15026 1.79931 7.39143 2.21373 7.55664 2.51074V2.51172C8.91688 4.965 9.56104 7.24622 8.38184 9.29297L8.2627 9.49121L8.25684 9.49902C8.05958 9.81463 7.87119 10.1826 7.72754 10.4424C7.64397 10.5935 7.56357 10.7299 7.48242 10.8545C7.17468 10.7352 6.88219 10.6895 6.59277 10.7002C6.4891 10.704 6.39315 10.7152 6.31055 10.7275C6.25403 10.6909 6.19424 10.6557 6.12891 10.627C5.67517 10.4276 5.27558 10.5552 5.05176 10.6719C4.90864 10.6306 4.77096 10.5949 4.6416 10.5645L4.56641 10.5469L4.49023 10.541L4.25977 10.5156C4.11003 10.4936 3.96794 10.462 3.83496 10.4209L3.64258 10.3516L3.56543 10.3203L3.48438 10.3027L3.18359 10.2275C3.08861 10.2007 2.99832 10.1714 2.91113 10.1377L2.89648 10.1318L2.88086 10.126L2.81055 10.0918C2.75604 10.0583 2.68423 10.0018 2.58105 9.90723L2.40137 9.73438L2.3916 9.72559L2.08301 9.42188C2.03673 9.37464 1.99616 9.32601 1.95508 9.28125C2.00269 9.08801 1.99468 8.88733 1.93262 8.70312C1.89075 8.57891 1.81477 8.43246 1.68262 8.30176C1.6028 8.22284 1.47866 8.12815 1.31348 8.06836C1.28829 8.00082 1.26397 7.93765 1.24316 7.875C1.21953 7.80382 1.20167 7.73848 1.18652 7.67871H1.23535V7.14453L1.37891 7.23926L1.79297 6.00879C1.81781 5.93503 1.83534 5.86636 1.8418 5.84082C1.85099 5.80445 1.84954 5.81089 1.8457 5.82227L1.85938 5.7793L2.07422 5.74414L2.16504 5.0625C2.17049 5.05286 2.17923 5.03781 2.19336 5.01758C2.24565 4.94276 2.3372 4.83755 2.47949 4.7041C2.76529 4.43613 3.16678 4.13633 3.63086 3.81738C4.09834 3.49611 4.56523 3.19773 5.01855 2.89648C5.33104 2.68883 5.65781 2.46664 5.92285 2.25293L6.16504 2.04297L6.16699 2.04102C6.47463 1.74625 6.72845 1.50188 6.97852 1.31152ZM0.71875 9.27246C0.688181 9.21431 0.660805 9.1543 0.634766 9.09277H0.897461L0.71875 9.27246ZM1.64355 4.15625L1.52344 4.25488C1.55587 4.21755 1.59178 4.18141 1.62793 4.14355C1.63274 4.14811 1.63875 4.1515 1.64355 4.15625Z" fill="#F0E3DE" stroke="#F0E3DE" stroke-width="2"/>
</g>
</svg>
