<svg width="99" height="17" viewBox="0 0 99 17" fill="none" xmlns="http://www.w3.org/2000/svg">
<path fill-rule="evenodd" clip-rule="evenodd" d="M97.4972 10.6471C97.6546 10.8618 97.6403 11.2195 97.5831 11.4913C97.5401 11.6774 97.4972 11.8347 97.44 11.9921L97.3827 12.5645L97.1824 12.0208C96.8247 11.892 96.7961 11.9349 96.8819 12.3069C96.8988 12.3847 96.9206 12.4681 96.9422 12.5511C97.0119 12.819 97.0804 13.0822 96.9821 13.1368C96.7205 13.2745 96.545 13.7036 96.3696 14.1326L96.3696 14.1327C96.1804 14.5953 95.9913 15.0578 95.6944 15.1543L95.7659 14.1384L95.7945 14.0096L95.7373 14.1098C95.7163 14.1434 95.6931 14.1748 95.6699 14.2064C95.5348 14.3898 95.3971 14.5767 95.6657 15.2115C95.7802 15.9413 95.6943 16.3133 95.4368 16.3848C95.3796 16.6567 95.2937 16.6138 95.1793 16.3848C95.0049 16.411 94.8386 16.5353 94.6717 16.6601C94.2907 16.9449 93.9069 17.2319 93.4193 16.3562C93.3621 16.2417 93.2333 16.3562 93.1618 16.4421C92.661 17.0859 92.06 16.8856 91.4877 16.5279C90.727 16.0494 89.998 16.0759 89.2734 16.1022L89.2732 16.1022C89.1528 16.1066 89.0325 16.1109 88.9122 16.113C88.5401 16.113 88.2826 15.9269 88.3255 14.6535C88.3398 14.2242 88.2826 13.7091 88.068 13.8952C88.0449 13.915 88.0141 13.918 87.9823 13.9212C87.8761 13.9317 87.7576 13.9435 87.8676 14.582C87.9964 15.326 87.7818 15.8697 87.5672 15.7696C87.2423 15.6167 86.9365 15.668 86.6329 15.7189C86.4819 15.7443 86.3313 15.7696 86.1792 15.7696C85.7071 15.7696 85.6069 15.2831 85.5926 13.7235C85.5926 13.5388 85.5843 13.3541 85.5745 13.1338L85.5744 13.1335C85.566 12.9442 85.5563 12.7287 85.5497 12.4643C85.3509 12.7957 85.1634 13.1119 84.9815 13.4188C84.8099 13.7083 84.6432 13.9894 84.4766 14.2672C84.6053 14.2672 84.7198 14.2672 84.8486 14.2099C84.8898 14.1893 84.931 14.139 84.9719 14.0892C85.0729 13.9659 85.1718 13.8452 85.2635 14.1813C85.3351 14.4961 85.3494 15.0684 85.2921 15.4118C85.2206 15.927 85.0203 16.0843 84.82 15.9126C84.5767 15.7123 84.4765 15.14 84.3907 14.5247C84.0187 15.3975 83.6037 15.6694 83.0743 15.5979C82.9012 15.5755 82.728 15.5508 82.5549 15.526C81.3976 15.3605 80.2417 15.1951 79.0966 15.7552C78.5815 15.9985 78.5243 15.7552 78.4956 13.7235L78.5242 13.5518L78.4813 13.6805C78.4452 13.6492 78.4062 13.6057 78.3669 13.5618C78.1728 13.3453 77.9712 13.1203 78.0664 14.3101C78.1522 15.3832 78.0091 15.9985 77.6657 15.7123C77.2707 15.3737 76.8942 15.5421 76.5201 15.7094C76.325 15.7967 76.1305 15.8836 75.9344 15.8983C75.8484 15.9052 75.7615 15.9452 75.6758 15.9847C75.4052 16.1093 75.1462 16.2285 74.9615 15.2831C74.8806 14.9058 74.7617 15.1122 74.6645 15.2809L74.6467 15.3117C74.0028 16.4421 73.3589 16.0271 72.715 15.4834L72.7043 15.4741C72.4947 15.2923 72.3249 15.145 72.0998 15.4405C71.5131 16.1988 70.8549 15.927 70.3112 15.698C69.623 15.404 68.9255 15.3971 68.2302 15.3902C67.4366 15.3823 66.6459 15.3744 65.8756 14.9397C65.575 14.7671 65.2613 14.8523 64.9482 14.9373C64.4565 15.0709 63.9661 15.2041 63.529 14.3387C63.06 14.8805 62.6002 14.7505 62.1392 14.6202C61.7844 14.52 61.4289 14.4195 61.068 14.6249C61.0326 14.644 60.9954 14.6669 60.957 14.6904L60.9568 14.6905L60.9568 14.6905C60.6221 14.8958 60.1932 15.1587 60.0521 13.5804C59.9805 12.7648 59.7087 13.4373 59.6371 13.6519C59.183 15.0531 58.6466 14.972 58.1131 14.8914C58.0583 14.8831 58.0034 14.8748 57.9487 14.8681C57.7198 14.8395 57.6626 14.4103 57.6769 13.8236C57.8629 13.6662 58.0489 13.4945 57.9774 12.7934C57.9774 12.6503 57.82 12.5359 57.7484 12.5788C57.5296 12.75 57.5765 13.0478 57.624 13.3501C57.648 13.5024 57.6722 13.6559 57.6626 13.795C57.5354 13.9707 57.4004 14.0617 57.2654 14.1528C57.0816 14.2769 56.8975 14.4011 56.7325 14.7394C56.5912 15.0219 56.5118 14.7171 56.4399 14.4414C56.3735 14.1866 56.3136 13.9568 56.2174 14.2386C55.997 14.8999 55.7633 14.9509 55.5163 15.0049L55.4877 15.0112C55.4395 15.0112 55.3913 15.0202 55.3355 15.0307L55.3354 15.0307C55.2919 15.0388 55.2437 15.0479 55.1872 15.0541C55.1544 14.4384 55.2205 13.8698 55.2855 13.3105L55.2855 13.3104C55.3337 12.8949 55.3814 12.4845 55.3875 12.0637L55.4305 11.9063L55.3732 12.0351C55.3121 11.974 55.2683 11.8095 55.225 11.6469C55.1567 11.3905 55.0896 11.139 54.9583 11.3053C54.7603 11.5788 54.8294 11.8398 54.8996 12.1047C54.936 12.2418 54.9726 12.38 54.9726 12.5215C54.9726 13.0947 54.8518 13.4565 54.7344 13.8085C54.6231 14.142 54.5147 14.4667 54.5147 14.954C54.2251 14.875 54.21 14.3814 54.1954 13.9026C54.1862 13.6009 54.1772 13.305 54.0998 13.1225L53.9853 13.2513L54.0425 12.9222L53.8851 12.7648C53.5293 15.1913 52.9539 15.098 52.3674 15.0029C52.1757 14.9718 51.9829 14.9405 51.7961 14.9969C51.747 14.3014 51.8804 13.9849 52.0063 13.6862C52.1006 13.4626 52.1906 13.2489 52.1968 12.8936C52.1968 12.6646 52.1968 12.264 52.1538 12.2211C52.0478 12.1268 52.0388 12.3625 52.0309 12.5685L52.0309 12.5687L52.0309 12.5688L52.0309 12.569C52.0292 12.6129 52.0276 12.6555 52.0251 12.6932C51.968 13.264 51.8469 13.1446 51.7202 13.0198C51.5929 12.8943 51.4601 12.7633 51.3812 13.3228C51.3702 13.3981 51.3594 13.4755 51.3484 13.554C51.2594 14.1909 51.1606 14.8979 50.8804 15.14C50.7824 14.9562 50.8076 14.6151 50.8326 14.2772C50.866 13.8258 50.899 13.3801 50.6371 13.3228C50.6371 12.9222 50.5799 12.5645 50.4654 12.2926C50.3653 11.8204 50.2508 11.8777 50.1077 12.2497C49.8883 12.3451 49.75 12.7553 49.6928 13.4802L49.7791 13.2362L49.7792 13.2359C49.8994 12.8961 50.006 12.5943 50.122 12.2926L50.4368 12.3642L50.6085 13.3514C50.6085 13.9381 50.5227 14.6106 50.351 14.6249C50.1534 14.6446 49.968 14.8432 49.7849 15.0393C49.5702 15.2692 49.3587 15.4957 49.1348 15.4262C48.4766 15.2258 47.8327 15.3403 47.1745 15.512C47.0028 15.5549 46.9313 15.4834 46.8883 14.8824C46.8311 14.0239 46.7596 13.9667 46.6165 14.4675C46.3732 15.326 46.1443 15.8554 45.8438 14.9254C45.7744 14.7054 45.733 14.7946 45.6818 14.9048L45.6818 14.9049L45.6816 14.9053C45.6696 14.9312 45.6571 14.9582 45.6435 14.9826C45.2432 15.8203 44.8309 15.6771 44.4182 15.5338C44.1966 15.4568 43.9748 15.3798 43.7548 15.4548C43.7178 15.4733 43.6748 15.3422 43.6297 15.2048L43.6297 15.2047C43.605 15.1296 43.5797 15.0525 43.5545 14.9969C43.5196 14.9155 43.5249 14.7631 43.53 14.6157C43.5375 14.4006 43.5446 14.1961 43.4257 14.2386C43.3828 14.2386 43.4543 14.8109 43.5402 15.0398C43.5187 15.0913 43.4973 15.1543 43.4758 15.2174L43.4758 15.2175C43.4257 15.3648 43.3756 15.512 43.3255 15.512C43.0483 15.527 42.7691 15.5567 42.4892 15.5865L42.4891 15.5865C41.7001 15.6704 40.9057 15.7549 40.1348 15.512C39.2476 15.2401 38.4034 15.1829 37.5163 15.6837C37.4908 15.6981 37.4647 15.7138 37.4384 15.7296C37.1249 15.9178 36.7667 16.1328 36.7007 14.6678L36.7437 14.5104L36.6864 14.6249C36.6022 14.6397 36.5249 14.7352 36.4467 14.8317C36.299 15.0139 36.1482 15.2 35.9424 14.8538C35.6967 14.4443 35.3728 14.8162 35.0826 15.1495L35.041 15.1972C34.8263 15.4405 34.5831 15.6122 34.3542 15.7123C33.7961 15.9556 33.7961 15.927 33.8104 13.9524C33.8592 13.8061 33.9258 13.7051 33.9946 13.6009C34.1477 13.3689 34.3112 13.1211 34.3112 12.3212L34.2846 12.3791C34.0545 12.8794 33.8788 13.2612 33.7961 13.8952C33.3812 15.1543 32.7945 15.2688 32.3224 15.3546C32.1165 15.3958 31.907 15.5105 31.696 15.6259C31.174 15.9117 30.6427 16.2026 30.1332 15.3975L28.6451 15.6551C28.31 16.0613 27.9749 15.8549 27.65 15.6548C27.5171 15.5729 27.3859 15.4922 27.2572 15.4548C26.8709 15.3403 27.0282 13.9524 27.157 13.051L27.1856 12.9079L27.1284 12.9937C27.1111 13.0206 27.0936 13.0464 27.0761 13.0722L27.0761 13.0723L27.0761 13.0723C26.963 13.2389 26.8508 13.4043 26.8136 13.8379L26.8114 13.8638C26.712 15.0434 26.6094 16.2607 26.0696 14.9397C26.0267 14.8538 25.9408 14.8109 25.8979 14.8824C25.4749 15.7763 25.0252 15.6151 24.5761 15.4542C24.2201 15.3267 23.8644 15.1992 23.5227 15.5979C23.4655 15.6551 23.4082 15.6551 23.351 15.5979C23.2574 15.5183 23.1515 15.3882 23.0469 15.2596C22.8318 14.9952 22.6221 14.7375 22.5354 14.9397C22.3493 15.388 22.1582 15.3812 21.9739 15.3747C21.8465 15.3702 21.7223 15.3658 21.6054 15.512C21.3871 15.7765 21.1811 15.5857 20.9761 15.3956C20.7374 15.1745 20.5 14.9546 20.2461 15.4548C20.1459 15.6551 20.0744 15.0971 20.06 14.7537C20.0457 14.2958 20.103 13.8952 20.1888 13.5374L20.1899 13.5329C20.2756 13.1758 20.3882 12.7069 20.1602 12.5502C20.0457 12.4643 19.9313 12.7505 19.8597 13.2942C19.6594 15.1686 19.3732 15.7552 18.6864 15.512C18.0139 15.2688 17.3414 15.0684 16.6833 15.2115C16.4143 15.2672 16.2295 14.872 16.0471 14.4819C15.948 14.27 15.8497 14.0597 15.7389 13.9238L15.696 13.8236L15.7246 13.9667C15.7675 14.6678 15.6817 15.2115 15.4384 15.326C15.2524 15.4118 15.1952 14.9683 15.2095 14.4818L15.2381 14.3244L15.1952 14.4532C15.0603 14.3453 15.0558 14.0024 15.0512 13.6608C15.0461 13.2775 15.0409 12.896 14.8518 12.8506V12.3785L14.8947 12.2354L14.8375 12.3355C14.8375 12.3355 14.7945 12.45 14.7945 12.5072C14.7945 12.5911 14.8067 12.6688 14.8191 12.7484C14.8257 12.7911 14.8325 12.8343 14.8375 12.8793C14.8375 12.9365 14.8407 12.9969 14.8438 13.0573V13.0573C14.8502 13.1782 14.8566 13.299 14.8375 13.3944C14.5656 15.2258 14.5084 15.2401 14.0076 13.2227C14.0505 15.0541 13.6928 15.7409 13.2922 15.2258C12.9627 14.7945 12.6056 14.7896 12.2514 14.7847C11.7596 14.7779 11.2733 14.7711 10.874 13.6233C10.3334 13.6853 9.80913 13.4069 9.28438 13.1283C8.96205 12.9571 8.63951 12.7858 8.31284 12.6932C7.99218 12.5997 7.67152 12.4909 7.35043 12.382L7.3504 12.382C6.63991 12.141 5.9273 11.8993 5.20791 11.8204C3.71984 11.663 2.23176 11.1909 0.858154 8.72982C1.04416 7.27036 1.4591 6.89834 1.91697 6.79818C2.18866 6.74473 2.45758 6.65524 2.72588 6.56595C3.31951 6.36839 3.91013 6.17184 4.52111 6.36893C4.63557 6.41185 4.77866 6.44047 4.87882 6.31169C6.0392 5.02518 7.24406 5.2841 8.43458 5.53995L8.43464 5.53996C8.59466 5.57435 8.75443 5.60868 8.91379 5.6392C10.502 5.95398 12.0903 5.88244 13.6785 5.72505C14.556 5.63611 15.436 5.68968 16.3154 5.74321C17.5582 5.81886 18.7997 5.89444 20.0314 5.56766C20.6442 5.40426 21.2593 5.4146 21.8739 5.42494C22.7662 5.43994 23.6574 5.45493 24.5386 4.93809C24.7271 4.82289 24.9309 4.85332 25.1332 4.88353C25.2074 4.8946 25.2813 4.90563 25.3542 4.90947C27.2889 5.09042 29.2101 4.68914 31.1441 4.28518L31.3065 4.25128C31.5497 4.20836 31.793 4.20836 32.0362 4.22266C33.5368 4.36934 35.0284 4.08008 36.5252 3.78984C36.9267 3.71199 37.3285 3.63407 37.7309 3.56448C38.3267 3.45982 38.9179 3.43669 39.5097 3.41355C39.9697 3.39556 40.43 3.37755 40.8931 3.32123L45.4146 2.80613C45.9429 2.7489 46.4712 2.71334 46.9995 2.67778C48.1882 2.59777 49.3769 2.51776 50.5656 2.19087C51.0513 2.06038 51.5407 2.06946 52.0301 2.07855C52.5065 2.0874 52.983 2.09624 53.4559 1.97624C53.8145 1.89086 54.1731 1.88473 54.5326 1.87859C55.0768 1.86929 55.623 1.85995 56.1745 1.57561C56.475 1.41821 56.7898 1.41821 57.0902 1.44683C58.135 1.54181 59.1797 1.34048 60.2202 1.13997C60.7473 1.0384 61.2733 0.937036 61.7977 0.874494C62.3117 0.817382 62.8235 0.792185 63.3338 0.767055C64.1021 0.729227 64.8672 0.691552 65.6324 0.545401C66.5633 0.371839 67.4899 0.38532 68.4145 0.398772C69.1668 0.409717 69.9179 0.420644 70.6689 0.330775C72.2884 0.131894 73.889 0.190017 75.4833 0.247909C76.2978 0.277482 77.1105 0.306996 77.9233 0.302158C78.4154 0.302158 78.9035 0.225853 79.3892 0.149934C80.2169 0.0205461 81.0375 -0.107722 81.8581 0.144765C82.744 0.411186 83.6205 0.42647 84.4964 0.441744C85.5022 0.459281 86.5071 0.476804 87.5242 0.874494C88.3221 1.17712 89.1331 1.16236 89.9193 1.14806L90.0139 1.14635C90.4309 1.13904 90.8591 1.27759 91.289 1.41668C91.6999 1.54963 92.1123 1.68308 92.5179 1.69007C93.1052 1.70003 93.7202 1.90388 94.3388 2.10892L94.3388 2.10895C94.6094 2.19864 94.8807 2.28855 95.1506 2.36257C95.205 2.37986 95.2619 2.38479 95.3196 2.38978C95.5965 2.41374 95.8932 2.43942 96.0234 3.83634C96.0335 3.84735 96.0436 3.8583 96.0538 3.86933C96.1897 4.01579 96.3382 4.17588 96.3382 4.69484C96.3382 4.93809 96.2524 5.05255 96.1522 4.9667C96.0214 4.84677 95.9986 4.58561 95.9761 4.32882V4.32876V4.3287C95.9691 4.24853 95.9621 4.16878 95.9519 4.09389C95.2937 3.59309 95.1936 3.72187 95.2079 5.2958C95.2079 5.75396 95.2354 6.22817 95.2629 6.70191V6.70208V6.70225V6.70241C95.286 7.10081 95.3091 7.49888 95.3158 7.88679L97.7547 7.87129C96.943 7.98452 96.1305 8.08864 95.3174 8.18426C95.316 8.38437 95.3088 8.581 95.2937 8.77274V8.91582L95.3223 8.82997C95.5074 9.0655 95.7048 9.20708 95.903 9.34917C96.3789 9.69049 96.8591 10.0348 97.1824 11.6917C97.2253 11.7203 97.2683 11.7203 97.3112 11.6917C97.2826 11.4484 97.254 11.1909 97.254 10.9476C97.254 10.5899 97.2969 10.3037 97.4543 10.5184L97.4972 10.6471ZM89.971 8.69616C90.0091 8.69329 90.0473 8.69041 90.0854 8.68751C90.0937 8.73048 90.0998 8.78328 90.0998 8.82997C90.0905 8.83461 90.0812 8.84224 90.0724 8.84947C90.0541 8.86458 90.0379 8.87794 90.0282 8.85859C89.9996 8.84428 89.971 8.7012 89.971 8.7012C89.971 8.69951 89.971 8.69783 89.971 8.69616ZM56.5112 8.1334L56.3996 8.13411C56.393 8.08413 56.4038 8.01331 56.432 7.92854C56.4607 7.88562 56.5322 7.84269 56.5322 7.84269V8.05732C56.5268 8.07909 56.5192 8.10708 56.5112 8.1334ZM68.7832 8.05541L68.7056 8.05591C68.6692 8.00797 68.6587 7.9063 68.6801 7.75684C68.6944 7.69961 68.723 7.64238 68.7516 7.64238C68.8231 7.64238 68.8518 7.77115 68.8231 7.97147C68.8162 7.99936 68.799 8.03066 68.7832 8.05541ZM84.6627 7.95449L84.5585 7.95516C84.5905 7.87233 84.6287 7.87557 84.6627 7.95449ZM15.423 8.39314C15.4019 8.26985 15.3577 8.18169 15.3166 8.09978L15.3097 8.08594V8.10025C15.2897 8.05026 15.2487 8.04917 15.2112 8.04817C15.195 8.04774 15.1795 8.04732 15.1666 8.04301C15.1809 8.10979 15.1936 8.17975 15.2063 8.24971C15.2151 8.29819 15.2239 8.34667 15.2333 8.39409C15.2965 8.39377 15.3598 8.39345 15.423 8.39314ZM15.2336 8.39574L15.4233 8.39453C15.4379 8.48098 15.4412 8.58467 15.4241 8.71551C15.4124 8.71159 15.3996 8.71089 15.3866 8.71018H15.3866C15.352 8.70829 15.3161 8.70632 15.2953 8.64396C15.2706 8.56963 15.2512 8.48456 15.2336 8.39574ZM9.50044 11.3053L9.54336 11.2839V11.3912L9.50044 11.3053ZM11.9329 11.9921L11.8756 11.9349V12.0494L11.9329 11.9921ZM12.5624 13.5804L12.6054 13.5482V13.6662L12.5624 13.5804ZM13.5068 13.3801V12.8793L13.5497 12.7505L13.4925 12.8506C13.4925 12.8506 13.4496 12.9794 13.4496 13.0367C13.4496 13.101 13.4567 13.1654 13.4639 13.2298C13.471 13.2942 13.4782 13.3586 13.4782 13.423L13.5354 13.5518L13.4925 13.3944L13.5068 13.3801ZM16.3256 12.9794L16.2826 12.9508V13.1225L16.3256 12.9794ZM17.599 12.9365C17.599 12.8506 17.5704 12.7362 17.5418 12.636L17.4559 13.0223C17.4273 13.2084 17.4559 13.3085 17.5132 13.2942C17.5211 13.2583 17.5302 13.2235 17.5392 13.1892C17.5624 13.1005 17.5847 13.015 17.5847 12.9222L17.599 12.9365ZM18.9154 12.4214C18.9154 12.4214 18.8725 12.3069 18.8581 12.2926C18.7866 12.2354 18.7437 12.3069 18.7723 12.45C18.7723 12.4822 18.7964 12.4902 18.8206 12.4983C18.8286 12.501 18.8367 12.5037 18.8438 12.5072L18.9154 12.4357V12.4214ZM18.9583 8.21471C18.9583 8.21471 18.9154 8.10025 18.9011 8.07163C18.8295 8.01439 18.7866 8.08594 18.8152 8.24333C18.8152 8.27552 18.8394 8.28357 18.8635 8.29162C18.8677 8.293 18.8718 8.29438 18.8758 8.29589C18.8796 8.29731 18.8833 8.29883 18.8868 8.30056L18.9583 8.21471ZM21.9058 13.2942L21.8629 13.2656V13.4373L21.9058 13.2942ZM22.8216 12.9508V12.7791L22.7787 12.9222L22.8216 12.9508ZM23.8661 12.8649C23.8661 12.7934 23.7659 12.7362 23.7373 12.7934C23.6944 12.8793 23.6801 13.0653 23.6801 13.2227C23.6801 13.423 23.7087 13.5088 23.7802 13.4516C23.8518 13.3085 23.9233 13.1368 23.8804 12.8649H23.8661ZM26.0982 12.4643C25.8535 12.3465 25.6778 12.5501 25.5163 12.737C25.4228 12.8453 25.3341 12.9479 25.2397 12.9794L25.1968 12.8649L25.2254 13.0223C25.5259 13.4373 25.7977 13.5231 26.0982 12.4643ZM28.0155 12.9079C28.0298 12.5788 27.9869 12.3642 27.8868 12.4357C27.7437 12.5502 27.6435 12.8793 27.6292 13.3371C27.6292 13.5947 27.6578 13.8952 27.758 13.8236C27.8742 13.7391 27.9202 13.4595 27.9651 13.1865C27.981 13.0898 27.9968 12.994 28.0155 12.9079ZM30.219 12.7219L30.1761 12.6932V12.8649L30.219 12.7219ZM30.8915 13.3085C30.8057 13.237 30.7484 13.5231 30.7628 13.8236L30.7914 14.3387C30.7804 14.3989 30.7528 14.4047 30.7252 14.4105C30.6805 14.4198 30.6361 14.4292 30.6626 14.6678L30.8057 14.3816C30.8162 14.3466 30.8267 14.3133 30.837 14.2806C30.8688 14.1799 30.8985 14.0856 30.9201 13.9667C30.9488 13.7378 30.9917 13.3801 30.8915 13.3085ZM31.6069 12.0637C31.4925 12.5502 31.4352 13.0223 31.5354 13.6376C31.75 13.0939 31.75 12.6217 31.6069 12.0637ZM33.3955 13.3371L33.3526 13.423L33.324 13.5661L33.3669 13.4802L33.3955 13.3514V13.3371ZM33.7961 11.2624L33.7532 11.3912L33.7103 11.52L33.7675 11.4341L33.8104 11.2624H33.7961ZM36.0282 5.9826C36.0282 5.9826 36.0712 5.96829 36.0998 5.95398C36.0998 5.91821 36.1069 5.88244 36.1141 5.84667C36.1213 5.8109 36.1284 5.77513 36.1284 5.73936C36.1284 5.69643 36.0855 5.62489 36.0712 5.6392C35.9996 5.69643 35.9853 5.83952 36.0139 5.96829L36.0282 5.9826ZM36.1427 12.636C36.1397 12.6091 36.1367 12.5777 36.1336 12.545C36.1218 12.4214 36.1081 12.2783 36.0855 12.2783C36.0367 12.2588 35.9813 12.2792 35.9283 12.2987C35.9036 12.3078 35.8793 12.3167 35.8565 12.3212C35.8136 12.5788 35.8279 12.7219 35.8995 12.7219C35.9617 12.7219 36.024 12.6918 36.0808 12.6643C36.1023 12.6539 36.123 12.6439 36.1427 12.636ZM36.8868 13.1797V13.0223L36.8438 13.1797H36.8868ZM38.6038 13.0223V12.9079L38.5465 12.9651L38.6038 13.0223ZM39.6197 5.66781L39.6769 5.73936V5.61058L39.6197 5.66781ZM39.8772 12.8936C39.7198 11.9063 39.5338 11.8634 39.3049 12.7505L39.2476 12.8649L39.3049 12.7791C39.4038 12.6237 39.4922 12.7299 39.5805 12.8359C39.6711 12.9446 39.7615 13.0531 39.8629 12.8793L39.8772 12.8936ZM41.7945 13.1511L41.8375 13.1189V13.2227L41.7945 13.1511ZM44.2985 11.9349C44.2985 11.9349 44.2413 11.8777 44.227 11.9063C44.1554 12.0351 44.1554 12.1781 44.227 12.2497C44.2366 12.2594 44.2529 12.2298 44.2712 12.1963L44.2712 12.1963C44.28 12.1803 44.2893 12.1634 44.2985 12.1495V11.9349ZM44.8422 12.4929H44.7993L44.8136 12.6503L44.8422 12.4929ZM46.4162 12.2783C46.342 12.2669 46.2791 12.2486 46.2241 12.2327C46.1411 12.2085 46.0757 12.1896 46.0155 12.2068C45.8724 12.2354 45.6864 12.3069 45.7723 12.9365C45.8295 13.3371 45.9583 13.2656 46.0728 13.0223C46.116 12.9358 46.1567 12.8492 46.2027 12.751L46.2029 12.7506L46.203 12.7505C46.2634 12.6217 46.3331 12.473 46.4305 12.2783H46.4162ZM47.432 12.636L47.4815 12.5619L47.4464 12.6789L47.289 12.9508C47.2803 12.7333 47.3245 12.7221 47.3669 12.7114C47.3942 12.7044 47.4208 12.6977 47.432 12.636ZM48.1618 12.4357C48.1618 12.4357 48.1046 12.3355 48.0902 12.3498C48.0044 12.3642 47.9758 12.4643 48.0473 12.5931C48.0616 12.636 48.1046 12.6217 48.1332 12.5931C48.1434 12.5829 48.1536 12.5361 48.1638 12.4894C48.1679 12.4707 48.172 12.452 48.1761 12.4357H48.1618ZM48.3907 13.9524L48.3049 14.0382C48.312 14.0597 48.3192 14.0847 48.3263 14.1098C48.3335 14.1348 48.3406 14.1599 48.3478 14.1813C48.3573 14.1813 48.3685 14.1861 48.3796 14.1909C48.4018 14.2004 48.4241 14.2099 48.4336 14.1813C48.4909 14.0525 48.4766 13.9667 48.3907 13.9524ZM51.1093 7.55653C51.1093 7.27036 51.0664 7.09866 50.9805 7.05573C50.9662 7.05573 50.9233 7.15589 50.9233 7.22743C50.8947 7.47067 50.909 7.72823 50.9949 7.79977C51.0129 7.8088 51.0367 7.74375 51.0625 7.67295C51.0776 7.63156 51.0935 7.5882 51.1093 7.55653ZM51.3955 4.17974C51.4098 3.79341 51.3669 3.59309 51.2667 3.67894C51.1952 3.73618 51.1093 3.9508 51.0807 4.13681C51.0521 4.39437 51.1093 4.65192 51.2095 4.59468C51.2561 4.56674 51.2966 4.45391 51.3349 4.34698C51.3555 4.28964 51.3755 4.234 51.3955 4.19405V4.17974ZM52.3971 5.32441L52.3541 5.23856V5.36734L52.3971 5.32441ZM52.7691 12.5645V12.3498C52.7691 12.3498 52.6832 12.3785 52.6689 12.4357C52.6117 12.6074 52.626 12.7362 52.7119 12.7219C52.7262 12.7219 52.7548 12.6217 52.7691 12.5645ZM56.1173 10.3753C56.0743 10.4325 56.0457 10.6185 56.0457 10.7616C56.0314 10.9762 56.0457 11.0621 56.103 11.0049C56.1117 10.9654 56.1218 10.9259 56.132 10.8861L56.1321 10.8858C56.1552 10.7956 56.1789 10.7034 56.1888 10.6042V10.5899C56.2174 10.4039 56.1888 10.2751 56.1173 10.3753ZM56.9615 7.69961L57.0044 7.67815V7.78546L56.9615 7.69961ZM58.192 7.01281C58.192 6.81249 58.1061 6.74095 58.0632 6.88403C57.9487 7.19881 57.9201 7.58514 57.9774 8.00009C58.1061 7.75684 58.192 7.44206 58.192 7.01281ZM58.6642 13.2513L58.6069 13.3514L58.564 13.4945L58.6212 13.3944L58.6642 13.2513ZM59.2937 11.9349C59.2937 11.9349 59.2794 11.7632 59.2651 11.7632C59.246 11.7632 59.2333 11.7886 59.2185 11.8183C59.2111 11.8332 59.2031 11.8491 59.1936 11.8634C59.1936 11.8877 59.1902 11.9171 59.187 11.9458L59.187 11.9459C59.1807 12.0013 59.1747 12.0542 59.1936 12.0637C59.2508 12.1925 59.2937 12.1352 59.308 11.9349H59.2937ZM59.5656 7.44206C59.5084 7.31328 59.4654 7.37052 59.4511 7.58514C59.4511 7.62807 59.4654 7.75684 59.4797 7.74254C59.4964 7.74254 59.5082 7.71826 59.5208 7.69233C59.5299 7.67375 59.5393 7.65432 59.5513 7.64238C59.5513 7.61165 59.5566 7.57564 59.5615 7.54229L59.5615 7.54224C59.568 7.49796 59.5737 7.45838 59.5656 7.44206ZM60.7103 12.9794C60.6692 12.336 60.4841 12.1379 60.3052 11.9466L60.281 11.9206C60.257 11.8486 60.2355 11.7664 60.2144 11.6859L60.2144 11.6858C60.1852 11.5744 60.1568 11.4659 60.1236 11.3912C60.0664 11.2767 60.0092 11.4484 60.0664 11.6058C60.0978 11.7314 60.1521 11.8187 60.2071 11.9069L60.2071 11.9071L60.2072 11.9071L60.2072 11.9072C60.2273 11.9395 60.2475 11.9719 60.2667 12.0064C60.3371 12.0769 60.3645 12.2949 60.3922 12.5162C60.4378 12.8795 60.4845 13.2516 60.7246 12.9937L60.7103 12.9794ZM60.9535 9.57401V9.35939C60.9106 9.15907 60.8677 9.18769 60.8534 9.43093C60.8534 9.48816 60.8677 9.57401 60.8963 9.60263C60.9059 9.62198 60.9222 9.60862 60.9405 9.59351C60.9493 9.58628 60.9586 9.57864 60.9678 9.57401H60.9535ZM61.1824 3.42139L61.1252 3.56448L60.7675 3.49293L60.7246 3.40708L60.7532 3.55017C60.8677 3.87926 60.9964 3.99373 61.1395 3.57879L61.1824 3.42139ZM61.5831 11.7203C61.5731 11.6936 61.5623 11.6623 61.5513 11.6303C61.515 11.5249 61.4763 11.4122 61.4543 11.4341C61.3255 11.52 61.254 11.8204 61.2397 12.2068C61.2397 12.45 61.2683 12.5502 61.3255 12.4214C61.3625 12.3291 61.3994 12.2315 61.4374 12.1308L61.4375 12.1307L61.4376 12.1305L61.4376 12.1304L61.4377 12.1302C61.488 11.9971 61.5404 11.8587 61.5974 11.7203H61.5831ZM63.3716 11.6201L63.4043 11.5711L63.3859 11.663L63.3287 11.7489L63.3716 11.6201ZM64.3303 11.6058L64.2874 11.7346C64.2659 11.7818 64.2431 11.8278 64.2202 11.874L64.2202 11.8741C64.1668 11.9818 64.1128 12.0909 64.0727 12.2211L64.0599 12.2558C64.0024 12.4109 63.9245 12.6207 64.0441 12.7934C64.0584 12.822 64.1443 12.6074 64.1729 12.4786C64.2119 12.3325 64.2376 12.1664 64.2636 11.9986L64.2636 11.9984C64.2758 11.9198 64.288 11.8408 64.3017 11.7632L64.3446 11.6058H64.3303ZM65.0171 11.7489C65.0457 11.5772 65.0171 11.4627 64.9313 11.5343C64.9055 11.5686 64.8797 11.6339 64.854 11.6991L64.8539 11.6992C64.8368 11.7427 64.8196 11.7861 64.8025 11.8204C64.8025 12.0064 64.8168 12.1209 64.8883 12.0494C64.9313 11.9921 64.9885 11.8634 65.0028 11.7346L65.0171 11.7489ZM69.0091 10.3037C68.9703 10.4473 68.9308 10.5809 68.8926 10.7099C68.7481 11.1982 68.6228 11.6219 68.6228 12.2783C68.9853 12.202 69.1141 11.5438 69.0091 10.3037ZM70.2683 12.6789C70.1968 12.4929 70.1109 12.5502 70.0537 12.7791C69.9964 13.0367 70.0537 13.2513 70.1109 13.3944C70.1824 13.5661 70.2683 13.5804 70.3255 13.3228C70.3541 13.051 70.3255 12.8363 70.2683 12.6789ZM72.8152 13.3657C72.8152 13.1797 72.7723 13.0796 72.715 13.1654C72.6435 13.2513 72.5576 13.3657 72.4861 13.5088C72.4289 13.6233 72.4575 13.7664 72.529 13.7807C72.6435 13.8093 72.7436 13.6805 72.8152 13.3657ZM74.9185 13.4087C74.9185 12.9794 74.8756 12.8936 74.8041 12.9937C74.7852 13.0239 74.7634 13.053 74.741 13.083C74.6782 13.1669 74.6105 13.2573 74.5894 13.3944C74.5465 13.7235 74.6467 13.8236 74.7468 13.7235C74.8009 13.6694 74.8436 13.5813 74.8785 13.5092L74.8786 13.5091L74.8786 13.509L74.8787 13.5089C74.8992 13.4666 74.917 13.4298 74.9328 13.4087H74.9185ZM77.2684 13.2359C77.2764 13.3154 77.2842 13.3925 77.2933 13.4625C77.2783 13.8267 77.2212 13.9807 77.122 13.9524C76.936 13.9095 76.9074 13.5088 76.9074 13.0653C76.9074 12.7362 76.9503 12.3355 77.0934 12.4929C77.2056 12.6164 77.2386 12.9423 77.2684 13.2359ZM80.3843 14.5104L80.3271 14.5533L80.3843 14.6392V14.5104ZM80.4845 12.9937L80.3414 13.2656L80.3128 13.423L80.3557 13.3085C80.3664 13.2553 80.3928 13.2535 80.4196 13.2517C80.465 13.2486 80.5115 13.2455 80.4845 12.9937ZM81.0998 13.4945L81.0425 13.5518L81.0998 13.609V13.4945ZM81.3144 4.90947C81.325 4.8563 81.3515 4.8545 81.3783 4.85268C81.4237 4.84959 81.4701 4.84643 81.4432 4.59468L81.3001 4.88085L81.2572 5.02394L81.3001 4.90947H81.3144ZM81.7293 12.078C81.7293 12.078 81.5862 12.078 81.5719 12.1066C81.529 12.8649 81.5863 13.5518 81.9153 14.1813C81.9082 13.9788 81.9073 13.7834 81.9064 13.595V13.5947V13.5945V13.5942C81.9037 13.0242 81.9013 12.5188 81.7293 12.078ZM84.0187 12.1638C83.7638 11.8618 83.5277 11.9271 83.2404 12.0065C83.0921 12.0475 82.9303 12.0923 82.7452 12.0923C83.1981 12.8735 83.5076 12.5976 83.7943 12.342L83.7944 12.342C83.87 12.2746 83.944 12.2086 84.0187 12.1638ZM86.6085 12.4786L86.4225 12.3212C86.0815 11.7732 86.0411 12.4587 86.0102 12.9837V12.9838V12.9839V12.984C86.0047 13.0757 85.9996 13.1625 85.9932 13.237C85.9217 13.8665 85.9503 14.5677 86.3796 14.8395C86.3676 14.7034 86.3544 14.5684 86.3415 14.4352L86.3414 14.4348C86.2618 13.616 86.1887 12.8646 86.4225 12.3355C86.4398 12.3571 86.4557 12.4087 86.472 12.4611C86.5095 12.5824 86.5486 12.7084 86.6085 12.4786ZM87.1951 12.7648H87.2095C87.2095 12.7648 87.1808 12.5931 87.1665 12.5931C87.1379 12.5931 87.1093 12.6217 87.095 12.6646C87.0521 12.8506 87.095 12.9508 87.1522 12.9222C87.1622 12.9222 87.1722 12.8732 87.1822 12.8241L87.1823 12.8241L87.1895 12.7895C87.1914 12.7807 87.1933 12.7724 87.1951 12.7648ZM89.2985 12.822C89.0695 12.2068 88.8549 12.3928 88.5401 12.7934L88.5775 12.8546C88.8721 13.3381 89.0787 13.6771 89.2985 13.2513C89.3271 13.194 89.3414 12.8793 89.2985 12.822ZM90.9296 15.0398L90.8867 14.8824C90.8753 14.8343 90.8638 14.7851 90.8523 14.7352L90.8344 14.6574C90.7796 14.4193 90.7228 14.1725 90.6578 13.9667C90.5576 13.6805 90.4289 13.4373 90.343 13.8379C90.2858 14.1527 90.343 14.5247 90.4861 14.6964C90.5599 14.7887 90.6456 14.8274 90.7318 14.8663C90.7792 14.8877 90.8267 14.9092 90.8724 14.9397L90.9296 15.0398ZM90.4577 4.57583L90.4478 4.5521C90.4124 4.46739 90.3753 4.37845 90.3287 4.30851C90.2571 4.19405 90.1999 4.26559 90.2285 4.4516C90.2285 4.55176 90.3144 4.69484 90.3573 4.72346C90.387 4.74327 90.4167 4.70136 90.4465 4.65944C90.4597 4.64082 90.4729 4.6222 90.4861 4.60899H90.4718L90.4577 4.57583ZM92.0314 13.0223C91.874 12.822 91.7309 12.8363 91.6308 13.1082C91.5878 13.2227 91.6308 13.4659 91.688 13.5088C91.8597 13.609 91.9455 13.3228 92.0314 13.0223ZM91.8883 10.3324C91.6451 10.5327 91.5306 10.8188 91.5306 11.3626C91.5306 11.3912 91.6451 11.5343 91.688 11.5056C91.8435 11.4538 91.8582 11.0852 91.8808 10.5166C91.8832 10.4573 91.8856 10.3958 91.8883 10.3324ZM92.99 14.2672C92.99 14.2672 92.9328 14.2099 92.9185 14.2386C92.8613 14.3673 92.8756 14.5104 92.9471 14.5677C92.9568 14.5773 92.973 14.5477 92.9913 14.5143C93.0001 14.4983 93.0094 14.4814 93.0187 14.4675V14.4674C93.0187 14.3959 93.0187 14.3101 93.0044 14.2672H92.99ZM95.2794 16.0271L95.3176 16.1161L95.2794 16.1416V16.0271ZM95.4654 12.7362C94.9074 12.8649 94.7929 13.5947 94.8501 14.725V14.8681L94.8788 14.7823C94.8987 14.1449 95.0572 13.7779 95.2386 13.358L95.2387 13.3578L95.2387 13.3577L95.2388 13.3575C95.318 13.1742 95.4015 12.9808 95.4797 12.7505L95.4654 12.7362ZM96.9535 15.9985C96.8963 16.0987 96.8534 16.3276 96.8534 16.5279C96.8534 16.7712 96.9535 17.0001 97.0537 17.0001C97.2111 17.0001 97.2111 16.6853 97.1682 16.3133C97.1605 16.2864 97.1528 16.2578 97.145 16.2287C97.0948 16.0412 97.0403 15.8374 96.9535 15.9985ZM96.9964 4.69482C96.9964 4.59466 97.1252 4.55174 97.1252 4.55174C97.2253 4.56605 97.3255 4.60897 97.3541 5.02392C97.3541 5.26716 97.254 5.25285 97.1681 5.18131C97.0823 5.10977 96.9821 4.9953 96.9964 4.69482ZM97.8692 11.6058C97.8692 11.8348 97.8692 12.078 97.998 12.1925C98.1124 12.1925 98.1267 11.9778 98.0981 11.7203C98.0981 11.5772 98.0409 11.3483 97.998 11.3054C97.8852 11.1644 97.8696 11.3983 97.8555 11.6105L97.8549 11.6201L97.8692 11.6058Z" fill="#DDF0DB"/>
</svg>
