<svg width="152" height="50" viewBox="0 0 152 50" fill="none" xmlns="http://www.w3.org/2000/svg">
<path d="M32.6142 34.7838L32.6142 34.0008C32.6142 33.8808 32.6412 33.8028 32.6952 33.7668C32.7492 33.7308 32.8332 33.7128 32.9472 33.7128L34.4142 33.7128C34.6542 33.7128 34.7982 33.6918 34.8462 33.6498C34.9002 33.6078 34.9482 33.4908 34.9902 33.2988L37.1052 23.4078C37.1412 23.2398 37.1382 23.1408 37.0962 23.1108C37.0602 23.0748 36.9462 23.0568 36.7542 23.0568L35.4312 23.0568C35.2812 23.0568 35.1882 23.0358 35.1522 22.9938C35.1162 22.9458 35.0982 22.8468 35.0982 22.6968L35.0982 21.9588C35.0982 21.8268 35.1132 21.7398 35.1432 21.6978C35.1792 21.6558 35.2632 21.6348 35.3952 21.6348L41.5602 21.6348C41.6982 21.6348 41.7882 21.6558 41.8302 21.6978C41.8782 21.7338 41.9022 21.8268 41.9022 21.9768L41.9022 22.7148C41.9022 22.8528 41.8842 22.9458 41.8482 22.9938C41.8182 23.0358 41.7342 23.0568 41.5962 23.0568L40.0752 23.0568C39.8892 23.0568 39.7782 23.0778 39.7422 23.1198C39.7122 23.1618 39.6822 23.2608 39.6522 23.4168L37.5552 33.2088C37.5132 33.4128 37.5162 33.5478 37.5642 33.6138C37.6182 33.6798 37.7802 33.7128 38.0502 33.7128L40.4442 33.7128C41.2302 33.7128 41.8752 33.6168 42.3792 33.4248C42.8892 33.2268 43.3032 32.8908 43.6212 32.4168C43.9452 31.9368 44.2242 31.2768 44.4582 30.4368C44.5062 30.2868 44.5542 30.1878 44.6022 30.1398C44.6562 30.0858 44.7792 30.0588 44.9712 30.0588L45.5112 30.0588C45.6372 30.0588 45.7182 30.0798 45.7542 30.1218C45.7902 30.1578 45.7962 30.2268 45.7722 30.3288L44.7552 34.7838C44.7192 34.9278 44.6712 35.0238 44.6112 35.0718C44.5572 35.1138 44.4402 35.1348 44.2602 35.1348L33.0282 35.1348C32.8662 35.1348 32.7582 35.1198 32.7042 35.0898C32.6442 35.0538 32.6142 34.9518 32.6142 34.7838ZM46.1395 31.9668C46.1395 31.0968 46.3105 30.2748 46.6525 29.5008C47.0005 28.7268 47.4655 28.0428 48.0475 27.4488C48.6355 26.8548 49.2985 26.3898 50.0365 26.0538C50.7805 25.7118 51.5455 25.5408 52.3315 25.5408C53.4175 25.5408 54.2305 25.7268 54.7705 26.0988C55.3165 26.4708 55.5895 27.0258 55.5895 27.7638C55.5895 28.3158 55.4455 28.7898 55.1575 29.1858C54.8755 29.5818 54.4975 29.9148 54.0235 30.1848C53.5495 30.4488 53.0245 30.6618 52.4485 30.8238C51.8725 30.9858 51.2935 31.1118 50.7115 31.2018C50.1295 31.2858 49.5865 31.3458 49.0825 31.3818C48.9085 31.3938 48.7915 31.4448 48.7315 31.5348C48.6715 31.6188 48.6415 31.7778 48.6415 32.0118C48.6415 32.6778 48.7645 33.1998 49.0105 33.5778C49.2625 33.9498 49.6585 34.1358 50.1985 34.1358C50.6005 34.1358 50.9785 34.0458 51.3325 33.8658C51.6925 33.6798 52.0195 33.4428 52.3135 33.1548C52.6075 32.8668 52.8655 32.5578 53.0875 32.2278C53.1415 32.1438 53.1955 32.0898 53.2495 32.0658C53.3095 32.0358 53.4175 32.0208 53.5735 32.0208L54.1675 32.0208C54.3715 32.0208 54.4915 32.0448 54.5275 32.0928C54.5635 32.1348 54.5365 32.2338 54.4465 32.3898C54.1585 32.8818 53.7925 33.3558 53.3485 33.8118C52.9105 34.2678 52.3945 34.6428 51.8005 34.9368C51.2125 35.2248 50.5435 35.3688 49.7935 35.3688C49.0975 35.3688 48.4735 35.2548 47.9215 35.0268C47.3695 34.7988 46.9345 34.4358 46.6165 33.9378C46.2985 33.4398 46.1395 32.7828 46.1395 31.9668ZM49.2535 30.3378C49.7035 30.2838 50.1625 30.1998 50.6305 30.0858C51.1045 29.9718 51.5425 29.8188 51.9445 29.6268C52.3465 29.4288 52.6705 29.1798 52.9165 28.8798C53.1685 28.5738 53.2945 28.2018 53.2945 27.7638C53.2945 27.3498 53.2075 27.0648 53.0335 26.9088C52.8655 26.7468 52.6045 26.6658 52.2505 26.6658C51.8185 26.6658 51.3865 26.7978 50.9545 27.0618C50.5285 27.3198 50.1415 27.6858 49.7935 28.1598C49.4515 28.6278 49.1755 29.1798 48.9655 29.8158C48.8995 30.0198 48.8785 30.1638 48.9025 30.2478C48.9325 30.3318 49.0495 30.3618 49.2535 30.3378ZM56.8915 25.7748L58.2775 25.7748C58.4035 25.7748 58.4725 25.7568 58.4845 25.7208C58.5025 25.6848 58.5235 25.6218 58.5475 25.5318L58.8175 24.3798C58.8475 24.2658 58.8805 24.1998 58.9165 24.1818C58.9525 24.1578 59.0335 24.1368 59.1595 24.1188C59.4535 24.0888 59.7115 24.0288 59.9335 23.9388C60.1555 23.8488 60.3295 23.7678 60.4555 23.6958C60.5335 23.6478 60.5935 23.6148 60.6355 23.5968C60.6775 23.5728 60.7195 23.5578 60.7615 23.5518C60.8095 23.5458 60.8785 23.5428 60.9685 23.5428C61.0945 23.5428 61.1725 23.5548 61.2025 23.5788C61.2385 23.6028 61.2445 23.6658 61.2205 23.7678L60.8065 25.5318C60.7825 25.6338 60.7735 25.6998 60.7795 25.7298C60.7915 25.7598 60.8635 25.7748 60.9955 25.7748L62.5165 25.7748C62.6485 25.7748 62.7325 25.7898 62.7685 25.8198C62.8045 25.8498 62.8225 25.9338 62.8225 26.0718L62.8225 26.7108C62.8225 26.8608 62.8075 26.9538 62.7775 26.9898C62.7535 27.0198 62.6665 27.0348 62.5165 27.0348L60.6625 27.0348C60.5485 27.0348 60.4795 27.0498 60.4555 27.0798C60.4375 27.1098 60.4165 27.1698 60.3925 27.2598L59.0695 32.9118C59.0335 33.0498 59.0005 33.1938 58.9705 33.3438C58.9405 33.4938 58.9465 33.6198 58.9885 33.7218C59.0305 33.8178 59.1415 33.8658 59.3215 33.8658C59.5495 33.8658 59.7835 33.7728 60.0235 33.5868C60.2695 33.4008 60.5125 33.1398 60.7525 32.8038C60.8125 32.7138 60.8695 32.6388 60.9235 32.5788C60.9835 32.5188 61.0615 32.5098 61.1575 32.5518L61.6345 32.7678C61.7485 32.8158 61.8145 32.8638 61.8325 32.9118C61.8505 32.9598 61.8265 33.0528 61.7605 33.1908C61.4605 33.8328 61.0255 34.3608 60.4555 34.7748C59.8915 35.1888 59.2195 35.3958 58.4395 35.3958C57.7015 35.3958 57.1915 35.2098 56.9095 34.8378C56.6335 34.4658 56.5615 33.9768 56.6935 33.3708L58.1425 27.3048C58.1665 27.2028 58.1695 27.1338 58.1515 27.0978C58.1335 27.0558 58.0585 27.0348 57.9265 27.0348L56.8555 27.0348C56.7535 27.0348 56.6815 27.0138 56.6395 26.9718C56.5975 26.9298 56.5765 26.8518 56.5765 26.7378L56.5765 26.0808C56.5765 25.9548 56.5975 25.8738 56.6395 25.8378C56.6875 25.7958 56.7715 25.7748 56.8915 25.7748ZM65.5304 22.3188C65.5304 21.9108 65.6774 21.5808 65.9714 21.3288C66.2714 21.0708 66.6344 20.9418 67.0604 20.9418C67.3484 20.9418 67.6154 21.0138 67.8614 21.1578C68.1134 21.2958 68.3144 21.5148 68.4644 21.8148C68.6144 22.1088 68.6894 22.4898 68.6894 22.9578C68.6894 23.4078 68.5814 23.8248 68.3654 24.2088C68.1554 24.5868 67.8734 24.9198 67.5194 25.2078C67.1714 25.4958 66.7844 25.7268 66.3584 25.9008C65.9384 26.0688 65.5184 26.1678 65.0984 26.1978C65.0084 26.2038 64.9454 26.2008 64.9094 26.1888C64.8734 26.1708 64.8554 26.1108 64.8554 26.0088L64.8554 25.4508C64.8554 25.3608 64.8764 25.3068 64.9184 25.2888C64.9604 25.2708 65.0174 25.2588 65.0894 25.2528C65.3834 25.2168 65.7104 25.1208 66.0704 24.9648C66.4304 24.8088 66.7484 24.6078 67.0244 24.3618C67.3004 24.1098 67.4564 23.8278 67.4924 23.5158C67.5344 23.4198 67.5284 23.3748 67.4744 23.3808C67.4264 23.3808 67.3634 23.4018 67.2854 23.4438C67.2014 23.4978 67.1054 23.5398 66.9974 23.5698C66.8954 23.5938 66.7754 23.6058 66.6374 23.6058C66.2774 23.6058 66.0014 23.4858 65.8094 23.2458C65.6234 22.9998 65.5304 22.6908 65.5304 22.3188ZM74.3309 32.7588C74.3309 32.4408 74.2199 32.1708 73.9979 31.9488C73.7819 31.7208 73.4999 31.5198 73.1519 31.3458C72.8099 31.1658 72.4439 30.9858 72.0539 30.8058C71.6699 30.6258 71.3069 30.4248 70.9649 30.2028C70.6229 29.9808 70.3409 29.7168 70.1189 29.4108C69.9029 29.1048 69.7949 28.7328 69.7949 28.2948C69.7949 27.7908 69.9179 27.3618 70.1639 27.0078C70.4159 26.6538 70.7429 26.3658 71.1449 26.1438C71.5469 25.9218 71.9819 25.7598 72.4499 25.6578C72.9239 25.5558 73.3799 25.5048 73.8179 25.5048C74.5319 25.5048 75.1499 25.6098 75.6719 25.8198C76.1999 26.0238 76.6079 26.3028 76.8959 26.6568C77.1839 27.0108 77.3279 27.4068 77.3279 27.8448C77.3279 28.2588 77.2169 28.5858 76.9949 28.8258C76.7729 29.0658 76.4789 29.1858 76.1129 29.1858C75.7829 29.1858 75.5039 29.0958 75.2759 28.9158C75.0539 28.7298 74.9429 28.4988 74.9429 28.2228C74.9429 27.9708 74.9819 27.7908 75.0599 27.6828C75.1439 27.5748 75.2279 27.4938 75.3119 27.4398C75.3959 27.3798 75.4379 27.2958 75.4379 27.1878C75.4379 26.9658 75.2789 26.8068 74.9609 26.7108C74.6489 26.6088 74.3309 26.5578 74.0069 26.5578C73.6649 26.5578 73.3409 26.6058 73.0349 26.7018C72.7289 26.7918 72.4769 26.9328 72.2789 27.1248C72.0869 27.3108 71.9909 27.5448 71.9909 27.8268C71.9909 28.1208 72.1019 28.3698 72.3239 28.5738C72.5459 28.7718 72.8309 28.9578 73.1789 29.1318C73.5269 29.2998 73.8959 29.4768 74.2859 29.6628C74.6759 29.8428 75.0449 30.0528 75.3929 30.2928C75.7409 30.5328 76.0259 30.8268 76.2479 31.1748C76.4699 31.5228 76.5809 31.9548 76.5809 32.4708C76.5809 32.9748 76.4549 33.4128 76.2029 33.7848C75.9509 34.1568 75.6119 34.4628 75.1859 34.7028C74.7599 34.9368 74.2739 35.1108 73.7279 35.2248C73.1879 35.3448 72.6269 35.4048 72.0449 35.4048C71.3009 35.4048 70.6349 35.2968 70.0469 35.0808C69.4589 34.8648 68.9939 34.5618 68.6519 34.1718C68.3099 33.7818 68.1389 33.3288 68.1389 32.8128C68.1389 32.3448 68.2769 31.9548 68.5529 31.6428C68.8289 31.3248 69.1649 31.1658 69.5609 31.1658C69.8909 31.1658 70.1699 31.2618 70.3979 31.4538C70.6259 31.6458 70.7399 31.9068 70.7399 32.2368C70.7399 32.5128 70.6709 32.7078 70.5329 32.8218C70.4009 32.9358 70.2689 33.0258 70.1369 33.0918C70.0049 33.1518 69.9389 33.2358 69.9389 33.3438C69.9389 33.5358 70.0349 33.7038 70.2269 33.8478C70.4189 33.9918 70.6619 34.1028 70.9559 34.1808C71.2559 34.2528 71.5679 34.2888 71.8919 34.2888C72.6599 34.2888 73.2569 34.1418 73.6829 33.8478C74.1149 33.5478 74.3309 33.1848 74.3309 32.7588ZM83.8388 25.7748L85.2248 25.7748C85.3508 25.7748 85.4198 25.7568 85.4318 25.7208C85.4498 25.6848 85.4708 25.6218 85.4948 25.5318L85.7648 24.3798C85.7948 24.2658 85.8278 24.1998 85.8638 24.1818C85.8998 24.1578 85.9808 24.1368 86.1068 24.1188C86.4008 24.0888 86.6588 24.0288 86.8808 23.9388C87.1028 23.8488 87.2768 23.7678 87.4028 23.6958C87.4808 23.6478 87.5408 23.6148 87.5828 23.5968C87.6248 23.5728 87.6668 23.5578 87.7088 23.5518C87.7568 23.5458 87.8258 23.5428 87.9158 23.5428C88.0418 23.5428 88.1198 23.5548 88.1498 23.5788C88.1858 23.6028 88.1918 23.6658 88.1678 23.7678L87.7538 25.5318C87.7298 25.6338 87.7208 25.6998 87.7268 25.7298C87.7388 25.7598 87.8108 25.7748 87.9428 25.7748L89.4638 25.7748C89.5958 25.7748 89.6798 25.7898 89.7158 25.8198C89.7518 25.8498 89.7698 25.9338 89.7698 26.0718L89.7698 26.7108C89.7698 26.8608 89.7548 26.9538 89.7248 26.9898C89.7008 27.0198 89.6138 27.0348 89.4638 27.0348L87.6098 27.0348C87.4958 27.0348 87.4268 27.0498 87.4028 27.0798C87.3848 27.1098 87.3638 27.1698 87.3398 27.2598L86.0168 32.9118C85.9808 33.0498 85.9478 33.1938 85.9178 33.3438C85.8878 33.4938 85.8938 33.6198 85.9358 33.7218C85.9778 33.8178 86.0888 33.8658 86.2688 33.8658C86.4968 33.8658 86.7308 33.7728 86.9708 33.5868C87.2168 33.4008 87.4598 33.1398 87.6998 32.8038C87.7598 32.7138 87.8168 32.6388 87.8708 32.5788C87.9308 32.5188 88.0088 32.5098 88.1048 32.5518L88.5818 32.7678C88.6958 32.8158 88.7618 32.8638 88.7798 32.9118C88.7978 32.9598 88.7738 33.0528 88.7078 33.1908C88.4078 33.8328 87.9728 34.3608 87.4028 34.7748C86.8388 35.1888 86.1668 35.3958 85.3868 35.3958C84.6488 35.3958 84.1388 35.2098 83.8568 34.8378C83.5808 34.4658 83.5088 33.9768 83.6408 33.3708L85.0898 27.3048C85.1138 27.2028 85.1168 27.1338 85.0988 27.0978C85.0808 27.0558 85.0058 27.0348 84.8738 27.0348L83.8028 27.0348C83.7008 27.0348 83.6288 27.0138 83.5868 26.9718C83.5448 26.9298 83.5238 26.8518 83.5238 26.7378L83.5238 26.0808C83.5238 25.9548 83.5448 25.8738 83.5868 25.8378C83.6348 25.7958 83.7188 25.7748 83.8388 25.7748ZM97.4499 29.3748C97.4499 28.9248 97.4109 28.5048 97.3329 28.1148C97.2549 27.7248 97.1109 27.4128 96.9009 27.1788C96.6909 26.9388 96.3909 26.8188 96.0009 26.8188C95.6529 26.8188 95.2959 26.9658 94.9299 27.2598C94.5699 27.5478 94.2369 27.9378 93.9309 28.4298C93.6249 28.9158 93.3789 29.4588 93.1929 30.0588C93.0069 30.6588 92.9139 31.2708 92.9139 31.8948C92.9139 32.5968 93.0429 33.1398 93.3009 33.5238C93.5589 33.9078 93.9279 34.0998 94.4079 34.0998C94.7499 34.0998 95.0979 33.9588 95.4519 33.6768C95.8119 33.3888 96.1419 33.0108 96.4419 32.5428C96.7479 32.0748 96.9909 31.5648 97.1709 31.0128C97.3569 30.4548 97.4499 29.9088 97.4499 29.3748ZM101.716 32.4528C101.332 33.3288 100.828 34.0398 100.204 34.5858C99.5859 35.1258 98.9109 35.3958 98.1789 35.3958C97.7469 35.3958 97.4019 35.2938 97.1439 35.0898C96.8919 34.8798 96.7299 34.6278 96.6579 34.3338C96.6459 34.2198 96.6369 34.1328 96.6309 34.0728C96.6249 34.0128 96.6189 33.9618 96.6129 33.9198C96.5949 33.8478 96.5619 33.8178 96.5139 33.8298C96.4719 33.8358 96.4089 33.8808 96.3249 33.9648C95.9589 34.3788 95.5389 34.7178 95.0649 34.9818C94.5909 35.2398 94.0809 35.3688 93.5349 35.3688C92.9829 35.3688 92.4639 35.2638 91.9779 35.0538C91.4919 34.8378 91.0959 34.4808 90.7899 33.9828C90.4839 33.4848 90.3309 32.8068 90.3309 31.9488C90.3309 31.0188 90.4929 30.1668 90.8169 29.3928C91.1469 28.6128 91.5729 27.9378 92.0949 27.3678C92.6229 26.7918 93.1809 26.3478 93.7689 26.0358C94.3629 25.7178 94.9269 25.5588 95.4609 25.5588C96.0729 25.5588 96.5619 25.6848 96.9279 25.9368C97.2939 26.1828 97.5729 26.5338 97.7649 26.9898C97.8549 27.2118 97.9179 27.3168 97.9539 27.3048C97.9959 27.2928 98.0379 27.1788 98.0799 26.9628L98.2959 26.0268C98.3139 25.9368 98.3439 25.8738 98.3859 25.8378C98.4279 25.7958 98.5149 25.7748 98.6469 25.7748L100.258 25.7748C100.462 25.7748 100.579 25.7988 100.609 25.8468C100.639 25.8888 100.636 25.9848 100.6 26.1348L98.8539 33.1998C98.8419 33.2478 98.8299 33.3048 98.8179 33.3708C98.8119 33.4308 98.8089 33.4848 98.8089 33.5328C98.8089 33.7428 98.9109 33.8478 99.1149 33.8478C99.2829 33.8478 99.4659 33.7698 99.6639 33.6138C99.8619 33.4578 100.057 33.2448 100.249 32.9748C100.441 32.6988 100.609 32.3898 100.753 32.0478C100.807 31.9218 100.852 31.8498 100.888 31.8318C100.924 31.8138 100.996 31.8288 101.104 31.8768L101.59 32.0658C101.71 32.1138 101.776 32.1588 101.788 32.2008C101.8 32.2368 101.776 32.3208 101.716 32.4528ZM107.505 21.7338L104.922 33.1998C104.91 33.2478 104.898 33.3048 104.886 33.3708C104.88 33.4308 104.877 33.4848 104.877 33.5328C104.877 33.7428 104.979 33.8478 105.183 33.8478C105.435 33.8478 105.711 33.6828 106.011 33.3528C106.317 33.0168 106.581 32.5968 106.803 32.0928C106.863 31.9608 106.911 31.8798 106.947 31.8498C106.989 31.8198 107.085 31.8348 107.235 31.8948L107.64 32.0658C107.766 32.1198 107.838 32.1678 107.856 32.2098C107.874 32.2458 107.856 32.3208 107.802 32.4348C107.412 33.3168 106.905 34.0308 106.281 34.5768C105.657 35.1228 104.979 35.3958 104.247 35.3958C103.731 35.3958 103.332 35.2728 103.05 35.0268C102.774 34.7808 102.636 34.4178 102.636 33.9378C102.636 33.8538 102.642 33.7518 102.654 33.6318C102.672 33.5058 102.69 33.3978 102.708 33.3078L104.976 22.7778C105.018 22.5978 105.018 22.4838 104.976 22.4358C104.94 22.3818 104.811 22.3548 104.589 22.3548L103.752 22.3548C103.626 22.3548 103.542 22.3368 103.5 22.3008C103.458 22.2648 103.437 22.1868 103.437 22.0668L103.437 21.4368C103.437 21.2928 103.455 21.1998 103.491 21.1578C103.533 21.1158 103.623 21.0948 103.761 21.0948L106.956 21.0948C107.298 21.0948 107.49 21.1338 107.532 21.2118C107.58 21.2898 107.571 21.4638 107.505 21.7338ZM118.946 32.4798C118.514 33.4758 117.965 34.2108 117.299 34.6848C116.639 35.1588 115.991 35.3958 115.355 35.3958C114.785 35.3958 114.371 35.2488 114.113 34.9548C113.855 34.6548 113.765 34.1838 113.843 33.5418L113.996 32.2548C114.026 32.0028 114.029 31.7388 114.005 31.4628C113.981 31.1868 113.909 30.9378 113.789 30.7158C113.711 30.5718 113.636 30.5058 113.564 30.5178C113.498 30.5298 113.384 30.5568 113.222 30.5988C113.096 30.6348 112.973 30.6588 112.853 30.6708C112.733 30.6828 112.622 30.6888 112.52 30.6888C112.238 30.6888 111.986 30.6468 111.764 30.5628C111.644 30.5148 111.569 30.4938 111.539 30.4998C111.515 30.5058 111.488 30.5718 111.458 30.6978L110.495 34.8648C110.471 34.9728 110.447 35.0448 110.423 35.0808C110.399 35.1168 110.315 35.1348 110.171 35.1348L108.506 35.1348C108.302 35.1348 108.2 35.1108 108.2 35.0628C108.2 35.0088 108.221 34.9008 108.263 34.7388L111.035 22.6968C111.071 22.5528 111.077 22.4598 111.053 22.4178C111.029 22.3758 110.924 22.3548 110.738 22.3548L109.919 22.3548C109.793 22.3548 109.715 22.3308 109.685 22.2828C109.661 22.2348 109.649 22.1508 109.649 22.0308L109.649 21.4368C109.649 21.2988 109.664 21.2088 109.694 21.1668C109.73 21.1188 109.817 21.0948 109.955 21.0948L113.276 21.0948C113.444 21.0948 113.543 21.1248 113.573 21.1848C113.609 21.2448 113.612 21.3468 113.582 21.4908L111.89 28.8438C111.854 29.0118 111.845 29.1048 111.863 29.1228C111.881 29.1348 111.965 29.1048 112.115 29.0328C112.295 28.9488 112.466 28.8918 112.628 28.8618C112.796 28.8318 112.94 28.8168 113.06 28.8168C113.222 28.8168 113.375 28.8318 113.519 28.8618C113.669 28.8918 113.765 28.9038 113.807 28.8978C113.855 28.8858 113.918 28.8168 113.996 28.6908C114.092 28.5288 114.179 28.3158 114.257 28.0518C114.533 27.2658 114.911 26.6508 115.391 26.2068C115.877 25.7628 116.432 25.5408 117.056 25.5408C117.74 25.5408 118.256 25.7148 118.604 26.0628C118.952 26.4108 119.126 26.8458 119.126 27.3678C119.126 27.6258 119.066 27.8538 118.946 28.0518C118.832 28.2438 118.679 28.3968 118.487 28.5108C118.295 28.6248 118.082 28.6818 117.848 28.6818C117.512 28.6818 117.23 28.5888 117.002 28.4028C116.774 28.2108 116.66 27.9768 116.66 27.7008C116.66 27.5088 116.684 27.3618 116.732 27.2598C116.786 27.1518 116.837 27.0648 116.885 26.9988C116.939 26.9268 116.966 26.8458 116.966 26.7558C116.966 26.6718 116.939 26.6178 116.885 26.5938C116.831 26.5698 116.759 26.5578 116.669 26.5578C116.411 26.5578 116.147 26.7048 115.877 26.9988C115.613 27.2868 115.373 27.7698 115.157 28.4478C115.121 28.5798 115.076 28.7028 115.022 28.8168C114.968 28.9308 114.911 29.0328 114.851 29.1228C114.785 29.2248 114.764 29.2968 114.788 29.3388C114.812 29.3808 114.878 29.4438 114.986 29.5278C115.388 29.8398 115.709 30.2418 115.949 30.7338C116.195 31.2258 116.282 31.7988 116.21 32.4528L116.102 33.4158C116.084 33.5598 116.096 33.6678 116.138 33.7398C116.18 33.8118 116.273 33.8478 116.417 33.8478C116.555 33.8478 116.78 33.7158 117.092 33.4518C117.404 33.1818 117.698 32.7318 117.974 32.1018C118.028 31.9698 118.07 31.8858 118.1 31.8498C118.136 31.8138 118.229 31.8258 118.379 31.8858L118.802 32.0748C118.934 32.1168 119.006 32.1618 119.018 32.2098C119.03 32.2518 119.006 32.3418 118.946 32.4798ZM119.938 33.9648C119.938 33.7068 120.001 33.4728 120.127 33.2628C120.259 33.0528 120.43 32.8848 120.64 32.7588C120.85 32.6268 121.084 32.5608 121.342 32.5608C121.6 32.5608 121.834 32.6268 122.044 32.7588C122.254 32.8848 122.422 33.0528 122.548 33.2628C122.68 33.4728 122.746 33.7068 122.746 33.9648C122.746 34.2228 122.68 34.4598 122.548 34.6758C122.422 34.8858 122.254 35.0538 122.044 35.1798C121.834 35.3058 121.6 35.3688 121.342 35.3688C121.084 35.3688 120.85 35.3058 120.64 35.1798C120.43 35.0538 120.259 34.8858 120.127 34.6758C120.001 34.4598 119.938 34.2228 119.938 33.9648ZM125.302 23.7498C125.056 24.4878 124.807 25.1598 124.555 25.7658C124.309 26.3658 124.066 26.9388 123.826 27.4848C123.586 28.0308 123.361 28.5798 123.151 29.1318C122.941 29.6778 122.752 30.2628 122.584 30.8868C122.554 30.9828 122.518 31.0458 122.476 31.0758C122.434 31.1058 122.347 31.1208 122.215 31.1208L121.882 31.1208C121.762 31.1208 121.681 31.1118 121.639 31.0938C121.603 31.0698 121.597 31.0038 121.621 30.8958C121.753 30.2718 121.846 29.6628 121.9 29.0688C121.954 28.4748 121.993 27.8718 122.017 27.2598C122.047 26.6478 122.089 26.0028 122.143 25.3248C122.203 24.6468 122.314 23.9148 122.476 23.1288C122.536 22.8348 122.629 22.5618 122.755 22.3098C122.887 22.0578 123.064 21.8568 123.286 21.7068C123.514 21.5508 123.799 21.4728 124.141 21.4728C124.561 21.4728 124.891 21.5988 125.131 21.8508C125.371 22.1028 125.491 22.3998 125.491 22.7418C125.491 22.9038 125.47 23.0778 125.428 23.2638C125.392 23.4498 125.35 23.6118 125.302 23.7498Z" fill="#091818"/>
<path d="M82.1804 44.2462C82.2924 44.0523 81.9901 43.7698 83.1152 43.72C84.2235 43.6646 85.3374 43.5372 86.4512 43.4485C87.4755 43.3821 88.4999 43.3156 89.6025 43.2436C89.8152 43.011 89.0036 42.878 89.4962 42.6454C89.9104 42.446 90.6045 42.3242 91.0019 42.3906C92.7315 42.6676 94.7577 42.2743 96.5489 42.3408C96.7112 42.2134 96.8847 42.086 97.2765 42.0361C97.3437 42.0251 97.5284 42.0971 97.506 42.1303C97.3885 42.2854 97.0023 42.3186 96.672 42.374C96.6104 42.4792 96.1682 42.7008 96.8343 42.6233C97.7523 42.518 97.9426 42.1358 98.5191 41.9087C99.2132 41.6373 99.3475 41.8866 99.3587 42.086L99.2692 42.158L99.4035 42.0971C99.8569 42.0472 100.277 42.0195 100.512 42.1635L100.389 42.23L100.545 42.1691C102.784 41.8201 104.99 41.3715 106.932 40.6957C107.693 40.4354 108.454 40.2582 109.272 40.164C110.195 40.0643 110.621 40.1252 110.066 40.5683C109.927 40.6736 109.384 40.8785 109.983 40.873C110.117 40.873 110.363 40.8065 110.576 40.7456C110.682 40.7123 110.777 40.6791 110.85 40.657C110.923 40.6348 110.968 40.6126 110.962 40.6126C110.693 40.1418 112.328 40.0089 112.686 39.6544C112.876 39.4606 113.347 39.2501 113.8 39.2667C115.082 39.3165 116.442 38.8236 117.757 38.5633C118.138 38.4746 118.423 38.4691 118.647 38.5245C118.574 38.6076 118.138 38.6519 118.3 38.7516L118.681 38.5245C119.224 38.458 119.672 38.3029 120.114 38.0426C120.662 37.6992 121.267 37.4001 121.838 37.5496L121.362 37.9152L121.284 37.9983L121.418 37.9207L121.888 37.5552C122.397 37.2616 122.896 36.9791 123.545 36.9791C124.099 36.9791 124.648 37.0234 125.286 36.9016C126.54 36.6579 126.002 36.6191 125.498 36.6136C125.734 36.4474 125.963 36.2148 126.209 36.1372C127.25 35.7938 128.331 35.4172 129.333 35.1735C130.407 34.902 129.271 35.6664 129.668 35.7495C130.279 35.4559 130.335 35.2233 130.469 34.9796C130.598 34.747 130.905 34.4866 131.381 34.3592C133.615 33.7444 135.361 32.4705 137.186 31.3018C138.036 30.759 138.658 30.0666 139.621 29.557C140.281 29.2191 140.634 28.8924 140.886 28.4659C141.165 28.0006 141.462 27.2971 142.33 27.5686C142.453 27.6073 142.755 27.3581 142.856 27.1864C143.292 26.4552 144.378 25.7352 145.078 24.9819C145.755 24.2452 146.018 23.863 146.248 23.7412C146.466 23.6138 146.64 23.7412 146.981 23.9904C147.339 23.5196 147.698 23.01 147.871 22.5115C148.056 22.0186 148.045 21.5478 147.826 21.2487C147.731 21.0825 147.692 20.656 147.882 20.4566C148.157 20.1464 148.067 19.6479 147.865 19.2879C147.793 19.1993 147.731 19.1162 147.664 19.0608C147.586 19.011 147.524 18.9667 147.474 18.9334C147.127 18.7451 146.864 18.4959 146.561 18.2134C146.265 17.9309 145.923 17.6373 145.487 17.4545C144.927 17.2274 145.38 17.1056 145.235 16.9173C144.781 16.3689 144.373 16.3911 144.07 16.5572C144.311 16.7622 144.266 16.8342 143.903 16.7566C143.852 16.7566 143.802 16.7511 143.746 16.74C143.74 16.74 143.679 16.6846 143.684 16.6846C143.729 16.6846 143.779 16.6846 143.824 16.6846C143.819 16.6348 143.802 16.5794 143.779 16.5185C143.13 16.2304 142.475 16.0366 141.826 15.9258C141.776 15.9258 141.703 15.948 141.669 15.9258C141.524 15.8593 141.563 15.8427 141.776 15.876C141.54 15.6156 141.367 15.383 140.718 15.4218C140.091 15.4661 139.341 15.4218 138.731 14.7903L138.837 14.7737L138.686 14.7571C137.018 14.5965 135.092 13.9761 133.368 13.8875C132.59 13.8487 132.26 13.6881 131.549 13.0954C131.269 12.8739 130.911 12.8517 130.76 12.8573C130.049 12.8739 129.355 12.8462 128.644 12.7576C127.933 12.6745 127.222 12.5028 126.484 12.1815C126.366 12.1261 126.058 12.0597 126.03 12.0763C125.342 12.3643 124.468 12.3366 123.539 12.2148C122.61 12.1151 121.625 11.9323 120.735 11.8935C119.963 11.8769 118.821 11.8603 118.63 11.3285C118.541 11.0793 118.188 11.1901 117.942 11.2565C116.979 11.5169 115.804 11.3895 114.589 11.3618C110.598 11.2288 106.613 11.1734 102.583 11.1901C100.803 11.1901 99.0901 11.4725 97.3493 11.1291C97.1646 11.1125 97.3605 10.9519 96.9799 11.0073L97.2989 11.1402C95.1943 11.6442 92.8714 11.4504 90.7332 11.3673C88.4719 11.2731 86.2609 11.3673 84.0556 11.3451C81.6207 11.3175 79.1971 11.5002 76.7398 11.3618C75.5308 11.2898 74.0195 11.2288 72.7433 11.5612C71.8309 11.7993 71.4335 11.5279 70.9521 11.3507C70.7562 11.467 70.5547 11.5889 70.1461 11.611C70.0733 11.611 69.8886 11.5335 69.9054 11.4947C70.0006 11.3396 70.4092 11.3175 70.7562 11.2787C69.2058 11.0516 68.1311 11.6387 66.6981 11.7439C65.5563 11.8326 64.1737 12.1372 63.2502 12.0098C62.0691 11.8381 61.2575 12.5028 60.3004 12.2258L60.4235 12.1649L60.2612 12.2148C59.0969 12.2535 58.0334 12.464 56.9028 12.6523C54.5966 13.0456 52.1282 13.3115 49.7046 13.4167C47.0066 13.533 44.2751 13.5164 41.7507 14.17C41.3533 14.2697 40.8383 14.3915 40.4521 14.4026C36.6459 14.4248 33.0188 15.3941 29.4701 16.2581C27.7013 16.6957 25.9829 17.3382 24.2086 17.7481L24.0463 17.7592L24.1694 17.7758C24.0071 17.9475 23.6992 18.158 23.3746 18.2134C21.0461 18.59 18.8239 19.6258 16.6577 20.3514C13.5624 21.3982 10.6126 22.8494 8.11617 24.4668C7.03028 25.1702 5.97798 25.9844 5.31749 26.8153L5.07681 27.1199L4.91448 27.4135L4.83052 27.5575L4.79134 27.6904C4.76335 27.7735 4.72977 27.8621 4.70178 27.9397C4.6738 28.2388 4.69059 28.4382 4.81933 28.6265C4.83612 28.693 4.94807 28.7927 4.95926 28.8868C4.95926 28.9367 5.00964 28.9976 5.03762 29.053C5.06561 29.1139 5.088 29.1693 5.0992 29.2302C5.11599 29.2967 5.11039 29.3687 5.15517 29.4407L5.28391 29.6567L5.41824 29.8727L5.48541 29.9835L5.59736 30.1109C5.91081 30.4488 6.22426 30.7866 6.59369 31.0747C7.29896 31.695 8.11057 32.2101 8.86062 32.7973C10.3831 33.9438 12.2246 34.7802 14.0102 35.6498C15.3424 36.2978 17.2791 36.3809 18.0683 37.5275C18.141 37.6327 18.4545 37.6216 18.6672 37.6161C20.2009 37.6272 20.1953 37.6272 21.8017 38.4303C21.9417 38.4968 21.9864 38.5688 22.1879 38.5743C24.9418 38.6574 27.8413 39.4218 30.7351 39.9037C33.0356 40.2858 35.4649 40.5185 37.6478 41.0281C42.1537 42.0804 46.9451 42.3131 51.7532 42.5125C52.7775 42.5513 53.7514 42.6066 54.7086 42.795C57.0427 43.2602 59.6287 43.3876 62.2259 43.443C64.7782 43.5039 67.353 43.6756 69.8718 43.5261C71.5455 43.4264 73.2806 43.2935 74.9654 43.1218C76.9917 42.9168 79.1635 43.1218 80.2046 43.6756C80.8651 44.0246 80.1206 44.3625 79.3146 44.5286C76.8518 45.0382 74.3497 45.6143 71.5399 45.5256C69.5864 45.4647 67.6385 45.4758 65.6738 45.4979C62.0299 45.5312 58.3693 45.5533 54.7366 45.4149C51.8036 45.2985 48.9433 45.4149 46.0439 45.3539C42.3048 45.2653 38.5434 45.0438 34.838 44.7613C28.8936 44.296 23.0275 43.0664 17.2511 41.3493C13.8311 40.3135 10.4391 39.0064 7.27097 37.1121C5.69252 36.1649 4.17003 35.0571 2.79868 33.75C2.45724 33.4121 2.1214 33.1185 1.76877 32.6754C1.59525 32.4705 1.42173 32.2655 1.25381 32.0495L0.80602 31.3184C0.649294 31.0857 0.531749 30.8033 0.425399 30.5152C0.324647 30.2272 0.184713 29.9614 0.145531 29.6401C0.0895578 29.3299 0.0335842 29.0142 0 28.704C0 28.3883 0.0111947 28.0671 0.0335842 27.7458C0.0671683 27.3415 0.19031 26.9593 0.279868 26.5716C0.40301 26.2004 0.565333 25.8626 0.722059 25.5136C0.895578 25.1924 1.09708 24.8933 1.28739 24.5831C1.4889 24.2951 1.71279 24.0403 1.92549 23.7689C2.81547 22.7497 3.80621 21.9466 4.80813 21.2099C6.82878 19.7809 8.9166 18.6288 10.9764 17.5155C11.2227 17.3825 11.5026 17.2662 11.7657 17.1499C15.3648 15.6378 18.9918 14.3361 22.6469 13.1564C24.4773 12.5692 26.3132 12.0154 28.1547 11.5002C30.0578 10.974 31.9833 10.5586 33.92 10.2484C38.0788 9.57824 42.2713 9.18498 46.3405 8.71971C46.5253 8.69756 46.7156 8.66986 46.9003 8.66432C49.1504 8.60893 51.3558 8.42615 53.5387 8.18244C54.647 8.06612 55.6825 7.91103 56.8244 7.78364C57.9495 7.64517 59.0745 7.51777 60.2108 7.44023C66.0377 6.99158 71.8701 6.81987 77.6354 6.47092C78.9452 6.39892 80.255 6.47092 81.5479 6.47092C86.2497 6.48754 90.9067 6.3103 95.5357 6.17182C98.9277 6.06105 102.454 5.96688 105.941 6.0112C109.434 6.04443 112.938 6.17182 116.447 6.40446C122.655 6.80326 128.935 7.66732 134.98 9.473C135.613 9.65578 136.257 9.83303 136.917 9.98812C137.572 10.1432 138.232 10.3038 138.865 10.5254C139.895 10.8743 140.93 11.2067 141.949 11.5999L143.477 12.1649L144.966 12.7409C145.996 13.1508 147.082 13.6106 148.218 14.2918C148.783 14.6352 149.377 15.0507 149.964 15.6156C150.256 15.8926 150.547 16.2304 150.821 16.6071C150.95 16.8065 151.09 17.017 151.207 17.233C151.319 17.4601 151.42 17.6872 151.515 17.9143L151.744 18.6399C151.8 18.8947 151.862 19.1494 151.907 19.4098C152.103 20.6172 151.996 21.9964 151.526 23.1596C151.078 24.3394 150.39 25.2699 149.69 26.0398C148.268 27.563 146.768 28.5545 145.386 29.5072C144.378 30.1884 143.382 30.8033 142.442 31.407C141.971 31.7061 141.518 32.0052 141.098 32.2988C140.617 32.62 140.08 33.0077 139.553 33.3235C137.438 34.6583 135.204 35.7218 132.971 36.6357C130.738 37.5552 128.504 38.3251 126.316 39.1005L123.036 40.2582L121.328 40.8453C120.757 41.0391 120.187 41.2053 119.616 41.3881C113.027 43.4264 106.277 44.2074 99.6442 45.2044C96.5097 45.6641 93.2576 45.797 90.0727 45.9909C89.5354 46.0241 88.9924 45.9577 88.4663 45.93C87.5651 45.8801 87.5315 45.6586 88.1416 45.437C88.9476 45.1435 89.6361 44.861 89.3395 44.4732L89.4458 44.4068L89.3059 44.4677C89.2107 44.4788 89.1156 44.4788 89.026 44.4954C87.6155 44.728 88.4775 44.1797 88.0409 44.1243C87.0501 43.9858 87.0837 44.5231 86.3113 44.5674C86.2273 44.5674 86.0986 44.5674 86.0762 44.5508C85.3877 44.0246 84.1451 44.2074 82.8633 44.4068C82.4603 44.4677 82.0573 44.3902 82.1469 44.2406L82.1804 44.2462ZM53.5108 43.083L53.6675 43.1162L53.6899 43.0719L53.5108 43.083ZM37.5527 41.3604H37.7262L37.5639 41.3161L37.5527 41.3604ZM35.1402 41.0945C35.2186 41.1056 35.297 41.0945 35.3753 41.0945L35.2354 41.0281C35.1514 41.017 35.0451 40.9948 34.9891 41.0004C34.8268 41.0225 34.8883 41.0613 35.1402 41.0945ZM32.5375 40.6957L32.6886 40.7456L32.711 40.7068L32.5375 40.6957ZM28.748 39.9258L28.832 40.0034C29.0111 40.0477 29.0727 40.2138 29.3693 40.1474L28.8768 39.9978L28.748 39.9258ZM26.2796 39.5824L26.621 39.7153L27.0912 39.7707C26.9793 39.7264 26.8729 39.671 26.7554 39.6433C26.6043 39.6101 26.4419 39.599 26.2796 39.5824ZM115.317 10.4534H115.143L115.294 10.4922L115.311 10.4534H115.317ZM127.642 11.9655C127.676 11.8935 127.564 11.8381 127.351 11.816C127.29 11.8104 127.245 11.8381 127.194 11.8547C127.183 11.9267 127.284 11.9821 127.491 12.0098C127.553 12.0154 127.631 11.9932 127.642 11.971V11.9655ZM145.649 16.4188L145.531 16.3523L145.543 16.4298H145.649V16.4188ZM149.097 16.5019C149.153 16.5572 149.231 16.5794 149.298 16.6182V16.5019C149.209 16.4409 149.114 16.3523 149.052 16.3191C148.839 16.2304 148.867 16.2803 149.102 16.5019H149.097ZM148.157 18.0527C148.157 18.014 148.173 17.9807 148.157 17.9253C148.084 17.7647 147.989 17.6983 147.933 17.7647C147.921 17.7813 147.977 17.8589 148 17.9087C148.056 17.953 148.112 17.9974 148.157 18.0472V18.0527ZM148.442 19.5316L148.431 19.3932L148.375 19.3821L148.436 19.5316H148.442ZM148.201 24.2452L148.308 24.0957L148.19 24.1954L148.201 24.2452ZM145.85 24.9985C145.946 24.9099 146.024 24.7825 146.058 24.6883C146.108 24.5554 146.018 24.5499 145.884 24.6717C145.789 24.7548 145.738 24.8767 145.671 24.9819C145.638 25.1038 145.71 25.1204 145.85 24.9985ZM133.581 34.4312C133.659 34.4922 133.788 34.4479 133.928 34.3149C134.012 34.2318 134.102 34.1266 134.085 34.0767C134.051 33.9992 133.878 34.0657 133.743 34.1875C133.659 34.2706 133.631 34.3482 133.581 34.4257V34.4312ZM120.92 38.6242C120.92 38.6242 121.004 38.6463 121.054 38.663C121.127 38.6463 121.239 38.6242 121.256 38.6076C121.295 38.5743 121.312 38.5245 121.278 38.5189C121.138 38.4968 120.993 38.5411 120.92 38.6297V38.6242ZM119.028 39.0507L119.145 39.023L119.089 38.9731L119.028 39.0507ZM91.1138 44.0689C91.2538 44.0357 91.4105 44.0024 91.528 43.9637C91.7183 43.8972 91.696 43.8363 91.4833 43.8418C91.3545 43.8418 91.1922 43.9027 91.0691 43.947C90.8843 44.0135 90.9067 44.0578 91.1138 44.0744V44.0689Z" fill="#DD5621"/>
</svg>
