<svg width="1192" height="14" viewBox="0 0 1192 14" fill="none" xmlns="http://www.w3.org/2000/svg">
<path d="M1190.36 10.9436C1191.88 11.0791 1191.1 11.2397 1190.05 11.3508C1189.31 11.4269 1188.42 11.4858 1187.6 11.5535L1186.07 11.8009L1184.56 11.5085C1180.58 11.3739 1180.07 11.3855 1180.57 11.5758C1181.01 11.7431 1182.19 11.9768 1180.53 11.9803C1173.73 11.9938 1169.48 12.6725 1162.64 12.6387L1164.77 12.179L1165.33 12.1243L1164.61 12.1583C1162.64 12.2385 1159.57 12.243 1162.34 12.6558C1162.7 13.0198 1161.18 13.1764 1158.13 13.1596C1157.12 13.2733 1156.16 13.2397 1155.24 13.1079C1148.49 13.0333 1141.56 13.4675 1135.01 12.7345C1134.45 12.6709 1132.87 12.6934 1131.9 12.7224C1125.35 12.9252 1118.77 12.7184 1112.41 12.4367C1102.6 12.001 1092.63 11.9032 1082.68 11.7529C1078.26 11.6877 1075.38 11.5483 1076.88 10.9503C1077.38 10.751 1077.15 10.4918 1074.3 10.5401C1073.1 10.5606 1070.29 10.4062 1071.38 10.8266C1072.33 11.2011 1069.45 11.424 1067.04 11.3402C1061.48 11.1445 1056.05 11.1718 1050.58 11.0855C1044.97 10.9988 1043.98 10.75 1044.77 10.0048C1044.94 9.8443 1044.86 9.6725 1044.9 9.3966C1039.91 9.64 1035.49 9.8565 1031.06 10.0731C1032.53 10.0879 1034.03 10.1195 1035.48 10.1107C1037.18 10.0995 1039.24 9.9198 1040.37 10.1685C1041.12 10.3323 1040.87 10.6059 1040.14 10.7688C1039.07 11.0055 1036.65 11.044 1034.36 10.9331C1031.61 10.7979 1030.55 10.5057 1029.92 10.1968C1025.1 10.558 1020.06 10.6216 1013.7 10.4966C997.882 10.1923 981.977 9.8239 966.109 9.9382C959.93 9.9829 959.285 9.8516 959.174 8.8661L959.625 8.7932L959.036 8.8519C956.454 8.7304 952.644 8.3866 953.922 9.0913C954.891 9.6256 953.052 9.9044 948.97 9.713C941.773 9.374 935.049 9.6121 928.131 9.5555C923.778 9.5199 919.407 9.7595 916.28 9.1182C915.298 8.9147 913.652 9.0151 912.423 9.0886C904.783 9.546 896.905 9.261 889.079 8.9122C886.527 8.7969 884.302 8.6985 881.617 8.8123C874.658 9.1115 866.586 8.897 860.002 8.7214C841.871 8.2372 823.564 8.3797 805.7 7.8372C796.007 7.5383 785.892 8.063 776.651 7.3014C766.797 7.6845 756.509 7.0374 746.392 7.1934C742.31 7.2595 735.974 7.4712 733.447 6.5935C732.271 6.1857 729.132 6.4944 728.327 6.5964C722.65 7.3079 715.222 7.1308 707.892 7.0454C704.962 7.0118 704.174 6.7969 704.069 6.5105C706.284 6.4527 708.516 6.377 707.432 6.0332C707.22 5.965 705.433 5.8913 704.59 5.9106C700.523 6.0076 704.166 6.2996 703.946 6.4995C700.39 6.6786 696.124 6.6201 692.778 6.8814C689.645 7.1274 688.466 6.3266 686.245 6.5933C683.607 6.9114 680.662 6.9025 677.408 6.9078C676.336 6.9046 675.26 6.9015 673.62 6.9009C672.607 6.3746 675.215 5.9354 675.155 5.4532L675.65 5.3827L675.043 5.4384C673.006 5.3496 672.191 4.93 669.733 5.0526C666.113 5.2298 670.188 5.4457 670.323 5.6513C670.688 6.1926 665.158 6.3162 665.406 6.808C659.469 6.7079 662.221 6.1263 659.716 5.8847C659.239 5.9027 658.757 5.9207 658.28 5.9386C658.478 5.8854 658.672 5.8322 658.869 5.7789C658.196 5.7492 656.93 5.6913 656.93 5.6913C652.124 7.2316 640.973 6.5696 631.763 6.6213C630.358 6.0204 636.155 6.0263 636.16 5.6262C636.164 5.5113 635.891 5.3158 635.358 5.2932C633.771 5.2254 634.087 5.4129 633.883 5.515C632.775 6.0658 627.786 5.2412 626.174 5.7722C625.179 6.1013 624.305 6.511 620.492 6.6195C617.564 6.3911 622.611 5.7985 616.895 5.7142C616.612 5.5155 615.912 5.3367 614.547 5.1977C613.161 4.9582 611.684 4.9817 610.157 5.1525C607.416 5.183 605.825 5.3727 605.385 5.7214C607.241 5.5152 608.768 5.3444 610.292 5.1772L614.295 5.2383L616.675 5.7332C616.979 6.0184 616.06 6.3422 613.935 6.3389C608.669 6.3312 604.251 6.7285 599.082 6.6386C590.932 6.5094 582.854 6.5281 574.763 6.5819C572.645 6.5958 571.699 6.555 571.079 6.2631C570.185 5.8383 569.28 5.8105 567.663 6.0459C564.868 6.4511 562.191 6.697 558.152 6.2263C556.957 6.0868 556.471 6.1815 555.666 6.2452C548.312 6.8422 540.047 6.3051 532.263 6.3797C531.489 6.387 530.536 6.2246 529.664 6.1437C528.554 6.037 530.285 5.7433 527.857 5.7678C527.396 5.7714 528.327 6.0492 529.459 6.1624C528.632 6.2405 527.817 6.3845 526.98 6.3828C513.778 6.3733 500.461 6.4881 487.402 6.3082C476.41 6.1574 465.807 6.1124 455.012 6.3328C450.911 6.4131 445.875 6.602 444.636 5.8338L445.069 5.7578L444.447 5.8138C441.439 5.8377 439.199 6.1849 435.296 5.9302C432.098 5.722 427.892 5.9404 424.247 6.1043C421.577 6.2248 418.722 6.3113 415.882 6.3627C409.027 6.4855 409.008 6.472 408.825 5.5126C410.738 5.2842 414.953 5.2778 414.681 4.7135C411.846 4.9769 409.569 5.165 408.524 5.4812C403.668 6.0938 396.269 6.156 390.452 6.2063C386.006 6.2424 381.48 6.3882 376.938 6.4578C372.395 6.5275 367.841 6.5383 363.34 6.2765L344.952 6.4661C339.144 6.7666 333.267 6.4738 327.697 6.428C322.873 6.3893 324.736 5.7064 326.259 5.2608L326.659 5.1925L326.042 5.2345C324.404 5.3348 322.682 5.4126 322.199 5.6603C321.063 6.243 319.959 6.8494 313.172 6.2261C312.711 6.1846 311.531 6.17 311.111 6.2074C301.92 7.0032 291.222 6.2124 281.737 6.7123C281.115 6.744 280.261 6.7462 279.598 6.7301C276.098 6.6367 270.963 6.3199 269.46 6.4762C265.617 6.8741 261.495 6.6349 257.994 6.8267C252.259 7.143 246.869 6.4181 241.047 6.9067C239.815 7.0116 238.886 6.7477 238.693 6.5782C238.444 6.3578 239.135 6.161 240.217 5.9726C241.266 5.792 242.701 5.5537 239.785 5.4955C238.307 5.4669 236.909 5.6104 236.192 5.8808C233.742 6.8103 230.327 7.1045 221.76 7.0614C213.43 7.0233 205.127 7.0089 196.81 7.1584C191.573 7.251 189.049 6.7976 185.073 6.649L184.456 6.6075L184.853 6.6749C185.477 7.0119 184.426 7.2831 181.406 7.3664C179.173 7.4282 178.363 7.2242 178.513 6.9807L178.905 6.8986L178.347 6.9636C174.854 6.8839 178.523 6.2255 174.073 6.2235C173.984 6.149 174.001 6.0721 174.119 5.9963L174.602 5.9226L173.897 5.9805C173.713 6.0091 173.356 6.0452 173.382 6.0689C173.448 6.13 173.692 6.187 173.864 6.2457C173.892 6.3286 174.173 6.4265 173.903 6.4988C170.482 7.4227 169.893 7.4328 163.58 6.5134C164.232 7.3925 159.647 7.7762 154.732 7.5726C145.028 7.173 133.268 8.0243 124.708 7.174C113.905 7.3632 103.554 7.1211 92.9962 7.1377C86.6018 7.1421 80.2255 7.1461 73.8276 7.1505C67.4303 7.1793 61.0115 7.219 54.5322 7.3019C36.2094 7.5422 17.7125 7.6231 0.845703 6.7167C3.30001 5.9645 8.49278 5.6921 14.0149 5.5582C24.726 5.2911 35.3494 4.8485 46.1819 4.8047C47.6446 4.7989 49.299 4.7853 50.615 4.7028C58.7497 4.2132 67.0567 3.9561 75.3955 3.8061C83.7349 3.684 92.1097 3.6723 100.379 3.6284C110.19 3.5767 120.004 3.4764 129.802 3.3485C139.596 3.2068 149.373 3.069 159.11 2.9287C172.206 2.7494 185.318 2.674 198.405 2.5749C211.492 2.4828 224.552 2.3356 237.55 2.1342C256.089 1.8193 274.74 2.0167 293.11 1.4692C296.33 1.3743 299.799 1.3954 303.149 1.4019C327.667 1.4122 352.077 1.1119 376.493 0.839301C379.459 0.812901 382.453 0.813702 385.426 0.821902C408.837 0.902902 432.119 0.618103 455.44 0.468103C468.409 0.403003 481.421 0.462201 494.415 0.424401C503.673 0.399401 512.949 0.374002 522.225 0.348602C531.502 0.344102 540.777 0.339502 550.043 0.335202C560.583 0.346902 571.135 0.358203 581.683 0.366203C592.231 0.370703 602.778 0.364802 613.31 0.324502C625.084 0.269502 637.07 0.484403 648.863 0.439403C659.942 0.407403 671.102 0.606502 682.118 0.457702C685.737 0.405802 689.536 0.429702 693.241 0.469802C712.582 0.675702 731.754 0.541103 751.007 0.588903C766.825 0.649703 782.706 0.809901 798.53 0.832301C819.564 0.849601 840.668 1.2029 861.66 1.3186C892.464 1.4732 923.191 1.9635 953.953 2.3347C970.893 2.5332 988.022 2.4942 1004.73 2.9137C1029.13 3.5217 1053.68 3.58 1078.01 4.3218C1088.54 4.6432 1099.46 4.7922 1110.17 4.9599C1120.94 5.1297 1131.34 5.5586 1142.06 5.7539C1153.1 5.9523 1164.08 6.3364 1175.06 6.6617C1179.05 6.7822 1184.73 6.728 1183.93 7.5432C1185.54 7.6487 1187.46 7.7507 1186.51 8.0091C1186.09 8.1232 1184.87 8.1547 1183.77 8.0897C1181.93 7.9822 1182.69 7.7977 1182.6 7.6434C1175.11 7.2589 1173.51 7.2955 1171.29 8.0286C1169.68 8.5596 1169.85 9.1715 1167.17 9.6574L1166.79 9.7183L1167.38 9.6872C1173.86 10.1994 1183.6 10.2398 1185.4 11.4231C1185.89 11.4431 1186.38 11.4526 1186.88 11.4516C1187.01 11.3303 1187 11.2052 1187.29 11.0941C1187.73 10.9276 1188.9 10.8104 1190.37 10.94L1190.36 10.9436ZM107.284 6.2318L106.578 6.255L107.165 6.2902L107.284 6.2318ZM136.532 6.196L135.883 6.1761L135.866 6.2322L136.532 6.196ZM145.216 6.8313L144.488 6.8584L145.084 6.8934L145.216 6.8313ZM156.142 6.6288C156.089 6.5465 156.095 6.4664 156.165 6.3847L156.724 6.3162L156.034 6.3703C155.85 6.4024 155.5 6.4348 155.519 6.4622C155.568 6.5272 155.797 6.5845 155.954 6.647L156.643 6.7007L156.138 6.6323L156.142 6.6288ZM178.312 3.8474C177.899 3.8152 177.106 3.8404 176.483 3.8408C176.992 3.9334 177.394 4.0425 178.054 4.1177C178.366 4.1523 179.177 4.1337 179.677 4.1396C180.176 3.9716 179.103 3.9127 178.308 3.8475L178.312 3.8474ZM191.07 6.0971L190.516 6.089L190.67 6.1689L191.067 6.0972L191.07 6.0971ZM206.787 5.9236C206.852 5.8804 206.344 5.833 206.093 5.7866C205.751 5.8536 205.335 5.9153 205.076 5.9873C204.728 6.0823 205.051 6.1271 205.869 6.1152C206.197 6.052 206.684 5.9921 206.787 5.9236ZM223.159 5.516C222.9 5.4975 222.664 5.4647 222.378 5.4609C221.426 5.4445 220.978 5.4826 221.268 5.549C221.36 5.5678 221.882 5.5627 222.203 5.5658C222.522 5.5515 222.836 5.5338 223.154 5.5195L223.159 5.516ZM223.451 3.4707C223.197 3.4487 222.968 3.4157 222.682 3.4118C221.73 3.3954 221.281 3.4336 221.577 3.5033C221.667 3.5221 222.189 3.5171 222.511 3.5201L223.451 3.4672V3.4707ZM260.316 5.6949L259.788 5.6827L259.93 5.7664L260.316 5.6949ZM271.517 5.4513L271.392 5.3707L271.031 5.4382L271.517 5.4479V5.4513ZM284.476 5.3308C284.327 5.296 283.136 5.2782 282.821 5.3097C282.366 5.355 282.122 5.4476 282.073 5.5217C282.003 5.6242 282.54 5.6606 283.307 5.6291C284.239 5.5554 285.015 5.4611 284.476 5.3343V5.3308ZM312.059 4.9924C307.332 4.9167 304.624 5.226 301.472 5.281L300.84 5.2295L301.28 5.3028C304.982 5.496 308.367 5.5225 312.059 4.9924ZM336.004 5.1273C336.206 4.9661 335.57 4.8624 334.322 4.905C332.491 4.9645 331.391 5.1289 331.313 5.3534C331.269 5.4761 331.696 5.6229 332.98 5.5829C334.865 5.5222 335.152 5.286 336.004 5.1273ZM363.26 4.9459L362.775 4.9327L362.9 5.0133L363.26 4.9459ZM371.62 5.206C370.468 5.1768 369.881 5.319 370.131 5.4628C370.271 5.5466 370.406 5.627 370.546 5.7107C370.178 5.7853 368.475 5.6888 368.961 5.8724C369.535 5.8244 370.107 5.7765 370.681 5.7285C371.132 5.659 371.727 5.6001 372.004 5.5241C372.418 5.4103 372.812 5.2377 371.62 5.206ZM380.247 4.5832C378.881 4.8233 378.236 5.0504 379.506 5.3482C382.099 5.0833 382.036 4.8517 380.247 4.5832ZM402.658 5.1847L402.064 5.2262L401.697 5.2938L402.279 5.2525L402.658 5.1882V5.1847ZM407.217 4.1719L406.632 4.2341L406.108 4.2948L406.802 4.2545L407.22 4.1718L407.217 4.1719ZM433.921 1.589C434.031 1.6039 434.522 1.5787 434.837 1.5749C434.974 1.5404 435.222 1.5069 435.204 1.4725C435.192 1.4554 434.684 1.4184 434.49 1.4263C433.628 1.4566 433.405 1.5208 433.917 1.5891L433.921 1.589ZM436.54 4.8232C436.256 4.7602 436.032 4.654 435.677 4.6482C434.7 4.6325 433.668 4.6596 432.807 4.669C432.32 4.7985 432.587 4.8654 433.474 4.8659C434.495 4.8667 435.519 4.8397 436.54 4.8232ZM445.953 5.0869L445.785 5.0038L445.461 5.0773L445.953 5.0834V5.0869ZM467.161 4.982L466.492 5.0078L467.142 5.0381L467.161 4.982ZM478.223 1.4785L478.872 1.5123L478.9 1.4525L478.223 1.4785ZM482.992 5.0042C480.83 4.5182 478.516 4.4983 475.909 4.9235L475.305 4.9826L476.043 4.9448C478.389 4.7934 480.499 5.1694 482.992 5.0076V5.0042ZM507.452 5.1481L506.757 5.164L507.387 5.2052L507.452 5.1481ZM537.42 4.6643C537.304 4.6461 536.754 4.631 536.58 4.6454C535.792 4.7087 535.787 4.775 536.552 4.813C536.762 4.8221 537.138 4.7856 537.441 4.7717C537.448 4.7368 537.57 4.6887 537.42 4.6643ZM544.431 4.9693L543.946 4.9666L544.172 5.0449L544.431 4.9728V4.9693ZM563.751 4.9426C561.436 4.9158 560.067 4.8812 558.731 4.8876C556.938 4.8975 554.709 4.9174 555.894 5.2276C556.648 5.426 558.222 5.3967 559.567 5.2858C560.701 5.1902 561.825 5.0982 563.751 4.9391V4.9426ZM577.211 5.1272L576.596 5.1691C576.225 5.2438 574.593 5.1387 574.96 5.3181C575.574 5.2761 576.185 5.2342 576.8 5.1958L577.211 5.1272ZM585.415 5.109C585.096 5.092 584.765 5.0613 584.458 5.0614C583.335 5.0629 583.127 5.1129 583.914 5.1748C584.168 5.1934 584.631 5.1931 584.949 5.1823C585.152 5.1777 585.264 5.1369 585.412 5.1126L585.415 5.109ZM588.67 5.8552C588.348 5.8521 588.023 5.877 587.701 5.8914C587.908 5.9144 588.115 5.941 588.307 5.9644C588.659 5.9668 589.13 5.9872 589.343 5.9684C590.005 5.9115 589.739 5.8619 588.67 5.8586V5.8552ZM620.613 2.9187C620.577 2.7839 619.978 2.6933 618.814 2.6644C618.626 2.6583 618.21 2.7096 618.15 2.7423C617.928 2.8622 618.051 2.9846 619.265 3.0297C619.609 3.0427 620.162 2.957 620.613 2.9187ZM623.103 1.2995C623.241 1.1155 622.51 1.014 621.327 1.0412C620.469 1.0609 619.443 1.161 619.185 1.2539C618.837 1.3767 619.749 1.5088 620.932 1.4851C621.804 1.465 622.497 1.3552 623.103 1.2995ZM635.807 1.9293L635.198 1.8807L635.076 1.9427L635.807 1.9259V1.9293ZM642.619 5.4881C642.517 5.4522 642.415 5.4162 642.313 5.3803C641.994 5.3911 641.574 5.3938 641.376 5.4193C640.708 5.5007 640.934 5.5581 641.933 5.563C642.168 5.5645 642.392 5.5177 642.62 5.4916L642.619 5.4881ZM684.366 4.7997C684.624 4.7068 684.134 4.645 683.447 4.6852C682.994 4.7129 682.729 4.7991 682.618 4.8677C682.451 4.969 682.828 5.0125 683.457 4.991C683.767 4.9282 684.171 4.8668 684.362 4.7998L684.366 4.7997ZM687.728 3.5848L687.432 3.4768C687.121 3.4875 686.715 3.4898 686.513 3.5119C685.845 3.5898 686.06 3.6475 687.049 3.6526C687.28 3.6543 687.5 3.6075 687.725 3.5849L687.728 3.5848ZM693.608 3.4392L692.909 3.4483L693.49 3.4941L693.608 3.4392ZM707.731 3.2224C707.613 3.1277 706.664 3.0834 706.096 3.1486C704.847 3.2921 704.594 3.4754 705.515 3.6873C707.012 3.5798 708.001 3.4353 707.731 3.2224ZM715.825 6.3098L715.21 6.3553L714.73 6.422L715.377 6.3758L715.825 6.3098ZM723.193 5.716C723.232 5.6908 722.902 5.6323 722.749 5.6323C722.449 5.6323 722.152 5.66 721.852 5.6738C721.813 5.706 721.64 5.7587 721.757 5.7699C722.468 5.8371 723.025 5.8173 723.193 5.716ZM724.953 3.5466C724.26 3.4825 723.713 3.5055 723.539 3.6034C723.496 3.6253 723.841 3.6869 723.953 3.6843C724.261 3.6807 724.536 3.657 724.825 3.6399C724.875 3.6075 725.058 3.5546 724.953 3.5466ZM741.1 6.3515C740.247 6.0162 737.797 5.9126 735.451 5.796C734.729 5.7048 734.106 5.5939 733.251 5.5266C732.528 5.4666 731.94 5.5428 732.532 5.6231C733.186 5.7124 734.263 5.7642 735.152 5.8342C737.501 5.9437 736.574 6.5251 741.095 6.3516L741.1 6.3515ZM742.789 4.7089C742.731 4.6755 742.773 4.6328 742.601 4.6054C741.929 4.506 741.419 4.5178 741.324 4.6278C741.303 4.6561 741.616 4.7011 741.866 4.7162C742.116 4.7279 742.478 4.7126 742.789 4.7089ZM743.45 1.7228L742.862 1.7851L738.413 1.7203L737.844 1.6708L738.192 1.7428C739.743 1.9124 741.309 1.9843 742.919 1.7907L743.453 1.7193L743.45 1.7228ZM751.485 5.8136C750.839 5.7519 750.214 5.6514 749.805 5.6608C748.179 5.6913 747.452 5.8332 747.381 6.0192C747.336 6.1385 747.848 6.1894 748.458 6.1336C749.517 6.0362 750.47 5.9239 751.485 5.817V5.8136ZM774.118 5.9125L773.529 5.9504L773.106 6.0122L773.736 5.9769L774.121 5.9124L774.118 5.9125ZM785.288 6.0383L784.739 6.0962C783.886 6.168 782.932 6.2282 782.206 6.311C781.578 6.3845 780.468 6.4831 782.046 6.5895C782.282 6.6049 783.231 6.51 783.581 6.4463C784.14 6.343 784.47 6.2241 784.895 6.1135L785.284 6.0384L785.288 6.0383ZM793.756 6.1811C794.062 6.1045 793.496 6.041 792.685 6.07C792.121 6.09 791.71 6.1551 791.252 6.2004C791.152 6.2931 791.585 6.3458 792.377 6.3206C792.938 6.3008 793.519 6.2422 793.756 6.1811ZM838.839 4.8142C839.127 4.7971 839.606 4.7896 839.677 4.7636C839.939 4.6706 839.544 4.6066 838.681 4.5986C838.387 4.5949 837.918 4.6197 837.846 4.6457C837.584 4.7387 837.98 4.7991 838.839 4.8176V4.8142ZM842.483 5.9201C840.38 6.2294 837.995 6.4303 838.198 6.8397C842.572 6.8481 844 6.5416 842.483 5.9201ZM858.56 7.2343C857.566 7.1354 856.545 7.1554 855.91 7.2569C855.182 7.3746 855.982 7.4849 856.798 7.567C857.713 7.6573 858.687 7.6732 859.441 7.5584C859.799 7.4319 859.428 7.3222 858.56 7.2343ZM889.781 7.8872C889.764 7.7936 889.285 7.7455 888.474 7.7746C887.538 7.81 886.608 7.8557 885.798 7.9161C885.145 7.9659 885.432 8.0358 886.414 8.055C887.888 8.0872 889.053 8.0326 889.781 7.8872ZM915.471 8.1975C915.351 7.9916 914.839 7.9408 914.014 7.9771C913.066 8.0198 911.695 8.0548 911.404 8.1415C910.89 8.2959 912.144 8.3575 913.269 8.3247C914.246 8.2953 915.074 8.2206 915.467 8.1942L915.471 8.1975ZM944.418 8.5618C943.962 8.3983 943.789 8.1588 942.023 8.0602C940.229 7.9624 939.752 8.1507 939.651 8.3131C939.519 8.5283 939.98 8.7265 942.248 8.7787C943.44 8.8069 944.228 8.7401 944.418 8.5618ZM981.651 9.5322L980.901 9.5494L981.514 9.598L981.647 9.5323L981.651 9.5322ZM983.125 8.813C982.499 8.8483 981.877 8.8834 981.251 8.9187L980.855 8.9904L981.433 8.9423C981.881 8.8799 983.503 9.0096 983.125 8.8165V8.813ZM990.523 9.1578L989.854 9.1732L990.503 9.2139L990.523 9.1578ZM995.588 5.0477C996.025 4.982 997.689 5.1141 997.279 4.9149C996.675 4.9531 996.075 4.9912 995.471 5.0295L994.952 5.0936L995.588 5.0477ZM998.547 8.5767C998.231 8.5388 996.747 8.5451 996.703 8.5669C995.952 8.9286 996.493 9.2675 1000.17 9.6179C1000.03 9.2209 1001.15 8.8926 998.547 8.5732V8.5767ZM1026.22 9.0015C1021.78 8.7175 1017.38 8.8466 1010.87 8.7527C1017.42 9.3221 1021.81 9.0438 1026.22 9.0015ZM1036.5 7.1336C1036.09 7.0422 1035.43 7.0226 1034.83 7.0817C1034.63 7.1002 1034.5 7.1588 1034.62 7.1873C1035.03 7.2788 1035.65 7.2924 1036.3 7.2426C1036.38 7.2061 1036.62 7.1622 1036.5 7.1336ZM1057.42 9.5994C1056.72 9.5631 1056.03 9.5303 1055.34 9.494C1050.81 9.1145 1050.51 9.6191 1049.54 9.8536C1048.33 10.1422 1048.35 10.4791 1053.29 10.6893C1052.81 10.2064 1051.71 9.7479 1055.3 9.5021C1055.97 9.5456 1056.23 9.745 1057.42 9.6029V9.5994ZM1064.54 9.8462C1064.42 9.8139 1064.35 9.7601 1064.21 9.7562C1063.93 9.7488 1063.5 9.7552 1063.34 9.7763C1062.77 9.8556 1062.99 9.9131 1063.86 9.9103C1064.11 9.9116 1064.31 9.8652 1064.54 9.8427V9.8462ZM1101.47 8.4439C1101.45 8.4688 1101.76 8.5174 1102 8.5327C1102.24 8.548 1102.59 8.533 1102.89 8.5294C1102.83 8.4961 1102.86 8.4537 1102.69 8.4296C1102.05 8.3297 1101.56 8.334 1101.47 8.4439ZM1089.54 10.2628C1087.27 9.9253 1084.52 9.9747 1080.42 10.1071C1083.77 10.4092 1086.08 10.6381 1089.06 10.4687C1089.47 10.4453 1089.79 10.3022 1089.55 10.2627L1089.54 10.2628ZM1107.08 11.6268L1106.7 11.5485C1106.09 11.3888 1105.62 11.2185 1104.8 11.0705C1103.94 10.9196 1102.53 10.7783 1101.26 10.9467C1100.24 11.0814 1100.78 11.2777 1102.26 11.3794C1103.55 11.4679 1105.09 11.5057 1106.51 11.5667L1107.08 11.6268ZM1111.78 6.617C1111.28 6.5589 1110.84 6.4926 1110.28 6.4462C1109.5 6.3773 1108.74 6.3983 1108.78 6.4912C1108.8 6.5428 1109.56 6.6229 1110.09 6.6488C1110.58 6.6689 1111.22 6.63 1111.79 6.6169L1111.78 6.617ZM1122.14 10.891C1120.43 10.7632 1118.77 10.7492 1117.3 10.8527C1116.65 10.8988 1116.86 11.0192 1117.63 11.0502C1119.5 11.1289 1120.83 11.0115 1122.14 10.891ZM1123.19 9.6006C1120.02 9.649 1118.37 9.7565 1117.83 10.0126C1117.82 10.0198 1118.11 10.0444 1118.47 10.0673C1118.84 10.0902 1119.29 10.1147 1119.58 10.115C1121.76 10.1203 1122.16 9.9094 1123.19 9.6006ZM1132.14 11.6664C1132.03 11.6447 1131.49 11.629 1131.33 11.6434C1130.55 11.696 1130.55 11.7587 1131.3 11.8007C1131.5 11.8133 1131.86 11.7808 1132.16 11.7704C1132.16 11.7355 1132.29 11.6945 1132.14 11.6699V11.6664ZM1156.92 13.017L1156.58 12.9658L1156.27 13.0181L1156.92 13.0205V13.017ZM1163.18 11.4678C1156.44 11.4137 1154.03 11.7302 1153.27 12.2625L1152.89 12.3234L1153.49 12.2924C1155.03 11.8673 1159.16 11.7722 1163.18 11.4678Z" fill="#F9DFD5"/>
</svg>
