<svg width="105" height="104" viewBox="0 0 105 104" fill="none" xmlns="http://www.w3.org/2000/svg">
<g filter="url(#filter0_d_6538_1728)">
<path d="M90.3149 54.8402C90.1523 55.1301 90.0108 55.6675 89.7351 55.5048C89.4593 55.3563 89.127 55.3351 88.83 55.222C88.5542 55.1301 88.2996 55.0028 88.0097 54.8826C87.8188 55.2291 87.9037 55.625 87.6491 55.922C87.437 56.1624 87.2107 56.219 87.1683 56.021C86.9774 55.1513 86.2985 55.3634 85.9591 54.8119C85.8531 54.9886 85.7399 55.1583 85.6339 55.1371C85.6126 55.1301 85.6197 54.9674 85.6409 54.9179C85.747 54.6846 85.8531 54.7199 85.9591 54.7129C86.0298 54.5432 86.249 54.2815 86.0723 54.2462C85.8177 54.1896 85.5631 54.7977 85.3157 55.0311C85.0257 55.321 85.1318 54.8614 85.2308 54.5078L85.2874 54.4088L85.2237 54.4725C85.1035 54.4371 85.0045 54.3664 85.0328 54.0553L85.1035 53.9846L85.0257 54.0341C84.3611 54.0341 83.6893 54.0977 82.9751 54.628C82.6994 54.8331 82.4731 54.8472 82.268 54.7129C82.0347 54.5644 81.9923 54.2533 82.2963 53.7229C82.3741 53.5886 82.5791 53.4401 82.4519 53.2279C82.4024 53.136 82.1478 53.2633 82.1478 53.2774C81.9922 54.1825 81.6175 53.7795 81.3912 54.2462C81.271 54.4937 81.0942 54.6422 81.0164 54.423C80.7972 53.8078 80.3518 53.9421 80.0124 53.7441C79.9134 53.6876 79.8568 53.5461 79.8426 53.3199C79.8851 53.2209 79.977 53.3835 79.9982 53.1219L79.8356 53.2845C79.7224 53.1007 79.581 53.129 79.4113 53.3269C79.185 53.5815 78.9729 53.6946 78.9376 53.0936L79.1568 52.7754L79.1992 52.6905L79.1497 52.74L78.9305 53.0582C78.7396 53.2492 78.5486 53.3976 78.4426 52.9805C78.3507 52.634 78.2799 52.2097 78.1314 52.0047C77.8345 51.6087 77.9052 52.0188 77.983 52.3511C77.8769 52.4713 77.7638 52.7118 77.686 52.6905C77.389 52.5916 77.0779 52.5067 76.8233 52.238C76.5475 51.9481 77.0001 51.4673 76.9647 51.0642C76.7597 51.1278 76.6748 51.4814 76.5687 51.7854C76.4627 52.0754 76.3283 52.2804 76.201 52.1531C75.6283 51.538 74.9353 52.1744 74.3131 52.2309C74.0232 52.2521 73.712 52.6198 73.4433 52.3653C73.2595 52.1814 73.1039 52.337 72.9413 52.7259C72.7574 53.1502 72.5099 53.935 72.4675 52.6764C72.4605 52.4996 72.3402 52.5774 72.2766 52.74C71.9938 53.4189 71.619 53.3977 71.2937 53.6805C70.6503 54.225 70.6503 54.1967 70.7493 52.6976C70.3674 52.8956 69.9573 52.8108 69.6674 53.7371C69.5896 53.9846 69.3916 54.0411 69.3492 53.6876C69.229 52.7754 68.8471 53.2845 68.7128 53.5037C68.3522 54.0765 68.1471 53.3199 67.843 53.4401C67.6521 53.5179 67.8006 52.9592 67.7511 52.7683C67.5956 52.2168 67.4754 52.5067 67.3834 52.9946C67.4612 53.1714 67.4471 53.3269 67.3339 53.4401C67.3127 53.4613 67.3056 53.4966 67.2844 53.5179L67.2632 53.4684C67.2632 53.4684 67.2915 53.4118 67.3127 53.3764L67.2986 53.136C67.0935 53.0724 66.9026 53.1502 66.7046 53.3623C66.6834 53.3977 66.6692 53.4684 66.6551 53.4684C66.6056 53.4471 66.6197 53.3906 66.6834 53.3269C66.6127 53.03 66.5632 52.7259 66.3581 53.1855C66.1672 53.631 65.9339 54.034 65.7571 53.2492L65.7924 53.1572L65.7429 53.2067C65.2338 53.8431 64.6681 53.7017 64.1378 54.2603C63.8974 54.5149 63.8055 54.3664 63.6075 53.6169C63.5297 53.3269 63.4236 53.4189 63.3812 53.4754C62.9499 54.0199 62.5327 54.3664 62.1225 53.6734C62.0943 53.6169 62.0023 53.5815 61.9953 53.6027C61.5569 54.9886 60.9488 54.2674 60.4184 54.4866C60.1921 54.5856 59.8527 54.7411 59.8315 53.8148C59.8245 53.3835 59.7113 53.6522 59.6335 53.8007C59.3295 54.3735 58.9901 54.331 58.6436 54.3805C57.4839 54.522 56.3384 54.5078 55.1929 54.423C54.6838 54.3805 54.1676 54.7836 53.7151 54.0906C53.6726 54.0482 53.7363 53.7724 53.6231 53.8573L53.7009 54.1189C53.0574 54.9179 52.4281 54.4866 51.8341 54.2603C51.2048 54.027 50.5684 54.1401 49.9532 54.0341C49.2673 53.9138 48.5602 54.1684 47.8814 53.8007C47.5491 53.6239 47.1248 53.4259 46.7288 53.9351C46.446 54.3027 46.3611 53.7795 46.248 53.4259C46.1773 53.6239 46.1066 53.8219 45.9934 53.8361C45.9722 53.8431 45.9298 53.6734 45.9369 53.6098C45.9864 53.334 46.0995 53.334 46.1985 53.2774C45.7884 52.7542 45.4207 53.7017 45.0106 53.7441C44.6782 53.7795 44.254 54.1755 44.0135 53.8078C43.7024 53.3411 43.4054 54.4159 43.165 53.7512L43.2074 53.6664L43.1509 53.7229C42.8256 53.6239 42.5074 53.7866 42.1751 53.9068C41.5033 54.1543 40.8104 54.2391 40.1315 54.0977C39.3749 53.9351 38.6183 53.5603 37.8405 54.2957C37.7203 54.4159 37.5577 54.5361 37.4516 54.4725C36.3909 53.7936 35.2454 54.43 34.1636 54.1967C33.6474 54.0906 33.1029 54.3098 32.5938 54.0553L32.5513 53.9846L32.5726 54.0765C32.5018 54.2886 32.3816 54.4795 32.2968 54.3947C31.6533 53.7512 30.925 54.1684 30.2674 53.9351C29.3269 53.6027 28.3582 53.7512 27.4177 53.6734C26.5834 53.6027 25.7065 53.3906 24.8368 53.8785C24.6812 53.9633 24.4903 53.9987 24.3701 53.8502C23.8115 53.1643 23.168 53.6946 22.567 53.5037C21.973 53.3199 21.3508 53.4754 20.7497 53.3128C20.3113 53.1855 19.6891 54.232 19.4487 52.6764C19.4274 52.5279 19.3284 52.74 19.2648 52.8461C18.784 53.6239 18.784 53.6239 18.2961 52.9522C18.2536 52.8956 18.2466 52.7895 18.1829 52.8673C17.3344 53.928 16.4717 53.5461 15.6161 53.4401C14.9373 53.3552 14.2302 53.4401 13.615 52.8815C12.3564 51.7218 10.9846 51.637 9.62695 51.4248C9.33704 51.3753 9.06126 51.3117 8.8067 50.9864C8.18445 50.1803 7.46319 49.9399 6.7278 49.7561C6.01362 49.5793 5.29946 49.1338 4.58528 49.2116C4.10444 49.2681 3.60947 49.353 3.11449 49.4944C2.52759 49.6571 1.94776 48.9924 1.72856 47.8681C1.59421 47.1539 1.83463 46.6448 2.07504 46.4468C2.81751 45.8458 3.56704 45.0821 4.34486 45.4781C4.88226 45.7468 5.42673 45.8528 5.97828 45.9235C7.00358 46.0437 8.03595 46.0579 9.05418 46.27C9.87443 46.4397 10.7017 46.1215 11.522 46.0508C12.5827 45.966 13.6433 45.9094 14.704 45.6973C16.394 45.3649 18.0415 45.8104 19.7244 45.6831C21.7114 45.5346 23.7054 45.2801 25.6995 45.3791C26.9793 45.4427 28.2875 45.7185 29.5956 45.2164C29.6734 45.1811 29.7512 45.2023 29.8361 45.2164C31.9644 45.5629 34.1353 45.174 36.2707 45.4568C37.4162 45.6124 38.5971 45.5205 39.7709 45.2376C39.8275 45.2235 39.877 45.2023 39.9335 45.2164C41.1851 45.6195 42.4721 45.0679 43.7378 45.174C45.3641 45.3154 47.0046 45.4144 48.6451 45.0467C49.0199 44.9689 49.3805 45.1457 49.7411 45.1952C51.0563 45.3791 52.3998 45.1528 53.7221 45.1033C55.6808 45.0396 57.6183 45.2801 59.577 45.2871C61.3094 45.2942 63.0347 45.3084 64.7388 45.8811C65.0924 45.9942 65.4884 45.7963 65.849 45.8599C67.1359 46.1003 68.4582 46.065 69.7664 46.3266C70.6927 46.5175 71.6473 46.7933 72.5948 46.765C75.3596 46.7014 78.0042 47.8044 80.8185 47.96C82.862 48.0802 84.7358 48.9641 86.843 49.0914C87.84 49.1692 88.731 49.7207 89.6361 50.145C89.7916 50.2157 89.8836 50.449 89.9967 50.6187C90.1876 50.9086 90.0462 51.2763 89.7492 51.5167C89.3603 51.8349 89.028 52.139 88.837 52.8673L88.7734 52.9592L88.8441 52.8885C88.8441 52.8885 88.8936 52.9098 88.9219 52.9098C89.4027 52.839 88.8441 53.5674 88.9078 53.7583C89.0421 54.2038 89.3957 53.2987 89.5937 53.3977C89.6078 53.4118 89.6432 53.4472 89.6432 53.4754C89.4381 54.5149 89.8341 54.4725 90.2654 54.4371C90.3997 54.43 90.428 54.6422 90.3008 54.8684L90.3149 54.8402ZM9.19561 50.3995L9.14611 50.35L9.13904 50.4278L9.19561 50.3995ZM13.6857 52.2309L13.6433 52.2734L13.6787 52.3087L13.6857 52.2309ZM14.3787 52.2734C14.3787 52.2734 14.3363 52.3016 14.308 52.3158L14.3434 52.4077C14.3434 52.4077 14.3999 52.436 14.4141 52.4077C14.4636 52.3441 14.4494 52.2734 14.3716 52.2663L14.3787 52.2734ZM15.1353 52.436L15.0858 52.3865L15.0858 52.4572L15.1353 52.436ZM16.2384 52.8178L16.2172 52.6976C16.1606 52.6693 16.1606 52.3865 16.0616 52.5986L16.196 52.733L16.2384 52.8178ZM16.9738 52.634L16.8677 52.5279L16.7334 52.5774C16.7687 52.6128 16.797 52.6835 16.8394 52.6835C16.8889 52.6905 16.9314 52.6481 16.9809 52.6269L16.9738 52.634ZM58.9123 52.6552L58.8628 52.6764L58.9123 52.7259L58.9123 52.6552ZM62.462 52.9097C62.4761 52.7825 62.4408 52.7047 62.3842 52.733C62.37 52.7471 62.3488 52.8108 62.3347 52.8532C62.3276 52.9875 62.3559 53.0582 62.4195 53.037C62.4337 53.0229 62.462 52.9663 62.469 52.9168L62.462 52.9097ZM67.8572 51.6582L67.8289 51.6299L67.8218 51.7501L67.8572 51.6582ZM68.8613 48.4196C68.8613 48.4196 68.8966 48.356 68.9178 48.3206L68.9108 48.1721C68.9108 48.1721 68.8542 48.2004 68.8471 48.2358C68.7906 48.3489 68.7976 48.4125 68.8683 48.4125L68.8613 48.4196ZM68.7481 51.5733C68.7481 51.5733 68.7411 51.4672 68.734 51.4319C68.6916 51.3188 68.6562 51.3541 68.6491 51.5026C68.6421 51.538 68.6774 51.5733 68.6845 51.6087L68.7481 51.5733ZM69.1583 52.3936L69.1229 52.3299L69.1088 52.4148L69.1583 52.3936ZM70.728 50.7531L70.6715 50.7672L70.7068 50.8309L70.721 50.7601L70.728 50.7531ZM71.1947 52.7895C71.1947 52.7895 71.1028 52.8815 71.0745 52.9663C71.025 53.0724 71.0392 53.1997 71.0887 53.1926C71.124 53.1855 71.1735 53.0795 71.2089 53.0158C71.2513 52.8885 71.2513 52.7754 71.1877 52.7825L71.1947 52.7895ZM75.8687 50.4066C75.8829 50.251 75.8404 50.2086 75.7839 50.3217C75.7414 50.3924 75.6919 50.4844 75.6849 50.5763C75.6636 50.7248 75.7131 50.7601 75.7768 50.6682C75.8192 50.5975 75.8475 50.4985 75.8828 50.4066L75.8687 50.4066ZM79.4962 51.8844C79.4962 51.8844 79.4891 51.7925 79.482 51.743C79.4679 51.7289 79.4325 51.6935 79.4255 51.7147C79.3972 51.743 79.383 51.8137 79.3901 51.8491C79.4042 51.9764 79.4467 51.9905 79.4962 51.8844ZM79.9911 52.2239L79.9699 52.2026L79.9558 52.3158L79.9911 52.2239ZM88.1936 53.1431C88.137 53.1714 88.0875 53.1785 88.038 53.228C87.9602 53.2916 87.9178 53.4047 87.9744 53.4472C88.0027 53.4754 88.0804 53.4118 88.1299 53.3764C88.2077 53.3128 88.236 53.2279 88.2007 53.1502L88.1936 53.1431Z" fill="#091818"/>
<path d="M90.5195 55.2714C90.4275 55.2785 90.3427 55.3775 90.2932 55.5401C90.272 55.6038 90.3003 55.7028 90.3427 55.7169C90.4275 55.7452 90.5265 55.6179 90.5619 55.4553C90.5831 55.3916 90.5336 55.328 90.5195 55.2714Z" fill="#091818"/>
<path d="M84.7291 54.9252L84.7644 54.9888C84.7644 54.9888 84.8068 54.904 84.8068 54.8898C84.8068 54.8615 84.7856 54.8403 84.7715 54.8262L84.722 54.9322L84.7291 54.9252Z" fill="#091818"/>
<path d="M55.3199 65.5814C55.334 65.242 55.2138 64.7116 55.5249 64.7258C55.8361 64.7399 56.1331 64.6126 56.4371 64.5773C56.72 64.549 57.0099 64.5561 57.3069 64.5419C57.3422 64.153 57.0876 63.8136 57.2008 63.4459C57.2927 63.1418 57.4766 62.9863 57.5968 63.1489C58.1271 63.849 58.6574 63.4035 59.1807 63.7853C59.209 63.5873 59.2443 63.3823 59.3504 63.361C59.3716 63.354 59.4282 63.5095 59.4282 63.5661C59.414 63.8207 59.308 63.8277 59.216 63.8772C59.216 64.0611 59.117 64.3864 59.2938 64.351C59.5413 64.3015 59.5555 63.651 59.6827 63.3398C59.8454 62.9651 59.9232 63.4247 59.9514 63.7924L59.9373 63.9055L59.9656 63.8207C60.0929 63.8065 60.2131 63.8419 60.2979 64.1389L60.2696 64.2379L60.305 64.1601C60.9131 63.9197 61.5 63.6156 61.9808 62.8802C62.1717 62.5903 62.3839 62.5054 62.6102 62.562C62.8718 62.6257 63.0132 62.8944 62.9071 63.4954C62.8789 63.651 62.7445 63.856 62.9213 64.0187C62.9991 64.0964 63.19 63.8914 63.19 63.8631C63.0415 62.9509 63.5223 63.2196 63.586 62.7034C63.6142 62.4347 63.7415 62.2368 63.8759 62.4135C64.2789 62.9297 64.6466 62.661 65.0285 62.7459C65.1416 62.7742 65.2335 62.8944 65.3113 63.0994C65.3042 63.2055 65.1628 63.0782 65.2335 63.3328L65.3325 63.1206C65.5022 63.2621 65.6224 63.1984 65.7356 62.958C65.8699 62.6539 66.0396 62.4701 66.2518 63.0358L66.1386 63.4035L66.1245 63.5025L66.1598 63.4388L66.2659 63.0641C66.3932 62.8236 66.5275 62.6327 66.7467 62.9934C66.9306 63.3045 67.1215 63.6934 67.3195 63.849C67.7084 64.1389 67.5245 63.7712 67.3548 63.4742C67.4114 63.3328 67.4609 63.057 67.5387 63.0641C67.8427 63.0711 68.1609 63.0641 68.4721 63.2479C68.8044 63.453 68.5145 64.0399 68.663 64.4146C68.8327 64.3015 68.8256 63.9409 68.8398 63.6156C68.861 63.3116 68.9317 63.0711 69.0802 63.1631C69.7802 63.5944 70.2611 62.8024 70.8409 62.5903C71.1096 62.4913 71.3076 62.0529 71.6328 62.2367C71.8591 62.364 71.9581 62.1802 72.0147 61.7701C72.0783 61.3104 72.1207 60.4902 72.4743 61.6923C72.5309 61.862 72.6228 61.7559 72.6369 61.5862C72.7359 60.865 73.0965 60.7872 73.337 60.4336C73.8107 59.7477 73.8249 59.776 74.0936 61.2609C74.4047 60.9781 74.8148 60.964 74.8643 59.9952C74.8785 59.7265 75.0482 59.6417 75.1754 59.9669C75.5078 60.8225 75.7553 60.2356 75.826 59.9952C76.031 59.3518 76.4058 60.0376 76.6674 59.8467C76.8301 59.7265 76.823 60.2993 76.9149 60.4761C77.1907 60.9781 77.2402 60.6599 77.219 60.172C77.1058 60.0164 77.0846 59.8679 77.1624 59.7195C77.1695 59.6841 77.1836 59.6558 77.1907 59.6346L77.2331 59.677C77.2331 59.677 77.2119 59.7548 77.2048 59.7902L77.2755 60.0306C77.4806 60.0376 77.6503 59.9245 77.7847 59.6629C77.7917 59.6275 77.7988 59.5497 77.8059 59.5568C77.8554 59.5639 77.8624 59.6275 77.813 59.7053C77.9473 59.9811 78.0675 60.2568 78.1524 59.7619C78.2301 59.2881 78.3504 58.8426 78.7039 59.5639L78.6968 59.6558L78.7322 59.5922C79.0575 58.8568 79.6231 58.8568 79.9838 58.185C80.1393 57.888 80.2666 58.0012 80.6343 58.68C80.7828 58.9416 80.8535 58.8285 80.8818 58.7578C81.1434 58.1285 81.4475 57.683 82.0061 58.2557C82.0485 58.2982 82.1404 58.3194 82.1404 58.2911C82.197 56.8345 82.9395 57.3789 83.3637 57.0395C83.5547 56.891 83.8234 56.6506 84.0779 57.5416C84.1981 57.9588 84.2335 57.6688 84.2688 57.5062C84.3961 56.8698 84.7143 56.8203 85.0325 56.686C86.0649 56.2476 87.1114 55.9506 88.1862 55.7102C88.3064 55.6889 88.4196 55.6324 88.5256 55.5829C88.6388 55.5263 88.759 55.4627 88.7731 55.4485C88.858 55.4061 88.964 55.4415 89.1832 55.7314C89.2186 55.7667 89.2964 56.0283 89.3105 55.9294L89.1762 55.696C89.0913 54.8616 89.4519 55.1798 89.7843 55.2859C90.0742 55.4202 90.1237 55.2435 90.3429 55.2647C90.6187 55.2717 90.4348 55.0313 91.0005 55.1586C91.2833 55.2293 91.6793 55.2293 90.9651 54.8546C90.4348 54.6071 91.2268 54.8616 91.7712 54.9818C91.4743 54.8687 91.1773 54.7697 91.1561 54.7343C91.1561 54.7343 91.4035 54.7838 91.5025 54.8121C91.9268 54.9394 91.9268 54.9818 91.9975 55.0384C92.8319 55.095 91.3399 54.5788 91.2056 54.4869C91.1278 54.4091 90.7177 54.3101 90.7389 54.2747C90.7459 54.2677 90.7884 54.2535 90.9086 54.2464C91.4813 54.1969 89.9328 54.1192 90.7813 54.0909L90.9156 54.0979L90.8096 54.0909C90.8732 54.0272 90.5762 53.9707 90.3641 53.9424C89.9186 53.8787 89.7489 53.8787 89.7843 53.7585C89.8338 53.6383 89.9752 53.2989 89.2822 53.709C89.1337 53.7303 88.9287 53.7232 88.9004 53.61C88.6175 52.4645 87.4155 52.2524 86.7932 51.4604C86.4962 51.0786 85.98 50.9301 85.775 50.4422L85.782 50.3644L85.7396 50.4493C85.5558 50.5766 85.3578 50.6614 85.3436 50.5341C85.28 49.6785 84.4951 49.5866 84.1628 49.0421C83.6607 48.2714 82.8476 47.8683 82.1829 47.3168C81.5889 46.836 81.0444 46.2066 80.1111 46.1784C79.9484 46.1713 79.7787 46.1006 79.7646 45.9309C79.708 45.0823 78.909 45.2167 78.5483 44.7712C78.1806 44.3328 77.6008 44.1914 77.219 43.7671C76.9361 43.456 75.932 44.0782 76.4977 42.6216C76.5472 42.4873 76.3705 42.6216 76.2644 42.6852C75.5007 43.1519 75.5007 43.1519 75.4371 42.3529C75.43 42.2893 75.4724 42.1903 75.3805 42.2256C74.1926 42.7772 73.6764 42.0913 73.0258 41.6529C72.5167 41.2993 71.8945 41.0872 71.6258 40.3518C71.0813 38.8174 69.9287 38.2305 68.8468 37.5446C68.6206 37.389 68.4014 37.2547 68.3094 36.8516C68.069 35.8899 67.5175 35.4233 66.9376 34.999C66.3578 34.603 65.877 33.9666 65.1982 33.8111C64.7527 33.705 64.2648 33.6555 63.784 33.6414C63.2041 33.6272 62.8789 32.8352 63.0061 31.6897C63.0839 30.9614 63.4587 30.5442 63.7486 30.4382C64.6113 30.0846 65.58 29.5967 66.1952 30.1977C66.6124 30.6291 67.0861 30.919 67.5811 31.1594C68.5074 31.5907 69.4479 32.0079 70.3176 32.5666C71.0177 33.012 71.8803 33.0686 72.6652 33.3161C73.6764 33.6343 74.6522 34.0727 75.7058 34.3202C77.3816 34.7657 78.6473 35.9324 80.1747 36.6395C81.992 37.4809 83.8587 38.3295 85.4921 39.5103C86.5316 40.2952 87.472 41.2498 88.8367 41.6387C88.9145 41.6599 88.9782 41.7236 89.0347 41.7802C90.5833 43.3287 92.5491 44.4177 94.034 46.044C94.4229 46.4895 94.8542 46.8925 95.3351 47.2602C95.526 47.4087 95.9149 47.6986 96.2967 48.038C96.6786 48.3633 97.0745 48.6744 97.4847 48.9997C97.5554 49.0563 97.6473 49.1199 97.6968 49.1836C98.0008 49.629 98.3403 50.0392 98.715 50.4281C98.9059 50.619 99.1039 50.817 99.3019 51.015L99.7403 51.6089C100.327 52.3938 100.971 53.207 101.437 54.0555C101.741 54.501 101.713 54.8546 101.812 55.2647C101.925 56.0284 101.904 57.0254 101.614 57.9658C101.331 58.8992 100.928 59.6699 100.497 60.4124C100.249 60.8437 99.705 61.0912 99.2454 61.367C99.0615 61.5084 98.7575 61.5862 98.517 61.6993L97.7534 62.0246C97.2513 62.2438 96.7563 62.4842 96.2684 62.7317C95.7664 62.9509 95.2997 63.2903 94.7764 63.4318L93.1996 63.9479L92.0046 64.3086L90.8661 64.6268L89.4519 64.9803C88.5044 65.2066 87.5498 65.4117 86.6094 65.6733C84.9477 66.1329 83.2577 66.5642 81.4828 66.444C81.1151 66.4157 80.7828 66.7198 80.4222 66.741C79.1282 66.8188 77.8907 67.1794 76.5897 67.2218C75.6704 67.2643 74.7158 67.2148 73.8461 67.4764C71.3005 68.2118 68.6064 67.837 66.0608 68.5017C64.2294 68.9896 62.3273 68.7563 60.503 69.4068C59.6474 69.7109 58.714 69.527 57.816 69.52C57.6604 69.52 57.4978 69.3432 57.3422 69.23C57.0735 69.0462 57.0382 68.6431 57.1866 68.3108C57.3846 67.8724 57.5473 67.4411 57.4129 66.7127L57.4341 66.6067L57.3988 66.6986C57.3988 66.6986 57.3422 66.6986 57.321 66.7198C56.9462 66.9814 57.123 66.0976 56.9957 65.942C56.6987 65.5884 56.7695 66.5501 56.5573 66.5501C56.529 66.5501 56.4937 66.5289 56.4866 66.4935C56.225 65.4682 55.8926 65.6874 55.5532 65.9137C55.4401 65.9844 55.3199 65.8076 55.327 65.546L55.3199 65.5814ZM68.8468 36.5122L68.8327 36.4415L68.7903 36.5122L68.8398 36.5051L68.8468 36.5122ZM71.944 39.8639L71.8874 39.878L71.9015 39.9346L71.944 39.8639ZM72.5096 40.175C72.5096 40.175 72.4602 40.1821 72.4319 40.1821L72.4177 40.2811C72.4177 40.2811 72.4602 40.3235 72.4743 40.3094C72.545 40.2669 72.5662 40.2033 72.5026 40.1679L72.5096 40.175ZM73.0683 40.6205L73.0612 40.5569L73.0258 40.6205H73.0824L73.0683 40.6205ZM73.7966 41.4195L73.8319 41.3135C73.8037 41.271 73.9239 41.0094 73.7471 41.1579L73.8037 41.3276L73.7895 41.4266L73.7966 41.4195ZM74.4896 41.5609L74.4613 41.4195L74.3198 41.4195C74.3198 41.4195 74.3269 41.5397 74.3481 41.5609C74.3764 41.5892 74.4401 41.568 74.4896 41.5751V41.5609ZM85.2376 58.4042L85.2729 58.3689L85.2305 58.3264L85.2446 58.3972L85.2376 58.4042ZM81.8647 59.076C81.8859 59.2103 81.9354 59.274 81.9849 59.2245C81.999 59.2103 81.999 59.1396 81.999 59.0972C81.9707 58.9699 81.9283 58.8992 81.8717 58.9416C81.8576 58.9558 81.8505 59.0194 81.8576 59.0689L81.8647 59.076ZM77.0988 61.5933L77.1412 61.6074L77.1129 61.4943L77.0988 61.5933ZM76.9432 64.9732C76.9432 64.9732 76.9291 65.044 76.9149 65.0864L76.9574 65.2278C76.9574 65.2278 76.9998 65.1854 77.0068 65.15C77.0351 65.0369 77.0139 64.9591 76.9361 64.9803L76.9432 64.9732ZM76.2785 61.8903C76.2785 61.8903 76.3068 61.9893 76.328 62.0246C76.3917 62.1165 76.4199 62.0883 76.3917 61.9327C76.3846 61.8973 76.3563 61.8691 76.328 61.8408L76.2785 61.8903ZM75.6987 61.1832L75.7482 61.2327V61.1478L75.7058 61.1902L75.6987 61.1832ZM74.6027 63.156L74.638 63.1206L74.5956 63.0782L74.6027 63.156ZM73.6693 61.2892C73.6693 61.2892 73.7329 61.169 73.7471 61.0842C73.7683 60.964 73.7259 60.8508 73.6764 60.872C73.634 60.8862 73.6269 61.0064 73.6057 61.07C73.5986 61.2044 73.6339 61.3104 73.6834 61.2892H73.6693ZM69.8792 64.7823C69.9146 64.9308 69.957 64.9591 69.9853 64.8318C70.0065 64.754 70.0277 64.648 70.0136 64.5631C69.9924 64.4146 69.9358 64.3864 69.9075 64.4995C69.8863 64.5773 69.8934 64.6833 69.8792 64.7823ZM66.1033 64.3581C66.1033 64.3581 66.1315 64.4429 66.1528 64.4924C66.174 64.4995 66.2093 64.5207 66.2093 64.5066C66.2164 64.4712 66.2235 64.3934 66.2093 64.3651C66.1598 64.2449 66.1174 64.2449 66.1033 64.3581ZM65.5447 64.1813L65.58 64.1884L65.5588 64.0823L65.5447 64.1813ZM57.8584 66.1965C57.9008 66.1541 57.9362 66.1188 57.9645 66.0481C58.014 65.9561 57.9998 65.843 57.9362 65.8218C57.9008 65.8147 57.8584 65.8996 57.8301 65.9561C57.7806 66.0481 57.7948 66.1329 57.8584 66.1824L57.8584 66.1965Z" fill="#091818"/>
<path d="M54.9522 65.2841C55.03 65.2346 55.0583 65.1074 55.03 64.9377C55.0159 64.8669 54.9451 64.7962 54.9098 64.8033C54.8249 64.8175 54.7966 64.973 54.832 65.1356C54.8461 65.2064 54.9169 65.2346 54.9522 65.2841Z" fill="#091818"/>
<path d="M60.277 63.2121L60.2275 63.1626C60.2275 63.1626 60.2063 63.2687 60.2134 63.2757C60.2346 63.297 60.2487 63.3111 60.2629 63.3252L60.27 63.2192L60.277 63.2121Z" fill="#091818"/>
</g>
<defs>
<filter id="filter0_d_6538_1728" x="1.68945" y="29.9141" width="102.187" height="44.6675" filterUnits="userSpaceOnUse" color-interpolation-filters="sRGB">
<feFlood flood-opacity="0" result="BackgroundImageFix"/>
<feColorMatrix in="SourceAlpha" type="matrix" values="0 0 0 0 0 0 0 0 0 0 0 0 0 0 0 0 0 0 127 0" result="hardAlpha"/>
<feOffset dx="2" dy="5"/>
<feComposite in2="hardAlpha" operator="out"/>
<feColorMatrix type="matrix" values="0 0 0 0 0.866667 0 0 0 0 0.941176 0 0 0 0 0.858824 0 0 0 1 0"/>
<feBlend mode="normal" in2="BackgroundImageFix" result="effect1_dropShadow_6538_1728"/>
<feBlend mode="normal" in="SourceGraphic" in2="effect1_dropShadow_6538_1728" result="shape"/>
</filter>
</defs>
</svg>
