<svg width="131" height="25" viewBox="0 0 131 25" fill="none" xmlns="http://www.w3.org/2000/svg">
<g clip-path="url(#clip0_6237_3201)">
<path d="M129.057 17.9072C128.926 18.6819 128.905 19.9572 128.466 19.8239C128.032 19.6942 127.56 19.893 127.112 19.8765C126.7 19.8581 126.298 19.7437 125.863 19.6639C125.677 20.5533 125.908 21.4056 125.618 22.216C125.375 22.8989 125.062 23.1681 124.948 22.7612C124.448 20.9698 123.533 21.8062 122.928 20.7452C122.811 21.1976 122.688 21.6493 122.525 21.6698C122.497 21.6727 122.464 21.2982 122.488 21.1771C122.603 20.592 122.758 20.6207 122.902 20.5393C122.975 20.1233 123.237 19.407 122.965 19.4215C122.59 19.4426 122.34 20.9461 122.028 21.6215C121.652 22.4342 121.723 21.3322 121.819 20.4742L121.886 20.2283L121.809 20.4113C121.625 20.3912 121.469 20.2683 121.459 19.5518L121.533 19.3361L121.449 19.5007C120.503 19.8274 119.546 20.3118 118.569 21.8126C118.185 22.4008 117.856 22.518 117.544 22.2985C117.192 22.0512 117.102 21.3672 117.496 20.0236C117.594 19.684 117.872 19.2491 117.68 18.819C117.593 18.627 117.248 19.0163 117.243 19.0687C117.086 21.2212 116.514 20.4023 116.219 21.5595C116.064 22.1667 115.815 22.5751 115.687 22.0961C115.326 20.735 114.691 21.2281 114.188 20.8493C114.041 20.7392 113.959 20.4241 113.931 19.9235C113.993 19.6859 114.131 20.0336 114.144 19.4228C114.071 19.5708 113.998 19.7218 113.925 19.8698C113.747 19.4648 113.546 19.5607 113.29 20.0715C112.968 20.7135 112.657 21.0505 112.605 19.6671C112.71 19.3989 112.816 19.1278 112.921 18.8596L112.984 18.6457L112.909 18.773C112.804 19.0441 112.698 19.3152 112.595 19.5865C112.306 20.0791 112.041 20.4622 111.891 19.5245C111.766 18.7308 111.665 17.763 111.45 17.3275C111.032 16.4782 111.131 17.4104 111.241 18.1642C111.096 18.4664 110.915 19.0561 110.814 19.0185C110.388 18.8543 109.938 18.7347 109.587 18.1548C109.21 17.5278 109.875 16.3315 109.835 15.394C109.545 15.5743 109.403 16.4125 109.237 17.1451C109.081 17.8376 108.871 18.3475 108.703 18.0643C107.917 16.7481 106.898 18.3267 105.989 18.5397C105.571 18.6354 105.097 19.5346 104.726 18.9584C104.473 18.5629 104.244 18.9235 103.971 19.8417C103.668 20.8537 103.222 22.6951 103.291 19.7764C103.3 19.3652 103.122 19.5579 103.01 19.9283C102.532 21.5218 101.994 21.5162 101.488 22.1881C100.492 23.5044 100.492 23.4279 100.82 19.9163C100.251 20.3929 99.671 20.2238 99.1365 22.394C98.9894 22.9873 98.7041 23.1034 98.6837 22.2828C98.6346 20.155 98.0149 21.3621 97.788 21.8732C97.1841 23.2263 96.9959 21.463 96.5463 21.7496C96.26 21.9333 96.554 20.6318 96.5076 20.1851C96.372 18.8898 96.1499 19.5898 95.9403 20.7179C96.0215 21.136 95.981 21.4878 95.7969 21.7621C95.7687 21.8267 95.7423 21.8945 95.7154 21.9475C95.7127 21.9531 95.6922 21.8302 95.6953 21.8217C95.7185 21.7447 95.747 21.6772 95.7734 21.6094C95.7818 21.416 95.7881 21.2224 95.7896 21.0342C95.5096 20.8888 95.2156 21.0658 94.9025 21.5733C94.8745 21.6557 94.8331 21.8219 94.8194 21.8116C94.7598 21.758 94.7851 21.6224 94.8879 21.4746C94.8335 20.771 94.8075 20.0793 94.4502 21.1472C94.1075 22.1785 93.7092 23.1183 93.5818 21.2822L93.6425 21.0739L93.5677 21.1982C92.7409 22.6772 91.9426 22.3429 91.1077 23.6443C90.7311 24.2303 90.6186 23.8854 90.4629 22.1345C90.4033 21.4598 90.2348 21.6681 90.1614 21.7984C89.4617 23.0616 88.8101 23.8826 88.3417 22.2477C88.3031 22.1169 88.1867 22.0218 88.1689 22.0876C87.3118 25.3177 86.5742 23.6329 85.793 24.1307C85.4549 24.3441 84.9491 24.7187 85.0788 22.5603C85.1401 21.5514 84.9356 22.1679 84.8008 22.5123C84.2767 23.8506 83.8032 23.7548 83.2957 23.8555C81.629 24.1802 80.0061 24.1417 78.3893 23.9301C77.6767 23.8377 76.8722 24.7627 76.3542 23.1372C76.2906 23.0419 76.4362 22.4043 76.2636 22.5915C76.2838 22.7939 76.3061 22.9965 76.3263 23.1989C75.2851 25.0548 74.4613 24.0436 73.6563 23.5202C72.8039 22.9651 71.8878 23.2273 71.0243 22.9684C70.0729 22.6821 69.0315 23.2604 68.127 22.4082C67.6824 21.9888 67.1188 21.5182 66.475 22.7139C66.0116 23.573 65.9833 22.3394 65.8784 21.5184C65.7504 21.9755 65.6172 22.4408 65.4478 22.4636C65.4176 22.4691 65.3834 22.0856 65.4076 21.941C65.5173 21.3024 65.6828 21.2969 65.8355 21.1752C65.3388 19.9553 64.6628 22.1631 64.0672 22.2571C63.5921 22.3319 62.9262 23.2455 62.645 22.3936C62.2856 21.3093 61.6724 23.7948 61.4535 22.2548L61.5295 22.0423L61.4467 22.2011C60.9984 21.9521 60.5208 22.321 60.0225 22.6081C59.0328 23.1774 58.0374 23.3721 57.0962 23.031C56.0534 22.6524 55.0426 21.768 53.8095 23.4647C53.6156 23.732 53.367 24.0346 53.2245 23.869C51.8318 22.2806 50.1121 23.7505 48.6062 23.2007C47.8929 22.9405 47.0841 23.4587 46.4032 22.8428L46.3543 22.6903L46.3771 22.9077C46.2408 23.4021 46.0466 23.8461 45.9345 23.6337C45.1351 22.1276 44.0271 23.0843 43.132 22.5334C41.8506 21.7461 40.4498 22.0938 39.1264 21.9054C37.9613 21.7372 36.7486 21.2312 35.4351 22.3479C35.207 22.5409 34.9223 22.6129 34.78 22.2707C34.1036 20.6632 33.0938 21.9014 32.2802 21.4565C31.4725 21.0152 30.5548 21.3891 29.7423 20.9915C29.1423 20.6994 28.0887 23.1339 28.0012 19.4976C27.9932 19.164 27.8178 19.6483 27.7088 19.8926C26.9014 21.6974 26.8972 21.697 26.3262 20.1304C26.2775 19.9956 26.2764 19.7541 26.1767 19.9316C24.7919 22.4007 23.631 21.497 22.4429 21.2497C21.4987 21.0526 20.4705 21.2379 19.6967 19.923C18.1025 17.2175 16.1711 17.0041 14.2766 16.4914C13.8722 16.3826 13.4937 16.2294 13.1852 15.454C12.436 13.5648 11.449 13.0038 10.4439 12.5705C9.457 12.145 8.52686 11.1015 7.49162 11.2743C6.80275 11.3905 6.07867 11.5971 5.3602 11.9074C4.49983 12.2788 3.78661 10.7379 3.66067 8.11302C3.58025 6.44688 4.01447 5.25485 4.38934 4.80115C5.53593 3.41299 6.73786 1.63345 7.7655 2.55797C8.48146 3.20122 9.23606 3.45127 10.0098 3.60332C11.4458 3.88348 12.9052 3.94836 14.3162 4.43776C15.4544 4.83266 16.6786 4.10943 17.8555 3.95511C19.3734 3.75552 20.8924 3.64143 22.4258 3.16387C24.8799 2.40102 27.1399 3.45692 29.5431 3.18015C32.3894 2.85158 35.2647 2.27595 38.0724 2.51429C39.8836 2.66754 41.6795 3.32843 43.6247 2.17452C43.7422 2.10489 43.8542 2.1436 43.9626 2.17602C46.9308 2.99707 50.0726 2.109 53.0599 2.79376C54.6637 3.16287 56.3518 2.9524 58.0611 2.31444C58.1383 2.28458 58.2225 2.229 58.2901 2.26874C59.9976 3.21732 61.9169 1.95166 63.6955 2.21029C65.9819 2.539 68.2823 2.79857 70.6834 1.9593C71.2283 1.76846 71.708 2.19462 72.2144 2.31753C74.0557 2.75668 75.9915 2.23172 77.8776 2.14293C80.6665 2.01123 83.3767 2.60103 86.1461 2.62911C88.5987 2.65505 91.0535 2.7195 93.3658 4.05193C93.8468 4.33103 94.4323 3.84436 94.9349 4.00218C96.7047 4.55423 98.5476 4.45484 100.319 5.03062C101.574 5.43827 102.851 6.01897 104.153 5.88122C107.936 5.48698 111.444 7.62985 115.216 7.14605C117.927 6.79687 120.463 8.08001 123.221 7.24139C124.521 6.84734 125.737 7.59805 126.983 7.91637C127.193 7.96868 127.358 8.43119 127.538 8.73638C127.842 9.25825 127.752 10.1816 127.423 10.9141C126.991 11.8767 126.609 12.7948 126.531 14.5437L126.461 14.7923L126.541 14.5861C126.579 14.5843 126.615 14.603 126.655 14.5719C127.277 14.0981 126.708 16.0791 126.838 16.476C127.136 17.3886 127.375 15.1362 127.678 15.2046C127.711 15.2111 127.758 15.2663 127.758 15.3457C127.762 17.7896 128.307 17.4015 128.873 16.9833C129.052 16.8527 129.163 17.3064 129.059 17.9074L129.057 17.9072ZM13.8173 14.1716L13.7659 14.0424L13.7384 14.2366L13.817 14.1746L13.8173 14.1716ZM19.8841 18.4951L19.8057 18.5748L19.8617 18.681L19.882 18.4948L19.8841 18.4951ZM20.8704 18.5967C20.8394 18.5903 20.8001 18.6597 20.7644 18.697C20.7773 18.772 20.7885 18.8439 20.8015 18.9189C20.8349 18.9225 20.8748 18.9828 20.9017 18.9298C20.9831 18.765 20.9732 18.6226 20.8698 18.6025L20.8704 18.5967ZM21.9114 18.9721L21.8597 18.8458L21.8341 19.0226L21.9117 18.9692L21.9114 18.9721ZM23.4106 19.8745L23.3973 19.6081C23.3267 19.5386 23.3619 18.8859 23.1929 19.3709C23.254 19.4688 23.3134 19.5636 23.3746 19.6615L23.4106 19.8745ZM24.4856 19.4529C24.445 19.3602 24.4044 19.2674 24.3659 19.1749C24.2951 19.2231 24.2264 19.2716 24.1557 19.3198C24.1945 19.4094 24.2288 19.5603 24.2759 19.5743C24.3396 19.5901 24.4152 19.4982 24.4856 19.4529ZM83.9754 19.8877L83.8998 19.9413L83.9498 20.0645L83.9754 19.8877ZM88.9716 20.5206C89.0118 20.21 88.9791 20.0445 88.8886 20.0994C88.8616 20.1142 88.8289 20.2784 88.7997 20.3724C88.7657 20.6837 88.7942 20.8487 88.8865 20.7969C88.9114 20.782 88.9602 20.6254 88.9737 20.5209L88.9716 20.5206ZM96.8403 17.5984L96.7911 17.546L96.7786 17.8154L96.8406 17.5955L96.8403 17.5984ZM98.7259 10.0116C98.7492 10.0112 98.7866 9.86222 98.8187 9.78035C98.8224 9.66889 98.824 9.5572 98.8281 9.44283C98.7934 9.4891 98.7512 9.50805 98.7215 9.58723C98.6237 9.84446 98.6262 10.0155 98.7262 10.0087L98.7259 10.0116ZM98.1242 17.3733C98.1237 17.2614 98.1324 17.124 98.1177 17.0459C98.0736 16.7908 98.0197 16.8586 97.9873 17.2142C97.9781 17.2985 98.0117 17.3787 98.0257 17.4627C98.0585 17.4339 98.0912 17.4051 98.126 17.3765L98.1242 17.3733ZM98.59 19.2846L98.545 19.1355L98.5106 19.3348L98.59 19.2846ZM101.052 15.3816L100.977 15.4175L101.021 15.5577L101.052 15.3816ZM101.458 20.1153C101.401 20.1298 101.317 20.3561 101.259 20.5412C101.178 20.8031 101.174 21.0883 101.255 21.0676C101.311 21.0532 101.387 20.7995 101.454 20.6536C101.53 20.3617 101.538 20.0976 101.458 20.1153ZM108.337 14.0413C108.357 13.6785 108.311 13.597 108.212 13.8687C108.149 14.0356 108.075 14.2689 108.052 14.4784C108.015 14.8188 108.079 14.914 108.174 14.6624C108.236 14.5013 108.284 14.2505 108.337 14.0413ZM113.406 16.6958C113.421 16.6356 113.4 16.4802 113.395 16.3708C113.368 16.3472 113.329 16.2753 113.317 16.3122C113.291 16.3918 113.257 16.5677 113.262 16.6418C113.281 16.9324 113.34 16.9535 113.406 16.6958ZM114.113 17.344L114.068 17.3125L114.057 17.5704L114.114 17.3411L114.113 17.344ZM125.704 15.6518C125.637 15.7475 125.568 15.8136 125.503 15.9449C125.405 16.1461 125.383 16.4116 125.464 16.4645C125.513 16.4964 125.597 16.3231 125.66 16.1916C125.758 15.9903 125.772 15.7887 125.704 15.6518Z" fill="#E9C9F4"/>
<path d="M32.3218 17.692L32.3218 17.174C32.3218 17.0433 32.3475 16.964 32.3988 16.936C32.4455 16.908 32.5295 16.894 32.6508 16.894L33.5818 16.894C33.7825 16.894 33.9178 16.8753 33.9878 16.838C34.0625 16.8007 34.1162 16.6957 34.1488 16.523L35.7868 8.872C35.8102 8.75533 35.8078 8.683 35.7798 8.655C35.7518 8.62233 35.6702 8.606 35.5348 8.606L34.5058 8.606C34.3845 8.606 34.3028 8.59433 34.2608 8.571C34.2235 8.543 34.2048 8.46833 34.2048 8.347L34.2048 7.808C34.2048 7.67733 34.2188 7.59333 34.2468 7.556C34.2795 7.51867 34.3588 7.5 34.4848 7.5L39.1748 7.5C39.2915 7.5 39.3615 7.51867 39.3848 7.556C39.4128 7.59333 39.4268 7.67267 39.4268 7.794L39.4268 8.312C39.4268 8.44267 39.4082 8.52433 39.3708 8.557C39.3335 8.58967 39.2518 8.606 39.1258 8.606L38.1878 8.606C38.0198 8.606 37.9125 8.62467 37.8658 8.662C37.8238 8.69933 37.7888 8.788 37.7608 8.928L37.1588 11.735C37.1308 11.861 37.1285 11.945 37.1518 11.987C37.1798 12.0243 37.2755 12.043 37.4388 12.043L41.7648 12.043C41.9188 12.043 42.0052 12.0243 42.0238 11.987C42.0472 11.9497 42.0705 11.8727 42.0938 11.756L42.7098 8.893C42.7378 8.77633 42.7402 8.69933 42.7168 8.662C42.6935 8.62467 42.6118 8.606 42.4718 8.606L41.5478 8.606C41.4265 8.606 41.3495 8.592 41.3168 8.564C41.2842 8.53133 41.2678 8.45433 41.2678 8.333L41.2678 7.738C41.2678 7.64 41.2842 7.577 41.3168 7.549C41.3495 7.51633 41.4148 7.5 41.5128 7.5L46.1678 7.5C46.2985 7.5 46.3778 7.51167 46.4058 7.535C46.4338 7.55367 46.4478 7.62833 46.4478 7.759L46.4478 8.305C46.4478 8.43567 46.4292 8.51967 46.3918 8.557C46.3592 8.58967 46.2775 8.606 46.1468 8.606L45.1248 8.606C44.9475 8.606 44.8378 8.62233 44.7958 8.655C44.7585 8.68767 44.7235 8.77633 44.6908 8.921L43.0598 16.558C43.0272 16.7027 43.0248 16.796 43.0528 16.838C43.0808 16.8753 43.1882 16.894 43.3748 16.894L44.3338 16.894C44.4552 16.894 44.5298 16.9127 44.5578 16.95C44.5905 16.9827 44.6068 17.0597 44.6068 17.181L44.6068 17.734C44.6068 17.846 44.5905 17.9183 44.5578 17.951C44.5252 17.9837 44.4528 18 44.3408 18L39.6998 18C39.5832 18 39.5038 17.9837 39.4618 17.951C39.4245 17.9183 39.4058 17.8413 39.4058 17.72L39.4058 17.16C39.4058 17.034 39.4268 16.9593 39.4688 16.936C39.5155 16.908 39.5948 16.894 39.7068 16.894L40.6798 16.894C40.8478 16.894 40.9458 16.8777 40.9738 16.845C41.0065 16.8123 41.0368 16.7283 41.0648 16.593L41.7438 13.429C41.7765 13.289 41.7765 13.2003 41.7438 13.163C41.7112 13.121 41.6062 13.1 41.4288 13.1L37.1588 13.1C36.9908 13.1 36.8952 13.1257 36.8718 13.177C36.8485 13.2237 36.8228 13.3147 36.7948 13.45L36.1158 16.6C36.0925 16.712 36.0902 16.789 36.1088 16.831C36.1322 16.873 36.2162 16.894 36.3608 16.894L37.2988 16.894C37.4295 16.894 37.5088 16.915 37.5368 16.957C37.5695 16.9943 37.5858 17.0807 37.5858 17.216L37.5858 17.713C37.5858 17.839 37.5672 17.9183 37.5298 17.951C37.4925 17.9837 37.4132 18 37.2918 18L32.6438 18C32.5038 18 32.4152 17.9813 32.3778 17.944C32.3405 17.9067 32.3218 17.8227 32.3218 17.692ZM45.3845 15.396C45.3845 14.7287 45.5012 14.1033 45.7345 13.52C45.9678 12.932 46.2922 12.4163 46.7075 11.973C47.1228 11.525 47.6058 11.175 48.1565 10.923C48.7118 10.6663 49.3092 10.538 49.9485 10.538C50.5552 10.538 51.0825 10.6523 51.5305 10.881C51.9785 11.105 52.3262 11.427 52.5735 11.847C52.8208 12.2623 52.9445 12.7547 52.9445 13.324C52.9445 13.9867 52.8278 14.612 52.5945 15.2C52.3612 15.788 52.0368 16.306 51.6215 16.754C51.2062 17.1973 50.7208 17.5473 50.1655 17.804C49.6148 18.056 49.0198 18.182 48.3805 18.182C47.7738 18.182 47.2442 18.07 46.7915 17.846C46.3435 17.6173 45.9958 17.2953 45.7485 16.88C45.5058 16.46 45.3845 15.9653 45.3845 15.396ZM47.3585 15.522C47.3585 15.8533 47.3958 16.152 47.4705 16.418C47.5452 16.684 47.6618 16.894 47.8205 17.048C47.9838 17.202 48.1985 17.279 48.4645 17.279C48.8052 17.279 49.1248 17.167 49.4235 16.943C49.7268 16.7143 49.9952 16.4063 50.2285 16.019C50.4618 15.627 50.6438 15.1883 50.7745 14.703C50.9052 14.2177 50.9705 13.716 50.9705 13.198C50.9705 12.8667 50.9332 12.568 50.8585 12.302C50.7885 12.036 50.6718 11.826 50.5085 11.672C50.3452 11.518 50.1305 11.441 49.8645 11.441C49.5238 11.441 49.2018 11.5553 48.8985 11.784C48.5998 12.008 48.3338 12.316 48.1005 12.708C47.8672 13.0953 47.6852 13.5317 47.5545 14.017C47.4238 14.4977 47.3585 14.9993 47.3585 15.522ZM58.9997 12.421C58.743 12.421 58.54 12.337 58.3907 12.169C58.246 11.9963 58.1737 11.7817 58.1737 11.525C58.1737 11.2497 58.2857 11.0117 58.5097 10.811C58.7384 10.6103 59.0464 10.51 59.4337 10.51C59.7417 10.51 60.024 10.594 60.2807 10.762C60.5374 10.9253 60.7404 11.168 60.8897 11.49C61.0437 11.8073 61.1207 12.1923 61.1207 12.645C61.1207 13.1863 60.9714 13.7067 60.6727 14.206C60.3787 14.7007 59.9727 15.1743 59.4547 15.627C58.9367 16.0797 58.3394 16.5113 57.6627 16.922C56.986 17.3327 56.265 17.72 55.4997 18.084C55.4064 18.126 55.3317 18.154 55.2757 18.168C55.2244 18.182 55.1497 18.1633 55.0517 18.112L54.5617 17.846C54.5057 17.8133 54.4754 17.783 54.4707 17.755C54.4707 17.7223 54.48 17.6663 54.4987 17.587C54.536 17.4143 54.5827 17.2137 54.6387 16.985C54.6994 16.7563 54.7297 16.5673 54.7297 16.418C54.7297 16.0773 54.6854 15.7553 54.5967 15.452C54.508 15.144 54.403 14.8453 54.2817 14.556C54.1604 14.262 54.0554 13.9657 53.9667 13.667C53.878 13.3637 53.8337 13.0487 53.8337 12.722C53.8337 12.442 53.8967 12.1947 54.0227 11.98C54.1487 11.7607 54.3167 11.5693 54.5267 11.406C54.7367 11.238 54.9654 11.0863 55.2127 10.951C55.46 10.8157 55.7074 10.692 55.9547 10.58C56.0434 10.5333 56.0994 10.5123 56.1227 10.517C56.1507 10.5217 56.188 10.566 56.2347 10.65L56.4027 11C56.4447 11.0747 56.4704 11.1237 56.4797 11.147C56.489 11.1703 56.4564 11.2077 56.3817 11.259C56.2417 11.3523 56.1017 11.4877 55.9617 11.665C55.8217 11.8423 55.7517 12.0663 55.7517 12.337C55.7517 12.6357 55.7937 12.8993 55.8777 13.128C55.9664 13.352 56.0667 13.583 56.1787 13.821C56.2907 14.0543 56.391 14.3297 56.4797 14.647C56.5684 14.9643 56.6174 15.3633 56.6267 15.844C56.6267 15.914 56.6244 15.9957 56.6197 16.089C56.6197 16.1823 56.6127 16.2757 56.5987 16.369C56.594 16.4343 56.608 16.4693 56.6407 16.474C56.678 16.474 56.7387 16.4483 56.8227 16.397C57.4574 15.9863 58.0267 15.5687 58.5307 15.144C59.0347 14.7193 59.4314 14.2993 59.7207 13.884C60.01 13.464 60.1547 13.0627 60.1547 12.68C60.1547 12.3953 60.1337 12.2133 60.0917 12.134C60.0497 12.05 59.9984 12.008 59.9377 12.008C59.8537 12.008 59.7767 12.043 59.7067 12.113C59.6367 12.1783 59.548 12.246 59.4407 12.316C59.338 12.386 59.191 12.421 58.9997 12.421ZM61.3259 15.536C61.3259 14.8593 61.4589 14.22 61.7249 13.618C61.9956 13.016 62.3572 12.484 62.8099 12.022C63.2672 11.56 63.7829 11.1983 64.3569 10.937C64.9356 10.671 65.5306 10.538 66.1419 10.538C66.9866 10.538 67.6189 10.6827 68.0389 10.972C68.4636 11.2613 68.6759 11.693 68.6759 12.267C68.6759 12.6963 68.5639 13.065 68.3399 13.373C68.1206 13.681 67.8266 13.94 67.4579 14.15C67.0892 14.3553 66.6809 14.521 66.2329 14.647C65.7849 14.773 65.3346 14.871 64.8819 14.941C64.4292 15.0063 64.0069 15.053 63.6149 15.081C63.4796 15.0903 63.3886 15.13 63.3419 15.2C63.2952 15.2653 63.2719 15.389 63.2719 15.571C63.2719 16.089 63.3676 16.495 63.5589 16.789C63.7549 17.0783 64.0629 17.223 64.4829 17.223C64.7956 17.223 65.0896 17.153 65.3649 17.013C65.6449 16.8683 65.8992 16.684 66.1279 16.46C66.3566 16.236 66.5572 15.9957 66.7299 15.739C66.7719 15.6737 66.8139 15.6317 66.8559 15.613C66.9026 15.5897 66.9866 15.578 67.1079 15.578L67.5699 15.578C67.7286 15.578 67.8219 15.5967 67.8499 15.634C67.8779 15.6667 67.8569 15.7437 67.7869 15.865C67.5629 16.2477 67.2782 16.6163 66.9329 16.971C66.5922 17.3257 66.1909 17.6173 65.7289 17.846C65.2716 18.07 64.7512 18.182 64.1679 18.182C63.6266 18.182 63.1412 18.0933 62.7119 17.916C62.2826 17.7387 61.9442 17.4563 61.6969 17.069C61.4496 16.6817 61.3259 16.1707 61.3259 15.536ZM63.7479 14.269C64.0979 14.227 64.4549 14.1617 64.8189 14.073C65.1876 13.9843 65.5282 13.8653 65.8409 13.716C66.1536 13.562 66.4056 13.3683 66.5969 13.135C66.7929 12.897 66.8909 12.6077 66.8909 12.267C66.8909 11.945 66.8232 11.7233 66.6879 11.602C66.5572 11.476 66.3542 11.413 66.0789 11.413C65.7429 11.413 65.4069 11.5157 65.0709 11.721C64.7396 11.9217 64.4386 12.2063 64.1679 12.575C63.9019 12.939 63.6872 13.3683 63.5239 13.863C63.4726 14.0217 63.4562 14.1337 63.4749 14.199C63.4982 14.2643 63.5892 14.2877 63.7479 14.269ZM69.6602 10.72L71.9842 10.72C72.1568 10.72 72.2735 10.7387 72.3342 10.776C72.3948 10.8087 72.4088 10.8973 72.3762 11.042L72.1872 11.868C72.1405 12.0547 72.1265 12.162 72.1452 12.19C72.1638 12.218 72.2432 12.127 72.3832 11.917C72.6632 11.511 72.9828 11.1773 73.3422 10.916C73.7062 10.6547 74.1192 10.524 74.5812 10.524C75.0572 10.524 75.4445 10.657 75.7432 10.923C76.0465 11.1843 76.1982 11.539 76.1982 11.987C76.1982 12.3883 76.0838 12.7173 75.8552 12.974C75.6265 13.2307 75.3418 13.359 75.0012 13.359C74.8005 13.359 74.6185 13.3193 74.4552 13.24C74.2965 13.156 74.1682 13.0463 74.0702 12.911C73.9722 12.771 73.9232 12.6147 73.9232 12.442C73.9232 12.2367 73.9512 12.0827 74.0072 11.98C74.0632 11.8727 74.1168 11.7957 74.1682 11.749C74.2242 11.6977 74.2522 11.6487 74.2522 11.602C74.2522 11.5087 74.1845 11.462 74.0492 11.462C73.8298 11.462 73.5942 11.574 73.3422 11.798C73.0902 12.022 72.8428 12.3183 72.6002 12.687C72.3575 13.051 72.1382 13.45 71.9422 13.884C71.7508 14.3133 71.6085 14.7333 71.5152 15.144L70.9272 17.685C70.8992 17.8157 70.8688 17.902 70.8362 17.944C70.8035 17.9813 70.7032 18 70.5352 18L69.4432 18C69.2798 18 69.1865 17.979 69.1632 17.937C69.1398 17.8903 69.1422 17.8087 69.1702 17.692L70.4862 12.036C70.5188 11.8867 70.5212 11.7933 70.4932 11.756C70.4698 11.7187 70.3648 11.7 70.1782 11.7L69.6672 11.7C69.5412 11.7 69.4665 11.679 69.4432 11.637C69.4198 11.595 69.4082 11.511 69.4082 11.385L69.4082 10.965C69.4082 10.8577 69.4268 10.79 69.4642 10.762C69.5015 10.734 69.5668 10.72 69.6602 10.72ZM85.0276 8.893L83.8376 13.66C83.7629 13.9587 83.7046 14.2457 83.6626 14.521C83.6206 14.7963 83.5996 15.0483 83.5996 15.277C83.5996 15.7857 83.7396 16.2103 84.0196 16.551C84.2996 16.8917 84.7989 17.062 85.5176 17.062C86.1382 17.062 86.6819 16.9523 87.1486 16.733C87.6199 16.509 88.0166 16.159 88.3386 15.683C88.6652 15.2023 88.9242 14.5747 89.1156 13.8L90.3056 8.914C90.3382 8.788 90.3429 8.70634 90.3196 8.669C90.3009 8.627 90.2099 8.606 90.0466 8.606L89.0596 8.606C88.9382 8.606 88.8659 8.585 88.8426 8.543C88.8192 8.501 88.8076 8.417 88.8076 8.291L88.8076 7.759C88.8076 7.66567 88.8146 7.60034 88.8286 7.563C88.8472 7.521 88.9032 7.5 88.9966 7.5L92.7626 7.5C92.8932 7.5 92.9796 7.51634 93.0216 7.549C93.0682 7.58167 93.0916 7.66567 93.0916 7.801L93.0916 8.354C93.0916 8.46134 93.0706 8.53134 93.0286 8.564C92.9866 8.592 92.9142 8.60601 92.8116 8.60601L91.8806 8.606C91.7219 8.606 91.6239 8.62234 91.5866 8.655C91.5539 8.683 91.5212 8.75767 91.4886 8.879L90.2916 13.8C90.0536 14.7753 89.7222 15.5943 89.2976 16.257C88.8729 16.915 88.3292 17.412 87.6666 17.748C87.0039 18.084 86.1896 18.252 85.2236 18.252C84.3416 18.252 83.6369 18.1307 83.1096 17.888C82.5869 17.6453 82.2089 17.314 81.9756 16.894C81.7422 16.4693 81.6256 15.9887 81.6256 15.452C81.6256 15.1907 81.6442 14.9223 81.6816 14.647C81.7236 14.3717 81.7796 14.0893 81.8496 13.8L83.0466 8.921C83.0792 8.795 83.0839 8.711 83.0606 8.669C83.0372 8.627 82.9462 8.606 82.7876 8.606L81.9196 8.606C81.7936 8.606 81.7142 8.58734 81.6816 8.55C81.6536 8.508 81.6396 8.42867 81.6396 8.312L81.6396 7.745C81.6396 7.633 81.6582 7.56534 81.6956 7.542C81.7329 7.514 81.8076 7.5 81.9196 7.5L86.4066 7.5C86.5512 7.5 86.6446 7.51867 86.6866 7.556C86.7286 7.59334 86.7496 7.68667 86.7496 7.836L86.7496 8.354C86.7496 8.45667 86.7332 8.52434 86.7006 8.557C86.6679 8.58967 86.5979 8.606 86.4906 8.606L85.3846 8.606C85.2306 8.606 85.1396 8.62467 85.1116 8.662C85.0836 8.69467 85.0556 8.77167 85.0276 8.893ZM96.4322 16.152C96.4322 15.9047 96.3459 15.6947 96.1732 15.522C96.0052 15.3447 95.7859 15.1883 95.5152 15.053C95.2492 14.913 94.9645 14.773 94.6612 14.633C94.3625 14.493 94.0802 14.3367 93.8142 14.164C93.5482 13.9913 93.3289 13.786 93.1562 13.548C92.9882 13.31 92.9042 13.0207 92.9042 12.68C92.9042 12.288 92.9999 11.9543 93.1912 11.679C93.3872 11.4037 93.6415 11.1797 93.9542 11.007C94.2669 10.8343 94.6052 10.7083 94.9692 10.629C95.3379 10.5497 95.6925 10.51 96.0332 10.51C96.5885 10.51 97.0692 10.5917 97.4752 10.755C97.8859 10.9137 98.2032 11.1307 98.4272 11.406C98.6512 11.6813 98.7632 11.9893 98.7632 12.33C98.7632 12.652 98.6769 12.9063 98.5042 13.093C98.3315 13.2797 98.1029 13.373 97.8182 13.373C97.5615 13.373 97.3445 13.303 97.1672 13.163C96.9945 13.0183 96.9082 12.8387 96.9082 12.624C96.9082 12.428 96.9385 12.288 96.9992 12.204C97.0645 12.12 97.1299 12.057 97.1952 12.015C97.2605 11.9683 97.2932 11.903 97.2932 11.819C97.2932 11.6463 97.1695 11.5227 96.9222 11.448C96.6795 11.3687 96.4322 11.329 96.1802 11.329C95.9142 11.329 95.6622 11.3663 95.4242 11.441C95.1862 11.511 94.9902 11.6207 94.8362 11.77C94.6869 11.9147 94.6122 12.0967 94.6122 12.316C94.6122 12.5447 94.6985 12.7383 94.8712 12.897C95.0439 13.051 95.2655 13.1957 95.5362 13.331C95.8069 13.4617 96.0939 13.5993 96.3972 13.744C96.7005 13.884 96.9875 14.0473 97.2582 14.234C97.5289 14.4207 97.7505 14.6493 97.9232 14.92C98.0959 15.1907 98.1822 15.5267 98.1822 15.928C98.1822 16.32 98.0842 16.6607 97.8882 16.95C97.6922 17.2393 97.4285 17.4773 97.0972 17.664C96.7659 17.846 96.3879 17.9813 95.9632 18.07C95.5432 18.1633 95.1069 18.21 94.6542 18.21C94.0755 18.21 93.5575 18.126 93.1002 17.958C92.6429 17.79 92.2812 17.5543 92.0152 17.251C91.7492 16.9477 91.6162 16.5953 91.6162 16.194C91.6162 15.83 91.7235 15.5267 91.9382 15.284C92.1529 15.0367 92.4142 14.913 92.7222 14.913C92.9789 14.913 93.1959 14.9877 93.3732 15.137C93.5505 15.2863 93.6392 15.4893 93.6392 15.746C93.6392 15.9607 93.5855 16.1123 93.4782 16.201C93.3755 16.2897 93.2729 16.3597 93.1702 16.411C93.0675 16.4577 93.0162 16.523 93.0162 16.607C93.0162 16.7563 93.0909 16.887 93.2402 16.999C93.3895 17.111 93.5785 17.1973 93.8072 17.258C94.0405 17.314 94.2832 17.342 94.5352 17.342C95.1325 17.342 95.5969 17.2277 95.9282 16.999C96.2642 16.7657 96.4322 16.4833 96.4322 16.152Z" fill="#091818"/>
</g>
<defs>
<clipPath id="clip0_6237_3201">
<rect width="130" height="25" fill="white" transform="translate(0.5)"/>
</clipPath>
</defs>
</svg>
