<svg width="121" height="139" viewBox="0 0 121 139" fill="none" xmlns="http://www.w3.org/2000/svg">
<g filter="url(#filter0_d_6538_1288)">
<path fill-rule="evenodd" clip-rule="evenodd" d="M107.335 131.96C107.266 132.014 107.224 132.089 107.181 132.165C107.031 132.431 106.871 132.714 105.535 132.17C104.379 131.708 103.18 131.333 101.982 130.958L101.981 130.958C101.418 130.782 100.855 130.606 100.295 130.42C98.6852 129.89 97.0752 129.33 95.3652 128.72C95.1466 128.827 95.2524 129.04 95.3558 129.248C95.4843 129.506 95.6093 129.757 95.1052 129.79C94.3352 129.84 93.1752 129.57 92.6252 129.18C91.5284 128.42 90.2328 127.801 88.9204 127.174C87.3488 126.423 85.753 125.66 84.4452 124.63C84.0952 124.66 83.7252 124.66 83.1352 124.32C83.0352 124.26 82.8652 123.97 82.9252 123.95C83.1987 123.867 83.6234 124.094 84.0511 124.322L84.0512 124.322C84.1395 124.369 84.2279 124.416 84.3152 124.46C84.3643 124.436 84.4507 124.423 84.5388 124.41C84.8093 124.371 85.0946 124.33 84.3552 123.93C83.5301 123.449 82.959 123.394 82.3976 123.339C82.0609 123.306 81.7276 123.274 81.3452 123.15C80.1352 122.71 80.2652 122.22 80.5052 121.95H80.7052L80.4652 121.88C79.8652 121.39 79.3252 120.92 79.2652 120.44L79.4852 120.51L79.2352 120.39C76.2552 118.05 73.7252 115.17 71.7852 112.04C71.0352 110.78 70.5952 109.49 70.3552 108.06C70.1052 106.43 70.3152 105.71 71.0652 106.67C71.1072 106.723 71.1579 106.808 71.2114 106.898C71.4001 107.215 71.623 107.589 71.6152 106.81C71.6152 106.654 71.5649 106.403 71.5036 106.138C71.4329 106.159 71.3468 106.18 71.2452 106.2C71.2002 106.215 71.1577 106.23 71.1152 106.245C71.0727 106.26 71.0302 106.275 70.9852 106.29C70.9752 106.29 70.8352 106.24 70.8452 106.24C70.9152 106.2 70.9952 106.17 71.0752 106.14C71.0252 106.06 70.9652 105.98 70.8852 105.9C69.6352 105.85 68.4752 105.92 67.3752 106.09C67.3422 106.101 67.3079 106.118 67.2747 106.133C67.2173 106.161 67.1632 106.187 67.1252 106.18C66.8452 106.15 66.9052 106.09 67.2752 106.04C67.2451 106.022 67.2155 106.004 67.1862 105.986C66.6988 105.688 66.2951 105.442 65.2952 105.8C64.2752 106.19 62.9552 106.47 61.7052 105.56L61.8752 105.49L61.6152 105.52C59.9952 105.723 58.1628 105.65 56.3196 105.577H56.3195C54.9884 105.523 53.6516 105.47 52.3852 105.52C51.0152 105.56 50.3852 105.33 49.1052 104.3C48.6444 103.924 48.0598 103.884 47.7672 103.864L47.7152 103.86C45.2252 103.86 42.6052 103.46 40.2152 101.63C40.0252 101.5 39.5252 101.2 39.4652 101.2C38.1052 101.3 36.4952 100.64 34.9952 99.5502C34.6978 99.3389 34.4065 99.1154 34.1118 98.8892L34.1116 98.889C34.0298 98.8262 33.9477 98.7632 33.8652 98.7002L32.8152 97.7202C32.3986 97.3557 32.0222 96.9544 31.6531 96.5608L31.653 96.5608C31.3841 96.2741 31.1191 95.9915 30.8452 95.7302C30.2952 95.2002 29.6552 94.4502 29.1952 93.6202C28.9752 93.2102 28.8052 92.7802 28.7452 92.4102C28.7052 92.0602 28.7652 91.7802 28.9252 91.5702C29.182 91.2472 28.8624 90.8487 28.569 90.4827C28.5081 90.4068 28.4484 90.3324 28.3952 90.2602C27.1852 88.6602 26.7252 86.1702 26.6552 83.7502C26.5177 79.7936 27.4213 76.0009 28.9495 72.5044C27.8833 72.4713 26.8105 72.4208 25.7352 72.3502C24.7552 72.2702 23.4552 72.0702 22.6552 71.7202C21.7527 71.3446 20.8216 70.9915 19.88 70.6346C16.9618 69.528 13.9434 68.3836 11.3652 66.4102C9.69519 65.1202 8.06519 63.6902 6.59519 62.0302C5.14519 60.3802 3.85519 58.4402 3.03519 56.4002C2.9102 56.1151 2.77797 55.822 2.64266 55.522C2.08511 54.286 1.47535 52.9343 1.10519 51.5502C0.915187 50.6802 0.745187 49.8202 0.785187 49.0202C0.845187 48.2102 1.02519 47.4702 1.38519 46.8702C1.49093 46.6587 1.35641 46.0684 1.257 45.6321L1.24519 45.5802C0.895187 43.9702 0.885187 43.1402 1.00519 42.2602C1.06519 41.8202 1.18519 41.3702 1.42519 40.8402C1.47977 40.7197 1.53539 40.5919 1.59416 40.4569C1.79379 39.9982 2.0298 39.456 2.38519 38.8302C2.4283 38.7575 2.46997 38.6978 2.5092 38.6416C2.61556 38.4892 2.70405 38.3624 2.75519 38.0702C3.21519 35.2802 4.47519 32.5802 6.11519 30.2102C7.76519 27.8402 9.75519 25.7702 11.7752 23.8802C14.9852 20.8402 18.5452 18.0902 22.2652 16.4002C29.8552 12.9302 37.5552 10.0002 45.1652 7.37023C46.7852 6.81023 48.3252 6.31023 49.9352 6.06023C52.6784 5.62349 55.5148 4.97721 58.4062 4.31839C59.7519 4.01176 61.1095 3.70242 62.4752 3.41023C65.1352 2.83663 67.8388 2.46169 70.5186 2.09007L70.5187 2.09005C72.0903 1.8721 73.6537 1.6553 75.1952 1.40023C77.9752 0.93023 80.8752 0.52023 83.7152 0.17023C87.1352 -0.25977 90.8152 0.33023 92.4552 1.45023C93.4952 2.15023 92.2252 2.68023 90.8952 2.89023C89.7296 3.07879 88.5696 3.29755 87.4017 3.51782L87.4016 3.51784C84.4814 4.06858 81.511 4.6288 78.2752 4.75023C75.1052 4.87023 71.9652 5.28023 68.8352 5.87023C63.0052 6.96023 57.2852 8.60023 51.6752 10.4602C47.1784 11.969 42.9503 13.8232 38.7276 15.6751L38.4652 15.7902C32.9152 18.2102 27.5352 21.0202 22.9252 24.6402C19.2652 27.5502 15.7752 30.6402 13.0752 34.2702C10.3852 37.8502 8.39519 41.9902 8.42519 46.1702C8.40519 48.6302 9.01519 51.0302 10.1552 53.2402C11.2252 55.4402 12.8552 57.3102 14.8152 58.8702C16.7752 60.4202 19.0552 61.6502 21.4652 62.5102C23.8952 63.3502 26.4552 63.9202 29.1052 64.1602C30.8962 64.3435 32.7393 64.4034 34.6202 64.3772C35.1475 63.8764 35.6938 63.4035 36.2452 62.9702C38.9352 60.8502 41.3852 59.0102 44.0852 58.1502C44.1925 58.1026 44.2382 58.137 44.2838 58.1713C44.353 58.2234 44.4219 58.2753 44.7052 58.0402L44.1452 58.0802C44.7652 57.4602 45.3752 56.9202 46.0552 56.3902C46.7952 55.8502 47.5852 55.3402 48.3852 54.8602C49.6021 54.1346 50.859 53.4718 52.0868 52.8244C52.4834 52.6153 52.877 52.4078 53.2652 52.2002C53.9746 51.8037 54.6821 51.4022 55.3899 51.0005L55.39 51.0005C57.9847 49.528 60.5825 48.0537 63.2852 46.8202C63.806 46.5811 64.3261 46.3395 64.8465 46.0978L64.8465 46.0978C68.1125 44.5808 71.3887 43.0591 74.9252 42.1102C75.1539 42.0476 75.3893 41.9844 75.6297 41.9198C77.5016 41.4168 79.6794 40.8316 81.4252 39.8302C82.6287 39.1654 83.3788 39.3009 84.1049 39.432C84.2416 39.4567 84.3774 39.4812 84.5152 39.5002C84.7952 39.2302 85.0952 38.9502 85.7752 38.7602C85.8952 38.7302 86.2452 38.8102 86.2152 38.8802C86.1244 39.136 85.6457 39.2964 85.1665 39.4571C85.0649 39.4911 84.9632 39.5252 84.8652 39.5602C86.4255 39.4787 87.6264 38.9871 88.8411 38.4899C89.7128 38.133 90.5916 37.7733 91.6152 37.5602C92.0558 37.4648 92.517 37.3488 92.9857 37.2309C93.5489 37.0893 94.123 36.9448 94.6852 36.8302C95.7152 36.6002 96.7152 36.4402 97.5252 36.5302C98.4829 36.6143 99.2944 36.3994 100.061 36.1964C100.934 35.965 101.749 35.7492 102.655 36.0102L102.425 36.1202L102.715 36.0302C103.15 36.022 103.59 36.0037 104.038 35.9851C105.775 35.9128 107.635 35.8354 109.805 36.3202C111.115 36.6102 112.675 37.2502 113.925 38.1702C114.535 38.6002 115.265 39.2502 115.825 39.9302C116.405 40.6202 116.905 41.3802 117.285 42.2002C118.065 43.8402 118.315 45.7102 118.005 47.5202L117.665 48.8502C117.583 49.1796 117.439 49.4977 117.296 49.813C117.248 49.919 117.2 50.0246 117.155 50.1302C116.975 50.5502 116.745 50.9602 116.465 51.3602C116.225 51.7302 116.015 52.0402 115.775 52.3202C114.745 53.6302 113.635 54.5402 112.535 55.3702C111.572 56.1055 110.617 56.6952 109.67 57.2802L109.669 57.2803C109.606 57.3191 109.544 57.3579 109.481 57.3968C109.409 57.4412 109.337 57.4857 109.265 57.5302C108.523 57.9702 107.789 58.3913 107.065 58.8064C105.683 59.5991 104.338 60.3702 103.045 61.2102C102.425 61.6202 101.605 62.0902 100.935 62.3002C98.5953 62.9831 96.3109 63.7423 94.039 64.4973C89.9899 65.8429 85.9801 67.1755 81.7652 68.0402C80.9453 68.1985 80.1294 68.3703 79.3151 68.5417C76.9911 69.0309 74.6801 69.5173 72.3252 69.6802L72.0452 69.6602L72.2452 69.7202C71.9252 69.9802 71.3252 70.2602 70.7452 70.2602C68.4691 70.2214 66.1776 70.466 63.9066 70.7085L63.9065 70.7085L63.9064 70.7086C62.0866 70.9029 60.2801 71.0957 58.5052 71.1402C55.6652 71.2102 52.8352 71.3702 50.0452 71.5402C48.3646 71.638 46.7326 71.7769 45.0739 71.918L45.0734 71.918C44.0179 72.0079 42.9517 72.0986 41.8552 72.1802C41.231 72.226 40.5961 72.2689 39.9517 72.308C39.6987 72.6131 39.4513 72.9296 39.2052 73.2502C36.6352 76.7702 35.2552 81.5702 35.8852 85.4302C36.0452 86.2702 36.2452 87.0802 36.5752 87.8102L36.8152 88.3602C36.8752 88.4902 36.9352 88.5902 37.0252 88.7302C37.1952 88.9902 37.4252 89.3202 37.7352 89.6802C38.8852 91.0902 40.3152 92.2602 41.9952 93.2502C45.3652 95.2402 49.7352 96.4002 54.3952 97.3302C55.556 97.5624 56.7805 97.6634 58.0267 97.7663H58.0268C58.874 97.8362 59.7312 97.9069 60.5852 98.0202C60.8215 98.051 61.0546 98.0816 61.285 98.1119L61.2856 98.1119C62.927 98.3275 64.4307 98.525 65.9652 98.6302C67.4309 98.7475 68.8895 98.8086 70.347 98.8136L70.3687 98.7574C71.0986 96.8632 71.8962 94.7936 73.3552 93.2502C73.8352 92.7302 74.2452 92.4902 74.6352 92.3802C74.6239 92.4481 74.5329 92.5544 74.4417 92.6609C74.2911 92.837 74.1396 93.014 74.3452 93.0202L74.6852 92.3502C75.4252 91.7902 75.9452 91.2002 76.3952 90.4402C76.9552 89.4902 77.7252 88.5902 78.7352 88.5002L78.2452 89.4002L78.1852 89.5802L78.3452 89.3702L78.8252 88.4702C79.4252 87.6602 80.0652 86.9302 81.1252 86.6202C81.3783 86.5471 81.6322 86.4819 81.8882 86.4161L81.8885 86.4161L81.8886 86.4161C82.5428 86.248 83.2109 86.0764 83.9152 85.7602C85.8352 84.9202 84.9552 85.0302 84.1252 85.1802C84.2262 85.0666 84.3221 84.9401 84.4182 84.8135C84.6265 84.5389 84.8351 84.264 85.0952 84.1202C86.6752 83.2002 88.4252 82.3102 90.1152 81.9402C91.1651 81.7302 90.9528 82.0578 90.7265 82.407C90.5648 82.6564 90.396 82.9169 90.6752 83.0002C91.4922 82.6428 91.7008 82.3071 91.9112 81.9685C91.9481 81.9092 91.985 81.8498 92.0252 81.7902C92.2752 81.4202 92.8852 81.0502 93.7252 81.0802C95.6652 81.1402 97.4752 81.4202 99.1752 82.1302C100.855 82.8202 102.475 84.0702 103.195 85.9602C103.835 87.6302 104.135 89.5402 103.275 91.3002C102.685 92.4702 102.385 93.2302 102.245 94.1402C102.115 95.1002 101.805 96.6302 100.165 96.4102C99.9352 96.3802 99.4652 96.8902 99.3052 97.2102C98.7124 98.4665 97.0162 99.5975 95.5596 100.569L95.5595 100.569C95.3697 100.695 95.1839 100.819 95.0052 100.94C91.9052 103.05 91.7752 102.96 91.0852 101.63C90.4287 101.979 89.7184 102.28 89.0253 102.574L89.025 102.574C87.6487 103.157 86.3402 103.712 85.6552 104.55C85.3752 104.88 84.2252 105.21 83.7052 104.97C82.3812 104.343 80.4527 105.212 79.7349 105.536L79.7252 105.54C78.5811 106.07 77.5111 106.058 76.452 106.023C76.5115 106.347 76.5793 106.673 76.6552 107C76.7852 107.56 76.9352 108.12 77.1052 108.69C77.1237 108.746 77.1417 108.8 77.1593 108.854C77.1731 108.896 77.1866 108.937 77.2 108.978C77.3358 109.393 77.4555 109.758 77.6352 110.15C78.0052 111.1 78.5652 111.99 79.1552 112.87C80.3852 114.61 82.0552 116.16 83.9552 117.48C85.7652 118.7 87.7052 119.9 89.7952 120.94C91.8852 122 94.1752 122.96 96.5452 123.84C97.1177 124.045 97.6552 124.335 98.1931 124.625C98.4162 124.746 98.6394 124.866 98.8652 124.98C100.185 125.64 100.095 126.03 99.0152 126.01C97.6052 125.99 96.3852 126 96.5552 126.85L96.3552 126.9H96.6052C96.6669 126.917 96.727 126.937 96.7867 126.956L96.7868 126.956C96.8722 126.985 96.957 127.013 97.0452 127.03C98.4981 127.368 98.347 127.633 98.2066 127.878C98.1267 128.018 98.0503 128.152 98.2752 128.29C99.0787 128.786 99.5283 128.7 99.9884 128.613C100.336 128.547 100.689 128.48 101.205 128.66C101.335 128.7 101.535 128.79 101.555 128.84C102.203 130.09 104.026 130.589 105.986 131.126L105.988 131.127C106.114 131.161 106.239 131.195 106.365 131.23C107.025 131.42 107.575 131.83 107.325 132.01L107.335 131.96ZM71.4002 105.718L71.412 105.762L71.3752 105.75C71.3834 105.739 71.3917 105.729 71.4002 105.718ZM70.9052 61.0702C65.2145 61.9573 59.4258 62.4971 53.5644 62.782C54.378 62.2628 55.1916 61.744 56.0052 61.2252C57.5852 60.2177 59.1652 59.2102 60.7452 58.2002C63.9052 56.2902 67.1852 54.5902 70.5952 53.1602C71.2129 52.904 71.8392 52.6693 72.4684 52.4335L72.4685 52.4335C72.7969 52.3104 73.126 52.1871 73.4552 52.0602C74.4252 51.7202 75.3752 51.3502 76.3252 50.9502C80.4952 49.1802 84.8452 47.7702 89.2752 46.7202C93.7152 45.6802 98.2352 45.0002 102.755 44.6502C104.475 44.5102 105.925 44.4702 106.975 44.6502C107.245 44.7002 107.475 44.7502 107.695 44.8202C107.915 44.8902 108.035 44.9302 108.215 45.0202C108.375 45.0902 108.555 45.2002 108.665 45.2902C108.735 45.3302 108.825 45.3902 108.885 45.4602C109.165 45.7302 109.265 46.2002 109.065 46.5702C109.051 46.6125 109.032 46.6349 109.015 46.6549C109.008 46.6633 109.001 46.6713 108.995 46.6802C108.982 46.6973 108.968 46.7214 108.952 46.7496C108.921 46.8042 108.881 46.8744 108.815 46.9402C108.655 47.1402 108.485 47.3502 108.245 47.5702C107.815 48.0102 107.225 48.4502 106.615 48.8602C106.427 48.9826 106.23 49.1405 106.04 49.2921L106.005 49.3202C103.735 51.0502 100.865 52.5502 97.9052 53.8202C94.9352 55.0902 91.8152 56.1602 88.6652 57.0602C85.7452 57.8902 82.7752 58.6802 79.8352 59.3702C76.9252 60.0302 73.9152 60.6102 70.9052 61.0702ZM81.4752 97.8902C79.9874 98.1507 78.4879 98.3586 76.9776 98.5103C77.0155 98.4291 77.0547 98.3491 77.0952 98.2702C77.4852 97.5202 77.8452 97.0302 78.7952 95.9702C81.0852 93.3902 83.7352 91.1302 86.6352 89.2402C89.5752 87.3002 92.5352 85.9102 94.7452 85.9802C95.6952 85.9802 96.7552 86.3302 97.3652 86.8002C97.6652 87.0302 97.8852 87.2602 97.9852 87.4602C98.0852 87.6502 98.1552 87.8202 98.1752 88.1102C98.2352 88.6602 98.0152 89.6502 97.4852 90.4602C96.9652 91.2902 96.0252 92.2102 94.7952 93.0502C93.9552 93.6302 92.9452 94.2002 91.8452 94.7002C91.3152 94.9602 90.7652 95.2102 90.2052 95.4302L90.0832 95.4804L90.0829 95.4805C89.5649 95.6935 89.0529 95.9041 88.5152 96.0802C86.2352 96.8902 83.8552 97.4702 81.4752 97.8902ZM48.2352 7.26023L48.5052 7.22023V7.13023L48.2352 7.26023ZM22.7252 16.7902L22.4921 16.9748L22.4552 16.9102L22.7252 16.7902ZM18.8552 19.4002C18.9433 19.3362 19.025 19.2529 19.1053 19.1709L19.1056 19.1706C19.1255 19.1503 19.1453 19.1301 19.1652 19.1102L18.8952 19.1902C18.8552 19.2202 18.8085 19.2513 18.7619 19.2825C18.6685 19.3447 18.5752 19.4069 18.5352 19.4602C18.3452 19.6902 18.4752 19.6702 18.8552 19.4002ZM15.0252 22.2302L15.2852 22.0802L15.2552 22.0002L15.0252 22.2202V22.2302ZM9.63519 26.9802L9.84519 26.9102C9.93445 26.8278 10.0296 26.7832 10.1246 26.7386C10.3063 26.6533 10.4873 26.5683 10.6252 26.2202L9.87519 26.8402L9.63519 26.9802ZM7.14812 30.521L7.14815 30.521C7.21531 30.457 7.28182 30.3936 7.34519 30.3302L7.83519 29.5702C7.78824 29.6144 7.74053 29.6571 7.69311 29.6995L7.69299 29.6996C7.56874 29.8107 7.44649 29.92 7.34519 30.0502C7.16519 30.2902 7.00519 30.5502 6.84519 30.8202C6.94181 30.7176 7.04572 30.6186 7.14812 30.521ZM28.4052 84.9002L28.3652 84.5802L28.3252 84.8702L28.4052 84.9002ZM42.3352 101.7C42.4152 101.59 42.2352 101.46 41.8852 101.33C41.8189 101.304 41.757 101.312 41.6937 101.321C41.6615 101.326 41.6289 101.33 41.5952 101.33C41.5452 101.45 41.6952 101.6 42.0552 101.72C42.1552 101.75 42.3052 101.73 42.3352 101.7ZM77.8152 100.66C77.8743 100.654 77.9292 100.617 77.9825 100.581C78.0103 100.562 78.0378 100.544 78.0652 100.53L77.9452 100.4L77.8999 100.411C77.7915 100.438 77.6753 100.466 77.6052 100.51C77.3452 100.65 77.4352 100.72 77.8152 100.67V100.66ZM78.9052 103.71C78.8864 103.698 78.8705 103.683 78.8546 103.669C78.8195 103.637 78.7839 103.604 78.7152 103.59C78.4152 103.52 78.2252 103.57 78.2652 103.72C78.2652 103.742 78.3598 103.758 78.4461 103.774H78.4462C78.4789 103.779 78.5105 103.785 78.5352 103.79L78.9052 103.71ZM81.7652 104.05H81.5052L81.4652 104.13L81.7652 104.05ZM89.2052 100.28L89.4641 100.165L89.4452 100.25L89.2052 100.28ZM93.6952 100.6C93.4852 100.71 93.2952 100.89 93.1752 101.04C93.0052 101.24 93.1652 101.3 93.4652 101.16C93.6278 101.086 93.7466 100.963 93.8662 100.84C93.9085 100.796 93.9508 100.752 93.9952 100.71C94.1152 100.51 93.9952 100.45 93.6952 100.6ZM96.6452 82.9102C96.6752 83.0702 96.8452 83.1402 97.1052 83.1002C97.2752 83.0702 97.4752 83.0302 97.5052 82.9502C97.5652 82.8102 97.3152 82.6902 97.0452 82.7302C96.9183 82.7452 96.8304 82.7991 96.74 82.8546C96.7092 82.8734 96.6782 82.8925 96.6452 82.9102ZM78.1052 90.8202C78.1052 90.8202 78.2552 90.8102 78.3352 90.8002C78.3472 90.7909 78.3605 90.7808 78.3745 90.7703C78.3894 90.7591 78.4051 90.7475 78.4211 90.7356C78.5021 90.6756 78.5879 90.6119 78.5952 90.5902C78.6252 90.5102 78.6152 90.4202 78.5552 90.4302C78.3252 90.4802 78.1352 90.6402 78.0952 90.8302L78.1052 90.8202ZM75.6952 92.8702L75.8352 92.7302L75.7152 92.7002L75.6952 92.8602V92.8702ZM93.7052 126.33C93.6416 126.319 93.5766 126.307 93.5113 126.294L93.5112 126.294C93.34 126.261 93.1671 126.227 93.0152 126.22C92.6852 126.19 92.6752 126.31 92.9952 126.45C93.1852 126.53 93.4752 126.56 93.6752 126.57C93.9952 126.59 93.9952 126.5 93.7052 126.33ZM109.125 133.06C108.655 132.9 108.385 132.92 108.445 133.13C108.465 133.22 108.785 133.44 108.995 133.53C109.455 133.72 109.725 133.67 109.675 133.47C109.661 133.404 109.479 133.29 109.308 133.182L109.308 133.182L109.307 133.182C109.246 133.143 109.186 133.105 109.135 133.07L109.125 133.06ZM78.6652 121.2L78.4452 120.94H78.6052C78.6237 120.961 78.6443 120.984 78.6654 121.007C78.7239 121.071 78.7858 121.139 78.8152 121.19C78.8225 121.212 78.7663 121.207 78.7159 121.203C78.697 121.202 78.6788 121.2 78.6652 121.2Z" fill="#091818"/>
</g>
<defs>
<filter id="filter0_d_6538_1288" x="0.779297" y="0.0292969" width="119.355" height="138.62" filterUnits="userSpaceOnUse" color-interpolation-filters="sRGB">
<feFlood flood-opacity="0" result="BackgroundImageFix"/>
<feColorMatrix in="SourceAlpha" type="matrix" values="0 0 0 0 0 0 0 0 0 0 0 0 0 0 0 0 0 0 127 0" result="hardAlpha"/>
<feOffset dx="2" dy="5"/>
<feComposite in2="hardAlpha" operator="out"/>
<feColorMatrix type="matrix" values="0 0 0 0 0.866667 0 0 0 0 0.941176 0 0 0 0 0.858824 0 0 0 1 0"/>
<feBlend mode="normal" in2="BackgroundImageFix" result="effect1_dropShadow_6538_1288"/>
<feBlend mode="normal" in="SourceGraphic" in2="effect1_dropShadow_6538_1288" result="shape"/>
</filter>
</defs>
</svg>
