<svg width="25" height="24" viewBox="0 0 25 24" fill="none" xmlns="http://www.w3.org/2000/svg">
<g id="Group 45">
<path id="Vector" d="M24.4461 11.1797C24.2535 10.2005 24.0095 9.71686 23.7419 9.44194C23.2406 8.92445 22.7393 8.75098 22.2409 8.73628C21.3397 8.70834 20.4473 8.99796 19.5447 8.9715C18.0275 8.92886 16.528 9.43753 15.0108 9.41842C13.8641 9.40372 12.7276 9.7492 11.5839 9.88593C10.9311 9.96384 10.2828 10.1035 9.62417 10.0344C8.85969 9.95355 8.10404 10.2064 7.34398 10.3211C6.35016 10.471 5.35635 10.6078 4.364 10.7871C3.93031 10.865 3.49956 10.9782 3.06293 10.9797C2.61453 10.9797 2.16908 11.0532 1.71775 10.9841C1.21055 10.9077 0.7107 11.2311 0.194681 10.865C0.0991216 10.7959 0.0109131 10.9871 0.000622129 11.4266C-0.00819872 11.8045 0.0785396 12.0059 0.149106 12.1117C0.341695 12.3999 0.528403 12.7733 0.713641 13.1614C0.80773 13.3584 0.900349 13.4834 1.00179 13.5525C1.50311 13.8935 2.00295 13.9259 2.49692 13.9259C3.20112 13.9244 3.90091 13.7818 4.60069 13.6157C4.90354 13.5436 5.2108 13.8406 5.51071 13.6951C5.60627 13.648 5.7033 13.6054 5.80033 13.6083C6.20756 13.6201 6.6192 13.7377 7.02349 13.6554C7.74092 13.5113 8.46864 13.7745 9.18313 13.5936C9.20812 13.5877 9.23311 13.5833 9.25663 13.5995C9.78735 13.9479 10.3078 13.7039 10.8253 13.6201C11.5662 13.501 12.3101 13.4157 13.0481 13.2099C13.2128 13.1643 13.3848 13.4775 13.5392 13.3231C13.9096 12.9497 14.3007 13.1129 14.6785 12.985C15.4886 12.713 16.3133 12.91 17.1292 12.8174C17.2763 12.8012 17.4233 12.7027 17.5703 12.7762C17.7776 12.8806 17.9746 12.8262 18.1716 12.6748C18.2495 12.6145 18.3348 12.6366 18.4156 12.6395C18.7655 12.6513 19.1169 12.738 19.4638 12.6674C19.8696 12.5836 20.2812 12.7703 20.687 12.7042C21.0045 12.6527 21.325 12.738 21.644 12.7659C22.0351 12.8012 22.4232 12.6674 22.8128 12.6072C23.1877 12.5498 23.5626 12.494 23.9874 12.4293C24.1109 12.6145 24.2491 12.1808 24.4109 12.122C24.5579 12.0691 24.5579 11.7324 24.4491 11.1782L24.4461 11.1797Z" fill="#DD5621"/>
<path id="Vector_2" d="M12.1179 22.6799H12.1194H12.0973C12.0679 22.6769 12.0371 22.6799 12.0091 22.6872C11.9533 22.7005 11.8989 22.7357 11.8577 22.7754C11.7724 22.8607 11.7239 22.9798 11.7048 23.0989C11.6739 23.34 11.7386 23.5958 11.9709 23.7972C12.0826 23.8957 12.2635 23.9795 12.4869 23.9986C12.6075 24.003 12.7295 23.9986 12.8618 23.9633C12.928 23.9457 12.9927 23.9236 13.0573 23.8971C13.0985 23.8854 13.1382 23.8707 13.1794 23.8545C13.5101 23.7281 13.7851 23.4429 13.9394 23.2135C14.0909 22.9886 14.1761 22.8048 14.2482 22.6563L14.3393 22.4564C14.3658 22.3976 14.3908 22.3447 14.4143 22.3226C14.5069 22.205 14.5819 22.0889 14.6392 21.9698C14.7568 21.7346 14.8098 21.4979 14.8245 21.2597C14.8774 20.4012 14.6142 19.5441 14.6657 18.6855C14.7524 17.2418 14.2864 15.7996 14.3481 14.3545C14.3952 13.2621 14.082 12.1698 13.9791 11.079C13.9188 10.4556 13.7983 9.83378 13.8865 9.2075C13.9894 8.48272 13.7571 7.755 13.6645 7.02875C13.544 6.07756 13.4337 5.12785 13.2837 4.17667C13.2176 3.76209 13.1176 3.34751 13.1294 2.93146C13.1411 2.50512 13.0823 2.07878 13.1632 1.6495C13.2543 1.16729 12.9441 0.683616 13.3264 0.20288C13.3969 0.113201 13.2102 0.0235223 12.7707 0.00294034C12.3928 -0.0161715 12.1885 0.061746 12.0826 0.124962C11.7886 0.301379 11.4093 0.467505 11.0168 0.633631C10.8168 0.717429 10.6904 0.802697 10.6184 0.896786C10.2626 1.36576 10.2156 1.83915 10.2023 2.31106C10.1847 2.98145 10.3067 3.6533 10.4523 4.32222C10.5155 4.61183 10.2097 4.89704 10.3479 5.18666C10.392 5.27928 10.4317 5.3719 10.4273 5.46452C10.4037 5.85263 10.2744 6.24075 10.3449 6.62887C10.4684 7.31542 10.1847 8.00198 10.3449 8.68707C10.3508 8.71059 10.3538 8.73411 10.3376 8.75763C9.97446 9.25454 10.2038 9.75586 10.2714 10.2513C10.3699 10.9599 10.4346 11.6715 10.6184 12.3801C10.6595 12.5388 10.3405 12.6932 10.4905 12.8446C10.8536 13.2078 10.6787 13.5753 10.7948 13.9399C11.0432 14.7191 10.8242 15.4997 10.8918 16.2789C10.9036 16.42 10.9991 16.5626 10.9212 16.7008C10.811 16.8949 10.8595 17.0845 11.005 17.2756C11.0624 17.3521 11.0388 17.4315 11.033 17.5094C11.0109 17.8416 10.9139 18.1754 10.9756 18.5061C11.0477 18.8957 10.8492 19.2824 10.9051 19.6705C10.9477 19.9748 10.8536 20.2777 10.8154 20.5805C10.7698 20.9525 10.8918 21.3244 10.9403 21.6978C10.9639 21.8772 10.9859 22.0565 11.0109 22.2418L11.0197 22.3109C11.0227 22.3344 11.0256 22.3609 11.0285 22.3667C11.03 22.3726 11.0315 22.3726 11.033 22.377C11.033 22.3785 11.033 22.377 11.0344 22.3785L11.1035 22.3829C11.1976 22.3873 11.2755 22.3917 11.3608 22.3991C11.424 22.4035 11.4931 22.4108 11.5534 22.4167C11.7769 22.4417 11.915 22.4755 12.0135 22.5093C12.1106 22.5431 12.1591 22.5828 12.1679 22.5917C12.1723 22.5961 12.1708 22.5961 12.1694 22.5917C12.3193 22.8107 12.2105 22.6519 12.2444 22.7019C12.2444 22.7005 12.2458 22.7049 12.2444 22.699C12.2414 22.6916 12.2355 22.6549 12.2429 22.6284C12.2488 22.6005 12.262 22.5828 12.2488 22.602C12.2399 22.6181 12.1958 22.6608 12.1547 22.674C12.1194 22.6858 12.1165 22.6755 12.1297 22.6828C12.14 22.6872 12.1576 22.7005 12.1576 22.7034C12.1606 22.7063 12.1591 22.7034 12.1517 22.6975C12.1473 22.6946 12.1429 22.6902 12.1341 22.6858C12.1297 22.6828 12.1282 22.6813 12.1209 22.6799H12.1179Z" fill="#DD5621"/>
</g>
</svg>
