<svg width="72" height="17" viewBox="0 0 72 17" fill="none" xmlns="http://www.w3.org/2000/svg">
<path fill-rule="evenodd" clip-rule="evenodd" d="M71.2085 9.90124C71.1814 9.65801 71.1139 9.32019 70.9517 9.14452L71.0328 9.13101C70.8707 8.95534 70.8977 9.2256 70.9788 9.54991C71.0059 9.63674 71.0352 9.72576 71.0649 9.81608C71.1093 9.95064 71.1545 10.0881 71.195 10.2256C71.1679 10.2391 71.1409 10.2526 71.1004 10.2391C70.5035 8.77067 70.0727 8.51105 69.6543 8.25889C69.4759 8.15137 69.2998 8.04521 69.114 7.84728L69.0869 7.92836V7.80674C68.993 7.16645 68.8074 6.48302 68.6222 5.80073C68.5142 5.40307 68.4063 5.0058 68.3167 4.61769C67.9789 3.1583 68.0059 3.03668 68.5599 3.42856C68.5888 3.50425 68.6157 3.58571 68.6425 3.66678C68.7161 3.88966 68.7888 4.10962 68.8978 4.19879C68.9924 4.26636 69.0194 4.15825 68.9653 3.92853C68.8568 3.47015 68.7267 3.34558 68.6039 3.228C68.5891 3.21386 68.5744 3.19983 68.5599 3.18532C68.1559 1.91697 67.9569 1.92592 67.7694 1.93436C67.7312 1.93608 67.6935 1.93778 67.6546 1.92862C67.4595 1.88197 67.2604 1.81934 67.0623 1.75703C66.6293 1.62082 66.2012 1.48615 65.8303 1.52324C65.5653 1.54311 65.2775 1.44603 64.9925 1.34987C64.6962 1.24992 64.4029 1.15098 64.1412 1.18541C64.0684 1.19087 63.9958 1.19732 63.9234 1.20375C63.458 1.24506 62.9973 1.28596 62.5062 1.0638C61.818 0.737457 61.1783 0.761227 60.5361 0.785086C59.9551 0.806672 59.3722 0.828332 58.7496 0.590845C58.2096 0.388347 57.6696 0.52302 57.123 0.659335C56.7942 0.741334 56.463 0.823927 56.1281 0.834078C55.5648 0.852851 54.9935 0.835762 54.4157 0.818479C53.3299 0.786003 52.2213 0.752845 51.1013 0.955694C50.5589 1.05544 50.0107 1.05165 49.4568 1.04781C48.8102 1.04333 48.1557 1.0388 47.4933 1.19893C46.9553 1.32368 46.4173 1.36296 45.8766 1.40242C45.4804 1.43134 45.0827 1.46037 44.6826 1.52324C44.2857 1.58786 43.8887 1.69033 43.4912 1.79293C42.725 1.9907 41.9568 2.18898 41.1828 2.1178C40.9531 2.09078 40.7233 2.10429 40.5071 2.25293C40.0974 2.53973 39.6927 2.5433 39.2869 2.54687C39.0235 2.54919 38.7596 2.55152 38.4937 2.6313C38.1499 2.73507 37.8062 2.72677 37.4624 2.71847C37.09 2.70948 36.7176 2.70048 36.3452 2.83399C35.4902 3.13413 34.6353 3.22001 33.7803 3.30589C33.365 3.3476 32.9498 3.38932 32.5345 3.45558L29.1968 4.02313C28.8548 4.08799 28.5128 4.11682 28.172 4.14557C27.7317 4.1827 27.2932 4.21967 26.8591 4.33392C26.5733 4.41161 26.2881 4.49613 26.0031 4.58058C24.9001 4.90747 23.8004 5.23338 22.6836 5.15821C22.5079 5.1447 22.3323 5.15821 22.1566 5.21226L21.9656 5.27544C20.5968 5.72854 19.2264 6.18219 17.819 6.11763C17.775 6.1147 17.7305 6.1086 17.6859 6.10249C17.5245 6.0804 17.362 6.05816 17.2244 6.18519C16.6186 6.71925 15.9658 6.7596 15.3131 6.79995C14.8593 6.828 14.4056 6.85605 13.9678 7.05002C13.0999 7.43315 12.1958 7.44981 11.2895 7.46651C10.6295 7.47867 9.96843 7.49085 9.31933 7.64459C8.18425 7.90133 7.02213 8.10402 5.833 7.94187C5.72498 7.92727 5.61618 7.91 5.50702 7.89266C4.60557 7.74952 3.6794 7.60245 2.96826 8.92831C2.9007 9.04993 2.80611 9.03642 2.71152 9.00939C2.25391 8.87865 1.84149 9.12224 1.42964 9.36549C1.24556 9.47422 1.06159 9.58288 0.873759 9.65801C0.562962 9.77963 0.306217 10.1715 0.346756 11.5633C1.63048 13.7254 2.75205 14.0362 3.83309 14.0362C4.38997 14.046 4.95392 14.2182 5.51472 14.3895C5.72957 14.4551 5.94396 14.5206 6.15731 14.5767C6.40456 14.6385 6.65575 14.773 6.90562 14.9068C7.31122 15.1239 7.71338 15.3392 8.08965 15.2388C8.48981 16.2745 8.83985 16.2442 9.19003 16.2138C9.44295 16.1919 9.69594 16.1699 9.96795 16.5496C10.2923 17.009 10.495 16.3334 10.2923 14.6172C10.8328 16.482 10.8733 16.4685 10.9003 14.7254C10.9003 14.6461 10.8864 14.5483 10.8722 14.4483L10.8722 14.4483C10.8621 14.3777 10.8519 14.306 10.8463 14.2389L10.7787 13.8876C10.7707 13.8636 10.7769 13.8301 10.7833 13.7956V13.7956C10.7877 13.7718 10.7922 13.7475 10.7922 13.7254L10.8058 13.6173V13.7524L10.8463 14.1983C10.9918 14.2274 11.0315 14.5973 11.071 14.9642C11.1048 15.2788 11.1384 15.5912 11.2382 15.6848V15.7118C11.2787 16.1847 11.3598 16.5901 11.4814 16.4955C11.6436 16.3739 11.6571 15.8604 11.5625 15.1983L11.5219 15.0632L11.5625 15.1443C11.6512 15.2656 11.7367 15.4532 11.8228 15.6422L11.8228 15.6422L11.8228 15.6422C11.986 16.0003 12.1517 16.3636 12.3462 16.2928C12.8192 16.1172 13.3056 16.2658 13.8056 16.4415C14.3191 16.6307 14.4677 16.0496 14.4677 14.2794C14.4677 13.7659 14.5218 13.4957 14.6164 13.5632C14.7785 13.6755 14.745 14.0754 14.7176 14.402L14.711 14.4821C14.6704 14.8335 14.6569 15.2253 14.711 15.6442C14.7515 15.9685 14.8461 16.482 14.9002 16.2928C15.0384 15.8054 15.2276 15.9996 15.4171 16.1941C15.5795 16.3608 15.7421 16.5278 15.8731 16.2658C15.9445 16.123 16.0338 16.1209 16.1256 16.1187C16.2594 16.1155 16.3985 16.1123 16.4947 15.6713C16.54 15.4811 16.7127 15.7157 16.8868 15.9522C16.9724 16.0686 17.0585 16.1854 17.1298 16.2523C17.1703 16.2928 17.2244 16.2928 17.2514 16.2388C17.4669 15.8438 17.73 15.9445 17.9939 16.0454C18.3259 16.1724 18.6591 16.2998 18.9 15.4415C18.9135 15.374 18.9946 15.401 19.0216 15.4821C19.4818 16.6785 19.4814 15.5979 19.4811 14.5056V14.5056L19.481 14.4146C19.481 13.9968 19.5549 13.832 19.628 13.6689C19.6376 13.6474 19.6473 13.6258 19.6567 13.6038L19.6702 13.5227V13.6578C19.6432 14.5227 19.6162 15.8469 19.8999 15.928C19.9923 15.9588 20.0891 16.0279 20.1871 16.098C20.4332 16.2739 20.6873 16.4555 20.8999 16.0496L21.9404 15.7388C22.3449 16.4805 22.7083 16.1855 23.0647 15.8961C23.2083 15.7795 23.3508 15.6638 23.4944 15.6172C23.8187 15.5226 24.2376 15.374 24.4673 14.1848C24.5071 13.574 24.6122 13.2111 24.7569 12.7115L24.7646 12.6849C24.8118 13.4499 24.7072 13.6868 24.6077 13.9124C24.5648 14.0095 24.5228 14.1046 24.4943 14.2389C24.5754 16.1037 24.5889 16.1172 24.9673 15.8739C25.1294 15.7658 25.2781 15.6037 25.4267 15.3605L25.4531 15.315C25.637 14.9981 25.855 14.6224 26.0483 15.0091C26.2066 15.3256 26.3019 15.1502 26.3976 14.9741L26.3976 14.9741C26.449 14.8795 26.5004 14.7848 26.5618 14.7659V14.8064C26.6868 16.1815 26.9275 15.9723 27.1447 15.7835C27.1623 15.7682 27.1797 15.753 27.1969 15.7388C27.805 15.2524 28.4266 15.2794 29.0617 15.5091C29.6225 15.7059 30.1761 15.6161 30.7278 15.5267C30.9338 15.4933 31.1396 15.4599 31.3454 15.4415C31.385 15.4316 31.4174 15.2762 31.4479 15.1301C31.4589 15.0771 31.4697 15.0253 31.4805 14.9821C31.4129 14.7794 31.3454 14.2524 31.3724 14.2389C31.4617 14.1983 31.4632 14.3964 31.4648 14.6022C31.4659 14.7392 31.467 14.8795 31.494 14.9551C31.5114 15.0027 31.5301 15.0671 31.5489 15.1316L31.5489 15.1317C31.5886 15.2684 31.6286 15.4058 31.6562 15.3875C31.8126 15.3116 31.9741 15.3822 32.1353 15.4526C32.4335 15.5829 32.7308 15.7127 32.994 14.9145C33.0043 14.8886 33.0137 14.8607 33.0226 14.8343C33.0599 14.7232 33.088 14.6395 33.1426 14.847C33.3858 15.7253 33.5345 15.2253 33.6831 14.4146C33.7777 13.9416 33.8318 13.9957 33.8858 14.8064C33.9263 15.374 33.9804 15.4415 34.102 15.401C34.575 15.2253 35.0344 15.1307 35.5074 15.3064C35.6669 15.3717 35.8109 15.1605 35.9582 14.9446C36.0852 14.7583 36.2147 14.5685 36.3587 14.5497C36.4803 14.5362 36.5343 13.9011 36.5208 13.347L36.3857 12.4146L36.156 12.3471C36.0938 12.6166 36.0236 12.8861 35.9455 13.1862L35.9453 13.1869L35.9451 13.1876C35.9216 13.2782 35.8972 13.3716 35.8722 13.4687C35.8902 12.784 35.9803 12.3966 36.1425 12.3065C36.2371 11.9552 36.3181 11.9012 36.3992 12.3471C36.4803 12.6038 36.5208 12.9416 36.5343 13.32C36.7214 13.3746 36.7062 13.8021 36.6909 14.232C36.6797 14.5476 36.6684 14.8645 36.737 15.0361C36.9537 14.794 37.0141 14.059 37.0656 13.432L37.0749 13.32C37.1222 12.7921 37.2171 12.915 37.3084 13.0335C37.3995 13.1515 37.4871 13.265 37.5208 12.7254C37.5236 12.6837 37.5252 12.6357 37.5269 12.5867V12.5866C37.5333 12.3975 37.5403 12.1937 37.6154 12.2795C37.6559 12.3201 37.6559 12.6984 37.6559 12.9146C37.6502 13.2442 37.5872 13.4448 37.5221 13.6519C37.4324 13.9374 37.3387 14.2354 37.3857 14.901C37.5141 14.8516 37.649 14.8825 37.7841 14.9134C38.203 15.0094 38.6235 15.1057 38.8586 12.8065L38.9667 12.9552L38.9261 13.266L39.0072 13.1443C39.0579 13.3117 39.0668 13.5798 39.0759 13.856C39.091 14.3159 39.1069 14.798 39.318 14.874C39.318 14.4138 39.3915 14.1072 39.4671 13.7922C39.5468 13.4598 39.6288 13.1181 39.6288 12.5768C39.6288 12.4425 39.6018 12.3115 39.5751 12.1814C39.5237 11.9318 39.4731 11.6858 39.6153 11.4282C39.7041 11.2748 39.7495 11.4976 39.7976 11.7335C39.83 11.8925 39.8636 12.0575 39.9126 12.1174L39.9531 11.9957L39.9261 12.1444C39.9204 12.5334 39.8889 12.9129 39.8571 13.2968V13.2969V13.2969C39.8125 13.8332 39.7673 14.3779 39.791 14.9686C39.8619 14.9585 39.91 14.9483 39.9581 14.9382L39.9581 14.9382C39.9742 14.9348 39.9903 14.9314 40.0072 14.928L40.027 14.9224C40.2086 14.8713 40.3777 14.8237 40.5342 14.1848C40.5987 13.9203 40.6416 14.1333 40.6895 14.3708C40.7419 14.6306 40.8002 14.9196 40.899 14.6443C41.0148 14.3278 41.1438 14.2097 41.2735 14.0911C41.3708 14.0021 41.4684 13.9127 41.5611 13.7389C41.5704 13.6048 41.5527 13.4565 41.5353 13.3096C41.5017 13.0273 41.4687 12.7503 41.6287 12.5903C41.6828 12.5363 41.7909 12.6444 41.7909 12.7795C41.8449 13.4281 41.7098 13.6038 41.5747 13.7524C41.5747 14.3065 41.6152 14.7118 41.7773 14.7389C41.8138 14.7447 41.8503 14.7518 41.8868 14.7589C42.2709 14.8336 42.6604 14.9093 42.9935 13.5768C43.0476 13.3605 43.2367 12.7254 43.2908 13.4957C43.389 15.0181 43.7103 14.7445 43.9507 14.5399L43.9507 14.5399C43.9749 14.5193 43.9983 14.4994 44.0205 14.4821C44.2783 14.2887 44.5337 14.38 44.7897 14.4715C45.1241 14.5911 45.4598 14.7111 45.8042 14.1983C46.1171 15.0052 46.4751 14.879 46.8354 14.752C47.0665 14.6705 47.2986 14.5887 47.5203 14.7524C48.0774 15.1648 48.6577 15.1666 49.2467 15.1684C49.7579 15.17 50.2756 15.1716 50.7905 15.4415C51.1959 15.6577 51.6958 15.9145 52.1282 15.1848C52.2856 14.9225 52.4175 15.0548 52.5734 15.211L52.5877 15.2253C53.0606 15.7388 53.5606 16.1172 54.0336 15.0361L54.0443 15.0128C54.1229 14.8415 54.2122 14.6468 54.2768 14.9956C54.4421 15.8943 54.6389 15.7743 54.8432 15.6499C54.9062 15.6115 54.9699 15.5727 55.0335 15.5632C55.1814 15.5447 55.3262 15.4582 55.4716 15.3713C55.7512 15.2042 56.0331 15.0358 56.3443 15.3469C56.601 15.6172 56.7091 15.0361 56.601 14.0227C56.4884 12.9081 56.6572 13.1255 56.8105 13.3228C56.8412 13.3623 56.8712 13.4011 56.8983 13.4281L56.9253 13.293L56.8983 13.4551C56.9929 15.3469 57.0334 15.6037 57.4253 15.3469C58.2768 14.7987 59.1586 14.905 60.0618 15.0138L60.062 15.0139C60.205 15.0311 60.3486 15.0484 60.4927 15.0632C60.9116 15.1172 61.2224 14.8335 61.4386 13.9821C61.5332 14.5632 61.6684 15.0902 61.871 15.2659C62.0332 15.4145 62.1954 15.2524 62.1954 14.7659C62.2089 14.4281 62.1548 13.8876 62.0737 13.6038C61.987 13.2859 61.921 13.4006 61.851 13.5221C61.8228 13.571 61.794 13.621 61.7629 13.6443C61.692 13.695 61.6211 13.7001 61.5501 13.7051C61.5265 13.7068 61.5028 13.7085 61.4792 13.7119C61.6954 13.1579 61.9116 12.6038 62.1548 11.9687L62.1551 11.9709L62.1557 11.9761L62.1561 11.9791C62.2229 12.5134 62.2632 12.8355 62.3035 13.1443C62.4386 14.6037 62.5602 15.0497 62.9386 15.0361C63.062 15.027 63.1823 14.9931 63.3032 14.9591C63.5397 14.8925 63.7784 14.8253 64.0466 14.9416C64.2223 15.0226 64.3304 14.4956 64.1547 13.8065C63.9983 13.212 64.0914 13.1971 64.1731 13.184C64.1972 13.1801 64.2204 13.1764 64.2358 13.1579C64.3845 12.9552 64.479 13.4416 64.5196 13.847C64.6142 15.0497 64.8439 15.2118 65.1412 15.1713C65.2249 15.1598 65.308 15.1471 65.3909 15.1345L65.391 15.1344C65.9902 15.043 66.5759 14.9536 67.2762 15.3334C67.7897 15.6037 68.3167 15.7253 68.6275 15.0632C68.6816 14.9551 68.7626 14.8605 68.8302 14.9551C69.3675 15.728 69.6418 15.4029 69.9099 15.0851C70.0261 14.9473 70.1412 14.8108 70.2761 14.7659C70.3977 14.9686 70.4788 14.9821 70.4788 14.7254C70.6815 14.6172 70.6815 14.2659 70.4518 13.6038C70.1206 13.0556 70.1947 12.8646 70.2665 12.6799C70.2796 12.646 70.2926 12.6124 70.3031 12.5768L70.3301 12.4822V12.6038L70.4653 13.5497C70.6938 13.4283 70.7562 12.9597 70.8182 12.4949C70.8735 12.0802 70.9283 11.6686 71.1004 11.5093C71.1619 11.4478 71.0523 11.2152 70.9427 10.9826C70.9078 10.9086 70.873 10.8346 70.8436 10.7661C70.695 10.4418 70.722 10.3877 71.0193 10.4553L71.2896 10.9147L71.2085 10.3877V9.90124ZM6.71134 13.1443L6.75188 13.1038V13.1173V13.2254L6.71134 13.1443ZM8.46802 13.5227L8.50856 13.5768L8.46802 13.6308V13.5227ZM9.13015 15.0091L9.17069 14.9686V15.0902L9.13015 15.0091ZM9.79957 14.7593L9.80579 14.7929L9.85985 14.901L9.81931 14.7659L9.79957 14.7593ZM9.73823 14.2794L9.76195 14.5562L9.73823 14.4281C9.7291 14.3916 9.73231 14.3489 9.73535 14.3084V14.3084V14.3083C9.73681 14.2889 9.73823 14.2699 9.73823 14.2524V14.2794ZM10.5219 9.61893C10.5477 9.61594 10.5716 9.61319 10.5895 9.65801L10.6031 9.6445C10.611 9.66427 10.6195 9.68404 10.6282 9.70436L10.6283 9.7047L10.6283 9.70475C10.6792 9.82323 10.7382 9.96052 10.7382 10.2256C10.7261 10.2215 10.7139 10.2211 10.7022 10.2207C10.6746 10.2197 10.649 10.2189 10.6301 10.1715C10.5977 10.0825 10.5702 9.96937 10.5418 9.85228C10.5227 9.77374 10.5031 9.69343 10.4814 9.61747C10.4951 9.62202 10.5087 9.62044 10.5219 9.61893ZM11.7246 14.1578L11.7652 14.1848H11.7517V14.32L11.7246 14.1578ZM12.6269 13.8564C12.6491 13.9245 12.6705 13.9907 12.6705 14.0497V14.0632C12.6705 14.124 12.6638 14.1815 12.657 14.2389L12.657 14.2389C12.6503 14.2963 12.6435 14.3538 12.6435 14.4146C12.603 14.4281 12.5759 14.3335 12.5759 14.1578L12.5796 14.121C12.5918 14.0004 12.603 13.8899 12.603 13.7794C12.6103 13.8052 12.6187 13.8309 12.6269 13.8564L12.6269 13.8564L12.6269 13.8564ZM13.5726 13.4736C13.5627 13.4477 13.533 13.3717 13.5218 13.3605C13.4678 13.32 13.4408 13.3876 13.4678 13.5092C13.4678 13.5359 13.4853 13.5391 13.5012 13.5421C13.5094 13.5436 13.5172 13.5451 13.5218 13.5497L13.5726 13.4736ZM13.2111 9.40126C13.2246 9.41478 13.2651 9.52288 13.2651 9.52288V9.53639L13.2111 9.61747C13.2053 9.60606 13.1948 9.60188 13.1846 9.5978C13.1705 9.59222 13.157 9.58684 13.157 9.56342C13.13 9.42829 13.157 9.36073 13.2111 9.40126ZM15.765 14.0902L15.792 14.1173V14.2524L15.765 14.0902ZM16.4136 13.5768V13.7254V13.7389L16.3866 13.7119L16.4136 13.5768ZM17.0757 13.5497C17.0893 13.4957 17.1568 13.5362 17.1703 13.6038C17.2244 13.8605 17.1838 14.0362 17.1433 14.1713C17.1028 14.2254 17.0622 14.1443 17.0622 13.9551C17.0487 13.8065 17.0487 13.6308 17.0757 13.5497ZM18.3344 13.3851C18.4401 13.1943 18.5555 12.9861 18.7378 13.0903H18.7513C18.6027 14.1173 18.4 14.0497 18.1568 13.6713L18.1162 13.5227L18.1568 13.6308C18.2196 13.5922 18.2755 13.4913 18.3344 13.3851ZM20.0351 12.9822C20.1026 12.9011 20.1567 13.1038 20.1567 13.4146C20.1498 13.4942 20.1455 13.5835 20.1412 13.6742C20.1286 13.9376 20.1155 14.2125 20.0351 14.2929C19.9675 14.374 19.9135 14.0902 19.9135 13.847C19.8864 13.4146 19.9405 13.0903 20.0351 12.9822ZM21.7219 13.1421L21.6972 13.1173V13.266L21.7219 13.1421ZM22.1971 14.1848C22.1566 13.9011 22.1836 13.6173 22.2512 13.6849V13.6984C22.3095 13.7567 22.3074 14.0162 22.3058 14.2252C22.3055 14.2584 22.3052 14.2903 22.3052 14.32C22.3052 14.4091 22.2906 14.4837 22.2761 14.5583C22.2663 14.6081 22.2566 14.6578 22.2512 14.7118L22.1701 14.9821C22.1451 14.7569 22.1767 14.7479 22.2077 14.7391C22.227 14.7336 22.246 14.7282 22.2512 14.6713L22.1971 14.1848ZM22.6836 12.4687C22.6296 12.9416 22.616 13.3741 22.7106 13.9551C22.8322 13.4416 22.8052 12.9822 22.6836 12.4687ZM24.0349 13.6443L24.0214 13.6849V13.82L24.0349 13.7389V13.6443ZM24.2106 11.6917L24.197 11.7525L24.17 11.8741L24.2106 11.793V11.6917ZM25.6429 6.55004C25.6294 6.56355 25.5889 6.57707 25.5889 6.57707C25.5619 6.44194 25.5619 6.30681 25.6159 6.25276C25.6159 6.23924 25.6564 6.30681 25.6564 6.34735C25.6564 6.38113 25.6531 6.41491 25.6497 6.44869C25.6463 6.48247 25.6429 6.51626 25.6429 6.55004ZM25.9542 12.6872C25.9621 12.7422 25.9704 12.8006 25.9808 12.8471C25.965 12.8549 25.9481 12.8651 25.9307 12.8756C25.8885 12.901 25.8434 12.9281 25.8051 12.9281C25.751 12.9281 25.7375 12.8065 25.751 12.5498C25.7618 12.5462 25.7744 12.5398 25.7882 12.5327C25.8265 12.5133 25.8735 12.4894 25.9132 12.5092C25.9299 12.5176 25.9414 12.5981 25.9542 12.6872ZM26.5483 13.1849V13.3335H26.5213L26.5483 13.1849ZM27.7374 13.1038L27.778 13.0498V13.1579L27.7374 13.1038ZM28.2644 6.22573L28.2239 6.17168V6.15816L28.2644 6.10411V6.22573ZM28.2779 12.8741C28.4131 12.0363 28.5482 12.0633 28.6968 12.9957C28.6277 13.1685 28.5551 13.062 28.4843 12.9583C28.4167 12.8593 28.3509 12.7628 28.2915 12.9146L28.2509 12.9957L28.2779 12.8741ZM30.0752 13.1849L30.1157 13.1443V13.2524L30.0752 13.1849ZM31.7913 11.9687C31.8048 11.9417 31.8454 11.9957 31.8454 11.9957V12.1984C31.8318 12.2187 31.8183 12.2457 31.8082 12.266L31.8082 12.266L31.8082 12.2661C31.798 12.2863 31.7913 12.2998 31.7913 12.293C31.7508 12.2255 31.7508 12.0903 31.7913 11.9687ZM32.2372 12.5227H32.2507V12.6714L32.2372 12.5227ZM33.2609 12.2727C33.2974 12.2842 33.3383 12.297 33.3858 12.3065H33.3723C33.3331 12.429 33.3011 12.5319 33.2729 12.6223L33.2726 12.6232L33.2725 12.6233L33.2725 12.6234C33.2231 12.782 33.1856 12.9024 33.1426 13.0227C33.0615 13.2524 32.9804 13.32 32.9264 12.9416C32.8588 12.3471 32.9804 12.293 33.0885 12.2525C33.1411 12.235 33.1936 12.2515 33.2609 12.2727ZM34.1651 12.5453L34.129 12.6173C34.1185 12.6751 34.0979 12.6818 34.0781 12.6883C34.0469 12.6985 34.0179 12.708 34.0345 12.9146L34.1426 12.6579L34.1651 12.5453ZM34.5885 12.3471C34.602 12.3336 34.6425 12.4282 34.6425 12.4282C34.629 12.4822 34.6155 12.5633 34.6155 12.5768C34.602 12.6038 34.575 12.6173 34.5615 12.5768C34.5074 12.4552 34.5209 12.3606 34.5885 12.3471ZM34.7912 13.9416C34.8047 13.9146 34.8452 13.8605 34.8452 13.8605C34.9128 13.874 34.9263 13.9551 34.8858 14.0767C34.8858 14.1018 34.8754 14.0959 34.8612 14.0877C34.8524 14.0826 34.842 14.0767 34.8317 14.0767C34.828 14.0656 34.8233 14.0534 34.8183 14.0408C34.8054 14.0075 34.7912 13.971 34.7912 13.9416ZM36.6019 7.33379C36.6695 7.37433 36.71 7.53648 36.71 7.80674C36.7015 7.83235 36.6929 7.86604 36.6844 7.89973C36.6659 7.97272 36.6474 8.0457 36.6289 8.03646C36.5614 7.9689 36.5478 7.72566 36.5614 7.49594C36.5614 7.42838 36.6019 7.33379 36.6019 7.33379ZM36.7641 4.14474C36.8316 4.06366 36.8722 4.25284 36.8722 4.61769V4.63121C36.8585 4.66767 36.8448 4.71798 36.8306 4.7702C36.8027 4.87277 36.7729 4.9827 36.737 5.00957C36.656 5.06362 36.6019 4.82039 36.6289 4.57715C36.656 4.40149 36.71 4.19879 36.7641 4.14474ZM37.5883 5.61765L37.6289 5.69873L37.5883 5.73926V5.61765ZM37.9802 12.3336V12.5363C37.9762 12.5525 37.9721 12.5723 37.9681 12.5922L37.968 12.5923C37.9586 12.6386 37.9491 12.6849 37.9397 12.6849C37.8856 12.6984 37.8721 12.5768 37.9127 12.4146C37.9262 12.3606 37.9802 12.3336 37.9802 12.3336ZM40.3855 10.4688C40.4396 10.3742 40.4531 10.4958 40.4396 10.6715H40.4261C40.4187 10.7447 40.4075 10.8178 40.3965 10.8889L40.3965 10.8889V10.889C40.3872 10.9491 40.3782 11.0076 40.372 11.0634C40.3315 11.1174 40.3315 11.0363 40.3315 10.8336L40.3369 10.7776C40.3488 10.6537 40.3621 10.5156 40.3855 10.4688ZM40.6828 8.06349V8.26618C40.6788 8.28231 40.6747 8.30206 40.6707 8.32183L40.6706 8.32211C40.6612 8.36847 40.6517 8.41482 40.6423 8.41482C40.5882 8.41482 40.5747 8.30672 40.6152 8.14456C40.6287 8.10402 40.6828 8.06349 40.6828 8.06349ZM41.0206 7.91034L40.9936 7.92836L41.0206 8.00943V7.91034ZM41.7909 7.15812C41.8314 7.02299 41.8855 7.09056 41.8855 7.27974C41.899 7.68512 41.8314 7.98241 41.7368 8.21213C41.6828 7.82025 41.7098 7.45541 41.7909 7.15812ZM42.1962 13.2524L42.2368 13.1579L42.2098 13.293L42.1692 13.3876L42.1962 13.2524ZM42.6692 11.739C42.6962 11.739 42.6962 11.9012 42.6962 11.9012C42.6827 12.0903 42.6557 12.1444 42.6152 12.0228C42.6062 12.0139 42.6091 11.9639 42.612 11.9116V11.9115C42.6136 11.8844 42.6152 11.8566 42.6152 11.8336C42.6287 11.793 42.6557 11.739 42.6692 11.739ZM42.8178 7.79323C42.8314 7.59053 42.8584 7.53648 42.8989 7.6581C42.9078 7.6759 42.905 7.72302 42.902 7.77242V7.77246V7.77255C42.9005 7.7981 42.8989 7.82426 42.8989 7.84728C42.8959 7.85335 42.8922 7.86147 42.8881 7.87041C42.8739 7.90126 42.8553 7.94187 42.8449 7.94187C42.8314 7.95538 42.8178 7.83377 42.8178 7.79323ZM43.4188 11.9153C43.5483 12.0951 43.684 12.2835 43.7097 12.8876C43.5427 13.1381 43.5099 12.7953 43.4773 12.4554C43.4571 12.2451 43.437 12.0359 43.3854 11.9687C43.3736 11.9421 43.3617 11.9168 43.35 11.8918C43.3083 11.8025 43.2684 11.717 43.2367 11.5904C43.1962 11.4417 43.2367 11.2796 43.2773 11.3877C43.3125 11.4758 43.3363 11.5926 43.3598 11.7082L43.3598 11.7082L43.3598 11.7083C43.3723 11.7699 43.3848 11.8312 43.3989 11.8876L43.4188 11.9153ZM43.8989 9.46883V9.67152L43.896 9.67455L43.8904 9.68092C43.876 9.69746 43.8559 9.7207 43.8448 9.69855C43.8313 9.67152 43.8178 9.59045 43.8178 9.53639C43.8313 9.30667 43.8583 9.29316 43.8989 9.46883ZM44.061 3.9961L44.1016 3.86097L44.061 4.00961C43.9529 4.40149 43.8718 4.29338 43.7637 3.98259V3.84746L43.7908 3.92853L44.061 3.9961ZM44.3169 11.5417L44.3169 11.5418C44.3293 11.5903 44.3428 11.6436 44.3583 11.6849C44.3313 11.7715 44.3042 11.8623 44.2772 11.9531C44.2367 12.0893 44.1962 12.2255 44.1556 12.3471C44.1151 12.4687 44.1016 12.3741 44.1016 12.1444C44.1151 11.7795 44.1691 11.4958 44.2637 11.4147C44.2804 11.398 44.2971 11.4636 44.3169 11.5417ZM45.6916 11.5048L45.6556 11.5768L45.6285 11.6985L45.6691 11.6174L45.6916 11.5048ZM46.3285 11.639L46.3177 11.6714C46.3012 11.7166 46.2836 11.7606 46.2658 11.8049C46.225 11.906 46.1837 12.0086 46.1555 12.1309L46.1483 12.1572C46.1077 12.3042 46.0521 12.5058 46.1285 12.6714C46.1285 12.6984 46.2096 12.4957 46.2231 12.3741C46.2355 12.2748 46.2508 12.1726 46.2663 12.0689L46.2663 12.0687L46.2663 12.0686L46.2664 12.0684C46.2846 11.9465 46.3031 11.8225 46.3177 11.6985L46.3285 11.639ZM46.8042 11.4823C46.8582 11.4147 46.8852 11.5228 46.8582 11.6849H46.8717L46.8717 11.685C46.8447 11.8066 46.8177 11.9282 46.7771 11.9822C46.7096 12.0498 46.7096 11.9417 46.7096 11.766C46.7159 11.7439 46.7222 11.7197 46.7287 11.6947C46.7499 11.6128 46.7731 11.5237 46.8042 11.4823ZM49.6554 8.10402C49.6419 8.15808 49.6013 8.22564 49.6013 8.22564C49.5473 8.21213 49.5338 8.10402 49.5473 7.91484C49.5608 7.86079 49.5878 7.80674 49.6013 7.80674C49.6554 7.79323 49.6689 7.91484 49.6554 8.10402ZM49.6858 10.7031L49.6858 10.7029L49.6859 10.7027C49.7158 10.5727 49.7467 10.4383 49.777 10.2931C49.8401 11.4732 49.741 12.0993 49.4797 12.1714C49.4902 11.5528 49.582 11.1539 49.6858 10.7031ZM50.5472 12.6309C50.5878 12.4282 50.6553 12.3606 50.7094 12.5363C50.7499 12.6849 50.7769 12.8876 50.7499 13.1443C50.6959 13.3876 50.6418 13.3741 50.5878 13.2119C50.5472 13.0768 50.4932 12.8741 50.5472 12.6309ZM52.5201 12.9687C52.5742 12.8876 52.6012 12.9822 52.6012 13.1579C52.5607 13.4551 52.4931 13.5768 52.3985 13.5497C52.3309 13.5362 52.3174 13.4011 52.358 13.293C52.412 13.1579 52.4661 13.0498 52.5201 12.9687ZM54.0741 12.793C54.1281 12.6984 54.1687 12.7795 54.1687 13.1849H54.1822C54.1732 13.2029 54.1612 13.2329 54.1472 13.2679L54.1472 13.268C54.1191 13.338 54.0831 13.4281 54.0471 13.4822C53.9795 13.5768 53.8984 13.4822 53.9255 13.1714C53.9358 13.0367 53.9859 12.9497 54.033 12.8677L54.0331 12.8677L54.0334 12.8671C54.0476 12.8424 54.0616 12.8181 54.0741 12.793ZM55.9282 12.9779C55.9363 13.0505 55.944 13.1209 55.9524 13.1849C55.9524 13.5362 55.9119 13.6849 55.8308 13.6578C55.6821 13.6173 55.6416 13.2389 55.6416 12.82C55.6416 12.4957 55.6686 12.1174 55.7767 12.266C55.8626 12.384 55.8973 12.698 55.9282 12.9779ZM58.3036 14.1443L58.3442 14.0902V14.2254L58.3036 14.1443ZM58.2496 12.9146L58.3442 12.6579C58.378 12.8864 58.343 12.8923 58.3087 12.898C58.2883 12.9013 58.2682 12.9047 58.2631 12.9552L58.2496 13.0633V12.9146ZM58.8306 13.2254L58.7901 13.1714L58.8306 13.1173V13.2254ZM58.5881 4.95238C58.5701 4.95576 58.5519 4.95918 58.5469 5.00957H58.5334V4.98254L58.6144 4.71228C58.6483 4.94108 58.6185 4.94669 58.5881 4.95238ZM59.1279 11.793C59.1279 11.7525 59.236 11.7525 59.236 11.7525C59.3883 12.1585 59.4186 12.6332 59.4528 13.1707L59.4528 13.1709L59.4528 13.171C59.4642 13.349 59.476 13.5338 59.4928 13.7254C59.2225 13.1579 59.1279 12.5092 59.1279 11.793ZM60.3623 11.6413C60.5688 11.5573 60.7403 11.4877 60.9522 11.7525C60.9003 11.7989 60.8501 11.863 60.799 11.9282C60.597 12.1858 60.3809 12.4615 59.9928 11.739C60.1333 11.7343 60.2527 11.6858 60.3623 11.6413ZM61.0332 7.7662C61.0603 7.64459 61.1008 7.6581 61.1414 7.82025L61.1278 7.80674C61.1413 7.86079 61.1414 7.95538 61.1414 8.02295C61.1143 8.14456 61.0738 8.13105 61.0332 7.9689V7.7662ZM62.8034 11.766L62.9521 11.9012C62.934 12.1087 62.8979 12.0089 62.8598 11.9036C62.8408 11.8512 62.8214 11.7975 62.8034 11.7795C62.6793 12.3259 62.8175 13.0891 62.9666 13.9118L63.0061 14.1308C62.6413 13.9146 62.5602 13.2524 62.5602 12.6579C62.5582 12.5878 62.5541 12.5065 62.5498 12.4207L62.5498 12.4202C62.525 11.9264 62.4927 11.2827 62.8034 11.766ZM63.398 11.9552L63.4385 12.1174V12.1174C63.4385 12.1715 63.4385 12.266 63.425 12.266C63.371 12.293 63.3575 12.1984 63.3575 12.0228C63.3575 11.9822 63.3845 11.9552 63.398 11.9552ZM65.1006 8.27969C65.0736 8.26618 65.0331 8.13105 65.0331 8.13105V8.11754C64.9925 7.90133 65.0196 7.87431 65.0871 8.04997C65.1141 8.104 65.1276 8.17153 65.1412 8.23906L65.1412 8.23915C65.1367 8.24366 65.1322 8.25117 65.1277 8.25868C65.1186 8.27369 65.1096 8.2887 65.1006 8.27969ZM64.452 12.0768C64.6547 11.6714 64.7898 11.4823 65.0466 12.0363C65.0736 12.0903 65.1006 12.3876 65.0871 12.4417C64.9705 12.8564 64.7668 12.5501 64.488 12.1309L64.452 12.0768ZM66.56 13.8335L66.6141 13.9686L66.56 13.874C66.53 13.8607 66.5007 13.8498 66.4721 13.8391C66.385 13.8067 66.3036 13.7764 66.2222 13.6849C66.0871 13.5497 65.9925 13.1984 65.9925 12.9011C65.9925 12.5227 66.1411 12.739 66.2492 12.9957C66.316 13.146 66.3777 13.322 66.4405 13.5016L66.4405 13.5017C66.4794 13.6127 66.5187 13.7251 66.56 13.8335ZM64.7999 4.27196C64.7598 4.17931 64.7076 4.0753 64.6682 4.00961C64.6007 3.91502 64.5736 3.96907 64.6142 4.14474C64.6412 4.23933 64.7088 4.37446 64.7358 4.38797C64.7525 4.40469 64.7641 4.36969 64.7768 4.33096C64.7838 4.30979 64.7912 4.28751 64.7999 4.27196ZM66.8979 12.1038C66.9384 11.8471 67.033 11.8066 67.1951 11.9822C67.1816 12.266 67.1546 12.5363 67.006 12.4687C66.9384 12.4417 66.8843 12.2119 66.8979 12.1038ZM66.5735 10.4823C66.4925 9.98232 66.533 9.71206 66.6816 9.49586H66.6952L66.7176 9.66557C66.7873 10.1909 66.8324 10.5305 66.7222 10.6039C66.6816 10.6309 66.5735 10.5093 66.5735 10.4823ZM68.087 13.0362C68.087 12.9957 68.141 13.0362 68.141 13.0362V13.0498C68.1651 13.0858 68.1784 13.154 68.1906 13.2162L68.1951 13.2389C68.1937 13.2432 68.1922 13.2477 68.1908 13.2522C68.1895 13.2562 68.1883 13.2603 68.187 13.2643C68.1762 13.2989 68.1654 13.3335 68.1546 13.3335C68.087 13.293 68.06 13.1714 68.087 13.0362ZM70.2761 14.4146L70.3301 14.4956L70.2761 14.5227V14.4146ZM69.695 13.2524C69.4518 12.212 69.4113 11.5228 69.8166 11.3336V11.3471C69.8028 11.6003 69.7718 11.808 69.7422 12.0061C69.6849 12.3893 69.633 12.7363 69.7221 13.3065L69.695 13.3876V13.2524ZM71.6679 14.6578C71.6274 14.4686 71.6139 14.2524 71.6409 14.1443V14.1578C71.6899 13.9863 71.7834 14.1925 71.8609 14.3634L71.8842 14.4146C71.9923 14.7524 72.0598 15.0361 71.9247 15.0632C71.8436 15.0767 71.722 14.8875 71.6679 14.6578ZM69.3032 3.63121C69.3032 3.63121 69.2221 3.68527 69.2491 3.77986C69.3032 4.05012 69.3978 4.15822 69.4789 4.21227C69.5599 4.27983 69.6275 4.27983 69.5735 4.05011C69.4518 3.67175 69.3708 3.64473 69.3032 3.64473V3.63121ZM71.695 10.4823C71.5733 10.4012 71.5058 10.1715 71.4652 9.96881H71.4517C71.4112 9.77962 71.3707 9.54991 71.4923 9.67152C71.5328 9.71206 71.6274 9.91475 71.6679 10.0364C71.749 10.2661 71.776 10.4553 71.695 10.4823Z" fill="#F3E6F7"/>
</svg>
