<svg width="192" height="20" viewBox="0 0 192 20" fill="none" xmlns="http://www.w3.org/2000/svg">
<g clip-path="url(#clip0_6435_10620)">
<path d="M189.72 7.95545C190.029 8.10844 189.825 8.26143 189.572 8.35531C189.394 8.42137 189.185 8.46657 188.994 8.51873L188.611 8.74126L188.337 8.4318C187.488 8.24404 187.375 8.24752 187.449 8.44223C187.515 8.61261 187.728 8.86296 187.367 8.8421C185.879 8.75169 184.83 9.39147 183.347 9.29063L183.891 8.856L184.021 8.80732L183.856 8.83166C183.412 8.89077 182.742 8.86644 183.282 9.30107C183.299 9.66616 182.947 9.80524 182.285 9.75656C182.05 9.86087 181.846 9.81567 181.667 9.67659C180.214 9.52012 178.648 9.93737 177.321 9.16894C177.208 9.10287 176.86 9.11678 176.647 9.14112C175.198 9.29411 173.793 9.09244 172.436 8.79689C171.392 8.57784 170.33 8.41442 169.256 8.33445C168.181 8.24752 167.098 8.19884 166.019 8.13625C165.057 8.08062 164.444 7.94849 164.805 7.34696C164.927 7.14877 164.892 6.88452 164.261 6.95406C164 6.98187 163.387 6.84279 163.604 7.26004C163.796 7.6286 163.152 7.872 162.63 7.79898C161.425 7.63904 160.241 7.69467 159.049 7.65294C157.827 7.62165 157.618 7.38521 157.809 6.63069C157.849 6.46727 157.836 6.30037 157.849 6.02221C156.752 6.31428 155.778 6.57506 154.803 6.83584C155.125 6.83584 155.456 6.85322 155.769 6.82888C156.139 6.80107 156.596 6.5994 156.839 6.83584C157 6.9923 156.939 7.26699 156.778 7.43737C156.543 7.68424 156.013 7.74682 155.517 7.65642C154.921 7.54863 154.69 7.26699 154.551 6.96449C153.498 7.3713 152.402 7.51734 151.014 7.47909C150.153 7.45823 149.287 7.42694 148.421 7.4165C147.555 7.41303 146.69 7.41303 145.824 7.42694C144.958 7.44084 144.092 7.46518 143.231 7.51386C142.37 7.57645 141.508 7.6599 140.647 7.77464C139.311 7.95197 139.163 7.83027 139.059 6.85322L139.15 6.76977L139.028 6.83931C138.458 6.77325 137.597 6.51247 137.936 7.18702C138.193 7.69815 137.819 8.01803 136.918 7.93111C135.33 7.77812 133.899 8.17798 132.403 8.30315C131.459 8.39356 130.549 8.76212 129.797 8.21275C129.557 8.0389 129.218 8.18493 128.961 8.2962C127.373 8.96031 125.655 8.95684 123.919 8.85948C123.354 8.82819 122.858 8.80037 122.301 9.00204C120.861 9.54098 119.108 9.62791 117.668 9.6905C115.688 9.78438 113.735 10.0904 111.786 10.3546L111.007 10.4694C110.785 10.5006 110.559 10.5285 110.328 10.5528C110.098 10.5771 109.858 10.5945 109.606 10.605L109.215 10.6189H109.01L108.849 10.6154C108.353 10.5945 108.118 10.7684 107.896 10.904C107.653 11.0535 107.387 11.1335 106.247 11.2482C106.565 11.5646 106.448 11.8602 106.456 12.1766C106.474 12.4826 106.687 12.7503 107.313 12.8129C107.566 12.8407 107.922 12.8303 108.031 12.8963C108.144 12.9624 108.04 13.1084 107.505 13.484C107.252 13.6578 107.357 13.6961 107.54 13.6717C107.722 13.6509 107.975 13.5744 108.083 13.5326C108.858 13.244 109.245 13.1258 109.541 13.1015C109.841 13.0737 110.032 13.1328 110.324 13.178C110.463 13.1988 110.511 13.2579 110.594 13.3553C110.702 13.4561 110.728 13.5813 110.72 13.7239C110.428 13.7343 110.372 13.7691 110.25 13.8317C110.15 13.8977 110.076 13.9986 110.106 14.1689C110.111 14.2037 110.172 14.242 110.25 14.2698C110.328 14.2976 110.402 14.315 110.515 14.3115C111.412 14.2732 110.668 13.9325 110.746 13.7378C111.538 13.6126 112.447 13.7204 113.191 13.4944C113.887 13.2823 114.044 14.0855 114.544 13.8351C115.136 13.5361 115.753 13.557 116.432 13.5605C116.654 13.5605 116.88 13.5674 117.219 13.5709C117.402 14.0959 116.832 14.534 116.81 15.0139L116.702 15.0834L116.837 15.0278C117.267 15.1216 117.424 15.5424 117.959 15.4172C118.742 15.2364 117.872 15.0243 117.855 14.8191C117.807 14.2837 118.955 14.1446 118.907 13.6509C120.108 13.7134 119.556 14.3115 120.078 14.534L120.369 14.4645L120.256 14.6279C120.395 14.6488 120.656 14.694 120.656 14.694C121.113 13.8977 121.866 13.6196 122.679 13.4735C122.884 13.4388 123.093 13.4144 123.293 13.3831C123.462 13.3623 123.636 13.3449 123.815 13.324L124.011 13.3032L124.132 13.2858C124.211 13.2719 124.285 13.251 124.346 13.2197C124.576 13.4735 124.602 13.63 124.554 13.7865C124.511 13.936 124.406 14.0681 124.48 14.2593C124.524 14.3671 124.637 14.5445 124.715 14.5479C124.95 14.5549 124.815 14.3915 124.785 14.2941C124.707 14.0194 124.885 14.0333 125.098 14.0368C125.303 14.0368 125.551 14.0194 125.385 13.7621C125.185 13.4527 124.876 13.1015 124.898 12.8894C125.081 12.9102 125.303 13.0598 125.503 13.1919C125.703 13.3205 125.912 13.4388 126.134 13.2579C126.399 13.3518 126.647 13.3901 126.912 13.331C127.291 13.3101 127.347 13.1223 127.156 12.9102C127.169 12.799 127.178 12.719 127.169 12.6564C127.152 12.5904 127.125 12.5452 127.078 12.5104C126.982 12.4374 126.799 12.4026 126.429 12.34C126.564 12.4304 126.699 12.5208 126.817 12.6182C126.925 12.7121 127.021 12.8129 127.117 12.9172C127.047 13.0458 126.956 13.1675 126.873 13.2892C126.612 13.2823 126.364 13.2649 126.125 13.2336C125.764 13.0911 125.398 12.8511 125.455 12.7468C125.516 12.5973 125.429 12.4235 125.29 12.2879C125.181 12.1522 125.033 12.0549 125.05 11.9436C125.068 11.7663 124.955 11.5924 124.785 11.4638C124.702 11.4012 124.607 11.3456 124.506 11.3004C124.459 11.2795 124.406 11.2586 124.354 11.2413L124.215 11.1856L124.054 11.1196C123.789 11.0118 123.645 10.9075 123.749 10.6154C123.876 10.1912 123.732 10.1043 123.336 10.2051C122.631 10.3929 122.096 10.4624 121.596 9.81219C121.448 9.61748 121.309 9.68006 121.135 9.69745C119.547 9.8713 118.168 9.01247 116.567 8.79689C116.41 8.77603 116.267 8.58479 116.114 8.47353C115.919 8.33445 116.358 8.10496 115.858 8.04585C115.762 8.03542 115.871 8.33792 116.071 8.48396C115.879 8.52916 115.675 8.6439 115.505 8.61261C114.84 8.49439 114.161 8.39356 113.478 8.2962C112.808 8.21623 112.151 8.11887 111.477 8.0528C110.141 7.89286 108.788 7.77812 107.444 7.60079C105.177 7.31915 102.924 7.2357 100.618 7.47561C99.7435 7.56254 98.6689 7.76421 98.3861 6.99578L98.4775 6.91929L98.3427 6.97492C97.6901 7.00969 97.2202 7.35739 96.3632 7.12791C95.6628 6.93319 94.7535 7.17659 93.9661 7.36783C93.3918 7.50691 92.7697 7.6147 92.1519 7.68771C90.651 7.86504 90.651 7.85461 90.5466 6.89842C90.9512 6.65503 91.8822 6.61331 91.7865 6.0535C91.1774 6.33862 90.6858 6.54376 90.477 6.87061C89.4459 7.52429 87.8101 7.64947 86.5267 7.7503C84.5647 7.90329 82.5504 8.48744 80.5231 8.02499L76.4597 8.32401C75.1894 8.65781 73.8712 8.40051 72.6313 8.39008C71.5611 8.37965 71.9308 7.68771 72.2397 7.2357L72.3224 7.16616L72.1875 7.21136C71.8308 7.31915 71.4523 7.40955 71.3609 7.6599C71.1478 8.24752 70.9389 8.85948 69.3945 8.27881C69.2901 8.24057 69.0247 8.23013 68.9377 8.27186C66.9495 9.13069 64.5263 8.36574 62.4555 8.89425C62.3206 8.92902 62.1292 8.9325 61.9813 8.91859C61.1982 8.83514 60.041 8.53264 59.7147 8.69258C58.8881 9.0994 57.9571 8.87339 57.1914 9.07506C55.9385 9.40538 54.6986 8.69954 53.4369 9.20719C53.1716 9.31497 52.9453 9.0542 52.8931 8.8873C52.8235 8.66824 52.9627 8.47005 53.1933 8.27881C53.4152 8.09453 53.7197 7.85461 53.0671 7.80593C52.7365 7.78159 52.4363 7.92763 52.2928 8.20232C51.8055 9.13417 51.0703 9.45406 49.1648 9.41233C47.3114 9.37408 45.4668 9.35322 43.6309 9.49926C42.4737 9.58966 41.8864 9.13417 40.9945 8.98465L40.8553 8.94293L40.9467 9.01247C41.1077 9.34974 40.8901 9.62095 40.2245 9.70093C39.7329 9.76004 39.5415 9.55837 39.5589 9.31497L39.6415 9.235L39.5197 9.30107C38.741 9.22109 39.5154 8.56393 38.5235 8.56045C38.4974 8.48396 38.4974 8.41094 38.5191 8.33445L38.6235 8.26143L38.4713 8.31706C38.4321 8.34488 38.3538 8.37965 38.3625 8.40399C38.3799 8.4631 38.4408 8.52221 38.48 8.57784C38.493 8.66129 38.5583 8.75865 38.5061 8.82819C37.8056 9.74961 37.6751 9.76004 36.2134 8.83862C36.4135 9.71831 35.4172 10.0973 34.3122 9.89217C32.1326 9.48535 29.5702 10.2712 27.6168 9.39495C25.2284 9.54098 22.9096 9.25934 20.5647 9.235C17.7238 9.20719 14.8916 9.10287 12.0203 9.17241C7.95695 9.26977 3.84574 9.20719 0.0390625 8.1745C0.539368 7.44084 1.6792 7.21136 2.89733 7.11748C5.264 6.93319 7.60021 6.57158 10.006 6.60983C10.3323 6.61331 10.6978 6.61331 10.9849 6.54376C14.5436 5.68146 18.3155 5.78229 21.9829 5.75795C26.3378 5.73013 30.6839 5.51108 34.9909 5.25378C40.7857 4.90607 46.6154 4.96518 52.3537 4.4471C56.4475 4.07854 60.5978 4.22109 64.6351 3.62304C65.3442 3.51873 66.1142 3.53611 66.8582 3.51873C72.2919 3.38312 77.6822 2.94154 83.0768 2.52082C83.7337 2.46866 84.395 2.44084 85.0519 2.42694C90.2333 2.31219 95.3843 1.78368 100.705 1.62721C103.659 1.53681 106.652 1.67242 109.667 1.86713C110.742 1.94015 111.82 2.03055 112.899 2.14877C113.978 2.27047 115.062 2.40955 116.114 2.56949C118.233 2.89634 120.36 3.29272 122.501 3.8421C123.719 4.15503 124.937 4.52707 126.168 4.993C126.782 5.22248 127.4 5.49022 128.017 5.78229C128.165 5.84835 128.352 5.95267 128.518 6.03612C128.696 6.13 128.844 6.20301 129.04 6.31776C129.427 6.54724 129.823 6.77673 130.175 7.04098C130.354 7.16963 130.541 7.29481 130.71 7.42694L131.202 7.84418C131.372 7.97979 131.519 8.1293 131.663 8.28229C131.807 8.43528 131.959 8.58132 132.085 8.74126C132.62 9.36713 132.99 10.0591 133.255 10.7753C133.508 11.4951 133.577 12.2496 133.521 12.9937C133.468 13.3657 133.421 13.7413 133.299 14.1029C133.203 14.4714 133.046 14.8261 132.877 15.1808C132.498 15.97 131.885 16.6863 131.119 17.2844C130.354 17.8894 129.388 18.3344 128.378 18.703L127.6 18.9534C127.339 19.0368 127.06 19.089 126.795 19.1585C126.229 19.3045 125.777 19.3845 125.281 19.4714C124.419 19.6105 123.693 19.7044 122.927 19.7948C120.099 20.1182 117.45 19.8922 114.848 19.986C113.991 20.0173 113.108 19.9582 112.251 19.8783C111.02 19.7635 109.793 19.6488 108.566 19.534L105.717 19.2454L104.281 19.082C103.82 19.0125 103.337 18.9534 102.898 18.8699C102.441 18.7934 102.014 18.703 101.592 18.6126C101.192 18.5083 100.766 18.4179 100.392 18.2997L99.8175 18.1293C99.6304 18.0702 99.4564 18.0041 99.2737 17.9415C98.9039 17.8198 98.5819 17.6738 98.2469 17.5347C97.9207 17.3922 97.6205 17.2392 97.3203 17.0827C97.0462 16.9158 96.7504 16.7593 96.5067 16.5785C95.9803 16.2343 95.5366 15.8518 95.145 15.4346C94.5142 14.7461 94.0052 13.9429 93.8094 12.9728C93.7703 12.7329 93.7355 12.4895 93.7094 12.2427L93.6876 12.0584L93.7007 11.8741L93.7311 11.509C93.7746 11.0257 93.8791 10.5563 94.0574 10.1286C94.4055 9.26977 94.9493 8.56045 95.6323 7.89634C96.3153 7.2357 97.1724 6.63069 98.2426 6.07784C98.9691 5.7197 99.7522 5.36852 100.675 5.07993L101.014 4.96866C101.131 4.94084 101.249 4.91998 101.366 4.89564L102.08 4.75656L103.511 4.4784L109.288 3.39008L109.65 3.32401L109.832 3.28924L109.924 3.27186L109.98 3.26491L110.42 3.20232L111.303 3.08062L113.065 2.83027C114.239 2.66338 115.41 2.47909 116.58 2.31915C123.454 1.30037 130.414 0.810107 137.371 0.448493C139.289 0.368521 141.212 0.219008 143.135 0.104265C145.058 0.0208161 146.977 -0.0452479 148.874 0.0242931C154.407 0.253779 159.98 0.0938341 165.458 0.726657C167.824 1.03612 170.287 1.13 172.697 1.34557C173.906 1.44293 175.094 1.5994 176.273 1.77325C177.452 1.96101 178.622 2.14877 179.823 2.2809C180.441 2.35044 181.054 2.42346 181.667 2.51734C182.277 2.6147 182.886 2.71901 183.495 2.83027C184.704 3.05628 185.918 3.28229 187.123 3.5083C187.997 3.68563 189.285 3.7204 188.95 4.50969C189.29 4.63834 189.703 4.76699 189.437 5.00691C189.32 5.1147 189.042 5.1286 188.807 5.04863C188.419 4.9165 188.624 4.74613 188.628 4.58966C187.023 4.0994 186.658 4.10983 186.031 4.81567C185.579 5.32332 185.509 5.9318 184.835 6.3873L184.739 6.44293L184.878 6.41859C186.227 6.97492 188.363 7.17659 188.533 8.36574C188.637 8.39356 188.741 8.41094 188.855 8.41442C188.907 8.29968 188.928 8.1745 189.015 8.06671C189.142 7.90677 189.42 7.80941 189.72 7.95892V7.95545ZM23.6753 8.3866L23.5186 8.40746L23.6492 8.44223L23.6709 8.38312L23.6753 8.3866ZM30.1749 8.45962L30.0313 8.43528V8.49091L30.1749 8.45962ZM32.1457 9.12721L31.9847 9.15155L32.1195 9.1898L32.1457 9.12721ZM34.5602 8.94988C34.5428 8.86991 34.5384 8.78646 34.5515 8.70649L34.6733 8.63695L34.5254 8.68911C34.4862 8.7204 34.4123 8.75517 34.4166 8.77951C34.4297 8.8421 34.4862 8.90121 34.5254 8.96379L34.682 9.01595L34.5645 8.94641L34.5602 8.94988ZM39.3109 6.18215C39.2152 6.14738 39.0412 6.1752 38.9063 6.1752C39.0238 6.26908 39.1195 6.37687 39.2717 6.45336C39.3457 6.48813 39.5241 6.47075 39.6328 6.47422C39.7329 6.30733 39.4893 6.24474 39.3109 6.18215ZM42.2823 8.4318L42.1605 8.42485L42.1996 8.50482L42.2823 8.4318ZM45.7627 8.26143C45.7757 8.2197 45.6583 8.17102 45.5974 8.12582C45.5234 8.19189 45.4364 8.25447 45.3842 8.32401C45.3146 8.4179 45.3842 8.4631 45.5669 8.45267C45.6365 8.39008 45.7409 8.32749 45.7583 8.26143H45.7627ZM49.3736 7.86157C49.317 7.8407 49.2605 7.80941 49.1952 7.80593C48.982 7.78855 48.8863 7.8268 48.9559 7.89286C48.9777 7.91372 49.0908 7.90677 49.1648 7.91025L49.3736 7.86504V7.86157ZM49.3083 5.82054C49.2518 5.79968 49.1996 5.7649 49.1343 5.76143C48.9211 5.74404 48.8254 5.78577 48.895 5.85183C48.9168 5.87269 49.0299 5.86574 49.1038 5.86922L49.3083 5.81706V5.82054ZM57.6265 7.94154L57.509 7.93111L57.5481 8.01456L57.6308 7.94154H57.6265ZM60.0975 7.66685L60.0627 7.58688L59.9888 7.65642L60.0975 7.66685ZM62.9645 7.50691C62.9297 7.47214 62.6643 7.45823 62.5947 7.48952C62.499 7.53472 62.4468 7.6286 62.4424 7.70162C62.4337 7.80246 62.5555 7.83723 62.7252 7.80593C62.9297 7.72944 63.095 7.63556 62.9645 7.50691ZM69.0595 7.05141C68.0067 7.00274 67.4281 7.3261 66.732 7.4026L66.5884 7.35392L66.6885 7.42346C67.5194 7.59383 68.2721 7.60079 69.0595 7.05141ZM74.3758 7.04446C74.4106 6.88452 74.2627 6.78368 73.9886 6.83236C73.5884 6.9019 73.3535 7.07575 73.3491 7.29828C73.3491 7.42346 73.4492 7.56602 73.7319 7.51734C74.1452 7.4478 74.1931 7.20788 74.3715 7.04446H74.3758ZM80.4056 6.70371L80.2968 6.69328L80.3316 6.77325L80.4056 6.70371ZM82.2763 6.91581C82.0196 6.89147 81.8978 7.03751 81.9631 7.18006L82.0718 7.42346C81.9935 7.49995 81.6107 7.41303 81.7325 7.59383L82.1066 7.44084C82.2023 7.3713 82.3285 7.30524 82.3851 7.22874C82.4677 7.114 82.546 6.94015 82.2807 6.91581H82.2763ZM84.147 6.22735C83.8599 6.4777 83.7294 6.71066 84.0295 6.99926C84.5864 6.71414 84.556 6.48118 84.147 6.22735ZM89.1501 6.63417L89.0196 6.67937L88.9412 6.74891L89.0674 6.70371L89.1457 6.63417H89.1501ZM90.0941 5.58757L89.968 5.65364L89.8548 5.7197L90.0071 5.67102L90.0941 5.5841V5.58757ZM95.8759 2.81289C95.902 2.8268 96.0108 2.80246 96.0804 2.79203C96.1109 2.75726 96.1631 2.71901 96.1587 2.68771C96.1587 2.67033 96.0412 2.63904 95.9977 2.64599C95.8063 2.68076 95.7585 2.74682 95.8759 2.81289ZM96.5764 6.03264C96.5111 5.97353 96.4589 5.86574 96.3806 5.86226C96.1674 5.85183 95.9412 5.88312 95.7541 5.89703C95.6541 6.02916 95.715 6.09522 95.9064 6.09175C96.1283 6.08827 96.3501 6.0535 96.5764 6.03612V6.03264ZM98.6341 6.2656L98.595 6.18563L98.5254 6.26212L98.6341 6.26908V6.2656ZM103.224 6.14738L103.08 6.17172L103.22 6.20649V6.15086L103.224 6.14738ZM105.852 2.70858L105.995 2.74682L106.004 2.68771L105.847 2.70858H105.852ZM106.617 6.26908C106.2 5.75795 105.691 5.72318 105.108 6.12999L104.973 6.18215L105.134 6.14738C105.647 6.01525 106.073 6.39773 106.617 6.26908ZM111.764 6.82888H111.616L111.742 6.88452L111.768 6.82888H111.764ZM118.146 7.35044C118.129 7.3261 118.02 7.29133 117.976 7.29828C117.794 7.3261 117.768 7.39217 117.915 7.45823C117.955 7.47561 118.046 7.45823 118.111 7.45823C118.124 7.42346 118.163 7.38521 118.142 7.35392L118.146 7.35044ZM119.473 7.95197L119.377 7.92415L119.395 8.0076L119.473 7.95197ZM123.24 8.98118C122.827 8.8108 122.584 8.69606 122.323 8.62304C121.979 8.52221 121.531 8.42137 121.622 8.77603C121.679 9.00204 121.983 9.06115 122.288 9.04029C122.549 9.01942 122.797 9.00552 123.24 8.98118ZM125.368 10.0799L125.25 10.073C125.146 10.1077 124.994 9.90955 124.92 10.0869L125.259 10.1077L125.368 10.0799ZM126.221 10.5806C126.208 10.5493 126.208 10.5041 126.177 10.4833C126.064 10.4068 125.999 10.4242 126.012 10.518C126.012 10.5493 126.06 10.5771 126.103 10.5911C126.129 10.6015 126.181 10.5841 126.221 10.5806ZM125.646 11.1926C125.629 11.1752 125.577 11.1717 125.542 11.1613C125.529 11.1856 125.511 11.2065 125.498 11.2274C125.516 11.2447 125.524 11.2795 125.555 11.283C125.659 11.2934 125.707 11.2552 125.646 11.1926ZM128.914 15.379C129.048 15.4554 129.262 15.4346 129.475 15.2607C129.51 15.2329 129.518 15.1356 129.492 15.1077C129.396 15.0069 129.249 14.9652 129.031 15.1251C128.961 15.1634 128.953 15.2885 128.914 15.3755V15.379ZM129.966 16.8115C130.097 16.9575 130.397 16.9158 130.632 16.6655C130.802 16.4812 130.928 16.2308 130.88 16.1265C130.823 15.9909 130.506 16.0883 130.28 16.3143C130.123 16.4916 130.062 16.6724 129.966 16.8115ZM126.055 17.7607H126.251L126.26 17.6912L126.055 17.7607ZM123.51 14.614L123.593 14.7114C123.649 14.6905 123.732 14.6766 123.763 14.6453C123.871 14.5445 123.815 14.4923 123.628 14.5236C123.584 14.5306 123.549 14.5827 123.515 14.614H123.51ZM114.753 15.6571C114.687 15.7475 114.787 15.8136 114.944 15.7753C115.044 15.751 115.114 15.6641 115.144 15.598C115.192 15.4972 115.114 15.452 114.975 15.4694C114.901 15.5319 114.805 15.5876 114.757 15.6571H114.753ZM113.883 16.8393L113.935 16.9471C114.004 16.9367 114.096 16.9401 114.144 16.9193C114.3 16.8463 114.257 16.7872 114.039 16.7767C113.987 16.7767 113.935 16.8185 113.883 16.8393ZM112.551 16.9297H112.708L112.586 16.8776L112.551 16.9297ZM109.28 16.9401C109.28 17.034 109.523 17.0966 109.689 17.0445C110.045 16.9262 110.111 16.7454 109.937 16.5229C109.567 16.6063 109.275 16.7246 109.284 16.9401H109.28ZM109.197 13.8769L109.297 13.8386L109.393 13.7795L109.293 13.8178L109.197 13.8769ZM107.705 14.3637C107.674 14.3845 107.666 14.4401 107.687 14.4436C107.731 14.4471 107.805 14.4262 107.866 14.4158C107.905 14.3845 107.983 14.3393 107.975 14.3289C107.935 14.2593 107.835 14.2767 107.705 14.3637ZM105.021 16.2204C105.125 16.2934 105.29 16.2934 105.434 16.2134C105.469 16.1961 105.443 16.1335 105.417 16.1335C105.338 16.1265 105.243 16.1404 105.156 16.1474C105.108 16.1717 105.008 16.21 105.025 16.2239L105.021 16.2204ZM106.134 13.5396C105.595 13.8073 105.765 13.9603 105.934 14.1063C105.895 14.1968 105.817 14.3011 105.852 14.3741C105.882 14.4367 106.095 14.388 106.117 14.308C106.147 14.2211 106.06 14.1585 106.039 14.082C105.852 13.936 107.018 13.5153 106.13 13.5361L106.134 13.5396ZM102.61 14.6522C102.554 14.6801 102.458 14.7079 102.445 14.7357C102.393 14.84 102.523 14.8609 102.758 14.7844C102.815 14.767 102.841 14.7148 102.819 14.694C102.793 14.6731 102.684 14.6662 102.61 14.6522ZM98.1382 16.0917L98.3513 16.1335C98.6559 16.3108 98.9561 16.4916 99.2998 16.6516L99.3737 16.7385L99.3824 16.662C99.2215 16.4082 98.9691 16.2134 98.3427 16.123L98.1338 16.0917H98.1382ZM103.52 13.4388C103.463 13.5153 103.328 13.6126 103.411 13.63C103.737 13.7134 104.164 13.6578 104.586 13.5465C104.855 13.4735 104.899 13.4248 104.69 13.4248C104.325 13.4283 103.924 13.4492 103.52 13.4388ZM102.45 11.057L102.519 11.13L102.663 11.1891L102.602 11.1161L102.454 11.0605L102.45 11.057ZM103.811 10.1599L103.881 10.226C103.95 10.3233 103.99 10.4172 104.12 10.5041C104.233 10.5841 104.385 10.6988 104.768 10.6467C104.821 10.6363 104.686 10.5389 104.568 10.4833C104.385 10.3963 104.146 10.3129 103.937 10.2225L103.811 10.1564V10.1599ZM105.125 9.76351C105.025 9.69745 104.829 9.67659 104.781 9.74265C104.747 9.78785 104.821 9.85044 104.851 9.9026C105.021 9.96518 105.177 9.98257 105.216 9.92346C105.243 9.88173 105.203 9.81567 105.125 9.76351ZM112.299 6.68285C112.36 6.65503 112.46 6.62721 112.469 6.5994C112.503 6.49509 112.403 6.44988 112.216 6.4777C112.151 6.48813 112.055 6.52986 112.047 6.55767C112.012 6.66198 112.112 6.70371 112.299 6.68632V6.68285ZM113.326 7.61817C112.939 8.0076 112.473 8.30315 112.608 8.69954C113.548 8.53032 113.787 8.16987 113.326 7.61817ZM117.054 8.27534C116.819 8.21275 116.606 8.26838 116.489 8.39703C116.358 8.54655 116.549 8.61609 116.741 8.66824C116.954 8.72735 117.167 8.70649 117.306 8.56393C117.359 8.42833 117.259 8.33097 117.054 8.27534ZM123.897 7.82332C123.88 7.73292 123.767 7.69814 123.597 7.75378C123.401 7.81984 123.206 7.89286 123.045 7.97979C122.91 8.04933 122.984 8.10844 123.201 8.09801C123.523 8.08062 123.767 7.99022 123.902 7.82332H123.897ZM129.496 7.3261C129.444 7.12443 129.327 7.08966 129.153 7.14877C128.953 7.21831 128.661 7.29481 128.609 7.38869C128.518 7.55559 128.8 7.5834 129.04 7.51734C129.248 7.46171 129.418 7.36087 129.496 7.3261ZM135.822 6.9019C135.709 6.75239 135.648 6.51595 135.252 6.46379C134.852 6.41164 134.765 6.61331 134.761 6.77325C134.752 6.9923 134.874 7.17659 135.374 7.17311C135.635 7.17311 135.8 7.08618 135.826 6.9019H135.822ZM143.997 7.04794L143.836 7.07575L143.971 7.11748L143.997 7.04794ZM144.284 6.30037L143.879 6.43945L143.797 6.51942L143.918 6.46032C144.014 6.39077 144.375 6.49161 144.284 6.30385V6.30037ZM145.915 6.51247L145.772 6.54376L145.915 6.57158V6.51595V6.51247ZM146.877 2.31567C146.972 2.24265 147.351 2.34349 147.251 2.15573L146.851 2.30524L146.737 2.37826L146.877 2.31915V2.31567ZM147.651 5.78924C147.581 5.75795 147.255 5.78924 147.246 5.81358C147.094 6.18911 147.225 6.51595 148.038 6.80107C147.995 6.40468 148.234 6.06045 147.651 5.78924ZM153.742 5.81011C152.763 5.58757 151.793 5.77881 150.361 5.77534C151.81 6.25517 152.767 5.91442 153.742 5.81011ZM156.026 3.83862C155.934 3.75169 155.791 3.73778 155.656 3.80385C155.612 3.82471 155.582 3.88382 155.608 3.91164C155.699 3.99856 155.834 4.00552 155.982 3.94988C156 3.91164 156.056 3.86644 156.026 3.8421V3.83862ZM160.594 6.11609L160.141 6.02221C159.158 5.66755 159.071 6.18563 158.854 6.42902C158.579 6.735 158.579 7.06185 159.65 7.22874C159.558 6.74891 159.332 6.29689 160.128 6.02916C160.276 6.06741 160.324 6.2656 160.594 6.11609ZM162.147 6.31776C162.125 6.28646 162.108 6.23083 162.082 6.23083C162.021 6.22388 161.925 6.23431 161.89 6.25865C161.76 6.3421 161.808 6.39773 161.999 6.39077C162.051 6.39077 162.099 6.34557 162.151 6.31776H162.147ZM170.413 4.79828C170.404 4.82262 170.469 4.8713 170.522 4.88869C170.574 4.9026 170.652 4.88869 170.722 4.88869C170.713 4.85392 170.722 4.81567 170.687 4.78785C170.552 4.68702 170.443 4.6905 170.413 4.79828ZM167.624 6.63417C167.15 6.30385 166.541 6.356 165.632 6.49856C166.349 6.79064 166.837 7.01317 167.502 6.83931C167.594 6.81497 167.676 6.66894 167.624 6.63417ZM171.353 7.97979L171.279 7.89981C171.157 7.73987 171.074 7.56949 170.909 7.41998C170.735 7.26699 170.439 7.12443 170.143 7.29133C169.908 7.42694 170.008 7.61817 170.326 7.72596C170.6 7.81636 170.93 7.85809 171.239 7.92068L171.357 7.98326L171.353 7.97979ZM172.893 2.99717C172.788 2.93806 172.692 2.872 172.571 2.82332C172.401 2.75378 172.227 2.77116 172.227 2.86504C172.227 2.9172 172.388 3.00065 172.505 3.02499C172.614 3.04585 172.758 3.01108 172.888 2.99717H172.893ZM174.728 7.27742C174.367 7.14529 174.002 7.12791 173.667 7.22874C173.519 7.27395 173.554 7.39217 173.719 7.42694C174.124 7.50691 174.424 7.39217 174.724 7.27742H174.728ZM175.107 5.99439C174.402 6.03611 174.024 6.14043 173.876 6.39425C173.867 6.40468 174.124 6.49509 174.25 6.49856C174.733 6.50899 174.842 6.30037 175.107 5.99439ZM176.83 8.09105C176.808 8.07019 176.695 8.0528 176.656 8.06324C176.482 8.11191 176.473 8.1745 176.63 8.2197C176.673 8.23361 176.756 8.20232 176.821 8.19189C176.825 8.15712 176.86 8.11539 176.83 8.09105ZM182.042 9.60705L181.976 9.55141L181.902 9.60009L182.042 9.60705ZM183.656 8.13278C182.19 8.01108 181.611 8.29967 181.363 8.82471L181.272 8.88034L181.406 8.856C181.807 8.45267 182.725 8.39703 183.656 8.13625V8.13278Z" fill="#E9C9F4"/>
<path d="M186.105 10.0797C185.922 10.1041 185.726 10.1875 185.657 10.2779C185.57 10.3857 185.709 10.5178 185.957 10.5596C186.353 10.6221 186.453 10.4796 186.501 10.3023C186.444 10.1945 186.418 10.0415 186.105 10.0832V10.0797Z" fill="#E9C9F4"/>
<path d="M191.591 5.19822C191.452 5.17388 191.221 5.16692 191.152 5.20517C190.952 5.32339 191.174 5.41727 191.374 5.48333C191.591 5.55635 191.826 5.5946 191.97 5.49029C192.078 5.29905 191.822 5.23646 191.591 5.19474V5.19822Z" fill="#E9C9F4"/>
<path d="M190.277 8.51859C190.168 8.61247 190.077 8.72373 190.355 8.82457C190.638 8.86281 190.79 8.77936 190.843 8.66114C190.873 8.59508 190.856 8.47686 190.773 8.43861C190.534 8.32735 190.381 8.42818 190.277 8.51859Z" fill="#E9C9F4"/>
</g>
<defs>
<clipPath id="clip0_6435_10620">
<rect width="192" height="20" fill="white"/>
</clipPath>
</defs>
</svg>
