<svg width="56" height="94" viewBox="0 0 56 94" fill="none" xmlns="http://www.w3.org/2000/svg">
<g id="Clip path group">
<mask id="mask0_6460_17509" style="mask-type:luminance" maskUnits="userSpaceOnUse" x="0" y="0" width="56" height="94">
<g id="clip0_6237_5963">
<path id="Vector" d="M34.734 93.2467L55.3438 8.26392L21.2681 -1.02324e-05L0.658302 84.9828L34.734 93.2467Z" fill="white"/>
</g>
</mask>
<g mask="url(#mask0_6460_17509)">
<g id="Group">
<path id="Vector_2" d="M26.9353 85.1026C26.8638 85.2688 26.773 85.1766 26.7132 85.0526C26.6713 84.9684 26.6383 84.8629 26.6027 84.7685L26.4671 84.5872L26.6261 84.4305C26.6975 83.9913 26.6925 83.9313 26.5898 83.9844C26.4972 84.0284 26.3693 84.1536 26.368 83.9659C26.3644 83.208 25.9718 82.7183 25.9766 81.9585L26.2332 82.2043L26.2649 82.2665L26.2459 82.1838C26.1983 81.9616 26.1868 81.6232 25.9699 81.9217C25.7705 81.9555 25.6837 81.7822 25.6832 81.4465C25.6171 81.3327 25.6348 81.2276 25.7021 81.1271C25.7272 80.3798 25.4412 79.6117 25.8069 78.8926C25.8377 78.8296 25.8181 78.6532 25.7962 78.5504C25.6522 77.8244 25.7031 77.0992 25.8114 76.3956C25.9849 75.3096 25.9137 74.2035 25.8995 73.1032C25.8813 72.615 25.9205 72.2926 26.2628 72.442C26.3791 72.4936 26.5159 72.4606 26.4521 72.1443C26.4254 72.013 26.4747 71.6971 26.2594 71.8283C26.067 71.9455 25.9084 71.6341 25.9268 71.3652C25.9675 70.7469 25.8749 70.1464 25.8376 69.5445C25.801 68.9228 25.9234 68.8041 26.3388 68.8617C26.4299 68.8723 26.5199 68.8549 26.6736 68.8492C26.4655 68.3072 26.2855 67.8262 26.0889 67.3494C26.1076 67.5136 26.1142 67.6794 26.1457 67.8391C26.1783 68.0268 26.305 68.2446 26.19 68.3807C26.1134 68.4714 25.9615 68.4543 25.8616 68.383C25.7155 68.2776 25.663 68.0109 25.6824 67.7541C25.7105 67.445 25.8476 67.3141 26.0044 67.2311C25.7266 66.719 25.6059 66.1705 25.5623 65.465C25.4935 64.5899 25.422 63.7099 25.3294 62.8367C25.2138 61.9617 25.0733 61.0923 24.8676 60.2343C24.6936 59.5678 24.7483 59.4874 25.2757 59.3888L25.3275 59.4328L25.2829 59.3752C25.2836 59.0823 25.3761 58.6366 25.0298 58.8415C24.766 58.9958 24.5706 58.8198 24.5766 58.3605C24.5902 57.548 24.2642 56.8486 24.1153 56.0941C24.0191 55.6223 23.7758 55.1766 24.0223 54.7718C24.1005 54.6425 24 54.4779 23.9246 54.3542C23.4555 53.5846 23.3868 52.7092 23.3217 51.8349C23.3013 51.5488 23.2876 51.2996 23.1431 51.0265C22.7756 50.3206 22.6102 49.4414 22.4847 48.72C22.3203 47.7239 22.0246 46.7547 21.7482 45.786C21.4782 44.807 21.1952 43.9463 20.9279 43.0853C20.782 42.6244 20.5059 42.2178 20.2458 41.8582C19.9774 41.5002 19.7323 41.191 19.5824 40.7954C19.202 40.6095 18.9072 40.4248 18.5851 40.2727C18.5066 40.2264 18.4236 40.1984 18.3369 40.1695C18.2511 40.1369 18.1653 40.1047 18.0752 40.1062C17.8966 40.0861 17.7113 40.0451 17.5462 40.1145C17.4792 40.1331 17.4048 40.1506 17.3258 40.1703C17.2506 40.2067 17.1772 40.2355 17.0964 40.2473C16.9363 40.2477 16.78 40.2644 16.5892 40.0853C16.5022 40.0095 16.4131 40.0231 16.3529 40.0944C16.2926 40.1657 16.2574 40.2625 16.2439 40.3019C16.1567 40.5815 16.0296 40.8318 15.8397 41.0355C15.7559 41.1557 15.6546 41.2676 15.5496 41.3788C15.4474 41.4945 15.3517 41.6314 15.2514 41.7554C15.09 41.9542 14.9714 41.9762 14.831 41.8954C14.8976 41.6853 14.9901 41.4967 14.7775 41.4725C14.7332 41.4618 14.6081 41.5916 14.5801 41.6746C14.4329 42.0562 14.7431 41.8233 14.8219 41.9011C14.7322 42.2383 14.5425 42.6021 14.5431 42.9537C14.5639 43.2863 14.1247 43.2306 14.1872 43.4877C14.2768 43.7946 14.1922 44.0628 14.1217 44.3696C14.0975 44.469 14.0762 44.5733 14.0423 44.7288C13.7417 44.7615 13.5629 44.4527 13.3086 44.3909L13.2842 44.3306L13.3022 44.4011C13.2162 44.5949 12.9579 44.6298 12.9893 44.903C13.0298 45.299 13.2054 44.8969 13.3159 44.9079C13.6096 44.9363 13.596 45.4913 13.8619 45.5049C13.7491 46.0667 13.4673 45.7644 13.3126 45.9999L13.332 46.1452L13.2505 46.0784C13.2271 46.1433 13.1921 46.2711 13.1921 46.2711C13.6126 46.5488 13.7154 46.8977 13.763 47.3935C13.8041 47.8676 13.7628 48.4082 13.8343 48.8861C13.5227 49.0602 13.4604 48.448 13.2471 48.4586C13.1836 48.4628 13.0817 48.4965 13.0748 48.5572C13.0558 48.7325 13.1521 48.6892 13.2102 48.7074C13.5191 48.8019 13.1348 49.372 13.4468 49.518C13.6406 49.6041 13.8739 49.6724 13.9944 50.0604C13.9239 50.3832 13.5111 49.8966 13.5706 50.5042C13.4697 50.5501 13.3857 50.6389 13.3399 50.7955C13.2408 50.9628 13.2805 51.121 13.4095 51.2651C13.5275 51.696 13.5312 51.6968 13.8247 51.7093C13.6717 51.5359 13.5465 51.3922 13.4176 51.2477L13.3658 50.8175L13.5855 50.5236C13.735 50.4701 13.9213 50.5387 13.9652 50.7599C14.0666 51.3076 14.3851 51.7165 14.4744 52.2494C14.6147 53.1033 14.8655 53.8391 15.2 54.3106C15.2846 54.429 15.3016 54.4874 15.1976 54.6106C15.0434 54.7957 15.0825 54.8598 15.248 54.853C15.5451 54.8356 15.6762 54.7775 15.7133 55.0753C15.7351 55.1625 15.7826 55.1273 15.8294 55.1113C16.0578 55.0066 16.1527 55.0336 16.345 55.0294C16.5244 55.0302 16.7738 55.0476 17.024 54.9012C17.0716 54.8818 17.1704 54.9251 17.2505 54.9331C17.3536 54.9422 17.3026 55.1523 17.473 55.0453C17.5051 55.026 17.3645 54.9293 17.2623 54.9164C17.2987 54.847 17.3182 54.7502 17.3723 54.7203C17.823 54.4551 18.2766 54.0656 18.6994 53.6256C18.9123 53.4078 19.1176 53.1727 19.3147 52.9394C19.4169 52.8237 19.5062 52.697 19.6084 52.5813L19.9229 52.1698C20.2821 51.7025 20.6423 51.2473 20.935 50.7485C21.2379 50.2562 21.5223 49.7593 21.7402 49.2149C21.9102 48.8034 22.0953 48.2978 22.519 48.3695L22.5351 48.4317L22.541 48.3592C22.6788 48.0645 22.6196 47.7614 22.9329 47.4512C23.197 47.1989 23.2793 46.7308 23.3593 46.3367C23.418 46.0466 23.5015 45.7507 23.6025 45.4628C23.8174 44.7539 23.8247 44.7558 24.3163 44.9333C24.352 45.1723 24.1821 45.5994 24.4753 45.6942C24.4609 45.3509 24.46 45.0816 24.3419 44.9083C24.2836 44.6014 24.33 44.2653 24.4012 43.9236C24.4687 43.5811 24.5748 43.2397 24.6666 42.9419C24.8198 42.4875 24.877 41.9936 24.9924 41.5184C25.1114 41.0435 25.2451 40.5727 25.5135 40.1418C25.6736 39.4978 25.796 38.8484 25.9193 38.1952C25.9184 37.5549 26.1829 36.9633 26.337 36.3762C26.4604 35.8675 26.7842 36.1256 26.9954 36.3329L27.0225 36.3824L27.0118 36.3135C26.9903 36.1287 26.9788 35.9347 26.8531 35.8574C26.5603 35.681 26.2528 35.5166 26.7172 34.8408C26.7481 34.7937 26.7785 34.6684 26.7699 34.6233C26.62 34.0991 26.6981 33.5677 26.7973 33.0297C26.8846 32.4928 26.9857 31.9474 26.913 31.4263C26.9024 31.3574 26.9128 31.2662 26.9298 31.1962C27.0127 30.8221 27.2361 30.2713 27.1631 30.1053C26.9899 29.6769 27.1404 29.2333 27.0577 28.8502C26.9892 28.537 27.0625 28.2347 27.1202 27.9326C27.1705 27.6286 27.2097 27.322 27.0879 27.0036C27.0345 26.8697 27.181 26.7647 27.2756 26.7447C27.3959 26.7153 27.5023 26.7919 27.6024 26.9098C27.6998 27.0232 27.8252 27.1824 27.8643 26.8601C27.8843 26.6972 27.8087 26.5422 27.6637 26.4641C27.1696 26.1999 26.9886 25.8359 27.0252 24.8964C27.0459 24.4408 27.0316 23.9846 27.0248 23.5302C27.0179 23.0758 26.9834 22.6224 26.9177 22.1694C26.8373 21.5996 27.0854 21.3006 27.131 20.8551L27.148 20.785L27.1134 20.8313C26.9356 20.9208 26.7803 20.8207 26.7108 20.4955C26.6595 20.2567 26.7627 20.1529 26.8988 20.1547L26.9442 20.193L26.9033 20.1363C26.9199 19.7461 27.3043 20.1086 27.2713 19.6167C27.3099 19.6026 27.354 19.5977 27.3946 19.6075L27.4372 19.6569L27.4008 19.5817C27.3823 19.5616 27.3636 19.5259 27.3508 19.5306C27.3168 19.5418 27.2895 19.5742 27.2611 19.5947C27.2161 19.6033 27.1675 19.6422 27.1269 19.6168C26.5985 19.3013 26.5843 19.2471 27.0159 18.4814C26.5449 18.6208 26.3005 18.1479 26.3482 17.5974C26.3912 17.0497 26.274 16.4709 26.1771 15.9049C26.0719 15.3408 26.0073 14.7865 26.1683 14.2674C26.0243 13.686 25.9467 13.1052 25.8727 12.5252C25.7867 11.9462 25.7201 11.368 25.6065 10.7901C25.3198 9.39745 25.057 8.00277 24.6387 6.62113C24.0564 4.66104 23.4767 2.68993 23.3724 0.689697C23.8332 0.80145 24.1414 1.31723 24.3892 1.88863C24.8644 3.00307 25.4038 4.09405 25.7204 5.28319C25.7676 5.44295 25.813 5.6257 25.8866 5.75672C26.8365 7.39223 27.2235 9.3049 27.6091 11.1431C28.0624 13.3295 28.5249 15.5102 28.9009 17.6935C29.3972 20.6358 29.5186 23.6276 29.7023 26.5878C29.8442 28.7064 29.5951 30.8278 29.6137 32.94C29.6292 33.3106 29.5418 33.7031 29.4921 34.0853C29.1097 36.8691 28.6701 39.6468 27.9341 42.376C27.8462 42.706 27.7428 43.0364 27.6319 43.3645C26.729 45.9127 25.7569 48.4404 24.4905 50.846C24.154 51.5253 23.7389 52.1584 23.3433 52.8082C23.1441 53.1306 22.9209 53.4393 22.7115 53.7553L22.3938 54.2287L22.2344 54.4673L22.0531 54.7161C21.3597 55.6602 20.5469 56.5167 19.5226 57.248C19.0026 57.6061 18.4289 57.9273 17.7571 58.1549C17.0936 58.3802 16.3013 58.4925 15.5027 58.3575C15.0523 58.2835 14.6088 58.1329 14.2136 57.9277C13.8092 57.7282 13.4365 57.4464 13.1243 57.1406C12.4934 56.5231 12.1075 55.8127 11.8158 55.1489C11.5287 54.4821 11.341 53.8236 11.1794 53.2186C11.015 52.6086 10.8681 51.9915 10.7367 51.3744C10.4372 49.9865 10.3902 48.5386 10.324 47.1215C10.3006 46.7995 10.3264 46.4039 10.3349 46.0466C10.3719 45.6851 10.4043 45.3259 10.4598 44.9686C10.5771 44.2593 10.7203 43.5564 10.8901 42.8558C10.9834 42.3908 11.1826 41.9238 11.3818 41.4725C11.9366 40.3114 12.6304 39.1564 13.72 38.1562C13.859 38.0336 13.9915 37.9058 14.1406 37.7897L14.6185 37.4607C14.9242 37.2304 15.3205 37.0767 15.6827 36.903C15.8679 36.8152 16.0765 36.776 16.2748 36.7149C16.4777 36.6665 16.6787 36.5942 16.8865 36.5744C17.0952 36.5508 17.3029 36.531 17.5135 36.5157L17.8262 36.4978L18.1327 36.5214C19.4689 36.5801 20.8199 37.1575 21.7816 37.9877C22.769 38.809 23.4271 39.7648 23.9635 40.6911C24.6742 41.9292 25.1137 43.2067 25.4626 44.4076C25.7928 45.5724 26.1239 46.7339 26.455 47.8953C27.433 51.2981 28.1006 54.7737 28.6716 58.2607C28.7504 58.7406 28.8367 59.2219 28.9274 59.7006L29.1667 61.1443C29.3317 62.1054 29.4526 63.0715 29.5044 64.0327C29.6521 66.8358 30.0306 69.6363 29.9059 72.4356C29.8583 73.6456 29.8864 74.8977 29.8859 76.1232C29.879 77.3586 29.7236 78.5466 29.6642 79.7733C29.6234 81.0357 29.4215 82.2866 29.2794 83.5323C29.2127 83.9844 29.2421 84.6357 28.7988 84.5162C28.7393 84.6972 28.6874 84.9111 28.544 84.7943C28.482 84.7442 28.4654 84.6035 28.4995 84.4791C28.5569 84.2742 28.6597 84.3656 28.7425 84.3622C28.9546 83.5198 28.9285 83.3381 28.5226 83.0638C28.2306 82.8681 27.8939 82.8723 27.6267 82.5578L27.5942 82.5146L27.613 82.5817C27.3614 83.2975 27.3342 84.3914 26.6895 84.5553C26.6761 84.6107 26.6746 84.6649 26.6732 84.7192C26.7395 84.7351 26.8086 84.74 26.8696 84.7783C26.9619 84.8322 27.0227 84.9676 26.953 85.1265L26.9353 85.1026ZM26.36 12.2218L26.3309 12.1484L26.3259 12.2175L26.359 12.2255L26.36 12.2218ZM26.8537 15.4484L26.856 15.3748L26.8238 15.3787L26.8537 15.4484ZM26.6217 16.4694L26.5973 16.3932L26.5812 16.4596L26.6217 16.4694ZM26.8693 17.6535C26.9115 17.6403 26.9556 17.6354 27.0025 17.6351L27.0471 17.6927L27.0098 17.6212C26.9904 17.6048 26.968 17.5682 26.9515 17.572C26.9175 17.5832 26.8874 17.611 26.8581 17.6352L26.8384 17.7163L26.8693 17.6535ZM28.5918 19.9174C28.6034 19.8695 28.5862 19.7794 28.5793 19.7114C28.5328 19.7743 28.4771 19.8271 28.4427 19.9047C28.4255 19.9434 28.4427 20.0335 28.4449 20.0887C28.5391 20.1349 28.5658 20.0087 28.5918 19.9174ZM27.462 21.47L27.4652 21.4084L27.4212 21.4289L27.462 21.47ZM27.6232 23.2031C27.6453 23.2084 27.6716 23.1484 27.6981 23.1197C27.6601 23.0832 27.6276 23.0402 27.5869 23.0147C27.5333 22.9783 27.5124 23.0162 27.5177 23.1072C27.5529 23.1391 27.5863 23.1941 27.6232 23.2031ZM27.8613 25.0055C27.8722 24.9769 27.8904 24.9501 27.8939 24.9197C27.9041 24.8129 27.8845 24.7652 27.8488 24.7995C27.8388 24.8088 27.8401 24.8676 27.8394 24.9026L27.865 25.0064L27.8613 25.0055ZM28.9735 24.9903C28.9843 24.9617 29.0025 24.9349 29.0069 24.9008C29.0172 24.794 28.9947 24.7417 28.9582 24.7797C28.9481 24.789 28.9495 24.8479 28.9479 24.8865L28.9735 24.9903ZM27.6547 29.1082L27.6681 29.0529L27.6176 29.068L27.6538 29.1119L27.6547 29.1082ZM27.6984 30.3444L27.7443 30.3321L27.7118 30.2891L27.6993 30.3407L27.6984 30.3444ZM27.6256 31.7709C27.6486 31.7569 27.6725 31.6261 27.6612 31.5922C27.6424 31.5408 27.5953 31.5098 27.5547 31.5C27.4994 31.4866 27.4732 31.5466 27.4802 31.6302C27.5095 31.7349 27.5497 31.8266 27.6256 31.7709ZM27.4042 34.8084C27.5275 34.2997 27.3946 33.9786 27.4125 33.6317L27.4515 33.567L27.4059 33.6105C27.2449 34.0009 27.1876 34.3656 27.4079 34.8093L27.4042 34.8084ZM26.8455 37.3855C26.9258 37.4245 26.9981 37.3679 27.0045 37.2289C27.015 37.0246 26.9506 36.888 26.8326 36.8594C26.7663 36.8433 26.6772 36.8725 26.67 37.0151C26.6586 37.2231 26.7776 37.2793 26.8455 37.3855ZM26.2102 40.311L26.2301 40.2609L26.1832 40.2613L26.2065 40.3099L26.2102 40.311ZM25.8187 41.1527C25.874 41.0374 25.8127 40.9521 25.7299 40.9555L25.5883 40.9604C25.5612 40.9107 25.6631 40.748 25.552 40.7719L25.5773 40.9733C25.5989 41.0291 25.6123 41.1026 25.642 41.1409C25.6857 41.2024 25.7634 41.268 25.8196 41.1489L25.8187 41.1527ZM25.8524 42.1564C25.772 41.9728 25.6765 41.8677 25.4803 41.9527C25.5331 42.266 25.6538 42.2994 25.8524 42.1564ZM24.7273 44.3658L24.7323 44.2968L24.7135 44.2452L24.7094 44.3105L24.7281 44.3621L24.7273 44.3658ZM25.0502 45.0296L25.0442 44.9576L25.0327 44.8923L25.025 44.9727L25.0493 45.0331L25.0502 45.0296ZM25.1113 48.3501C25.1113 48.3501 25.0842 48.4138 25.0725 48.4461C25.0827 48.4681 25.0858 48.5041 25.1042 48.5083C25.1153 48.5113 25.1573 48.4666 25.1626 48.4446C25.1932 48.3505 25.1718 48.3103 25.1123 48.3463L25.1113 48.3501ZM23.3993 47.8297C23.4452 47.8172 23.5069 47.8206 23.5305 47.7872C23.5878 47.6958 23.6257 47.5877 23.6656 47.5039C23.6264 47.4242 23.5805 47.4364 23.536 47.5232C23.4843 47.6237 23.4473 47.7281 23.403 47.8305L23.3993 47.8297ZM22.7999 48.6756L22.8459 48.679L22.8271 48.6274L22.7999 48.6756ZM21.7038 50.7166L21.7282 50.6484L21.677 50.6984L21.7038 50.7166ZM22.6579 52.8017L22.6021 52.8548L22.628 52.8764L22.6579 52.8017ZM20.7628 52.1667C21.1102 52.1182 21.2725 51.9156 21.2323 51.5504L21.2419 51.4787L21.2222 51.5598C21.1477 51.8189 20.8446 51.8936 20.7656 52.1713L20.7628 52.1667ZM19.1528 54.1217L19.1938 54.0656L19.1361 54.0944L19.1528 54.1217ZM16.9419 55.9158C16.9419 55.9158 17.0044 55.9155 17.0154 55.9022C17.0711 55.8495 17.0598 55.8157 16.9899 55.8142C16.9706 55.8134 16.9478 55.843 16.924 55.8608C16.9269 55.881 16.9243 55.9075 16.9419 55.9158ZM16.3499 55.862L16.3849 55.8627L16.3671 55.8233L16.3499 55.862ZM15.0122 55.4557C15.1427 55.5771 15.2242 55.6435 15.3138 55.6928C15.4466 55.7406 15.5997 55.8009 15.5882 55.6071C15.5874 55.4819 15.4805 55.4717 15.3748 55.4732C15.28 55.4777 15.1853 55.4819 15.0158 55.4565L15.0122 55.4557ZM14.3937 54.5132L14.4391 54.5515C14.4907 54.564 14.5175 54.7112 14.5823 54.6372C14.536 54.6023 14.4852 54.5704 14.4408 54.5287L14.3892 54.5162L14.3937 54.5132ZM14.0593 53.8001C14.0632 53.8319 14.058 53.8698 14.0711 53.8964C14.1123 54 14.1454 54.0079 14.1504 53.9233C14.153 53.8968 14.1324 53.8528 14.1156 53.8251C14.1045 53.8069 14.0815 53.8054 14.0603 53.7963L14.0593 53.8001ZM14.3397 53.3684C14.3481 53.3976 14.3732 53.4234 14.389 53.4545C14.3944 53.4321 14.4006 53.4063 14.406 53.3843C14.3947 53.3506 14.3944 53.3035 14.375 53.2872C14.3249 53.236 14.3049 53.2702 14.336 53.3673L14.3397 53.3684ZM11.9804 50.3021C11.9069 50.3153 11.8697 50.3885 11.8761 50.5228C11.879 50.5429 11.9115 50.5858 11.9336 50.5911C12.0037 50.6082 12.0679 50.5846 12.0669 50.4439C12.0685 50.4052 12.012 50.3487 11.9841 50.3028L11.9804 50.3021ZM11.0582 50.1291C10.9542 50.1234 10.9117 50.2186 10.9531 50.3533C10.9796 50.4534 11.054 50.5653 11.1066 50.5896C11.1813 50.6195 11.2329 50.5031 11.1988 50.37C11.1724 50.2698 11.1001 50.1977 11.0582 50.1291ZM11.2224 48.6156L11.2045 48.6892L11.2377 48.6972L11.2233 48.6118L11.2224 48.6156ZM13.1005 47.7595L13.0446 47.7967C13.0522 47.8297 13.0562 47.8775 13.0711 47.8968C13.1203 47.9674 13.1505 47.9397 13.1451 47.8327C13.1431 47.8088 13.1181 47.7834 13.1005 47.7595ZM13.1953 43.3292C13.1554 43.2844 13.1106 43.3243 13.1103 43.4062C13.1097 43.4566 13.1496 43.5014 13.1792 43.5242C13.2291 43.5598 13.2602 43.5283 13.2689 43.4601C13.2447 43.4153 13.2259 43.3641 13.1981 43.3337L13.1953 43.3292ZM12.6925 42.7466L12.6273 42.7583C12.6183 42.7951 12.6076 42.8391 12.6097 42.863C12.624 42.9487 12.6617 42.9381 12.7033 42.8312C12.7095 42.8054 12.6974 42.775 12.6934 42.7432L12.6925 42.7466ZM12.858 42.0805L12.8282 42.1552L12.8794 42.1052L12.858 42.0805ZM13.5281 40.5568C13.4774 40.5405 13.3924 40.6175 13.3847 40.6975C13.3776 40.8716 13.449 40.9475 13.5968 40.9168C13.6296 40.7336 13.6425 40.6001 13.5281 40.5568ZM15.354 40.9137L15.3397 40.9725L15.3374 41.0306L15.3526 40.968L15.354 40.9137ZM15.6018 40.1817C15.6018 40.1817 15.5503 40.1692 15.5411 40.1745C15.521 40.1931 15.5093 40.2253 15.4919 40.2484C15.4994 40.2659 15.507 40.2989 15.5198 40.2943C15.5943 40.2773 15.6243 40.2336 15.599 40.1767L15.6018 40.1817ZM15.0074 39.1242C14.923 39.1503 14.882 39.2068 14.8999 39.2618C14.9046 39.2747 14.9552 39.2751 14.9661 39.2622C14.9917 39.2372 15.008 39.2023 15.0271 39.1716C15.0196 39.1541 15.0212 39.1158 15.0083 39.1204L15.0074 39.1242ZM17.0954 39.7201C17.0442 39.6415 16.9639 39.6025 16.8672 39.5827C16.8193 39.5714 16.7696 39.5668 16.7153 39.5657C16.6629 39.5725 16.6096 39.5827 16.5563 39.5934C16.4789 39.5744 16.4033 39.5486 16.3177 39.5471C16.2432 39.5486 16.2133 39.6078 16.2796 39.6237C16.3571 39.6427 16.4553 39.6233 16.5409 39.6248C16.6475 39.6036 16.7041 39.6761 16.778 39.725C16.8539 39.7826 16.9342 39.8217 17.0954 39.7201ZM17.0787 38.7911C17.0787 38.7911 17.0692 38.7498 17.0517 38.7414C16.9733 38.7107 16.9182 38.7289 16.9223 38.7923C16.9225 38.8078 16.9612 38.8249 16.9888 38.8241C17.0164 38.823 17.0522 38.804 17.0824 38.7919L17.0787 38.7911ZM16.9072 37.1649C16.8769 37.177 16.8486 37.1975 16.8247 37.2151C16.5997 37.2581 16.3765 37.3093 16.1524 37.3643L16.0585 37.365L16.1231 37.3884C16.3799 37.4078 16.6116 37.3859 16.8349 37.2215C16.8596 37.2001 16.8834 37.1825 16.91 37.1695L16.9072 37.1649ZM17.9547 39.3313C17.8974 39.2941 17.8418 39.2338 17.8059 39.2368C17.6542 39.2508 17.5905 39.3525 17.5866 39.4488C17.5862 39.5152 17.6277 39.5368 17.6799 39.4989C17.7686 39.4231 17.8585 39.3901 17.9547 39.3313ZM19.8965 40.0796L19.8376 40.0652L19.7833 40.0637L19.8442 40.0861L19.8956 40.0831L19.8965 40.0796ZM20.6547 40.88L20.5939 40.8576C20.5062 40.8166 20.4166 40.7677 20.3355 40.748C20.2663 40.7271 20.1493 40.6949 20.2128 40.8352C20.2231 40.8572 20.3199 40.8925 20.3705 40.8929C20.4515 40.8971 20.5223 40.8792 20.5977 40.8739L20.6556 40.8762L20.6547 40.88ZM21.1162 41.6166C21.1696 41.6215 21.1664 41.5544 21.1034 41.4922C21.0589 41.4505 21.0046 41.4334 20.9602 41.4068C20.9125 41.4266 20.9119 41.477 20.9712 41.5385C21.012 41.5794 21.0739 41.614 21.1162 41.6166ZM23.795 45.8922C23.8155 45.9203 23.8351 45.9681 23.8536 45.9726C23.9125 45.987 23.9333 45.9335 23.9051 45.8406C23.8974 45.8076 23.8658 45.761 23.8511 45.7572C23.7921 45.7431 23.7759 45.7936 23.7996 45.8892L23.795 45.8922ZM23.3481 46.4471C23.1104 46.2685 22.9184 46.0462 22.7111 46.1289C22.864 46.5928 23.0764 46.6986 23.3481 46.4471ZM23.2189 48.3478C23.2402 48.228 23.1916 48.1225 23.1185 48.0698C23.0316 48.0099 23.0001 48.1074 22.9871 48.2098C22.9685 48.3183 22.9932 48.426 23.0792 48.4897C23.1566 48.5083 23.2041 48.4575 23.2217 48.3524L23.2189 48.3478ZM23.8871 51.773C23.9367 51.7616 23.9473 51.7017 23.9053 51.6171C23.8586 51.52 23.8028 51.4286 23.7479 51.3489C23.7006 51.2867 23.676 51.3235 23.6924 51.4328C23.723 51.5966 23.7882 51.7138 23.8871 51.773ZM24.4873 54.5765C24.5938 54.5397 24.6044 54.4798 24.5624 54.3956C24.512 54.2973 24.4531 54.1543 24.3996 54.1335C24.3036 54.0948 24.3037 54.2393 24.357 54.3576C24.4028 54.4585 24.465 54.5397 24.4901 54.5811L24.4873 54.5765ZM25.0801 57.7491C25.1578 57.6857 25.2817 57.6417 25.2877 57.4403C25.2908 57.234 25.1775 57.2028 25.0901 57.2089C24.9715 57.2154 24.8763 57.2859 24.9093 57.5359C24.9277 57.669 24.9826 57.7487 25.0838 57.7498L25.0801 57.7491ZM25.4295 61.893L25.4059 61.813L25.3889 61.8832L25.4295 61.893ZM25.8516 62.003L25.7509 61.8069L25.7055 61.7686L25.7455 61.8289C25.7891 61.8748 25.7554 62.0618 25.8516 62.003ZM25.829 62.8367L25.8073 62.7651L25.8013 62.8379L25.8326 62.8375L25.829 62.8367ZM28.1511 63.111C28.1946 63.1569 28.1592 63.3511 28.2554 63.2927L28.1583 63.0973L28.1129 63.0431L28.1511 63.111ZM26.3032 63.6815C26.3158 63.6458 26.2852 63.4819 26.2705 63.4785C26.0584 63.4194 25.8898 63.5032 25.7704 63.9311C25.9836 63.889 26.1812 63.9917 26.3023 63.6853L26.3032 63.6815ZM26.5899 66.7641C26.6663 66.2558 26.5249 65.7768 26.4545 65.0531C26.2704 65.8124 26.4889 66.2794 26.5899 66.7641ZM27.7795 67.8141C27.8232 67.7621 27.8218 67.6877 27.779 67.6225C27.765 67.5997 27.7319 67.5918 27.7163 67.6073C27.6734 67.6555 27.6758 67.7264 27.7168 67.7989C27.7389 67.8042 27.7639 67.8296 27.7795 67.8141ZM26.7561 70.2469L26.782 70.0114C26.9191 69.4944 26.6384 69.4769 26.4979 69.3806C26.3204 69.2592 26.1374 69.2736 26.1009 69.8267C26.3561 69.7557 26.5888 69.6173 26.7764 70.0023C26.765 70.0816 26.6595 70.1146 26.7533 70.2424L26.7561 70.2469ZM26.7148 71.045C26.7148 71.045 26.7597 71.0207 26.7596 71.0052C26.7594 70.9737 26.7517 70.9252 26.7359 70.9096C26.684 70.8501 26.6584 70.8751 26.6701 70.9718C26.6749 71.0003 26.7008 71.0223 26.7148 71.045ZM27.8983 75.1454C27.8983 75.1454 27.859 75.1787 27.8564 75.2053C27.8501 75.2311 27.8633 75.2736 27.8672 75.3058C27.8846 75.2982 27.9077 75.2997 27.9195 75.2831C27.9687 75.2091 27.9627 75.1533 27.8983 75.1454ZM26.7832 73.8367C26.9433 73.5788 26.8933 73.2701 26.7724 72.8194C26.6527 73.2003 26.5432 73.4586 26.6669 73.7852C26.6829 73.8318 26.765 73.8637 26.7832 73.8367ZM26.2166 75.8031L26.2577 75.7621C26.3409 75.6927 26.4316 75.6404 26.5018 75.5444C26.5756 75.4492 26.638 75.2884 26.5312 75.1495C26.4449 75.0388 26.3478 75.101 26.3039 75.266C26.269 75.4097 26.2665 75.5808 26.2437 75.7394L26.2129 75.8019L26.2166 75.8031ZM28.9827 76.2905C29.0118 76.2351 29.0436 76.1843 29.0634 76.1187C29.0931 76.0284 29.0787 75.9431 29.0263 75.9499C28.9978 75.9544 28.958 76.0386 28.951 76.0993C28.9413 76.1555 28.9712 76.2253 28.9827 76.2905ZM26.7288 77.4728C26.7864 77.2839 26.7814 77.0954 26.7112 76.9338C26.6813 76.864 26.6171 76.8875 26.6048 76.9706C26.5777 77.1785 26.6514 77.3253 26.7251 77.4721L26.7288 77.4728ZM27.4417 77.5912C27.3914 77.2354 27.3192 77.0503 27.1771 76.9922C27.1698 76.9903 27.1302 77.1212 27.1334 77.1883C27.1481 77.4341 27.2661 77.4781 27.4417 77.5912ZM26.377 78.5857C26.377 78.5857 26.3939 78.5159 26.3873 78.4947C26.3536 78.4086 26.3186 78.4078 26.3027 78.4897C26.2973 78.5117 26.3151 78.5512 26.3264 78.5853C26.3448 78.5895 26.3697 78.5997 26.3815 78.5831L26.377 78.5857ZM25.7559 81.3236L25.7842 81.2875L25.7573 81.2534L25.7596 81.3243L25.7559 81.3236ZM26.6148 82.0469C26.6251 81.2963 26.4493 81.0232 26.1561 80.9287L26.1236 80.8858L26.1425 80.9526C26.3765 81.1305 26.4404 81.591 26.6148 82.0469Z" fill="#ADD4AA"/>
<path id="Vector_3" d="M25.6505 83.4136C25.6296 83.3226 25.5784 83.2281 25.5229 83.1993C25.4574 83.1636 25.3954 83.2421 25.3834 83.3722C25.3655 83.5748 25.4449 83.6173 25.5435 83.6294C25.5993 83.5922 25.6829 83.5695 25.6496 83.417L25.6505 83.4136Z" fill="#ADD4AA"/>
<path id="Vector_4" d="M28.5011 85.8688C28.5108 85.7971 28.5072 85.6829 28.4803 85.6492C28.4097 85.554 28.3645 85.6757 28.3358 85.7781C28.3081 85.8923 28.2905 86.0129 28.3527 86.0789C28.4597 86.1203 28.4836 85.9898 28.5011 85.8688Z" fill="#ADD4AA"/>
<path id="Vector_5" d="M26.6465 85.4231C26.5919 85.3746 26.5272 85.3355 26.4841 85.4812C26.4723 85.6268 26.5252 85.6981 26.5906 85.7179C26.6275 85.7266 26.6899 85.7107 26.7081 85.6682C26.7587 85.54 26.702 85.4679 26.6465 85.4231Z" fill="#ADD4AA"/>
<path id="Vector_6" d="M16.0897 71.696C16.1102 71.611 16.2057 71.5875 16.2876 71.5879C16.3428 71.5856 16.3944 71.5981 16.4478 71.603L16.6067 71.5753L16.5129 71.7047C16.5609 71.861 16.5776 71.8727 16.6525 71.8052C16.7183 71.743 16.794 71.6402 16.8412 71.6869C17.0312 71.8852 17.4622 71.8139 17.633 72.0271L17.3621 72.098L17.3234 72.0965L17.3603 72.1056C17.4488 72.1428 17.536 72.2338 17.6514 72.0317C17.8088 71.9137 17.922 71.9141 17.9962 72.01C18.0753 72.0059 18.0857 72.0434 18.0503 72.109C18.1991 72.3324 18.586 72.4106 18.4297 72.8138C18.4171 72.8498 18.4698 72.8897 18.5086 72.9071C18.7809 73.0395 18.8673 73.2944 18.907 73.5656C18.9734 73.984 19.2001 74.3041 19.4031 74.6421C19.4952 74.7934 19.508 74.9174 19.1952 75.0487C19.0907 75.0934 18.9772 75.175 19.077 75.2463C19.1205 75.2763 19.1241 75.406 19.2877 75.2467C19.4348 75.1067 19.6135 75.1264 19.6408 75.2228C19.704 75.4451 19.8624 75.5968 19.9732 75.7838C20.0868 75.975 19.9992 76.0789 19.6353 76.2754C19.5547 76.3182 19.4833 76.3713 19.3542 76.4533C19.6013 76.5288 19.8234 76.5944 20.0411 76.6627C20.0057 76.6149 19.9796 76.5618 19.9388 76.5208C19.8879 76.4734 19.7489 76.4669 19.83 76.3577C19.882 76.2883 20.0176 76.212 20.1094 76.1874C20.2472 76.1506 20.3304 76.2098 20.3412 76.3099C20.355 76.4305 20.2482 76.5489 20.1275 76.66C20.4231 76.6968 20.5905 76.8273 20.708 77.0507C20.9981 77.609 21.2726 78.1829 21.7568 78.6165C21.9457 78.7872 21.901 78.8429 21.4578 79.1411L21.4128 79.1498L21.456 79.1487C21.4715 79.2617 21.4197 79.4756 21.7059 79.2287C21.9235 79.0394 22.0981 79.0117 22.1215 79.1889C22.1623 79.5033 22.4557 79.6292 22.6165 79.8515C22.7196 79.9896 22.9481 80.0453 22.7413 80.3348C22.6767 80.4243 22.766 80.4421 22.8324 80.458C23.2488 80.5434 23.3357 80.8612 23.3859 81.2011C23.4023 81.3107 23.4177 81.4082 23.5432 81.4541C23.866 81.5713 23.9877 81.874 24.0842 82.1202C24.3512 82.8052 24.9186 83.2983 25.1426 84.0004C25.2648 84.3812 25.77 84.5193 25.677 85.0318C26.1106 85.207 26.0976 85.7111 26.4343 85.9645C26.5693 86.0677 26.8315 86.1936 26.5055 86.5399C26.353 86.7022 26.5756 86.7015 26.64 86.6935C27.1116 86.648 27.2147 86.915 27.3579 87.1293C27.4146 87.2173 27.3389 87.3042 27.2181 87.3998C27.1369 87.3645 27.0492 87.3236 26.9251 87.4654C26.8986 87.4942 26.9129 87.564 26.9434 87.583C27.0893 87.6573 27.1238 87.4665 27.2163 87.407C27.3803 87.4392 27.4603 87.5599 27.6515 87.5439C27.8252 87.5197 27.522 87.8364 27.6872 87.7829C27.8781 87.7199 27.9429 87.7746 28.016 87.8277C28.0391 87.8447 28.0622 87.8622 28.0946 87.8895C27.9223 88.1171 27.6997 88.2464 27.5134 88.4353L27.4739 88.4531L27.5116 88.4429C27.5296 88.5134 27.3975 88.7039 27.5107 88.7042C27.6725 88.6967 27.6382 88.532 27.7094 88.4478C27.9001 88.2248 28.0687 88.254 28.2263 88.0386C28.3099 88.1448 28.064 88.3701 28.0456 88.51C28.0613 88.5097 28.0778 88.5059 28.0943 88.5021L28.0322 88.565C28.0388 88.5863 28.052 88.6284 28.052 88.6284C28.3404 88.3082 28.4687 88.2301 28.5478 88.2259C28.6251 88.229 28.6688 88.306 28.7369 88.2991C28.6904 88.6193 28.5882 88.6064 28.5179 88.8158C28.4999 88.8738 28.4785 88.9777 28.4869 88.9918C28.5158 89.0339 28.5362 88.9333 28.5533 88.8791C28.6451 88.5969 28.6648 89.0308 28.7493 88.7467C28.7922 88.57 28.8367 88.3545 28.8867 88.2768C28.9289 88.3924 28.8236 88.7297 28.937 88.7611C28.9424 88.8677 28.9606 88.9698 28.996 89.0331C29.0364 89.156 29.0804 89.1355 29.1055 89.0323C29.2017 88.9895 29.2053 88.9747 29.1684 88.6925C29.1491 88.8203 29.1286 88.9208 29.1008 89.0194L28.9985 89.0066C28.9759 88.9227 28.9541 88.8355 28.9369 88.7456C28.9321 88.5882 28.942 88.419 28.9768 88.4038C29.0632 88.386 29.0872 88.1421 29.1655 88.1569C29.3064 88.1717 29.4557 88.0712 29.589 87.9396C29.6255 87.9016 29.6559 87.905 29.7544 88.0306C29.8973 88.2134 29.9267 88.2051 29.8917 88.0757C29.8275 87.8413 29.7934 87.6926 30.0353 87.8216C30.1091 87.855 30.0858 87.8064 30.0809 87.7624C30.022 87.3774 30.3774 87.4089 30.5092 87.187C30.522 87.1669 30.6032 87.2022 30.6557 87.2109C30.7192 87.2223 30.8031 87.3755 30.844 87.3034C30.8512 87.2894 30.7219 87.2113 30.6547 87.1988C30.6396 87.1483 30.5986 87.0762 30.615 87.0565C30.751 86.8983 30.8739 86.7136 31.0032 86.5342C31.0688 86.4409 31.1326 86.3548 31.2019 86.2622C31.2766 86.1632 31.3579 86.0699 31.4419 85.9808C31.7369 85.6815 31.9821 85.3625 32.0905 84.9476C32.1327 84.7901 32.1486 84.5792 32.529 84.7651L32.555 84.8027L32.5437 84.7689C32.5955 84.668 32.4848 84.4969 32.6804 84.4469C32.8393 84.4032 32.8213 84.2037 32.8146 84.0383C32.8091 83.9158 32.8249 83.8028 32.8582 83.6977C32.9355 83.4432 32.942 83.4485 33.3955 83.703C33.4663 83.8293 33.3863 83.9663 33.6542 84.1169C33.5886 83.9526 33.5454 83.8252 33.4148 83.7038C33.2239 83.3802 33.327 83.1166 33.4111 82.9144C33.5414 82.6027 33.4657 82.1744 33.8813 82.006L34.1324 81.3566C34.091 81.0926 34.3321 80.9678 34.4532 80.7903C34.5561 80.6397 34.863 80.8544 35.0555 81.0103L35.0833 81.0407L35.0712 81.0103C35.0513 80.9314 35.0424 80.8552 34.9269 80.7842C34.6599 80.6139 34.3744 80.4394 34.8052 80.3526C34.8337 80.3477 34.862 80.3116 34.8526 80.2858C34.5961 79.7984 35.1882 79.6103 35.1034 79.1877C35.0986 79.1593 35.1131 79.1316 35.1295 79.1119C35.2355 79.0129 35.4813 78.9006 35.4274 78.8175C35.2907 78.6085 35.4777 78.5133 35.437 78.3593C35.3736 78.1055 35.8305 78.0566 35.6674 77.763C35.632 77.7001 35.7839 77.7171 35.8724 77.7388C35.9903 77.7672 36.0809 77.8283 36.1615 77.8984C36.2383 77.9679 36.3365 78.0619 36.414 77.9679C36.4523 77.9223 36.4003 77.8472 36.27 77.7729C35.8313 77.5218 35.7243 77.3515 35.887 77.067C36.0442 76.789 36.1801 76.5018 36.2359 76.1916C36.2676 75.9962 36.5527 75.9795 36.6871 75.86L36.7183 75.8441L36.6779 75.8498C36.4928 75.8244 36.3634 75.7462 36.3653 75.6256C36.3666 75.5403 36.4843 75.5376 36.6106 75.5797L36.6476 75.6044L36.6198 75.5744C36.7138 75.4606 37.0061 75.6874 37.0721 75.5278C37.1126 75.5376 37.1532 75.5475 37.1929 75.5611L37.2253 75.5884L37.2057 75.5562C37.2057 75.5562 37.1816 75.527 37.1668 75.5236C37.1336 75.5156 37.1015 75.5194 37.0674 75.5149C37.0232 75.5042 36.9689 75.5027 36.9347 75.483C36.496 75.2319 36.5004 75.2137 37.0793 75.112C36.603 75.0161 36.4708 74.8044 36.6474 74.6561C36.9921 74.361 36.73 73.8485 37.3081 73.6373C37.3567 73.2276 37.6367 72.8779 37.7738 72.4899C37.9195 72.0176 38.1306 71.5495 38.208 71.0534C38.3392 70.3513 38.5147 69.6602 39.2131 69.0332C39.5939 69.1531 39.6747 69.3678 39.6827 69.5919C39.6986 70.0255 39.8056 70.4689 39.6751 70.8941C39.661 70.9529 39.6459 71.0155 39.6671 71.0716C39.8279 71.4229 39.8461 71.7669 39.7961 72.1018C39.746 72.4371 39.6572 72.7709 39.5556 73.0937C39.3375 73.8641 39.1873 74.6436 39.0458 75.4212C38.8349 76.4665 38.3984 77.4459 38.185 78.4871C38.1214 78.8619 37.9702 79.2116 37.8338 79.5648C37.701 79.919 37.5831 80.2767 37.5398 80.6644C37.526 80.8017 37.4459 80.9227 37.3888 81.0456C37.1768 81.5015 36.9693 81.9548 36.7969 82.424C36.6171 82.8917 36.4327 83.3624 36.253 83.8301C36.2059 83.9435 36.145 84.0497 36.0805 84.1552C35.8285 84.5663 35.6153 84.9946 35.3985 85.4221C35.1918 85.856 34.9805 86.2926 34.7526 86.7174C34.5113 87.1976 34.1739 87.6232 33.8946 88.0822C33.4735 88.757 32.9631 89.445 32.3226 90.0739C31.9507 90.4328 31.5188 90.765 31.0047 91.0503C30.4915 91.3317 29.8832 91.5707 29.194 91.6765C28.4138 91.8036 27.607 91.5415 26.9168 91.2494C26.5911 91.1117 26.3109 90.9149 26.0584 90.7172C25.8058 90.5192 25.5846 90.3212 25.3359 90.1555C25.1751 90.0462 25.0453 89.9055 24.932 89.761C24.6442 89.3866 24.3658 89.054 24.1005 88.7475C23.8474 88.4558 23.585 88.1698 23.3409 87.8724C22.941 87.3812 22.5849 86.854 22.1711 86.3711C21.6202 85.7301 21.2019 84.9923 20.683 84.3315C19.9199 83.3582 19.2942 82.3011 18.619 81.2709C18.2489 80.705 17.7568 80.2069 17.4866 79.5833C17.0938 78.676 16.4445 77.9254 16.1113 76.982C15.9686 76.5728 15.7378 76.2044 15.519 75.8354C15.3011 75.4625 15.2116 75.0271 15.0065 74.6493C14.7967 74.259 14.6685 73.822 14.522 73.396C14.4694 73.2428 14.2889 73.0858 14.6876 72.8741C14.6916 72.7933 14.6892 72.7068 14.8324 72.6632C14.8957 72.6435 14.9438 72.6708 14.9469 72.7224C14.9457 72.8081 14.841 72.8373 14.7705 72.8866C14.7986 73.2212 14.8596 73.2595 15.2579 73.1138C15.5451 73.008 15.8235 72.8256 16.123 72.7656L16.1597 72.7588L16.1302 72.7516C16.1895 72.411 15.9426 72.109 16.4412 71.7108C16.4383 71.6907 16.4271 71.6724 16.4151 71.6577C16.3564 71.6903 16.2969 71.7267 16.2372 71.7472C16.1464 71.784 16.0608 71.7824 16.0805 71.7017L16.0897 71.696ZM38.0669 73.0994L38.0622 73.071L38.0347 73.0877L38.0642 73.0949L38.0669 73.0994ZM37.6578 74.1751L37.6788 74.1528L37.6493 74.1456L37.6578 74.1751ZM37.1866 74.4118L37.1818 74.3834L37.1543 74.4004L37.1875 74.4084L37.1866 74.4118ZM37.1362 74.8291C37.1804 74.8397 37.2246 74.8507 37.2652 74.8606L37.293 74.8905L37.2735 74.8587C37.2735 74.8587 37.2448 74.8321 37.23 74.8283C37.1968 74.8203 37.161 74.8234 37.1269 74.8192L37.0875 74.8367L37.1325 74.8283L37.1362 74.8291ZM38.2725 76.0178C38.2945 76.0076 38.2951 75.9727 38.3042 75.9514C38.2481 75.9575 38.1856 75.9579 38.1359 75.9693C38.1111 75.975 38.1105 76.0099 38.1023 76.0273C38.1817 76.0702 38.2321 76.0394 38.2761 76.019L38.2725 76.0178ZM36.8971 76.1529L36.9099 76.1324L36.8656 76.1218L36.8971 76.1529ZM36.7365 76.7343C36.7578 76.7434 36.7917 76.7321 36.8193 76.7313C36.7897 76.7082 36.7647 76.6828 36.7305 76.6627C36.6861 76.6365 36.6577 76.641 36.6505 76.6706C36.6764 76.6926 36.7015 76.718 36.7365 76.7343ZM36.6776 77.3799C36.6776 77.3799 36.7144 77.3731 36.7207 77.3629C36.7472 77.3344 36.7333 77.3113 36.6946 77.3098C36.6835 77.3071 36.6782 77.3291 36.6681 77.3386L36.6776 77.3799ZM37.7307 77.7369C37.7307 77.7369 37.7675 77.73 37.7739 77.7198C37.8012 77.6875 37.7873 77.6644 37.744 77.6659C37.733 77.6629 37.7276 77.6853 37.7176 77.6944L37.727 77.7357L37.7307 77.7369ZM35.9865 78.6525L36.002 78.6366L35.9578 78.626L35.9865 78.6525ZM35.9242 79.0861L35.9684 79.0971L35.9397 79.0705L35.9242 79.0861ZM35.7629 79.5583C35.7813 79.5629 35.8141 79.5238 35.803 79.5056C35.789 79.4828 35.7455 79.4525 35.7105 79.4362C35.6615 79.4127 35.6313 79.4248 35.6352 79.457C35.6548 79.5048 35.6873 79.5477 35.7629 79.5583ZM35.4518 80.5836C35.5694 80.4364 35.4606 80.2733 35.4819 80.1538L35.5195 80.1432L35.4763 80.1447C35.3186 80.2312 35.2486 80.3431 35.4509 80.5874L35.4518 80.5836ZM34.9559 81.3726C35.0308 81.4181 35.0933 81.4177 35.0976 81.368C35.1007 81.2906 35.0367 81.2167 34.9296 81.1594C34.8705 81.1294 34.7894 81.1097 34.7842 81.1632C34.7811 81.2405 34.8901 81.3062 34.9559 81.3726ZM34.5358 82.3326L34.5505 82.3204L34.5062 82.3098L34.5322 82.3314L34.5358 82.3326ZM34.2531 82.5488C34.2878 82.5181 34.2313 82.4616 34.1557 82.4354L34.0274 82.3849C33.9996 82.3546 34.0776 82.3227 33.9799 82.2912L34.0155 82.3857C34.0387 82.4187 34.0574 82.4543 34.0898 82.482C34.1379 82.5249 34.2138 82.5822 34.2494 82.548L34.2531 82.5488ZM34.3868 82.9949C34.2959 82.8871 34.2025 82.806 34.0348 82.773C34.1141 82.9289 34.2249 82.9869 34.3868 82.9949ZM33.6771 83.5877L33.6687 83.5585L33.6445 83.5293L33.653 83.5585L33.6771 83.5877ZM34.0684 84.0182L34.0497 83.9826L34.0311 83.9469L34.0387 83.9799L34.0693 84.0148L34.0684 84.0182ZM34.7229 85.6485C34.7229 85.6485 34.7167 85.6743 34.714 85.6853C34.7261 85.7001 34.7372 85.7183 34.7548 85.7267C34.7658 85.7293 34.7907 85.7236 34.7924 85.716C34.7977 85.6785 34.7727 85.6527 34.7303 85.6504L34.7229 85.6485ZM33.1714 84.8038C33.2046 84.8121 33.2609 84.8376 33.2709 84.8281C33.2974 84.7992 33.3073 84.7587 33.319 84.7264C33.269 84.6752 33.233 84.6627 33.2139 84.6934C33.1939 84.7276 33.1877 84.7689 33.1714 84.8038ZM32.851 85.0306L32.8935 85.0488L32.8666 85.0151L32.8519 85.0268L32.851 85.0306ZM32.4688 85.7536L32.4759 85.7244L32.442 85.7354L32.4688 85.7536ZM33.8047 87.198L33.7744 87.2101L33.8012 87.2283L33.8084 87.1988L33.8047 87.198ZM32.1246 86.2558C32.3855 86.3385 32.4458 86.2672 32.3099 86.0548L32.2959 86.0161L32.2989 86.0521C32.3163 86.1735 32.1016 86.1253 32.1246 86.2558ZM31.5463 86.9662L31.5526 86.9404L31.5241 86.9454L31.5463 86.9662ZM31.0788 87.9771C31.0788 87.9771 31.1072 87.9722 31.1062 87.9604C31.1013 87.916 31.0726 87.8895 31.0441 87.8944C31.0359 87.8963 31.0379 87.9202 31.0389 87.9323C31.0509 87.9468 31.0658 87.9661 31.0796 87.9733L31.0788 87.9771ZM30.7986 88.0378L30.8123 88.0294L30.779 88.0059L30.8014 88.0423L30.7986 88.0378ZM30.34 88.4964C30.4078 88.4584 30.4537 88.4459 30.4848 88.4144C30.5267 88.3701 30.5733 88.3071 30.4382 88.2043C30.3531 88.1368 30.3295 88.1857 30.3309 88.2601C30.3351 88.3234 30.3355 88.386 30.3437 88.4975L30.34 88.4964ZM29.9474 88.6667L29.9546 88.6371C29.9405 88.5988 30.0105 88.6155 29.9511 88.5389L29.9416 88.6261L29.9483 88.6629L29.9474 88.6667ZM29.7423 88.8044C29.7423 88.8044 29.77 88.8188 29.7792 88.8131C29.8067 88.7964 29.8018 88.768 29.7668 88.7517C29.7557 88.749 29.7429 88.7536 29.7411 88.7611C29.7393 88.7683 29.7422 88.7888 29.7469 88.8013L29.7423 88.8044ZM29.5072 88.4702C29.5072 88.4702 29.5163 88.449 29.518 88.4418L29.4902 88.4114C29.4902 88.4114 29.4681 88.4061 29.4682 88.4217C29.4667 88.4603 29.4815 88.4797 29.5035 88.4694L29.5072 88.4702ZM28.7924 90.2913C28.7901 90.3649 28.8134 90.4134 28.8687 90.4271C28.8761 90.4286 28.8989 90.399 28.8988 90.3834C28.9112 90.3163 28.9034 90.2518 28.8544 90.2283C28.8397 90.2245 28.8133 90.2689 28.7924 90.2913ZM28.6008 91.1777C28.584 91.279 28.6212 91.3348 28.6956 91.3177C28.7489 91.3071 28.8129 91.2524 28.8291 91.2016C28.8498 91.1326 28.7996 91.0658 28.7344 91.0772C28.6848 91.0886 28.6392 91.1478 28.6008 91.1777ZM27.9593 90.7487L27.9825 90.7817L27.998 90.7502L27.9584 90.7525L27.9593 90.7487ZM28.348 88.8563L28.3346 88.9117C28.3346 88.9117 28.3548 88.9087 28.3649 88.8996C28.3977 88.8605 28.4012 88.8302 28.3827 88.826C28.3791 88.8249 28.3617 88.848 28.3517 88.8575L28.348 88.8563ZM27.0067 88.4804C26.961 88.5085 26.9529 88.5415 26.987 88.5461C27.01 88.5476 27.0512 88.5225 27.0842 88.499C27.1318 88.4638 27.1371 88.4418 27.1122 88.4319C27.0774 88.4467 27.0425 88.4619 27.0104 88.4812L27.0067 88.4804ZM26.4131 88.8362L26.3785 88.8821C26.3785 88.8821 26.4062 88.8969 26.4227 88.8931C26.476 88.8825 26.4905 88.8548 26.4618 88.8283C26.4553 88.823 26.4297 88.8321 26.4131 88.8362ZM26.1795 88.7209L26.2027 88.738L26.2107 88.705L26.1795 88.7209ZM25.6794 88.3693C25.64 88.4027 25.6486 88.4478 25.6927 88.4429C25.792 88.4357 25.8791 88.3826 25.9456 88.2855C25.8581 88.276 25.7681 88.2931 25.6794 88.3693ZM26.8336 87.1506L26.8686 87.151L26.9099 87.1415L26.873 87.1328L26.8308 87.146L26.8336 87.1506ZM26.3799 87.1225C26.3799 87.1225 26.3516 87.1586 26.3544 87.1631C26.36 87.1722 26.3839 87.1703 26.3986 87.1737C26.416 87.1661 26.4426 87.1532 26.4444 87.1457C26.4552 87.1017 26.434 87.0926 26.3808 87.1187L26.3799 87.1225ZM25.3585 87.745C25.3486 87.7856 25.3736 87.7954 25.4231 87.7685C25.4359 87.7639 25.4513 87.7324 25.4476 87.7317C25.4383 87.7214 25.4181 87.7245 25.4034 87.7207C25.386 87.7283 25.3594 87.7412 25.3585 87.745ZM26.1962 86.3832C26.0674 86.5118 26.0847 86.6177 26.0937 86.725C26.0702 86.7739 26.0374 86.8286 26.0304 86.8737C26.0205 86.9143 26.0729 86.9074 26.0947 86.8657C26.1183 86.8168 26.1143 86.769 26.1222 86.7204C26.1086 86.6154 26.3955 86.4625 26.2008 86.3802L26.1962 86.3832ZM25.4128 86.8449C25.4128 86.8449 25.3799 86.868 25.3726 86.882C25.3445 86.9336 25.3648 86.9465 25.4161 86.912C25.4298 86.9037 25.4435 86.8798 25.4425 86.8676C25.4451 86.8566 25.423 86.8513 25.4138 86.8411L25.4128 86.8449ZM24.0576 87.7495L24.1009 87.7484L24.1884 87.9024L24.1804 87.9354L24.2041 87.9024C24.2402 87.8015 24.2296 87.7328 24.1018 87.7446L24.0576 87.7495ZM25.6809 86.2387C25.672 86.2755 25.6438 86.3271 25.6577 86.3343C25.7141 86.3753 25.7976 86.3529 25.8819 86.2952C25.9377 86.2581 25.9449 86.2285 25.9062 86.227C25.8326 86.2247 25.7572 86.2296 25.6818 86.2349L25.6809 86.2387ZM25.1184 85.5324L25.1516 85.5404L25.1929 85.5309L25.1597 85.523L25.1184 85.5324ZM24.8766 85.1615L24.9161 85.1592C24.9695 85.1645 25.022 85.1732 25.0818 85.1683C25.1296 85.1641 25.2069 85.1676 25.2109 85.0864C25.2136 85.0754 25.1437 85.0739 25.1061 85.0845C25.0436 85.1004 24.9831 85.1247 24.9188 85.1482L24.8729 85.1603L24.8766 85.1615ZM24.7135 84.8683C24.6713 84.8812 24.6578 84.921 24.6938 84.9335C24.7187 84.9438 24.7591 84.9377 24.7904 84.9377C24.8353 84.9134 24.847 84.8812 24.8148 84.8694C24.7898 84.8592 24.7512 84.8577 24.7163 84.8728L24.7135 84.8683ZM22.8891 83.9416C22.8891 83.9416 22.8577 83.9264 22.8449 83.931C22.7972 83.9507 22.7772 83.9849 22.7976 84.0133C22.8032 84.0224 22.829 84.0285 22.8418 84.0239C22.8896 84.0042 22.9086 83.9739 22.8928 83.9428L22.8891 83.9416ZM23.2898 83.4963C23.4847 83.4656 23.6429 83.4728 23.8233 83.3408C23.7095 83.2092 23.5317 83.2611 23.2898 83.4963ZM23.4483 82.6174C23.4294 82.6793 23.4673 82.7001 23.5325 82.6888C23.606 82.6755 23.6323 82.6156 23.6476 82.5685C23.661 82.5131 23.6461 82.4782 23.5725 82.4915C23.5074 82.5188 23.4654 82.5632 23.4483 82.6174ZM22.9013 81.4936C22.8592 81.5224 22.852 81.552 22.8834 81.5671C22.9259 81.5853 22.9692 81.5998 23.0198 81.6005C23.0612 81.6066 23.084 81.577 23.0654 81.5413C23.0392 81.4879 22.9848 81.4708 22.8976 81.4928L22.9013 81.4936ZM22.3433 80.6401C22.2527 80.708 22.2455 80.7372 22.2815 80.7501C22.3248 80.7645 22.3803 80.7933 22.4271 80.7774C22.5087 80.7467 22.5065 80.6913 22.4612 80.6685C22.4234 80.6477 22.3654 80.6454 22.3433 80.6401ZM21.7219 79.6774C21.6598 79.7404 21.5555 79.8166 21.5588 79.8993C21.5622 79.9824 21.6622 79.9403 21.74 79.8929C21.8408 79.8314 21.9166 79.7597 21.882 79.6774C21.8615 79.6334 21.8118 79.6292 21.7256 79.6785L21.7219 79.6774ZM21.15 78.2861L21.1768 78.3043L21.1849 78.2709L21.15 78.2861ZM20.7805 78.4579L20.88 78.4818L20.9214 78.4723L20.8827 78.4708C20.8423 78.4769 20.8554 78.39 20.7759 78.4606L20.7805 78.4579ZM20.7331 78.1382L20.7609 78.1526L20.7606 78.1211L20.7331 78.1382ZM18.7195 79.2147C18.6791 79.2207 18.6923 79.1339 18.6128 79.2044L18.7123 79.2287L18.7573 79.22L18.7204 79.2112L18.7195 79.2147ZM20.2488 78.0752C20.2397 78.0964 20.2842 78.1385 20.2934 78.1329C20.4786 78.0449 20.6195 77.9311 20.6796 77.7152C20.501 77.8397 20.3221 77.9019 20.2488 78.0752ZM19.6856 77.1307C19.676 77.3469 19.857 77.4376 19.991 77.6576C20.0712 77.2946 19.8253 77.2464 19.6856 77.1307ZM18.5511 77.3826C18.522 77.422 18.5314 77.4478 18.5746 77.4467C18.5893 77.4501 18.6205 77.4345 18.6278 77.4205C18.6569 77.3807 18.6466 77.3587 18.6052 77.3526C18.5878 77.3602 18.5584 77.3685 18.552 77.3788L18.5511 77.3826ZM19.1056 76.03L19.1145 76.1218C19.0665 76.3679 19.3038 76.2261 19.4387 76.1847C19.6031 76.135 19.7597 76.0364 19.7168 75.8267C19.5109 75.9837 19.33 76.1506 19.1191 76.1191C19.1188 76.0876 19.2058 76.019 19.1064 76.0262L19.1056 76.03ZM19.0217 75.7481C19.0217 75.7481 18.987 75.7785 18.9898 75.783C18.9953 75.7925 19.0083 75.8031 19.0239 75.8031C19.0763 75.7963 19.0973 75.7743 19.0723 75.7485C19.0658 75.7432 19.041 75.7489 19.0217 75.7481ZM17.3683 75.0661C17.3683 75.0661 17.3948 75.0373 17.3937 75.0252C17.3964 75.0142 17.3789 75.0062 17.3687 74.9998C17.3541 75.0119 17.3358 75.0229 17.3294 75.0331C17.3021 75.0813 17.3142 75.0957 17.3683 75.0661ZM18.5317 74.8875C18.4409 75.0529 18.538 75.1192 18.7087 75.2038C18.7543 75.0157 18.7985 74.8822 18.64 74.8435C18.6178 74.8382 18.5436 74.8708 18.5317 74.8875ZM18.677 73.9665L18.6496 73.9991C18.5949 74.0636 18.5282 74.1296 18.4808 74.196C18.4326 74.2666 18.4083 74.3504 18.5205 74.3386C18.6124 74.3295 18.6846 74.2571 18.6914 74.1808C18.6956 74.1156 18.674 74.0594 18.6607 74.0018L18.6697 73.9646L18.677 73.9665ZM16.2429 75.2964C16.2312 75.329 16.2121 75.3593 16.204 75.3923C16.1933 75.4367 16.2247 75.4523 16.2668 75.4234C16.2906 75.4056 16.305 75.3624 16.303 75.3385C16.3001 75.3184 16.2632 75.3093 16.2429 75.2964ZM17.9284 73.7382C17.9152 73.8247 17.9524 73.8808 18.0427 73.8948C18.0795 73.9035 18.1298 73.8573 18.1259 73.825C18.1097 73.7469 18.0213 73.7412 17.9284 73.7382ZM17.3062 74.083C17.4153 74.1641 17.5092 74.1789 17.6404 74.1209C17.645 74.1182 17.6556 74.0583 17.6407 74.0393C17.5832 73.9707 17.4768 74.023 17.3062 74.083ZM18.0121 73.2159C18.0121 73.2159 18.0123 73.2473 18.0243 73.2462C18.0685 73.2568 18.1006 73.2375 18.0975 73.2014C18.0993 73.1942 18.0727 73.1916 18.0588 73.1844C18.0442 73.1965 18.0194 73.2022 18.0121 73.2159ZM17.9581 72.0867L17.9445 72.1106L17.9767 72.1068L17.9581 72.0867ZM17.0741 72.3522C17.2329 72.5665 17.4444 72.5475 17.7111 72.4132L17.7479 72.4064L17.7184 72.3992C17.4815 72.4747 17.3245 72.3818 17.0741 72.3522Z" fill="#ADD4AA"/>
<path id="Vector_7" d="M17.5753 71.4433C17.6158 71.4532 17.6784 71.4528 17.7298 71.4342C17.7903 71.4096 17.8276 71.3523 17.8061 71.3121C17.7716 71.2453 17.6928 71.2806 17.6103 71.3311C17.5729 71.3728 17.5061 71.4228 17.5744 71.4471L17.5753 71.4433Z" fill="#ADD4AA"/>
<path id="Vector_8" d="M14.597 72.3568C14.6064 72.3826 14.6388 72.4099 14.6673 72.4054C14.7491 72.3898 14.7588 72.3337 14.7576 72.2904C14.7572 72.2434 14.7395 72.2039 14.6734 72.2191C14.5725 72.265 14.5838 72.3147 14.6016 72.3542L14.597 72.3568Z" fill="#ADD4AA"/>
<path id="Vector_9" d="M16.2535 71.4548C16.3123 71.4377 16.3728 71.4134 16.3769 71.3478C16.349 71.3023 16.2921 71.3118 16.2297 71.3436C16.1986 71.3592 16.1492 71.402 16.1447 71.4206C16.1295 71.4832 16.1993 71.4688 16.2544 71.451L16.2535 71.4548Z" fill="#ADD4AA"/>
</g>
</g>
</g>
</svg>
