<svg width="216" height="51" viewBox="0 0 216 51" fill="none" xmlns="http://www.w3.org/2000/svg">
<path d="M116.742 48.7638C116.9 48.5167 116.473 48.1565 118.064 48.0929C119.632 48.0223 121.207 47.8599 122.783 47.7469C124.232 47.6622 125.681 47.5774 127.24 47.4856C127.541 47.189 126.393 47.0195 127.09 46.7229C127.676 46.4687 128.658 46.3133 129.22 46.398C131.666 46.7511 134.532 46.2497 137.066 46.3345C137.295 46.1721 137.541 46.0096 138.095 45.9461C138.19 45.9319 138.451 46.0238 138.42 46.0661C138.253 46.2639 137.707 46.3062 137.24 46.3769C137.153 46.511 136.527 46.7935 137.47 46.6947C138.768 46.5605 139.037 46.0732 139.853 45.7836C140.834 45.4376 141.025 45.7554 141.04 46.0096L140.914 46.1014L141.104 46.0238C141.745 45.9602 142.339 45.9249 142.671 46.1085L142.497 46.1932L142.719 46.1156C145.886 45.6707 149.005 45.0986 151.752 44.237C152.829 43.9051 153.906 43.6791 155.062 43.5591C156.368 43.432 156.97 43.5097 156.186 44.0746C155.988 44.2088 155.22 44.4701 156.067 44.463C156.257 44.463 156.606 44.3783 156.907 44.3006C157.057 44.2582 157.192 44.2159 157.295 44.1876C157.398 44.1594 157.461 44.1311 157.453 44.1311C157.073 43.5308 159.385 43.3614 159.891 42.9094C160.161 42.6622 160.826 42.3938 161.467 42.415C163.28 42.4786 165.204 41.8501 167.065 41.5181C167.603 41.4052 168.007 41.3981 168.323 41.4687C168.22 41.5746 167.603 41.6311 167.833 41.7583L168.371 41.4687C169.139 41.384 169.772 41.1862 170.398 40.8543C171.174 40.4165 172.029 40.0351 172.836 40.2258L172.163 40.6919L172.052 40.7978L172.242 40.6989L172.908 40.2328C173.628 39.8586 174.333 39.4984 175.251 39.4984C176.035 39.4984 176.811 39.5549 177.713 39.3995C179.487 39.0888 178.727 39.0394 178.014 39.0323C178.347 38.8204 178.671 38.5238 179.02 38.425C180.492 37.9871 182.02 37.5069 183.438 37.1962C184.958 36.8501 183.35 37.8247 183.913 37.9306C184.776 37.5563 184.855 37.2597 185.045 36.949C185.227 36.6524 185.662 36.3205 186.335 36.158C189.494 35.3741 191.965 33.7499 194.546 32.2598C195.749 31.5677 196.628 30.6849 197.99 30.0352C198.924 29.6044 199.423 29.1877 199.779 28.644C200.175 28.0508 200.594 27.1539 201.822 27.4999C201.996 27.5493 202.423 27.2316 202.566 27.0126C203.183 26.0804 204.719 25.1624 205.709 24.2019C206.667 23.2627 207.039 22.7754 207.364 22.62C207.672 22.4576 207.918 22.62 208.401 22.9378C208.908 22.3375 209.414 21.6878 209.66 21.0522C209.921 20.4237 209.905 19.8234 209.596 19.4421C209.462 19.2302 209.406 18.6864 209.676 18.4322C210.064 18.0367 209.937 17.4011 209.652 16.9421C209.549 16.8291 209.462 16.7232 209.367 16.6525C209.256 16.589 209.169 16.5325 209.098 16.4901C208.607 16.25 208.235 15.9322 207.807 15.572C207.387 15.2119 206.905 14.8376 206.287 14.6045C205.495 14.315 206.137 14.1596 205.931 13.9195C205.289 13.2204 204.711 13.2486 204.284 13.4605C204.624 13.7218 204.561 13.8136 204.046 13.7147C203.975 13.7147 203.904 13.7077 203.825 13.6935C203.817 13.6935 203.73 13.6229 203.738 13.6229C203.801 13.6229 203.872 13.6229 203.936 13.6229C203.928 13.5594 203.904 13.4887 203.872 13.411C202.954 13.0438 202.027 12.7966 201.109 12.6554C201.038 12.6554 200.935 12.6837 200.887 12.6554C200.682 12.5707 200.737 12.5495 201.038 12.5918C200.705 12.2599 200.46 11.9633 199.541 12.0128C198.655 12.0693 197.594 12.0128 196.731 11.2077L196.881 11.1865L196.667 11.1653C194.308 10.9605 191.585 10.1696 189.146 10.0566C188.045 10.0071 187.578 9.80232 186.573 9.04668C186.177 8.7642 185.67 8.73595 185.456 8.74301C184.451 8.7642 183.469 8.72889 182.464 8.61589C181.458 8.50996 180.453 8.29104 179.408 7.88144C179.241 7.81082 178.806 7.72607 178.766 7.74726C177.793 8.11448 176.557 8.07917 175.243 7.92381C173.929 7.79669 172.535 7.56364 171.277 7.51421C170.184 7.49302 168.569 7.47184 168.3 6.79388C168.173 6.47608 167.674 6.61732 167.326 6.70207C165.964 7.03399 164.301 6.87156 162.583 6.83625C156.938 6.66676 151.301 6.59614 145.601 6.61732C143.083 6.61732 140.66 6.97749 138.198 6.53964C137.937 6.51845 138.214 6.31365 137.675 6.38427L138.127 6.55376C135.15 7.19641 131.864 6.94924 128.84 6.84331C125.641 6.72325 122.514 6.84331 119.394 6.81506C115.95 6.77975 112.522 7.0128 109.046 6.83625C107.336 6.74444 105.199 6.66676 103.393 7.09048C102.103 7.39415 101.541 7.04811 100.86 6.82212C100.583 6.97043 100.298 7.12579 99.7198 7.15404C99.6169 7.15404 99.3556 7.05517 99.3794 7.00574C99.514 6.808 100.092 6.77975 100.583 6.73032C98.3897 6.44077 96.8696 7.18935 94.8428 7.32353C93.2276 7.43653 91.2721 7.82494 89.9657 7.66251C88.2952 7.44359 87.1471 8.29104 85.7933 7.93793L85.9675 7.86025L85.7379 7.92381C84.091 7.97324 82.5868 8.2416 80.9875 8.48171C77.7255 8.98312 74.234 9.3221 70.8058 9.45628C66.9896 9.60458 63.126 9.5834 59.5553 10.4167C58.9931 10.5438 58.2648 10.6992 57.7185 10.7133C52.3347 10.7416 47.2043 11.9774 42.1847 13.0791C39.6828 13.637 37.2522 14.4562 34.7424 14.9788L34.5128 14.993L34.687 15.0141C34.4574 15.2331 34.0219 15.5014 33.5627 15.572C30.2691 16.0523 27.1259 17.3729 24.0619 18.298C19.6837 19.6327 15.5112 21.483 11.9801 23.5451C10.4442 24.442 8.9557 25.4802 8.02145 26.5395L7.68101 26.9279L7.45141 27.3022L7.33265 27.4858L7.27722 27.6553C7.23764 27.7612 7.19013 27.8742 7.15055 27.9731C7.11096 28.3544 7.13471 28.6087 7.31681 28.8488C7.34056 28.9335 7.49891 29.0606 7.51474 29.1807C7.51474 29.2442 7.586 29.3219 7.62559 29.3925C7.66517 29.4702 7.69684 29.5408 7.71268 29.6185C7.73643 29.7033 7.72851 29.7951 7.79185 29.8869L7.97395 30.1623L8.16396 30.4377L8.25897 30.579L8.41732 30.7414C8.86069 31.1722 9.30406 31.603 9.8266 31.9702C10.8242 32.7612 11.9722 33.4179 13.0331 34.1665C15.1866 35.6284 17.7914 36.6947 20.317 37.8035C22.2014 38.6298 24.9408 38.7357 26.0571 40.1975C26.16 40.3317 26.6034 40.3176 26.9043 40.3105C29.0736 40.3247 29.0657 40.3247 31.338 41.3487C31.5359 41.4334 31.5992 41.5252 31.8843 41.5323C35.7796 41.6382 39.8807 42.6128 43.974 43.2272C47.228 43.7145 50.6641 44.0111 53.7519 44.6608C60.1253 46.0026 66.9025 46.2992 73.7035 46.5534C75.1524 46.6028 76.53 46.6735 77.8839 46.9136C81.1854 47.5068 84.8432 47.6692 88.5168 47.7398C92.1271 47.8175 95.7691 48.0364 99.3319 47.8458C101.699 47.7187 104.154 47.5492 106.537 47.3302C109.403 47.0689 112.475 47.3302 113.947 48.0364C114.882 48.4814 113.829 48.9121 112.688 49.124C109.205 49.7737 105.666 50.5082 101.691 50.3952C98.9281 50.3175 96.1729 50.3316 93.3939 50.3599C88.2397 50.4022 83.0618 50.4305 77.9235 50.2539C73.7748 50.1056 69.729 50.2539 65.6279 50.1763C60.3391 50.0633 55.0187 49.7808 49.7774 49.4206C41.3692 48.8274 33.0718 47.2596 24.9012 45.0704C20.0637 43.7498 15.2658 42.0831 10.7846 39.6679C8.55191 38.4603 6.3984 37.0478 4.45866 35.3812C3.9757 34.9504 3.50066 34.5761 3.00187 34.0112C2.75644 33.7499 2.511 33.4886 2.27348 33.2131L1.64009 32.2809C1.41841 31.9843 1.25215 31.6242 1.10172 31.2569C0.959204 30.8897 0.761272 30.5507 0.70585 30.1411C0.626677 29.7457 0.547504 29.3431 0.5 28.9476C0.5 28.5451 0.515835 28.1355 0.547504 27.7259C0.595008 27.2104 0.769189 26.7231 0.895866 26.2287C1.07005 25.7556 1.29965 25.3248 1.52133 24.8799C1.76677 24.4703 2.05179 24.0889 2.32098 23.6934C2.60601 23.3262 2.9227 23.0014 3.22356 22.6553C4.48241 21.3559 5.88378 20.3319 7.30098 19.3926C10.1591 17.5706 13.1123 16.1017 16.0259 14.6822C16.3742 14.5127 16.7701 14.3644 17.1422 14.2161C22.233 12.2882 27.3635 10.6286 32.5335 9.12436C35.1224 8.37578 37.7193 7.66957 40.3241 7.0128C43.016 6.3419 45.7396 5.81225 48.479 5.41677C54.3615 4.56226 60.2916 4.06085 66.0475 3.46763C66.3088 3.43938 66.5779 3.40407 66.8392 3.39701C70.022 3.32639 73.1414 3.09334 76.2292 2.78261C77.7968 2.63431 79.2615 2.43657 80.8766 2.27414C82.468 2.09759 84.0594 1.93516 85.6666 1.83629C93.9085 1.26426 102.158 1.04534 110.313 0.600427C112.166 0.50862 114.019 0.600427 115.847 0.600427C122.498 0.621613 129.085 0.395627 135.633 0.219075C140.431 0.0778329 145.419 -0.0422225 150.351 0.0142741C155.292 0.0566467 160.248 0.219075 165.212 0.515682C173.992 1.02415 182.875 2.12584 191.426 4.42808C192.321 4.66113 193.231 4.88711 194.166 5.08485C195.092 5.28259 196.026 5.48739 196.921 5.76987C198.378 6.21478 199.842 6.63851 201.283 7.13992L203.445 7.86025L205.551 8.59471C207.007 9.1173 208.543 9.70345 210.151 10.5721C210.95 11.0099 211.79 11.5396 212.621 12.2599C213.033 12.613 213.444 13.0438 213.832 13.524C214.014 13.7783 214.212 14.0466 214.378 14.3221C214.537 14.6116 214.679 14.9011 214.814 15.1907L215.139 16.1158C215.218 16.4407 215.305 16.7655 215.368 17.0975C215.645 18.637 215.495 20.3955 214.83 21.8785C214.196 23.3827 213.223 24.5691 212.233 25.5508C210.222 27.4928 208.1 28.757 206.144 29.9716C204.719 30.8403 203.31 31.6242 201.98 32.3939C201.315 32.7753 200.674 33.1566 200.08 33.5309C199.399 33.9405 198.639 34.4349 197.895 34.8374C194.902 36.5394 191.743 37.8953 188.584 39.0605C185.425 40.2328 182.266 41.2145 179.17 42.2032L174.531 43.6791L172.116 44.4277C171.308 44.6749 170.501 44.8868 169.693 45.1198C160.374 47.7187 150.826 48.7144 141.444 49.9856C137.01 50.5717 132.41 50.7412 127.906 50.9884C127.145 51.0308 126.377 50.946 125.633 50.9107C124.359 50.8472 124.311 50.5647 125.174 50.2822C126.314 49.9079 127.288 49.5477 126.868 49.0534L127.019 48.9686L126.821 49.0463C126.686 49.0605 126.552 49.0605 126.425 49.0816C124.43 49.3782 125.649 48.6791 125.032 48.6085C123.63 48.4319 123.678 49.1169 122.585 49.1734C122.466 49.1734 122.284 49.1734 122.253 49.1523C121.279 48.4814 119.521 48.7144 117.708 48.9686C117.138 49.0463 116.568 48.9475 116.695 48.7568L116.742 48.7638ZM76.1896 47.2808L76.4113 47.3232L76.4429 47.2667L76.1896 47.2808ZM53.6173 45.0845H53.8627L53.6331 45.028L53.6173 45.0845ZM50.2049 44.7455C50.3158 44.7596 50.4266 44.7455 50.5375 44.7455L50.3395 44.6608C50.2208 44.6467 50.0703 44.6184 49.9912 44.6255C49.7616 44.6537 49.8486 44.7031 50.2049 44.7455ZM46.5234 44.237L46.7371 44.3006L46.7688 44.2512L46.5234 44.237ZM41.1633 43.2554L41.2821 43.3543C41.5355 43.4108 41.6226 43.6227 42.0422 43.5379L41.3454 43.3472L41.1633 43.2554ZM37.6718 42.8176L38.1548 42.9871L38.8198 43.0577C38.6615 43.0012 38.511 42.9306 38.3448 42.8953C38.131 42.8529 37.9014 42.8388 37.6718 42.8176ZM163.613 5.67807H163.367L163.581 5.7275L163.605 5.67807H163.613ZM181.047 7.60602C181.094 7.51421 180.936 7.44359 180.635 7.41534C180.548 7.40828 180.484 7.44359 180.413 7.46477C180.397 7.55658 180.54 7.6272 180.833 7.66251C180.92 7.66957 181.031 7.64133 181.047 7.61308V7.60602ZM206.517 13.2839L206.35 13.1992L206.366 13.2981H206.517V13.2839ZM211.394 13.3899C211.473 13.4605 211.584 13.4887 211.679 13.5382V13.3899C211.552 13.3122 211.417 13.1992 211.33 13.1568C211.029 13.0438 211.069 13.1074 211.402 13.3899H211.394ZM210.064 15.3672C210.064 15.3178 210.087 15.2754 210.064 15.2048C209.961 15 209.826 14.9153 209.747 15C209.731 15.0212 209.81 15.1201 209.842 15.1836C209.921 15.2401 210 15.2966 210.064 15.3602V15.3672ZM210.467 17.2528L210.451 17.0763L210.372 17.0621L210.459 17.2528H210.467ZM210.127 23.2627L210.277 23.072L210.111 23.1991L210.127 23.2627ZM206.802 24.2231C206.936 24.1101 207.047 23.9477 207.095 23.8276C207.166 23.6581 207.039 23.6511 206.849 23.8064C206.714 23.9124 206.643 24.0677 206.548 24.2019C206.501 24.3573 206.604 24.3785 206.802 24.2231ZM189.447 36.2498C189.558 36.3275 189.74 36.271 189.938 36.1015C190.056 35.9956 190.183 35.8614 190.159 35.7979C190.112 35.699 189.866 35.7837 189.676 35.9391C189.558 36.045 189.518 36.1439 189.447 36.2428V36.2498ZM171.538 41.5958C171.538 41.5958 171.657 41.6241 171.728 41.6453C171.831 41.6241 171.989 41.5958 172.013 41.5746C172.068 41.5323 172.092 41.4687 172.045 41.4617C171.847 41.4334 171.641 41.4899 171.538 41.6029V41.5958ZM168.862 42.1396L169.028 42.1043L168.949 42.0407L168.862 42.1396ZM129.378 48.5379C129.576 48.4955 129.798 48.4531 129.964 48.4037C130.233 48.3189 130.202 48.2413 129.901 48.2483C129.719 48.2483 129.489 48.326 129.315 48.3825C129.054 48.4672 129.085 48.5237 129.378 48.5449V48.5379Z" fill="#DD5621"/>
<path d="M19.8461 32.604L19.8461 31.938C19.8461 31.77 19.8791 31.668 19.9451 31.632C20.0051 31.596 20.1131 31.578 20.2691 31.578L21.4661 31.578C21.7241 31.578 21.8981 31.554 21.9881 31.506C22.0841 31.458 22.1531 31.323 22.1951 31.101L24.3011 21.264C24.3311 21.114 24.3281 21.021 24.2921 20.985C24.2561 20.943 24.1511 20.922 23.9771 20.922L22.6541 20.922C22.4981 20.922 22.3931 20.907 22.3391 20.877C22.2911 20.841 22.2671 20.745 22.2671 20.589L22.2671 19.896C22.2671 19.728 22.2851 19.62 22.3211 19.572C22.3631 19.524 22.4651 19.5 22.6271 19.5L28.6571 19.5C28.8071 19.5 28.8971 19.524 28.9271 19.572C28.9631 19.62 28.9811 19.722 28.9811 19.878L28.9811 20.544C28.9811 20.712 28.9571 20.817 28.9091 20.859C28.8611 20.901 28.7561 20.922 28.5941 20.922L27.3881 20.922C27.1721 20.922 27.0341 20.946 26.9741 20.994C26.9201 21.042 26.8751 21.156 26.8391 21.336L26.0651 24.945C26.0291 25.107 26.0261 25.215 26.0561 25.269C26.0921 25.317 26.2151 25.341 26.4251 25.341L31.9871 25.341C32.1851 25.341 32.2961 25.317 32.3201 25.269C32.3501 25.221 32.3801 25.122 32.4101 24.972L33.2021 21.291C33.2381 21.141 33.2411 21.042 33.2111 20.994C33.1811 20.946 33.0761 20.922 32.8961 20.922L31.7081 20.922C31.5521 20.922 31.4531 20.904 31.4111 20.868C31.3691 20.826 31.3481 20.727 31.3481 20.571L31.3481 19.806C31.3481 19.68 31.3691 19.599 31.4111 19.563C31.4531 19.521 31.5371 19.5 31.6631 19.5L37.6481 19.5C37.8161 19.5 37.9181 19.515 37.9541 19.545C37.9901 19.569 38.0081 19.665 38.0081 19.833L38.0081 20.535C38.0081 20.703 37.9841 20.811 37.9361 20.859C37.8941 20.901 37.7891 20.922 37.6211 20.922L36.3071 20.922C36.0791 20.922 35.9381 20.943 35.8841 20.985C35.8361 21.027 35.7911 21.141 35.7491 21.327L33.6521 31.146C33.6101 31.332 33.6071 31.452 33.6431 31.506C33.6791 31.554 33.8171 31.578 34.0571 31.578L35.2901 31.578C35.4461 31.578 35.5421 31.602 35.5781 31.65C35.6201 31.692 35.6411 31.791 35.6411 31.947L35.6411 32.658C35.6411 32.802 35.6201 32.895 35.5781 32.937C35.5361 32.979 35.4431 33 35.2991 33L29.3321 33C29.1821 33 29.0801 32.979 29.0261 32.937C28.9781 32.895 28.9541 32.796 28.9541 32.64L28.9541 31.92C28.9541 31.758 28.9811 31.662 29.0351 31.632C29.0951 31.596 29.1971 31.578 29.3411 31.578L30.5921 31.578C30.8081 31.578 30.9341 31.557 30.9701 31.515C31.0121 31.473 31.0511 31.365 31.0871 31.191L31.9601 27.123C32.0021 26.943 32.0021 26.829 31.9601 26.781C31.9181 26.727 31.7831 26.7 31.5551 26.7L26.0651 26.7C25.8491 26.7 25.7261 26.733 25.6961 26.799C25.6661 26.859 25.6331 26.976 25.5971 27.15L24.7241 31.2C24.6941 31.344 24.6911 31.443 24.7151 31.497C24.7451 31.551 24.8531 31.578 25.0391 31.578L26.2451 31.578C26.4131 31.578 26.5151 31.605 26.5511 31.659C26.5931 31.707 26.6141 31.818 26.6141 31.992L26.6141 32.631C26.6141 32.793 26.5901 32.895 26.5421 32.937C26.4941 32.979 26.3921 33 26.2361 33L20.2601 33C20.0801 33 19.9661 32.976 19.9181 32.928C19.8701 32.88 19.8461 32.772 19.8461 32.604ZM36.641 29.652C36.641 28.794 36.791 27.99 37.091 27.24C37.391 26.484 37.808 25.821 38.342 25.251C38.876 24.675 39.497 24.225 40.205 23.901C40.919 23.571 41.687 23.406 42.509 23.406C43.289 23.406 43.967 23.553 44.543 23.847C45.119 24.135 45.566 24.549 45.884 25.089C46.202 25.623 46.361 26.256 46.361 26.988C46.361 27.84 46.211 28.644 45.911 29.4C45.611 30.156 45.194 30.822 44.66 31.398C44.126 31.968 43.502 32.418 42.788 32.748C42.08 33.072 41.315 33.234 40.493 33.234C39.713 33.234 39.032 33.09 38.45 32.802C37.874 32.508 37.427 32.094 37.109 31.56C36.797 31.02 36.641 30.384 36.641 29.652ZM39.179 29.814C39.179 30.24 39.227 30.624 39.323 30.966C39.419 31.308 39.569 31.578 39.773 31.776C39.983 31.974 40.259 32.073 40.601 32.073C41.039 32.073 41.45 31.929 41.834 31.641C42.224 31.347 42.569 30.951 42.869 30.453C43.169 29.949 43.403 29.385 43.571 28.761C43.739 28.137 43.823 27.492 43.823 26.826C43.823 26.4 43.775 26.016 43.679 25.674C43.589 25.332 43.439 25.062 43.229 24.864C43.019 24.666 42.743 24.567 42.401 24.567C41.963 24.567 41.549 24.714 41.159 25.008C40.775 25.296 40.433 25.692 40.133 26.196C39.833 26.694 39.599 27.255 39.431 27.879C39.263 28.497 39.179 29.142 39.179 29.814ZM47.5127 26.205C47.8967 25.377 48.3917 24.705 48.9977 24.189C49.6097 23.673 50.2727 23.415 50.9867 23.415C51.5267 23.415 51.9317 23.538 52.2017 23.784C52.4777 24.03 52.6157 24.381 52.6157 24.837C52.6157 24.915 52.6067 25.017 52.5887 25.143C52.5707 25.269 52.5467 25.38 52.5167 25.476L51.4547 29.427C51.2627 30.129 51.2027 30.708 51.2747 31.164C51.3467 31.62 51.6227 31.848 52.1027 31.848C52.5407 31.848 52.9607 31.656 53.3627 31.272C53.7707 30.882 54.1277 30.381 54.4337 29.769C54.7457 29.151 54.9797 28.5 55.1357 27.816L56.0087 23.982C56.0447 23.832 56.0927 23.739 56.1527 23.703C56.2187 23.661 56.3477 23.64 56.5397 23.64L57.9347 23.64C58.1867 23.64 58.3277 23.667 58.3577 23.721C58.3937 23.769 58.3877 23.898 58.3397 24.108L57.0707 29.49C56.9507 29.994 56.8877 30.435 56.8817 30.813C56.8817 31.185 56.9657 31.473 57.1337 31.677C57.3017 31.881 57.5777 31.983 57.9617 31.983C58.4597 31.983 58.9187 31.839 59.3387 31.551C59.7587 31.263 60.1307 30.891 60.4547 30.435C60.7847 29.979 61.0607 29.49 61.2827 28.968C61.5047 28.446 61.6757 27.948 61.7957 27.474C61.9157 27 61.9757 26.604 61.9757 26.286C61.9757 26.13 61.9667 26.007 61.9487 25.917C61.9307 25.827 61.8857 25.782 61.8137 25.782C61.7657 25.782 61.7327 25.794 61.7147 25.818C61.7027 25.842 61.6577 25.866 61.5797 25.89C61.5077 25.914 61.3637 25.926 61.1477 25.926C60.8597 25.926 60.6137 25.818 60.4097 25.602C60.2057 25.386 60.1037 25.089 60.1037 24.711C60.1037 24.351 60.2327 24.051 60.4907 23.811C60.7487 23.571 61.1057 23.451 61.5617 23.451C61.8677 23.451 62.1557 23.529 62.4257 23.685C62.6957 23.841 62.9147 24.096 63.0827 24.45C63.2507 24.804 63.3347 25.284 63.3347 25.89C63.3347 26.334 63.2627 26.868 63.1187 27.492C62.9807 28.116 62.7677 28.761 62.4797 29.427C62.1977 30.087 61.8347 30.708 61.3907 31.29C60.9527 31.866 60.4307 32.334 59.8247 32.694C59.2247 33.054 58.5407 33.234 57.7727 33.234C57.3827 33.234 57.0047 33.18 56.6387 33.072C56.2787 32.97 55.9577 32.793 55.6757 32.541C55.3937 32.289 55.1717 31.944 55.0097 31.506C54.9257 31.272 54.8417 31.158 54.7577 31.164C54.6737 31.17 54.5417 31.29 54.3617 31.524C53.9537 32.07 53.4977 32.49 52.9937 32.784C52.4897 33.078 51.9707 33.225 51.4367 33.225C51.0467 33.225 50.6747 33.168 50.3207 33.054C49.9667 32.946 49.6667 32.763 49.4207 32.505C49.1747 32.241 49.0187 31.887 48.9527 31.443C48.8867 30.999 48.9497 30.447 49.1417 29.787L50.2937 25.692C50.3417 25.518 50.3657 25.38 50.3657 25.278C50.3657 25.068 50.2637 24.963 50.0597 24.963C49.8137 24.963 49.5407 25.122 49.2407 25.44C48.9467 25.758 48.6797 26.175 48.4397 26.691C48.3677 26.841 48.3137 26.931 48.2777 26.961C48.2477 26.985 48.1487 26.967 47.9807 26.907L47.5757 26.727C47.4317 26.673 47.3687 26.604 47.3867 26.52C47.4107 26.436 47.4527 26.331 47.5127 26.205ZM82.6345 28.428C82.3765 28.98 82.0405 29.541 81.6265 30.111C81.2125 30.675 80.7145 31.194 80.1325 31.668C79.5565 32.136 78.8935 32.514 78.1435 32.802C77.3935 33.09 76.5505 33.234 75.6145 33.234C74.5225 33.234 73.5475 33.027 72.6895 32.613C71.8375 32.193 71.1655 31.557 70.6735 30.705C70.1875 29.853 69.9445 28.779 69.9445 27.483C69.9445 26.679 70.0705 25.884 70.3225 25.098C70.5805 24.306 70.9465 23.559 71.4205 22.857C71.9005 22.155 72.4735 21.537 73.1395 21.003C73.8055 20.463 74.5555 20.04 75.3895 19.734C76.2235 19.422 77.1205 19.266 78.0805 19.266C79.0045 19.266 79.7725 19.395 80.3845 19.653C80.9965 19.911 81.4915 20.244 81.8695 20.652C81.9835 20.766 82.0555 20.835 82.0855 20.859C82.1155 20.883 82.1845 20.823 82.2925 20.679L82.9135 19.707C82.9675 19.641 83.0215 19.59 83.0755 19.554C83.1355 19.518 83.2315 19.5 83.3635 19.5L84.2455 19.5C84.3715 19.5 84.4435 19.515 84.4615 19.545C84.4855 19.569 84.4855 19.638 84.4615 19.752L83.5705 24.072C83.5465 24.21 83.5135 24.303 83.4715 24.351C83.4295 24.393 83.3245 24.414 83.1565 24.414L82.4275 24.414C82.2775 24.414 82.1875 24.396 82.1575 24.36C82.1275 24.318 82.1155 24.234 82.1215 24.108C82.1755 23.418 82.0405 22.821 81.7165 22.317C81.3925 21.807 80.9335 21.414 80.3395 21.138C79.7515 20.856 79.0825 20.715 78.3325 20.715C77.4625 20.715 76.6825 20.916 75.9925 21.318C75.3085 21.714 74.7265 22.242 74.2465 22.902C73.7665 23.562 73.4005 24.291 73.1485 25.089C72.8965 25.881 72.7705 26.67 72.7705 27.456C72.7705 28.392 72.8965 29.169 73.1485 29.787C73.4005 30.405 73.7725 30.87 74.2645 31.182C74.7565 31.488 75.3595 31.641 76.0735 31.641C76.6075 31.641 77.1175 31.545 77.6035 31.353C78.0955 31.155 78.5485 30.897 78.9625 30.579C79.3765 30.255 79.7515 29.898 80.0875 29.508C80.4235 29.118 80.7055 28.728 80.9335 28.338C80.9935 28.242 81.0535 28.161 81.1135 28.095C81.1735 28.029 81.2815 27.996 81.4375 27.996L82.2025 27.996C82.4605 27.996 82.6165 28.026 82.6705 28.086C82.7245 28.14 82.7125 28.254 82.6345 28.428ZM91.3439 27.24C91.3439 26.79 91.3049 26.37 91.2269 25.98C91.1489 25.59 91.0049 25.278 90.7949 25.044C90.5849 24.804 90.2849 24.684 89.8949 24.684C89.5469 24.684 89.1899 24.831 88.8239 25.125C88.4639 25.413 88.1309 25.803 87.8249 26.295C87.5189 26.781 87.2729 27.324 87.0869 27.924C86.9009 28.524 86.8079 29.136 86.8079 29.76C86.8079 30.462 86.9369 31.005 87.1949 31.389C87.4529 31.773 87.8219 31.965 88.3019 31.965C88.6439 31.965 88.9919 31.824 89.3459 31.542C89.7059 31.254 90.0359 30.876 90.3359 30.408C90.6419 29.94 90.8849 29.43 91.0649 28.878C91.2509 28.32 91.3439 27.774 91.3439 27.24ZM95.6099 30.318C95.2259 31.194 94.7219 31.905 94.0979 32.451C93.4799 32.991 92.8049 33.261 92.0729 33.261C91.6409 33.261 91.2959 33.159 91.0379 32.955C90.7859 32.745 90.6239 32.493 90.5519 32.199C90.5399 32.085 90.5309 31.998 90.5249 31.938C90.5189 31.878 90.5129 31.827 90.5069 31.785C90.4889 31.713 90.4559 31.683 90.4079 31.695C90.3659 31.701 90.3029 31.746 90.2189 31.83C89.8529 32.244 89.4329 32.583 88.9589 32.847C88.4849 33.105 87.9749 33.234 87.4289 33.234C86.8769 33.234 86.3579 33.129 85.8719 32.919C85.3859 32.703 84.9899 32.346 84.6839 31.848C84.3779 31.35 84.2249 30.672 84.2249 29.814C84.2249 28.884 84.3869 28.032 84.7109 27.258C85.0409 26.478 85.4669 25.803 85.9889 25.233C86.5169 24.657 87.0749 24.213 87.6629 23.901C88.2569 23.583 88.8209 23.424 89.3549 23.424C89.9669 23.424 90.4559 23.55 90.8219 23.802C91.1879 24.048 91.4669 24.399 91.6589 24.855C91.7489 25.077 91.8119 25.182 91.8479 25.17C91.8899 25.158 91.9319 25.044 91.9739 24.828L92.1899 23.892C92.2079 23.802 92.2379 23.739 92.2799 23.703C92.3219 23.661 92.4089 23.64 92.5409 23.64L94.1519 23.64C94.3559 23.64 94.4729 23.664 94.5029 23.712C94.5329 23.754 94.5299 23.85 94.4939 24L92.7479 31.065C92.7359 31.113 92.7239 31.17 92.7119 31.236C92.7059 31.296 92.7029 31.35 92.7029 31.398C92.7029 31.608 92.8049 31.713 93.0089 31.713C93.1769 31.713 93.3599 31.635 93.5579 31.479C93.7559 31.323 93.9509 31.11 94.1429 30.84C94.3349 30.564 94.5029 30.255 94.6469 29.913C94.7009 29.787 94.7459 29.715 94.7819 29.697C94.8179 29.679 94.8899 29.694 94.9979 29.742L95.4839 29.931C95.6039 29.979 95.6699 30.024 95.6819 30.066C95.6939 30.102 95.6699 30.186 95.6099 30.318ZM96.5739 23.64L99.7779 23.64C99.9819 23.64 100.105 23.661 100.147 23.703C100.195 23.745 100.198 23.85 100.156 24.018L99.7959 25.584C99.7299 25.854 99.7149 26.001 99.7509 26.025C99.7929 26.043 99.9159 25.902 100.12 25.602C100.606 24.912 101.128 24.378 101.686 24C102.25 23.616 102.841 23.424 103.459 23.424C103.849 23.424 104.206 23.481 104.53 23.595C104.86 23.703 105.13 23.889 105.34 24.153C105.556 24.411 105.685 24.762 105.727 25.206C105.769 25.644 105.694 26.196 105.502 26.862L104.35 30.957C104.302 31.125 104.278 31.263 104.278 31.371C104.278 31.581 104.377 31.686 104.575 31.686C104.821 31.686 105.094 31.527 105.394 31.209C105.694 30.891 105.961 30.477 106.195 29.967C106.249 29.835 106.3 29.748 106.348 29.706C106.402 29.664 106.489 29.667 106.609 29.715L107.032 29.904C107.158 29.952 107.227 30.003 107.239 30.057C107.257 30.105 107.233 30.201 107.167 30.345C106.789 31.197 106.291 31.893 105.673 32.433C105.055 32.967 104.383 33.234 103.657 33.234C103.117 33.234 102.709 33.111 102.433 32.865C102.157 32.613 102.019 32.262 102.019 31.812C102.019 31.728 102.028 31.623 102.046 31.497C102.064 31.371 102.088 31.26 102.118 31.164L103.207 27.168C103.339 26.694 103.432 26.28 103.486 25.926C103.54 25.566 103.516 25.284 103.414 25.08C103.312 24.876 103.093 24.774 102.757 24.774C102.403 24.774 102.028 24.93 101.632 25.242C101.242 25.554 100.861 25.968 100.489 26.484C100.117 26.994 99.7869 27.555 99.4989 28.167C99.2109 28.773 99.0009 29.373 98.8689 29.967L98.2659 32.559C98.2359 32.709 98.1939 32.82 98.1399 32.892C98.0859 32.964 97.9599 33 97.7619 33L96.4659 33C96.1959 33 96.0399 32.973 95.9979 32.919C95.9619 32.865 95.9649 32.733 96.0069 32.523L97.6899 25.269C97.7259 25.095 97.7229 24.99 97.6809 24.954C97.6389 24.918 97.5099 24.9 97.2939 24.9L96.5829 24.9C96.4209 24.9 96.3219 24.873 96.2859 24.819C96.2559 24.765 96.2409 24.657 96.2409 24.495L96.2409 24C96.2409 23.85 96.2589 23.754 96.2949 23.712C96.3309 23.664 96.4239 23.64 96.5739 23.64ZM120.774 28.77L124.482 22.839C124.566 22.713 124.629 22.602 124.671 22.506C124.719 22.41 124.731 22.266 124.707 22.074L124.608 21.156C124.602 21.048 124.578 20.982 124.536 20.958C124.5 20.934 124.425 20.922 124.311 20.922L123.222 20.922C123.09 20.922 123 20.907 122.952 20.877C122.91 20.841 122.889 20.757 122.889 20.625L122.889 19.977C122.889 19.761 122.916 19.629 122.97 19.581C123.024 19.527 123.156 19.5 123.366 19.5L128.244 19.5C128.376 19.5 128.463 19.521 128.505 19.563C128.553 19.599 128.577 19.689 128.577 19.833L128.577 20.571C128.577 20.733 128.55 20.832 128.496 20.868C128.442 20.904 128.328 20.922 128.154 20.922L127.416 20.922C127.23 20.922 127.122 20.949 127.092 21.003C127.068 21.051 127.062 21.156 127.074 21.318L127.722 28.032C127.758 28.368 127.77 28.65 127.758 28.878C127.752 29.106 127.752 29.277 127.758 29.391C127.764 29.499 127.806 29.553 127.884 29.553C127.95 29.553 128.022 29.487 128.1 29.355C128.184 29.223 128.271 29.061 128.361 28.869C128.457 28.677 128.55 28.494 128.64 28.32L132.546 21.309C132.648 21.129 132.687 21.021 132.663 20.985C132.645 20.943 132.489 20.922 132.195 20.922L131.43 20.922C131.274 20.922 131.175 20.898 131.133 20.85C131.097 20.796 131.079 20.697 131.079 20.553L131.079 19.752C131.079 19.626 131.094 19.554 131.124 19.536C131.154 19.512 131.229 19.5 131.349 19.5L135.966 19.5C136.122 19.5 136.23 19.521 136.29 19.563C136.356 19.599 136.389 19.698 136.389 19.86L136.389 20.562C136.389 20.7 136.368 20.796 136.326 20.85C136.29 20.898 136.2 20.922 136.056 20.922L134.661 20.922C134.493 20.922 134.391 20.946 134.355 20.994C134.319 21.036 134.274 21.105 134.22 21.201L127.704 32.82C127.638 32.94 127.569 33.03 127.497 33.09C127.425 33.15 127.293 33.18 127.101 33.18L126.354 33.18C126.156 33.18 126.021 33.159 125.949 33.117C125.883 33.081 125.841 32.97 125.823 32.784L125.148 26.313C125.106 25.863 125.091 25.488 125.103 25.188C125.121 24.882 125.064 24.729 124.932 24.729C124.836 24.729 124.719 24.858 124.581 25.116C124.443 25.368 124.263 25.668 124.041 26.016L119.721 32.838C119.631 32.964 119.544 33.051 119.46 33.099C119.376 33.153 119.22 33.18 118.992 33.18L118.254 33.18C118.068 33.18 117.96 33.159 117.93 33.117C117.9 33.075 117.876 32.973 117.858 32.811L116.274 21.381C116.256 21.249 116.232 21.15 116.202 21.084C116.178 21.018 116.133 20.976 116.067 20.958C116.001 20.934 115.893 20.922 115.743 20.922L114.816 20.922C114.63 20.922 114.513 20.898 114.465 20.85C114.417 20.802 114.393 20.682 114.393 20.49L114.393 19.887C114.393 19.731 114.408 19.629 114.438 19.581C114.474 19.527 114.567 19.5 114.717 19.5L120.225 19.5C120.393 19.5 120.51 19.521 120.576 19.563C120.642 19.605 120.675 19.713 120.675 19.887L120.675 20.445C120.675 20.625 120.657 20.751 120.621 20.823C120.585 20.889 120.477 20.922 120.297 20.922L119.109 20.922C118.929 20.922 118.824 20.949 118.794 21.003C118.764 21.057 118.758 21.159 118.776 21.309L119.712 28.707C119.76 29.079 119.781 29.376 119.775 29.598C119.769 29.814 119.826 29.922 119.946 29.922C120.054 29.922 120.168 29.811 120.288 29.589C120.408 29.367 120.57 29.094 120.774 28.77ZM134.393 29.832C134.393 28.962 134.564 28.14 134.906 27.366C135.254 26.592 135.719 25.908 136.301 25.314C136.889 24.72 137.552 24.255 138.29 23.919C139.034 23.577 139.799 23.406 140.585 23.406C141.671 23.406 142.484 23.592 143.024 23.964C143.57 24.336 143.843 24.891 143.843 25.629C143.843 26.181 143.699 26.655 143.411 27.051C143.129 27.447 142.751 27.78 142.277 28.05C141.803 28.314 141.278 28.527 140.702 28.689C140.126 28.851 139.547 28.977 138.965 29.067C138.383 29.151 137.84 29.211 137.336 29.247C137.162 29.259 137.045 29.31 136.985 29.4C136.925 29.484 136.895 29.643 136.895 29.877C136.895 30.543 137.018 31.065 137.264 31.443C137.516 31.815 137.912 32.001 138.452 32.001C138.854 32.001 139.232 31.911 139.586 31.731C139.946 31.545 140.273 31.308 140.567 31.02C140.861 30.732 141.119 30.423 141.341 30.093C141.395 30.009 141.449 29.955 141.503 29.931C141.563 29.901 141.671 29.886 141.827 29.886L142.421 29.886C142.625 29.886 142.745 29.91 142.781 29.958C142.817 30 142.79 30.099 142.7 30.255C142.412 30.747 142.046 31.221 141.602 31.677C141.164 32.133 140.648 32.508 140.054 32.802C139.466 33.09 138.797 33.234 138.047 33.234C137.351 33.234 136.727 33.12 136.175 32.892C135.623 32.664 135.188 32.301 134.87 31.803C134.552 31.305 134.393 30.648 134.393 29.832ZM137.507 28.203C137.957 28.149 138.416 28.065 138.884 27.951C139.358 27.837 139.796 27.684 140.198 27.492C140.6 27.294 140.924 27.045 141.17 26.745C141.422 26.439 141.548 26.067 141.548 25.629C141.548 25.215 141.461 24.93 141.287 24.774C141.119 24.612 140.858 24.531 140.504 24.531C140.072 24.531 139.64 24.663 139.208 24.927C138.782 25.185 138.395 25.551 138.047 26.025C137.705 26.493 137.429 27.045 137.219 27.681C137.153 27.885 137.132 28.029 137.156 28.113C137.186 28.197 137.303 28.227 137.507 28.203ZM148.957 32.604L148.957 31.938C148.957 31.77 148.99 31.668 149.056 31.632C149.116 31.596 149.224 31.578 149.38 31.578L150.577 31.578C150.835 31.578 151.009 31.554 151.099 31.506C151.195 31.458 151.264 31.323 151.306 31.101L153.412 21.264C153.442 21.114 153.439 21.021 153.403 20.985C153.367 20.943 153.262 20.922 153.088 20.922L151.765 20.922C151.609 20.922 151.504 20.907 151.45 20.877C151.402 20.841 151.378 20.745 151.378 20.589L151.378 19.896C151.378 19.728 151.396 19.62 151.432 19.572C151.474 19.524 151.576 19.5 151.738 19.5L157.768 19.5C157.918 19.5 158.008 19.524 158.038 19.572C158.074 19.62 158.092 19.722 158.092 19.878L158.092 20.544C158.092 20.712 158.068 20.817 158.02 20.859C157.972 20.901 157.867 20.922 157.705 20.922L156.499 20.922C156.283 20.922 156.145 20.946 156.085 20.994C156.031 21.042 155.986 21.156 155.95 21.336L155.176 24.945C155.14 25.107 155.137 25.215 155.167 25.269C155.203 25.317 155.326 25.341 155.536 25.341L161.098 25.341C161.296 25.341 161.407 25.317 161.431 25.269C161.461 25.221 161.491 25.122 161.521 24.972L162.313 21.291C162.349 21.141 162.352 21.042 162.322 20.994C162.292 20.946 162.187 20.922 162.007 20.922L160.819 20.922C160.663 20.922 160.564 20.904 160.522 20.868C160.48 20.826 160.459 20.727 160.459 20.571L160.459 19.806C160.459 19.68 160.48 19.599 160.522 19.563C160.564 19.521 160.648 19.5 160.774 19.5L166.759 19.5C166.927 19.5 167.029 19.515 167.065 19.545C167.101 19.569 167.119 19.665 167.119 19.833L167.119 20.535C167.119 20.703 167.095 20.811 167.047 20.859C167.005 20.901 166.9 20.922 166.732 20.922L165.418 20.922C165.19 20.922 165.049 20.943 164.995 20.985C164.947 21.027 164.902 21.141 164.86 21.327L162.763 31.146C162.721 31.332 162.718 31.452 162.754 31.506C162.79 31.554 162.928 31.578 163.168 31.578L164.401 31.578C164.557 31.578 164.653 31.602 164.689 31.65C164.731 31.692 164.752 31.791 164.752 31.947L164.752 32.658C164.752 32.802 164.731 32.895 164.689 32.937C164.647 32.979 164.554 33 164.41 33L158.443 33C158.293 33 158.191 32.979 158.137 32.937C158.089 32.895 158.065 32.796 158.065 32.64L158.065 31.92C158.065 31.758 158.092 31.662 158.146 31.632C158.206 31.596 158.308 31.578 158.452 31.578L159.703 31.578C159.919 31.578 160.045 31.557 160.081 31.515C160.123 31.473 160.162 31.365 160.198 31.191L161.071 27.123C161.113 26.943 161.113 26.829 161.071 26.781C161.029 26.727 160.894 26.7 160.666 26.7L155.176 26.7C154.96 26.7 154.837 26.733 154.807 26.799C154.777 26.859 154.744 26.976 154.708 27.15L153.835 31.2C153.805 31.344 153.802 31.443 153.826 31.497C153.856 31.551 153.964 31.578 154.15 31.578L155.356 31.578C155.524 31.578 155.626 31.605 155.662 31.659C155.704 31.707 155.725 31.818 155.725 31.992L155.725 32.631C155.725 32.793 155.701 32.895 155.653 32.937C155.605 32.979 155.503 33 155.347 33L149.371 33C149.191 33 149.077 32.976 149.029 32.928C148.981 32.88 148.957 32.772 148.957 32.604ZM165.752 29.832C165.752 28.962 165.923 28.14 166.265 27.366C166.613 26.592 167.078 25.908 167.66 25.314C168.248 24.72 168.911 24.255 169.649 23.919C170.393 23.577 171.158 23.406 171.944 23.406C173.03 23.406 173.843 23.592 174.383 23.964C174.929 24.336 175.202 24.891 175.202 25.629C175.202 26.181 175.058 26.655 174.77 27.051C174.488 27.447 174.11 27.78 173.636 28.05C173.162 28.314 172.637 28.527 172.061 28.689C171.485 28.851 170.906 28.977 170.324 29.067C169.742 29.151 169.199 29.211 168.695 29.247C168.521 29.259 168.404 29.31 168.344 29.4C168.284 29.484 168.254 29.643 168.254 29.877C168.254 30.543 168.377 31.065 168.623 31.443C168.875 31.815 169.271 32.001 169.811 32.001C170.213 32.001 170.591 31.911 170.945 31.731C171.305 31.545 171.632 31.308 171.926 31.02C172.22 30.732 172.478 30.423 172.7 30.093C172.754 30.009 172.808 29.955 172.862 29.931C172.922 29.901 173.03 29.886 173.186 29.886L173.78 29.886C173.984 29.886 174.104 29.91 174.14 29.958C174.176 30 174.149 30.099 174.059 30.255C173.771 30.747 173.405 31.221 172.961 31.677C172.523 32.133 172.007 32.508 171.413 32.802C170.825 33.09 170.156 33.234 169.406 33.234C168.71 33.234 168.086 33.12 167.534 32.892C166.982 32.664 166.547 32.301 166.229 31.803C165.911 31.305 165.752 30.648 165.752 29.832ZM168.866 28.203C169.316 28.149 169.775 28.065 170.243 27.951C170.717 27.837 171.155 27.684 171.557 27.492C171.959 27.294 172.283 27.045 172.529 26.745C172.781 26.439 172.907 26.067 172.907 25.629C172.907 25.215 172.82 24.93 172.646 24.774C172.478 24.612 172.217 24.531 171.863 24.531C171.431 24.531 170.999 24.663 170.567 24.927C170.141 25.185 169.754 25.551 169.406 26.025C169.064 26.493 168.788 27.045 168.578 27.681C168.512 27.885 168.491 28.029 168.515 28.113C168.545 28.197 168.662 28.227 168.866 28.203ZM180.869 19.599L178.286 31.065C178.274 31.113 178.262 31.17 178.25 31.236C178.244 31.296 178.241 31.35 178.241 31.398C178.241 31.608 178.343 31.713 178.547 31.713C178.799 31.713 179.075 31.548 179.375 31.218C179.681 30.882 179.945 30.462 180.167 29.958C180.227 29.826 180.275 29.745 180.311 29.715C180.353 29.685 180.449 29.7 180.599 29.76L181.004 29.931C181.13 29.985 181.202 30.033 181.22 30.075C181.238 30.111 181.22 30.186 181.166 30.3C180.776 31.182 180.269 31.896 179.645 32.442C179.021 32.988 178.343 33.261 177.611 33.261C177.095 33.261 176.696 33.138 176.414 32.892C176.138 32.646 176 32.283 176 31.803C176 31.719 176.006 31.617 176.018 31.497C176.036 31.371 176.054 31.263 176.072 31.173L178.34 20.643C178.382 20.463 178.382 20.349 178.34 20.301C178.304 20.247 178.175 20.22 177.953 20.22L177.116 20.22C176.99 20.22 176.906 20.202 176.864 20.166C176.822 20.13 176.801 20.052 176.801 19.932L176.801 19.302C176.801 19.158 176.819 19.065 176.855 19.023C176.897 18.981 176.987 18.96 177.125 18.96L180.32 18.96C180.662 18.96 180.854 18.999 180.896 19.077C180.944 19.155 180.935 19.329 180.869 19.599ZM182.505 23.64L185.52 23.64C185.724 23.64 185.847 23.661 185.889 23.703C185.937 23.739 185.937 23.844 185.889 24.018L185.709 24.72C185.655 24.954 185.643 25.089 185.673 25.125C185.703 25.161 185.829 25.059 186.051 24.819C186.441 24.399 186.879 24.06 187.365 23.802C187.851 23.544 188.376 23.415 188.94 23.415C189.492 23.415 189.996 23.529 190.452 23.757C190.908 23.985 191.274 24.36 191.55 24.882C191.826 25.398 191.964 26.085 191.964 26.943C191.964 27.867 191.799 28.713 191.469 29.481C191.139 30.249 190.713 30.912 190.191 31.47C189.675 32.028 189.12 32.46 188.526 32.766C187.932 33.072 187.368 33.225 186.834 33.225C186.294 33.225 185.85 33.12 185.502 32.91C185.154 32.694 184.869 32.403 184.647 32.037C184.509 31.779 184.407 31.659 184.341 31.677C184.281 31.689 184.221 31.833 184.161 32.109L183.036 37.068C183.006 37.224 182.961 37.335 182.901 37.401C182.847 37.467 182.721 37.5 182.523 37.5L181.092 37.5C180.882 37.5 180.765 37.467 180.741 37.401C180.711 37.341 180.714 37.233 180.75 37.077L183.45 25.35C183.486 25.188 183.498 25.074 183.486 25.008C183.474 24.936 183.354 24.9 183.126 24.9L182.415 24.9C182.259 24.9 182.166 24.873 182.136 24.819C182.106 24.765 182.091 24.66 182.091 24.504L182.091 24.009C182.091 23.835 182.118 23.73 182.172 23.694C182.232 23.658 182.343 23.64 182.505 23.64ZM184.899 29.409C184.899 29.859 184.938 30.276 185.016 30.66C185.094 31.044 185.235 31.353 185.439 31.587C185.649 31.821 185.949 31.938 186.339 31.938C186.687 31.938 187.041 31.794 187.401 31.506C187.767 31.212 188.103 30.825 188.409 30.345C188.715 29.859 188.961 29.316 189.147 28.716C189.339 28.116 189.435 27.507 189.435 26.889C189.435 26.187 189.327 25.644 189.111 25.26C188.895 24.876 188.544 24.684 188.058 24.684C187.716 24.684 187.359 24.825 186.987 25.107C186.621 25.389 186.279 25.764 185.961 26.232C185.643 26.7 185.385 27.21 185.187 27.762C184.995 28.314 184.899 28.863 184.899 29.409ZM198.26 28.905C197.99 29.061 197.729 29.16 197.477 29.202C197.225 29.238 197.021 29.256 196.865 29.256C196.505 29.256 196.178 29.19 195.884 29.058C195.59 28.92 195.356 28.725 195.182 28.473C195.008 28.221 194.921 27.921 194.921 27.573C194.921 27.165 195.056 26.817 195.326 26.529C195.596 26.235 195.944 25.977 196.37 25.755C196.796 25.527 197.249 25.308 197.729 25.098C198.209 24.882 198.662 24.648 199.088 24.396C199.514 24.138 199.862 23.835 200.132 23.487C200.402 23.133 200.537 22.704 200.537 22.2C200.537 21.588 200.354 21.123 199.988 20.805C199.628 20.487 199.133 20.328 198.503 20.328C198.173 20.328 197.864 20.367 197.576 20.445C197.294 20.523 197.066 20.619 196.892 20.733C196.718 20.847 196.631 20.961 196.631 21.075C196.631 21.237 196.682 21.369 196.784 21.471C196.886 21.573 196.988 21.705 197.09 21.867C197.192 22.023 197.243 22.272 197.243 22.614C197.243 22.902 197.165 23.142 197.009 23.334C196.853 23.526 196.655 23.67 196.415 23.766C196.181 23.862 195.941 23.91 195.695 23.91C195.449 23.91 195.209 23.853 194.975 23.739C194.741 23.625 194.546 23.457 194.39 23.235C194.24 23.013 194.165 22.74 194.165 22.416C194.165 21.846 194.357 21.324 194.741 20.85C195.131 20.37 195.683 19.986 196.397 19.698C197.111 19.41 197.951 19.266 198.917 19.266C200.207 19.266 201.179 19.539 201.833 20.085C202.493 20.625 202.823 21.39 202.823 22.38C202.823 23.058 202.67 23.631 202.364 24.099C202.058 24.567 201.662 24.957 201.176 25.269C200.696 25.575 200.183 25.827 199.637 26.025C199.097 26.223 198.584 26.397 198.098 26.547C197.618 26.697 197.225 26.847 196.919 26.997C196.613 27.147 196.46 27.327 196.46 27.537C196.46 27.669 196.511 27.783 196.613 27.879C196.715 27.969 196.871 28.014 197.081 28.014C197.189 28.014 197.339 27.996 197.531 27.96C197.723 27.924 197.918 27.837 198.116 27.699C198.218 27.639 198.284 27.615 198.314 27.627C198.344 27.633 198.371 27.723 198.395 27.897L198.503 28.5C198.521 28.65 198.509 28.746 198.467 28.788C198.431 28.824 198.362 28.863 198.26 28.905ZM195.038 31.83C195.038 31.572 195.101 31.338 195.227 31.128C195.359 30.918 195.53 30.75 195.74 30.624C195.95 30.492 196.184 30.426 196.442 30.426C196.7 30.426 196.934 30.492 197.144 30.624C197.36 30.75 197.531 30.918 197.657 31.128C197.783 31.338 197.846 31.572 197.846 31.83C197.846 32.088 197.783 32.325 197.657 32.541C197.531 32.751 197.36 32.919 197.144 33.045C196.934 33.171 196.7 33.234 196.442 33.234C196.184 33.234 195.95 33.171 195.74 33.045C195.53 32.919 195.359 32.751 195.227 32.541C195.101 32.325 195.038 32.088 195.038 31.83Z" fill="#091818"/>
</svg>
