<svg width="348" height="29" viewBox="0 0 348 29" fill="none" xmlns="http://www.w3.org/2000/svg">
<path d="M347.512 19.5579C347.89 19.8525 347.591 20.0366 347.243 20.1313C346.996 20.1944 346.717 20.2207 346.449 20.2628L345.902 20.5258L345.597 20.0051C344.513 19.5527 344.366 19.5369 344.429 19.842C344.487 20.1103 344.724 20.5311 344.25 20.4311C343.766 20.3259 343.309 20.2944 342.867 20.2944C342.42 20.3102 341.988 20.3575 341.562 20.4048C340.705 20.4995 339.847 20.589 338.879 20.3785L339.663 19.821L339.847 19.7684L339.626 19.7789C339.032 19.7894 338.154 19.6316 338.79 20.3838C338.758 20.9361 338.269 21.0834 337.407 20.8941C337.08 21.0098 336.817 20.9046 336.602 20.6679C334.703 20.226 332.583 20.5995 330.942 19.2318C330.8 19.1161 330.342 19.0792 330.058 19.0845C328.117 19.1529 326.286 18.6426 324.535 18.0061C323.188 17.4959 321.778 17.2329 320.368 16.9593C319.664 16.8278 318.953 16.7121 318.238 16.6016C317.528 16.4859 316.812 16.3807 316.097 16.3071C314.824 16.1545 314.019 15.9125 314.556 15.0288C314.735 14.7342 314.714 14.345 313.867 14.3818C313.514 14.3976 312.715 14.124 312.967 14.7763C313.188 15.3549 312.315 15.6548 311.631 15.4917C310.842 15.2971 310.048 15.2287 309.253 15.1866C308.459 15.1393 307.67 15.1077 306.881 15.0393C305.261 14.892 304.998 14.5133 305.298 13.3928C305.361 13.1509 305.35 12.8931 305.392 12.4723C305.019 12.5617 304.661 12.6459 304.303 12.73C303.951 12.8247 303.604 12.9194 303.267 13.0141C302.589 13.1982 301.936 13.3771 301.279 13.5612C301.71 13.5717 302.147 13.6085 302.568 13.5875C303.067 13.5612 303.683 13.2719 303.998 13.6348C304.203 13.8768 304.109 14.2924 303.883 14.5396C303.551 14.9026 302.846 14.9815 302.189 14.8289C301.4 14.6448 301.11 14.2082 300.942 13.7505C299.517 14.345 298.054 14.4239 296.208 14.3765C295.061 14.3292 293.909 14.2818 292.757 14.2345C292.178 14.2135 291.605 14.1872 291.026 14.1819L289.296 14.2029C286.992 14.2608 284.677 14.3344 282.394 14.7553C280.616 15.0498 280.416 14.8763 280.274 13.3981L280.395 13.2666L280.232 13.3771C279.469 13.2929 278.317 12.9142 278.775 13.9294C279.122 14.7132 278.623 15.1603 277.428 15.0761C275.314 14.9131 273.415 15.5706 271.426 15.8336C270.174 16.0335 268.986 16.6437 267.955 15.8599C267.628 15.6127 267.181 15.8599 266.85 16.0388C266.329 16.3228 265.798 16.5333 265.256 16.6911C264.714 16.8699 264.167 16.9962 263.604 17.0856C262.489 17.2644 261.337 17.2855 260.18 17.2855C259.428 17.2855 258.765 17.275 258.044 17.6642C256.182 18.6479 253.852 18.9162 251.958 19.2002C250.659 19.4159 249.365 19.6894 248.081 19.9893L246.156 20.4575L244.225 20.994C241.643 21.7147 238.976 22.4669 236.172 22.8193C234.657 23.014 233.147 23.4821 231.585 23.803C230.033 24.1239 228.418 24.2922 226.856 23.8661C225.251 24.308 223.505 24.308 221.811 24.0608C221.385 24.0082 220.959 23.9608 220.538 23.8924L219.281 23.6662L218.024 23.4769C217.608 23.4032 217.198 23.3454 216.777 23.3033C216.44 23.2665 216.046 23.2454 215.651 23.1876C215.262 23.1244 214.857 23.0403 214.478 22.914C214.099 22.7878 213.752 22.6247 213.473 22.4038C213.2 22.1671 213 21.8777 212.9 21.5043C212.727 20.8152 211.627 20.9993 211.327 21.0676C209.26 21.5516 207.072 20.5364 205.031 19.579C204.194 19.2055 204.121 18.811 204.257 18.4112C204.915 18.5848 205.609 18.7215 205.504 18.1271C205.483 18.0114 205.02 17.7116 204.773 17.6432C203.568 17.317 204.415 18.1324 204.231 18.3849C203.105 18.2271 201.943 17.6537 200.849 17.6221C199.812 17.5906 200.012 16.3597 199.229 16.4701C198.297 16.5964 197.503 16.2597 196.614 15.8968C196.325 15.7758 196.036 15.6495 195.594 15.4654C195.652 14.629 196.625 14.3134 196.914 13.6453L197.093 13.6033L196.893 13.6138C196.393 13.2666 196.435 12.5933 195.688 12.4828C194.594 12.3197 195.573 13.0772 195.478 13.3771C195.236 14.1556 193.679 13.7295 193.453 14.4449C191.932 13.6874 193.006 13.1561 192.474 12.567L192.059 12.4986L192.306 12.3355C192.143 12.2251 191.833 12.0199 191.833 12.0199C191.291 12.4407 190.728 12.6248 190.149 12.6774C189.571 12.7353 188.976 12.6354 188.371 12.4618C187.766 12.304 187.14 12.0883 186.52 11.8568C186.209 11.7464 185.899 11.6254 185.583 11.5307C185.268 11.4413 184.952 11.3624 184.636 11.2992C184.494 10.3366 186.072 10.7048 186.246 10.1367C186.293 9.97364 186.309 9.66328 186.167 9.59489C185.752 9.395 185.762 9.68432 185.667 9.82109C185.141 10.5523 184.089 9.02678 183.448 9.7001C183.053 10.1262 182.669 10.689 181.596 10.6522C180.865 10.1683 182.448 9.54755 180.891 9.13199C180.87 8.81637 180.728 8.52179 180.381 8.26403C180.055 7.85373 179.623 7.82217 179.15 8.0168C177.972 7.91159 177.972 7.92211 177.667 8.68486C178.235 8.4271 178.703 8.25351 179.181 8.05362L180.302 8.30612C180.481 8.58491 180.66 8.85319 180.828 9.14251C180.828 9.57911 180.481 10.0105 179.892 9.92629C179.166 9.81583 178.471 9.86843 177.793 9.90525C177.104 9.96838 176.43 10.021 175.725 9.87895C174.616 9.65276 173.479 9.56859 172.359 9.46865C171.223 9.43708 170.097 9.38974 168.961 9.44235C168.366 9.46339 168.103 9.40552 167.935 8.9584C167.693 8.31664 167.43 8.27455 166.972 8.63226C166.173 9.26875 165.436 9.66854 164.279 8.99522C163.937 8.79533 163.8 8.9584 163.574 9.06886C162.548 9.59489 161.459 9.66328 160.334 9.71062C159.771 9.7264 159.203 9.71588 158.64 9.72114C158.077 9.74218 157.514 9.78427 156.967 9.87369C156.751 9.91051 156.457 9.7001 156.194 9.60541C155.862 9.48443 156.304 8.97944 155.615 9.10568C155.484 9.13199 155.799 9.51073 156.136 9.64224C155.915 9.78427 155.71 10.0368 155.473 10.0683C151.733 10.5418 148.004 11.3676 144.269 11.8937C141.113 12.3355 138.088 13.0141 135.111 14.1293C133.98 14.5501 132.622 15.1971 131.975 14.1609L132.07 14.0188L131.912 14.1451C131.065 14.3976 130.56 15.0709 129.345 15.0025C128.351 14.9394 127.236 15.5811 126.257 16.1072C125.542 16.4912 124.763 16.8384 123.969 17.1382C122.054 17.8536 122.044 17.8378 121.602 16.4543C122.06 15.9704 123.264 15.6285 122.959 14.8289C122.254 15.4338 121.676 15.8862 121.502 16.4333C120.355 17.7116 118.251 18.3849 116.589 18.9162C114.048 19.721 111.555 21.1886 108.709 21.0624C106.926 21.5832 105.137 22.0987 103.333 22.5879C102.523 23.0034 101.644 23.1823 100.766 23.3033C99.8874 23.4295 98.9984 23.4664 98.1515 23.5821C96.6892 23.7925 97.0469 22.6773 97.3625 21.9356L97.4624 21.8146L97.2941 21.9146C96.8364 22.1513 96.3472 22.3617 96.2736 22.7562C96.1053 23.682 95.9422 24.6447 93.7276 24.0923C93.575 24.0555 93.2174 24.0976 93.1016 24.1712C90.5346 25.7809 87.1049 25.0865 84.3379 26.1018C84.1538 26.1702 83.8961 26.2017 83.6909 26.1965C82.6073 26.1702 80.9976 25.8651 80.5663 26.1333C79.4721 26.8224 78.1781 26.5647 77.1471 26.9382C76.3002 27.2433 75.4375 27.1591 74.58 27.1065C73.7226 27.0328 72.8652 26.9908 72.013 27.4116C71.6553 27.5904 71.3344 27.2064 71.2555 26.9539C71.1503 26.6278 71.3344 26.3174 71.6395 26.0176C71.9341 25.7283 72.3339 25.3443 71.4501 25.3075C71.003 25.2864 70.598 25.5284 70.4139 25.9492C69.7879 27.3748 68.7832 27.9324 66.1741 27.9061C64.9063 27.9008 63.6438 27.9008 62.3814 27.9376C61.1189 27.9587 59.8669 27.9955 58.6097 28.106C57.0264 28.2375 56.2373 27.5641 55.0327 27.3064L54.8433 27.2433L54.9643 27.3485C55.1695 27.8587 54.8644 28.2638 53.9543 28.369C53.281 28.4479 53.0285 28.1323 53.0653 27.7693L53.1811 27.6483L53.0127 27.743C51.9554 27.601 53.039 26.6278 51.6977 26.5962C51.6714 26.4805 51.6714 26.3648 51.7029 26.2543L51.8449 26.1439L51.6345 26.228C51.5819 26.2701 51.4715 26.3174 51.482 26.3595C51.503 26.4542 51.5767 26.5384 51.6345 26.6278C51.6451 26.7541 51.7345 26.9013 51.6556 27.0065C50.6561 28.3742 50.4667 28.4058 48.5467 26.9434C48.7624 28.2848 47.3789 28.8056 45.8955 28.4374C42.9655 27.7325 39.4201 28.7056 36.8636 27.2538C33.6179 27.2696 30.5249 26.6541 27.3739 26.37C25.4644 26.2122 23.5602 26.0123 21.656 25.8177C19.7465 25.6283 17.837 25.46 15.9012 25.3338C10.4305 25.0024 4.93868 24.3816 0.00976562 22.3406C0.798813 21.3044 2.35587 21.0992 4.00761 21.115C7.20062 21.1413 10.3831 20.8888 13.5972 21.236C14.0285 21.2833 14.523 21.3254 14.9175 21.2518C19.8043 20.3891 24.8174 20.9414 29.7253 21.2623C35.5485 21.62 41.3822 21.6568 47.158 21.4569C54.917 21.2097 62.718 21.3412 70.3507 20.2733C75.7794 19.5474 81.3132 19.316 86.5683 17.8746C87.4836 17.6064 88.5041 17.5117 89.4773 17.3696C90.3663 17.2329 91.2605 17.1066 92.1495 16.9436L94.7954 16.407L97.4309 15.8389C98.3093 15.6443 99.1773 15.4128 100.05 15.1971C103.533 14.2976 106.984 13.2561 110.434 12.1725C111.271 11.9094 112.128 11.6832 112.986 11.4623C119.724 9.76322 126.299 7.45394 133.07 5.50763C136.836 4.424 140.692 3.58761 144.574 2.75648C145.952 2.44612 147.351 2.19363 148.745 1.91483C150.15 1.67811 151.549 1.40984 152.964 1.21521C155.784 0.77334 158.64 0.468241 161.512 0.252568C164.779 -0.00518758 168.082 -0.0209685 171.391 0.100019C174.705 0.226266 178.029 0.499803 181.359 0.957451C185.089 1.44666 188.776 2.66705 192.385 3.79802C195.778 4.87113 198.839 6.51761 201.995 7.58019C203.032 7.92737 204.063 8.40606 205.041 8.86897C210.154 11.3361 215.241 13.0457 220.007 13.719L221.464 13.8873C221.953 13.961 222.427 13.9452 222.905 13.9873C223.863 14.0714 224.815 14.0241 225.793 13.9873C227.75 13.861 229.775 13.5401 231.837 13.0246C234.583 12.3355 237.461 11.5202 240.48 10.668C241.99 10.2367 243.552 9.80531 245.13 9.41078C246.698 9.00574 248.265 8.59017 249.828 8.15357C259.028 5.7496 268.465 4.49238 277.912 3.74542C283.115 3.37194 288.386 2.72492 293.546 3.0721C297.302 3.27199 301.063 3.46662 304.829 3.66651C306.707 3.82958 308.58 3.99791 310.447 4.20307C311.384 4.29249 312.31 4.42926 313.235 4.59233C314.161 4.75014 315.087 4.91321 316.002 5.09732C316.797 5.25513 317.601 5.39716 318.412 5.52867C319.216 5.68648 320.032 5.83377 320.847 5.97579C322.473 6.26511 324.119 6.50183 325.734 6.7964C328.98 7.44868 332.036 8.40606 335.208 9.24245C338.501 10.0052 341.652 11.2519 344.818 12.3513C345.96 12.7826 347.669 13.1035 347.086 14.224C347.517 14.487 348.043 14.7658 347.648 15.0761C347.475 15.2129 347.101 15.1814 346.802 15.0078C346.307 14.729 346.607 14.5133 346.644 14.2818C344.592 13.2035 344.087 13.1824 343.14 14.1293C342.456 14.8131 342.262 15.7179 341.294 16.2808L341.157 16.3491L341.341 16.3334C342.188 16.8962 343.324 17.2855 344.234 17.8536C345.145 18.4059 345.849 19.0372 345.855 19.9577C345.986 20.0208 346.123 20.0682 346.27 20.0945C346.36 19.9314 346.412 19.7473 346.544 19.6053C346.738 19.3896 347.128 19.3002 347.496 19.5842L347.512 19.5579ZM31.6769 25.3548L31.4665 25.3758L31.6401 25.4442L31.6769 25.3601V25.3548ZM40.4248 25.986L40.2302 25.9387V26.0229L40.4248 25.986ZM43.0287 27.1328L42.8077 27.1591L42.9866 27.2275L43.0234 27.1328H43.0287ZM46.3111 26.9855C46.2953 26.8593 46.2953 26.7383 46.3111 26.612L46.4794 26.5173L46.2743 26.591C46.2217 26.6331 46.1165 26.6857 46.1217 26.7225C46.1375 26.8172 46.2059 26.9119 46.2532 27.0065L46.4636 27.096L46.3111 26.9855ZM52.8865 22.9929C52.7602 22.9403 52.5288 22.9771 52.3394 22.9719C52.492 23.1192 52.6182 23.2822 52.8181 23.4032C52.9128 23.4611 53.1548 23.4348 53.3021 23.4453C53.4441 23.1981 53.1232 23.0981 52.8812 22.9982L52.8865 22.9929ZM56.8107 26.4595L56.6424 26.449L56.695 26.5699L56.8107 26.4595ZM61.5397 26.2175C61.5555 26.1544 61.3977 26.0807 61.3188 26.0123C61.2188 26.1123 61.0978 26.207 61.0295 26.3122C60.9295 26.4542 61.0295 26.5226 61.2767 26.5068C61.3714 26.4121 61.5134 26.3174 61.5397 26.2228V26.2175ZM66.4371 25.5337C66.3582 25.5074 66.2845 25.46 66.1951 25.4495C65.9058 25.4285 65.7743 25.4863 65.869 25.5863C65.9005 25.6178 66.0531 25.602 66.153 25.6073L66.4371 25.5337ZM66.3161 22.4406C66.2372 22.409 66.1688 22.3617 66.0794 22.3564C65.7953 22.3354 65.6638 22.3985 65.7585 22.4985C65.7848 22.53 65.9426 22.5142 66.0373 22.5195L66.3108 22.4353L66.3161 22.4406ZM77.6573 25.1549H77.4943L77.5521 25.2706L77.6573 25.1549ZM80.9924 24.5132L80.9398 24.3974L80.8451 24.5132H80.9924ZM84.864 23.9187C84.8114 23.8714 84.4484 23.8819 84.359 23.9398C84.2327 24.0187 84.1801 24.166 84.1801 24.2817C84.1801 24.4343 84.3484 24.4711 84.5746 24.4027C84.8377 24.2607 85.0533 24.0976 84.864 23.924V23.9187ZM93.049 22.2828C91.6182 22.3932 90.887 22.9666 89.9559 23.1928L89.7561 23.1455L89.9034 23.2349C91.0554 23.3506 92.0864 23.2454 93.0438 22.2828H93.049ZM100.214 21.1571C100.219 20.9098 99.9979 20.7941 99.6455 20.9309C99.1247 21.1308 98.8459 21.4411 98.8932 21.7725C98.9195 21.9566 99.0931 22.1565 99.4613 22.0145C100.003 21.8094 100.014 21.4464 100.214 21.1571ZM108.178 19.1003L108.03 19.1161L108.099 19.2265L108.178 19.1003ZM110.724 18.8846C110.377 18.9214 110.256 19.1739 110.387 19.3686L110.603 19.7C110.524 19.8367 109.987 19.8157 110.198 20.0524L110.645 19.721C110.75 19.5895 110.903 19.458 110.95 19.3265C111.029 19.1319 111.076 18.8478 110.713 18.8899L110.724 18.8846ZM112.986 17.3276C112.686 17.7852 112.586 18.1639 113.07 18.5006C113.722 17.9167 113.606 17.5801 112.986 17.3276ZM119.693 16.4491L119.54 16.5543L119.461 16.6805L119.614 16.5753L119.698 16.4491H119.693ZM120.592 14.6132L120.45 14.75L120.324 14.8815L120.508 14.7658L120.592 14.6132ZM127.241 8.75324C127.278 8.76376 127.409 8.69538 127.499 8.66382C127.525 8.60069 127.583 8.53231 127.567 8.48497C127.557 8.45866 127.399 8.44814 127.341 8.47445C127.104 8.58491 127.062 8.69538 127.241 8.7585V8.75324ZM129.261 13.2771C129.156 13.2087 129.051 13.0667 128.945 13.0825C128.661 13.1351 128.372 13.2508 128.13 13.3297C128.041 13.5559 128.146 13.6348 128.398 13.5664C128.693 13.4875 128.972 13.3718 129.261 13.2719V13.2771ZM132.06 12.9615L131.981 12.8563L131.918 12.9878L132.06 12.9615ZM138.072 11.2519L137.888 11.3361H138.083L138.067 11.2519H138.072ZM140.092 5.31825H140.292L140.281 5.22883L140.092 5.31825ZM142.601 10.2209C141.833 9.64224 141.155 9.7527 140.55 10.5628L140.397 10.689L140.597 10.5786C141.218 10.1946 141.944 10.6154 142.606 10.2209H142.601ZM149.64 9.04256L149.445 9.10568L149.634 9.12673V9.0373L149.64 9.04256ZM158.188 7.09098C158.151 7.06468 157.993 7.06468 157.94 7.09098C157.719 7.21197 157.73 7.31192 157.956 7.34348C158.019 7.34874 158.119 7.28035 158.209 7.24879C158.209 7.19619 158.235 7.12254 158.188 7.09098ZM160.25 7.354H160.108L160.181 7.46972L160.25 7.354ZM165.836 6.98052C165.168 6.96473 164.768 6.92265 164.384 6.94895C163.863 6.97526 163.222 7.06468 163.579 7.50655C163.806 7.7906 164.258 7.71696 164.637 7.54337C164.963 7.39082 165.284 7.23827 165.836 6.98052ZM169.718 7.21723L169.539 7.28035C169.429 7.39082 168.966 7.23301 169.061 7.50655L169.597 7.31718L169.718 7.21723ZM172.075 7.26983C171.985 7.24353 171.891 7.19093 171.801 7.18567C171.48 7.18041 171.412 7.24879 171.633 7.34874C171.707 7.3803 171.838 7.3803 171.933 7.36978C171.991 7.36452 172.027 7.30139 172.075 7.26457V7.26983ZM172.922 8.44288C172.832 8.43236 172.738 8.46393 172.643 8.47971C172.701 8.52179 172.753 8.56387 172.806 8.60069C172.906 8.61121 173.037 8.64804 173.095 8.627C173.29 8.55335 173.222 8.47445 172.922 8.44814V8.44288ZM182.816 5.16045C182.848 4.95529 182.701 4.79222 182.364 4.68176C182.311 4.66597 182.169 4.71858 182.143 4.76066C182.038 4.92373 182.038 5.11836 182.385 5.24461C182.485 5.28143 182.674 5.19201 182.822 5.15518L182.816 5.16045ZM184.11 2.90903C184.216 2.64601 184.026 2.45138 183.647 2.42508C183.374 2.40404 183.027 2.4882 182.916 2.60919C182.769 2.77226 183.011 3.0195 183.379 3.05106C183.653 3.07736 183.9 2.95111 184.105 2.90377L184.11 2.90903ZM187.73 4.71332L187.566 4.59759L187.503 4.68176L187.73 4.71332ZM188.061 10.4102L188.029 10.2314C187.935 10.2209 187.819 10.1893 187.756 10.2104C187.535 10.2787 187.572 10.3787 187.84 10.4576C187.903 10.4786 187.987 10.426 188.061 10.4102ZM199.849 13.7663C199.981 13.6716 199.886 13.5296 199.67 13.5033C199.528 13.4875 199.402 13.577 199.328 13.6559C199.218 13.7768 199.292 13.8821 199.481 13.9189C199.607 13.8663 199.755 13.8347 199.855 13.7611L199.849 13.7663ZM201.548 12.4881L201.538 12.3092C201.443 12.2882 201.333 12.2461 201.264 12.2514C201.033 12.2829 201.054 12.3829 201.322 12.5038C201.385 12.5302 201.475 12.4933 201.554 12.4881H201.548ZM203.258 12.9615L203.058 12.8931L203.19 13.0246L203.258 12.9615ZM207.277 14.2292C207.303 14.0872 207.066 13.9241 206.872 13.9557C206.44 14.0188 206.256 14.245 206.383 14.6343C206.861 14.6448 207.224 14.5501 207.277 14.224V14.2292ZM207.756 19.3949H207.55L207.372 19.4369H207.587L207.756 19.3949ZM210.238 19.3002C210.265 19.2686 210.196 19.1582 210.149 19.1424C210.06 19.1108 209.96 19.1213 209.865 19.1161C209.833 19.1582 209.754 19.216 209.786 19.2476C209.96 19.4106 210.138 19.4317 210.238 19.3054V19.3002ZM211.869 16.3754C211.706 16.2229 211.543 16.2071 211.443 16.3334C211.417 16.3649 211.485 16.4807 211.517 16.4859C211.606 16.5122 211.695 16.4964 211.785 16.5017C211.816 16.4596 211.895 16.4017 211.869 16.3807V16.3754ZM215.362 21.7041C215.225 21.1518 214.51 20.8362 213.847 20.489C213.668 20.2944 213.531 20.0892 213.31 19.9156C213.121 19.7736 212.911 19.8315 213.053 19.9998C213.205 20.1839 213.505 20.347 213.747 20.5206C214.41 20.8625 213.894 21.6305 215.367 21.7041H215.362ZM216.477 19.4054C216.477 19.3528 216.498 19.2897 216.456 19.2423C216.293 19.0529 216.14 19.0319 216.072 19.1897C216.056 19.2265 216.13 19.3212 216.198 19.3528C216.267 19.3896 216.382 19.3843 216.472 19.4001L216.477 19.4054ZM217.719 15.0551L217.54 15.113L216.382 14.7553L216.251 14.6501L216.314 14.7763C216.656 15.113 217.056 15.3129 217.55 15.1235L217.719 15.0498V15.0551ZM218.781 21.4832C218.592 21.3727 218.423 21.1939 218.297 21.1834C217.787 21.1466 217.519 21.3149 217.44 21.5884C217.387 21.762 217.534 21.8672 217.745 21.8146C218.108 21.7199 218.429 21.62 218.781 21.4832ZM225.925 21.8146L225.741 21.8883L225.609 21.9935L225.804 21.9251L225.919 21.8199L225.925 21.8146ZM229.412 21.5621L229.254 21.6778C229.007 21.8357 228.718 21.9619 228.502 22.125C228.318 22.2617 227.981 22.4616 228.497 22.5511C228.576 22.5668 228.86 22.3775 228.96 22.267C229.118 22.0882 229.197 21.8883 229.307 21.6989L229.412 21.5621ZM232.027 21.2623C232.095 21.1255 231.911 21.0782 231.674 21.1676C231.511 21.236 231.401 21.357 231.269 21.4517C231.259 21.5937 231.406 21.6515 231.643 21.5569C231.811 21.4937 231.969 21.3675 232.027 21.257V21.2623ZM244.509 15.3076C244.583 15.255 244.715 15.1971 244.725 15.1551C244.762 14.992 244.625 14.9341 244.373 15.0078C244.288 15.0288 244.162 15.113 244.157 15.1551C244.12 15.3181 244.257 15.3655 244.509 15.3076ZM245.982 16.5911C245.509 17.2224 244.92 17.7379 245.141 18.3218C246.987 17.7484 246.992 17.7589 245.982 16.5911ZM251.011 17.1066C250.696 17.0488 250.417 17.1645 250.275 17.3749C250.112 17.6116 250.375 17.701 250.632 17.7536C250.922 17.8062 251.201 17.7484 251.369 17.5117C251.427 17.296 251.285 17.1645 251.006 17.1119L251.011 17.1066ZM260.069 15.6863C260.038 15.5496 259.891 15.5075 259.664 15.6074C259.407 15.7232 259.154 15.8494 258.938 15.9967C258.765 16.1124 258.87 16.1966 259.154 16.1598C259.585 16.1072 259.901 15.9494 260.069 15.6863ZM267.508 14.5028C267.429 14.1977 267.271 14.1556 267.039 14.2608C266.776 14.3765 266.387 14.5133 266.324 14.6553C266.213 14.9131 266.587 14.9394 266.903 14.8237C267.176 14.7237 267.397 14.5606 267.508 14.5028ZM275.929 13.5349C275.771 13.3139 275.687 12.9562 275.161 12.8931C274.625 12.83 274.514 13.1403 274.509 13.3876C274.509 13.719 274.672 13.9925 275.335 13.9662C275.682 13.9504 275.903 13.8137 275.929 13.5349ZM286.844 13.6138L286.629 13.6559L286.813 13.719L286.85 13.6138H286.844ZM287.239 12.4828L286.697 12.6932L286.587 12.8142L286.755 12.7248C286.881 12.6196 287.365 12.7669 287.244 12.4828H287.239ZM289.417 12.7984L289.222 12.8458L289.411 12.8879V12.8037L289.417 12.7984ZM290.795 6.44396C290.926 6.32824 291.431 6.49657 291.305 6.20725C291.121 6.27563 290.942 6.34928 290.758 6.42292L290.6 6.53339L290.79 6.44396H290.795ZM291.752 11.7148C291.658 11.6622 291.221 11.699 291.21 11.7358C291 12.2987 291.168 12.7984 292.247 13.2666C292.199 12.6669 292.526 12.1567 291.752 11.7148ZM299.901 11.9463C299.253 11.7464 298.601 11.7043 297.87 11.699C297.144 11.7095 296.339 11.7779 295.377 11.7621C296.339 12.1409 297.139 12.1935 297.87 12.1514C298.596 12.1304 299.248 11.9936 299.901 11.9463ZM303.067 9.05834C302.952 8.92683 302.757 8.90053 302.568 8.98996C302.504 9.02152 302.462 9.11094 302.499 9.14777C302.615 9.27927 302.799 9.30032 302.999 9.21615C303.025 9.15829 303.099 9.0899 303.067 9.05308V9.05834ZM309.043 12.7932L308.443 12.6301C307.149 12.0462 307.002 12.8089 306.697 13.1561C306.313 13.5927 306.287 14.0977 307.707 14.4239C307.623 13.6927 307.349 12.9983 308.433 12.6354C308.627 12.7037 308.68 13.0036 309.048 12.7932H309.043ZM311.105 13.193C311.079 13.1456 311.063 13.0614 311.021 13.0509C310.937 13.0351 310.81 13.0457 310.763 13.0772C310.584 13.1982 310.642 13.2771 310.9 13.2824C310.974 13.2824 311.037 13.2245 311.105 13.1877V13.193ZM322.288 11.7411C322.278 11.7779 322.357 11.8568 322.425 11.8884C322.494 11.9147 322.604 11.9042 322.693 11.9094C322.683 11.8568 322.699 11.799 322.657 11.7569C322.488 11.5886 322.341 11.5833 322.288 11.7464V11.7411ZM318.38 14.1819C318.08 13.9031 317.728 13.7611 317.296 13.7137C316.86 13.6769 316.35 13.719 315.734 13.7926C316.665 14.2924 317.296 14.6501 318.196 14.4765C318.322 14.4502 318.443 14.2398 318.38 14.1819ZM323.193 16.6279L323.104 16.5017C322.962 16.2492 322.867 15.9809 322.662 15.7442C322.446 15.497 322.067 15.255 321.657 15.4759C321.331 15.6548 321.441 15.9599 321.852 16.144C322.21 16.3071 322.646 16.3965 323.046 16.5175L323.193 16.6227V16.6279ZM325.818 9.29506C325.681 9.18985 325.566 9.07938 325.408 8.9847C325.187 8.85319 324.955 8.85845 324.945 9.00048C324.94 9.07938 325.145 9.22667 325.303 9.27927C325.445 9.32662 325.645 9.2898 325.818 9.2898V9.29506ZM327.759 16.023C327.296 15.7758 326.818 15.6969 326.36 15.8021C326.16 15.8494 326.192 16.0335 326.407 16.1072C326.933 16.286 327.344 16.1545 327.759 16.023ZM328.422 14.1398C327.475 14.103 326.965 14.2082 326.733 14.5659C326.723 14.5817 327.049 14.7553 327.217 14.7763C327.859 14.8605 328.033 14.5606 328.422 14.1398ZM330.442 17.5169C330.416 17.4801 330.268 17.4328 330.216 17.4433C329.979 17.4854 329.958 17.5853 330.158 17.6747C330.216 17.701 330.326 17.6747 330.416 17.6642C330.426 17.6116 330.473 17.5538 330.442 17.5117V17.5169ZM337.107 20.6258L337.028 20.5311L336.923 20.589L337.107 20.6258ZM339.463 18.69C337.543 18.2429 336.739 18.5743 336.333 19.3212L336.202 19.3949L336.386 19.3738C336.975 18.832 338.196 18.9162 339.463 18.69Z" fill="#F3E6F7"/>
</svg>
